<?xml version="1.0" encoding="UTF-8" standalone="no"?>
<svg width="128px" height="128px" viewBox="0 0 128 128" version="1.1" xmlns="http://www.w3.org/2000/svg" xmlns:xlink="http://www.w3.org/1999/xlink" xmlns:sketch="http://www.bohemiancoding.com/sketch/ns">
    <!-- Generator: Sketch 3.3.3 (12081) - http://www.bohemiancoding.com/sketch -->
    <title></title>
    <desc>Created with Sketch.</desc>
    <defs></defs>
    <g id="Tileset" stroke="none" stroke-width="1" fill="none" fill-rule="evenodd" sketch:type="MSPage">
        <g id="terrain" sketch:type="MSArtboardGroup" transform="translate(-2176.000000, -384.000000)">
            <g id="Liquid-Acid-01" sketch:type="MSLayerGroup" transform="translate(2176.000000, 384.000000)">
                <rect id="Rectangle-93-Copy-4" sketch:type="MSShapeGroup" x="0" y="0" width="128" height="128"></rect>
                <rect id="Rectangle-93" fill="#5EC061" sketch:type="MSShapeGroup" x="0" y="34" width="128" height="94"></rect>
                <path d="M0,34.7108159 C0,27.6466434 5.72920087,21.92 12.8,21.92 C19.8692448,21.92 25.6,27.6464587 25.6,34.7108159 L25.6,59.0491841 C25.6,66.1133566 19.8707991,71.84 12.8,71.84 C5.7307552,71.84 0,66.1135413 0,59.0491841 L0,34.7108159 Z M25.6,34.7108159 C25.6,27.6466434 31.3292009,21.92 38.4,21.92 C45.4692448,21.92 51.2,27.6464587 51.2,34.7108159 L51.2,59.0491841 C51.2,66.1133566 45.4707991,71.84 38.4,71.84 C31.3307552,71.84 25.6,66.1135413 25.6,59.0491841 L25.6,34.7108159 Z M51.2,34.7108159 C51.2,27.6466434 56.9292009,21.92 64,21.92 C71.0692448,21.92 76.8,27.6464587 76.8,34.7108159 L76.8,59.0491841 C76.8,66.1133566 71.0707991,71.84 64,71.84 C56.9307552,71.84 51.2,66.1135413 51.2,59.0491841 L51.2,34.7108159 Z M76.8,34.7108159 C76.8,27.6466434 82.5292009,21.92 89.6,21.92 C96.6692448,21.92 102.4,27.6464587 102.4,34.7108159 L102.4,59.0491841 C102.4,66.1133566 96.6707991,71.84 89.6,71.84 C82.5307552,71.84 76.8,66.1135413 76.8,59.0491841 L76.8,34.7108159 Z M102.4,34.7108159 C102.4,27.6466434 108.129201,21.92 115.2,21.92 C122.269245,21.92 128,27.6464587 128,34.7108159 L128,59.0491841 C128,66.1133566 122.270799,71.84 115.2,71.84 C108.130755,71.84 102.4,66.1135413 102.4,59.0491841 L102.4,34.7108159 Z" id="Rectangle-283" fill="#B7D839" sketch:type="MSShapeGroup"></path>
                <path d="M128,4 L128,33.4457733 C128,40.5118296 122.270799,46.24 115.2,46.24 C108.130755,46.24 102.4,40.5140111 102.4,33.4457733 L102.4,4 L102.4,7.84577334 C102.4,14.9140111 108.130755,20.64 115.2,20.64 C122.270799,20.64 128,14.9118296 128,7.84577334 L128,4 Z M102.4,4 L102.4,33.4457733 C102.4,40.5118296 96.6707991,46.24 89.6,46.24 C82.5307552,46.24 76.8,40.5140111 76.8,33.4457733 L76.8,4 L76.8,7.84577334 C76.8,14.9140111 82.5307552,20.64 89.6,20.64 C96.6707991,20.64 102.4,14.9118296 102.4,7.84577334 L102.4,4 L102.4,4 Z M76.8,4 L76.8,33.4457733 C76.8,40.5118296 71.0707991,46.24 64,46.24 C56.9307552,46.24 51.2,40.5140111 51.2,33.4457733 L51.2,4 L51.2,7.84577334 C51.2,14.9140111 56.9307552,20.64 64,20.64 C71.0707991,20.64 76.8,14.9118296 76.8,7.84577334 L76.8,4 L76.8,4 Z M51.2,4 L51.2,33.4457733 C51.2,40.5118296 45.4707991,46.24 38.4,46.24 C31.3307552,46.24 25.6,40.5140111 25.6,33.4457733 L25.6,4 L25.6,7.84577334 C25.6,14.9140111 31.3307552,20.64 38.4,20.64 C45.4707991,20.64 51.2,14.9118296 51.2,7.84577334 L51.2,4 L51.2,4 Z M25.6,4 L25.6,33.4457733 C25.6,40.5118296 19.8707991,46.24 12.8,46.24 C5.7307552,46.24 0,40.5140111 0,33.4457733 L0,4 L0,7.84577334 C0,14.9140111 5.7307552,20.64 12.8,20.64 C19.8707991,20.64 25.6,14.9118296 25.6,7.84577334 L25.6,4 L25.6,4 Z" id="Rectangle-283-Copy" fill="#FFFFFF" sketch:type="MSShapeGroup"></path>
            </g>
        </g>
    </g>
</svg>