<?xml version="1.0" encoding="UTF-8" standalone="no"?>
<svg width="128px" height="128px" viewBox="0 0 128 128" version="1.1" xmlns="http://www.w3.org/2000/svg" xmlns:xlink="http://www.w3.org/1999/xlink" xmlns:sketch="http://www.bohemiancoding.com/sketch/ns">
    <!-- Generator: Sketch 3.3.3 (12081) - http://www.bohemiancoding.com/sketch -->
    <title></title>
    <desc>Created with Sketch.</desc>
    <defs></defs>
    <g id="Tileset" stroke="none" stroke-width="1" fill="none" fill-rule="evenodd" sketch:type="MSPage">
        <g id="terrain" sketch:type="MSArtboardGroup" transform="translate(-768.000000, -384.000000)">
            <g id="Terrain-Earth-C-08" sketch:type="MSLayerGroup" transform="translate(768.000000, 384.000000)">
                <path d="M0,0 L118.00937,0 C123.527043,0 128,4.47207592 128,9.99050677 L128,30.0094932 C128,35.5270978 123.518484,40 117.992774,40 L50.8476563,40 L10.000347,40 C4.47730784,40 0,35.5279241 0,30.0094932 L0,0 Z" id="Rectangle-782-Copy" fill="#B8E986" sketch:type="MSShapeGroup"></path>
                <path d="M0,16 L104.008087,16 C109.526468,16 114,20.4759382 114,26 L114,26 C114,31.5228475 109.525081,36 104,36 L50,36 L9.99807492,36 C4.47629061,36 0,31.5240618 0,26 L0,16 Z" id="Rectangle-780-Copy" fill="#9BCA6A" sketch:type="MSShapeGroup"></path>
                <g id="Rectangle-20-Copy-36-+-Rectangle-20-Copy-33-Copy" transform="translate(64.000000, 77.000000) scale(-1, 1) translate(-64.000000, -77.000000) translate(0.000000, 26.000000)" sketch:type="MSShapeGroup">
                    <rect id="Rectangle-20-Copy-36" fill="#916442" transform="translate(71.000000, 51.000000) scale(-1, 1) translate(-71.000000, -51.000000) " x="14" y="0" width="114" height="102"></rect>
                    <path d="M78,4 L128,4 L128,102 L38.0000638,102 C32.4747329,102 28,97.5208933 28,91.9956352 L28,84 L9.99063018,84 C4.48053479,84 0,79.5271165 0,74.0095352 L0,4 L78,4 Z" id="Rectangle-20-Copy-33" fill="#AC7849"></path>
                </g>
                <path d="M19.64,64.88 C22.1142357,64.88 24.12,62.8742357 24.12,60.4 C24.12,57.9257643 22.1142357,55.92 19.64,55.92 C17.1657643,55.92 15.16,57.9257643 15.16,60.4 C15.16,62.8742357 17.1657643,64.88 19.64,64.88 Z M57.4,81.52 C60.9346224,81.52 63.8,78.6546224 63.8,75.12 C63.8,71.5853776 60.9346224,68.72 57.4,68.72 C53.8653776,68.72 51,71.5853776 51,75.12 C51,78.6546224 53.8653776,81.52 57.4,81.52 Z M31.8,112.24 C35.3346224,112.24 38.2,109.374622 38.2,105.84 C38.2,102.305378 35.3346224,99.44 31.8,99.44 C28.2653776,99.44 25.4,102.305378 25.4,105.84 C25.4,109.374622 28.2653776,112.24 31.8,112.24 Z M99.52,89.04 C101.994236,89.04 104,87.0342357 104,84.56 C104,82.0857643 101.994236,80.08 99.52,80.08 C97.0457643,80.08 95.04,82.0857643 95.04,84.56 C95.04,87.0342357 97.0457643,89.04 99.52,89.04 Z M88.12,48.88 C90.5942357,48.88 92.6,46.8742357 92.6,44.4 C92.6,41.9257643 90.5942357,39.92 88.12,39.92 C85.6457643,39.92 83.64,41.9257643 83.64,44.4 C83.64,46.8742357 85.6457643,48.88 88.12,48.88 Z" id="Oval-185-Copy-18" fill="#C99951" sketch:type="MSShapeGroup"></path>
                <path d="M128,29 L128,26 L0,26 L0,32 L110,32 L110,35 C110,39.9716556 114.029437,44 119,44 C123.971656,44 128,39.9705627 128,35 L128,29 Z" id="Rectangle-20-Copy-60" fill="#916442" sketch:type="MSShapeGroup"></path>
                <rect id="Rectangle-20-Copy-85" fill="#B8E986" sketch:type="MSShapeGroup" transform="translate(121.000000, 25.000000) scale(-1, 1) translate(-121.000000, -25.000000) " x="114" y="12" width="14" height="26" rx="10"></rect>
            </g>
        </g>
    </g>
</svg>