<?xml version="1.0" encoding="UTF-8" standalone="no"?>
<svg width="128px" height="128px" viewBox="0 0 128 128" version="1.1" xmlns="http://www.w3.org/2000/svg" xmlns:xlink="http://www.w3.org/1999/xlink" xmlns:sketch="http://www.bohemiancoding.com/sketch/ns">
    <!-- Generator: Sketch 3.4.2 (15857) - http://www.bohemiancoding.com/sketch -->
    <title></title>
    <desc>Created with Sketch.</desc>
    <defs></defs>
    <g id="Terrain" stroke="none" stroke-width="1" fill="none" fill-rule="evenodd" sketch:type="MSPage">
        <g sketch:type="MSArtboardGroup" transform="translate(-640.000000, -768.000000)" id="Terrain-Earth-B-36">
            <g sketch:type="MSLayerGroup" transform="translate(640.000000, 768.000000)">
                <rect id="Rectangle-20-Copy-68" fill="#C99951" sketch:type="MSShapeGroup" x="0" y="0" width="128" height="128"></rect>
                <path d="M63.64,32.88 C66.1142357,32.88 68.12,30.8742357 68.12,28.4 C68.12,25.9257643 66.1142357,23.92 63.64,23.92 C61.1657643,23.92 59.16,25.9257643 59.16,28.4 C59.16,30.8742357 61.1657643,32.88 63.64,32.88 Z M90.56,78.72 C94.0946224,78.72 96.96,75.8546224 96.96,72.32 C96.96,68.7853776 94.0946224,65.92 90.56,65.92 C87.0253776,65.92 84.16,68.7853776 84.16,72.32 C84.16,75.8546224 87.0253776,78.72 90.56,78.72 Z M31.64,104.88 C34.1142357,104.88 36.12,102.874236 36.12,100.4 C36.12,97.9257643 34.1142357,95.92 31.64,95.92 C29.1657643,95.92 27.16,97.9257643 27.16,100.4 C27.16,102.874236 29.1657643,104.88 31.64,104.88 Z" id="Oval-185-Copy-18" fill="#AC7849" sketch:type="MSShapeGroup"></path>
            </g>
        </g>
    </g>
</svg>