<?xml version="1.0" encoding="UTF-8" standalone="no"?>
<svg width="128px" height="128px" viewBox="0 0 128 128" version="1.1" xmlns="http://www.w3.org/2000/svg" xmlns:xlink="http://www.w3.org/1999/xlink" xmlns:sketch="http://www.bohemiancoding.com/sketch/ns">
    <!-- Generator: Sketch 3.3.3 (12081) - http://www.bohemiancoding.com/sketch -->
    <title></title>
    <desc>Created with Sketch.</desc>
    <defs></defs>
    <g id="Tileset" stroke="none" stroke-width="1" fill="none" fill-rule="evenodd" sketch:type="MSPage">
        <g id="terrain" sketch:type="MSArtboardGroup" transform="translate(-128.000000, -128.000000)">
            <g id="Terrain-Earth-A-20" sketch:type="MSLayerGroup" transform="translate(128.000000, 128.000000)">
                <rect id="Rectangle-889" sketch:type="MSShapeGroup" x="0" y="0" width="128" height="128"></rect>
                <rect id="Path-Copy-10" fill="#916442" sketch:type="MSShapeGroup" transform="translate(86.000000, 65.000000) scale(-1, 1) translate(-86.000000, -65.000000) " x="58" y="30" width="56" height="70" rx="10"></rect>
                <path d="M28,24.0052016 C26.3302412,25.2581576 24.2551577,26 22.0066283,26 L9.99337167,26 C4.4831571,26 0,21.5244138 0,16.0034985 L0,0 L32,0 L32,5.99799698 C33.6725745,4.74342397 35.7528136,4 38.0096708,4 L63.9903292,4 C69.5185177,4 74,8.48530063 74,13.9920972 L74,64.0079028 C74,69.5263857 69.5265712,74 63.9903292,74 L38.0096708,74 C32.4814823,74 28,69.5146994 28,64.0079028 L28,24.0052016 Z" id="Rectangle-889-Copy-2" fill="#AC7849" sketch:type="MSShapeGroup"></path>
                <path d="M128,95 L128,68 L128,0 L74.9988433,1.42108547e-14 L14.0000023,1.42108547e-14 L14,37.9960546 C13.9999997,43.5273801 18.4745838,48 23.9942634,48 L50,48 L50,48 L50,76.0085796 C50,81.5274009 54.4761168,86 59.9976867,86 L72,86 L72,99.9911289 C72,105.514786 76.475152,110 81.9955317,110 L102,110 L102,117.996055 C102,123.52738 106.475586,128 111.996501,128 L128,128 L128,95 Z" id="Path-Copy-13" fill="#C99951" sketch:type="MSShapeGroup"></path>
            </g>
        </g>
    </g>
</svg>