<?xml version="1.0" encoding="UTF-8" standalone="no"?>
<svg width="128px" height="128px" viewBox="0 0 128 128" version="1.1" xmlns="http://www.w3.org/2000/svg" xmlns:xlink="http://www.w3.org/1999/xlink" xmlns:sketch="http://www.bohemiancoding.com/sketch/ns">
    <!-- Generator: Sketch 3.3.3 (12081) - http://www.bohemiancoding.com/sketch -->
    <title></title>
    <desc>Created with Sketch.</desc>
    <defs></defs>
    <g id="Tileset" stroke="none" stroke-width="1" fill="none" fill-rule="evenodd" sketch:type="MSPage">
        <g id="terrain" sketch:type="MSArtboardGroup" transform="translate(-1408.000000, -256.000000)">
            <g id="Terrain-Earth-B-24" sketch:type="MSLayerGroup" transform="translate(1408.000000, 256.000000)">
                <rect id="Rectangle-20-Copy-38" fill="#C99951" sketch:type="MSShapeGroup" x="0" y="0" width="128" height="128"></rect>
                <path d="M17.5632349,64.16 C20.0374705,64.16 22.0432349,62.1542357 22.0432349,59.68 C22.0432349,57.2057643 20.0374705,55.2 17.5632349,55.2 C15.0889992,55.2 13.0832349,57.2057643 13.0832349,59.68 C13.0832349,62.1542357 15.0889992,64.16 17.5632349,64.16 Z M76.4432349,119.2 C78.9174705,119.2 80.9232349,117.194236 80.9232349,114.72 C80.9232349,112.245764 78.9174705,110.24 76.4432349,110.24 C73.9689992,110.24 71.9632349,112.245764 71.9632349,114.72 C71.9632349,117.194236 73.9689992,119.2 76.4432349,119.2 Z M55.3232349,80.8 C58.8578573,80.8 61.7232349,77.9346224 61.7232349,74.4 C61.7232349,70.8653776 58.8578573,68 55.3232349,68 C51.7886125,68 48.9232349,70.8653776 48.9232349,74.4 C48.9232349,77.9346224 51.7886125,80.8 55.3232349,80.8 Z M29.7232349,111.52 C33.2578573,111.52 36.1232349,108.654622 36.1232349,105.12 C36.1232349,101.585378 33.2578573,98.72 29.7232349,98.72 C26.1886125,98.72 23.3232349,101.585378 23.3232349,105.12 C23.3232349,108.654622 26.1886125,111.52 29.7232349,111.52 Z M108.443235,92.32 C110.917471,92.32 112.923235,90.3142357 112.923235,87.84 C112.923235,85.3657643 110.917471,83.36 108.443235,83.36 C105.968999,83.36 103.963235,85.3657643 103.963235,87.84 C103.963235,90.3142357 105.968999,92.32 108.443235,92.32 Z M92.0432349,42.16 C94.5174705,42.16 96.5232349,40.1542357 96.5232349,37.68 C96.5232349,35.2057643 94.5174705,33.2 92.0432349,33.2 C89.5689992,33.2 87.5632349,35.2057643 87.5632349,37.68 C87.5632349,40.1542357 89.5689992,42.16 92.0432349,42.16 Z" id="Oval-185-Copy-20" fill="#AC7849" sketch:type="MSShapeGroup" transform="translate(63.003235, 76.200000) scale(-1, 1) translate(-63.003235, -76.200000) "></path>
                <g id="Rectangle-20-Copy-35-+-Rectangle-8-Copy-3-+-Rectangle-2667-Copy" transform="translate(96.000000, 0.000000)" sketch:type="MSShapeGroup">
                    <path d="M32,26 L32,31.9813239 L0.0145417293,1.50990331e-14 L5.99774211,1.50990331e-14 L32,26 Z" id="Rectangle-20-Copy-35" fill="#AC7849"></path>
                    <path d="M32,15.9955687 L32,26.0369358 L6,4.4408921e-15 L16,2.66453526e-15 L32,15.9955687 Z" id="Rectangle-8-Copy-3" fill="#9BCA6A"></path>
                    <path d="M16.0016555,0 L32,0 L32,15.998108 L16.0016555,0 Z" id="Rectangle-2667" fill="#B8E986"></path>
                </g>
            </g>
        </g>
    </g>
</svg>