<?xml version="1.0" encoding="UTF-8" standalone="no"?>
<svg width="128px" height="128px" viewBox="0 0 128 128" version="1.1" xmlns="http://www.w3.org/2000/svg" xmlns:xlink="http://www.w3.org/1999/xlink" xmlns:sketch="http://www.bohemiancoding.com/sketch/ns">
    <!-- Generator: Sketch 3.3.3 (12081) - http://www.bohemiancoding.com/sketch -->
    <title></title>
    <desc>Created with Sketch.</desc>
    <defs></defs>
    <g id="Tileset" stroke="none" stroke-width="1" fill="none" fill-rule="evenodd" sketch:type="MSPage">
        <g id="terrain" sketch:type="MSArtboardGroup" transform="translate(-384.000000, -1536.000000)">
            <g id="Terrain-Stone-D-14" sketch:type="MSLayerGroup" transform="translate(384.000000, 1536.000000)">
                <rect id="Rectangle-782" fill="#8DA1A3" sketch:type="MSShapeGroup" x="0" y="0" width="128" height="40" rx="10"></rect>
                <path d="M14,59.991103 C14,65.5188642 18.4747329,70 24.0000638,70 L103.999936,70 C109.522819,70 114,65.5291744 114,59.991103 L114,32 L14,32 L14,59.991103 Z" id="Rectangle-20-Copy-81" fill="#5F7173" sketch:type="MSShapeGroup"></path>
                <path d="M28,59.991103 C28,65.5188642 32.4767188,70 37.9923727,70 L90.0076273,70 C95.5262624,70 100,65.5291744 100,59.991103 L100,32 L28,32 L28,59.991103 Z" id="Rectangle-20-Copy-88" fill="#6D8183" sketch:type="MSShapeGroup"></path>
                <path d="M0,45.9933138 C0,51.519854 4.48053479,56 9.99063018,56 L118.00937,56 C123.527043,56 128,51.5251634 128,45.9933138 L128,14 L0,14 L0,45.9933138 Z" id="Rectangle-20-Copy-63" fill="#6D8183" sketch:type="MSShapeGroup"></path>
            </g>
        </g>
    </g>
</svg>