<?xml version="1.0" encoding="UTF-8" standalone="no"?>
<svg width="128px" height="128px" viewBox="0 0 128 128" version="1.1" xmlns="http://www.w3.org/2000/svg" xmlns:xlink="http://www.w3.org/1999/xlink" xmlns:sketch="http://www.bohemiancoding.com/sketch/ns">
    <!-- Generator: Sketch 3.3.3 (12081) - http://www.bohemiancoding.com/sketch -->
    <title></title>
    <desc>Created with Sketch.</desc>
    <defs></defs>
    <g id="Tileset" stroke="none" stroke-width="1" fill="none" fill-rule="evenodd" sketch:type="MSPage">
        <g id="terrain" sketch:type="MSArtboardGroup" transform="translate(-1024.000000, -512.000000)">
            <g id="Terrain-Earth-C-14" sketch:type="MSLayerGroup" transform="translate(1024.000000, 512.000000)">
                <rect id="Rectangle-5335-Copy-4" sketch:type="MSShapeGroup" x="0" y="0" width="128" height="128"></rect>
                <rect id="Rectangle-782" fill="#B8E986" sketch:type="MSShapeGroup" x="0" y="0" width="128" height="40" rx="10"></rect>
                <rect id="Rectangle-780" fill="#9BCA6A" sketch:type="MSShapeGroup" x="14" y="16" width="100" height="20" rx="10"></rect>
                <g id="Rectangle-20-Copy-81-+-Rectangle-20-Copy-88-+-Rectangle-20-Copy-63-Copy-Copy-Copy" transform="translate(0.000000, 28.000000)" sketch:type="MSShapeGroup">
                    <path d="M14,31.991103 C14,37.5188642 18.4747329,42 24.0000638,42 L103.999936,42 C109.522819,42 114,37.5291744 114,31.991103 L114,4 L14,4 L14,31.991103 Z" id="Rectangle-20-Copy-81" fill="#916442"></path>
                    <path d="M100,28 L100,31.991103 C100,37.5291744 95.5262624,42 90.0076273,42 L37.9923727,42 C32.4767188,42 28,37.5188642 28,31.991103 L28,28 L9.99063018,28 C4.48053479,28 0,23.5272986 0,18.0099418 L0,0 L128,0 L128,18.0099418 C128,23.5323558 123.527043,28 118.00937,28 L100,28 Z" id="Rectangle-20-Copy-88" fill="#AC7849"></path>
                </g>
                <path d="M0,29 L0,26 L128,26 L128,29 L128,35 C128,39.9705627 123.971656,44 119,44 C114.029437,44 110,39.9716556 110,35 L110,32 L18,32 L18,35 C18,39.9705627 13.9716556,44 9,44 C4.02943725,44 0,39.9716556 0,35 L0,29 Z" id="Rectangle-20-Copy-14" fill="#916442" sketch:type="MSShapeGroup"></path>
                <path d="M14,19.001725 C14,15.134779 10.8581267,12 7,12 C3.13400675,12 0,15.1362075 0,19.001725 L0,30.998275 C0,34.865221 3.14187327,38 7,38 C10.8659932,38 14,34.8637925 14,30.998275 L14,19.001725 Z M128,19.001725 C128,15.134779 124.858127,12 121,12 C117.134007,12 114,15.1362075 114,19.001725 L114,30.998275 C114,34.865221 117.141873,38 121,38 C124.865993,38 128,34.8637925 128,30.998275 L128,19.001725 Z" id="Rectangle-20-Copy-40" fill="#B8E986" sketch:type="MSShapeGroup"></path>
            </g>
        </g>
    </g>
</svg>