<?xml version="1.0" encoding="UTF-8" standalone="no"?>
<svg width="128px" height="128px" viewBox="0 0 128 128" version="1.1" xmlns="http://www.w3.org/2000/svg" xmlns:xlink="http://www.w3.org/1999/xlink" xmlns:sketch="http://www.bohemiancoding.com/sketch/ns">
    <!-- Generator: Sketch 3.3.3 (12081) - http://www.bohemiancoding.com/sketch -->
    <title></title>
    <desc>Created with Sketch.</desc>
    <defs></defs>
    <g id="Tileset" stroke="none" stroke-width="1" fill="none" fill-rule="evenodd" sketch:type="MSPage">
        <g id="terrain" sketch:type="MSArtboardGroup" transform="translate(0.000000, -1280.000000)">
            <g id="Terrain-Bridge-B-01" sketch:type="MSLayerGroup" transform="translate(0.000000, 1280.000000)">
                <path d="M80,36.0096708 C80,30.4814823 84.4726199,26 90.0039454,26 L117.996055,26 C123.521081,26 128,30.4734288 128,36.0096708 L128,61.9903292 C128,67.5185177 123.52738,72 117.996055,72 L90.0039454,72 C84.4789189,72 80,67.5265712 80,61.9903292 L80,36.0096708 Z M20,58.0096708 C20,52.4814823 24.4720759,48 29.9905068,48 L50.0094932,48 C55.5270978,48 60,52.4734288 60,58.0096708 L60,83.9903292 C60,89.5185177 55.5279241,94 50.0094932,94 L29.9905068,94 C24.4729022,94 20,89.5265712 20,83.9903292 L20,58.0096708 Z" id="Rectangle-5274-Copy-6" fill="#5F7173" sketch:type="MSShapeGroup"></path>
                <path d="M0,31 L0,128 L11.9978027,128 C17.5214543,128 22,123.522485 22,117.999191 L22,112 L30.0094932,112 C35.5279241,112 40,107.526386 40,102.007903 L40,82 L84.0057357,82 C89.5295897,82 94,77.5185177 94,71.9903292 L94,60 L106.009493,60 C111.527924,60 116,55.5185177 116,49.9903292 L116,46 L128,46 L128,0 L0,0 L0,31 Z" id="Rectangle-5274-Copy-7" fill="#6D8183" sketch:type="MSShapeGroup"></path>
                <rect id="Rectangle-782-Copy-7" fill="#8DA1A3" sketch:type="MSShapeGroup" x="0" y="0" width="128" height="14"></rect>
            </g>
        </g>
    </g>
</svg>