<?xml version="1.0" encoding="UTF-8" standalone="no"?>
<svg width="128px" height="128px" viewBox="0 0 128 128" version="1.1" xmlns="http://www.w3.org/2000/svg" xmlns:xlink="http://www.w3.org/1999/xlink" xmlns:sketch="http://www.bohemiancoding.com/sketch/ns">
    <!-- Generator: Sketch 3.3.3 (12081) - http://www.bohemiancoding.com/sketch -->
    <title></title>
    <desc>Created with Sketch.</desc>
    <defs></defs>
    <g id="Tileset" stroke="none" stroke-width="1" fill="none" fill-rule="evenodd" sketch:type="MSPage">
        <g id="terrain" sketch:type="MSArtboardGroup" transform="translate(-1792.000000, -512.000000)">
            <g id="Terrain-Earth-C-29" sketch:type="MSLayerGroup" transform="translate(1856.000000, 576.000000) scale(-1, 1) translate(-1856.000000, -576.000000) translate(1792.000000, 512.000000)">
                <rect id="Rectangle-5390" fill="#AC7849" sketch:type="MSShapeGroup" x="0" y="0" width="128" height="128"></rect>
                <path d="M17.64,64.16 C20.1142357,64.16 22.12,62.1542357 22.12,59.68 C22.12,57.2057643 20.1142357,55.2 17.64,55.2 C15.1657643,55.2 13.16,57.2057643 13.16,59.68 C13.16,62.1542357 15.1657643,64.16 17.64,64.16 Z M76.52,119.2 C78.9942357,119.2 81,117.194236 81,114.72 C81,112.245764 78.9942357,110.24 76.52,110.24 C74.0457643,110.24 72.04,112.245764 72.04,114.72 C72.04,117.194236 74.0457643,119.2 76.52,119.2 Z M55.4,80.8 C58.9346224,80.8 61.8,77.9346224 61.8,74.4 C61.8,70.8653776 58.9346224,68 55.4,68 C51.8653776,68 49,70.8653776 49,74.4 C49,77.9346224 51.8653776,80.8 55.4,80.8 Z M29.8,111.52 C33.3346224,111.52 36.2,108.654622 36.2,105.12 C36.2,101.585378 33.3346224,98.72 29.8,98.72 C26.2653776,98.72 23.4,101.585378 23.4,105.12 C23.4,108.654622 26.2653776,111.52 29.8,111.52 Z M108.52,92.32 C110.994236,92.32 113,90.3142357 113,87.84 C113,85.3657643 110.994236,83.36 108.52,83.36 C106.045764,83.36 104.04,85.3657643 104.04,87.84 C104.04,90.3142357 106.045764,92.32 108.52,92.32 Z M92.12,42.16 C94.5942357,42.16 96.6,40.1542357 96.6,37.68 C96.6,35.2057643 94.5942357,33.2 92.12,33.2 C89.6457643,33.2 87.64,35.2057643 87.64,37.68 C87.64,40.1542357 89.6457643,42.16 92.12,42.16 Z" id="Oval-185-Copy-21" fill="#C99951" sketch:type="MSShapeGroup" transform="translate(63.080000, 76.200000) scale(-1, 1) translate(-63.080000, -76.200000) "></path>
                <path d="M128,32 L64,0 L89,0 L128,19.7312253 L128,32 L128,32 Z" id="Rectangle-8-Copy-3" fill="#916442" sketch:type="MSShapeGroup"></path>
                <path d="M128,26 L76,0 L101,0 L128,13.6600791 L128,26 L128,26 Z" id="Rectangle-8-Copy-5" fill="#9BCA6A" sketch:type="MSShapeGroup"></path>
                <path d="M112,0 L96,0 L128,15.9997931 L128,0 L112,0 L112,0 Z" id="Rectangle-2667" fill="#B8E986" sketch:type="MSShapeGroup"></path>
            </g>
        </g>
    </g>
</svg>