<?xml version="1.0" encoding="UTF-8" standalone="no"?>
<svg width="128px" height="128px" viewBox="0 0 128 128" version="1.1" xmlns="http://www.w3.org/2000/svg" xmlns:xlink="http://www.w3.org/1999/xlink" xmlns:sketch="http://www.bohemiancoding.com/sketch/ns">
    <!-- Generator: Sketch 3.3.3 (12081) - http://www.bohemiancoding.com/sketch -->
    <title></title>
    <desc>Created with Sketch.</desc>
    <defs></defs>
    <g id="Tileset" stroke="none" stroke-width="1" fill="none" fill-rule="evenodd" sketch:type="MSPage">
        <g id="terrain" sketch:type="MSArtboardGroup" transform="translate(-128.000000, -256.000000)">
            <g id="Terrain-Earth-B-01" sketch:type="MSLayerGroup" transform="translate(128.000000, 256.000000)">
                <rect id="Rectangle-20-Copy-34" fill="#C99951" sketch:type="MSShapeGroup" x="0" y="25.6" width="128" height="102.4"></rect>
                <path d="M20.64,64.88 C23.1142357,64.88 25.12,62.8742357 25.12,60.4 C25.12,57.9257643 23.1142357,55.92 20.64,55.92 C18.1657643,55.92 16.16,57.9257643 16.16,60.4 C16.16,62.8742357 18.1657643,64.88 20.64,64.88 Z M79.52,119.92 C81.9942357,119.92 84,117.914236 84,115.44 C84,112.965764 81.9942357,110.96 79.52,110.96 C77.0457643,110.96 75.04,112.965764 75.04,115.44 C75.04,117.914236 77.0457643,119.92 79.52,119.92 Z M58.4,81.52 C61.9346224,81.52 64.8,78.6546224 64.8,75.12 C64.8,71.5853776 61.9346224,68.72 58.4,68.72 C54.8653776,68.72 52,71.5853776 52,75.12 C52,78.6546224 54.8653776,81.52 58.4,81.52 Z M32.8,112.24 C36.3346224,112.24 39.2,109.374622 39.2,105.84 C39.2,102.305378 36.3346224,99.44 32.8,99.44 C29.2653776,99.44 26.4,102.305378 26.4,105.84 C26.4,109.374622 29.2653776,112.24 32.8,112.24 Z M111.52,93.04 C113.994236,93.04 116,91.0342357 116,88.56 C116,86.0857643 113.994236,84.08 111.52,84.08 C109.045764,84.08 107.04,86.0857643 107.04,88.56 C107.04,91.0342357 109.045764,93.04 111.52,93.04 Z M89.12,48.88 C91.5942357,48.88 93.6,46.8742357 93.6,44.4 C93.6,41.9257643 91.5942357,39.92 89.12,39.92 C86.6457643,39.92 84.64,41.9257643 84.64,44.4 C84.64,46.8742357 86.6457643,48.88 89.12,48.88 Z" id="Oval-185-Copy-18" fill="#AC7849" sketch:type="MSShapeGroup"></path>
                <rect id="Rectangle-8-Copy-2" fill="#B8E986" sketch:type="MSShapeGroup" x="0" y="0" width="128" height="19.2"></rect>
                <rect id="Rectangle-8-Copy-3" fill="#9BCA6A" sketch:type="MSShapeGroup" x="0" y="16" width="128" height="10"></rect>
                <rect id="Rectangle-20-Copy-35" fill="#AC7849" sketch:type="MSShapeGroup" x="0" y="26" width="128" height="6"></rect>
            </g>
        </g>
    </g>
</svg>