<?xml version="1.0" encoding="UTF-8" standalone="no"?>
<svg width="128px" height="129px" viewBox="0 0 128 129" version="1.1" xmlns="http://www.w3.org/2000/svg" xmlns:xlink="http://www.w3.org/1999/xlink" xmlns:sketch="http://www.bohemiancoding.com/sketch/ns">
    <!-- Generator: Sketch 3.3.3 (12081) - http://www.bohemiancoding.com/sketch -->
    <title></title>
    <desc>Created with Sketch.</desc>
    <defs></defs>
    <g id="Tileset" stroke="none" stroke-width="1" fill="none" fill-rule="evenodd" sketch:type="MSPage">
        <g id="terrain" sketch:type="MSArtboardGroup" transform="translate(-1152.000000, 0.000000)">
            <g id="Terrain-Earth-A-22" sketch:type="MSLayerGroup" transform="translate(1216.000000, 64.000000) scale(-1, 1) translate(-1216.000000, -64.000000) translate(1152.000000, 0.000000)">
                <rect id="Mask" sketch:type="MSShapeGroup" x="0" y="0" width="128" height="128"></rect>
                <path d="M0,5.6 L119,128 L0,128 L0,5.6 Z" id="Rectangle-20-Copy-34" fill="#C99951" sketch:type="MSShapeGroup"></path>
                <g id="Rectangle-8-Copy-3-+-Rectangle-20-Copy-35-+-Rectangle-2667" sketch:type="MSShapeGroup">
                    <path d="M0,14.0604718 L112.24265,128 L101.924503,128 L1.86517468e-14,26.2262275 L6.66133815e-16,14.0604718 L0,14.0604718 Z" id="Rectangle-8-Copy-3" fill="#9BCA6A"></path>
                    <path d="M101.997742,128 L0.0153808594,26.0145264 L0.0153808594,32.0040894 L96.0145417,128 L101.997742,128 L101.997742,128 Z" id="Rectangle-20-Copy-35" fill="#AC7849"></path>
                    <path d="M0,0 L0,16 L112.001655,128 L128,128 L0,0 Z" id="Rectangle-2667" fill="#B8E986"></path>
                </g>
            </g>
        </g>
    </g>
</svg>