<?xml version="1.0" encoding="UTF-8" standalone="no"?>
<svg width="128px" height="128px" viewBox="0 0 128 128" version="1.1" xmlns="http://www.w3.org/2000/svg" xmlns:xlink="http://www.w3.org/1999/xlink" xmlns:sketch="http://www.bohemiancoding.com/sketch/ns">
    <!-- Generator: Sketch 3.3.3 (12081) - http://www.bohemiancoding.com/sketch -->
    <title></title>
    <desc>Created with Sketch.</desc>
    <defs></defs>
    <g id="Tileset" stroke="none" stroke-width="1" fill="none" fill-rule="evenodd" sketch:type="MSPage">
        <g id="terrain" sketch:type="MSArtboardGroup" transform="translate(-1792.000000, -1280.000000)">
            <g id="Terrain-Stone-C-27" sketch:type="MSLayerGroup" transform="translate(1856.000000, 1344.000000) scale(-1, 1) translate(-1856.000000, -1344.000000) translate(1792.000000, 1280.000000)">
                <rect id="Mask" sketch:type="MSShapeGroup" x="0" y="0" width="128" height="128"></rect>
                <path d="M0,69.0099945 L119,127.980035 L59.5,127.980035 L0,127.980035 L0,69.0099945 L0,69.0099945 Z" id="Rectangle-20-Copy-34" fill="#6D8183" sketch:type="MSShapeGroup"></path>
                <path d="M-7.10542736e-15,95.9998869 L64,127.999887 L86,127.999887 L1.42108547e-14,84.4900055 L1.42108547e-14,95.9998869 L-7.10542736e-15,95.9998869 Z" id="Rectangle-8-Copy-3" fill="#5F7173" sketch:type="MSShapeGroup"></path>
                <path d="M-4.26325641e-14,89.9910313 L76,127.991031 L98,127.991031 L-1.42108547e-14,78.4100037 L-2.84217094e-14,89.9910313 L-4.26325641e-14,89.9910313 Z" id="Rectangle-8-Copy-5" fill="#DFDFDF" sketch:type="MSShapeGroup"></path>
                <path d="M-1.42108547e-14,79.9989653 L96.003311,128 L128,128 L-1.42108547e-14,64 L-3.55271368e-15,79.9989653 L-1.42108547e-14,79.9989653 Z" id="Rectangle-2667" fill="#FFFFFF" sketch:type="MSShapeGroup"></path>
            </g>
        </g>
    </g>
</svg>