<?xml version="1.0" encoding="UTF-8" standalone="no"?>
<svg width="128px" height="128px" viewBox="0 0 128 128" version="1.1" xmlns="http://www.w3.org/2000/svg" xmlns:xlink="http://www.w3.org/1999/xlink" xmlns:sketch="http://www.bohemiancoding.com/sketch/ns">
    <!-- Generator: Sketch 3.3.3 (12081) - http://www.bohemiancoding.com/sketch -->
    <title></title>
    <desc>Created with Sketch.</desc>
    <defs></defs>
    <g id="Tileset" stroke="none" stroke-width="1" fill="none" fill-rule="evenodd" sketch:type="MSPage">
        <g id="terrain" sketch:type="MSArtboardGroup" transform="translate(-512.000000, -1408.000000)">
            <g id="Terrain-Stone-C-07" sketch:type="MSLayerGroup" transform="translate(512.000000, 1408.000000)">
                <path d="M0,0 L118.00937,0 C123.527043,0 128,4.47207592 128,9.99050677 L128,30.0094932 C128,35.5270978 123.520346,40 117.996208,40 L63.75,40 L9.9959792,40 C4.47535233,40 0,35.5279241 0,30.0094932 L0,0 Z" id="Rectangle-782-Copy" fill="#FFFFFF" sketch:type="MSShapeGroup" transform="translate(64.000000, 20.000000) scale(-1, 1) translate(-64.000000, -20.000000) "></path>
                <path d="M14,16 L118.008087,16 C123.526468,16 128,20.4759382 128,26 L128,26 C128,31.5228475 123.531817,36 117.995767,36 L80.2773437,36 L23.9941483,36 C18.4745326,36 14,31.5240618 14,26 L14,16 Z" id="Rectangle-780-Copy" fill="#DFDFDF" sketch:type="MSShapeGroup" transform="translate(71.000000, 26.000000) scale(-1, 1) translate(-71.000000, -26.000000) "></path>
                <rect id="Rectangle-20-Copy-17" fill="#5F7173" sketch:type="MSShapeGroup" transform="translate(71.000000, 77.000000) scale(-1, 1) translate(-71.000000, -77.000000) " x="14" y="26" width="114" height="102"></rect>
                <path d="M78,30 L128,30 L128,128 L38.0000638,128 C32.4747329,128 28,123.520893 28,117.995635 L28,110 L9.99063018,110 C4.48053479,110 0,105.527117 0,100.009535 L0,30 L78,30 Z" id="Rectangle-20-Copy-24" fill="#6D8183" sketch:type="MSShapeGroup"></path>
                <rect id="Rectangle-20-Copy-60" fill="#5F7173" sketch:type="MSShapeGroup" transform="translate(64.000000, 29.000000) scale(-1, 1) translate(-64.000000, -29.000000) " x="0" y="26" width="128" height="6"></rect>
                <rect id="Rectangle-20-Copy-61" fill="#5F7173" sketch:type="MSShapeGroup" transform="translate(9.000000, 35.000000) scale(-1, 1) translate(-9.000000, -35.000000) " x="0" y="26" width="18" height="18" rx="10"></rect>
                <rect id="Rectangle-20-Copy-85" fill="#FFFFFF" sketch:type="MSShapeGroup" x="0" y="12" width="14" height="26" rx="10"></rect>
            </g>
        </g>
    </g>
</svg>