<?xml version="1.0" encoding="UTF-8" standalone="no"?>
<svg width="128px" height="128px" viewBox="0 0 128 128" version="1.1" xmlns="http://www.w3.org/2000/svg" xmlns:xlink="http://www.w3.org/1999/xlink" xmlns:sketch="http://www.bohemiancoding.com/sketch/ns">
    <!-- Generator: Sketch 3.3.3 (12081) - http://www.bohemiancoding.com/sketch -->
    <title></title>
    <desc>Created with Sketch.</desc>
    <defs></defs>
    <g id="Tileset" stroke="none" stroke-width="1" fill="none" fill-rule="evenodd" sketch:type="MSPage">
        <g id="terrain" sketch:type="MSArtboardGroup" transform="translate(-512.000000, -256.000000)">
            <g id="Terrain-Earth-B-07" sketch:type="MSLayerGroup" transform="translate(512.000000, 256.000000)">
                <path d="M0,0 L118.00937,0 C123.527043,0 128,4.47207592 128,9.99050677 L128,30.0094932 C128,35.5270978 123.521217,40 118.003019,40 L55.9667969,40 L10.0057417,40 C4.47972314,40 0,35.5279241 0,30.0094932 L0,0 Z" id="Rectangle-782-Copy" fill="#B8E986" sketch:type="MSShapeGroup" transform="translate(64.000000, 20.000000) scale(-1, 1) translate(-64.000000, -20.000000) "></path>
                <path d="M14,16 L118.008087,16 C123.526468,16 128,20.4759382 128,26 L128,26 C128,31.5228475 123.524486,36 118.001916,36 L69.2578125,36 L24.006773,36 C18.4801849,36 14,31.5240618 14,26 L14,16 Z" id="Rectangle-780-Copy" fill="#9BCA6A" sketch:type="MSShapeGroup" transform="translate(71.000000, 26.000000) scale(-1, 1) translate(-71.000000, -26.000000) "></path>
                <g id="Rectangle-20-Copy-36-+-Rectangle-20-Copy-33-Copy-Copy" transform="translate(0.000000, 26.000000)" sketch:type="MSShapeGroup">
                    <rect id="Rectangle-20-Copy-36" fill="#AC7849" transform="translate(71.000000, 51.000000) scale(-1, 1) translate(-71.000000, -51.000000) " x="14" y="0" width="114" height="102"></rect>
                    <path d="M78,4 L128,4 L128,102 L38.0000638,102 C32.4747329,102 28,97.5208933 28,91.9956352 L28,84 L9.99063018,84 C4.48053479,84 0,79.5271165 0,74.0095352 L0,4 L78,4 Z" id="Rectangle-20-Copy-33" fill="#C99951"></path>
                </g>
                <g id="Group-Copy-29" transform="translate(16.160000, 39.000000)" fill="#AC7849" sketch:type="MSShapeGroup">
                    <circle id="Oval-185-Copy-18" cx="4.48" cy="21.4" r="4.48"></circle>
                    <circle id="Oval-185-Copy-17" cx="63.36" cy="76.44" r="4.48"></circle>
                    <circle id="Oval-185-Copy-11" cx="42.24" cy="36.12" r="6.4"></circle>
                    <circle id="Oval-185-Copy-15" cx="95.36" cy="49.56" r="4.48"></circle>
                    <circle id="Oval-185-Copy-30" cx="72.96" cy="5.4" r="4.48"></circle>
                </g>
                <rect id="Rectangle-20-Copy-60" fill="#AC7849" sketch:type="MSShapeGroup" transform="translate(64.000000, 29.000000) scale(-1, 1) translate(-64.000000, -29.000000) " x="0" y="26" width="128" height="6"></rect>
                <rect id="Rectangle-20-Copy-61" fill="#AC7849" sketch:type="MSShapeGroup" transform="translate(9.000000, 35.000000) scale(-1, 1) translate(-9.000000, -35.000000) " x="0" y="26" width="18" height="18" rx="10"></rect>
                <rect id="Rectangle-20-Copy-85" fill="#B8E986" sketch:type="MSShapeGroup" x="0" y="12" width="14" height="26" rx="10"></rect>
            </g>
        </g>
    </g>
</svg>