<?xml version="1.0" encoding="UTF-8" standalone="no"?>
<svg width="128px" height="128px" viewBox="0 0 128 128" version="1.1" xmlns="http://www.w3.org/2000/svg" xmlns:xlink="http://www.w3.org/1999/xlink" xmlns:sketch="http://www.bohemiancoding.com/sketch/ns">
    <!-- Generator: Sketch 3.3.3 (12081) - http://www.bohemiancoding.com/sketch -->
    <title></title>
    <desc>Created with Sketch.</desc>
    <defs></defs>
    <g id="Tileset" stroke="none" stroke-width="1" fill="none" fill-rule="evenodd" sketch:type="MSPage">
        <g id="terrain" sketch:type="MSArtboardGroup" transform="translate(-2048.000000, -768.000000)">
            <g id="Terrain-Earth-D-31" sketch:type="MSLayerGroup" transform="translate(2048.000000, 768.000000)">
                <path d="M128,69.0299595 L0,5.6 L0,66.8 L0,128 L128,128 L128,69.0299595 L128,69.0299595 Z" id="Rectangle-20-Copy-34" fill="#C99951" sketch:type="MSShapeGroup"></path>
                <path d="M128,96 L-2.84217094e-14,32 L-2.48689958e-14,19.7312253 L128,84.4901186 L128,96 L128,96 Z" id="Rectangle-8-Copy-3" fill="#AC7849" sketch:type="MSShapeGroup"></path>
                <path d="M128,90 L-7.10542736e-15,26 L1.0658141e-14,13.6600791 L128,78.4189723 L128,90 L128,90 Z" id="Rectangle-8-Copy-5" fill="#DFDFDF" sketch:type="MSShapeGroup"></path>
                <path d="M1.77635684e-15,0 L128,64 L128,79.9989653 L0,15.9997931 L1.77635684e-15,0 L1.77635684e-15,0 Z" id="Rectangle-2667" fill="#FFFFFF" sketch:type="MSShapeGroup"></path>
            </g>
        </g>
    </g>
</svg>