<?xml version="1.0" encoding="UTF-8" standalone="no"?>
<svg width="128px" height="128px" viewBox="0 0 128 128" version="1.1" xmlns="http://www.w3.org/2000/svg" xmlns:xlink="http://www.w3.org/1999/xlink" xmlns:sketch="http://www.bohemiancoding.com/sketch/ns">
    <!-- Generator: Sketch 3.3.3 (12081) - http://www.bohemiancoding.com/sketch -->
    <title></title>
    <desc>Created with Sketch.</desc>
    <defs></defs>
    <g id="Tileset" stroke="none" stroke-width="1" fill="none" fill-rule="evenodd" sketch:type="MSPage">
        <g id="terrain" sketch:type="MSArtboardGroup" transform="translate(-384.000000, -1024.000000)">
            <g id="Terrain-Stone-A-26" sketch:type="MSLayerGroup" transform="translate(384.000000, 1024.000000)">
                <rect id="Mask" sketch:type="MSShapeGroup" x="0" y="0" width="128" height="128"></rect>
                <rect id="Path-Copy-3" fill="#57686A" sketch:type="MSShapeGroup" x="44" y="0" width="46" height="64" rx="10"></rect>
                <path d="M0,2.00331417 L0,4.00662833 C0,9.5258151 4.48053479,14 9.99063018,14 L26,14 L26,39.9960546 C26,45.5210811 30.4704103,50 35.9942643,50 L92.0057357,50 C97.5254155,50 102,45.5273801 102,39.9960546 L102,14 L102,14 L118.00937,14 C123.527043,14 128,9.5168429 128,4.00662833 L128,2.00331417 L128,0 L0,0 L0,2.00331417 Z" id="Rectangle-20-Copy-56" fill="#5F7173" sketch:type="MSShapeGroup"></path>
                <path d="M36,28 L21.9955469,28 C16.46875,28 12,23.5272986 12,18.0099418 L12,-5.32907052e-14 L116,-5.32907052e-14 L116,18.0099418 C116,23.5323558 111.524841,28 106.004453,28 L68,28 L68,30.0034985 C68,35.5304407 63.5258151,40 58.0066283,40 L45.9933717,40 C40.4831571,40 36,35.5244138 36,30.0034985 L36,28 Z" id="Rectangle-20-Copy-63" fill="#6D8183" sketch:type="MSShapeGroup"></path>
            </g>
        </g>
    </g>
</svg>