<?xml version="1.0" encoding="UTF-8" standalone="no"?>
<svg width="128px" height="128px" viewBox="0 0 128 128" version="1.1" xmlns="http://www.w3.org/2000/svg" xmlns:xlink="http://www.w3.org/1999/xlink" xmlns:sketch="http://www.bohemiancoding.com/sketch/ns">
    <!-- Generator: Sketch 3.3.3 (12081) - http://www.bohemiancoding.com/sketch -->
    <title></title>
    <desc>Created with Sketch.</desc>
    <defs></defs>
    <g id="Tileset" stroke="none" stroke-width="1" fill="none" fill-rule="evenodd" sketch:type="MSPage">
        <g id="terrain" sketch:type="MSArtboardGroup" transform="translate(-1920.000000, -1152.000000)">
            <g id="Terrain-Stone-B-30" sketch:type="MSLayerGroup" transform="translate(1920.000000, 1152.000000)">
                <rect id="Rectangle-5390" fill="#6D8183" sketch:type="MSShapeGroup" x="0" y="0" width="128" height="128"></rect>
                <path d="M17.48,64.16 C19.9542357,64.16 21.96,62.1542357 21.96,59.68 C21.96,57.2057643 19.9542357,55.2 17.48,55.2 C15.0057643,55.2 13,57.2057643 13,59.68 C13,62.1542357 15.0057643,64.16 17.48,64.16 Z M76.36,119.2 C78.8342357,119.2 80.84,117.194236 80.84,114.72 C80.84,112.245764 78.8342357,110.24 76.36,110.24 C73.8857643,110.24 71.88,112.245764 71.88,114.72 C71.88,117.194236 73.8857643,119.2 76.36,119.2 Z M55.24,80.8 C58.7746224,80.8 61.64,77.9346224 61.64,74.4 C61.64,70.8653776 58.7746224,68 55.24,68 C51.7053776,68 48.84,70.8653776 48.84,74.4 C48.84,77.9346224 51.7053776,80.8 55.24,80.8 Z M29.64,111.52 C33.1746224,111.52 36.04,108.654622 36.04,105.12 C36.04,101.585378 33.1746224,98.72 29.64,98.72 C26.1053776,98.72 23.24,101.585378 23.24,105.12 C23.24,108.654622 26.1053776,111.52 29.64,111.52 Z M108.36,92.32 C110.834236,92.32 112.84,90.3142357 112.84,87.84 C112.84,85.3657643 110.834236,83.36 108.36,83.36 C105.885764,83.36 103.88,85.3657643 103.88,87.84 C103.88,90.3142357 105.885764,92.32 108.36,92.32 Z M91.96,42.16 C94.4342357,42.16 96.44,40.1542357 96.44,37.68 C96.44,35.2057643 94.4342357,33.2 91.96,33.2 C89.4857643,33.2 87.48,35.2057643 87.48,37.68 C87.48,40.1542357 89.4857643,42.16 91.96,42.16 Z" id="Oval-185-Copy-22" fill="#8DA1A3" sketch:type="MSShapeGroup" transform="translate(62.920000, 76.200000) scale(-1, 1) translate(-62.920000, -76.200000) "></path>
                <path d="M128,32 L64,0 L89,0 L128,19.7312253 L128,32 L128,32 Z" id="Rectangle-8-Copy-3" fill="#5F7173" sketch:type="MSShapeGroup"></path>
                <path d="M128,26 L76,0 L101,0 L128,13.6600791 L128,26 L128,26 Z" id="Rectangle-8-Copy-5" fill="#9BCA6A" sketch:type="MSShapeGroup"></path>
                <path d="M112,0 L96,0 L128,15.9997931 L128,0 L112,0 L112,0 Z" id="Rectangle-2667" fill="#B8E986" sketch:type="MSShapeGroup"></path>
            </g>
        </g>
    </g>
</svg>