<?xml version="1.0" encoding="UTF-8" standalone="no"?>
<svg width="128px" height="128px" viewBox="0 0 128 128" version="1.1" xmlns="http://www.w3.org/2000/svg" xmlns:xlink="http://www.w3.org/1999/xlink" xmlns:sketch="http://www.bohemiancoding.com/sketch/ns">
    <!-- Generator: Sketch 3.3.3 (12081) - http://www.bohemiancoding.com/sketch -->
    <title></title>
    <desc>Created with Sketch.</desc>
    <defs></defs>
    <g id="Tileset" stroke="none" stroke-width="1" fill="none" fill-rule="evenodd" sketch:type="MSPage">
        <g id="terrain" sketch:type="MSArtboardGroup" transform="translate(0.000000, -128.000000)">
            <g id="Terrain-Earth-A-13" sketch:type="MSLayerGroup" transform="translate(0.000000, 128.000000)">
                <g id="Group-Copy-75" transform="translate(0.000000, 36.000000)" sketch:type="MSShapeGroup">
                    <rect id="Path-Copy-3" fill="#916442" x="44" y="28" width="46" height="64" rx="10"></rect>
                    <path d="M102,42 L102,67.9960546 C102,73.5273801 97.5254155,78 92.0057357,78 L35.9942643,78 C30.4704103,78 26,73.5210811 26,67.9960546 L26,42 L9.99063018,42 C4.48053479,42 0,37.519854 0,31.9933138 L0,0 L128,0 L128,31.9933138 C128,37.5251634 123.527043,42 118.00937,42 L102,42 Z" id="Rectangle-20-Copy-56" fill="#AC7849"></path>
                    <path d="M36,56 L21.9955469,56 C16.46875,56 12,51.5258151 12,46.0066283 L12,24 L116,24 L116,46.0066283 C116,51.5168429 111.524841,56 106.004453,56 L68,56 L68,58.0034985 C68,63.5304407 63.5258151,68 58.0066283,68 L45.9933717,68 C40.4831571,68 36,63.5244138 36,58.0034985 L36,56 Z" id="Rectangle-20-Copy-63" fill="#C99951"></path>
                </g>
                <rect id="Rectangle-20-Copy-12" fill="#C99951" sketch:type="MSShapeGroup" x="0" y="0" width="128" height="64"></rect>
            </g>
        </g>
    </g>
</svg>