<?xml version="1.0" encoding="UTF-8" standalone="no"?>
<svg width="128px" height="128px" viewBox="0 0 128 128" version="1.1" xmlns="http://www.w3.org/2000/svg" xmlns:xlink="http://www.w3.org/1999/xlink" xmlns:sketch="http://www.bohemiancoding.com/sketch/ns">
    <!-- Generator: Sketch 3.3.3 (12081) - http://www.bohemiancoding.com/sketch -->
    <title></title>
    <desc>Created with Sketch.</desc>
    <defs></defs>
    <g id="Tileset" stroke="none" stroke-width="1" fill="none" fill-rule="evenodd" sketch:type="MSPage">
        <g id="terrain" sketch:type="MSArtboardGroup" transform="translate(-1024.000000, 0.000000)">
            <g id="Terrain-Earth-A-05" sketch:type="MSLayerGroup" transform="translate(1024.000000, 0.000000)">
                <g id="Group-Copy-73" transform="translate(0.000000, 53.000000)" sketch:type="MSShapeGroup">
                    <rect id="Path-Copy-3" fill="#916442" x="44" y="11" width="46" height="64" rx="10"></rect>
                    <path d="M102,25 L102,50.9960546 C102,56.5273801 97.5254155,61 92.0057357,61 L35.9942643,61 C30.4704103,61 26,56.5210811 26,50.9960546 L26,25 L9.99063018,25 C4.48053479,25 0,20.5199721 0,14.9935777 L0,0 L128,0 L128,14.9935777 C128,20.530501 123.527043,25 118.00937,25 L102,25 Z" id="Rectangle-20-Copy-56" fill="#AC7849"></path>
                    <path d="M36,39 L21.9955469,39 C16.46875,39 12,34.5228523 12,29.0000108 L12,9 L116,9 L116,29.0000108 C116,34.5249049 111.524841,39 106.004453,39 L68,39 L68,41.0034985 C68,46.5304407 63.5258151,51 58.0066283,51 L45.9933717,51 C40.4831571,51 36,46.5244138 36,41.0034985 L36,39 Z" id="Rectangle-20-Copy-63" fill="#C99951"></path>
                </g>
                <rect id="Rectangle-782" fill="#B8E986" sketch:type="MSShapeGroup" x="0" y="0" width="128" height="40" rx="10"></rect>
                <rect id="Rectangle-780" fill="#9BCA6A" sketch:type="MSShapeGroup" x="14" y="16" width="100" height="20" rx="10"></rect>
                <rect id="Rectangle-20-Copy-12" fill="#C99951" sketch:type="MSShapeGroup" x="0" y="26" width="128" height="38"></rect>
                <rect id="Rectangle-20-Copy-14" fill="#AC7849" sketch:type="MSShapeGroup" x="0" y="26" width="128" height="6"></rect>
                <path d="M110,26 L128,26 L128,35 C128,39.9705627 123.971656,44 119,44 C114.029437,44 110,39.9716556 110,35 L110,26 Z M0,26 L18,26 L18,35 C18,39.9705627 13.9716556,44 9,44 C4.02943725,44 0,39.9716556 0,35 L0,26 Z" id="Rectangle-20-Copy-29" fill="#AC7849" sketch:type="MSShapeGroup"></path>
                <path d="M14,19.001725 C14,15.134779 10.8581267,12 7,12 C3.13400675,12 0,15.1362075 0,19.001725 L0,30.998275 C0,34.865221 3.14187327,38 7,38 C10.8659932,38 14,34.8637925 14,30.998275 L14,19.001725 Z M128,19.001725 C128,15.134779 124.858127,12 121,12 C117.134007,12 114,15.1362075 114,19.001725 L114,30.998275 C114,34.865221 117.141873,38 121,38 C124.865993,38 128,34.8637925 128,30.998275 L128,19.001725 Z" id="Rectangle-20-Copy-40" fill="#B8E986" sketch:type="MSShapeGroup"></path>
            </g>
        </g>
    </g>
</svg>