<?xml version="1.0" encoding="UTF-8" standalone="no"?>
<svg width="128px" height="128px" viewBox="0 0 128 128" version="1.1" xmlns="http://www.w3.org/2000/svg" xmlns:xlink="http://www.w3.org/1999/xlink" xmlns:sketch="http://www.bohemiancoding.com/sketch/ns">
    <!-- Generator: Sketch 3.3.3 (12081) - http://www.bohemiancoding.com/sketch -->
    <title></title>
    <desc>Created with Sketch.</desc>
    <defs></defs>
    <g id="Tileset" stroke="none" stroke-width="1" fill="none" fill-rule="evenodd" sketch:type="MSPage">
        <g id="terrain" sketch:type="MSArtboardGroup" transform="translate(-384.000000, -128.000000)">
            <g id="Terrain-Earth-A-26" sketch:type="MSLayerGroup" transform="translate(384.000000, 128.000000)">
                <rect id="Mask" sketch:type="MSShapeGroup" x="0" y="0" width="128" height="128"></rect>
                <rect id="Path-Copy-3" fill="#916442" sketch:type="MSShapeGroup" x="44" y="0" width="46" height="64" rx="10"></rect>
                <path d="M0,2.00467899 L0,4.00935797 C0,9.52703721 4.48053479,14 9.99063018,14 L26,14 L26,39.9960546 C26,45.5210811 30.4704103,50 35.9942643,50 L92.0057357,50 C97.5254155,50 102,45.5273801 102,39.9960546 L102,14 L102,14 L118.00937,14 C123.527043,14 128,9.51512949 128,4.00935797 L128,2.00467899 L128,0 L0,0 L0,2.00467899 Z" id="Rectangle-20-Copy-56" fill="#AC7849" sketch:type="MSShapeGroup"></path>
                <path d="M37,28 L23.0008878,28 C17.4813573,28 13,23.5272986 13,18.0099418 L13,6.03961325e-14 L115,6.03961325e-14 L115,18.0099418 C115,23.5323558 110.52245,28 104.999112,28 L69,28 L69,30.0034985 C69,35.5304407 64.5258151,40 59.0066283,40 L46.9933717,40 C41.4831571,40 37,35.5244138 37,30.0034985 L37,28 Z" id="Rectangle-20-Copy-63" fill="#C99951" sketch:type="MSShapeGroup"></path>
            </g>
        </g>
    </g>
</svg>