<?xml version="1.0" encoding="UTF-8" standalone="no"?>
<svg width="128px" height="128px" viewBox="0 0 128 128" version="1.1" xmlns="http://www.w3.org/2000/svg" xmlns:xlink="http://www.w3.org/1999/xlink" xmlns:sketch="http://www.bohemiancoding.com/sketch/ns">
    <!-- Generator: Sketch 3.3.3 (12081) - http://www.bohemiancoding.com/sketch -->
    <title></title>
    <desc>Created with Sketch.</desc>
    <defs></defs>
    <g id="Tileset" stroke="none" stroke-width="1" fill="none" fill-rule="evenodd" sketch:type="MSPage">
        <g id="terrain" sketch:type="MSArtboardGroup" transform="translate(-1024.000000, -256.000000)">
            <g id="Terrain-Earth-B-05" sketch:type="MSLayerGroup" transform="translate(1024.000000, 256.000000)">
                <g id="Group-Copy-72" transform="translate(0.000000, 52.000000)" sketch:type="MSShapeGroup">
                    <rect id="Path-Copy-3" fill="#916442" x="44" y="12" width="46" height="64" rx="10"></rect>
                    <path d="M102,26 L102,51.9960546 C102,57.5273801 97.5254155,62 92.0057357,62 L35.9942643,62 C30.4704103,62 26,57.5210811 26,51.9960546 L26,26 L9.99063018,26 C4.48053479,26 0,21.5244138 0,16.0034985 L0,0 L128,0 L128,16.0034985 C128,21.5304407 123.527043,26 118.00937,26 L102,26 Z" id="Rectangle-20-Copy-56" fill="#AC7849"></path>
                    <path d="M36,40 L21.9955469,40 C16.46875,40 12,35.5258151 12,30.0066283 L12,8 L116,8 L116,30.0066283 C116,35.5168429 111.524841,40 106.004453,40 L68,40 L68,42.0034985 C68,47.5304407 63.5258151,52 58.0066283,52 L45.9933717,52 C40.4831571,52 36,47.5244138 36,42.0034985 L36,40 Z" id="Rectangle-20-Copy-63" fill="#C99951"></path>
                </g>
                <rect id="Rectangle-782" fill="#B8E986" sketch:type="MSShapeGroup" x="0" y="0" width="128" height="40" rx="10"></rect>
                <rect id="Rectangle-780" fill="#9BCA6A" sketch:type="MSShapeGroup" x="14" y="16" width="100" height="20" rx="10"></rect>
                <rect id="Rectangle-20-Copy-12" fill="#C99951" sketch:type="MSShapeGroup" x="0" y="26" width="128" height="38"></rect>
                <rect id="Rectangle-20-Copy-14" fill="#AC7849" sketch:type="MSShapeGroup" x="0" y="26" width="128" height="6"></rect>
                <rect id="Rectangle-20-Copy-29" fill="#AC7849" sketch:type="MSShapeGroup" x="110" y="26" width="18" height="18" rx="10"></rect>
                <rect id="Rectangle-20-Copy-59" fill="#AC7849" sketch:type="MSShapeGroup" x="0" y="26" width="18" height="18" rx="10"></rect>
                <rect id="Rectangle-20-Copy-40" fill="#B8E986" sketch:type="MSShapeGroup" transform="translate(7.000000, 25.000000) scale(-1, 1) translate(-7.000000, -25.000000) " x="0" y="12" width="14" height="26" rx="10"></rect>
                <rect id="Rectangle-20-Copy-58" fill="#B8E986" sketch:type="MSShapeGroup" transform="translate(121.000000, 25.000000) scale(-1, 1) translate(-121.000000, -25.000000) " x="114" y="12" width="14" height="26" rx="10"></rect>
                <g id="Group-Copy-27" transform="translate(28.160000, 38.000000)" fill="#AC7849" sketch:type="MSShapeGroup">
                    <circle id="Oval-185-Copy-18" cx="4.48" cy="16.4" r="4.48"></circle>
                    <ellipse id="Oval-185-Copy-11" cx="30.24" cy="37.12" rx="6.4" ry="6.4"></ellipse>
                    <circle id="Oval-185-Copy-30" cx="60.96" cy="6.4" r="4.48"></circle>
                </g>
            </g>
        </g>
    </g>
</svg>