<?xml version="1.0" encoding="UTF-8" standalone="no"?>
<svg width="128px" height="128px" viewBox="0 0 128 128" version="1.1" xmlns="http://www.w3.org/2000/svg" xmlns:xlink="http://www.w3.org/1999/xlink" xmlns:sketch="http://www.bohemiancoding.com/sketch/ns">
    <!-- Generator: Sketch 3.3.3 (12081) - http://www.bohemiancoding.com/sketch -->
    <title></title>
    <desc>Created with Sketch.</desc>
    <defs></defs>
    <g id="Tileset" stroke="none" stroke-width="1" fill="none" fill-rule="evenodd" sketch:type="MSPage">
        <g id="terrain" sketch:type="MSArtboardGroup" transform="translate(-128.000000, -1024.000000)">
            <g id="Terrain-Stone-A-20" sketch:type="MSLayerGroup" transform="translate(128.000000, 1024.000000)">
                <rect id="Path-Copy" fill="#57686A" sketch:type="MSShapeGroup" transform="translate(87.500000, 65.000000) scale(-1, 1) translate(-87.500000, -65.000000) " x="58" y="30" width="59" height="70" rx="10"></rect>
                <path d="M28,24.0052016 C26.3302412,25.2581576 24.2551577,26 22.0066283,26 L9.99337167,26 C4.4831571,26 0,21.5244138 0,16.0034985 L0,0 L32,0 L32,5.99799698 C33.6725745,4.74342397 35.7528136,4 38.0096708,4 L63.9903292,4 C69.5185177,4 74,8.48530063 74,13.9920972 L74,64.0079028 C74,69.5263857 69.5265712,74 63.9903292,74 L38.0096708,74 C32.4814823,74 28,69.5146994 28,64.0079028 L28,24.0052016 Z" id="Rectangle-889" fill="#5F7173" sketch:type="MSShapeGroup"></path>
                <path d="M128,110 L81.9955317,110 C76.475152,110 72,105.514786 72,99.9911289 L72,60.0088711 C72,54.4811242 76.4762784,50 81.9955317,50 L128,50 L128,110 Z" id="Path" fill="#6D8183" sketch:type="MSShapeGroup"></path>
                <rect id="Path" fill="#6D8183" sketch:type="MSShapeGroup" x="50" y="0" width="78" height="86" rx="10"></rect>
                <rect id="Path" fill="#6D8183" sketch:type="MSShapeGroup" x="102" y="80" width="26" height="48" rx="10"></rect>
                <path d="M89.9999977,37.9960546 C89.9999974,43.5210811 85.5295869,48 80.0057331,48 L23.9942634,48 C18.4745838,48 13.9999997,43.5273801 14,37.9960546 L14.0000023,9.9475983e-14 L90,9.9475983e-14 L89.9999977,37.9960546 Z" id="Path" fill="#6D8183" sketch:type="MSShapeGroup"></path>
            </g>
        </g>
    </g>
</svg>