<?xml version="1.0" encoding="UTF-8" standalone="no"?>
<svg width="128px" height="128px" viewBox="0 0 128 128" version="1.1" xmlns="http://www.w3.org/2000/svg" xmlns:xlink="http://www.w3.org/1999/xlink" xmlns:sketch="http://www.bohemiancoding.com/sketch/ns">
    <!-- Generator: Sketch 3.3.3 (12081) - http://www.bohemiancoding.com/sketch -->
    <title></title>
    <desc>Created with Sketch.</desc>
    <defs></defs>
    <g id="Tileset" stroke="none" stroke-width="1" fill="none" fill-rule="evenodd" sketch:type="MSPage">
        <g id="terrain" sketch:type="MSArtboardGroup" transform="translate(-640.000000, -1664.000000)">
            <g id="Terrain-Stone-D-08" sketch:type="MSLayerGroup" transform="translate(640.000000, 1664.000000)">
                <g id="Rectangle-782-Copy-6-+-Rectangle-20-Copy-18-+-Rectangle-20-Copy-41" transform="translate(64.000000, 64.000000) scale(-1, 1) translate(-64.000000, -64.000000) " sketch:type="MSShapeGroup">
                    <path d="M0,0 L118.00937,0 C123.527043,0 128,4.47207592 128,9.99050677 L128,30.0094932 C128,35.5270978 123.522844,40 117.999161,40 L56.2109375,40 L10.0007964,40 C4.47750907,40 0,35.5279241 0,30.0094932 L0,0 Z" id="Rectangle-782-Copy-6" fill="#8DA1A3" transform="translate(64.000000, 20.000000) scale(-1, 1) translate(-64.000000, -20.000000) "></path>
                    <rect id="Rectangle-20-Copy-18" fill="#5F7173" transform="translate(71.000000, 79.000000) scale(-1, 1) translate(-71.000000, -79.000000) " x="14" y="30" width="114" height="98"></rect>
                    <path d="M28,110 L28,117.995635 C28,123.520893 32.4747329,128 38.0000638,128 L128,128 L128,70 L128,14 L0,14 L0,99.9979934 C0,105.521949 4.48053479,110 9.99063018,110 L28,110 Z" id="Rectangle-20-Copy-41" fill="#6D8183"></path>
                </g>
            </g>
        </g>
    </g>
</svg>