<?xml version="1.0" encoding="UTF-8" standalone="no"?>
<svg width="128px" height="128px" viewBox="0 0 128 128" version="1.1" xmlns="http://www.w3.org/2000/svg" xmlns:xlink="http://www.w3.org/1999/xlink" xmlns:sketch="http://www.bohemiancoding.com/sketch/ns">
    <!-- Generator: Sketch 3.3.3 (12081) - http://www.bohemiancoding.com/sketch -->
    <title></title>
    <desc>Created with Sketch.</desc>
    <defs></defs>
    <g id="Tileset" stroke="none" stroke-width="1" fill="none" fill-rule="evenodd" sketch:type="MSPage">
        <g id="terrain" sketch:type="MSArtboardGroup" transform="translate(-384.000000, -384.000000)">
            <g id="Terrain-Earth-C-04" sketch:type="MSLayerGroup" transform="translate(384.000000, 384.000000)">
                <rect id="Rectangle-782" fill="#B8E986" sketch:type="MSShapeGroup" x="0" y="0" width="128" height="40" rx="10"></rect>
                <rect id="Rectangle-780" fill="#9BCA6A" sketch:type="MSShapeGroup" x="14" y="16" width="100" height="20" rx="10"></rect>
                <rect id="Rectangle-20-Copy-12" fill="#AC7849" sketch:type="MSShapeGroup" x="0" y="26" width="128" height="102"></rect>
                <g id="Group-Copy-26" transform="translate(16.160000, 38.000000)" fill="#C99951" sketch:type="MSShapeGroup">
                    <circle id="Oval-185-Copy-18" cx="4.48" cy="22.4" r="4.48"></circle>
                    <circle id="Oval-185-Copy-17" cx="63.36" cy="77.44" r="4.48"></circle>
                    <circle id="Oval-185-Copy-11" cx="42.24" cy="37.12" r="6.4"></circle>
                    <circle id="Oval-185-Copy-12" cx="16.64" cy="67.84" r="6.4"></circle>
                    <circle id="Oval-185-Copy-15" cx="95.36" cy="50.56" r="4.48"></circle>
                    <circle id="Oval-185-Copy-30" cx="72.96" cy="6.4" r="4.48"></circle>
                </g>
                <rect id="Rectangle-20-Copy-14" fill="#916442" sketch:type="MSShapeGroup" x="0" y="26" width="128" height="6"></rect>
                <rect id="Rectangle-20-Copy-29" fill="#916442" sketch:type="MSShapeGroup" x="110" y="26" width="18" height="18" rx="10"></rect>
                <rect id="Rectangle-20-Copy-59" fill="#916442" sketch:type="MSShapeGroup" x="0" y="26" width="18" height="18" rx="10"></rect>
                <rect id="Rectangle-20-Copy-40" fill="#B8E986" sketch:type="MSShapeGroup" transform="translate(7.000000, 25.000000) scale(-1, 1) translate(-7.000000, -25.000000) " x="0" y="12" width="14" height="26" rx="10"></rect>
                <rect id="Rectangle-20-Copy-58" fill="#B8E986" sketch:type="MSShapeGroup" transform="translate(121.000000, 25.000000) scale(-1, 1) translate(-121.000000, -25.000000) " x="114" y="12" width="14" height="26" rx="10"></rect>
            </g>
        </g>
    </g>
</svg>