<?xml version="1.0" encoding="UTF-8" standalone="no"?>
<svg width="128px" height="128px" viewBox="0 0 128 128" version="1.1" xmlns="http://www.w3.org/2000/svg" xmlns:xlink="http://www.w3.org/1999/xlink" xmlns:sketch="http://www.bohemiancoding.com/sketch/ns">
    <!-- Generator: Sketch 3.4.2 (15857) - http://www.bohemiancoding.com/sketch -->
    <title></title>
    <desc>Created with Sketch.</desc>
    <defs></defs>
    <g id="Terrain" stroke="none" stroke-width="1" fill="none" fill-rule="evenodd" sketch:type="MSPage">
        <g sketch:type="MSArtboardGroup" transform="translate(-1408.000000, -768.000000)" id="Terrain-Earth-C-34">
            <g sketch:type="MSLayerGroup" transform="translate(1408.000000, 768.000000)">
                <rect id="Rectangle-20-Copy-68" fill="#916442" sketch:type="MSShapeGroup" x="0" y="0" width="128" height="128"></rect>
                <path d="M108.64,111.88 C111.114236,111.88 113.12,109.874236 113.12,107.4 C113.12,104.925764 111.114236,102.92 108.64,102.92 C106.165764,102.92 104.16,104.925764 104.16,107.4 C104.16,109.874236 106.165764,111.88 108.64,111.88 Z M51.64,21.88 C54.1142357,21.88 56.12,19.8742357 56.12,17.4 C56.12,14.9257643 54.1142357,12.92 51.64,12.92 C49.1657643,12.92 47.16,14.9257643 47.16,17.4 C47.16,19.8742357 49.1657643,21.88 51.64,21.88 Z M92.56,48.72 C96.0946224,48.72 98.96,45.8546224 98.96,42.32 C98.96,38.7853776 96.0946224,35.92 92.56,35.92 C89.0253776,35.92 86.16,38.7853776 86.16,42.32 C86.16,45.8546224 89.0253776,48.72 92.56,48.72 Z M17.56,70.72 C21.0946224,70.72 23.96,67.8546224 23.96,64.32 C23.96,60.7853776 21.0946224,57.92 17.56,57.92 C14.0253776,57.92 11.16,60.7853776 11.16,64.32 C11.16,67.8546224 14.0253776,70.72 17.56,70.72 Z M65.64,103.88 C68.1142357,103.88 70.12,101.874236 70.12,99.4 C70.12,96.9257643 68.1142357,94.92 65.64,94.92 C63.1657643,94.92 61.16,96.9257643 61.16,99.4 C61.16,101.874236 63.1657643,103.88 65.64,103.88 Z" id="Oval-185-Copy-18" fill="#AC7849" sketch:type="MSShapeGroup"></path>
            </g>
        </g>
    </g>
</svg>