<?xml version="1.0" encoding="UTF-8" standalone="no"?>
<svg width="128px" height="128px" viewBox="0 0 128 128" version="1.1" xmlns="http://www.w3.org/2000/svg" xmlns:xlink="http://www.w3.org/1999/xlink" xmlns:sketch="http://www.bohemiancoding.com/sketch/ns">
    <!-- Generator: Sketch 3.3.3 (12081) - http://www.bohemiancoding.com/sketch -->
    <title></title>
    <desc>Created with Sketch.</desc>
    <defs></defs>
    <g id="Tileset" stroke="none" stroke-width="1" fill="none" fill-rule="evenodd" sketch:type="MSPage">
        <g id="terrain" sketch:type="MSArtboardGroup" transform="translate(0.000000, -1152.000000)">
            <g id="Terrain-Stone-B-02" sketch:type="MSLayerGroup" transform="translate(64.000000, 1216.000000) scale(-1, 1) translate(-64.000000, -1216.000000) translate(0.000000, 1152.000000)">
                <path d="M0,0 L118.00937,0 C123.527043,0 128,4.47207592 128,9.99050677 L128,30.0094932 C128,35.5270978 123.514237,40 117.994756,40 L66.9960938,40 L9.99379641,40 C4.47437506,40 0,35.5279241 0,30.0094932 L0,0 Z" id="Rectangle-782-Copy" fill="#B8E986" sketch:type="MSShapeGroup"></path>
                <path d="M0,16 L104.008087,16 C109.526468,16 114,20.4759382 114,26 L114,26 C114,31.5228475 109.521367,36 104.003784,36 L51.0234375,36 L10.0045103,36 C4.47917185,36 0,31.5240618 0,26 L0,16 Z" id="Rectangle-780-Copy" fill="#9BCA6A" sketch:type="MSShapeGroup"></path>
                <rect id="Rectangle-20-Copy-17" fill="#6D8183" sketch:type="MSShapeGroup" x="0" y="26" width="128" height="102"></rect>
                <path d="M105.36,64.88 C102.885764,64.88 100.88,62.8742357 100.88,60.4 C100.88,57.9257643 102.885764,55.92 105.36,55.92 C107.834236,55.92 109.84,57.9257643 109.84,60.4 C109.84,62.8742357 107.834236,64.88 105.36,64.88 Z M46.48,119.92 C44.0057643,119.92 42,117.914236 42,115.44 C42,112.965764 44.0057643,110.96 46.48,110.96 C48.9542357,110.96 50.96,112.965764 50.96,115.44 C50.96,117.914236 48.9542357,119.92 46.48,119.92 Z M67.6,81.52 C64.0653776,81.52 61.2,78.6546224 61.2,75.12 C61.2,71.5853776 64.0653776,68.72 67.6,68.72 C71.1346224,68.72 74,71.5853776 74,75.12 C74,78.6546224 71.1346224,81.52 67.6,81.52 Z M93.2,112.24 C89.6653776,112.24 86.8,109.374622 86.8,105.84 C86.8,102.305378 89.6653776,99.44 93.2,99.44 C96.7346224,99.44 99.6,102.305378 99.6,105.84 C99.6,109.374622 96.7346224,112.24 93.2,112.24 Z M14.48,93.04 C12.0057643,93.04 10,91.0342357 10,88.56 C10,86.0857643 12.0057643,84.08 14.48,84.08 C16.9542357,84.08 18.96,86.0857643 18.96,88.56 C18.96,91.0342357 16.9542357,93.04 14.48,93.04 Z M36.88,48.88 C34.4057643,48.88 32.4,46.8742357 32.4,44.4 C32.4,41.9257643 34.4057643,39.92 36.88,39.92 C39.3542357,39.92 41.36,41.9257643 41.36,44.4 C41.36,46.8742357 39.3542357,48.88 36.88,48.88 Z" id="Oval-185-Copy-18" fill="#8DA1A3" sketch:type="MSShapeGroup"></path>
                <path d="M128,29 L128,26 L0,26 L0,32 L110,32 L110,35 C110,39.9716556 114.029437,44 119,44 C123.971656,44 128,39.9705627 128,35 L128,29 Z" id="Rectangle-20-Copy-60" fill="#5F7173" sketch:type="MSShapeGroup"></path>
                <rect id="Rectangle-20-Copy-85" fill="#B8E986" sketch:type="MSShapeGroup" transform="translate(121.000000, 25.000000) scale(-1, 1) translate(-121.000000, -25.000000) " x="114" y="12" width="14" height="26" rx="10"></rect>
            </g>
        </g>
    </g>
</svg>