<?xml version="1.0" encoding="UTF-8" standalone="no"?>
<svg width="128px" height="128px" viewBox="0 0 128 128" version="1.1" xmlns="http://www.w3.org/2000/svg" xmlns:xlink="http://www.w3.org/1999/xlink" xmlns:sketch="http://www.bohemiancoding.com/sketch/ns">
    <!-- Generator: Sketch 3.3.3 (12081) - http://www.bohemiancoding.com/sketch -->
    <title></title>
    <desc>Created with Sketch.</desc>
    <defs></defs>
    <g id="Tileset" stroke="none" stroke-width="1" fill="none" fill-rule="evenodd" sketch:type="MSPage">
        <g id="terrain" sketch:type="MSArtboardGroup" transform="translate(-1152.000000, -1152.000000)">
            <g id="Terrain-Stone-B-13" sketch:type="MSLayerGroup" transform="translate(1152.000000, 1152.000000)">
                <g id="Group-Copy-67" sketch:type="MSShapeGroup">
                    <rect id="Path-Copy-3" fill="#57686A" x="44" y="64" width="46" height="64" rx="10"></rect>
                    <path d="M102,78 L102,103.996055 C102,109.52738 97.5254155,114 92.0057357,114 L35.9942643,114 C30.4704103,114 26,109.521081 26,103.996055 L26,78 L9.99063018,78 C4.48053479,78 0,73.524522 0,68.0037401 L0,51 L128,51 L128,68.0037401 C128,73.5263541 123.527043,78 118.00937,78 L102,78 Z" id="Rectangle-20-Copy-56" fill="#5F7173"></path>
                    <rect id="Rectangle-20-Copy-12" fill="#6D8183" x="0" y="0" width="128" height="64"></rect>
                    <path d="M36,92 L21.9955469,92 C16.46875,92 12,87.5270978 12,82.0094932 L12,52 L116,52 L116,82.0094932 C116,87.5279241 111.524841,92 106.004453,92 L68,92 L68,94.0034985 C68,99.5304407 63.5258151,104 58.0066283,104 L45.9933717,104 C40.4831571,104 36,99.5244138 36,94.0034985 L36,92 Z" id="Rectangle-20-Copy-63" fill="#6D8183"></path>
                </g>
                <path d="M32.64,58.88 C35.1142357,58.88 37.12,56.8742357 37.12,54.4 C37.12,51.9257643 35.1142357,49.92 32.64,49.92 C30.1657643,49.92 28.16,51.9257643 28.16,54.4 C28.16,56.8742357 30.1657643,58.88 32.64,58.88 Z M58.4,81.52 C61.9346224,81.52 64.8,78.6546224 64.8,75.12 C64.8,71.5853776 61.9346224,68.72 58.4,68.72 C54.8653776,68.72 52,71.5853776 52,75.12 C52,78.6546224 54.8653776,81.52 58.4,81.52 Z M89.12,48.88 C91.5942357,48.88 93.6,46.8742357 93.6,44.4 C93.6,41.9257643 91.5942357,39.92 89.12,39.92 C86.6457643,39.92 84.64,41.9257643 84.64,44.4 C84.64,46.8742357 86.6457643,48.88 89.12,48.88 Z M49.12,24.88 C51.5942357,24.88 53.6,22.8742357 53.6,20.4 C53.6,17.9257643 51.5942357,15.92 49.12,15.92 C46.6457643,15.92 44.64,17.9257643 44.64,20.4 C44.64,22.8742357 46.6457643,24.88 49.12,24.88 Z" id="Oval-185-Copy-18" fill="#8DA1A3" sketch:type="MSShapeGroup"></path>
            </g>
        </g>
    </g>
</svg>