<?xml version="1.0" encoding="UTF-8" standalone="no"?>
<svg width="128px" height="128px" viewBox="0 0 128 128" version="1.1" xmlns="http://www.w3.org/2000/svg" xmlns:xlink="http://www.w3.org/1999/xlink" xmlns:sketch="http://www.bohemiancoding.com/sketch/ns">
    <!-- Generator: Sketch 3.3.3 (12081) - http://www.bohemiancoding.com/sketch -->
    <title></title>
    <desc>Created with Sketch.</desc>
    <defs></defs>
    <g id="Tileset" stroke="none" stroke-width="1" fill="none" fill-rule="evenodd" sketch:type="MSPage">
        <g id="terrain" sketch:type="MSArtboardGroup" transform="translate(-1024.000000, -128.000000)">
            <g id="Terrain-Earth-A-14" sketch:type="MSLayerGroup" transform="translate(1024.000000, 128.000000)">
                <rect id="Rectangle-5296" sketch:type="MSShapeGroup" x="0" y="0" width="128" height="128"></rect>
                <rect id="Rectangle-782" fill="#B8E986" sketch:type="MSShapeGroup" x="0" y="0" width="128" height="40" rx="10"></rect>
                <rect id="Rectangle-780" fill="#9BCA6A" sketch:type="MSShapeGroup" x="14" y="16" width="100" height="20" rx="10"></rect>
                <path d="M18,60.0056985 C18,65.5253988 22.4684423,70 27.9987864,70 L100.001214,70 C105.523391,70 110,65.5201311 110,60.0056985 L110,36 L18,36 L18,60.0056985 Z" id="Rectangle-20-Copy-67" fill="#AC7849" sketch:type="MSShapeGroup"></path>
                <path d="M100,56 L100,59.991103 C100,65.5291744 95.5262624,70 90.0076273,70 L37.9923727,70 C32.4767188,70 28,65.5188642 28,59.991103 L28,56 L9.99063018,56 C4.48053479,56 0,51.5272986 0,46.0099418 L0,28 L128,28 L128,46.0099418 C128,51.5323558 123.527043,56 118.00937,56 L100,56 Z" id="Rectangle-20-Copy-88" fill="#C99951" sketch:type="MSShapeGroup"></path>
                <path d="M0,29 L0,26 L128,26 L128,29 L128,35 C128,39.9705627 123.971656,44 119,44 C114.029437,44 110,39.9716556 110,35 L110,32 L18,32 L18,35 C18,39.9705627 13.9716556,44 9,44 C4.02943725,44 0,39.9716556 0,35 L0,29 Z" id="Rectangle-20-Copy-14" fill="#AC7849" sketch:type="MSShapeGroup"></path>
                <rect id="Rectangle-20-Copy-40" fill="#B8E986" sketch:type="MSShapeGroup" transform="translate(7.000000, 25.000000) scale(-1, 1) translate(-7.000000, -25.000000) " x="0" y="12" width="14" height="26" rx="10"></rect>
                <rect id="Rectangle-20-Copy-58" fill="#B8E986" sketch:type="MSShapeGroup" transform="translate(121.000000, 25.000000) scale(-1, 1) translate(-121.000000, -25.000000) " x="114" y="12" width="14" height="26" rx="10"></rect>
            </g>
        </g>
    </g>
</svg>