<?xml version="1.0" encoding="UTF-8" standalone="no"?>
<svg width="128px" height="128px" viewBox="0 0 128 128" version="1.1" xmlns="http://www.w3.org/2000/svg" xmlns:xlink="http://www.w3.org/1999/xlink" xmlns:sketch="http://www.bohemiancoding.com/sketch/ns">
    <!-- Generator: Sketch 3.3.3 (12081) - http://www.bohemiancoding.com/sketch -->
    <title></title>
    <desc>Created with Sketch.</desc>
    <defs></defs>
    <g id="Tileset" stroke="none" stroke-width="1" fill="none" fill-rule="evenodd" sketch:type="MSPage">
        <g id="terrain" sketch:type="MSArtboardGroup" transform="translate(0.000000, -1408.000000)">
            <g id="Terrain-Stone-C-02" sketch:type="MSLayerGroup" transform="translate(64.000000, 1472.000000) scale(-1, 1) translate(-64.000000, -1472.000000) translate(0.000000, 1408.000000)">
                <path d="M0,0 L118.00937,0 C123.527043,0 128,4.47207592 128,9.99050677 L128,30.0094932 C128,35.5270978 123.523147,40 117.997037,40 L64.8710938,40 L9.99394154,40 C4.47444004,40 0,35.5279241 0,30.0094932 L0,0 Z" id="Rectangle-782-Copy" fill="#FFFFFF" sketch:type="MSShapeGroup"></path>
                <path d="M0,16 L104.008087,16 C109.526468,16 114,20.4759382 114,26 L114,26 C114,31.5228475 109.530416,36 103.991291,36 L66.9414062,36 L10.0037157,36 C4.47881606,36 0,31.5240618 0,26 L0,16 Z" id="Rectangle-780-Copy" fill="#DFDFDF" sketch:type="MSShapeGroup"></path>
                <rect id="Rectangle-20-Copy-17" fill="#6D8183" sketch:type="MSShapeGroup" x="0" y="26" width="128" height="102"></rect>
                <rect id="Rectangle-20-Copy-60" fill="#5F7173" sketch:type="MSShapeGroup" x="0" y="26" width="128" height="6"></rect>
                <rect id="Rectangle-20-Copy-61" fill="#5F7173" sketch:type="MSShapeGroup" x="110" y="26" width="18" height="18" rx="10"></rect>
                <rect id="Rectangle-20-Copy-85" fill="#FFFFFF" sketch:type="MSShapeGroup" transform="translate(121.000000, 25.000000) scale(-1, 1) translate(-121.000000, -25.000000) " x="114" y="12" width="14" height="26" rx="10"></rect>
            </g>
        </g>
    </g>
</svg>