<?xml version="1.0" encoding="UTF-8" standalone="no"?>
<svg width="128px" height="128px" viewBox="0 0 128 128" version="1.1" xmlns="http://www.w3.org/2000/svg" xmlns:xlink="http://www.w3.org/1999/xlink" xmlns:sketch="http://www.bohemiancoding.com/sketch/ns">
    <!-- Generator: Sketch 3.3.3 (12081) - http://www.bohemiancoding.com/sketch -->
    <title></title>
    <desc>Created with Sketch.</desc>
    <defs></defs>
    <g id="Tileset" stroke="none" stroke-width="1" fill="none" fill-rule="evenodd" sketch:type="MSPage">
        <g id="terrain" sketch:type="MSArtboardGroup" transform="translate(-1536.000000, -512.000000)">
            <g id="Terrain-Earth-C-11" sketch:type="MSLayerGroup" transform="translate(1536.000000, 512.000000)">
                <rect id="Rectangle-20-Copy-68" fill="#7E573A" sketch:type="MSShapeGroup" x="0" y="0" width="128" height="128"></rect>
                <path d="M18.64,64.88 C21.1142357,64.88 23.12,62.8742357 23.12,60.4 C23.12,57.9257643 21.1142357,55.92 18.64,55.92 C16.1657643,55.92 14.16,57.9257643 14.16,60.4 C14.16,62.8742357 16.1657643,64.88 18.64,64.88 Z M77.52,119.92 C79.9942357,119.92 82,117.914236 82,115.44 C82,112.965764 79.9942357,110.96 77.52,110.96 C75.0457643,110.96 73.04,112.965764 73.04,115.44 C73.04,117.914236 75.0457643,119.92 77.52,119.92 Z M56.4,81.52 C59.9346224,81.52 62.8,78.6546224 62.8,75.12 C62.8,71.5853776 59.9346224,68.72 56.4,68.72 C52.8653776,68.72 50,71.5853776 50,75.12 C50,78.6546224 52.8653776,81.52 56.4,81.52 Z M40.4,25.52 C43.9346224,25.52 46.8,22.6546224 46.8,19.12 C46.8,15.5853776 43.9346224,12.72 40.4,12.72 C36.8653776,12.72 34,15.5853776 34,19.12 C34,22.6546224 36.8653776,25.52 40.4,25.52 Z M30.8,112.24 C34.3346224,112.24 37.2,109.374622 37.2,105.84 C37.2,102.305378 34.3346224,99.44 30.8,99.44 C27.2653776,99.44 24.4,102.305378 24.4,105.84 C24.4,109.374622 27.2653776,112.24 30.8,112.24 Z M109.52,93.04 C111.994236,93.04 114,91.0342357 114,88.56 C114,86.0857643 111.994236,84.08 109.52,84.08 C107.045764,84.08 105.04,86.0857643 105.04,88.56 C105.04,91.0342357 107.045764,93.04 109.52,93.04 Z M93.12,42.88 C95.5942357,42.88 97.6,40.8742357 97.6,38.4 C97.6,35.9257643 95.5942357,33.92 93.12,33.92 C90.6457643,33.92 88.64,35.9257643 88.64,38.4 C88.64,40.8742357 90.6457643,42.88 93.12,42.88 Z" id="Oval-185-Copy-18" fill="#916442" sketch:type="MSShapeGroup"></path>
            </g>
        </g>
    </g>
</svg>