<?xml version="1.0" encoding="UTF-8" standalone="no"?>
<svg width="128px" height="128px" viewBox="0 0 128 128" version="1.1" xmlns="http://www.w3.org/2000/svg" xmlns:xlink="http://www.w3.org/1999/xlink" xmlns:sketch="http://www.bohemiancoding.com/sketch/ns">
    <!-- Generator: Sketch 3.3.3 (12081) - http://www.bohemiancoding.com/sketch -->
    <title></title>
    <desc>Created with Sketch.</desc>
    <defs></defs>
    <g id="Tileset" stroke="none" stroke-width="1" fill="none" fill-rule="evenodd" sketch:type="MSPage">
        <g id="terrain" sketch:type="MSArtboardGroup" transform="translate(-256.000000, -256.000000)">
            <g id="Terrain-Earth-B-03" sketch:type="MSLayerGroup" transform="translate(256.000000, 256.000000)">
                <path d="M0,0 L118.00937,0 C123.527043,0 128,4.47207592 128,9.99050677 L128,30.0094932 C128,35.5270978 123.525651,40 117.991922,40 L62.3398437,40 L9.99868077,40 C4.47656186,40 0,35.5279241 0,30.0094932 L0,0 Z" id="Rectangle-782-Copy" fill="#B8E986" sketch:type="MSShapeGroup"></path>
                <path d="M0,16 L104.008087,16 C109.526468,16 114,20.4759382 114,26 L114,26 C114,31.5228475 109.519086,36 103.995934,36 L56.2832031,36 L9.99745379,36 C4.47601253,36 0,31.5240618 0,26 L0,16 Z" id="Rectangle-780-Copy" fill="#9BCA6A" sketch:type="MSShapeGroup"></path>
                <rect id="Rectangle-20-Copy-17" fill="#C99951" sketch:type="MSShapeGroup" x="0" y="26" width="128" height="102"></rect>
                <g id="Group-Copy-20" transform="translate(16.160000, 38.000000)" fill="#AC7849" sketch:type="MSShapeGroup">
                    <circle id="Oval-185-Copy-18" cx="4.48" cy="22.4" r="4.48"></circle>
                    <circle id="Oval-185-Copy-17" cx="63.36" cy="77.44" r="4.48"></circle>
                    <circle id="Oval-185-Copy-11" cx="42.24" cy="37.12" r="6.4"></circle>
                    <circle id="Oval-185-Copy-12" cx="16.64" cy="67.84" r="6.4"></circle>
                    <circle id="Oval-185-Copy-15" cx="95.36" cy="50.56" r="4.48"></circle>
                    <circle id="Oval-185-Copy-30" cx="72.96" cy="6.4" r="4.48"></circle>
                </g>
                <rect id="Rectangle-20-Copy-60" fill="#AC7849" sketch:type="MSShapeGroup" x="0" y="26" width="128" height="6"></rect>
                <rect id="Rectangle-20-Copy-61" fill="#AC7849" sketch:type="MSShapeGroup" x="110" y="26" width="18" height="18" rx="10"></rect>
                <rect id="Rectangle-20-Copy-85" fill="#B8E986" sketch:type="MSShapeGroup" transform="translate(121.000000, 25.000000) scale(-1, 1) translate(-121.000000, -25.000000) " x="114" y="12" width="14" height="26" rx="10"></rect>
            </g>
        </g>
    </g>
</svg>