<?xml version="1.0" encoding="UTF-8" standalone="no"?>
<svg width="128px" height="128px" viewBox="0 0 128 128" version="1.1" xmlns="http://www.w3.org/2000/svg" xmlns:xlink="http://www.w3.org/1999/xlink" xmlns:sketch="http://www.bohemiancoding.com/sketch/ns">
    <!-- Generator: Sketch 3.3.3 (12081) - http://www.bohemiancoding.com/sketch -->
    <title></title>
    <desc>Created with Sketch.</desc>
    <defs></defs>
    <g id="Tileset" stroke="none" stroke-width="1" fill="none" fill-rule="evenodd" sketch:type="MSPage">
        <g id="terrain" sketch:type="MSArtboardGroup" transform="translate(-896.000000, -1152.000000)">
            <g id="Terrain-Stone-B-09" sketch:type="MSLayerGroup" transform="translate(896.000000, 1152.000000)">
                <rect id="Rectangle-782" fill="#B8E986" sketch:type="MSShapeGroup" x="0" y="0" width="128" height="40" rx="10"></rect>
                <rect id="Rectangle-780" fill="#9BCA6A" sketch:type="MSShapeGroup" x="14" y="16" width="100" height="20" rx="10"></rect>
                <path d="M14,117.991103 C14,123.518864 18.4747329,128 24.0000638,128 L103.999936,128 C109.522819,128 114,123.529174 114,117.991103 L114,90 L14,90 L14,117.991103 Z" id="Rectangle-20-Copy-81" fill="#5F7173" sketch:type="MSShapeGroup"></path>
                <path d="M100,114 L100,117.991103 C100,123.529174 95.5262624,128 90.0076273,128 L37.9923727,128 C32.4767188,128 28,123.518864 28,117.991103 L28,114 L9.99063018,114 C4.48053479,114 0,109.527299 0,104.009942 L0,89.5 L0,26 L128,26 L128,89.5 L128,104.009942 C128,109.532356 123.527043,114 118.00937,114 L100,114 Z" id="Rectangle-20-Copy-88" fill="#6D8183" sketch:type="MSShapeGroup"></path>
                <path d="M18.64,64.88 C21.1142357,64.88 23.12,62.8742357 23.12,60.4 C23.12,57.9257643 21.1142357,55.92 18.64,55.92 C16.1657643,55.92 14.16,57.9257643 14.16,60.4 C14.16,62.8742357 16.1657643,64.88 18.64,64.88 Z M49.4,96.52 C52.9346224,96.52 55.8,93.6546224 55.8,90.12 C55.8,86.5853776 52.9346224,83.72 49.4,83.72 C45.8653776,83.72 43,86.5853776 43,90.12 C43,93.6546224 45.8653776,96.52 49.4,96.52 Z M98.52,90.04 C100.994236,90.04 103,88.0342357 103,85.56 C103,83.0857643 100.994236,81.08 98.52,81.08 C96.0457643,81.08 94.04,83.0857643 94.04,85.56 C94.04,88.0342357 96.0457643,90.04 98.52,90.04 Z M87.12,48.88 C89.5942357,48.88 91.6,46.8742357 91.6,44.4 C91.6,41.9257643 89.5942357,39.92 87.12,39.92 C84.6457643,39.92 82.64,41.9257643 82.64,44.4 C82.64,46.8742357 84.6457643,48.88 87.12,48.88 Z" id="Oval-185-Copy-18" fill="#8DA1A3" sketch:type="MSShapeGroup"></path>
                <path d="M0,29 L0,26 L128,26 L128,29 L128,35 C128,39.9705627 123.971656,44 119,44 C114.029437,44 110,39.9716556 110,35 L110,32 L18,32 L18,35 C18,39.9705627 13.9716556,44 9,44 C4.02943725,44 0,39.9716556 0,35 L0,29 Z" id="Rectangle-20-Copy-14" fill="#5F7173" sketch:type="MSShapeGroup"></path>
                <path d="M14,19.001725 C14,15.134779 10.8581267,12 7,12 C3.13400675,12 0,15.1362075 0,19.001725 L0,30.998275 C0,34.865221 3.14187327,38 7,38 C10.8659932,38 14,34.8637925 14,30.998275 L14,19.001725 Z M128,19.001725 C128,15.134779 124.858127,12 121,12 C117.134007,12 114,15.1362075 114,19.001725 L114,30.998275 C114,34.865221 117.141873,38 121,38 C124.865993,38 128,34.8637925 128,30.998275 L128,19.001725 Z" id="Rectangle-20-Copy-40" fill="#B8E986" sketch:type="MSShapeGroup"></path>
            </g>
        </g>
    </g>
</svg>