<?xml version="1.0" encoding="UTF-8" standalone="no"?>
<svg width="128px" height="128px" viewBox="0 0 128 128" version="1.1" xmlns="http://www.w3.org/2000/svg" xmlns:xlink="http://www.w3.org/1999/xlink" xmlns:sketch="http://www.bohemiancoding.com/sketch/ns">
    <!-- Generator: Sketch 3.3.3 (12081) - http://www.bohemiancoding.com/sketch -->
    <title></title>
    <desc>Created with Sketch.</desc>
    <defs></defs>
    <g id="Tileset" stroke="none" stroke-width="1" fill="none" fill-rule="evenodd" sketch:type="MSPage">
        <g id="terrain" sketch:type="MSArtboardGroup" transform="translate(-1024.000000, -384.000000)">
            <g id="Terrain-Earth-C-05" sketch:type="MSLayerGroup" transform="translate(1024.000000, 384.000000)">
                <g id="Group-Copy-79" transform="translate(0.000000, 52.000000)" sketch:type="MSShapeGroup">
                    <rect id="Path-Copy-3" fill="#916442" x="44" y="12" width="46" height="64" rx="10"></rect>
                    <path d="M102,26 L102,51.9960546 C102,57.5273801 97.5254155,62 92.0057357,62 L35.9942643,62 C30.4704103,62 26,57.5210811 26,51.9960546 L26,26 L9.99063018,26 C4.48053479,26 0,21.5244138 0,16.0034985 L0,0 L128,0 L128,16.0034985 C128,21.5304407 123.527043,26 118.00937,26 L102,26 Z" id="Rectangle-20-Copy-56" fill="#916442"></path>
                    <path d="M36,40 L21.9955469,40 C16.46875,40 12,35.5228523 12,30.0000108 L12,10 L116,10 L116,30.0000108 C116,35.5249049 111.524841,40 106.004453,40 L68,40 L68,42.0034985 C68,47.5304407 63.5258151,52 58.0066283,52 L45.9933717,52 C40.4831571,52 36,47.5244138 36,42.0034985 L36,40 Z" id="Rectangle-20-Copy-63" fill="#AC7849"></path>
                </g>
                <rect id="Rectangle-782" fill="#B8E986" sketch:type="MSShapeGroup" x="0" y="0" width="128" height="40" rx="10"></rect>
                <rect id="Rectangle-780" fill="#9BCA6A" sketch:type="MSShapeGroup" x="14" y="16" width="100" height="20" rx="10"></rect>
                <rect id="Rectangle-20-Copy-12" fill="#AC7849" sketch:type="MSShapeGroup" x="0" y="26" width="128" height="39"></rect>
                <path d="M0,29 L0,26 L128,26 L128,29 L128,35 C128,39.9705627 123.971656,44 119,44 C114.029437,44 110,39.9716556 110,35 L110,32 L18,32 L18,35 C18,39.9705627 13.9716556,44 9,44 C4.02943725,44 0,39.9716556 0,35 L0,29 Z" id="Rectangle-20-Copy-14" fill="#916442" sketch:type="MSShapeGroup"></path>
                <path d="M14,19.001725 C14,15.134779 10.8581267,12 7,12 C3.13400675,12 0,15.1362075 0,19.001725 L0,30.998275 C0,34.865221 3.14187327,38 7,38 C10.8659932,38 14,34.8637925 14,30.998275 L14,19.001725 Z M128,19.001725 C128,15.134779 124.858127,12 121,12 C117.134007,12 114,15.1362075 114,19.001725 L114,30.998275 C114,34.865221 117.141873,38 121,38 C124.865993,38 128,34.8637925 128,30.998275 L128,19.001725 Z" id="Rectangle-20-Copy-40" fill="#B8E986" sketch:type="MSShapeGroup"></path>
                <path d="M32.64,58.88 C35.1142357,58.88 37.12,56.8742357 37.12,54.4 C37.12,51.9257643 35.1142357,49.92 32.64,49.92 C30.1657643,49.92 28.16,51.9257643 28.16,54.4 C28.16,56.8742357 30.1657643,58.88 32.64,58.88 Z M58.4,81.52 C61.9346224,81.52 64.8,78.6546224 64.8,75.12 C64.8,71.5853776 61.9346224,68.72 58.4,68.72 C54.8653776,68.72 52,71.5853776 52,75.12 C52,78.6546224 54.8653776,81.52 58.4,81.52 Z M89.12,48.88 C91.5942357,48.88 93.6,46.8742357 93.6,44.4 C93.6,41.9257643 91.5942357,39.92 89.12,39.92 C86.6457643,39.92 84.64,41.9257643 84.64,44.4 C84.64,46.8742357 86.6457643,48.88 89.12,48.88 Z" id="Oval-185-Copy-18" fill="#C99951" sketch:type="MSShapeGroup"></path>
            </g>
        </g>
    </g>
</svg>