<?xml version="1.0" encoding="UTF-8" standalone="no"?>
<svg width="128px" height="128px" viewBox="0 0 128 128" version="1.1" xmlns="http://www.w3.org/2000/svg" xmlns:xlink="http://www.w3.org/1999/xlink" xmlns:sketch="http://www.bohemiancoding.com/sketch/ns">
    <!-- Generator: Sketch 3.3.3 (12081) - http://www.bohemiancoding.com/sketch -->
    <title></title>
    <desc>Created with Sketch.</desc>
    <defs></defs>
    <g id="Tileset" stroke="none" stroke-width="1" fill="none" fill-rule="evenodd" sketch:type="MSPage">
        <g id="terrain" sketch:type="MSArtboardGroup" transform="translate(-256.000000, -512.000000)">
            <g id="Terrain-Earth-C-21" sketch:type="MSLayerGroup" transform="translate(256.000000, 512.000000)">
                <rect id="Rectangle-889" sketch:type="MSShapeGroup" x="0" y="0" width="128" height="128"></rect>
                <path d="M70,74 L70,90.0079028 C70,95.5146994 65.524848,100 60.0044683,100 L23.9955317,100 C18.4762784,100 14,95.5263857 14,90.0079028 L14,39.9920972 C14,34.4853006 18.475152,30 23.9955317,30 L54,30 L54,13.9920972 C54,8.48530063 58.4814823,4 64.0096708,4 L89.9903292,4 C92.2471864,4 94.3274255,4.74342397 96,5.99799698 L96,0 L128,0 L128,16.0034985 C128,21.5244138 123.516843,26 118.006628,26 L105.993372,26 C103.744842,26 101.669759,25.2581576 100,24.0052016 L100,64.0079028 C100,69.5146994 95.5185177,74 89.9903292,74 L70,74 Z" id="Path-Copy-4" fill="#916442" sketch:type="MSShapeGroup"></path>
                <path d="M2.27392808e-13,95 L2.27373675e-13,68 L2.27373675e-13,0 L53.0011567,9.9475983e-14 L113.999998,9.9475983e-14 L114,37.9960546 C114,43.5273801 109.525416,48 104.005737,48 L78,48 L78,48 L78,76.0085796 C78,81.5274009 73.5238832,86 68.0023133,86 L56,86 L56,99.9911289 C56,105.514786 51.524848,110 46.0044683,110 L26,110 L26,117.996055 C26,123.52738 21.5244138,128 16.0034985,128 L2.27373675e-13,128 L2.27373675e-13,95 Z" id="Path-Copy-7" fill="#AC7849" sketch:type="MSShapeGroup"></path>
            </g>
        </g>
    </g>
</svg>