<?xml version="1.0" encoding="UTF-8" standalone="no"?>
<svg width="128px" height="128px" viewBox="0 0 128 128" version="1.1" xmlns="http://www.w3.org/2000/svg" xmlns:xlink="http://www.w3.org/1999/xlink" xmlns:sketch="http://www.bohemiancoding.com/sketch/ns">
    <!-- Generator: Sketch 3.3.3 (12081) - http://www.bohemiancoding.com/sketch -->
    <title></title>
    <desc>Created with Sketch.</desc>
    <defs></defs>
    <g id="Tileset" stroke="none" stroke-width="1" fill="none" fill-rule="evenodd" sketch:type="MSPage">
        <g id="terrain" sketch:type="MSArtboardGroup" transform="translate(-896.000000, -256.000000)">
            <g id="Terrain-Earth-B-09" sketch:type="MSLayerGroup" transform="translate(896.000000, 256.000000)">
                <rect id="Rectangle-782" fill="#B8E986" sketch:type="MSShapeGroup" x="0" y="0" width="128" height="40" rx="10"></rect>
                <rect id="Rectangle-780" fill="#9BCA6A" sketch:type="MSShapeGroup" x="14" y="16" width="100" height="20" rx="10"></rect>
                <rect id="Rectangle-20-Copy-12" fill="#C99951" sketch:type="MSShapeGroup" x="0" y="26" width="128" height="67"></rect>
                <g id="Rectangle-20-Copy-81-+-Rectangle-20-Copy-88-+-Rectangle-20-Copy-63-Copy-Copy-Copy-Copy-Copy" transform="translate(0.000000, 86.000000)" sketch:type="MSShapeGroup">
                    <path d="M14,31.991103 C14,37.5188642 18.4747329,42 24.0000638,42 L103.999936,42 C109.522819,42 114,37.5291744 114,31.991103 L114,4 L14,4 L14,31.991103 Z" id="Rectangle-20-Copy-81" fill="#AC7849"></path>
                    <path d="M28,31.991103 C28,37.5188642 32.4767188,42 37.9923727,42 L90.0076273,42 C95.5262624,42 100,37.5291744 100,31.991103 L100,4 L28,4 L28,31.991103 Z" id="Rectangle-20-Copy-88" fill="#C99951"></path>
                    <path d="M0,18.0099418 C0,23.5272986 4.48053479,28 9.99063018,28 L118.00937,28 C123.527043,28 128,23.5323558 128,18.0099418 L128,0 L0,0 L0,18.0099418 Z" id="Rectangle-20-Copy-63" fill="#C99951"></path>
                </g>
                <g id="Group-Copy-31" transform="translate(14.160000, 39.000000)" fill="#AC7849" sketch:type="MSShapeGroup">
                    <circle id="Oval-185-Copy-18" cx="4.48" cy="21.4" r="4.48"></circle>
                    <circle id="Oval-185-Copy-11" cx="35.24" cy="51.12" r="6.4"></circle>
                    <circle id="Oval-185-Copy-15" cx="84.36" cy="46.56" r="4.48"></circle>
                    <circle id="Oval-185-Copy-30" cx="72.96" cy="5.4" r="4.48"></circle>
                </g>
                <path d="M0,29 L0,26 L128,26 L128,29 L128,35 C128,39.9705627 123.971656,44 119,44 C114.029437,44 110,39.9716556 110,35 L110,32 L18,32 L18,35 C18,39.9705627 13.9716556,44 9,44 C4.02943725,44 0,39.9716556 0,35 L0,29 Z" id="Rectangle-20-Copy-14" fill="#AC7849" sketch:type="MSShapeGroup"></path>
                <path d="M14,19.001725 C14,15.134779 10.8581267,12 7,12 C3.13400675,12 0,15.1362075 0,19.001725 L0,30.998275 C0,34.865221 3.14187327,38 7,38 C10.8659932,38 14,34.8637925 14,30.998275 L14,19.001725 Z M128,19.001725 C128,15.134779 124.858127,12 121,12 C117.134007,12 114,15.1362075 114,19.001725 L114,30.998275 C114,34.865221 117.141873,38 121,38 C124.865993,38 128,34.8637925 128,30.998275 L128,19.001725 Z" id="Rectangle-20-Copy-40" fill="#B8E986" sketch:type="MSShapeGroup"></path>
            </g>
        </g>
    </g>
</svg>