<?xml version="1.0" encoding="UTF-8" standalone="no"?>
<svg width="128px" height="140px" viewBox="0 0 128 140" version="1.1" xmlns="http://www.w3.org/2000/svg" xmlns:xlink="http://www.w3.org/1999/xlink" xmlns:sketch="http://www.bohemiancoding.com/sketch/ns">
    <!-- Generator: Sketch 3.3.3 (12081) - http://www.bohemiancoding.com/sketch -->
    <title></title>
    <desc>Created with Sketch.</desc>
    <defs>
        <rect id="path-1" x="0" y="0" width="128" height="128"></rect>
    </defs>
    <g id="Tileset" stroke="none" stroke-width="1" fill="none" fill-rule="evenodd" sketch:type="MSPage">
        <g id="terrain" sketch:type="MSArtboardGroup" transform="translate(-384.000000, -500.000000)">
            <g id="Terrain-Earth-C-26" sketch:type="MSLayerGroup" transform="translate(384.000000, 512.000000)">
                <g id="Group-Copy-78">
                    <mask id="mask-2" sketch:name="Mask" fill="white">
                        <use xlink:href="#path-1"></use>
                    </mask>
                    <use id="Mask" sketch:type="MSShapeGroup" xlink:href="#path-1"></use>
                    <g mask="url(#mask-2)" sketch:type="MSShapeGroup">
                        <g transform="translate(0.000000, -12.000000)">
                            <rect id="Path-Copy-3" fill="#916442" x="44" y="12" width="46" height="64" rx="10"></rect>
                            <path d="M102,26 L102,51.9960546 C102,57.5273801 97.5254155,62 92.0057357,62 L35.9942643,62 C30.4704103,62 26,57.5210811 26,51.9960546 L26,26 L9.99063018,26 C4.48053479,26 0,21.5244138 0,16.0034985 L0,0 L128,0 L128,16.0034985 C128,21.5304407 123.527043,26 118.00937,26 L102,26 Z" id="Rectangle-20-Copy-56" fill="#916442"></path>
                            <path d="M36,40 L21.9955469,40 C16.46875,40 12,35.5272986 12,30.0099418 L12,12 L116,12 L116,30.0099418 C116,35.5323558 111.524841,40 106.004453,40 L68,40 L68,42.0034985 C68,47.5304407 63.5258151,52 58.0066283,52 L45.9933717,52 C40.4831571,52 36,47.5244138 36,42.0034985 L36,40 Z" id="Rectangle-20-Copy-63" fill="#AC7849"></path>
                        </g>
                    </g>
                </g>
            </g>
        </g>
    </g>
</svg>