<?xml version="1.0" encoding="UTF-8" standalone="no"?>
<svg width="128px" height="128px" viewBox="0 0 128 128" version="1.1" xmlns="http://www.w3.org/2000/svg" xmlns:xlink="http://www.w3.org/1999/xlink" xmlns:sketch="http://www.bohemiancoding.com/sketch/ns">
    <!-- Generator: Sketch 3.3.3 (12081) - http://www.bohemiancoding.com/sketch -->
    <title></title>
    <desc>Created with Sketch.</desc>
    <defs></defs>
    <g id="Tileset" stroke="none" stroke-width="1" fill="none" fill-rule="evenodd" sketch:type="MSPage">
        <g id="terrain" sketch:type="MSArtboardGroup" transform="translate(-768.000000, 0.000000)">
            <g id="Terrain-Earth-A-08" sketch:type="MSLayerGroup" transform="translate(768.000000, 0.000000)">
                <path d="M0,0 L118.00937,0 C123.527043,0 128,4.47207592 128,9.99050677 L128,30.0094932 C128,35.5270978 123.519063,40 117.996166,40 L63.1796875,40 L9.99357206,40 C4.47427462,40 0,35.5279241 0,30.0094932 L0,0 Z" id="Rectangle-782-Copy" fill="#B8E986" sketch:type="MSShapeGroup"></path>
                <path d="M0,16 L104.008087,16 C109.526468,16 114,20.4759382 114,26 L114,26 C114,31.5228475 109.522634,36 104.00632,36 L54.5927734,36 L9.99727294,36 C4.47593155,36 0,31.5240618 0,26 L0,16 Z" id="Rectangle-780-Copy" fill="#9BCA6A" sketch:type="MSShapeGroup"></path>
                <g id="Rectangle-20-Copy-36-+-Rectangle-20-Copy-33-Copy" transform="translate(64.000000, 77.000000) scale(-1, 1) translate(-64.000000, -77.000000) translate(0.000000, 26.000000)" sketch:type="MSShapeGroup">
                    <rect id="Rectangle-20-Copy-36" fill="#AC7849" transform="translate(71.000000, 51.000000) scale(-1, 1) translate(-71.000000, -51.000000) " x="14" y="0" width="114" height="102"></rect>
                    <path d="M78,4 L128,4 L128,102 L38.0000638,102 C32.4747329,102 28,97.5208933 28,91.9956352 L28,84 L9.99063018,84 C4.48053479,84 0,79.5271165 0,74.0095352 L0,4 L78,4 Z" id="Rectangle-20-Copy-33" fill="#C99951"></path>
                </g>
                <rect id="Rectangle-20-Copy-60" fill="#AC7849" sketch:type="MSShapeGroup" x="0" y="26" width="128" height="6"></rect>
                <rect id="Rectangle-20-Copy-61" fill="#AC7849" sketch:type="MSShapeGroup" x="110" y="26" width="18" height="18" rx="10"></rect>
                <rect id="Rectangle-20-Copy-85" fill="#B8E986" sketch:type="MSShapeGroup" transform="translate(121.000000, 25.000000) scale(-1, 1) translate(-121.000000, -25.000000) " x="114" y="12" width="14" height="26" rx="10"></rect>
            </g>
        </g>
    </g>
</svg>