<?xml version="1.0" encoding="UTF-8" standalone="no"?>
<svg width="128px" height="128px" viewBox="0 0 128 128" version="1.1" xmlns="http://www.w3.org/2000/svg" xmlns:xlink="http://www.w3.org/1999/xlink" xmlns:sketch="http://www.bohemiancoding.com/sketch/ns">
    <!-- Generator: Sketch 3.3.3 (12081) - http://www.bohemiancoding.com/sketch -->
    <title></title>
    <desc>Created with Sketch.</desc>
    <defs></defs>
    <g id="Tileset" stroke="none" stroke-width="1" fill="none" fill-rule="evenodd" sketch:type="MSPage">
        <g id="terrain" sketch:type="MSArtboardGroup" transform="translate(-512.000000, -1152.000000)">
            <g id="Terrain-Stone-B-07" sketch:type="MSLayerGroup" transform="translate(512.000000, 1152.000000)">
                <path d="M0,0 L118.00937,0 C123.527043,0 128,4.47207592 128,9.99050677 L128,30.0094932 C128,35.5270978 123.530242,40 117.997459,40 L57.4023437,40 L9.99872521,40 C4.47658176,40 0,35.5279241 0,30.0094932 L0,0 Z" id="Rectangle-782-Copy" fill="#B8E986" sketch:type="MSShapeGroup" transform="translate(64.000000, 20.000000) scale(-1, 1) translate(-64.000000, -20.000000) "></path>
                <path d="M14,16 L118.008087,16 C123.526468,16 128,20.4759382 128,26 L128,26 C128,31.5228475 123.522532,36 117.993969,36 L82.9140625,36 L24.0022775,36 C18.4781722,36 14,31.5240618 14,26 L14,16 Z" id="Rectangle-780-Copy" fill="#9BCA6A" sketch:type="MSShapeGroup" transform="translate(71.000000, 26.000000) scale(-1, 1) translate(-71.000000, -26.000000) "></path>
                <g id="Rectangle-20-Copy-36-+-Rectangle-20-Copy-33-Copy-Copy" transform="translate(0.000000, 26.000000)" sketch:type="MSShapeGroup">
                    <rect id="Rectangle-20-Copy-36" fill="#5F7173" transform="translate(71.000000, 51.000000) scale(-1, 1) translate(-71.000000, -51.000000) " x="14" y="0" width="114" height="102"></rect>
                    <path d="M78,4 L128,4 L128,102 L38.0000638,102 C32.4747329,102 28,97.5208933 28,91.9956352 L28,84 L9.99063018,84 C4.48053479,84 0,79.5271165 0,74.0095352 L0,4 L78,4 Z" id="Rectangle-20-Copy-33" fill="#6D8183"></path>
                </g>
                <path d="M20.64,64.88 C23.1142357,64.88 25.12,62.8742357 25.12,60.4 C25.12,57.9257643 23.1142357,55.92 20.64,55.92 C18.1657643,55.92 16.16,57.9257643 16.16,60.4 C16.16,62.8742357 18.1657643,64.88 20.64,64.88 Z M79.52,119.92 C81.9942357,119.92 84,117.914236 84,115.44 C84,112.965764 81.9942357,110.96 79.52,110.96 C77.0457643,110.96 75.04,112.965764 75.04,115.44 C75.04,117.914236 77.0457643,119.92 79.52,119.92 Z M58.4,81.52 C61.9346224,81.52 64.8,78.6546224 64.8,75.12 C64.8,71.5853776 61.9346224,68.72 58.4,68.72 C54.8653776,68.72 52,71.5853776 52,75.12 C52,78.6546224 54.8653776,81.52 58.4,81.52 Z M111.52,93.04 C113.994236,93.04 116,91.0342357 116,88.56 C116,86.0857643 113.994236,84.08 111.52,84.08 C109.045764,84.08 107.04,86.0857643 107.04,88.56 C107.04,91.0342357 109.045764,93.04 111.52,93.04 Z M89.12,48.88 C91.5942357,48.88 93.6,46.8742357 93.6,44.4 C93.6,41.9257643 91.5942357,39.92 89.12,39.92 C86.6457643,39.92 84.64,41.9257643 84.64,44.4 C84.64,46.8742357 86.6457643,48.88 89.12,48.88 Z" id="Oval-185-Copy-18" fill="#8DA1A3" sketch:type="MSShapeGroup"></path>
                <path d="M0,29 L0,26 L128,26 L128,32 L18,32 L18,35 C18,39.9716556 13.9705627,44 9,44 C4.02834436,44 0,39.9705627 0,35 L0,29 Z" id="Rectangle-20-Copy-60" fill="#5F7173" sketch:type="MSShapeGroup"></path>
                <rect id="Rectangle-20-Copy-85" fill="#B8E986" sketch:type="MSShapeGroup" x="0" y="12" width="14" height="26" rx="10"></rect>
            </g>
        </g>
    </g>
</svg>