<?xml version="1.0" encoding="UTF-8" standalone="no"?>
<svg width="130px" height="130px" viewBox="0 0 130 130" version="1.1" xmlns="http://www.w3.org/2000/svg" xmlns:xlink="http://www.w3.org/1999/xlink" xmlns:sketch="http://www.bohemiancoding.com/sketch/ns">
    <!-- Generator: Sketch 3.3.3 (12081) - http://www.bohemiancoding.com/sketch -->
    <title></title>
    <desc>Created with Sketch.</desc>
    <defs>
        <rect id="path-1" x="0" y="0" width="24" height="80" rx="12"></rect>
    </defs>
    <g id="Personajes" stroke="none" stroke-width="1" fill="none" fill-rule="evenodd" sketch:type="MSPage">
        <g id="Halloween" sketch:type="MSArtboardGroup" transform="translate(1.000000, -127.000000)">
            <g id="Bloody-Chainsaw" sketch:type="MSLayerGroup" transform="translate(0.000000, 128.000000)">
                <path d="M19.1299423,72.8659217 L19.1299423,72.8659217 L19.1299423,94.8741937 C19.1299423,98.1879614 21.8124827,100.870058 25.1250849,100.870058 L53.1347998,100.870058 C56.4465247,100.870058 59.1299423,98.1862699 59.1299423,94.8741937 L59.1299423,72.8659217 C59.1299423,69.552154 56.4474019,66.8700577 53.1347998,66.8700577 L25.1250849,66.8700577 C21.8133599,66.8700577 19.1299423,69.5538455 19.1299423,72.8659217 L19.1299423,72.8659217 Z M13.1299423,72.8659217 C13.1299423,66.2407889 18.4989995,60.8700577 25.1250849,60.8700577 L53.1347998,60.8700577 C59.7595341,60.8700577 65.1299423,66.2368693 65.1299423,72.8659217 L65.1299423,94.8741937 C65.1299423,101.499326 59.7608851,106.870058 53.1347998,106.870058 L25.1250849,106.870058 C18.5003506,106.870058 13.1299423,101.503246 13.1299423,94.8741937 L13.1299423,72.8659217 L13.1299423,72.8659217 Z" id="Shape" fill="#57686A" sketch:type="MSShapeGroup" transform="translate(39.129942, 83.870058) rotate(-315.000000) translate(-39.129942, -83.870058) "></path>
                <g id="Group" transform="translate(89.688077, 44.625631) rotate(-315.000000) translate(-89.688077, -44.625631) translate(71.688077, 9.125631)" sketch:type="MSShapeGroup">
                    <path d="M5.02874756,62.9856262 C7.22200972,61.8889951 9,62.992017 9,65.442414 L9,67.557586 C9,70.0110635 7.22043437,71.1102172 5.02874756,70.0143738 L1.97125244,68.4856262 C-0.22200972,67.3889951 -0.220434366,65.6102172 1.97125244,64.5143738 L5.02874756,62.9856262 Z" id="Triangle-528" fill="#5F7173"></path>
                    <path d="M5.02874756,53.9856262 C7.22200972,52.8889951 9,53.992017 9,56.442414 L9,58.557586 C9,61.0110635 7.22043437,62.1102172 5.02874756,61.0143738 L1.97125244,59.4856262 C-0.22200972,58.3889951 -0.220434366,56.6102172 1.97125244,55.5143738 L5.02874756,53.9856262 Z" id="Triangle-528-Copy-3" fill="#5F7173"></path>
                    <path d="M5.02874756,44.9856262 C7.22200972,43.8889951 9,44.992017 9,47.442414 L9,49.557586 C9,52.0110635 7.22043437,53.1102172 5.02874756,52.0143738 L1.97125244,50.4856262 C-0.22200972,49.3889951 -0.220434366,47.6102172 1.97125244,46.5143738 L5.02874756,44.9856262 Z" id="Triangle-528-Copy-4" fill="#5F7173"></path>
                    <path d="M5.02874756,35.9856262 C7.22200972,34.8889951 9,35.992017 9,38.442414 L9,40.557586 C9,43.0110635 7.22043437,44.1102172 5.02874756,43.0143738 L1.97125244,41.4856262 C-0.22200972,40.3889951 -0.220434366,38.6102172 1.97125244,37.5143738 L5.02874756,35.9856262 Z" id="Triangle-528-Copy-5" fill="#5F7173"></path>
                    <path d="M5.02874756,26.9856262 C7.22200972,25.8889951 9,26.992017 9,29.442414 L9,31.557586 C9,34.0110635 7.22043437,35.1102172 5.02874756,34.0143738 L1.97125244,32.4856262 C-0.22200972,31.3889951 -0.220434366,29.6102172 1.97125244,28.5143738 L5.02874756,26.9856262 Z" id="Triangle-528-Copy-6" fill="#BC2929"></path>
                    <path d="M5.02874756,17.9856262 C7.22200972,16.8889951 9,17.992017 9,20.442414 L9,22.557586 C9,25.0110635 7.22043437,26.1102172 5.02874756,25.0143738 L1.97125244,23.4856262 C-0.22200972,22.3889951 -0.220434366,20.6102172 1.97125244,19.5143738 L5.02874756,17.9856262 Z" id="Triangle-528-Copy-7" fill="#BC2929"></path>
                    <path d="M31.701851,62.9856262 C33.8951132,61.8889951 35.6731035,62.992017 35.6731035,65.442414 L35.6731035,67.557586 C35.6731035,70.0110635 33.8935378,71.1102172 31.701851,70.0143738 L28.6443559,68.4856262 C26.4510938,67.3889951 26.4526691,65.6102172 28.6443559,64.5143738 L31.701851,62.9856262 Z" id="Triangle-528" fill="#5F7173" transform="translate(31.336552, 66.500066) scale(-1, 1) translate(-31.336552, -66.500066) "></path>
                    <path d="M31.701851,53.9856262 C33.8951132,52.8889951 35.6731035,53.992017 35.6731035,56.442414 L35.6731035,58.557586 C35.6731035,61.0110635 33.8935378,62.1102172 31.701851,61.0143738 L28.6443559,59.4856262 C26.4510938,58.3889951 26.4526691,56.6102172 28.6443559,55.5143738 L31.701851,53.9856262 Z" id="Triangle-528-Copy-3" fill="#5F7173" transform="translate(31.336552, 57.500066) scale(-1, 1) translate(-31.336552, -57.500066) "></path>
                    <path d="M31.701851,44.9856262 C33.8951132,43.8889951 35.6731035,44.992017 35.6731035,47.442414 L35.6731035,49.557586 C35.6731035,52.0110635 33.8935378,53.1102172 31.701851,52.0143738 L28.6443559,50.4856262 C26.4510938,49.3889951 26.4526691,47.6102172 28.6443559,46.5143738 L31.701851,44.9856262 Z" id="Triangle-528-Copy-4" fill="#BC2929" transform="translate(31.336552, 48.500066) scale(-1, 1) translate(-31.336552, -48.500066) "></path>
                    <path d="M31.701851,35.9856262 C33.8951132,34.8889951 35.6731035,35.992017 35.6731035,38.442414 L35.6731035,40.557586 C35.6731035,43.0110635 33.8935378,44.1102172 31.701851,43.0143738 L28.6443559,41.4856262 C26.4510938,40.3889951 26.4526691,38.6102172 28.6443559,37.5143738 L31.701851,35.9856262 Z" id="Triangle-528-Copy-5" fill="#BC2929" transform="translate(31.336552, 39.500066) scale(-1, 1) translate(-31.336552, -39.500066) "></path>
                    <path d="M31.701851,26.9856262 C33.8951132,25.8889951 35.6731035,26.992017 35.6731035,29.442414 L35.6731035,31.557586 C35.6731035,34.0110635 33.8935378,35.1102172 31.701851,34.0143738 L28.6443559,32.4856262 C26.4510938,31.3889951 26.4526691,29.6102172 28.6443559,28.5143738 L31.701851,26.9856262 Z" id="Triangle-528-Copy-6" fill="#5F7173" transform="translate(31.336552, 30.500066) scale(-1, 1) translate(-31.336552, -30.500066) "></path>
                    <path d="M31.701851,17.9856262 C33.8951132,16.8889951 35.6731035,17.992017 35.6731035,20.442414 L35.6731035,22.557586 C35.6731035,25.0110635 33.8935378,26.1102172 31.701851,25.0143738 L28.6443559,23.4856262 C26.4510938,22.3889951 26.4526691,20.6102172 28.6443559,19.5143738 L31.701851,17.9856262 Z" id="Triangle-528-Copy-7" fill="#5F7173" transform="translate(31.336552, 21.500066) scale(-1, 1) translate(-31.336552, -21.500066) "></path>
                    <path d="M29.701851,8.98562622 C31.8951132,7.88899514 33.6731035,8.99201702 33.6731035,11.442414 L33.6731035,13.557586 C33.6731035,16.0110635 31.8935378,17.1102172 29.701851,16.0143738 L26.6443559,14.4856262 C24.4510938,13.3889951 24.4526691,11.6102172 26.6443559,10.5143738 L29.701851,8.98562622 Z" id="Triangle-528-Copy-8" fill="#5F7173" transform="translate(29.336552, 12.500066) scale(-1, 1) rotate(-330.000000) translate(-29.336552, -12.500066) "></path>
                    <path d="M6.70185103,8.98562622 C8.89511319,7.88899514 10.6731035,8.99201702 10.6731035,11.442414 L10.6731035,13.557586 C10.6731035,16.0110635 8.89353784,17.1102172 6.70185103,16.0143738 L3.64435592,14.4856262 C1.45109376,13.3889951 1.45266911,11.6102172 3.64435592,10.5143738 L6.70185103,8.98562622 Z" id="Triangle-528-Copy-9" fill="#BC2929" transform="translate(6.336552, 12.500066) rotate(-330.000000) translate(-6.336552, -12.500066) "></path>
                    <path d="M13.3788913,2.66363586 C15.5721535,1.56700478 17.3501437,2.67002665 17.3501437,5.12042361 L17.3501437,7.23559567 C17.3501437,9.68907316 15.5705781,10.7882268 13.3788913,9.69238342 L10.3213962,8.16363586 C8.12813402,7.06700478 8.12970937,5.28822682 10.3213962,4.19238342 L13.3788913,2.66363586 Z" id="Triangle-528-Copy-10" fill="#5F7173" transform="translate(13.013592, 6.178076) rotate(-298.000000) translate(-13.013592, -6.178076) "></path>
                    <path d="M23.3788913,2.66363586 C25.5721535,1.56700478 27.3501437,2.67002665 27.3501437,5.12042361 L27.3501437,7.23559567 C27.3501437,9.68907316 25.5705781,10.7882268 23.3788913,9.69238342 L20.3213962,8.16363586 C18.128134,7.06700478 18.1297094,5.28822682 20.3213962,4.19238342 L23.3788913,2.66363586 Z" id="Triangle-528-Copy-11" fill="#5F7173" transform="translate(23.013592, 6.178076) scale(-1, 1) rotate(-298.000000) translate(-23.013592, -6.178076) "></path>
                </g>
                <g id="Rectangle-998-Copy-3" transform="translate(82.263456, 52.050253) rotate(-315.000000) translate(-82.263456, -52.050253) translate(70.263456, 12.050253)">
                    <mask id="mask-2" sketch:name="Mask" fill="white">
                        <use xlink:href="#path-1"></use>
                    </mask>
                    <use id="Mask" fill="#8DA1A3" sketch:type="MSShapeGroup" xlink:href="#path-1"></use>
                    <path d="M3.82929429,12 L6.00440717,12 C10.9725359,12 15,16.0283444 15,21 C15,25.1509133 12.189558,28.6454943 8.37072012,29.6851396 C8.77681358,30.710937 9,31.8293167 9,33 C9,37.9705627 4.97241439,42 0.0093909502,42 L-9.00939095,42 C-13.9747672,42 -18,37.9716556 -18,33 C-18,30.6949195 -17.1338246,28.5922381 -15.7098648,26.9999643 L-15.7098648,26.9999643 C-17.1340351,25.4078577 -18,23.3053419 -18,21 C-18,16.0294373 -13.9700614,12 -9.00440717,12 L-1.82929429,12 C-1.93984578,11.6872211 -2,11.3506354 -2,11 C-2,9.34314575 -0.656854249,8 1,8 C2.65685425,8 4,9.34314575 4,11 C4,11.3506354 3.93984578,11.6872211 3.82929429,12 Z M6,51 C8.209139,51 10,49.209139 10,47 C10,44.790861 8.209139,43 6,43 C3.790861,43 2,44.790861 2,47 C2,49.209139 3.790861,51 6,51 Z M24,33 C26.7614237,33 29,30.7614237 29,28 C29,25.2385763 26.7614237,23 24,23 C21.2385763,23 19,25.2385763 19,28 C19,30.7614237 21.2385763,33 24,33 Z M8.5,10 C9.88071187,10 11,8.88071187 11,7.5 C11,6.11928813 9.88071187,5 8.5,5 C7.11928813,5 6,6.11928813 6,7.5 C6,8.88071187 7.11928813,10 8.5,10 Z M20.5,22 C21.3284271,22 22,21.3284271 22,20.5 C22,19.6715729 21.3284271,19 20.5,19 C19.6715729,19 19,19.6715729 19,20.5 C19,21.3284271 19.6715729,22 20.5,22 Z" fill="#BD2929" sketch:type="MSShapeGroup" mask="url(#mask-2)"></path>
                </g>
                <rect id="Rectangle-1048" fill="#57686A" sketch:type="MSShapeGroup" transform="translate(51.150758, 83.162951) rotate(-315.000000) translate(-51.150758, -83.162951) " x="33.1507576" y="63.1629509" width="36" height="40" rx="6"></rect>
                <path d="M34.8142381,63.6732359 C35.143775,60.3778669 38.094163,57.7064424 41.4052215,57.7064424 L59.4109174,57.7064424 L59.4109174,76.7064424 L59.4109174,91.7023351 C59.4109174,95.018312 56.7261597,97.7064424 53.4042149,97.7064424 L37.4176199,97.7064424 C34.1002097,97.7064424 31.6780211,95.0354053 32.0075968,91.7396489 L34.8142381,63.6732359 Z" id="Rectangle-1048-Copy" fill="#EE4D00" sketch:type="MSShapeGroup" transform="translate(45.694249, 77.706442) rotate(-315.000000) translate(-45.694249, -77.706442) "></path>
                <circle id="Oval-1082" fill="#293138" sketch:type="MSShapeGroup" transform="translate(41.251263, 90.234019) rotate(-315.000000) translate(-41.251263, -90.234019) " cx="41.2512627" cy="90.2340187" r="4"></circle>
            </g>
        </g>
    </g>
</svg>