<?xml version="1.0" encoding="UTF-8" standalone="no"?>
<svg width="130px" height="130px" viewBox="0 0 130 130" version="1.1" xmlns="http://www.w3.org/2000/svg" xmlns:xlink="http://www.w3.org/1999/xlink" xmlns:sketch="http://www.bohemiancoding.com/sketch/ns">
    <!-- Generator: Sketch 3.3.3 (12081) - http://www.bohemiancoding.com/sketch -->
    <title></title>
    <desc>Created with Sketch.</desc>
    <defs></defs>
    <g id="Personajes" stroke="none" stroke-width="1" fill="none" fill-rule="evenodd" sketch:type="MSPage">
        <g id="Halloween" sketch:type="MSArtboardGroup" transform="translate(-511.000000, -255.000000)" fill="#FEFFE9">
            <g id="Bones" sketch:type="MSLayerGroup" transform="translate(512.000000, 256.000000)">
                <path d="M71,92 L71,36 L71,36 C75.4092877,36 79,32.418278 79,28 C79,23.5907123 75.418278,20 71,20 C67.9926066,20 65.3660179,21.666232 63.9998235,24.1276643 C62.6350449,21.6686096 60.0118969,20 57,20 C52.5907123,20 49,23.581722 49,28 C49,32.4092877 52.581722,36 57,36 L57,92 C52.5907123,92 49,95.581722 49,100 C49,104.409288 52.581722,108 57,108 C60.0073934,108 62.6339821,106.333768 64.0001765,103.872336 C65.3649551,106.33139 67.9881031,108 71,108 C75.4092877,108 79,104.418278 79,100 C79,95.5907123 75.418278,92 71,92 Z" id="Rectangle-5200-Copy-2" sketch:type="MSShapeGroup" transform="translate(64.000000, 64.000000) rotate(-45.000000) translate(-64.000000, -64.000000) "></path>
                <path d="M71,92 L71,36 L71,36 C75.4092877,36 79,32.418278 79,28 C79,23.5907123 75.418278,20 71,20 C67.9926066,20 65.3660179,21.666232 63.9998235,24.1276643 C62.6350449,21.6686096 60.0118969,20 57,20 C52.5907123,20 49,23.581722 49,28 C49,32.4092877 52.581722,36 57,36 L57,92 C52.5907123,92 49,95.581722 49,100 C49,104.409288 52.581722,108 57,108 C60.0073934,108 62.6339821,106.333768 64.0001765,103.872336 C65.3649551,106.33139 67.9881031,108 71,108 C75.4092877,108 79,104.418278 79,100 C79,95.5907123 75.418278,92 71,92 Z" id="Rectangle-5200-Copy-8" sketch:type="MSShapeGroup" transform="translate(64.000000, 64.000000) rotate(45.000000) translate(-64.000000, -64.000000) "></path>
            </g>
        </g>
    </g>
</svg>