<?xml version="1.0" encoding="UTF-8" standalone="no"?>
<svg width="130px" height="130px" viewBox="0 0 130 130" version="1.1" xmlns="http://www.w3.org/2000/svg" xmlns:xlink="http://www.w3.org/1999/xlink" xmlns:sketch="http://www.bohemiancoding.com/sketch/ns">
    <!-- Generator: Sketch 3.3.3 (12081) - http://www.bohemiancoding.com/sketch -->
    <title></title>
    <desc>Created with Sketch.</desc>
    <defs></defs>
    <g id="Personajes" stroke="none" stroke-width="1" fill="none" fill-rule="evenodd" sketch:type="MSPage">
        <g id="Halloween" sketch:type="MSArtboardGroup" transform="translate(-383.000000, 1.000000)">
            <g id="Candle" sketch:type="MSLayerGroup" transform="translate(384.000000, 0.000000)">
                <rect id="Rectangle-926" fill="#FFFFFF" sketch:type="MSShapeGroup" x="48" y="60" width="28" height="44" rx="4"></rect>
                <g id="Group" transform="translate(34.000000, 78.000000)" fill="#FFCF62" sketch:type="MSShapeGroup">
                    <path d="M0,20 L51.0057574,20 C53.7640014,20 56,22.2289849 56,25.0021863 L56,26.9978137 C56,29.7604449 53.765343,32 51.0069517,32 L28.0732422,32 L5.00348412,32 C2.24013615,32 0,29.7710151 0,26.9978137 L0,20 Z" id="Rectangle-707-Copy"></path>
                    <path d="M52,9.11110273 L52,9.11110273 L52,16.8888973 C52,18.6080088 53.3921886,20 55.1111027,20 L62.8888973,20 C64.6080088,20 66,18.6078114 66,16.8888973 L66,9.11110273 C66,7.3919912 64.6078114,6 62.8888973,6 L55.1111027,6 C53.3919912,6 52,7.39218858 52,9.11110273 L52,9.11110273 Z M46,8.66665732 C46,3.88019465 49.8784158,0 54.6666573,0 L63.3333427,0 C68.1198053,0 72,3.87841577 72,8.66665732 L72,17.3333427 C72,22.1198053 68.1215842,26 63.3333427,26 L54.6666573,26 C49.8801947,26 46,22.1215842 46,17.3333427 L46,8.66665732 L46,8.66665732 Z" id="Shape-Copy"></path>
                </g>
                <path d="M44,98 L48,98 L52,98 L52,115.990442 C52,118.20486 50.2046438,120 48,120 L48,120 C45.790861,120 44,118.199648 44,115.990442 L44,98 Z" id="Rectangle-930" fill="#FFFFFF" sketch:type="MSShapeGroup"></path>
                <path d="M52,92 L56,92 L60,92 L60,109.990442 C60,112.20486 58.2046438,114 56,114 L56,114 C53.790861,114 52,112.199648 52,109.990442 L52,92 Z" id="Rectangle-930-Copy" fill="#FFFFFF" sketch:type="MSShapeGroup"></path>
                <g id="Group-Copy-4" transform="translate(55.000000, 34.000000)" sketch:type="MSShapeGroup">
                    <path d="M0,12.4304034 C0,10.2228826 0.983137822,6.93534005 2.22996027,5.12446144 C2.22996027,5.12446144 5.35550768,0 7,0 C8.46523884,0 11.7311671,5.14863828 11.7311671,5.14863828 C12.9842089,6.96272527 14,10.2208888 14,12.4304034 L14,14.9980968 C14,18.8651412 10.8581267,22 7,22 L7,22 C3.13400675,22 0,18.8704981 0,14.9980968 L0,12.4304034 Z" id="Rectangle-996-Copy-3" fill="#FFB800"></path>
                    <path d="M4,18.211681 C4,16.5575803 4.66896061,14.0420899 5.53469471,12.6423475 C5.53469471,12.6423475 6.29521758,11 7,11 C7.6279595,11 8.44896763,12.6665383 8.44896763,12.6665383 C9.30557916,14.0749353 10,16.556835 10,18.211681 L10,19.0049856 C10,20.6590864 8.65348288,22 7,22 L7,22 C5.34314575,22 4,20.6598316 4,19.0049856 L4,18.211681 Z" id="Rectangle-996-Copy-4" fill="#FFDD00"></path>
                </g>
            </g>
        </g>
    </g>
</svg>