<?xml version="1.0" encoding="UTF-8" standalone="no"?>
<svg width="130px" height="130px" viewBox="0 0 130 130" version="1.1" xmlns="http://www.w3.org/2000/svg" xmlns:xlink="http://www.w3.org/1999/xlink" xmlns:sketch="http://www.bohemiancoding.com/sketch/ns">
    <!-- Generator: Sketch 3.3.3 (12081) - http://www.bohemiancoding.com/sketch -->
    <title></title>
    <desc>Created with Sketch.</desc>
    <defs>
        <circle id="path-1" cx="36" cy="36" r="36"></circle>
    </defs>
    <g id="Personajes" stroke="none" stroke-width="1" fill="none" fill-rule="evenodd" sketch:type="MSPage">
        <g id="Halloween" sketch:type="MSArtboardGroup" transform="translate(-639.000000, -255.000000)">
            <g id="Eye" sketch:type="MSLayerGroup" transform="translate(640.000000, 256.000000)">
                <g id="Line" transform="translate(28.000000, 29.000000)">
                    <mask id="mask-2" sketch:name="Mask" fill="white">
                        <use xlink:href="#path-1"></use>
                    </mask>
                    <use id="Mask" fill="#FFFFFF" sketch:type="MSShapeGroup" xlink:href="#path-1"></use>
                    <path d="M32.9494082,65.9748458 C33.1539102,64.8841686 34.2242502,64 35.3236197,64 L35.6813796,64 C36.7881183,64 37.8493728,64.8750152 38.055591,65.9748458 L39.4978316,73.6667958 C39.7023336,74.757473 38.966606,75.6416416 37.8649944,75.6416416 L33.1400048,75.6416416 C32.0337117,75.6416416 31.3009494,74.7666263 31.5071676,73.6667958 L32.9494082,65.9748458 Z M46.3463033,68.0494663 C46.1083868,66.9655873 46.7481677,65.7334907 47.7601427,65.3039328 L48.0894624,65.1641449 C49.1082208,64.7317076 50.4270063,65.1224982 51.0465693,66.0543217 L55.379643,72.5712707 C55.9940496,73.4953391 55.662281,74.5966922 54.6482422,75.0271262 L50.2988664,76.8733267 C49.2805182,77.3055898 48.2641112,76.7864471 48.0241981,75.6934719 L46.3463033,68.0494663 Z M60.272967,19.6310375 C59.262239,20.089106 57.9240487,19.7194731 57.2934763,18.8189223 L57.0882736,18.5258626 C56.4534743,17.6192752 56.5615343,16.2480584 57.3441808,15.4482974 L62.8178222,9.85496182 C63.5939551,9.06185685 64.7402196,9.15739137 65.3720781,10.0597787 L68.0822208,13.9302636 C68.7167644,14.8364858 68.4202891,15.9386178 67.4010787,16.4005306 L60.272967,19.6310375 Z M52.1846284,7.22255968 C51.4621859,8.06486287 50.09316,8.29540533 49.1410781,7.74572059 L48.831249,7.56684065 C47.8727851,7.01347125 47.3912194,5.72505862 47.7625445,4.6694683 L50.3595024,-2.71307608 C50.7277371,-3.75988125 51.8069802,-4.1577299 52.7610038,-3.60692411 L56.8529648,-1.24442932 C57.8110427,-0.691282787 58.008126,0.43288382 57.2796204,1.28225592 L52.1846284,7.22255968 Z M66.9247687,41.2786068 C65.8510137,40.9985211 65.043662,39.869112 65.1203501,38.7724205 L65.1453062,38.4155321 C65.2225084,37.3114893 66.1694215,36.313858 67.280958,36.1848624 L75.0547764,35.2826983 C76.1570621,35.1547763 76.9877551,35.9503882 76.9109106,37.0493163 L76.581312,41.762796 C76.5041409,42.8663942 75.5801422,43.5363336 74.4973758,43.2538975 L66.9247687,41.2786068 Z M42.7697068,5.99567796 C42.3971031,7.04093598 41.2016263,7.74678092 40.1157919,7.57480164 L39.7624366,7.51883566 C38.6693236,7.34570357 37.7580176,6.31544446 37.7263896,5.196895 L37.5051915,-2.62597044 C37.4738268,-3.73521077 38.3388108,-4.49340061 39.4268597,-4.32107059 L44.0936768,-3.58191938 C45.1863496,-3.40885701 45.7732079,-2.42998538 45.3974771,-1.37595519 L42.7697068,5.99567796 Z M12.5961182,19.5274204 C13.4384214,20.2498629 13.6689638,21.6188888 13.1192791,22.5709707 L12.9403991,22.8807999 C12.3870297,23.8392638 11.0986171,24.3208294 10.0430268,23.9495044 L2.66048241,21.3525464 C1.61367724,20.9843117 1.21582859,19.9050686 1.76663438,18.951045 L4.12912917,14.859084 C4.6822757,13.9010061 5.80644231,13.7039229 6.65581441,14.4324284 L12.5961182,19.5274204 Z M4.62356582,33.1929683 C5.71424304,33.3974703 6.59841162,34.4678103 6.59841162,35.5671798 L6.59841162,35.9249397 C6.59841162,37.0316785 5.72339639,38.0929329 4.62356582,38.2991511 L-3.06838414,39.7413917 C-4.15906136,39.9458937 -5.04322994,39.2101661 -5.04322994,38.1085545 L-5.04322994,33.3835649 C-5.04322994,32.2772719 -4.16821471,31.5445095 -3.06838414,31.7507277 L4.62356582,33.1929683 Z M3.83174905,49.6120324 C4.87855422,49.2437977 6.17943666,49.728655 6.7291214,50.6807369 L6.90800135,50.9905661 C7.46137074,51.94903 7.23421253,53.3056109 6.38484043,54.0341164 L0.444536671,59.1291084 C-0.397766518,59.8515509 -1.53134278,59.6564764 -2.08214857,58.7024528 L-4.44464335,54.6104918 C-4.99778989,53.6524139 -4.60638565,52.5803154 -3.55079533,52.2089904 L3.83174905,49.6120324 Z" id="Rectangle-1038" fill="#FF5353" sketch:type="MSShapeGroup" mask="url(#mask-2)"></path>
                </g>
                <circle id="Oval-1009-Copy-2" fill="#2ABDB1" sketch:type="MSShapeGroup" cx="64" cy="65" r="21"></circle>
                <circle id="Oval-1009-Copy-3" fill="#000000" sketch:type="MSShapeGroup" cx="64" cy="65" r="13"></circle>
                <circle id="Oval-1009-Copy-4" opacity="0.711637127" fill="#FFFFFF" sketch:type="MSShapeGroup" cx="57" cy="52" r="8"></circle>
            </g>
        </g>
    </g>
</svg>