<?xml version="1.0" encoding="UTF-8" standalone="no"?>
<svg width="130px" height="130px" viewBox="0 0 130 130" version="1.1" xmlns="http://www.w3.org/2000/svg" xmlns:xlink="http://www.w3.org/1999/xlink" xmlns:sketch="http://www.bohemiancoding.com/sketch/ns">
    <!-- Generator: Sketch 3.3.3 (12081) - http://www.bohemiancoding.com/sketch -->
    <title></title>
    <desc>Created with Sketch.</desc>
    <defs></defs>
    <g id="Personajes" stroke="none" stroke-width="1" fill="none" fill-rule="evenodd" sketch:type="MSPage">
        <g id="Halloween" sketch:type="MSArtboardGroup" transform="translate(-639.000000, -127.000000)">
            <g id="Mask-Scream" sketch:type="MSLayerGroup" transform="translate(640.000000, 128.000000)">
                <path d="M34.1143855,50.6379705 C34.0391698,51.0787194 34,51.5317787 34,51.9940005 L34,102.006 C34,106.428152 37.5810726,110 41.9985496,110 L86.0014504,110 C90.4264107,110 94,106.420964 94,102.006 L94,51.9940005 C94,51.5315389 93.9608351,51.0783768 93.8856445,50.6376269 C93.9613518,49.768504 94,48.8887654 94,48 C94,31.4314575 80.5685425,18 64,18 C47.4314575,18 34,31.4314575 34,48 C34,48.8888825 34.0386583,49.7687358 34.1143855,50.6379705 Z" id="Rectangle-1111" fill="#000000" sketch:type="MSShapeGroup"></path>
                <circle id="Oval-1009-Copy" fill="#FFFFFF" sketch:type="MSShapeGroup" cx="64" cy="48" r="24"></circle>
                <rect id="Rectangle-891" fill="#FFFFFF" sketch:type="MSShapeGroup" x="32" y="54" width="64" height="20" rx="12"></rect>
                <path d="M64,58 C75.5979797,58 89.0697042,74 83.0000009,74 C76.9302975,74 73.0697031,107.16891 73.0697031,107.16891 C71.9266377,112.598471 68.9716556,116 64,116 C59.0294373,116 56.0733411,112.59837 54.9302969,107.16891 C54.9302969,107.16891 52.0000001,74 45,74 C37.9999998,74 52.3994702,58 64,58 Z" id="Rectangle-891-Copy" fill="#FFFFFF" sketch:type="MSShapeGroup"></path>
                <path d="M64,111 C66.8994949,111 69.25,103.702298 69.25,90.2544955 C69.25,76.8066929 67.75,74 64,74 C60.25,74 58.75,76.8066929 58.75,90.2544955 C58.75,103.702298 61.1005051,111 64,111 Z" id="Oval-1087" fill="#000000" sketch:type="MSShapeGroup"></path>
                <g id="Path-14-Copy-36-+-Path-14-Copy-37" transform="translate(55.000000, 63.000000)" fill="#000000" sketch:type="MSShapeGroup">
                    <path d="M13.8984003,7 C12.1504115,7 10.7791305,5.59148294 10.8362896,3.83147435 L10.8620187,3.03924188 C10.9188505,1.28931348 11.9704358,0.862012585 13.2232786,2.09714068 L15.9381002,4.77357555 C17.1853562,6.00319582 16.775144,7 15.0314433,7 L13.8984003,7 Z" id="Path-14-Copy-36"></path>
                    <path d="M4.10159968,7 C5.84958851,7 7.22086953,5.59148294 7.16371035,3.83147435 L7.1379813,3.03924188 C7.08114949,1.28931348 6.02956422,0.862012585 4.77672136,2.09714068 L2.06189983,4.77357555 C0.81464378,6.00319582 1.22485604,7 2.96855674,7 L4.10159968,7 Z" id="Path-14-Copy-37"></path>
                </g>
                <g id="Path-14-Copy-39-+-Path-14-Copy-42" transform="translate(40.000000, 45.000000)" fill="#000000" sketch:type="MSShapeGroup">
                    <path d="M11.041755,20.8491081 C16.6149839,20.8491081 20.9831789,16.3404984 20.7980243,10.7677863 L20.714275,8.2471343 C20.5292848,2.67937399 17.1310395,1.29601224 13.116748,5.16437653 L4.10290998,13.8505441 C0.0919018566,17.7157443 1.35266486,20.8491081 6.93156092,20.8491081 L11.041755,20.8491081 Z" id="Path-14-Copy-39"></path>
                    <path d="M38.041755,20.8491081 C43.6149839,20.8491081 47.9831789,16.3404984 47.7980243,10.7677863 L47.714275,8.2471343 C47.5292848,2.67937399 44.1310395,1.29601224 40.116748,5.16437653 L31.10291,13.8505441 C27.0919019,17.7157443 28.3526649,20.8491081 33.9315609,20.8491081 L38.041755,20.8491081 Z" id="Path-14-Copy-42" transform="translate(37.500000, 10.640612) scale(-1, 1) translate(-37.500000, -10.640612) "></path>
                </g>
            </g>
        </g>
    </g>
</svg>