<?xml version="1.0" encoding="UTF-8" standalone="no"?>
<svg width="130px" height="130px" viewBox="0 0 130 130" version="1.1" xmlns="http://www.w3.org/2000/svg" xmlns:xlink="http://www.w3.org/1999/xlink" xmlns:sketch="http://www.bohemiancoding.com/sketch/ns">
    <!-- Generator: Sketch 3.3.3 (12081) - http://www.bohemiancoding.com/sketch -->
    <title></title>
    <desc>Created with Sketch.</desc>
    <defs></defs>
    <g id="Personajes" stroke="none" stroke-width="1" fill="none" fill-rule="evenodd" sketch:type="MSPage">
        <g id="Halloween" sketch:type="MSArtboardGroup" transform="translate(-639.000000, 1.000000)">
            <g id="Mask-Jason" sketch:type="MSLayerGroup" transform="translate(640.000000, 0.000000)">
                <path d="M34.0744869,55.9169936 C32.7720537,38.2897248 46.0450521,24 63.7160895,24 L66.0205078,24 L68.2784547,24 C85.9544835,24 99.2276491,38.2931925 97.9254722,55.9169936 L95.9181942,83.0837065 C94.7790172,98.5014497 81.3181553,111 65.857166,111 L66.1427931,111 C50.6797227,111 37.2200018,98.4887266 36.0817648,83.0837065 L34.0744869,55.9169936 Z" id="Rectangle-942" fill="#FFFFFF" sketch:type="MSShapeGroup"></path>
                <path d="M59.6881059,61.9163925 C58.203506,60.3493148 58.7566558,59.0789474 60.9213499,59.0789474 L62.0786501,59.0789474 C64.2443519,59.0789474 67.7566558,59.0789474 69.9213499,59.0789474 L71.0786501,59.0789474 C73.2443519,59.0789474 73.7955587,60.3503021 72.3118941,61.9163925 L68.6881059,65.7415022 C67.203506,67.3085799 64.7955587,67.3075926 63.3118941,65.7415022 L59.6881059,61.9163925 Z" id="Triangle-528" fill="#FF5353" sketch:type="MSShapeGroup"></path>
                <path d="M82.159746,80.5465173 C81.219795,79.179316 81.7412299,78.4762694 83.3200913,78.9748572 L89.8037226,81.0223198 C91.3845146,81.5215172 91.8286833,82.9728423 90.7956966,84.2640756 L89.3960142,86.0136786 C88.3630743,87.3048535 86.7693223,87.2513557 85.8237794,85.8760205 L82.159746,80.5465173 Z" id="Triangle-528-Copy" fill="#FF5353" sketch:type="MSShapeGroup"></path>
                <path d="M49.8602545,80.5465173 C50.8002054,79.179316 50.2787706,78.4762694 48.6999091,78.9748572 L42.2162778,81.0223198 C40.6354858,81.5215172 40.1913172,82.9728423 41.2243038,84.2640756 L42.6239862,86.0136786 C43.6569261,87.3048535 45.2506781,87.2513557 46.1962211,85.8760205 L49.8602545,80.5465173 Z" id="Triangle-528-Copy-2" fill="#FF5353" sketch:type="MSShapeGroup"></path>
                <path d="M45.5,77 C49.6421356,77 56,71.6421356 56,67.5 C56,63.3578644 49.6421356,62 45.5,62 C41.3578644,62 38,65.3578644 38,69.5 C38,73.6421356 41.3578644,77 45.5,77 Z" id="Oval-1024" fill="#000000" sketch:type="MSShapeGroup"></path>
                <path d="M86.5,77 C90.6421356,77 94,73.6421356 94,69.5 C94,65.3578644 90.6421356,62 86.5,62 C82.3578644,62 76,63.3578644 76,67.5 C76,71.6421356 82.3578644,77 86.5,77 Z" id="Oval-1024-Copy" fill="#000000" sketch:type="MSShapeGroup"></path>
                <g id="Group" transform="translate(44.000000, 35.000000)" fill="#000000" sketch:type="MSShapeGroup">
                    <circle id="Path" cx="15" cy="52" r="3"></circle>
                    <circle id="Oval-1024-Copy-12" cx="4" cy="58" r="3"></circle>
                    <circle id="Oval-1024-Copy-15" cx="29" cy="52" r="3"></circle>
                    <circle id="Oval-1024-Copy-19" cx="15" cy="66" r="3"></circle>
                    <circle id="Oval-1024-Copy-18" cx="29" cy="66" r="3"></circle>
                    <circle id="Oval-1024-Copy-16" cx="40" cy="58" r="3"></circle>
                    <circle id="Oval-1024-Copy-2" cx="15" cy="17" r="3"></circle>
                    <circle id="Oval-1024-Copy-4" cx="3" cy="14" r="3"></circle>
                    <circle id="Oval-1024-Copy-3" cx="29" cy="17" r="3"></circle>
                    <circle id="Oval-1024-Copy-5" cx="41" cy="14" r="3"></circle>
                    <circle id="Oval-1024-Copy-7" cx="3" cy="3" r="3"></circle>
                    <circle id="Oval-1024-Copy-6" cx="41" cy="3" r="3"></circle>
                </g>
                <rect id="Rectangle-943" fill="#4B3429" sketch:type="MSShapeGroup" x="60" y="21" width="12" height="10" rx="3"></rect>
                <rect id="Rectangle-943-Copy" fill="#4B3429" sketch:type="MSShapeGroup" x="31" y="48" width="10" height="12" rx="3"></rect>
                <rect id="Rectangle-943-Copy-2" fill="#4B3429" sketch:type="MSShapeGroup" x="91" y="48" width="10" height="12" rx="3"></rect>
            </g>
        </g>
    </g>
</svg>