<?xml version="1.0" encoding="UTF-8" standalone="no"?>
<svg width="130px" height="130px" viewBox="0 0 130 130" version="1.1" xmlns="http://www.w3.org/2000/svg" xmlns:xlink="http://www.w3.org/1999/xlink" xmlns:sketch="http://www.bohemiancoding.com/sketch/ns">
    <!-- Generator: Sketch 3.3.3 (12081) - http://www.bohemiancoding.com/sketch -->
    <title></title>
    <desc>Created with Sketch.</desc>
    <defs>
        <path id="path-1" d="M28,8 C28,3.581722 21.7319865,0 14,0 C6.2680135,0 0,3.581722 0,8 L28,8 Z"></path>
    </defs>
    <g id="Personajes" stroke="none" stroke-width="1" fill="none" fill-rule="evenodd" sketch:type="MSPage">
        <g id="Halloween" sketch:type="MSArtboardGroup" transform="translate(-383.000000, -127.000000)">
            <g id="Pumpkin-Off" sketch:type="MSLayerGroup" transform="translate(384.000000, 128.000000)">
                <g id="Group-Copy-8" transform="translate(26.000000, 33.000000)">
                    <g id="Items-Food-Pumpkin" sketch:type="MSShapeGroup">
                        <g id="Group">
                            <rect id="Rectangle-5477-Copy-3" fill="#B86C26" x="0" y="15" width="76" height="44" rx="12"></rect>
                            <rect id="Rectangle-5477-Copy-4" fill="#739B64" x="26" y="7" width="24" height="44" rx="12"></rect>
                            <rect id="Rectangle-5482" fill="#739B64" x="36" y="0" width="4" height="10"></rect>
                            <rect id="Rectangle-5477-Copy-2" fill="#FFAB39" x="12" y="11" width="28" height="54" rx="12"></rect>
                            <rect id="Rectangle-5477-Copy" fill="#F58923" x="36" y="11" width="28" height="54" rx="12"></rect>
                        </g>
                    </g>
                    <g id="Path-14-Copy-40-+-Path-14-Copy-43" transform="translate(3.000000, 25.000000)" sketch:type="MSShapeGroup">
                        <g id="Path-14-Copy-40" transform="translate(45.000000, 0.000000)">
                            <path d="M20.4542748,5.61671485 C24.046552,11.8387215 21.1421002,17.2060613 13.9882748,17.603821 L10.8406223,17.7788335 C3.67727187,18.1771228 1.05859143,13.6244079 4.97997413,7.6278931 L6.70536565,4.98945239 C10.6319695,-1.01504645 16.7239381,-0.844417811 20.3195041,5.38328515 L20.4542748,5.61671485 L20.4542748,5.61671485 Z" id="Mask-Copy-2" stroke="#F58923" stroke-width="3" fill="#E06A13"></path>
                            <path d="M19.0622271,16.1192052 C17.7600155,16.9614045 16.0507466,17.4891455 13.9882748,17.603821 L10.8406223,17.7788335 C3.67727187,18.1771228 1.05859143,13.6244079 4.97997413,7.6278931 L6.70536565,4.98945239 C6.91829061,4.663851 7.13758279,4.35640748 7.36249887,4.06710301 C11.0323627,1.31138582 15.4634772,2.43650143 18.3195041,7.38328515 L18.4542748,7.61671485 C20.3416419,10.8857305 20.4356476,13.9188234 19.0622271,16.1192052 Z" id="Mask" fill="#000000"></path>
                            <path d="M0.399999619,10 L24.3999996,10 L24.3999996,20 L8.39999962,20 L0.399999619,10 Z" id="Rectangle-904-Copy" fill="#F58923" transform="translate(12.400000, 15.000000) scale(-1, 1) translate(-12.400000, -15.000000) "></path>
                        </g>
                        <g id="Path-14-Copy-43" transform="translate(12.500000, 10.000000) scale(-1, 1) translate(-12.500000, -10.000000) ">
                            <path d="M20.4542748,5.61671485 C24.046552,11.8387215 21.1421002,17.2060613 13.9882748,17.603821 L10.8406223,17.7788335 C3.67727187,18.1771228 1.05859143,13.6244079 4.97997413,7.6278931 L6.70536565,4.98945239 C10.6319695,-1.01504645 16.7239381,-0.844417811 20.3195041,5.38328515 L20.4542748,5.61671485 L20.4542748,5.61671485 Z" id="Mask-Copy-2" stroke="#FFAB3A" stroke-width="3" fill="#E06A13"></path>
                            <path d="M19.0622271,16.1192052 C17.7600155,16.9614045 16.0507466,17.4891455 13.9882748,17.603821 L10.8406223,17.7788335 C3.67727187,18.1771228 1.05859143,13.6244079 4.97997413,7.6278931 L6.70536565,4.98945239 C6.91829061,4.663851 7.13758279,4.35640748 7.36249887,4.06710301 C11.0323627,1.31138582 15.4634772,2.43650143 18.3195041,7.38328515 L18.4542748,7.61671485 C20.3416419,10.8857305 20.4356476,13.9188234 19.0622271,16.1192052 Z" id="Mask" fill="#000000"></path>
                            <path d="M0.399999619,10 L24.3999996,10 L24.3999996,20 L8.39999962,20 L0.399999619,10 Z" id="Rectangle-904-Copy" fill="#FFAB3A" transform="translate(12.400000, 15.000000) scale(-1, 1) translate(-12.400000, -15.000000) "></path>
                        </g>
                    </g>
                    <path d="M37.5872501,45.3931834 L39.31256,45.3931834 C41.5653818,45.3931834 42.4262484,43.8545849 41.2238839,41.938339 L37.7006204,36.3232034 L34.1773569,41.938339 C32.9801301,43.8463969 33.8434773,45.3931834 36.081365,45.3931834 C36.081365,45.3931834 37.0763421,45.3931834 37.5872501,45.3931834 Z" id="Path-14-Copy-38" fill="#000000" sketch:type="MSShapeGroup"></path>
                    <g id="Rectangle-996" transform="translate(24.000000, 49.000000)">
                        <mask id="mask-2" sketch:name="Mask" fill="white">
                            <use xlink:href="#path-1"></use>
                        </mask>
                        <use id="Mask" fill="#000000" sketch:type="MSShapeGroup" xlink:href="#path-1"></use>
                        <rect fill="#E06A13" sketch:type="MSShapeGroup" mask="url(#mask-2)" x="0" y="6" width="28" height="2"></rect>
                    </g>
                </g>
            </g>
        </g>
    </g>
</svg>