<?xml version="1.0" encoding="UTF-8" standalone="no"?>
<svg width="130px" height="130px" viewBox="0 0 130 130" version="1.1" xmlns="http://www.w3.org/2000/svg" xmlns:xlink="http://www.w3.org/1999/xlink" xmlns:sketch="http://www.bohemiancoding.com/sketch/ns">
    <!-- Generator: Sketch 3.3.3 (12081) - http://www.bohemiancoding.com/sketch -->
    <title></title>
    <desc>Created with Sketch.</desc>
    <defs></defs>
    <g id="Personajes" stroke="none" stroke-width="1" fill="none" fill-rule="evenodd" sketch:type="MSPage">
        <g id="Halloween" sketch:type="MSArtboardGroup" transform="translate(1.000000, -255.000000)">
            <g id="Skull" sketch:type="MSLayerGroup" transform="translate(0.000000, 256.000000)">
                <path d="M79.404913,90 L83.0090386,90 C89.6333381,90 95,84.6245171 95,77.993523 L95,74.3141284 C98.176656,68.9486385 100,62.6872516 100,56 C100,36.117749 83.882251,20 64,20 C44.117749,20 28,36.117749 28,56 C28,62.6872516 29.823344,68.9486385 33,74.3141284 L33,77.993523 C33,84.6192787 38.3685363,90 44.9909614,90 L48.595087,90 L47.9482162,96.1545646 C47.5439501,100.000899 50.3329166,103.447985 54.1777315,103.852091 C54.8683527,103.924678 55.5465162,103.893805 56.1966905,103.77193 C57.0025738,107.334655 60.1903014,110 64,110 C67.8021903,110 70.9956999,107.337702 71.8030235,103.772645 C72.4529536,103.894103 73.131147,103.924731 73.8222685,103.852091 C77.65926,103.448807 80.4561324,100.001685 80.0517838,96.1545646 L79.404913,90 Z" id="Oval-1009" fill="#FFFFE9" sketch:type="MSShapeGroup"></path>
                <g id="Path-14-Copy-34-+-Path-14-Copy-35-+-Path-14-Copy-36" transform="translate(33.000000, 59.000000)" fill="#000000" sketch:type="MSShapeGroup">
                    <circle id="Oval-1104-Copy-2" cx="9" cy="12" r="5"></circle>
                    <circle id="Oval-1104-Copy" cx="53" cy="12" r="5"></circle>
                    <path d="M31.1429128,30 C35.1367795,30 37.1640517,27.0075293 35.6611169,23.2918142 L33.856244,18.8296157 C32.3577126,15.124787 29.9325164,15.1139006 28.4295816,18.8296157 L26.6247088,23.2918142 C25.1261774,26.9966429 27.1571729,30 31.1429128,30 L31.1429128,30 Z" id="Path-14-Copy-36"></path>
                </g>
            </g>
        </g>
    </g>
</svg>