<?xml version="1.0" encoding="UTF-8" standalone="no"?>
<svg width="130px" height="130px" viewBox="0 0 130 130" version="1.1" xmlns="http://www.w3.org/2000/svg" xmlns:xlink="http://www.w3.org/1999/xlink" xmlns:sketch="http://www.bohemiancoding.com/sketch/ns">
    <!-- Generator: Sketch 3.3.3 (12081) - http://www.bohemiancoding.com/sketch -->
    <title></title>
    <desc>Created with Sketch.</desc>
    <defs>
        <rect id="path-1" x="0" y="0" width="62" height="43" rx="12"></rect>
    </defs>
    <g id="Personajes" stroke="none" stroke-width="1" fill="none" fill-rule="evenodd" sketch:type="MSPage">
        <g id="Halloween" sketch:type="MSArtboardGroup" transform="translate(-255.000000, -255.000000)">
            <g id="Skull-Decorated-02" sketch:type="MSLayerGroup" transform="translate(256.000000, 256.000000)">
                <path d="M79.2593899,88.6154399 C91.5131105,82.8725514 100,70.4273853 100,56 C100,36.117749 83.882251,20 64,20 C44.117749,20 28,36.117749 28,56 C28,70.4273853 36.4868895,82.8725514 48.7406101,88.6154399 L48.7406101,88.6154399 L47.9482162,96.1545646 C47.5439501,100.000899 50.3329166,103.447985 54.1777315,103.852091 C54.8683527,103.924678 55.5465162,103.893805 56.1966905,103.77193 C57.0025738,107.334655 60.1903014,110 64,110 C67.8021903,110 70.9956999,107.337702 71.8030235,103.772645 C72.4529536,103.894103 73.131147,103.924731 73.8222685,103.852091 C77.65926,103.448807 80.4561324,100.001685 80.0517838,96.1545646 L79.2593899,88.6154399 Z" id="Oval-1009" fill="#FEFFE9" sketch:type="MSShapeGroup"></path>
                <g id="Oval-1116" transform="translate(33.000000, 47.000000)">
                    <mask id="mask-2" sketch:name="Mask" fill="white">
                        <use xlink:href="#path-1"></use>
                    </mask>
                    <use id="Mask" fill="#FEFFE9" sketch:type="MSShapeGroup" xlink:href="#path-1"></use>
                    <circle fill="#3791CF" sketch:type="MSShapeGroup" mask="url(#mask-2)" cx="5" cy="38" r="12"></circle>
                    <circle id="Oval-1116-Copy" fill="#3791CF" sketch:type="MSShapeGroup" mask="url(#mask-2)" cx="57" cy="38" r="12"></circle>
                </g>
                <circle id="Oval-1111-Copy-6" fill="#000000" sketch:type="MSShapeGroup" cx="42" cy="71" r="5"></circle>
                <circle id="Oval-1111-Copy-5" fill="#000000" sketch:type="MSShapeGroup" cx="86" cy="71" r="5"></circle>
                <path d="M64,50 C66.209139,50 68,46.209139 68,44 C68,41.790861 66.209139,40 64,40 C61.790861,40 60,41.790861 60,44 C60,46.209139 61.790861,50 64,50 Z M52,64 C54.209139,64 58,62.209139 58,60 C58,57.790861 54.209139,56 52,56 C49.790861,56 48,57.790861 48,60 C48,62.209139 49.790861,64 52,64 Z M76,64 C78.209139,64 80,62.209139 80,60 C80,57.790861 78.209139,56 76,56 C73.790861,56 70,57.790861 70,60 C70,62.209139 73.790861,64 76,64 Z M51.4644661,52.1213203 C53.0265633,53.6834175 56.9734367,55.0976311 58.5355339,53.5355339 C60.0976311,51.9734367 58.6834175,48.0265633 57.1213203,46.4644661 C55.5592232,44.9023689 53.0265633,44.9023689 51.4644661,46.4644661 C49.9023689,48.0265633 49.9023689,50.5592232 51.4644661,52.1213203 Z M76.5355339,52.1213203 C78.0976311,50.5592232 78.0976311,48.0265633 76.5355339,46.4644661 C74.9734367,44.9023689 72.4407768,44.9023689 70.8786797,46.4644661 C69.3165825,48.0265633 67.9023689,51.9734367 69.4644661,53.5355339 C71.0265633,55.0976311 74.9734367,53.6834175 76.5355339,52.1213203 Z" id="Oval-1110" fill="#FF7171" sketch:type="MSShapeGroup"></path>
                <path d="M64.1421245,78.7508347 C65.7989788,78.7508347 67.1421245,73.316378 67.1421245,71.6920111 C67.1421245,70.0676442 65.7989788,68.7508347 64.1421245,68.7508347 C62.4852703,68.7508347 61.1421245,70.0676442 61.1421245,71.6920111 C61.1421245,73.316378 62.4852703,78.7508347 64.1421245,78.7508347 Z M65.8119975,80.2508347 C66.6404246,81.6857125 72.018375,80.1316826 73.425118,79.3194991 C74.831861,78.5073157 75.3006787,76.6857125 74.4722515,75.2508347 C73.6438244,73.8159568 71.831861,73.3111632 70.425118,74.1233467 C69.018375,74.9355301 64.9835704,78.8159568 65.8119975,80.2508347 Z M62.4722515,80.2508347 C63.3006787,78.8159568 59.2658741,74.9355301 57.859131,74.1233467 C56.452388,73.3111632 54.6404246,73.8159568 53.8119975,75.2508347 C52.9835704,76.6857125 53.452388,78.5073157 54.859131,79.3194991 C56.2658741,80.1316826 61.6438244,81.6857125 62.4722515,80.2508347 Z" id="Oval-1111-Copy-11" fill="#FF7171" sketch:type="MSShapeGroup"></path>
                <path d="M64.1429128,89 C68.1367795,89 70.1640517,86.0075293 68.6611169,82.2918142 L66.856244,77.8296157 C65.3577126,74.124787 62.9325164,74.1139006 61.4295816,77.8296157 L59.6247088,82.2918142 C58.1261774,85.9966429 60.1571729,89 64.1429128,89 L64.1429128,89 Z" id="Path-14-Copy-36" fill="#000000" sketch:type="MSShapeGroup"></path>
            </g>
        </g>
    </g>
</svg>