<?xml version="1.0" encoding="UTF-8" standalone="no"?>
<svg width="130px" height="130px" viewBox="0 0 130 130" version="1.1" xmlns="http://www.w3.org/2000/svg" xmlns:xlink="http://www.w3.org/1999/xlink" xmlns:sketch="http://www.bohemiancoding.com/sketch/ns">
    <!-- Generator: Sketch 3.3.3 (12081) - http://www.bohemiancoding.com/sketch -->
    <title></title>
    <desc>Created with Sketch.</desc>
    <defs>
        <circle id="path-1" cx="36" cy="36" r="36"></circle>
    </defs>
    <g id="Personajes" stroke="none" stroke-width="1" fill="none" fill-rule="evenodd" sketch:type="MSPage">
        <g id="Halloween" sketch:type="MSArtboardGroup" transform="translate(-127.000000, -255.000000)">
            <g id="Skull-Decorated-01" sketch:type="MSLayerGroup" transform="translate(128.000000, 256.000000)">
                <path d="M79.404913,90 L83.0090386,90 C89.6333381,90 95,84.6245171 95,77.993523 L95,59.006477 C95,52.3807213 89.6314637,47 83.0090386,47 L44.9909614,47 C38.3666619,47 33,52.3754829 33,59.006477 L33,77.993523 C33,84.6192787 38.3685363,90 44.9909614,90 L48.595087,90 L47.9482162,96.1545646 C47.5439501,100.000899 50.3329166,103.447985 54.1777315,103.852091 C54.8683527,103.924678 55.5465162,103.893805 56.1966905,103.77193 C57.0025738,107.334655 60.1903014,110 64,110 C67.8021903,110 70.9956999,107.337702 71.8030235,103.772645 C72.4529536,103.894103 73.131147,103.924731 73.8222685,103.852091 C77.65926,103.448807 80.4561324,100.001685 80.0517838,96.1545646 L79.404913,90 Z" id="Rectangle-891" fill="#FEFFE9" sketch:type="MSShapeGroup"></path>
                <g id="Rectangle-1124" transform="translate(28.000000, 20.000000)">
                    <mask id="mask-2" sketch:name="Mask" fill="white">
                        <use xlink:href="#path-1"></use>
                    </mask>
                    <use id="Mask" fill="#FEFFE9" sketch:type="MSShapeGroup" xlink:href="#path-1"></use>
                    <circle id="Oval-1102" fill="#FFAB3A" sketch:type="MSShapeGroup" mask="url(#mask-2)" cx="2.5" cy="19.5" r="7.5"></circle>
                    <circle id="Oval-1102-Copy" fill="#FFAB3A" sketch:type="MSShapeGroup" mask="url(#mask-2)" cx="69.5" cy="19.5" r="7.5"></circle>
                    <circle id="Oval-1102-Copy-2" fill="#FFAB3A" sketch:type="MSShapeGroup" mask="url(#mask-2)" cx="36" cy="-1" r="7"></circle>
                    <path d="M49,9.71428571 C51.209139,9.71428571 53,2.209139 53,0 C53,-2.209139 51.209139,-4 49,-4 C46.790861,-4 45,-2.209139 45,0 C45,2.209139 46.790861,9.71428571 49,9.71428571 Z" id="Oval-1105-Copy-6" fill="#50E3C2" sketch:type="MSShapeGroup" mask="url(#mask-2)">
                        <g transform="translate(49.000000, 2.857143) rotate(-332.000000) translate(-49.000000, -2.857143) "></g>
                    </path>
                    <path d="M23,9.71428571 C25.209139,9.71428571 27,2.209139 27,0 C27,-2.209139 25.209139,-4 23,-4 C20.790861,-4 19,-2.209139 19,0 C19,2.209139 20.790861,9.71428571 23,9.71428571 Z" id="Oval-1105-Copy-5" fill="#50E3C2" sketch:type="MSShapeGroup" mask="url(#mask-2)">
                        <g transform="translate(23.000000, 2.857143) rotate(-29.000000) translate(-23.000000, -2.857143) "></g>
                    </path>
                    <path d="M61.3765086,39.631902 C61.9482759,41.7657664 69.6611998,41.5531304 71.7950643,40.9813632 C73.9289287,40.4095959 75.1952586,38.2162481 74.6234914,36.0823837 C74.0517241,33.9485193 71.8583763,32.6821893 69.7245119,33.2539566 C67.5906475,33.8257238 60.8047414,37.4980376 61.3765086,39.631902 Z M10.6234914,39.631902 C11.1952586,37.4980376 4.40935252,33.8257238 2.27548811,33.2539566 C0.141623692,32.6821893 -2.05172413,33.9485193 -2.62349138,36.0823837 C-3.19525863,38.2162481 -1.92892867,40.4095959 0.204935744,40.9813632 C2.33880016,41.5531304 10.0517241,41.7657664 10.6234914,39.631902 Z" id="Oval-1105-Copy-7" fill="#50E3C2" sketch:type="MSShapeGroup" mask="url(#mask-2)"></path>
                </g>
                <path d="M64,59 C68.9705627,59 73,42.5824916 73,37.75 C73,32.9175084 68.9705627,29 64,29 C59.0294373,29 55,32.9175084 55,37.75 C55,42.5824916 59.0294373,59 64,59 Z" id="Oval-1105" fill="#50E3C2" sketch:type="MSShapeGroup"></path>
                <path d="M77,69 C80.8659932,69 84,55.8659932 84,52 C84,48.1340068 80.8659932,45 77,45 C73.1340068,45 70,48.1340068 70,52 C70,55.8659932 73.1340068,69 77,69 Z" id="Oval-1105-Copy-2" fill="#50E3C2" sketch:type="MSShapeGroup" transform="translate(77.000000, 57.000000) rotate(-315.000000) translate(-77.000000, -57.000000) "></path>
                <path d="M51,69 C54.8659932,69 58,55.8659932 58,52 C58,48.1340068 54.8659932,45 51,45 C47.1340068,45 44,48.1340068 44,52 C44,55.8659932 47.1340068,69 51,69 Z" id="Oval-1105-Copy" fill="#50E3C2" sketch:type="MSShapeGroup" transform="translate(51.000000, 57.000000) rotate(-45.000000) translate(-51.000000, -57.000000) "></path>
                <path d="M80,45.7142857 C82.209139,45.7142857 84,38.209139 84,36 C84,33.790861 82.209139,32 80,32 C77.790861,32 76,33.790861 76,36 C76,38.209139 77.790861,45.7142857 80,45.7142857 Z" id="Oval-1105-Copy-4" fill="#50E3C2" sketch:type="MSShapeGroup" transform="translate(80.000000, 38.857143) rotate(-322.000000) translate(-80.000000, -38.857143) "></path>
                <path d="M48,45.7142857 C50.209139,45.7142857 52,38.209139 52,36 C52,33.790861 50.209139,32 48,32 C45.790861,32 44,33.790861 44,36 C44,38.209139 45.790861,45.7142857 48,45.7142857 Z" id="Oval-1105-Copy-8" fill="#50E3C2" sketch:type="MSShapeGroup" transform="translate(48.000000, 38.857143) rotate(322.000000) translate(-48.000000, -38.857143) "></path>
                <g id="Path-14-Copy-34-+-Path-14-Copy-35-+-Path-14-Copy-36" transform="translate(37.000000, 66.000000)" fill="#000000" sketch:type="MSShapeGroup">
                    <circle id="Oval-1104-Copy-2" stroke="#FFAB3A" stroke-width="3" cx="5" cy="5" r="5"></circle>
                    <circle id="Oval-1104-Copy" stroke="#FFAB3A" stroke-width="3" cx="49" cy="5" r="5"></circle>
                    <path d="M27.1429128,23 C31.1367795,23 33.1640517,20.0075293 31.6611169,16.2918142 L29.856244,11.8296157 C28.3577126,8.124787 25.9325164,8.11390057 24.4295816,11.8296157 L22.6247088,16.2918142 C21.1261774,19.9966429 23.1571729,23 27.1429128,23 L27.1429128,23 Z" id="Path-14-Copy-36"></path>
                </g>
            </g>
        </g>
    </g>
</svg>