<?xml version="1.0" encoding="UTF-8" standalone="no"?>
<svg width="130px" height="130px" viewBox="0 0 130 130" version="1.1" xmlns="http://www.w3.org/2000/svg" xmlns:xlink="http://www.w3.org/1999/xlink" xmlns:sketch="http://www.bohemiancoding.com/sketch/ns">
    <!-- Generator: Sketch 3.3.3 (12081) - http://www.bohemiancoding.com/sketch -->
    <title></title>
    <desc>Created with Sketch.</desc>
    <defs>
        <circle id="path-1" cx="36" cy="36" r="36"></circle>
        <rect id="path-3" x="0" y="0" width="62" height="37" rx="12"></rect>
    </defs>
    <g id="Personajes" stroke="none" stroke-width="1" fill="none" fill-rule="evenodd" sketch:type="MSPage">
        <g id="Halloween" sketch:type="MSArtboardGroup" transform="translate(-383.000000, -255.000000)">
            <g id="Skull-Decorated-03" sketch:type="MSLayerGroup" transform="translate(384.000000, 256.000000)">
                <g id="Group-Copy-12" transform="translate(28.000000, 20.000000)">
                    <mask id="mask-2" sketch:name="Mask" fill="white">
                        <use xlink:href="#path-1"></use>
                    </mask>
                    <use id="Mask" fill="#FEFFE9" sketch:type="MSShapeGroup" xlink:href="#path-1"></use>
                    <ellipse id="Oval-1134" fill="#AB2323" sketch:type="MSShapeGroup" mask="url(#mask-2)" cx="36" cy="-1" rx="12" ry="11"></ellipse>
                    <path d="M61.3765086,33.631902 C61.9482759,35.7657664 69.6611998,35.5531304 71.7950643,34.9813632 C73.9289287,34.4095959 75.1952586,32.2162481 74.6234914,30.0823837 C74.0517241,27.9485193 71.8583763,26.6821893 69.7245119,27.2539566 C67.5906475,27.8257238 60.8047414,31.4980376 61.3765086,33.631902 Z M10.6234914,33.631902 C11.1952586,31.4980376 4.40935252,27.8257238 2.27548811,27.2539566 C0.141623692,26.6821893 -2.05172413,27.9485193 -2.62349138,30.0823837 C-3.19525863,32.2162481 -1.92892867,34.4095959 0.204935744,34.9813632 C2.33880016,35.5531304 10.0517241,35.7657664 10.6234914,33.631902 Z M61.3829574,25.7902384 C62.6500675,27.5998591 69.8251194,24.7620713 71.6347402,23.4949612 C73.4443609,22.2278511 73.8841527,19.733668 72.6170426,17.9240473 C71.3499325,16.1144266 68.8557494,15.6746348 67.0461287,16.9417449 C65.2365079,18.2088549 60.1158473,23.9806177 61.3829574,25.7902384 Z M10.6170426,25.7902384 C11.8841527,23.9806177 6.76349206,18.2088549 4.95387133,16.9417449 C3.14425061,15.6746348 0.650067485,16.1144266 -0.617042589,17.9240473 C-1.88415266,19.733668 -1.44436088,22.2278511 0.365259842,23.4949612 C2.17488057,24.7620713 9.34993251,27.5998591 10.6170426,25.7902384 Z M60.0669044,17.4741854 C61.8765252,18.7412955 67.6482879,13.6206349 68.915398,11.8110142 C70.1825081,10.0013935 69.7427163,7.50721034 67.9330956,6.24010027 C66.1234748,4.97299019 63.6292917,5.41278197 62.3621816,7.2224027 C61.0950716,9.03202343 58.2572837,16.2070754 60.0669044,17.4741854 Z M11.9330956,17.4741854 C13.7427163,16.2070754 10.9049284,9.03202343 9.63781836,7.2224027 C8.37070828,5.41278197 5.87652516,4.97299019 4.06690444,6.24010027 C2.25728371,7.50721034 1.81749193,10.0013935 3.084602,11.8110142 C4.35171208,13.6206349 10.1234748,18.7412955 11.9330956,17.4741854 Z" id="Oval-1105-Copy-10" fill="#AB2323" sketch:type="MSShapeGroup" mask="url(#mask-2)"></path>
                </g>
                <path d="M71.8031279,103.772184 C70.9959751,107.337473 67.8023541,110 64,110 C60.1904744,110 57.0028634,107.334897 56.1968003,103.772416 C55.5466113,103.89398 54.8684108,103.924684 54.1777315,103.852091 C50.3329166,103.447985 47.5430327,100.009628 47.9469093,96.1669985 L50.5863516,71.0543825 C50.90759,67.9980031 53.1596577,65.610221 56,64.9660831 L56,64.9660831 L56,63.9969413 C56,59.5803526 59.5907123,56 64,56 C67.8789226,56 71.1130657,58.7630865 71.8448696,62.4231569 C74.6344105,63.106943 76.8277133,65.4795825 77.1443096,68.491795 L80.0522706,96.1591956 C80.4563504,100.003758 77.65926,103.448807 73.8222685,103.852091 C73.1312023,103.924725 72.4530399,103.893898 71.8031279,103.772184 Z" id="Rectangle-891-Copy-2" fill="#AB2323" sketch:type="MSShapeGroup"></path>
                <g id="Oval-1110-Copy-7" transform="translate(33.000000, 53.000000)">
                    <mask id="mask-4" sketch:name="Mask" fill="white">
                        <use xlink:href="#path-3"></use>
                    </mask>
                    <use id="Mask" fill="#FEFFE9" sketch:type="MSShapeGroup" xlink:href="#path-3"></use>
                    <ellipse fill="#AB2323" sketch:type="MSShapeGroup" mask="url(#mask-4)" cx="31" cy="40.5" rx="22" ry="15.5"></ellipse>
                </g>
                <path d="M42,68 C43.6568542,68 45,62.5655434 45,60.9411765 C45,59.3168096 43.6568542,58 42,58 C40.3431458,58 39,59.3168096 39,60.9411765 C39,62.5655434 40.3431458,68 42,68 Z M43.669873,69.5 C44.4983001,70.9348779 49.8762505,69.3808479 51.2829935,68.5686644 C52.6897365,67.756481 53.1585541,65.9348779 52.330127,64.5 C51.5016999,63.0651221 49.6897365,62.5603286 48.2829935,63.372512 C46.8762505,64.1846955 42.8414459,68.0651221 43.669873,69.5 Z M40.330127,69.5 C41.1585541,68.0651221 37.1237495,64.1846955 35.7170065,63.372512 C34.3102635,62.5603286 32.4983001,63.0651221 31.669873,64.5 C30.8414459,65.9348779 31.3102635,67.756481 32.7170065,68.5686644 C34.1237495,69.3808479 39.5016999,70.9348779 40.330127,69.5 Z" id="Oval-1111-Copy-7" fill="#8DE032" sketch:type="MSShapeGroup"></path>
                <path d="M86,68 C87.6568542,68 89,62.5655434 89,60.9411765 C89,59.3168096 87.6568542,58 86,58 C84.3431458,58 83,59.3168096 83,60.9411765 C83,62.5655434 84.3431458,68 86,68 Z M87.669873,69.5 C88.4983001,70.9348779 93.8762505,69.3808479 95.2829935,68.5686644 C96.6897365,67.756481 97.1585541,65.9348779 96.330127,64.5 C95.5016999,63.0651221 93.6897365,62.5603286 92.2829935,63.372512 C90.8762505,64.1846955 86.8414459,68.0651221 87.669873,69.5 Z M84.330127,69.5 C85.1585541,68.0651221 81.1237495,64.1846955 79.7170065,63.372512 C78.3102635,62.5603286 76.4983001,63.0651221 75.669873,64.5 C74.8414459,65.9348779 75.3102635,67.756481 76.7170065,68.5686644 C78.1237495,69.3808479 83.5016999,70.9348779 84.330127,69.5 Z" id="Oval-1111-Copy-10" fill="#8DE032" sketch:type="MSShapeGroup"></path>
                <g id="Oval-1111-Copy-13-+-Oval-1111-Copy-14-+-Oval-1111-Copy-15-+-Oval-1111-Copy-16-+-Oval-1111-Copy-14-+-Oval-1111-Copy-15-+-Oval-1111-Copy-16-Copy" transform="translate(46.000000, 35.000000)" fill="#8DE032" sketch:type="MSShapeGroup">
                    <path d="M18,10 C19.6568542,10 21,4.56554338 21,2.94117647 C21,1.31680956 19.6568542,0 18,0 C16.3431458,0 15,1.31680956 15,2.94117647 C15,4.56554338 16.3431458,10 18,10 Z" id="Oval-1111-Copy-13"></path>
                    <g id="Oval-1111-Copy-14-+-Oval-1111-Copy-15-+-Oval-1111-Copy-16" transform="translate(0.000000, 1.000000)">
                        <path d="M11,11 C12.6568542,11 14,5.56554338 14,3.94117647 C14,2.31680956 12.6568542,1 11,1 C9.34314575,1 8,2.31680956 8,3.94117647 C8,5.56554338 9.34314575,11 11,11 Z" id="Oval-1111-Copy-14" transform="translate(11.000000, 6.000000) rotate(-30.000000) translate(-11.000000, -6.000000) "></path>
                        <path d="M10.330127,13.5 C11.1585541,12.0651221 7.12374953,8.18469548 5.71700652,7.37251202 C4.31026351,6.56032857 2.49830011,7.06512213 1.66987298,8.5 C0.841445856,9.93487787 1.31026351,11.756481 2.71700652,12.5686644 C4.12374953,13.3808479 9.50169989,14.9348779 10.330127,13.5 Z" id="Oval-1111-Copy-15"></path>
                        <path d="M10,18.5 C10,16.8431458 4.56554338,15.5 2.94117647,15.5 C1.31680956,15.5 2.85150083e-16,16.8431458 1.8369702e-16,18.5 C8.22439572e-17,20.1568542 1.31680956,21.5 2.94117647,21.5 C4.56554338,21.5 10,20.1568542 10,18.5 Z" id="Oval-1111-Copy-16"></path>
                    </g>
                    <g id="Oval-1111-Copy-14-+-Oval-1111-Copy-15-+-Oval-1111-Copy-16-Copy" transform="translate(27.500000, 12.000000) scale(-1, 1) translate(-27.500000, -12.000000) translate(19.000000, 1.000000)">
                        <path d="M11,11 C12.6568542,11 14,5.56554338 14,3.94117647 C14,2.31680956 12.6568542,1 11,1 C9.34314575,1 8,2.31680956 8,3.94117647 C8,5.56554338 9.34314575,11 11,11 Z" id="Oval-1111-Copy-14" transform="translate(11.000000, 6.000000) rotate(-30.000000) translate(-11.000000, -6.000000) "></path>
                        <path d="M10.330127,13.5 C11.1585541,12.0651221 7.12374953,8.18469548 5.71700652,7.37251202 C4.31026351,6.56032857 2.49830011,7.06512213 1.66987298,8.5 C0.841445856,9.93487787 1.31026351,11.756481 2.71700652,12.5686644 C4.12374953,13.3808479 9.50169989,14.9348779 10.330127,13.5 Z" id="Oval-1111-Copy-15"></path>
                        <path d="M10,18.5 C10,16.8431458 4.56554338,15.5 2.94117647,15.5 C1.31680956,15.5 2.85150083e-16,16.8431458 1.8369702e-16,18.5 C8.22439572e-17,20.1568542 1.31680956,21.5 2.94117647,21.5 C4.56554338,21.5 10,20.1568542 10,18.5 Z" id="Oval-1111-Copy-16"></path>
                    </g>
                </g>
                <circle id="Oval-1111-Copy-4" fill="#8DE032" sketch:type="MSShapeGroup" cx="42" cy="77" r="5"></circle>
                <circle id="Oval-1111-Copy-3" fill="#8DE032" sketch:type="MSShapeGroup" cx="86" cy="77" r="5"></circle>
                <circle id="Oval-1111-Copy-22" fill="#8DE032" sketch:type="MSShapeGroup" cx="55" cy="61" r="3"></circle>
                <circle id="Oval-1111-Copy-21" fill="#8DE032" sketch:type="MSShapeGroup" cx="73" cy="61" r="3"></circle>
                <circle id="Oval-1104-Copy-4" fill="#000000" sketch:type="MSShapeGroup" cx="42" cy="71" r="5"></circle>
                <circle id="Oval-1104-Copy-3" fill="#000000" sketch:type="MSShapeGroup" cx="86" cy="71" r="5"></circle>
                <g id="Path-14-Copy-34-+-Path-14-Copy-35-+-Path-14-Copy-36" transform="translate(33.000000, 59.000000)" stroke="#AB2323" stroke-width="3" fill="#000000" sketch:type="MSShapeGroup">
                    <path d="M31.1429128,30 C35.1367795,30 37.1640517,27.0075293 35.6611169,23.2918142 L33.856244,18.8296157 C32.3577126,15.124787 29.9325164,15.1139006 28.4295816,18.8296157 L26.6247088,23.2918142 C25.1261774,26.9966429 27.1571729,30 31.1429128,30 L31.1429128,30 Z" id="Path-14-Copy-36"></path>
                </g>
            </g>
        </g>
    </g>
</svg>