<?xml version="1.0" encoding="UTF-8" standalone="no"?>
<svg width="130px" height="130px" viewBox="0 0 130 130" version="1.1" xmlns="http://www.w3.org/2000/svg" xmlns:xlink="http://www.w3.org/1999/xlink" xmlns:sketch="http://www.bohemiancoding.com/sketch/ns">
    <!-- Generator: Sketch 3.3.3 (12081) - http://www.bohemiancoding.com/sketch -->
    <title></title>
    <desc>Created with Sketch.</desc>
    <defs></defs>
    <g id="Personajes" stroke="none" stroke-width="1" fill="none" fill-rule="evenodd" sketch:type="MSPage">
        <g id="Halloween" sketch:type="MSArtboardGroup" transform="translate(-255.000000, 1.000000)">
            <g id="Zombie-Hand" sketch:type="MSLayerGroup" transform="translate(256.000000, 0.000000)">
                <path d="M51,54 L77,54 L80,92 L46,92 L51,54 Z" id="Rectangle-5637" fill="#9BCA6A" sketch:type="MSShapeGroup"></path>
                <rect id="Rectangle-5638-Copy-3" fill="#9BCA6A" sketch:type="MSShapeGroup" x="62.6000004" y="22" width="10" height="48" rx="8"></rect>
                <rect id="Rectangle-5639" fill="#CC4B2B" sketch:type="MSShapeGroup" x="46" y="82" width="34" height="22" rx="10"></rect>
                <rect id="Rectangle-5639-Copy" fill="#FF5353" sketch:type="MSShapeGroup" x="52" y="88" width="22" height="14" rx="8"></rect>
                <rect id="Rectangle-5200-Copy-5" fill="#FEFFD4" sketch:type="MSShapeGroup" transform="translate(63.000000, 101.000000) scale(1, -1) translate(-63.000000, -101.000000) " x="58" y="92" width="10" height="18" rx="5"></rect>
                <path d="M71.1999512,25 C71.1999512,22.2385763 69.6329478,20 67.6999512,20 C65.7669545,20 64.1999512,22.2385763 64.1999512,25 C64.1999512,27.7614237 71.1999512,27.7614237 71.1999512,25 Z" id="Oval-1014" fill="#000000" sketch:type="MSShapeGroup"></path>
                <g id="Rectangle-5638-Copy-4-+-Oval-1014-Copy-3" transform="translate(78.500000, 52.000000) rotate(5.000000) translate(-78.500000, -52.000000) translate(70.000000, 26.000000)" sketch:type="MSShapeGroup">
                    <rect id="Rectangle-5638-Copy-4" fill="#9BCA6A" transform="translate(8.600000, 27.000000) rotate(8.000000) translate(-8.600000, -27.000000) " x="3.60000038" y="3" width="10" height="48" rx="8"></rect>
                    <path d="M15.6000004,6.07106781 C15.6000004,3.30964406 14.032997,1.07106781 12.1000004,1.07106781 C10.1670038,1.07106781 8.60000038,3.30964406 8.60000038,6.07106781 C8.60000038,8.83249156 15.6000004,8.83249156 15.6000004,6.07106781 Z" id="Oval-1014-Copy-3" fill="#000000" transform="translate(12.100000, 4.606602) rotate(9.000000) translate(-12.100000, -4.606602) "></path>
                </g>
                <g id="Rectangle-5638-+-Oval-1014-Copy-4" transform="translate(87.824508, 63.290857) rotate(10.000000) translate(-87.824508, -63.290857) translate(72.324508, 48.290857)" sketch:type="MSShapeGroup">
                    <rect id="Rectangle-5638" fill="#9BCA6A" transform="translate(15.431728, 14.610913) rotate(-45.000000) translate(-15.431728, -14.610913) " x="1.41629515" y="8.21680002" width="28.0308661" height="12.7882254" rx="8"></rect>
                    <path d="M28.8450189,8.46446609 C28.8450189,5.70304235 27.2780155,3.46446609 25.3450189,3.46446609 C23.4120222,3.46446609 21.8450189,5.70304235 21.8450189,8.46446609 C21.8450189,11.2258898 28.8450189,11.2258898 28.8450189,8.46446609 Z" id="Oval-1014-Copy-4" fill="#000000" transform="translate(25.345019, 7.000000) rotate(44.000000) translate(-25.345019, -7.000000) "></path>
                </g>
                <g id="Rectangle-5638-Copy-2-+-Oval-1014-Copy" transform="translate(46.300049, 21.000000)" sketch:type="MSShapeGroup">
                    <rect id="Rectangle-5638-Copy-2" fill="#9BCA6A" transform="translate(8.600000, 27.000000) rotate(-8.000000) translate(-8.600000, -27.000000) " x="3.60000038" y="3" width="10" height="48" rx="8"></rect>
                    <path d="M8.86081498,6 C8.86081498,3.23857625 7.29381161,1 5.36081498,1 C3.42781836,1 1.86081498,3.23857625 1.86081498,6 C1.86081498,8.76142375 8.86081498,8.76142375 8.86081498,6 Z" id="Oval-1014-Copy" fill="#000000" transform="translate(5.360815, 4.535534) rotate(-10.000000) translate(-5.360815, -4.535534) "></path>
                </g>
                <g id="Rectangle-5638-Copy-+-Oval-1014-Copy-2" transform="translate(43.278772, 50.000000) rotate(-3.000000) translate(-43.278772, -50.000000) translate(35.278772, 33.000000)" sketch:type="MSShapeGroup">
                    <rect id="Rectangle-5638-Copy" fill="#9BCA6A" transform="translate(7.973721, 18.043794) rotate(-8.000000) translate(-7.973721, -18.043794) " x="2.97372143" y="3.04379369" width="10" height="30" rx="8"></rect>
                    <path d="M9.10000038,5.95837325 C9.10000038,3.1969495 7.53299701,0.958373249 5.60000038,0.958373249 C3.66700376,0.958373249 2.10000038,3.1969495 2.10000038,5.95837325 C2.10000038,8.719797 9.10000038,8.719797 9.10000038,5.95837325 Z" id="Oval-1014-Copy-2" fill="#000000" transform="translate(5.600000, 4.493907) rotate(-13.000000) translate(-5.600000, -4.493907) "></path>
                </g>
                <path d="M58.8203752,75 C66.8525059,75 77.9999985,82.0000006 82.9999985,76.0000006 C87.9999985,70.0000006 85.2084474,70.0359234 78.9999985,61.0000006 C72.7915497,51.9640779 87.2709418,43.6553294 65.9023784,42.7810567 C43.8047566,41.8769552 39.4129718,56.0138686 40.7064859,63.2466806 C42,70.4794926 48.8163504,75 58.8203752,75 Z" id="Oval-1043" fill="#9BCA6A" sketch:type="MSShapeGroup"></path>
            </g>
        </g>
    </g>
</svg>