<?xml version="1.0" encoding="UTF-8" standalone="no"?>
<svg width="130px" height="130px" viewBox="0 0 130 130" version="1.1" xmlns="http://www.w3.org/2000/svg" xmlns:xlink="http://www.w3.org/1999/xlink" xmlns:sketch="http://www.bohemiancoding.com/sketch/ns">
    <!-- Generator: Sketch 3.3.3 (12081) - http://www.bohemiancoding.com/sketch -->
    <title></title>
    <desc>Created with Sketch.</desc>
    <defs></defs>
    <g id="Tileset" stroke="none" stroke-width="1" fill="none" fill-rule="evenodd" sketch:type="MSPage">
        <g id="items" sketch:type="MSArtboardGroup" transform="translate(-383.000000, -383.000000)">
            <g id="Items-Orange" sketch:type="MSLayerGroup" transform="translate(384.000000, 384.000000)">
                <circle id="Oval-1112-Copy-4" fill="#F39C12" sketch:type="MSShapeGroup" cx="64" cy="70" r="30"></circle>
                <g id="Oval-1161-+-Oval-1161-Copy-2" transform="translate(65.000000, 28.000000)" sketch:type="MSShapeGroup">
                    <path d="M37,12 C33.3967384,4.84428109 26.462614,0 18.5,0 C10.537386,0 3.60326163,4.84428109 1.24344979e-13,12 C3.60326163,19.1557189 10.537386,24 18.5,24 C26.462614,24 33.3967384,19.1557189 37,12 L37,12 Z" id="Oval-1161" fill="#8BB363"></path>
                    <path d="M18.5,0 C10.537386,0 3.60326163,4.84428109 0,12 C6.91015617,12 27.3628215,12 37,12 C33.3967384,4.84428109 26.462614,0 18.5,0 Z" id="Oval-1161-Copy-2" fill="#739B64"></path>
                </g>
            </g>
        </g>
    </g>
</svg>