<?xml version="1.0" encoding="UTF-8" standalone="no"?>
<svg width="128px" height="128px" viewBox="0 0 128 128" version="1.1" xmlns="http://www.w3.org/2000/svg" xmlns:xlink="http://www.w3.org/1999/xlink" xmlns:sketch="http://www.bohemiancoding.com/sketch/ns">
    <!-- Generator: Sketch 3.3.3 (12081) - http://www.bohemiancoding.com/sketch -->
    <title></title>
    <desc>Created with Sketch.</desc>
    <defs>
        <rect id="path-1" x="0" y="0" width="92" height="24"></rect>
    </defs>
    <g id="Tileset" stroke="none" stroke-width="1" fill="none" fill-rule="evenodd" sketch:type="MSPage">
        <g id="items" sketch:type="MSArtboardGroup" transform="translate(-128.000000, -384.000000)">
            <g id="Items-Chest-02" sketch:type="MSLayerGroup" transform="translate(128.000000, 384.000000)">
                <rect id="Rectangle-2987" sketch:type="MSShapeGroup" x="0" y="0" width="128" height="128"></rect>
                <rect id="Rectangle-2970" fill="#AD765F" sketch:type="MSShapeGroup" transform="translate(64.000000, 53.000000) scale(1, -1) translate(-64.000000, -53.000000) " x="18" y="48" width="92" height="10"></rect>
                <rect id="Rectangle-2970-Copy" fill="#AD765F" sketch:type="MSShapeGroup" x="18" y="92" width="92" height="36"></rect>
                <rect id="Rectangle-2971" fill="#FFCF62" sketch:type="MSShapeGroup" x="18" y="56" width="92" height="10"></rect>
                <rect id="Rectangle-2971-Copy-4" fill="#FFCF62" sketch:type="MSShapeGroup" x="18" y="90" width="92" height="10"></rect>
                <rect id="Rectangle-2971-Copy-6" fill="#FFCF62" sketch:type="MSShapeGroup" x="18" y="118" width="92" height="10"></rect>
                <rect id="Rectangle-2999" fill="#FFCF62" sketch:type="MSShapeGroup" x="100" y="43" width="10" height="85" rx="3"></rect>
                <rect id="Rectangle-2999-Copy" fill="#FFCF62" sketch:type="MSShapeGroup" x="18" y="43" width="10" height="85" rx="3"></rect>
                <rect id="Rectangle-2970-Copy-3" fill="#C09D56" sketch:type="MSShapeGroup" transform="translate(64.000000, 78.000000) scale(1, -1) translate(-64.000000, -78.000000) " x="18" y="66" width="92" height="24"></rect>
                <rect id="Rectangle-2970-Copy-4" fill="#484141" sketch:type="MSShapeGroup" transform="translate(64.000000, 78.000000) scale(1, -1) translate(-64.000000, -78.000000) " x="24" y="66" width="80" height="24"></rect>
                <rect id="Rectangle-2976" fill="#C09D56" sketch:type="MSShapeGroup" x="18" y="64" width="92" height="6"></rect>
                <g id="Rectangle-3000-+-Rectangle-3000-Copy-Mask" transform="translate(17.000000, 66.000000)">
                    <mask id="mask-2" sketch:name="Mask" fill="white">
                        <use xlink:href="#path-1"></use>
                    </mask>
                    <use id="Mask" sketch:type="MSShapeGroup" xlink:href="#path-1"></use>
                    <rect id="Rectangle-3000-Copy-5" fill="#FFD600" sketch:type="MSShapeGroup" mask="url(#mask-2)" x="58" y="8" width="14" height="26" rx="10"></rect>
                    <rect id="Rectangle-3000-Copy-10" fill="#F0B800" sketch:type="MSShapeGroup" mask="url(#mask-2)" x="42" y="9" width="14" height="16" rx="10"></rect>
                    <rect id="Rectangle-3000-Copy-9" fill="#F0B800" sketch:type="MSShapeGroup" mask="url(#mask-2)" x="70" y="19" width="14" height="16" rx="22"></rect>
                    <rect id="Rectangle-3000-Copy-8" fill="#F0B800" sketch:type="MSShapeGroup" mask="url(#mask-2)" x="14" y="13" width="14" height="16" rx="22"></rect>
                    <rect id="Rectangle-3000" fill="#42A4C6" sketch:type="MSShapeGroup" mask="url(#mask-2)" x="63" y="14" width="14" height="22" rx="10"></rect>
                    <rect id="Rectangle-3000-Copy-7" fill="#43A4C6" sketch:type="MSShapeGroup" mask="url(#mask-2)" x="32" y="8" width="14" height="16" rx="22"></rect>
                    <rect id="Rectangle-3000-Copy" fill="#F95151" sketch:type="MSShapeGroup" mask="url(#mask-2)" x="47" y="13" width="14" height="22" rx="10"></rect>
                    <rect id="Rectangle-3000-Copy-2" fill="#68D379" sketch:type="MSShapeGroup" mask="url(#mask-2)" x="10" y="17" width="14" height="16" rx="22"></rect>
                    <rect id="Rectangle-3000-Copy-4" fill="#F0B800" sketch:type="MSShapeGroup" mask="url(#mask-2)" x="34" y="13" width="14" height="16" rx="10"></rect>
                    <rect id="Rectangle-3000-Copy-3" fill="#FFD600" sketch:type="MSShapeGroup" mask="url(#mask-2)" x="21" y="10" width="14" height="24" rx="10"></rect>
                    <rect id="Rectangle-3000-Copy-6" fill="#FFD600" sketch:type="MSShapeGroup" mask="url(#mask-2)" x="41" y="18" width="14" height="16" rx="10"></rect>
                </g>
            </g>
        </g>
    </g>
</svg>