<?xml version="1.0" encoding="UTF-8" standalone="no"?>
<svg width="129px" height="128px" viewBox="0 0 129 128" version="1.1" xmlns="http://www.w3.org/2000/svg" xmlns:xlink="http://www.w3.org/1999/xlink" xmlns:sketch="http://www.bohemiancoding.com/sketch/ns">
    <!-- Generator: Sketch 3.3.3 (12081) - http://www.bohemiancoding.com/sketch -->
    <title></title>
    <desc>Created with Sketch.</desc>
    <defs></defs>
    <g id="Tileset" stroke="none" stroke-width="1" fill="none" fill-rule="evenodd" sketch:type="MSPage">
        <g id="items" sketch:type="MSArtboardGroup" transform="translate(1.000000, -256.000000)">
            <g id="Objects-Switch-09" sketch:type="MSLayerGroup" transform="translate(-1.000000, 256.000000)">
                <rect id="Rectangle-4586" sketch:type="MSShapeGroup" transform="translate(65.000000, 64.000000) rotate(-90.000000) translate(-65.000000, -64.000000) " x="1" y="0" width="128" height="128"></rect>
                <rect id="Rectangle-4585" fill="#AD765F" sketch:type="MSShapeGroup" transform="translate(102.604380, 78.426758) rotate(-120.000000) translate(-102.604380, -78.426758) " x="98.6043799" y="50.4267578" width="8" height="56"></rect>
                <rect id="Rectangle-4584" fill="#B9906C" sketch:type="MSShapeGroup" transform="translate(73.159516, 95.426758) rotate(-120.000000) translate(-73.159516, -95.426758) " x="65.1595162" y="84.4267577" width="16" height="22" rx="3"></rect>
                <path d="M141.5,76.5 C141.5,62.692881 130.307119,51.5 116.5,51.5 C102.692881,51.5 91.5,62.692881 91.5,76.5 L141.5,76.5 L141.5,76.5 Z" id="Oval-434-Copy" fill="#B9906C" sketch:type="MSShapeGroup" transform="translate(116.500000, 64.000000) rotate(-90.000000) translate(-116.500000, -64.000000) "></path>
                <path d="M135.5,70.5 C135.5,63.320298 129.679702,57.5 122.5,57.5 C115.320298,57.5 109.5,63.320298 109.5,70.5 L135.5,70.5 L135.5,70.5 Z" id="Oval-434-Copy-2" fill="#AD765F" sketch:type="MSShapeGroup" transform="translate(122.500000, 64.000000) rotate(-90.000000) translate(-122.500000, -64.000000) "></path>
            </g>
        </g>
    </g>
</svg>