<?xml version="1.0" encoding="UTF-8" standalone="no"?>
<svg width="129px" height="129px" viewBox="0 0 129 129" version="1.1" xmlns="http://www.w3.org/2000/svg" xmlns:xlink="http://www.w3.org/1999/xlink" xmlns:sketch="http://www.bohemiancoding.com/sketch/ns">
    <!-- Generator: Sketch 3.3.3 (12081) - http://www.bohemiancoding.com/sketch -->
    <title></title>
    <desc>Created with Sketch.</desc>
    <defs></defs>
    <g id="Tileset" stroke="none" stroke-width="1" fill="none" fill-rule="evenodd" sketch:type="MSPage">
        <g id="items" sketch:type="MSArtboardGroup" transform="translate(-127.000000, -127.000000)">
            <g id="Objects-Switch-11" sketch:type="MSLayerGroup" transform="translate(192.000000, 192.000000) rotate(-90.000000) translate(-192.000000, -192.000000) translate(128.000000, 128.000000)">
                <g id="Group" transform="translate(64.000000, 64.000000) scale(1, -1) translate(-64.000000, -64.000000) " sketch:type="MSShapeGroup">
                    <rect id="Rectangle-4586" x="2.84217094e-14" y="2.84217094e-14" width="128" height="128"></rect>
                    <rect id="Rectangle-4585" fill="#AD765F" x="60" y="72" width="8" height="56"></rect>
                    <rect id="Rectangle-4584" fill="#B9906C" x="56" y="55" width="16" height="22" rx="3"></rect>
                    <path d="M89,128 C89,114.192881 77.8071187,103 64,103 C50.1928813,103 39,114.192881 39,128 L89,128 Z" id="Oval-434-Copy" fill="#B9906C"></path>
                    <path d="M77,128 C77,120.820298 71.1797017,115 64,115 C56.8202983,115 51,120.820298 51,128 L77,128 Z" id="Oval-434-Copy-2" fill="#AD765F"></path>
                </g>
            </g>
        </g>
    </g>
</svg>