<?xml version="1.0" encoding="UTF-8" standalone="no"?>
<svg width="129px" height="130px" viewBox="0 0 129 130" version="1.1" xmlns="http://www.w3.org/2000/svg" xmlns:xlink="http://www.w3.org/1999/xlink" xmlns:sketch="http://www.bohemiancoding.com/sketch/ns">
    <!-- Generator: Sketch 3.3.3 (12081) - http://www.bohemiancoding.com/sketch -->
    <title></title>
    <desc>Created with Sketch.</desc>
    <defs></defs>
    <g id="Tileset" stroke="none" stroke-width="1" fill="none" fill-rule="evenodd" sketch:type="MSPage">
        <g id="items" sketch:type="MSArtboardGroup" transform="translate(1.000000, 2.000000)">
            <g id="Objects-Switch-07" sketch:type="MSLayerGroup" transform="translate(63.500000, 63.500000) scale(1, -1) rotate(-90.000000) translate(-63.500000, -63.500000) translate(-0.500000, -0.500000)">
                <rect id="Rectangle-4586" sketch:type="MSShapeGroup" x="-3.91886976e-15" y="7.10542736e-15" width="128" height="128"></rect>
                <rect id="Rectangle-4585" fill="#AD765F" sketch:type="MSShapeGroup" transform="translate(49.573242, 101.604380) rotate(-30.000000) translate(-49.573242, -101.604380) " x="45.5732422" y="73.60438" width="8" height="56"></rect>
                <rect id="Rectangle-4584" fill="#B9906C" sketch:type="MSShapeGroup" transform="translate(32.573242, 72.159516) rotate(-30.000000) translate(-32.573242, -72.159516) " x="24.5732422" y="61.1595163" width="16" height="22" rx="3"></rect>
                <path d="M89,128 C89,114.192881 77.8071187,103 64,103 C50.1928813,103 39,114.192881 39,128 L89,128 Z" id="Oval-434-Copy" fill="#B9906C" sketch:type="MSShapeGroup"></path>
                <path d="M77,128 C77,120.820298 71.1797017,115 64,115 C56.8202983,115 51,120.820298 51,128 L77,128 Z" id="Oval-434-Copy-2" fill="#AD765F" sketch:type="MSShapeGroup"></path>
            </g>
        </g>
    </g>
</svg>