<?xml version="1.0" encoding="UTF-8" standalone="no"?>
<svg width="130px" height="130px" viewBox="0 0 130 130" version="1.1" xmlns="http://www.w3.org/2000/svg" xmlns:xlink="http://www.w3.org/1999/xlink" xmlns:sketch="http://www.bohemiancoding.com/sketch/ns">
    <!-- Generator: Sketch 3.3.3 (12081) - http://www.bohemiancoding.com/sketch -->
    <title></title>
    <desc>Created with Sketch.</desc>
    <defs></defs>
    <g id="Items" stroke="none" stroke-width="1" fill="none" fill-rule="evenodd" sketch:type="MSPage">
        <g sketch:type="MSArtboardGroup" transform="translate(-1151.000000, -767.000000)" id="Items-Armor-Helmet-A-02">
            <g sketch:type="MSLayerGroup" transform="translate(1152.000000, 768.000000)">
                <path d="M97.9870792,72 C97.5237653,53.9870577 84.6354546,32.9453182 65,30 C45.3645454,32.9453182 32.4762347,53.9870577 32.0129208,72 L32,72 L32,97.9998243 C32,101.313022 34.687507,104 38.002715,104 L91.997285,104 C95.3103631,104 98,101.31363 98,97.9998243 L98,72 L97.9870792,72 Z" id="Oval-1047" fill="#8DA1A3" sketch:type="MSShapeGroup"></path>
                <path d="M42,83.9975713 C42,80.6852041 44.6888556,78 47.9900994,78 L82.0099006,78 C85.3181411,78 88,80.6845286 88,83.9975713 L88,104 L65,104 L42,104 L42,83.9975713 Z" id="Path" fill="#5F7173" sketch:type="MSShapeGroup"></path>
                <path d="M42,84 C42,80.6862915 44.6888556,78 47.9900994,78 L82.0099006,78 C85.3181411,78 88,80.6930342 88,84 L88,90 L66,90 L42,90 L42,84 Z" id="Path-Copy-14" fill="#57686A" sketch:type="MSShapeGroup"></path>
                <rect id="Rectangle-908" fill="#8DA1A3" sketch:type="MSShapeGroup" x="58" y="70" width="14" height="30" rx="3"></rect>
            </g>
        </g>
    </g>
</svg>