<?xml version="1.0" encoding="UTF-8" standalone="no"?>
<svg width="130px" height="130px" viewBox="0 0 130 130" version="1.1" xmlns="http://www.w3.org/2000/svg" xmlns:xlink="http://www.w3.org/1999/xlink" xmlns:sketch="http://www.bohemiancoding.com/sketch/ns">
    <!-- Generator: Sketch 3.3.3 (12081) - http://www.bohemiancoding.com/sketch -->
    <title></title>
    <desc>Created with Sketch.</desc>
    <defs>
        <linearGradient x1="50%" y1="0%" x2="50%" y2="100%" id="linearGradient-1">
            <stop stop-color="#EDEAAA" offset="0%"></stop>
            <stop stop-color="#F3F5D9" offset="100%"></stop>
        </linearGradient>
    </defs>
    <g id="Items" stroke="none" stroke-width="1" fill="none" fill-rule="evenodd" sketch:type="MSPage">
        <g sketch:type="MSArtboardGroup" transform="translate(-255.000000, -895.000000)" id="Items-Fungus-01">
            <g sketch:type="MSLayerGroup" transform="translate(256.000000, 896.000000)">
                <rect id="Rectangle-1-Copy-32" fill="url(#linearGradient-1)" sketch:type="MSShapeGroup" x="52" y="73" width="24" height="26" rx="6"></rect>
                <rect id="Rectangle-1-Copy-31" fill="#DFDD97" sketch:type="MSShapeGroup" x="52" y="73" width="24" height="9"></rect>
                <g id="Oval-113-Copy-4-+-Oval-420" transform="translate(32.000000, 30.000000)" sketch:type="MSShapeGroup">
                    <path d="M32,46.1272019 C49.673112,46.1272019 64,49.5238821 64,31.9517594 C64,14.3796366 49.673112,0.134616504 32,0.134616504 C14.326888,0.134616504 0,14.3796366 0,31.9517594 C0,49.5238821 14.326888,46.1272019 32,46.1272019 Z" id="Oval-113-Copy-4" fill="#CC4B2B"></path>
                    <path d="M22.7277491,17.5543782 C26.1766772,16.6581353 28.3482845,13.6719906 27.57817,10.8846373 C26.8080554,8.09728397 23.3878456,6.56423606 19.9389176,7.46047894 C16.4899895,8.35672183 14.3183821,11.3428666 15.0884967,14.1302199 C15.8586113,16.9175732 19.2788211,18.4506211 22.7277491,17.5543782 Z M41.9946838,15.5733233 C45.5094789,16.1147568 48.6596404,14.7061935 49.0307663,12.4272092 C49.4018922,10.1482249 46.8534447,7.86182444 43.3386496,7.32039095 C39.8238544,6.77895746 36.6736929,8.18752074 36.302567,10.4665051 C35.9314411,12.7454894 38.4798886,15.0318898 41.9946838,15.5733233 Z M11.7333333,35.8339048 C14.0897483,35.8339048 16,33.4597347 16,30.5310476 C16,27.6023605 14.0897483,25.2281905 11.7333333,25.2281905 C9.3769184,25.2281905 7.46666667,27.6023605 7.46666667,30.5310476 C7.46666667,33.4597347 9.3769184,35.8339048 11.7333333,35.8339048 Z M56.1277228,35.8648283 C57.8565443,35.5884833 58.9620661,33.4785697 58.5969748,31.1522045 C58.2318836,28.8258392 56.534432,27.1639695 54.8056105,27.4403145 C53.0767891,27.7166596 51.9712673,29.8265732 52.3363585,32.1529384 C52.7014497,34.4793036 54.3989013,36.1411734 56.1277228,35.8648283 Z M36.2666667,39.0339048 C40.9794965,39.0339048 44.8,35.2352327 44.8,30.5493333 C44.8,25.8634339 40.9794965,22.0647619 36.2666667,22.0647619 C31.5538368,22.0647619 27.7333333,25.8634339 27.7333333,30.5493333 C27.7333333,35.2352327 31.5538368,39.0339048 36.2666667,39.0339048 Z" id="Oval-420" fill="#FFFFFF"></path>
                </g>
            </g>
        </g>
    </g>
</svg>