<?xml version="1.0" encoding="UTF-8" standalone="no"?>
<svg width="130px" height="130px" viewBox="0 0 130 130" version="1.1" xmlns="http://www.w3.org/2000/svg" xmlns:xlink="http://www.w3.org/1999/xlink" xmlns:sketch="http://www.bohemiancoding.com/sketch/ns">
    <!-- Generator: Sketch 3.3.3 (12081) - http://www.bohemiancoding.com/sketch -->
    <title></title>
    <desc>Created with Sketch.</desc>
    <defs></defs>
    <g id="Items" stroke="none" stroke-width="1" fill="none" fill-rule="evenodd" sketch:type="MSPage">
        <g sketch:type="MSArtboardGroup" transform="translate(-127.000000, -895.000000)" id="Items-Food-Steak">
            <g sketch:type="MSLayerGroup" transform="translate(128.000000, 896.000000)">
                <path d="M72,41 L72,60.9957423 C72,63.2072328 70.2126701,65 68.0068977,65 L61.9931023,65 C59.7877728,65 58,63.2109725 58,60.9957423 L58,41 C53.581722,41 50,37.4092877 50,33 C50,28.581722 53.5907123,25 58,25 C61.0118969,25 63.6350449,26.6686096 64.9998235,29.1276643 C66.3660179,26.666232 68.9926066,25 72,25 C76.418278,25 80,28.5907123 80,33 C80,37.418278 76.4092877,41 72,41 Z" id="Rectangle-5200-Copy-2" fill="#FEFFD4" sketch:type="MSShapeGroup"></path>
                <rect id="Rectangle-5261" fill="#CC4B2B" sketch:type="MSShapeGroup" x="40" y="44" width="50" height="58" rx="11"></rect>
                <rect id="Rectangle-5261-Copy" fill="#FF5353" sketch:type="MSShapeGroup" x="40" y="80" width="50" height="22" rx="11"></rect>
                <path d="M72,103 L72,113.998275 C72,117.865221 68.8581267,121 65,121 C61.1340068,121 58,117.863793 58,113.998275 L58,103 C53.581722,103 50,99.4092877 50,95 C50,90.581722 53.5907123,87 58,87 C61.0118969,87 63.6350449,88.6686096 64.9998235,91.1276643 C66.3660179,88.666232 68.9926066,87 72,87 C76.418278,87 80,90.5907123 80,95 C80,99.418278 76.4092877,103 72,103 Z" id="Rectangle-5200-Copy-5" fill="#FEFFD4" sketch:type="MSShapeGroup" transform="translate(65.000000, 104.000000) scale(1, -1) translate(-65.000000, -104.000000) "></path>
            </g>
        </g>
    </g>
</svg>