<?xml version="1.0" encoding="UTF-8" standalone="no"?>
<svg width="130px" height="130px" viewBox="0 0 130 130" version="1.1" xmlns="http://www.w3.org/2000/svg" xmlns:xlink="http://www.w3.org/1999/xlink" xmlns:sketch="http://www.bohemiancoding.com/sketch/ns">
    <!-- Generator: Sketch 3.3.3 (12081) - http://www.bohemiancoding.com/sketch -->
    <title></title>
    <desc>Created with Sketch.</desc>
    <defs></defs>
    <g id="Items" stroke="none" stroke-width="1" fill="none" fill-rule="evenodd" sketch:type="MSPage">
        <g sketch:type="MSArtboardGroup" transform="translate(-511.000000, -639.000000)" id="Items-Book-B">
            <g sketch:type="MSLayerGroup" transform="translate(512.000000, 640.000000)">
                <path d="M30,61 L30,38.0080183 C30,31.3761729 35.376551,26 41.993637,26 L89.0047655,26 C95.0772658,26 100,30.917747 100,37.0009512 L100,94 L30,94 L30,61 Z" id="Rectangle-5355" fill="#CC4B2B" sketch:type="MSShapeGroup"></path>
                <rect id="Rectangle-5358" fill="#FEFFD4" sketch:type="MSShapeGroup" x="94" y="76" width="6" height="14"></rect>
                <path d="M30,94 C30,88.4771525 34.4853006,84 39.9920972,84 L100,84 L100,99.0047466 C100,101.763549 97.7698803,104 94.9938646,104 L39.9920972,104 C34.4736143,104 30,99.5240618 30,94 L30,94 Z" id="Rectangle-5355-Copy" fill="#FEFFD4" sketch:type="MSShapeGroup"></path>
                <path d="M84,26 L95.0033142,26 C97.7629076,26 100,28.2415785 100,30.9966858 L100,42 L84,26 Z" id="Rectangle-5335-Copy-4" fill="#FFCF62" sketch:type="MSShapeGroup"></path>
                <path d="M84,68 L95.0033142,68 C97.7629076,68 100,70.2415785 100,72.9966858 L100,84 L84,68 Z" id="Rectangle-5335-Copy-5" fill="#FFCF62" sketch:type="MSShapeGroup" transform="translate(92.000000, 76.000000) scale(1, -1) translate(-92.000000, -76.000000) "></path>
                <path d="M42,94 L52,94 L52,108 L47,105.2 L42,108 L42,94 Z" id="Rectangle-5276-Copy-2" fill="#CC4B2B" sketch:type="MSShapeGroup"></path>
            </g>
        </g>
    </g>
</svg>