<?xml version="1.0" encoding="UTF-8" standalone="no"?>
<svg width="128px" height="128px" viewBox="0 0 128 128" version="1.1" xmlns="http://www.w3.org/2000/svg" xmlns:xlink="http://www.w3.org/1999/xlink" xmlns:sketch="http://www.bohemiancoding.com/sketch/ns">
    <!-- Generator: Sketch 3.3.3 (12081) - http://www.bohemiancoding.com/sketch -->
    <title></title>
    <desc>Created with Sketch.</desc>
    <defs></defs>
    <g id="Items" stroke="none" stroke-width="1" fill="none" fill-rule="evenodd" sketch:type="MSPage">
        <g sketch:type="MSArtboardGroup" transform="translate(-128.000000, -512.000000)" id="Items-Crystal-A-02">
            <g sketch:type="MSLayerGroup" transform="translate(128.000000, 512.000000)">
                <rect id="Rectangle-3298-Copy-2" sketch:type="MSShapeGroup" x="0" y="0" width="128" height="128"></rect>
                <g id="Rectangle-2981-+-Rectangle-2982-+-Rectangle-2982-Copy" transform="translate(34.000000, 18.000000)" sketch:type="MSShapeGroup">
                    <rect id="Rectangle-2981" fill="#CFFF76" x="0" y="16" width="31" height="60"></rect>
                    <path d="M31,0 L31,20 L0,16 L31,0 Z" id="Rectangle-2982" fill="#E9FFBF"></path>
                    <path d="M31,72 L31,92 L0,88 L31,72 Z" id="Rectangle-2982-Copy" fill="#B3F570" transform="translate(15.500000, 82.000000) scale(1, -1) translate(-15.500000, -82.000000) "></path>
                </g>
                <g id="Rectangle-2981-+-Rectangle-2982-+-Rectangle-2982-Copy" transform="translate(65.000000, 18.000000)" sketch:type="MSShapeGroup">
                    <rect id="Rectangle-2981" fill="#B3F570" transform="translate(15.500000, 46.000000) scale(-1, 1) translate(-15.500000, -46.000000) " x="0" y="16" width="31" height="60"></rect>
                    <path d="M31,0 L31,20 L0,16 L31,0 Z" id="Rectangle-2982" fill="#CFFF76" transform="translate(15.500000, 10.000000) scale(-1, 1) translate(-15.500000, -10.000000) "></path>
                    <path d="M31,72 L31,92 L0,88 L31,72 Z" id="Rectangle-2982-Copy" fill="#9CE881" transform="translate(15.500000, 82.000000) scale(-1, -1) translate(-15.500000, -82.000000) "></path>
                </g>
            </g>
        </g>
    </g>
</svg>