<?xml version="1.0" encoding="UTF-8" standalone="no"?>
<svg width="130px" height="130px" viewBox="0 0 130 130" version="1.1" xmlns="http://www.w3.org/2000/svg" xmlns:xlink="http://www.w3.org/1999/xlink" xmlns:sketch="http://www.bohemiancoding.com/sketch/ns">
    <!-- Generator: Sketch 3.3.3 (12081) - http://www.bohemiancoding.com/sketch -->
    <title></title>
    <desc>Created with Sketch.</desc>
    <defs></defs>
    <g id="Items" stroke="none" stroke-width="1" fill="none" fill-rule="evenodd" sketch:type="MSPage">
        <g sketch:type="MSArtboardGroup" transform="translate(-1023.000000, -1279.000000)" id="Items-Armor-Helmet-04">
            <g sketch:type="MSLayerGroup" transform="translate(1024.000000, 1280.000000)">
                <rect id="Rectangle-5530" fill="#8BB363" sketch:type="MSShapeGroup" x="34" y="40" width="60" height="47" rx="24"></rect>
                <path d="M28,57.9987384 C28,53.5811572 31.0538102,51.8662173 34.8242424,54.1703704 L50.3514479,63.6592182 C57.8893351,68.2657048 64,79.1561762 64,88.0036298 L64,100 L35.8114638,93.7358809 C31.4973115,92.7771803 28,88.4191036 28,84.0012616 L28,57.9987384 Z" id="Rectangle-673" fill="#9BCA6A" sketch:type="MSShapeGroup"></path>
                <path d="M64,89.0026833 C64,80.1669018 70.0357338,69.1479223 77.4818757,64.390665 L93.2603573,54.3099685 C96.9825592,51.931895 100,53.584982 100,58.0028241 L100,84.0053473 C100,88.4229285 96.4990557,92.7820733 92.1885362,93.7399666 L64,100.004086 L64,89.0026833 Z" id="Rectangle-673-Copy" fill="#9BCA6A" sketch:type="MSShapeGroup"></path>
            </g>
        </g>
    </g>
</svg>