<?xml version="1.0" encoding="UTF-8" standalone="no"?>
<svg width="130px" height="130px" viewBox="0 0 130 130" version="1.1" xmlns="http://www.w3.org/2000/svg" xmlns:xlink="http://www.w3.org/1999/xlink" xmlns:sketch="http://www.bohemiancoding.com/sketch/ns">
    <!-- Generator: Sketch 3.3.3 (12081) - http://www.bohemiancoding.com/sketch -->
    <title></title>
    <desc>Created with Sketch.</desc>
    <defs></defs>
    <g id="Items" stroke="none" stroke-width="1" fill="none" fill-rule="evenodd" sketch:type="MSPage">
        <g sketch:type="MSArtboardGroup" transform="translate(-639.000000, -1023.000000)" id="Items-Lamp-B" fill="#FFCF62">
            <g sketch:type="MSLayerGroup" transform="translate(640.000000, 1024.000000)">
                <rect id="Rectangle-707-Copy" sketch:type="MSShapeGroup" x="50" y="88" width="38" height="10" rx="5"></rect>
                <path d="M23.3653207,56.7681326 C19.2975664,53.0301962 20.4704103,50 25.9942643,50 L92,50 L92,74.0056985 C92,79.5253988 87.5262041,84 82.0071751,84 L62.9928249,84 C57.4739401,84 49.7002326,80.9677813 45.6346793,77.2318674 L23.3653207,56.7681326 Z" id="Rectangle-943" sketch:type="MSShapeGroup"></path>
                <path d="M92,53.9999892 L92,53.9999892 L92,64.0000108 C92,66.210297 93.7899568,68 95.9999892,68 L106.000011,68 C108.210297,68 110,66.2100432 110,64.0000108 L110,53.9999892 C110,51.789703 108.210043,50 106.000011,50 L95.9999892,50 C93.789703,50 92,51.7899568 92,53.9999892 L92,53.9999892 Z M86,53.9999892 C86,48.4771477 90.4750951,44 95.9999892,44 L106.000011,44 C111.522852,44 116,48.4750951 116,53.9999892 L116,64.0000108 C116,69.5228523 111.524905,74 106.000011,74 L95.9999892,74 C90.4771477,74 86,69.5249049 86,64.0000108 L86,53.9999892 L86,53.9999892 Z" id="Shape" sketch:type="MSShapeGroup"></path>
                <circle id="Oval-209" sketch:type="MSShapeGroup" cx="69" cy="45" r="5"></circle>
                <rect id="Rectangle-945" sketch:type="MSShapeGroup" x="64" y="78" width="10" height="12"></rect>
            </g>
        </g>
    </g>
</svg>