<?xml version="1.0" encoding="UTF-8" standalone="no"?>
<svg width="128px" height="128px" viewBox="0 0 128 128" version="1.1" xmlns="http://www.w3.org/2000/svg" xmlns:xlink="http://www.w3.org/1999/xlink" xmlns:sketch="http://www.bohemiancoding.com/sketch/ns">
    <!-- Generator: Sketch 3.3.3 (12081) - http://www.bohemiancoding.com/sketch -->
    <title></title>
    <desc>Created with Sketch.</desc>
    <defs></defs>
    <g id="Items" stroke="none" stroke-width="1" fill="none" fill-rule="evenodd" sketch:type="MSPage">
        <g sketch:type="MSArtboardGroup" transform="translate(-1152.000000, -128.000000)" id="Items-Weapon-Club">
            <g sketch:type="MSLayerGroup" transform="translate(1152.000000, 128.000000)">
                <rect id="Rectangle-5282" sketch:type="MSShapeGroup" x="0" y="0" width="128" height="128"></rect>
                <path d="M63,26 C65.7614237,26 70,23.7614237 70,21 C70,18.2385763 65.7614237,16 63,16 C60.2385763,16 58,18.2385763 58,21 C58,23.7614237 60.2385763,26 63,26 Z" id="Oval-191-Copy-5" fill="#8DA1A3" sketch:type="MSShapeGroup" transform="translate(64.000000, 21.000000) rotate(-90.000000) translate(-64.000000, -21.000000) "></path>
                <path d="M53,59 C55.7614237,59 58,56.7614237 58,54 C58,51.2385763 55.7614237,49 53,49 C50.2385763,49 46,51.2385763 46,54 C46,56.7614237 50.2385763,59 53,59 Z" id="Oval-191-Copy-3" fill="#8DA1A3" sketch:type="MSShapeGroup"></path>
                <path d="M76,53 C78.7614237,53 83,50.7614237 83,48 C83,45.2385763 78.7614237,43 76,43 C73.2385763,43 71,45.2385763 71,48 C71,50.7614237 73.2385763,53 76,53 Z" id="Oval-191-Copy-4" fill="#8DA1A3" sketch:type="MSShapeGroup"></path>
                <rect id="Rectangle-5277" fill="#936956" sketch:type="MSShapeGroup" x="54" y="43" width="20" height="74" rx="10"></rect>
                <path d="M46.7907594,37.2096832 C45.2494656,27.7050376 51.8073591,20 61.4282217,20 L66.5717783,20 C76.1971194,20 82.7497492,27.7098801 81.2092406,37.2096832 L72,94 C72,94 67.1210937,94 64.6816406,94 L56,94 L46.7907594,37.2096832 Z" id="Rectangle-5277-Copy-10" fill="#936956" sketch:type="MSShapeGroup"></path>
                <path d="M51,44 C53.7614237,44 56,41.7614237 56,39 C56,36.2385763 53.7614237,34 51,34 C48.2385763,34 44,36.2385763 44,39 C44,41.7614237 48.2385763,44 51,44 Z" id="Oval-191" fill="#8DA1A3" sketch:type="MSShapeGroup"></path>
                <path d="M77,37 C79.7614237,37 84,34.7614237 84,32 C84,29.2385763 79.7614237,27 77,27 C74.2385763,27 72,29.2385763 72,32 C72,34.7614237 74.2385763,37 77,37 Z" id="Oval-191-Copy-2" fill="#8DA1A3" sketch:type="MSShapeGroup"></path>
                <path d="M72,65 C74.7614237,65 79,62.7614237 79,60 C79,57.2385763 74.7614237,55 72,55 C69.2385763,55 67,57.2385763 67,60 C67,62.7614237 69.2385763,65 72,65 Z" id="Oval-191-Copy" fill="#8DA1A3" sketch:type="MSShapeGroup"></path>
            </g>
        </g>
    </g>
</svg>