<?xml version="1.0" encoding="UTF-8" standalone="no"?>
<svg width="130px" height="130px" viewBox="0 0 130 130" version="1.1" xmlns="http://www.w3.org/2000/svg" xmlns:xlink="http://www.w3.org/1999/xlink" xmlns:sketch="http://www.bohemiancoding.com/sketch/ns">
    <!-- Generator: Sketch 3.3.3 (12081) - http://www.bohemiancoding.com/sketch -->
    <title></title>
    <desc>Created with Sketch.</desc>
    <defs></defs>
    <g id="Items" stroke="none" stroke-width="1" fill="none" fill-rule="evenodd" sketch:type="MSPage">
        <g sketch:type="MSArtboardGroup" transform="translate(-511.000000, -1407.000000)" id="Items-Map">
            <g sketch:type="MSLayerGroup" transform="translate(512.000000, 1408.000000)">
                <path d="M22,42 L50,26 L50,88 L22,104 L22,42 Z" id="Rectangle-5483" fill="#FEFFD4" sketch:type="MSShapeGroup"></path>
                <path d="M28,44 L50,32 L50,82 L28,94 L28,44 Z" id="Rectangle-5483-Copy-4" fill="#D2D1A6" sketch:type="MSShapeGroup"></path>
                <path d="M50,26 L78,42 L78,104 L50,88 L50,26 Z" id="Rectangle-5483-Copy" fill="#ECD7C1" sketch:type="MSShapeGroup"></path>
                <path d="M50,32 L78,48 L78,98 L50,82 L50,32 Z" id="Rectangle-5483-Copy-6" fill="#C5C49D" sketch:type="MSShapeGroup"></path>
                <path d="M78,42 L106,26 L106,88 L78,104 L78,42 Z" id="Rectangle-5483-Copy-2" fill="#FEFFD4" sketch:type="MSShapeGroup"></path>
                <path d="M78,48 L100,35 L100,85 L78,98 L78,48 Z" id="Rectangle-5483-Copy-5" fill="#D2D1A6" sketch:type="MSShapeGroup"></path>
                <path d="M75.3520283,50.6111355 C75.3520283,47.8497118 70.8748758,45.6111355 65.3520283,45.6111355 C59.8291808,45.6111355 55.3520283,47.8497118 55.3520283,50.6111355 C55.3520283,53.3725592 59.8291808,55.6111355 65.3520283,55.6111355 C70.8748758,55.6111355 75.3520283,53.3725592 75.3520283,50.6111355 Z" id="Oval-1085" fill="#83AC99" sketch:type="MSShapeGroup" transform="translate(65.352028, 50.611136) rotate(27.000000) translate(-65.352028, -50.611136) "></path>
                <path d="M52.7505202,75.15198 C58.1868569,74.2775002 62.0602618,71.7964653 62.0602618,68.8630893 C62.0602618,65.2613574 56.2207005,62.3415767 49.0172365,62.3415767 C48.1545402,62.3415767 47.311406,62.3834545 46.3286668,62.548383 C48.7561675,67.3126213 50.1181389,69.9856411 52.7505202,75.15198 Z" id="Oval-1085-Copy" fill="#9D9472" sketch:type="MSShapeGroup" transform="translate(54.194464, 68.746778) rotate(27.000000) translate(-54.194464, -68.746778) "></path>
                <path d="M44.372458,75.15198 C49.8087946,74.2775002 53.6821996,71.7964653 53.6821996,68.8630893 C53.6821996,65.2613574 47.8426382,62.3415767 40.6391743,62.3415767 C39.776478,62.3415767 38.9333438,62.3834545 37.9506045,62.548383 C40.3781052,67.3126213 41.7400766,69.9856411 44.372458,75.15198 Z" id="Oval-1085-Copy-2" fill="#ABA27F" sketch:type="MSShapeGroup" transform="translate(45.816402, 68.746778) scale(-1, 1) rotate(27.000000) translate(-45.816402, -68.746778) "></path>
                <g id="Oval-1085-Copy-4-+-Oval-1085-Copy-3" transform="translate(43.000000, 63.000000)" sketch:type="MSShapeGroup">
                    <path d="M7.00000004,7.47281365 C10.1833571,8.36502717 12.9638625,8.12617284 13.7727737,6.74540985 C14.7659916,5.05004645 12.4107144,2.27513643 8.51211481,0.54747484 C8.04521339,0.340567814 7.57735099,0.15806471 7.00000004,-1.99840144e-14 C7.00000007,2.82477018 6.99999994,4.40963351 7.00000004,7.47281365 L7.00000004,7.47281365 Z" id="Oval-1085-Copy-4" fill="#85796C"></path>
                    <path d="M0.227226263,6.74540985 C-0.765991579,5.05004645 1.58928565,2.27513643 5.48788519,0.54747484 C5.95478661,0.340567814 6.42264901,0.15806471 6.99999996,2.04281037e-14 C6.99999993,2.82477018 7.00000006,4.40963351 6.99999996,7.47281365 C3.81664293,8.36502717 1.03613747,8.12617284 0.227226263,6.74540985 Z" id="Oval-1085-Copy-3" fill="#928577"></path>
                </g>
                <ellipse id="Oval-1075" fill="#8EB9A5" sketch:type="MSShapeGroup" transform="translate(88.500000, 73.500000) rotate(-24.000000) translate(-88.500000, -73.500000) " cx="88.5" cy="73.5" rx="2.5" ry="1.5"></ellipse>
                <ellipse id="Oval-1075-Copy-2" fill="#ABA27F" sketch:type="MSShapeGroup" transform="translate(37.500000, 81.500000) rotate(-24.000000) translate(-37.500000, -81.500000) " cx="37.5" cy="81.5" rx="4.5" ry="2.5"></ellipse>
                <ellipse id="Oval-1075-Copy" fill="#8EB9A5" sketch:type="MSShapeGroup" transform="translate(91.000000, 82.000000) rotate(-24.000000) translate(-91.000000, -82.000000) " cx="91" cy="82" rx="7" ry="4"></ellipse>
                <path d="M41,38 C35.0000002,49 38,56 50,53 C62.0000001,58 79.0000001,71 66.0000001,89" id="Path-1355" stroke="#928577" stroke-width="2" stroke-dasharray="5,5" sketch:type="MSShapeGroup"></path>
                <path d="M83.7886462,48.1811245 C83.7886462,48.1811245 102.261356,35.9844437 101.591413,68.2575161" id="Path-1355-Copy" stroke="#928577" stroke-width="2" stroke-dasharray="5,5" sketch:type="MSShapeGroup" transform="translate(92.698925, 57.089256) rotate(-165.000000) translate(-92.698925, -57.089256) "></path>
            </g>
        </g>
    </g>
</svg>