<?xml version="1.0" encoding="UTF-8" standalone="no"?>
<svg width="130px" height="130px" viewBox="0 0 130 130" version="1.1" xmlns="http://www.w3.org/2000/svg" xmlns:xlink="http://www.w3.org/1999/xlink" xmlns:sketch="http://www.bohemiancoding.com/sketch/ns">
    <!-- Generator: Sketch 3.3.3 (12081) - http://www.bohemiancoding.com/sketch -->
    <title></title>
    <desc>Created with Sketch.</desc>
    <defs></defs>
    <g id="Items" stroke="none" stroke-width="1" fill="none" fill-rule="evenodd" sketch:type="MSPage">
        <g sketch:type="MSArtboardGroup" transform="translate(-1279.000000, 1.000000)" id="Items-Weapon-Staff-02">
            <g sketch:type="MSLayerGroup" transform="translate(1280.000000, 0.000000)">
                <circle id="Oval-1093" fill="#FFCF62" sketch:type="MSShapeGroup" cx="70" cy="53" r="10"></circle>
                <path d="M57,85 L68.6803398,90.6803398" id="Line-Copy-18" stroke="#FFCF62" stroke-width="8" stroke-linecap="round" sketch:type="MSShapeGroup" transform="translate(63.000000, 88.000000) scale(1, -1) translate(-63.000000, -88.000000) "></path>
                <circle id="Oval-1093-Copy-2" fill="#FFCF62" sketch:type="MSShapeGroup" cx="69.5" cy="83" r="10"></circle>
                <circle id="Oval-1093-Copy" fill="#FFCF62" sketch:type="MSShapeGroup" cx="58.5" cy="64" r="10"></circle>
                <path d="M54.3214171,33.9908224 C54.1439033,30.1298978 57.125,27 60.9950294,27 L67.0049706,27 C70.8682186,27 73.8564585,30.1220268 73.6785829,33.9908224 L70.2294241,109.010025 C70.1027167,111.765912 67.7710151,114 64.9978137,114 L63.0021863,114 C60.2395551,114 57.8971034,111.761998 57.7705759,109.010025 L54.3214171,33.9908224 Z" id="Rectangle-5277-Copy-5" fill="#936956" sketch:type="MSShapeGroup"></path>
                <path d="M77,27.6066017 C77,21.7487373 71.1797017,17 64,17 C56.8202983,17 51,21.7487373 51,27.6066017 C51,33.4644661 77,33.4644661 77,27.6066017 Z" id="Oval-1081" fill="#88CD42" sketch:type="MSShapeGroup"></path>
                <ellipse id="Oval-1082" fill="#9FFF3D" sketch:type="MSShapeGroup" cx="64" cy="20" rx="3" ry="2"></ellipse>
                <path d="M51.6827009,28 C47.7556274,28 46.8198531,30.3180055 49.6008546,33.1859326 L58.9724789,42.8504853 C61.7497805,45.7145968 66.2489761,45.7184124 69.0299776,42.8504853 L78.4016019,33.1859326 C81.1789035,30.3218211 80.243783,28 76.3197556,28 L71.1118239,28 C67.1847504,28 60.81466,28 56.8906326,28 L51.6827009,28 L51.6827009,28 Z" id="Rectangle-5499-Copy" fill="#936956" sketch:type="MSShapeGroup"></path>
                <path d="M61,42 L72.6803398,47.6803398" id="Line" stroke="#FFCF62" stroke-width="8" stroke-linecap="round" sketch:type="MSShapeGroup"></path>
                <path d="M53.9856116,67.9856116 L73,78" id="Line-Copy" stroke="#FFCF62" stroke-width="8" stroke-linecap="round" sketch:type="MSShapeGroup"></path>
            </g>
        </g>
    </g>
</svg>