<?xml version="1.0" encoding="UTF-8" standalone="no"?>
<svg width="128px" height="128px" viewBox="0 0 128 128" version="1.1" xmlns="http://www.w3.org/2000/svg" xmlns:xlink="http://www.w3.org/1999/xlink" xmlns:sketch="http://www.bohemiancoding.com/sketch/ns">
    <!-- Generator: Sketch 3.3.3 (12081) - http://www.bohemiancoding.com/sketch -->
    <title></title>
    <desc>Created with Sketch.</desc>
    <defs></defs>
    <g id="Items" stroke="none" stroke-width="1" fill="none" fill-rule="evenodd" sketch:type="MSPage">
        <g sketch:type="MSArtboardGroup" transform="translate(-256.000000, -1152.000000)" id="Items-Tools-Sickle">
            <g sketch:type="MSLayerGroup" transform="translate(256.000000, 1152.000000)">
                <rect id="Rectangle-5282" sketch:type="MSShapeGroup" x="0" y="0" width="128" height="128"></rect>
                <path d="M54,83.0036561 C54,80.2402132 56.2326798,78 58.9935782,78 L64.6601562,78 L69.0095614,78 C71.7657045,78 74,80.2432539 74,83.0036561 L74,109.993314 C74,115.519854 69.5240618,120 64,120 L64,120 C58.4771525,120 54,115.525163 54,109.993314 L54,83.0036561 Z" id="Rectangle-5277" fill="#936956" sketch:type="MSShapeGroup"></path>
                <path d="M62,77.9438145 C62.661918,77.9811038 63.3287523,78 64,78 C83.3299662,78 99,62.3299662 99,43 C99,23.6700338 83.3299662,8 64,8 C53.6690219,8 44.3834709,12.4760056 37.9768335,19.5945305 L37.9768335,19.5945305 C42.4430485,16.6884211 47.7743483,15 53.5,15 C69.2401154,15 82,27.7598846 82,43.5 C82,56.2796661 73.588568,67.0947369 62,70.7109167 L62,77.9438145 Z" id="Path-Copy-15" fill="#DFDFDF" sketch:type="MSShapeGroup"></path>
                <path d="M61.9999901,77.9438139 C62.6619113,77.9811037 63.3287489,78 64,78 C83.3299662,78 99,62.3299662 99,43 C99,23.6700338 83.3299662,8 64,8 C56.1909575,8 48.9792343,10.5574274 43.1566871,14.8804252 L43.1566871,14.8804252 C47.0499788,13.0333698 51.4043112,12 56,12 C72.5685425,12 86,25.4314575 86,42 C86,56.5137475 75.6934419,68.6202693 62,71.3998913 L62,77.9438145 Z" id="Oval-197" fill="#8DA1A3" sketch:type="MSShapeGroup"></path>
            </g>
        </g>
    </g>
</svg>