<?xml version="1.0" encoding="UTF-8" standalone="no"?>
<svg width="130px" height="130px" viewBox="0 0 130 130" version="1.1" xmlns="http://www.w3.org/2000/svg" xmlns:xlink="http://www.w3.org/1999/xlink" xmlns:sketch="http://www.bohemiancoding.com/sketch/ns">
    <!-- Generator: Sketch 3.3.3 (12081) - http://www.bohemiancoding.com/sketch -->
    <title></title>
    <desc>Created with Sketch.</desc>
    <defs></defs>
    <g id="Items" stroke="none" stroke-width="1" fill="none" fill-rule="evenodd" sketch:type="MSPage">
        <g sketch:type="MSArtboardGroup" transform="translate(-639.000000, -895.000000)" id="Items-Horn">
            <g sketch:type="MSLayerGroup" transform="translate(640.000000, 896.000000)">
                <path d="M112.997668,61 C112.729302,89.7646877 89.3280998,113 60.5,113 C42.0021697,113 25.7387408,103.43339 16.3874228,88.9778797 L23.5513868,84.3821292 C29.1201161,89.7200132 36.677017,93 45,93 C62.1208272,93 76,79.1208272 76,62 C76,61.665402 75.994699,61.3320421 75.9841763,60.9999998 L112.997668,61 Z" id="Oval-207" fill="#FEFFD4" sketch:type="MSShapeGroup"></path>
                <rect id="Rectangle" fill="#674C40" sketch:type="MSShapeGroup" x="73" y="31" width="44" height="30" rx="3"></rect>
                <rect id="Rectangle-Copy-2" fill="#674C40" sketch:type="MSShapeGroup" transform="translate(17.839952, 82.728897) rotate(-30.000000) translate(-17.839952, -82.728897) " x="10.8399519" y="76.353681" width="14" height="12.7504327" rx="3"></rect>
                <rect id="Rectangle-Copy" fill="#674C40" sketch:type="MSShapeGroup" transform="translate(69.500000, 99.000000) rotate(-300.000000) translate(-69.500000, -99.000000) " x="52" y="91" width="35" height="16" rx="3"></rect>
            </g>
        </g>
    </g>
</svg>