<?xml version="1.0" encoding="UTF-8" standalone="no"?>
<svg width="130px" height="130px" viewBox="0 0 130 130" version="1.1" xmlns="http://www.w3.org/2000/svg" xmlns:xlink="http://www.w3.org/1999/xlink" xmlns:sketch="http://www.bohemiancoding.com/sketch/ns">
    <!-- Generator: Sketch 3.3.3 (12081) - http://www.bohemiancoding.com/sketch -->
    <title></title>
    <desc>Created with Sketch.</desc>
    <defs></defs>
    <g id="Items" stroke="none" stroke-width="1" fill="none" fill-rule="evenodd" sketch:type="MSPage">
        <g sketch:type="MSArtboardGroup" transform="translate(-383.000000, -127.000000)" id="Items-Lock-02">
            <g sketch:type="MSLayerGroup" transform="translate(384.000000, 128.000000)">
                <path d="M50,50.0027722 L50,50.0027722 L50,69.9972278 C50,77.7360836 56.2646421,84 64,84 C71.7336391,84 78,77.732493 78,69.9972278 L78,50.0027722 C78,42.2639164 71.7353579,36 64,36 C56.2663609,36 50,42.267507 50,50.0027722 L50,50.0027722 Z M36,50.0027722 C36,34.5372681 48.5326269,22 64,22 C79.463973,22 92,34.5285588 92,50.0027722 L92,69.9972278 C92,85.4627319 79.4673731,98 64,98 C48.536027,98 36,85.4714412 36,69.9972278 L36,50.0027722 L36,50.0027722 Z" id="Shape" fill="#8DA1A3" sketch:type="MSShapeGroup"></path>
                <rect id="Rectangle-5610" fill="#8DA1A3" sketch:type="MSShapeGroup" x="29" y="68" width="70" height="48" rx="8"></rect>
                <rect id="Rectangle-5611" fill="#57686A" sketch:type="MSShapeGroup" x="58" y="80" width="12" height="24" rx="31"></rect>
            </g>
        </g>
    </g>
</svg>