<?xml version="1.0" encoding="UTF-8" standalone="no"?>
<svg width="130px" height="130px" viewBox="0 0 130 130" version="1.1" xmlns="http://www.w3.org/2000/svg" xmlns:xlink="http://www.w3.org/1999/xlink" xmlns:sketch="http://www.bohemiancoding.com/sketch/ns">
    <!-- Generator: Sketch 3.3.3 (12081) - http://www.bohemiancoding.com/sketch -->
    <title></title>
    <desc>Created with Sketch.</desc>
    <defs></defs>
    <g id="Items" stroke="none" stroke-width="1" fill="none" fill-rule="evenodd" sketch:type="MSPage">
        <g sketch:type="MSArtboardGroup" transform="translate(-767.000000, -1151.000000)" id="Items-Armor-Chest-C">
            <g sketch:type="MSLayerGroup" transform="translate(768.000000, 1152.000000)">
                <rect id="Path-Copy-9" fill="#36424B" sketch:type="MSShapeGroup" x="28" y="16" width="72" height="94" rx="14"></rect>
                <rect id="Rectangle-638" fill="#2F3B43" sketch:type="MSShapeGroup" x="28" y="44" width="10" height="64"></rect>
                <rect id="Rectangle-638-Copy" fill="#2F3B43" sketch:type="MSShapeGroup" x="90" y="44" width="10" height="64"></rect>
                <rect id="Rectangle-639" fill="#293138" sketch:type="MSShapeGroup" x="26" y="100" width="76" height="16" rx="4"></rect>
                <g id="Path-Copy-7-+-Rectangle-637" transform="translate(0.000000, 16.000000)" sketch:type="MSShapeGroup">
                    <path d="M22.8348735,11.314287 C25.1352094,4.51329409 32.7741835,-0.246845627 39.8951313,0.681973658 L38.0957771,0.447275281 C44.6702978,1.30482146 48.2370712,7.07723467 46.0662484,13.3292044 L25.0000005,73.9999997 L6.85400857,67.9513361 C5.27778316,67.4259277 4.42882467,65.7321705 4.95899902,64.1646985 L22.8348735,11.314287 Z" id="Path-Copy-7" fill="#36424B"></path>
                    <rect id="Rectangle-637" fill="#293138" transform="translate(16.000000, 68.000000) rotate(15.000000) translate(-16.000000, -68.000000) " x="2" y="60" width="28" height="16" rx="4"></rect>
                </g>
                <g id="Path-Copy-7-+-Rectangle-637-Copy" transform="translate(104.500000, 56.000000) scale(-1, 1) translate(-104.500000, -56.000000) translate(81.000000, 16.000000)" sketch:type="MSShapeGroup">
                    <path d="M22.8348735,11.314287 C25.1352094,4.51329409 32.7741835,-0.246845627 39.8951313,0.681973658 L38.0957771,0.447275281 C44.6702978,1.30482146 48.2370712,7.07723467 46.0662484,13.3292044 L25.0000005,73.9999997 L6.85400857,67.9513361 C5.27778316,67.4259277 4.42882467,65.7321705 4.95899902,64.1646985 L22.8348735,11.314287 Z" id="Path-Copy-7" fill="#36424B"></path>
                    <rect id="Rectangle-637" fill="#293138" transform="translate(16.000000, 68.000000) rotate(15.000000) translate(-16.000000, -68.000000) " x="2" y="60" width="28" height="16" rx="4"></rect>
                </g>
                <path d="M59,72 L68,72" id="Line-Copy-24" stroke="#293138" stroke-width="4" stroke-linecap="round" sketch:type="MSShapeGroup"></path>
                <path d="M59,80 L68,80" id="Line-Copy-22" stroke="#293138" stroke-width="4" stroke-linecap="round" sketch:type="MSShapeGroup"></path>
                <path d="M59,88 L68,88" id="Line-Copy-23" stroke="#293138" stroke-width="4" stroke-linecap="round" sketch:type="MSShapeGroup"></path>
                <path d="M64,61 C64,61 80,40.836556 80,32 C80,23.163444 72.836556,18 64,18 C55.163444,18 48,23.163444 48,32 C48,40.836556 64,61 64,61 Z" id="Oval-1071" fill="#293138" sketch:type="MSShapeGroup"></path>
            </g>
        </g>
    </g>
</svg>