<?xml version="1.0" encoding="UTF-8" standalone="no"?>
<svg width="130px" height="130px" viewBox="0 0 130 130" version="1.1" xmlns="http://www.w3.org/2000/svg" xmlns:xlink="http://www.w3.org/1999/xlink" xmlns:sketch="http://www.bohemiancoding.com/sketch/ns">
    <!-- Generator: Sketch 3.3.3 (12081) - http://www.bohemiancoding.com/sketch -->
    <title></title>
    <desc>Created with Sketch.</desc>
    <defs></defs>
    <g id="Items" stroke="none" stroke-width="1" fill="none" fill-rule="evenodd" sketch:type="MSPage">
        <g sketch:type="MSArtboardGroup" transform="translate(1.000000, -255.000000)" id="Items-Potion-B-03">
            <g sketch:type="MSLayerGroup" transform="translate(0.000000, 256.000000)">
                <rect id="Rectangle-5200-Copy-2" fill="#936956" sketch:type="MSShapeGroup" x="50" y="22" width="28" height="12" rx="4"></rect>
                <path d="M76,45.9999977 L76,60.2943355 C89.014927,62.2270986 99,73.4448254 99,87 C99,101.911688 86.9067942,114 71.9987599,114 L56.0012401,114 C41.088867,114 29,101.914967 29,87 C29,73.4481454 38.9881551,62.2282054 52,60.2945554 L52,60.2945554 L52,45.9999977 C48.6857984,45.9971183 46,43.3051965 46,40 C46,36.6862915 48.6764399,34 52.0053227,34 L75.9946773,34 C79.3113255,34 82,36.6930342 82,40 C82,43.3119422 79.3264126,45.9971361 76,45.9999977 Z" id="Rectangle-5200" fill="#FEFFD4" sketch:type="MSShapeGroup"></path>
                <g id="Rectangle-5238-+-Rectangle-5238-Copy" transform="translate(54.000000, 76.000000)" fill="#88CD42" sketch:type="MSShapeGroup">
                    <path d="M0,4.99009984 C0,2.2341438 2.23054698,0 4.99214053,0 L17.0078595,0 C19.7649426,0 22,2.24331781 22,4.99009984 L22,13.0099002 C22,15.7658562 19.769453,18 17.0078595,18 L4.99214053,18 C2.23505745,18 0,15.7566822 0,13.0099002 L0,4.99009984 Z M4,7.99791312 C4,6.89449617 4.88772964,6 6,6 C7.1045695,6 8,6.89826062 8,7.99791312 L8,10.0020869 C8,11.1055038 7.11227036,12 6,12 C4.8954305,12 4,11.1017394 4,10.0020869 L4,7.99791312 Z M14,7.99791312 C14,6.89449617 14.8877296,6 16,6 C17.1045695,6 18,6.89826062 18,7.99791312 L18,10.0020869 C18,11.1055038 17.1122704,12 16,12 C14.8954305,12 14,11.1017394 14,10.0020869 L14,7.99791312 Z" id="Rectangle-5238"></path>
                    <rect id="Rectangle-5238-Copy" x="6" y="16" width="10" height="8" rx="3"></rect>
                </g>
            </g>
        </g>
    </g>
</svg>