<?xml version="1.0" encoding="UTF-8" standalone="no"?>
<svg width="130px" height="130px" viewBox="0 0 130 130" version="1.1" xmlns="http://www.w3.org/2000/svg" xmlns:xlink="http://www.w3.org/1999/xlink" xmlns:sketch="http://www.bohemiancoding.com/sketch/ns">
    <!-- Generator: Sketch 3.3.3 (12081) - http://www.bohemiancoding.com/sketch -->
    <title></title>
    <desc>Created with Sketch.</desc>
    <defs></defs>
    <g id="Items" stroke="none" stroke-width="1" fill="none" fill-rule="evenodd" sketch:type="MSPage">
        <g sketch:type="MSArtboardGroup" transform="translate(-767.000000, -1023.000000)" id="Items-Armor-Chest-G">
            <g sketch:type="MSLayerGroup" transform="translate(768.000000, 1024.000000)">
                <rect id="Path-Copy-9" fill="#864DAC" sketch:type="MSShapeGroup" x="28" y="24" width="72" height="90" rx="14"></rect>
                <rect id="Rectangle-638" fill="#643FA1" sketch:type="MSShapeGroup" x="28" y="48" width="10" height="64"></rect>
                <rect id="Rectangle-638-Copy" fill="#643FA1" sketch:type="MSShapeGroup" x="90" y="48" width="10" height="64"></rect>
                <rect id="Rectangle-639" fill="#2B426B" sketch:type="MSShapeGroup" x="26" y="104" width="76" height="16" rx="4"></rect>
                <g id="Path-Copy-7-+-Rectangle-637" transform="translate(0.000000, 24.000000)" sketch:type="MSShapeGroup">
                    <path d="M22.8348735,11.314287 C25.1352094,4.51329409 32.7741835,-0.246845627 39.8951313,0.681973658 L38.0957771,0.447275281 C44.6702978,1.30482146 48.2370712,7.07723467 46.0662484,13.3292044 L25.0000005,73.9999997 L6.85400857,67.9513361 C5.27778316,67.4259277 4.42882467,65.7321705 4.95899902,64.1646985 L22.8348735,11.314287 Z" id="Path-Copy-7" fill="#864DAC"></path>
                    <rect id="Rectangle-637" fill="#2B426B" transform="translate(16.000000, 68.000000) rotate(15.000000) translate(-16.000000, -68.000000) " x="2" y="60" width="28" height="16" rx="4"></rect>
                </g>
                <path d="M99.3316088,35.314287 C101.631945,28.5132941 109.270919,23.7531544 116.391867,24.6819737 L114.592512,24.4472753 C121.167033,25.3048215 124.733807,31.0772347 122.562984,37.3292044 L101.496736,97.9999997 L83.3507439,91.9513361 C81.7745185,91.4259277 80.92556,89.7321705 81.4557343,88.1646985 L99.3316088,35.314287 Z" id="Path-Copy-7" fill="#864DAC" sketch:type="MSShapeGroup" transform="translate(102.248368, 61.223637) scale(-1, 1) translate(-102.248368, -61.223637) "></path>
                <path d="M98.9864267,27.4524875 C96.1632852,25.5437575 92.7730185,24.459413 89.4177184,24.574496 L82.8042705,39.8362989 L83.4631579,41.7338947 L98.9864267,27.4524875 Z M89.4470046,24.5069125 L89.9042229,24.4472753 C89.7487686,24.4675519 89.594996,24.4905764 89.442941,24.51629 L89.4470046,24.5069125 Z" id="Path-Copy-20" fill="#643FA1" sketch:type="MSShapeGroup"></path>
                <path d="M44.9864267,27.4524875 C42.1632852,25.5437575 38.7730185,24.459413 35.4177184,24.574496 L28.8042705,39.8362989 L29.4631579,41.7338947 L44.9864267,27.4524875 Z M35.4470046,24.5069125 L35.9042229,24.4472753 C35.7487686,24.4675519 35.594996,24.4905764 35.442941,24.51629 L35.4470046,24.5069125 Z" id="Path-Copy-21" fill="#643FA1" sketch:type="MSShapeGroup" transform="translate(36.895349, 33.090585) scale(-1, 1) translate(-36.895349, -33.090585) "></path>
                <rect id="Rectangle-637" fill="#2B426B" sketch:type="MSShapeGroup" transform="translate(112.000000, 92.000000) scale(-1, 1) rotate(15.000000) translate(-112.000000, -92.000000) " x="98" y="84" width="28" height="16" rx="4"></rect>
                <path d="M34.9416733,25.7667261 C33.8693365,21.4772817 36.2588393,16.5282154 40.287414,14.7087765 L58.5280575,6.47069219 C61.5493698,5.10616657 66.4439756,5.104401 69.4691972,6.47069219 L87.7098408,14.7087765 C91.7345486,16.526469 94.1296868,21.4702073 93.0555815,25.7667261 L86.9974007,50 L40.9998541,50 L34.9416733,25.7667261 Z" id="Rectangle-991" fill="#864EAC" sketch:type="MSShapeGroup"></path>
                <path d="M63.9480228,64.1019909 C63.9480228,46.9999997 87.9480228,23.8238129 87.9480228,23.8238129 C87.9480228,17.7293978 65.8312625,10.3879615 65.8312625,10.3879615 C64.791178,10.0241711 63.0938501,10.0228492 62.0647831,10.3879615 C62.0647831,10.3879615 39.9480228,17.7293978 39.9480228,23.8238129 C39.9480228,23.8238129 63.9480228,45.9999997 63.9480228,64.1019909 Z" id="Oval-1071-Copy" fill="#293138" sketch:type="MSShapeGroup"></path>
                <g id="Line-Copy-24-+-Line-Copy-22-+-Line-Copy-23" transform="translate(59.000000, 55.000000)" stroke="#ECD7C1" stroke-width="4" stroke-linecap="round" sketch:type="MSShapeGroup">
                    <path d="M0,1 L10,1" id="Line-Copy-24"></path>
                    <path d="M0,9 L10,9" id="Line-Copy-22"></path>
                    <path d="M0,17 L10,17" id="Line-Copy-23"></path>
                </g>
            </g>
        </g>
    </g>
</svg>