<?xml version="1.0" encoding="UTF-8" standalone="no"?>
<svg width="128px" height="128px" viewBox="0 0 128 128" version="1.1" xmlns="http://www.w3.org/2000/svg" xmlns:xlink="http://www.w3.org/1999/xlink" xmlns:sketch="http://www.bohemiancoding.com/sketch/ns">
    <!-- Generator: Sketch 3.3.3 (12081) - http://www.bohemiancoding.com/sketch -->
    <title></title>
    <desc>Created with Sketch.</desc>
    <defs></defs>
    <g id="Items" stroke="none" stroke-width="1" fill="none" fill-rule="evenodd" sketch:type="MSPage">
        <g sketch:type="MSArtboardGroup" transform="translate(-128.000000, -256.000000)" id="Items-Resources-Iron">
            <g sketch:type="MSLayerGroup" transform="translate(128.000000, 256.000000)">
                <rect id="Rectangle-5384" sketch:type="MSShapeGroup" x="0" y="0" width="128" height="128"></rect>
                <g id="Rectangle-5372-Copy-4-+-Rectangle-5372-Copy-6-+-Rectangle-5372-Copy-4-Copy-Copy" transform="translate(64.000000, 88.000000)" sketch:type="MSShapeGroup">
                    <path d="M4.72103234,4.96501123 C5.01797959,2.22291124 7.49867861,0 10.2562423,0 L45.7437669,0 C48.5038317,0 50.9819198,2.22189697 51.2789769,4.96501123 L55.0729829,40 L0.927026387,40 L4.72103234,4.96501123 Z" id="Rectangle-5372-Copy-4" fill="#8DA1A3"></path>
                    <path d="M16.0208153,0 L10.2562423,0 C7.49867861,0 5.01797959,2.22291124 4.72103234,4.96501123 L3.95171718,12.0690981 L16.0208153,-4.4408921e-16 Z" id="Rectangle-5372-Copy-6" fill="#FFFFFF"></path>
                    <path d="M7.3535461,21.6724632 C8.4395886,18.5396483 12.0068391,16 15.3225303,16 L40.6774697,16 C43.9925756,16 47.562509,18.5456989 48.6464539,21.6724632 L55,40 L1,40 L7.3535461,21.6724632 Z" id="Rectangle-5372-Copy-4" fill="#6D8183"></path>
                </g>
                <g id="Rectangle-5372-Copy-4-+-Rectangle-5372-Copy-6-+-Rectangle-5372-Copy-4-Copy-Copy-Copy" transform="translate(9.000000, 88.000000)" sketch:type="MSShapeGroup">
                    <path d="M4.72103234,4.96501123 C5.01797959,2.22291124 7.49867861,0 10.2562423,0 L45.7437669,0 C48.5038317,0 50.9819198,2.22189697 51.2789769,4.96501123 L55.0729829,40 L0.927026387,40 L4.72103234,4.96501123 Z" id="Rectangle-5372-Copy-4" fill="#8DA1A3"></path>
                    <path d="M16.0208153,0 L10.2562423,0 C7.49867861,0 5.01797959,2.22291124 4.72103234,4.96501123 L3.95171718,12.0690981 L16.0208153,-4.4408921e-16 Z" id="Rectangle-5372-Copy-6" fill="#FFFFFF"></path>
                    <path d="M7.3535461,21.6724632 C8.4395886,18.5396483 12.0068391,16 15.3225303,16 L40.6774697,16 C43.9925756,16 47.562509,18.5456989 48.6464539,21.6724632 L55,40 L1,40 L7.3535461,21.6724632 Z" id="Rectangle-5372-Copy-4" fill="#6D8183"></path>
                </g>
                <g id="Rectangle-5372-Copy-4-+-Rectangle-5372-Copy-6-+-Rectangle-5372-Copy-4-Copy-Copy-Copy-Copy" transform="translate(37.000000, 48.000000)" sketch:type="MSShapeGroup">
                    <path d="M4.72103234,4.96501123 C5.01797959,2.22291124 7.49867861,0 10.2562423,0 L45.7437669,0 C48.5038317,0 50.9819198,2.22189697 51.2789769,4.96501123 L55.0729829,40 L0.927026387,40 L4.72103234,4.96501123 Z" id="Rectangle-5372-Copy-4" fill="#8DA1A3"></path>
                    <path d="M16.0208153,0 L10.2562423,0 C7.49867861,0 5.01797959,2.22291124 4.72103234,4.96501123 L3.95171718,12.0690981 L16.0208153,-4.4408921e-16 Z" id="Rectangle-5372-Copy-6" fill="#FFFFFF"></path>
                    <path d="M7.3535461,21.6724632 C8.4395886,18.5396483 12.0068391,16 15.3225303,16 L40.6774697,16 C43.9925756,16 47.562509,18.5456989 48.6464539,21.6724632 L55,40 L1,40 L7.3535461,21.6724632 Z" id="Rectangle-5372-Copy-4" fill="#6D8183"></path>
                </g>
            </g>
        </g>
    </g>
</svg>