<?xml version="1.0" encoding="UTF-8" standalone="no"?>
<svg width="130px" height="130px" viewBox="0 0 130 130" version="1.1" xmlns="http://www.w3.org/2000/svg" xmlns:xlink="http://www.w3.org/1999/xlink" xmlns:sketch="http://www.bohemiancoding.com/sketch/ns">
    <!-- Generator: Sketch 3.3.3 (12081) - http://www.bohemiancoding.com/sketch -->
    <title></title>
    <desc>Created with Sketch.</desc>
    <defs></defs>
    <g id="Items" stroke="none" stroke-width="1" fill="none" fill-rule="evenodd" sketch:type="MSPage">
        <g sketch:type="MSArtboardGroup" transform="translate(-1279.000000, -895.000000)" id="Items-Armor-Boots-E">
            <g sketch:type="MSLayerGroup" transform="translate(1280.000000, 896.000000)">
                <g id="Rectangle-5529-+-Rectangle-5529-Copy-+-Rectangle-5529-Copy-2-Copy-Copy-Copy-Copy-Copy" transform="translate(52.000000, 32.000000)" sketch:type="MSShapeGroup">
                    <rect id="Rectangle-5529" fill="#6D8183" x="0" y="4" width="34" height="54" rx="3"></rect>
                    <path d="M0,44 C0,37.372583 5.36951542,32 11.996221,32 L44.003779,32 C50.6291089,32 56,37.3711258 56,44 L56,56 L42,56 L0,56 L0,44 Z" id="Rectangle-5529-Copy" fill="#6D8183"></path>
                    <path d="M12.1647597,42 C13.114085,36.3251009 18.0515663,32 23.9941238,32 L42.0468767,32 C42.0468767,37.5228475 37.5720401,42 32.0401905,42 L12.1647597,42 Z" id="Rectangle-5529-Copy-9" fill="#AAB7B8"></path>
                    <path d="M0,54 L42,54 L56,54 L56,57 C56,58.6568542 54.6572461,60 53.0089949,60 L2.99100514,60 C1.33911861,60 0,58.6534829 0,57 L0,54 Z" id="Rectangle-5529-Copy-2" fill="#5F7173"></path>
                    <path d="M12,5.99373937 C12,2.68348852 14.6866258,0 17.9970619,0 L28.0029381,0 C31.3150239,0 34,2.69478187 34,5.99373937 L34,18 L26,18 L18.0044742,18 C14.6882947,18 12,15.3052181 12,12.0062606 L12,5.99373937 Z" id="Rectangle-5529-Copy-7" fill="#AAB7B8"></path>
                    <path d="M12,23.9981851 C12,20.685479 14.6866258,18 17.9970619,18 L34,18 L34,32 L26,32 L17.9943881,32 C14.683779,32 12,29.3172241 12,26.0018149 L12,23.9981851 Z" id="Rectangle-5529-Copy-8" fill="#AAB7B8"></path>
                </g>
                <g id="Rectangle-5529-+-Rectangle-5529-Copy-+-Rectangle-5529-Copy-2-Copy-Copy-Copy-Copy-Copy-Copy" transform="translate(26.000000, 38.000000)" sketch:type="MSShapeGroup">
                    <rect id="Rectangle-5529" fill="#8DA1A3" x="0" y="4" width="34" height="54" rx="3"></rect>
                    <path d="M0,44 C0,37.372583 5.36951542,32 11.996221,32 L44.003779,32 C50.6291089,32 56,37.3711258 56,44 L56,56 L34,56 L0,56 L0,44 Z" id="Rectangle-5529-Copy" fill="#8DA1A3"></path>
                    <path d="M12.1647597,42 C13.114085,36.3251009 18.0515663,32 23.9941238,32 L42.0468767,32 C42.0468767,37.5228475 37.5720401,42 32.0401905,42 L12.1647597,42 Z" id="Rectangle-5529-Copy-9" fill="#B5BFC0"></path>
                    <path d="M0,54 L34,54 L56,54 L56,57 C56,58.6568542 54.6572461,60 53.0089949,60 L2.99100514,60 C1.33911861,60 0,58.6534829 0,57 L0,54 Z" id="Rectangle-5529-Copy-2" fill="#6D8183"></path>
                    <path d="M12,5.99373937 C12,2.68348852 14.6866258,0 17.9970619,0 L28.0029381,0 C31.3150239,0 34,2.69478187 34,5.99373937 L34,18 L25,18 L18.0007658,18 C14.6866344,18 12,15.3052181 12,12.0062606 L12,5.99373937 Z" id="Rectangle-5529-Copy-7" fill="#B5BFC0"></path>
                    <path d="M12,23.9981851 C12,20.685479 14.6866258,18 17.9970619,18 L34,18 L34,32 L24,32 L18.0037673,32 C14.6879782,32 12,29.3172241 12,26.0018149 L12,23.9981851 Z" id="Rectangle-5529-Copy-8" fill="#B5BFC0"></path>
                </g>
            </g>
        </g>
    </g>
</svg>