<?xml version="1.0" encoding="UTF-8" standalone="no"?>
<svg width="130px" height="130px" viewBox="0 0 130 130" version="1.1" xmlns="http://www.w3.org/2000/svg" xmlns:xlink="http://www.w3.org/1999/xlink" xmlns:sketch="http://www.bohemiancoding.com/sketch/ns">
    <!-- Generator: Sketch 3.3.3 (12081) - http://www.bohemiancoding.com/sketch -->
    <title></title>
    <desc>Created with Sketch.</desc>
    <defs></defs>
    <g id="Items" stroke="none" stroke-width="1" fill="none" fill-rule="evenodd" sketch:type="MSPage">
        <g sketch:type="MSArtboardGroup" transform="translate(-767.000000, -1279.000000)" id="Items-Armor-Chest-D">
            <g sketch:type="MSLayerGroup" transform="translate(768.000000, 1280.000000)">
                <g id="Group" transform="translate(28.000000, 22.000000)" sketch:type="MSShapeGroup">
                    <rect id="Path-Copy-12" fill="#739B64" x="0" y="9.23705556e-14" width="72" height="64" rx="14"></rect>
                    <path d="M60.2009079,0 L11.7998211,0 L11.7998211,9.99200722e-16 C11.9310888,0.647325292 12,1.31748227 12,2.00394538 L12,29.9960546 C12,35.5210811 7.5168429,40 2.00662833,40 L0,40 L0,77.9909575 C0,83.5150843 4.47373763,88 9.99237268,88 L62.0076273,88 C67.5232812,88 72,83.518799 72,77.9909575 L72,40 L69.9933717,40 C64.4741849,40 60,35.5273801 60,29.9960546 L60,2.00394538 C60,1.31762828 60.0691775,0.647453176 60.2009079,-3.55271368e-15 L60.2009079,0 Z M50,88 L22,88 C28.0240535,88 33.2705422,84.6708494 36,79.7520143 C38.7294578,84.6708494 43.9759465,88 50,88 Z" id="Path-Copy-9" fill="#9BCA6A"></path>
                    <path d="M31,56 L41,56" id="Line-Copy-24" stroke="#936956" stroke-width="4" stroke-linecap="round"></path>
                    <path d="M31,64 L41,64" id="Line-Copy-22" stroke="#936956" stroke-width="4" stroke-linecap="round"></path>
                    <path d="M31,72 L41,72" id="Line-Copy-23" stroke="#936956" stroke-width="4" stroke-linecap="round"></path>
                    <path d="M36,45 C36,45 52,24.836556 52,16 C52,7.163444 44.836556,2 36,2 C27.163444,2 20,7.163444 20,16 C20,24.836556 36,45 36,45 Z" id="Oval-1071" fill="#739B64"></path>
                </g>
            </g>
        </g>
    </g>
</svg>