<?xml version="1.0" encoding="UTF-8" standalone="no"?>
<svg width="128px" height="128px" viewBox="0 0 128 128" version="1.1" xmlns="http://www.w3.org/2000/svg" xmlns:xlink="http://www.w3.org/1999/xlink" xmlns:sketch="http://www.bohemiancoding.com/sketch/ns">
    <!-- Generator: Sketch 3.3.3 (12081) - http://www.bohemiancoding.com/sketch -->
    <title></title>
    <desc>Created with Sketch.</desc>
    <defs></defs>
    <g id="Items" stroke="none" stroke-width="1" fill="none" fill-rule="evenodd" sketch:type="MSPage">
        <g sketch:type="MSArtboardGroup" transform="translate(-768.000000, -256.000000)" id="Items-Weapon-Falchion">
            <g sketch:type="MSLayerGroup" transform="translate(768.000000, 256.000000)">
                <rect id="Rectangle-5282" sketch:type="MSShapeGroup" x="0" y="0" width="128" height="128"></rect>
                <path d="M50.0861539,30.0254929 C50.0861539,30.0254929 46.9846153,9.03505278 78,10.0345975 L78,86 L50.0861539,86 L50.0861539,30.0254929 Z" id="Rectangle-5279-Copy" fill="#DFDFDF" sketch:type="MSShapeGroup"></path>
                <path d="M75.7573593,12.5857863 L81.4142133,6.928932 L84.2426403,21.0710679 L75.7573593,12.5857863 Z" id="Rectangle-5518-Copy" fill="#DFDFDF" sketch:type="MSShapeGroup" transform="translate(80.000000, 14.000000) rotate(-315.000000) translate(-80.000000, -14.000000) "></path>
                <path d="M62.0492308,32.8655067 C62.0492308,32.8655067 60.276923,21.4764353 78,22.0187721 L78,76 L62.0492308,76 L62.0492308,32.8655067 Z" id="Path" fill="#8DA1A3" sketch:type="MSShapeGroup"></path>
                <g id="Rectangle-5277-+-Rectangle-5277-Copy-2-+-Rectangle-5277-Copy" transform="translate(44.000000, 74.000000)" sketch:type="MSShapeGroup">
                    <rect id="Rectangle-5277" fill="#674C40" x="10" y="0" width="20" height="38"></rect>
                    <rect id="Rectangle-5277-Copy-2" fill="#936956" x="4" y="32" width="32" height="14" rx="7"></rect>
                    <rect id="Rectangle-5277-Copy" fill="#936956" x="0" y="0" width="40" height="14" rx="7"></rect>
                </g>
            </g>
        </g>
    </g>
</svg>