<?xml version="1.0" encoding="UTF-8" standalone="no"?>
<svg width="130px" height="130px" viewBox="0 0 130 130" version="1.1" xmlns="http://www.w3.org/2000/svg" xmlns:xlink="http://www.w3.org/1999/xlink" xmlns:sketch="http://www.bohemiancoding.com/sketch/ns">
    <!-- Generator: Sketch 3.3.3 (12081) - http://www.bohemiancoding.com/sketch -->
    <title></title>
    <desc>Created with Sketch.</desc>
    <defs></defs>
    <g id="Items" stroke="none" stroke-width="1" fill="none" fill-rule="evenodd" sketch:type="MSPage">
        <g sketch:type="MSArtboardGroup" transform="translate(1.000000, -383.000000)" id="Items-Potion-B-04">
            <g sketch:type="MSLayerGroup" transform="translate(0.000000, 384.000000)">
                <rect id="Rectangle-5200-Copy-2" fill="#936956" sketch:type="MSShapeGroup" x="50" y="22" width="28" height="12" rx="4"></rect>
                <path d="M76,45.9999977 L76,60.2943355 C89.014927,62.2270986 99,73.4448254 99,87 C99,101.911688 86.9067942,114 71.9987599,114 L56.0012401,114 C41.088867,114 29,101.914967 29,87 C29,73.4481454 38.9881551,62.2282054 52,60.2945554 L52,60.2945554 L52,45.9999977 C48.6857984,45.9971183 46,43.3051965 46,40 C46,36.6862915 48.6764399,34 52.0053227,34 L75.9946773,34 C79.3113255,34 82,36.6930342 82,40 C82,43.3119422 79.3264126,45.9971361 76,45.9999977 Z" id="Rectangle-5200" fill="#FEFFD4" sketch:type="MSShapeGroup"></path>
                <path d="M64.0000501,97.0883842 L65.928057,98.1019974 C70.8298766,100.679036 74.0270338,98.3428238 73.0929043,92.8964311 L72.7246878,90.7495639 L74.2844782,89.229144 C78.2501335,85.3635855 77.0162391,81.6009788 71.54775,80.8063609 L69.3921727,80.4931372 L68.4281693,78.5398528 C65.9772595,73.5737671 62.0175136,73.584561 59.571931,78.5398528 L58.6079275,80.4931372 L56.4523502,80.8063609 C50.9719493,81.6027097 49.7585862,85.3719873 53.7156221,89.229144 L55.2754124,90.7495639 L54.9071959,92.8964311 C53.9710316,98.3546874 57.1808778,100.673435 62.0720432,98.1019974" id="Mask-Copy-2" fill="#9013FE" sketch:type="MSShapeGroup"></path>
            </g>
        </g>
    </g>
</svg>