<?xml version="1.0" encoding="UTF-8" standalone="no"?>
<svg width="130px" height="130px" viewBox="0 0 130 130" version="1.1" xmlns="http://www.w3.org/2000/svg" xmlns:xlink="http://www.w3.org/1999/xlink" xmlns:sketch="http://www.bohemiancoding.com/sketch/ns">
    <!-- Generator: Sketch 3.3.3 (12081) - http://www.bohemiancoding.com/sketch -->
    <title></title>
    <desc>Created with Sketch.</desc>
    <defs></defs>
    <g id="Items" stroke="none" stroke-width="1" fill="none" fill-rule="evenodd" sketch:type="MSPage">
        <g sketch:type="MSArtboardGroup" transform="translate(-895.000000, -511.000000)" id="Items-Weapon-Shield-B-02">
            <g sketch:type="MSLayerGroup" transform="translate(896.000000, 512.000000)">
                <path d="M64,114 C90.231089,110.705863 107.431259,87.1330911 107.986161,67 L107.998459,27.0093855 C107.99931,24.2427783 105.758535,22 103.000651,22 L24.9993488,22 C22.2382847,22 20,24.231557 20,27.0093855 L20,67 C20.5687412,87.1330911 37.768911,110.705863 64,114 Z" id="Oval-1047-Copy" fill="#936956" sketch:type="MSShapeGroup"></path>
                <rect id="Rectangle-997" fill="#674C40" sketch:type="MSShapeGroup" x="30" y="32" width="68" height="6"></rect>
                <path d="M62.753973,104.077933 C82.1736266,101.639186 97.5153604,83.9439149 97.9899571,66.7244877 L97.9861615,66.9969247 L97.9861628,32.0000002 L29.9960123,32.0000002 L30,67 L29.9960123,66.7176219 C30.4826565,83.9445312 45.8274424,101.63932 65.246027,104.077933 L62.753973,104.077933 Z M20,67 L20,27.0093855 C20,24.231557 22.2382847,22 24.9993488,22 L103.000651,22 C105.758535,22 107.99931,24.2427783 107.998459,27.0093855 L107.986161,67 C107.431259,87.1330911 90.231089,110.705863 64,114 C37.768911,110.705863 20.5687412,87.1330911 20,67 Z" id="Shape" fill="#8DA1A3" sketch:type="MSShapeGroup"></path>
            </g>
        </g>
    </g>
</svg>