<?xml version="1.0" encoding="UTF-8" standalone="no"?>
<svg width="128px" height="128px" viewBox="0 0 128 128" version="1.1" xmlns="http://www.w3.org/2000/svg" xmlns:xlink="http://www.w3.org/1999/xlink" xmlns:sketch="http://www.bohemiancoding.com/sketch/ns">
    <!-- Generator: Sketch 3.3.3 (12081) - http://www.bohemiancoding.com/sketch -->
    <title></title>
    <desc>Created with Sketch.</desc>
    <defs></defs>
    <g id="Items" stroke="none" stroke-width="1" fill="none" fill-rule="evenodd" sketch:type="MSPage">
        <g sketch:type="MSArtboardGroup" transform="translate(-896.000000, -384.000000)" id="Items-Weapon-BattleAxe">
            <g sketch:type="MSLayerGroup" transform="translate(896.000000, 384.000000)">
                <rect id="Rectangle-5282" sketch:type="MSShapeGroup" x="0" y="0" width="128" height="128"></rect>
                <rect id="Rectangle-5279-Copy-2" fill="#8DA1A3" sketch:type="MSShapeGroup" x="58" y="17" width="12" height="64"></rect>
                <g id="Rectangle-5279-Copy-4-+-Rectangle-5279-Copy-6" transform="translate(23.000000, 7.000000)" sketch:type="MSShapeGroup">
                    <path d="M6,7.81597009e-14 C5.99999989,9.97295437e-08 26.0000008,10 36,10 L36,42 C25.0000008,42 5.99999989,52 6,52 C-1.4319116,41.5953238 -1.39063329,10.3468866 6,7.81597009e-14 Z" id="Rectangle-5279-Copy-4" fill="#8DA1A3"></path>
                    <path d="M12.3337654,2.93621916 C8.57258212,1.28629107 5.99999996,3.5768022e-08 6,1.49213975e-13 C-1.39063329,10.3468866 -1.4319116,41.5953238 6,52 C5.99999996,52 8.53533021,50.6656157 12.289902,48.9717276 C7.13221548,37.6206522 7.17081985,14.1906266 12.3337654,2.93621916 Z" id="Rectangle-5279-Copy-6" fill="#DFDFDF"></path>
                </g>
                <g id="Rectangle-5279-Copy-4-+-Rectangle-5279-Copy-6-Copy" transform="translate(86.500000, 33.500000) scale(-1, 1) translate(-86.500000, -33.500000) translate(68.000000, 7.000000)" sketch:type="MSShapeGroup">
                    <path d="M6,7.81597009e-14 C5.99999989,9.97295437e-08 26.0000008,10 36,10 L36,42 C25.0000008,42 5.99999989,52 6,52 C-1.4319116,41.5953238 -1.39063329,10.3468866 6,7.81597009e-14 Z" id="Rectangle-5279-Copy-4" fill="#8DA1A3"></path>
                    <path d="M12.3337654,2.93621916 C8.57258212,1.28629107 5.99999996,3.5768022e-08 6,1.49213975e-13 C-1.39063329,10.3468866 -1.4319116,41.5953238 6,52 C5.99999996,52 8.53533021,50.6656157 12.289902,48.9717276 C7.13221548,37.6206522 7.17081985,14.1906266 12.3337654,2.93621916 Z" id="Rectangle-5279-Copy-6" fill="#DFDFDF"></path>
                </g>
                <g id="Rectangle-5277-+-Rectangle-5277-Copy-2-+-Rectangle-5277-Copy" transform="translate(48.000000, 74.000000)" sketch:type="MSShapeGroup">
                    <rect id="Rectangle-5277" fill="#674C40" x="6" y="0" width="20" height="38"></rect>
                    <rect id="Rectangle-5277-Copy-2" fill="#936956" x="0" y="32" width="32" height="14" rx="7"></rect>
                    <rect id="Rectangle-5277-Copy" fill="#936956" x="0" y="0" width="32" height="14" rx="7"></rect>
                </g>
            </g>
        </g>
    </g>
</svg>