<?xml version="1.0" encoding="UTF-8" standalone="no"?>
<svg width="130px" height="130px" viewBox="0 0 130 130" version="1.1" xmlns="http://www.w3.org/2000/svg" xmlns:xlink="http://www.w3.org/1999/xlink" xmlns:sketch="http://www.bohemiancoding.com/sketch/ns">
    <!-- Generator: Sketch 3.3.3 (12081) - http://www.bohemiancoding.com/sketch -->
    <title></title>
    <desc>Created with Sketch.</desc>
    <defs></defs>
    <g id="Items" stroke="none" stroke-width="1" fill="none" fill-rule="evenodd" sketch:type="MSPage">
        <g sketch:type="MSArtboardGroup" transform="translate(-767.000000, -767.000000)" id="Items-Armor-Chest-A">
            <g sketch:type="MSLayerGroup" transform="translate(768.000000, 768.000000)">
                <g id="Rectangle-5473-+-Path-Copy-6" transform="translate(22.000000, 72.000000)" sketch:type="MSShapeGroup">
                    <path d="M57.332249,40 L63.9999553,40 C75.0503269,40 84,31.045695 84,20 C84,8.95187636 75.045675,0 63.9999553,0 L20.0000447,0 C8.94967311,0 0,8.954305 0,20 C0,31.0481236 8.95432501,40 20.0000447,40 L26.667751,40 C26.6454652,39.6694764 26.6341463,39.3360286 26.6341463,39 C26.6341463,30.7157288 33.5136734,24 42,24 C50.4863266,24 57.3658537,30.7157288 57.3658537,39 C57.3658537,39.3360286 57.3545348,39.6694764 57.332249,40 Z" id="Rectangle-5473" fill="#8DA1A3"></path>
                    <path d="M82.5865009,12.5993292 C77.9073612,19.4804144 70.0160694,24 61.0747199,24 L22.9252801,24 C13.9805182,24 6.09079658,19.4806287 1.41287052,12.6004141 C4.35354168,5.21769116 11.5647526,0 20.0000447,0 L63.9999553,0 C72.4316659,0 79.6447254,5.21623823 82.5865009,12.5993292 Z" id="Path-Copy-6" fill="#5F7173"></path>
                </g>
                <path d="M22,36.0003513 C22,29.3727403 27.3822825,24 34.0036461,24 L64.0234375,24 L94.0084515,24 C100.631201,24 106,29.3739559 106,36.0003513 L106,61.9918199 C106,76.3557411 94.3642879,88 79.9971356,88 L48.0028644,88 C33.6418789,88 22,76.35441 22,61.9918199 L22,36.0003513 Z" id="Path-Copy-7" fill="#5F7173" sketch:type="MSShapeGroup"></path>
                <path d="M80,24 L92,24 L92,24 L92,45.9960546 C92,51.5273801 96.4741849,56 101.993372,56 L106,56 L106,61.9918199 C106,76.3557411 94.3642879,88 79.9971356,88 L48.0028644,88 C33.6418789,88 22,76.35441 22,61.9918199 L22,56 L26.0066283,56 C31.5168429,56 36,51.5210811 36,45.9960546 L36,24 L36,24 L48,24 C48,32.836556 55.163444,40 64,40 C72.836556,40 80,32.836556 80,24 Z" id="Rectangle-5469" fill="#8DA1A3" sketch:type="MSShapeGroup"></path>
                <path d="M36,24 L36,45.9964348 C36,52 31,56 25.0799607,56 L22,56 L22,61.9918199 C22,76.35441 33.9245135,88 48,88 L48,88 C56.2842712,88 63,78.8302631 63,67.5044491 L63,40 C56,40 48,33 48,24 L36,24 Z" id="Rectangle-5469-Copy" fill="#B5BFC0" sketch:type="MSShapeGroup"></path>
            </g>
        </g>
    </g>
</svg>