<?xml version="1.0" encoding="UTF-8" standalone="no"?>
<svg width="130px" height="130px" viewBox="0 0 130 130" version="1.1" xmlns="http://www.w3.org/2000/svg" xmlns:xlink="http://www.w3.org/1999/xlink" xmlns:sketch="http://www.bohemiancoding.com/sketch/ns">
    <!-- Generator: Sketch 3.3.3 (12081) - http://www.bohemiancoding.com/sketch -->
    <title></title>
    <desc>Created with Sketch.</desc>
    <defs></defs>
    <g id="Items" stroke="none" stroke-width="1" fill="none" fill-rule="evenodd" sketch:type="MSPage">
        <g sketch:type="MSArtboardGroup" transform="translate(-1279.000000, -1407.000000)" id="Items-Armor-Boots-F">
            <g sketch:type="MSLayerGroup" transform="translate(1280.000000, 1408.000000)">
                <g id="Rectangle-5529-+-Rectangle-5529-Copy-+-Rectangle-5529-Copy-2-Copy-Copy-Copy-Copy-Copy-Copy-Copy" transform="translate(44.000000, 50.000000)" sketch:type="MSShapeGroup">
                    <rect id="Rectangle-5529-Copy-2" fill="#674C40" x="0" y="12" width="60" height="14" rx="4"></rect>
                    <rect id="Rectangle-5529-Copy-5" fill="#936956" x="0" y="12" width="60" height="8" rx="4"></rect>
                    <path d="M41.5,12 L54,12 L54,6 C54,2.69303423 51.3168133,0 48.0069348,0 L39,0 L39,0.0836174312 C41.8379229,0.561892353 44,3.0340201 44,6 L44,12 L41.5,12 Z" id="Rectangle-926" fill="#674C40"></path>
                    <path d="M45.0718245,0.0716104525 C44.7197095,0.0243837561 44.3603394,0 43.995261,0 L38.004739,0 C33.5836436,0 30,3.57758222 30,7.99075354 L30,20 L41.9976305,20 L40,20 L40,6.00065947 C40,3.00285016 42.2035647,0.518478785 45.0718245,0.0716104525 Z" id="Rectangle-926-Copy" fill="#AD765F"></path>
                </g>
                <g id="Rectangle-5529-+-Rectangle-5529-Copy-+-Rectangle-5529-Copy-2-Copy-Copy-Copy-Copy-Copy-Copy-Copy-Copy" transform="translate(28.000000, 68.000000)" sketch:type="MSShapeGroup">
                    <rect id="Rectangle-5529-Copy-2" fill="#674C40" x="0" y="12" width="60" height="14" rx="4"></rect>
                    <rect id="Rectangle-5529-Copy-5" fill="#936956" x="0" y="12" width="60" height="8" rx="4"></rect>
                    <path d="M41.5,12 L54,12 L54,6 C54,2.69303423 51.3168133,0 48.0069348,0 L39,0 L39,0.0836174312 C41.8379229,0.561892353 44,3.0340201 44,6 L44,12 L41.5,12 Z" id="Rectangle-926" fill="#674C40"></path>
                    <path d="M45.0718245,0.0716104525 C44.7197095,0.0243837561 44.3603394,0 43.995261,0 L38.004739,0 C33.5836436,0 30,3.57758222 30,7.99075354 L30,20 L41.9976305,20 L40,20 L40,6.00065947 C40,3.00285016 42.2035647,0.518478785 45.0718245,0.0716104525 Z" id="Rectangle-926-Copy" fill="#AD765F"></path>
                </g>
            </g>
        </g>
    </g>
</svg>