<?xml version="1.0" encoding="UTF-8" standalone="no"?>
<svg width="128px" height="128px" viewBox="0 0 128 128" version="1.1" xmlns="http://www.w3.org/2000/svg" xmlns:xlink="http://www.w3.org/1999/xlink" xmlns:sketch="http://www.bohemiancoding.com/sketch/ns">
    <!-- Generator: Sketch 3.3.3 (12081) - http://www.bohemiancoding.com/sketch -->
    <title></title>
    <desc>Created with Sketch.</desc>
    <defs></defs>
    <g id="Items" stroke="none" stroke-width="1" fill="none" fill-rule="evenodd" sketch:type="MSPage">
        <g sketch:type="MSArtboardGroup" transform="translate(-128.000000, -1152.000000)" id="Items-Tools-Shovel">
            <g sketch:type="MSLayerGroup" transform="translate(128.000000, 1152.000000)">
                <rect id="Rectangle-5282" sketch:type="MSShapeGroup" x="0" y="0" width="128" height="128"></rect>
                <rect id="Rectangle-5277" fill="#936956" sketch:type="MSShapeGroup" x="54" y="33" width="20" height="73"></rect>
                <rect id="Rectangle-5430" fill="#8DA1A3" sketch:type="MSShapeGroup" x="54" y="34" width="20" height="14"></rect>
                <path d="M46,11.9968389 C46,9.78944571 47.7852456,8 49.9901786,8 L78.0098214,8 C80.2135362,8 82,9.79412025 82,11.9968389 L82,22 C82,29.7319865 75.7292786,36 68.0041593,36 L59.9958407,36 C52.2661513,36 46,29.7336865 46,22 L46,11.9968389 Z M55,18 L73,18 L73,22 C73,24.209139 71.2082844,26 69.0052166,26 L58.9947834,26 C56.7885255,26 55,24.2046438 55,22 L55,18 Z" id="Rectangle-5431" fill="#8DA1A3" sketch:type="MSShapeGroup"></path>
                <path d="M40,74.0002124 C40,71.7909561 41.7940525,70 44.0098932,70 L83.9901068,70 C86.2047097,70 88,71.7920319 88,74.0002124 L88,99.9997876 C88,102.209044 86.9663156,105.457768 85.6279523,107.218039 C85.6279523,107.218039 76,122 64.4228516,122 C53,122 42.4785098,107.135361 42.4785098,107.135361 C41.1096666,105.403749 40,102.207968 40,99.9997876 L40,74.0002124 Z" id="Rectangle-5428" fill="#8DA1A3" sketch:type="MSShapeGroup"></path>
                <rect id="Rectangle-5277-Copy-3" fill="#8DA1A3" sketch:type="MSShapeGroup" x="54" y="70" width="20" height="23"></rect>
            </g>
        </g>
    </g>
</svg>