<?xml version="1.0" encoding="UTF-8" standalone="no"?>
<svg width="130px" height="130px" viewBox="0 0 130 130" version="1.1" xmlns="http://www.w3.org/2000/svg" xmlns:xlink="http://www.w3.org/1999/xlink" xmlns:sketch="http://www.bohemiancoding.com/sketch/ns">
    <!-- Generator: Sketch 3.3.3 (12081) - http://www.bohemiancoding.com/sketch -->
    <title></title>
    <desc>Created with Sketch.</desc>
    <defs></defs>
    <g id="Items" stroke="none" stroke-width="1" fill="none" fill-rule="evenodd" sketch:type="MSPage">
        <g sketch:type="MSArtboardGroup" transform="translate(1.000000, -895.000000)" id="Items-Food-Carrot">
            <g sketch:type="MSLayerGroup" transform="translate(0.000000, 896.000000)">
                <g id="Oval-1161-+-Oval-1161-Copy-3" transform="translate(33.000000, 15.000000)" sketch:type="MSShapeGroup">
                    <path d="M32,37.1234068 C31.803475,37.378482 31.5744463,37.5852421 31.3102415,37.7377808 C26.7584223,40.3657748 13.4894062,25.9048051 10.8258183,21.2913356 C8.16223045,16.6778661 9.69294438,10.8075001 14.2447636,8.17950604 C18.7965827,5.55151201 24.6458259,7.1610579 27.3094137,11.7745274 C28.6356209,14.0715856 30.7614447,19.8661943 32,25.4304007 C33.2385553,19.8661943 35.3643791,14.0715856 36.6905863,11.7745274 C39.3541741,7.1610579 45.2034173,5.55151201 49.7552364,8.17950604 C54.3070556,10.8075001 55.8377695,16.6778661 53.1741817,21.2913356 C50.5105938,25.9048051 37.2415777,40.3657748 32.6897585,37.7377808 C32.4255537,37.5852421 32.196525,37.378482 32,37.1234068 Z" id="Oval-1161" fill="#9BCA6A"></path>
                    <path d="M30.4622086,37.1982016 C30.4393745,37.5702031 30.3463664,37.9081 30.1745403,38.2057114 C27.7014606,42.489211 9.83726346,36.8052621 5.42733972,34.2591914 C1.01741597,31.7131207 -0.55270638,26.1766601 1.92037329,21.8931605 C4.39345296,17.6096608 9.9732297,16.2011963 14.3831534,18.747267 C16.8226069,20.1556861 22.1521237,24.6494536 26.0091925,29.1092005 C23.7766707,22.5349162 22.3445133,14.0696755 22.3445133,10.6759487 C22.3445133,4.77978503 26.667422,0 32,0 C37.332578,0 41.6554867,4.77978503 41.6554867,10.6759487 C41.6554867,14.0696755 40.2233293,22.5349162 37.9908075,29.1092005 C41.8478763,24.6494536 47.1773931,20.1556861 49.6168466,18.747267 C54.0267703,16.2011963 59.606547,17.6096608 62.0796267,21.8931605 C64.5527064,26.1766601 62.982584,31.7131207 58.5726603,34.2591914 C54.1627365,36.8052621 36.2985394,42.489211 33.8254597,38.2057114 C33.6536336,37.9081 33.5606255,37.5702031 33.5377914,37.1982016 C33.0370081,37.5721836 32.5233668,37.7764337 32,37.7764337 C31.4766332,37.7764337 30.9629919,37.5721836 30.4622086,37.1982016 Z" id="Oval-1161-Copy-3" fill="#B8E986"></path>
                </g>
                <path d="M43.7300621,57.0742675 C52.7093937,48.0949358 65.0481566,49.7916832 71.2842642,60.8548407 L90.7377687,95.3663016 C98.7490155,109.578642 93.7192826,114.60407 79.5096953,106.594375 L44.9982344,87.1408705 C33.9309498,80.9024365 32.238533,68.5657965 41.2176612,59.5866684 L43.7300621,57.0742675 Z" id="Rectangle-5214" fill="#F6A623" sketch:type="MSShapeGroup" transform="translate(65.000000, 80.857167) rotate(-315.000000) translate(-65.000000, -80.857167) "></path>
            </g>
        </g>
    </g>
</svg>