<?xml version="1.0" encoding="UTF-8" standalone="no"?>
<svg width="130px" height="130px" viewBox="0 0 130 130" version="1.1" xmlns="http://www.w3.org/2000/svg" xmlns:xlink="http://www.w3.org/1999/xlink" xmlns:sketch="http://www.bohemiancoding.com/sketch/ns">
    <!-- Generator: Sketch 3.3.3 (12081) - http://www.bohemiancoding.com/sketch -->
    <title></title>
    <desc>Created with Sketch.</desc>
    <defs></defs>
    <g id="Items" stroke="none" stroke-width="1" fill="none" fill-rule="evenodd" sketch:type="MSPage">
        <g sketch:type="MSArtboardGroup" transform="translate(-127.000000, -1023.000000)" id="Items-Food-Beer">
            <g sketch:type="MSLayerGroup" transform="translate(128.000000, 1024.000000)">
                <g id="Group" transform="translate(36.000000, 39.000000)" sketch:type="MSShapeGroup">
                    <path d="M46,24.9905068 L46,24.9905068 L46,45.0094932 C46,45.0038129 45.9961854,45 45.9943015,45 L60.0056985,45 C60.0007672,45 60,45.0007667 60,45.0094932 L60,24.9905068 C60,24.9961871 60.0038146,25 60.0056985,25 L45.9943015,25 C45.9992328,25 46,24.9992333 46,24.9905068 L46,24.9905068 Z M36,24.9905068 C36,19.4729022 40.4798689,15 45.9943015,15 L60.0056985,15 C65.5253988,15 70,19.4720759 70,24.9905068 L70,45.0094932 C70,50.5270978 65.5201311,55 60.0056985,55 L45.9943015,55 C40.4746012,55 36,50.5279241 36,45.0094932 L36,24.9905068 L36,24.9905068 Z" id="Shape" fill="#FFC23A"></path>
                    <rect id="Rectangle-5218" fill="#FFC23A" x="0" y="3" width="56" height="64" rx="6"></rect>
                    <path d="M5,27.9992205 C5,24.6859425 7.69303423,22 11,22 C14.3137085,22 17,24.6866239 17,27.9992205 L17,56.0007795 C17,59.3140575 14.3069658,62 11,62 C7.6862915,62 5,59.3133761 5,56.0007795 L5,27.9992205 Z M39,27.9992205 C39,24.6859425 41.6930342,22 45,22 C48.3137085,22 51,24.6866239 51,27.9992205 L51,56.0007795 C51,59.3140575 48.3069658,62 45,62 C41.6862915,62 39,59.3133761 39,56.0007795 L39,27.9992205 Z M22,27.9992205 C22,24.6859425 24.6930342,22 28,22 C31.3137085,22 34,24.6866239 34,27.9992205 L34,56.0007795 C34,59.3140575 31.3069658,62 28,62 C24.6862915,62 22,59.3133761 22,56.0007795 L22,27.9992205 Z" id="Rectangle-5221-Copy-2" fill="#F0B32A"></path>
                    <path d="M18,10 L18,11.0033142 C18,13.7584215 20.2385763,16 23,16 C25.7558048,16 28,13.7629076 28,11.0033142 L28,10 L31,10 L56,10 L56,5 C56,2.24419519 53.7640014,0 51.0057574,0 L4.99424261,0 C2.22982375,0 0,2.23857625 0,5 L0,10 L8,10 L8,15.0047466 C8,17.763962 10.2385763,20 13,20 C15.7558048,20 18,17.7635489 18,15.0047466 L18,10 L18,10 Z" id="Rectangle-5221-Copy" fill="#FFFFFF"></path>
                </g>
            </g>
        </g>
    </g>
</svg>