<?xml version="1.0" encoding="UTF-8" standalone="no"?>
<svg width="130px" height="130px" viewBox="0 0 130 130" version="1.1" xmlns="http://www.w3.org/2000/svg" xmlns:xlink="http://www.w3.org/1999/xlink" xmlns:sketch="http://www.bohemiancoding.com/sketch/ns">
    <!-- Generator: Sketch 3.3.3 (12081) - http://www.bohemiancoding.com/sketch -->
    <title></title>
    <desc>Created with Sketch.</desc>
    <defs></defs>
    <g id="Items" stroke="none" stroke-width="1" fill="none" fill-rule="evenodd" sketch:type="MSPage">
        <g sketch:type="MSArtboardGroup" transform="translate(-127.000000, -1407.000000)" id="Items-Sack-A">
            <g sketch:type="MSLayerGroup" transform="translate(128.000000, 1408.000000)">
                <path d="M32.0627572,74.5340596 C32.6276694,58.2228489 46.5098501,45 63.0936919,45 L64.0765481,45 C80.6495479,45 95.1850931,58.3893251 96.54232,74.9025234 L99.2659735,108.040852 C99.7180443,113.541138 95.6078748,118 90.0923116,118 L38.0779119,118 C32.5593675,118 28.5244937,113.547428 29.0599946,108.047113 C29.0599946,108.047113 31.2951709,85.7410048 32.0627572,74.5340596 Z M45.050481,18.4837341 C43.959896,16.5597209 44.861993,15 47.0805307,15 L80.6406045,15 C82.852355,15 83.765205,16.5527243 82.6706542,18.4837341 L75.7756226,30.6479692 C74.4132169,33.0515294 71.0668984,35 68.3068716,35 L59.4142635,35 C56.651792,35 53.3047278,33.0459008 51.9455125,30.6479692 L45.050481,18.4837341 Z" id="Rectangle-5427" fill="#FEFFD4" sketch:type="MSShapeGroup"></path>
                <path d="M64,45 L64.0765481,45 C80.6495479,45 95.1850931,58.3893251 96.54232,74.9025234 L99.2659735,108.040852 C99.7180443,113.541138 95.6078748,118 90.0923116,118 L51.0389559,118 L64,118 L64,45 Z M64,15 L80.6406045,15 C82.852355,15 83.765205,16.5527243 82.6706542,18.4837341 L75.7756226,30.6479692 C74.4132169,33.0515294 71.0668984,35 68.3068716,35 L64,35 L64,15 Z" id="Rectangle-5427-Copy-3" fill="#ECD7C1" sketch:type="MSShapeGroup"></path>
                <rect id="Rectangle-5429" fill="#8B572A" sketch:type="MSShapeGroup" x="54" y="40" width="20" height="6" rx="3"></rect>
                <rect id="Rectangle-5429-Copy-2" fill="#8B572A" sketch:type="MSShapeGroup" transform="translate(71.000000, 49.000000) rotate(-90.000000) translate(-71.000000, -49.000000) " x="63" y="46" width="16" height="6" rx="3"></rect>
                <rect id="Rectangle-5429-Copy" fill="#8B572A" sketch:type="MSShapeGroup" x="54" y="34" width="20" height="6" rx="3"></rect>
            </g>
        </g>
    </g>
</svg>