<?xml version="1.0" encoding="UTF-8" standalone="no"?>
<svg width="130px" height="130px" viewBox="0 0 130 130" version="1.1" xmlns="http://www.w3.org/2000/svg" xmlns:xlink="http://www.w3.org/1999/xlink" xmlns:sketch="http://www.bohemiancoding.com/sketch/ns">
    <!-- Generator: Sketch 3.3.3 (12081) - http://www.bohemiancoding.com/sketch -->
    <title></title>
    <desc>Created with Sketch.</desc>
    <defs></defs>
    <g id="Items" stroke="none" stroke-width="1" fill="none" fill-rule="evenodd" sketch:type="MSPage">
        <g sketch:type="MSArtboardGroup" transform="translate(-767.000000, -639.000000)" id="Items-Armor-Chest-B">
            <g sketch:type="MSLayerGroup" transform="translate(768.000000, 640.000000)">
                <rect id="Rectangle-5473" fill="#674C40" sketch:type="MSShapeGroup" x="30" y="48" width="68" height="58" rx="14"></rect>
                <path d="M22,35.996221 C22,29.3708911 27.3797281,24 34.0018901,24 L63.3496094,24 L93.9983896,24 C100.626696,24 106,29.3695154 106,35.996221 L106,54.0082317 C106,68.3630889 94.3642879,80 79.9971356,80 L48.0028644,80 C33.6418789,80 22,68.3627636 22,54.0082317 L22,35.996221 Z" id="Path-Copy-7" fill="#674C40" sketch:type="MSShapeGroup"></path>
                <path d="M80,24 L94,24 L94,42.0019251 C94,47.5188309 98.4741849,52 103.993372,52 L106,52 L106,64.9969363 C106,72.1783301 100.176596,78 92.9901684,78 L35.0098316,78 C27.8247,78 22,72.1697473 22,64.9969363 L22,52 L24.0066283,52 C29.5168429,52 34,47.5237094 34,42.0019251 L34,24 L34,24 L48,24 C48,32.836556 55.163444,40 64,40 C72.836556,40 80,32.836556 80,24 Z" id="Rectangle-5469" fill="#936956" sketch:type="MSShapeGroup"></path>
                <path d="M78,78 L50,78 C56.0240535,78 61.2705422,74.6708494 64,69.7520143 C66.7294578,74.6708494 71.9759465,78 78,78 Z" id="Rectangle-5675" fill="#674C40" sketch:type="MSShapeGroup"></path>
                <path d="M80,24 L94,24 L94,40.0029381 C94,43.3150239 91.3172241,46 88.0018149,46 L85.9981851,46 C82.685479,46 80,43.3133742 80,40.0029381 L80,24 Z M34,24 L48,24 L48,39.0088344 C48,42.8699485 44.8581267,46 41,46 C37.1340068,46 34,42.8713003 34,39.0088344 L34,24 Z" id="Rectangle-5673-Copy" fill="#AD765F" sketch:type="MSShapeGroup"></path>
                <path d="M30,81 L37,81 L42,81 L42,87 C42,90.3137085 39.3069658,93 36,93 L36,93 C32.6862915,93 30,90.3069658 30,87 L30,81 Z" id="Rectangle-5673-Copy-2" fill="#936956" sketch:type="MSShapeGroup" transform="translate(36.000000, 87.000000) rotate(-90.000000) translate(-36.000000, -87.000000) "></path>
                <path d="M85,81 L91,81 L97,81 L97,89.0018149 C97,92.314521 94.3069658,95 91,95 L91,95 C87.6862915,95 85,92.3172241 85,89.0018149 L85,81 Z" id="Rectangle-5673-Copy-3" fill="#936956" sketch:type="MSShapeGroup" transform="translate(91.000000, 88.000000) rotate(90.000000) translate(-91.000000, -88.000000) "></path>
            </g>
        </g>
    </g>
</svg>