<?xml version="1.0" encoding="UTF-8" standalone="no"?>
<svg width="130px" height="130px" viewBox="0 0 130 130" version="1.1" xmlns="http://www.w3.org/2000/svg" xmlns:xlink="http://www.w3.org/1999/xlink" xmlns:sketch="http://www.bohemiancoding.com/sketch/ns">
    <!-- Generator: Sketch 3.3.3 (12081) - http://www.bohemiancoding.com/sketch -->
    <title></title>
    <desc>Created with Sketch.</desc>
    <defs></defs>
    <g id="Items" stroke="none" stroke-width="1" fill="none" fill-rule="evenodd" sketch:type="MSPage">
        <g sketch:type="MSArtboardGroup" transform="translate(-895.000000, -895.000000)" id="Items-Armor-Gloves-E">
            <g sketch:type="MSLayerGroup" transform="translate(896.000000, 896.000000)">
                <g id="Group-Copy-7" transform="translate(44.000000, 26.000000)" fill="#57686A" sketch:type="MSShapeGroup">
                    <rect id="Rectangle-5637" x="5" y="32" width="34" height="44" rx="4"></rect>
                    <rect id="Rectangle-5638" transform="translate(41.000000, 49.000000) rotate(-45.000000) translate(-41.000000, -49.000000) " x="24" y="43" width="34" height="12" rx="8"></rect>
                    <rect id="Rectangle-5638-Copy-5" transform="translate(33.000000, 62.000000) rotate(-45.000000) translate(-33.000000, -62.000000) " x="16" y="56" width="34" height="12" rx="8"></rect>
                    <rect id="Rectangle-5638-Copy" transform="translate(8.000000, 32.500000) rotate(-8.000000) translate(-8.000000, -32.500000) " x="3" y="13" width="10" height="39" rx="8"></rect>
                    <rect id="Rectangle-5638-Copy-9" transform="translate(9.000000, 36.500000) rotate(-8.000000) translate(-9.000000, -36.500000) " x="4" y="17" width="10" height="39" rx="8"></rect>
                    <rect id="Rectangle-5638-Copy-2" transform="translate(17.000000, 26.000000) rotate(-8.000000) translate(-17.000000, -26.000000) " x="12" y="2" width="10" height="48" rx="8"></rect>
                    <rect id="Rectangle-5638-Copy-6" transform="translate(18.000000, 32.000000) rotate(-8.000000) translate(-18.000000, -32.000000) " x="13" y="8" width="10" height="48" rx="8"></rect>
                    <rect id="Rectangle-5638-Copy-3" x="21" y="0" width="10" height="48" rx="8"></rect>
                    <rect id="Rectangle-5638-Copy-7" x="21" y="7" width="10" height="48" rx="8"></rect>
                    <rect id="Rectangle-5638-Copy-4" transform="translate(35.000000, 31.000000) rotate(8.000000) translate(-35.000000, -31.000000) " x="30" y="7" width="10" height="48" rx="8"></rect>
                    <rect id="Rectangle-5638-Copy-8" transform="translate(34.000000, 37.000000) rotate(8.000000) translate(-34.000000, -37.000000) " x="29" y="13" width="10" height="48" rx="8"></rect>
                    <path d="M3.76666036,53.0000811 C3.89553029,51.343182 5.34331243,50 7.00235843,50 L34.9976416,50 C36.6557983,50 38.1047128,51.3463068 38.2333396,53.0000811 L39.7666604,72.7142047 C39.8955303,74.3711037 38.933869,76.5232791 37.6156219,77.5235813 L28.3447533,84.5584312 C24.3842282,87.5637267 17.9427318,87.5927775 13.952198,84.6195403 L4.4089339,77.5091162 C3.07851644,76.5178587 2.10471275,74.3679789 2.23333964,72.7142047 L3.76666036,53.0000811 Z" id="Rectangle-5637-Copy"></path>
                    <path d="M4,32.9925398 C4,31.3398057 5.34331243,30 7.00235843,30 L34.9976416,30 C36.6557983,30 38,31.3529255 38,32.9925398 L38,45.0074602 C38,46.6601943 36.8434526,48.6873405 35.4261138,49.5296703 L28.9096242,53.4024447 C24.6371295,55.9416044 17.6982564,55.9763508 13.3907579,53.4681396 L6.589654,49.5079283 C5.15942759,48.6751225 4,46.6470745 4,45.0074602 L4,32.9925398 Z" id="Rectangle-5637-Copy-2" transform="translate(21.000000, 44.000000) rotate(-180.000000) translate(-21.000000, -44.000000) "></path>
                    <rect id="Rectangle-865" x="21" y="23" width="10" height="22" rx="8"></rect>
                    <rect id="Rectangle-865-Copy" x="30" y="27" width="10" height="26" rx="8"></rect>
                    <rect id="Rectangle-865-Copy-3" transform="translate(9.000000, 41.500000) rotate(-8.000000) translate(-9.000000, -41.500000) " x="4" y="27" width="10" height="29" rx="8"></rect>
                    <rect id="Rectangle-865-Copy-2" x="11" y="23" width="10" height="22" rx="8"></rect>
                </g>
                <g id="Group-Copy-8" transform="translate(33.000000, 16.000000)" sketch:type="MSShapeGroup">
                    <rect id="Rectangle-5637" fill="#8DA1A3" x="5" y="32" width="34" height="44" rx="4"></rect>
                    <rect id="Rectangle-5638" fill="#6D8183" transform="translate(41.000000, 49.000000) rotate(-45.000000) translate(-41.000000, -49.000000) " x="24" y="43" width="34" height="12" rx="8"></rect>
                    <rect id="Rectangle-5638-Copy-5" fill="#8DA1A3" transform="translate(33.000000, 62.000000) rotate(-45.000000) translate(-33.000000, -62.000000) " x="16" y="56" width="34" height="12" rx="8"></rect>
                    <rect id="Rectangle-5638-Copy" fill="#5F7173" transform="translate(8.000000, 32.500000) rotate(-8.000000) translate(-8.000000, -32.500000) " x="3" y="13" width="10" height="39" rx="8"></rect>
                    <rect id="Rectangle-5638-Copy-9" fill="#6D8183" transform="translate(9.000000, 36.500000) rotate(-8.000000) translate(-9.000000, -36.500000) " x="4" y="17" width="10" height="39" rx="8"></rect>
                    <rect id="Rectangle-5638-Copy-2" fill="#5F7173" transform="translate(17.000000, 26.000000) rotate(-8.000000) translate(-17.000000, -26.000000) " x="12" y="2" width="10" height="48" rx="8"></rect>
                    <rect id="Rectangle-5638-Copy-6" fill="#6D8183" transform="translate(18.000000, 32.000000) rotate(-8.000000) translate(-18.000000, -32.000000) " x="13" y="8" width="10" height="48" rx="8"></rect>
                    <rect id="Rectangle-5638-Copy-3" fill="#5F7173" x="21" y="0" width="10" height="48" rx="8"></rect>
                    <rect id="Rectangle-5638-Copy-7" fill="#6D8183" x="21" y="7" width="10" height="48" rx="8"></rect>
                    <rect id="Rectangle-5638-Copy-4" fill="#5F7173" transform="translate(35.000000, 31.000000) rotate(8.000000) translate(-35.000000, -31.000000) " x="30" y="7" width="10" height="48" rx="8"></rect>
                    <rect id="Rectangle-5638-Copy-8" fill="#6D8183" transform="translate(34.000000, 37.000000) rotate(8.000000) translate(-34.000000, -37.000000) " x="29" y="13" width="10" height="48" rx="8"></rect>
                    <rect id="Rectangle-865" fill="#8DA1A3" x="21" y="23" width="10" height="22" rx="8"></rect>
                    <rect id="Rectangle-865-Copy" fill="#8DA1A3" x="30" y="27" width="10" height="26" rx="8"></rect>
                    <rect id="Rectangle-865-Copy-3" fill="#8DA1A3" transform="translate(9.000000, 41.500000) rotate(-8.000000) translate(-9.000000, -41.500000) " x="4" y="27" width="10" height="29" rx="8"></rect>
                    <rect id="Rectangle-865-Copy-2" fill="#8DA1A3" x="11" y="23" width="10" height="22" rx="8"></rect>
                    <path d="M4.67785054,52.8031404 C4.66797881,52.8599732 4.65965614,52.9172331 4.65293114,52.9748759 L2.34706886,72.7394098 C2.15497577,74.3859219 3.07851644,76.5178587 4.4089339,77.5091162 L13.952198,84.6195403 C17.9427318,87.5927775 24.3842282,87.5637267 28.3447533,84.5584312 L37.6156219,77.5235813 C38.933869,76.5232791 39.844612,74.3823884 39.6529311,72.7394098 L37.3470689,52.9748759 C37.3379021,52.8963036 37.3257652,52.8184558 37.3107826,52.7414423 L36.993672,48.4604493 C36.4429514,41.025721 29.9488392,35 22.488546,35 L19.5046573,35 C12.0314616,35 5.55019809,41.0264484 4.99953136,48.4604493 L4.67785054,52.8031404 Z" id="Path" fill="#B5BFC0"></path>
                </g>
            </g>
        </g>
    </g>
</svg>