<?xml version="1.0" encoding="UTF-8" standalone="no"?>
<svg width="130px" height="130px" viewBox="0 0 130 130" version="1.1" xmlns="http://www.w3.org/2000/svg" xmlns:xlink="http://www.w3.org/1999/xlink" xmlns:sketch="http://www.bohemiancoding.com/sketch/ns">
    <!-- Generator: Sketch 3.3.3 (12081) - http://www.bohemiancoding.com/sketch -->
    <title></title>
    <desc>Created with Sketch.</desc>
    <defs></defs>
    <g id="Items" stroke="none" stroke-width="1" fill="none" fill-rule="evenodd" sketch:type="MSPage">
        <g sketch:type="MSArtboardGroup" transform="translate(-767.000000, 1.000000)" id="Items-Weapon-Arch">
            <g sketch:type="MSLayerGroup" transform="translate(768.000000, 0.000000)">
                <g id="Shape-+-Shape-+-Oval-1038" transform="translate(48.000000, 17.000000)" sketch:type="MSShapeGroup">
                    <path d="M44,8.99937496 L44,87.000625 L44,89 L48,89 L48,87.000625 L48,8.99937496 L48,7 L44,7 L44,8.99937496 L44,8.99937496 Z" id="Shape" fill="#FEFFD4"></path>
                    <path d="M44,9.10526316 L44,14.8947368 L44,17 L48,17 L48,14.8947368 L48,9.10526316 L48,7 L44,7 L44,9.10526316 Z M44,49.1052632 L44,54.8947368 L44,57 L48,57 L48,54.8947368 L48,49.1052632 L48,47 L44,47 L44,49.1052632 Z" id="Shape" fill="#D6BEA6"></path>
                    <path d="M50,10.0517282 L50,0.0409111631 L50.0000168,0.0409118524 C49.3367276,0.0137259069 48.6699668,0 48,0 C21.490332,0 0,21.490332 0,48 C0,74.509668 21.490332,96 48,96 C48.6699668,96 49.3367276,95.9862741 50,95.9590888 L50,85.9482718 C49.3376777,85.9826153 48.6708691,86 48,86 C27.0131795,86 10,68.9868205 10,48 C10,27.0131795 27.0131795,10 48,10 C48.6708691,10 49.3376777,10.0173847 50,10.0517282 Z" id="Shape" fill="#936956"></path>
                </g>
                <g id="Group" transform="translate(19.000000, 52.000000)" sketch:type="MSShapeGroup">
                    <path d="M14.974026,14 L87.025974,14 L89,14 L89,10 L87.025974,10 L14.974026,10 L13,10 L13,14 L14.974026,14 L14.974026,14 Z" id="Shape" fill="#674C40"></path>
                    <path d="M15.0533537,10.0974142 C15.0533537,10.0974142 13.9999997,11.7169385 13.9999997,12 C13.9999997,12 6.86871004,12 3.53930041e-09,12 C0.000131508727,11.0603343 1.09872176,10.531336 3.04019695,9.76773566 L11.8189175,6.31498264 C15.7366059,4.77411908 17.1777949,6.45511757 15.0533537,10.0974142 Z" id="Rectangle-5288-Copy-4" fill="#DFDFDF"></path>
                    <path d="M15.0533537,16.353696 C15.0533537,16.353696 13.9999997,17.9732203 13.9999997,18.2562819 C13.9999997,18.2562819 6.86871004,18.2562818 3.53930041e-09,18.2562819 C0.000131508727,17.3166161 1.09872176,16.7876179 3.04019695,16.0240175 L11.8189175,12.5712645 C15.7366059,11.0304009 17.1777949,12.7113994 15.0533537,16.353696 Z" id="Rectangle-5288-Copy-7" fill="#8DA1A3" transform="translate(8.016819, 15.128141) scale(1, -1) translate(-8.016819, -15.128141) "></path>
                    <path d="M87.8523356,1.20704803 C87.2874117,-0.353817553 85.7574888,-0.709518102 83.9587638,0.512978604 L70,10 L79.0051318,10 L88.0102636,10 C90.7642598,10 93,7.76167403 93,5.00055903 L93,2.70789822 C93,-0.0513767314 91.1525286,-1.03591577 88.8735572,0.512978604 L87.8523356,1.20704803 Z" id="Rectangle-5288-Copy-5" fill="#CC4B2B"></path>
                    <path d="M87.8523356,15.207048 C87.2874117,13.6461824 85.7574888,13.2904819 83.9587638,14.5129786 L70,24 L79.0051318,24 L88.0102636,24 C90.7642598,24 93,21.761674 93,19.000559 L93,16.7078982 C93,13.9486233 91.1525286,12.9640842 88.8735572,14.5129786 L87.8523356,15.207048 Z" id="Rectangle-5288-Copy-6" fill="#CC4B2B" transform="translate(81.500000, 19.000000) scale(1, -1) translate(-81.500000, -19.000000) "></path>
                </g>
            </g>
        </g>
    </g>
</svg>