<?xml version="1.0" encoding="UTF-8" standalone="no"?>
<svg width="130px" height="130px" viewBox="0 0 130 130" version="1.1" xmlns="http://www.w3.org/2000/svg" xmlns:xlink="http://www.w3.org/1999/xlink" xmlns:sketch="http://www.bohemiancoding.com/sketch/ns">
    <!-- Generator: Sketch 3.3.3 (12081) - http://www.bohemiancoding.com/sketch -->
    <title></title>
    <desc>Created with Sketch.</desc>
    <defs></defs>
    <g id="Items" stroke="none" stroke-width="1" fill="none" fill-rule="evenodd" sketch:type="MSPage">
        <g sketch:type="MSArtboardGroup" transform="translate(-1023.000000, -639.000000)" id="Items-Armor-Helmet-B-01">
            <g sketch:type="MSLayerGroup" transform="translate(1024.000000, 640.000000)">
                <g id="Rectangle-5401-+-Rectangle-5401-Copy" transform="translate(22.000000, 47.000000)" fill="#D8D8D8" sketch:type="MSShapeGroup">
                    <path d="M1.93807521,8.37691066 C0.368249923,3.08282289 3.24908043,0.466099626 8.37750691,2.53427845 L29.0798731,10.8830762 C29.0798731,10.8830762 16.1491917,34.3336758 10.6363398,26.8528114 C3.62651424,17.3405744 1.93807521,8.37691066 1.93807521,8.37691066 Z" id="Rectangle-5401" transform="translate(15.678699, 15.499740) rotate(-8.000000) translate(-15.678699, -15.499740) "></path>
                    <path d="M56.9380752,8.37691066 C55.3682499,3.08282289 58.2490804,0.466099626 63.3775069,2.53427845 L84.0798731,10.8830762 C84.0798731,10.8830762 71.1491917,34.3336758 65.6363398,26.8528114 C58.6265142,17.3405744 56.9380752,8.37691066 56.9380752,8.37691066 Z" id="Rectangle-5401-Copy" transform="translate(70.678699, 15.499740) scale(-1, 1) rotate(-8.000000) translate(-70.678699, -15.499740) "></path>
                </g>
                <path d="M98,81 C98,62.7746033 83.2253967,48 65,48 C46.7746033,48 32,62.7746033 32,81 L98,81 Z" id="Oval-1047" fill="#936956" sketch:type="MSShapeGroup"></path>
                <rect id="Rectangle-5365-Copy-2" fill="#8DA1A3" sketch:type="MSShapeGroup" x="27" y="80" width="76" height="14" rx="8"></rect>
                <rect id="Rectangle-5365-Copy-3" fill="#8DA1A3" sketch:type="MSShapeGroup" x="58" y="42" width="14" height="44" rx="8"></rect>
            </g>
        </g>
    </g>
</svg>