<?xml version="1.0" encoding="UTF-8" standalone="no"?>
<svg width="130px" height="130px" viewBox="0 0 130 130" version="1.1" xmlns="http://www.w3.org/2000/svg" xmlns:xlink="http://www.w3.org/1999/xlink" xmlns:sketch="http://www.bohemiancoding.com/sketch/ns">
    <!-- Generator: Sketch 3.3.3 (12081) - http://www.bohemiancoding.com/sketch -->
    <title></title>
    <desc>Created with Sketch.</desc>
    <defs></defs>
    <g id="Items" stroke="none" stroke-width="1" fill="none" fill-rule="evenodd" sketch:type="MSPage">
        <g sketch:type="MSArtboardGroup" transform="translate(-1279.000000, -1279.000000)" id="Items-Armor-Boots-D">
            <g sketch:type="MSLayerGroup" transform="translate(1280.000000, 1280.000000)">
                <g id="Rectangle-5529-+-Rectangle-5529-Copy-+-Rectangle-5529-Copy-2-Copy-Copy-Copy-Copy" transform="translate(50.000000, 44.000000)" sketch:type="MSShapeGroup">
                    <path d="M6,2 L24.0099418,2 C29.5272986,2 34,6.47593818 34,12 L34,22 L21,22 L15.9975325,22 C10.4760478,22 6,17.5240618 6,12 L6,2 Z" id="Rectangle-5529-Copy-4" fill="#739B64"></path>
                    <path d="M4,16 L47.2051251,23.7152009 C54.2715394,24.9770606 60,31.8216283 60,38.9905224 L60,42 L4,42 L4,16 Z" id="Rectangle-5529-Copy" fill="#8BB363"></path>
                    <path d="M0,0 L10,0 C15.5228475,0 20,4.47593818 20,10 L20,20 L12,20 L9.99822157,20 C4.47635627,20 0,15.5240618 0,10 L0,0 Z" id="Rectangle-5529-Copy-6" fill="#8BB363"></path>
                    <path d="M4,38 L45,38 L60,38 L60,41 C60,42.6568542 58.6572461,44 57.0089949,44 L6.99100514,44 C5.33911861,44 4,42.6534829 4,41 L4,38 Z" id="Rectangle-5529-Copy-2" fill="#739B64"></path>
                </g>
                <g id="Rectangle-5529-+-Rectangle-5529-Copy-+-Rectangle-5529-Copy-2-Copy-Copy-Copy" transform="translate(26.000000, 50.000000)" sketch:type="MSShapeGroup">
                    <path d="M6,2 L24.0099418,2 C29.5272986,2 34,6.47593818 34,12 L34,22 L21,22 L15.993056,22 C10.4740436,22 6,17.5240618 6,12 L6,2 Z" id="Rectangle-5529-Copy-4" fill="#739B64"></path>
                    <path d="M4,16 L46.2111876,23.5377121 C53.8265384,24.8975961 60,32.2702577 60,40.0052166 L60,41.0074602 C60,42.6601943 58.6572461,44 57.0089949,44 L6.99100514,44 C5.33911861,44 4,42.6495018 4,41.0035095 L4,16 Z" id="Rectangle-5529-Copy" fill="#9BCA6A"></path>
                    <path d="M0,0 L10,0 C15.5228475,0 20,4.47593818 20,10 L20,20 L16,20 L10.0047599,20 C4.47928359,20 0,15.5240618 0,10 L0,0 Z" id="Rectangle-5529-Copy-6" fill="#9BCA6A"></path>
                    <path d="M4,38 L34,38 L60,38 L60,41 C60,42.6568542 58.6572461,44 57.0089949,44 L6.99100514,44 C5.33911861,44 4,42.6534829 4,41 L4,38 Z" id="Rectangle-5529-Copy-2" fill="#739B64"></path>
                </g>
            </g>
        </g>
    </g>
</svg>