<?xml version="1.0" encoding="UTF-8" standalone="no"?>
<svg width="128px" height="128px" viewBox="0 0 128 128" version="1.1" xmlns="http://www.w3.org/2000/svg" xmlns:xlink="http://www.w3.org/1999/xlink" xmlns:sketch="http://www.bohemiancoding.com/sketch/ns">
    <!-- Generator: Sketch 3.3.3 (12081) - http://www.bohemiancoding.com/sketch -->
    <title></title>
    <desc>Created with Sketch.</desc>
    <defs></defs>
    <g id="Items" stroke="none" stroke-width="1" fill="none" fill-rule="evenodd" sketch:type="MSPage">
        <g sketch:type="MSArtboardGroup" transform="translate(-1024.000000, -256.000000)" id="Items-Weapon-Sai">
            <g sketch:type="MSLayerGroup" transform="translate(1024.000000, 256.000000)">
                <rect id="Rectangle-5282" sketch:type="MSShapeGroup" x="0" y="0" width="128" height="128"></rect>
                <g id="Group" transform="translate(20.000000, 18.000000)" sketch:type="MSShapeGroup">
                    <rect id="Rectangle-5279-Copy" fill="#8DA1A3" x="16" y="0" width="8" height="64" rx="4"></rect>
                    <path d="M14,60.0000083 L25,60.0000083 C33.2846579,60.0000083 40,53.2852269 40,45.0000042 L40,34 C40,31.790861 38.209139,30 36,30 C33.790861,30 32,31.790861 32,34 L32,45.0000042 C32,48.8667994 28.8665294,52.0000083 25,52.0000083 L14,52.0000083 C11.790861,52.0000083 10,53.7908693 10,56.0000083 C10,58.2091473 11.790861,60.0000083 14,60.0000083 L14,60.0000083 Z" id="Shape" fill="#819597"></path>
                    <path d="M26,52.0000083 L15,52.0000083 C11.1334706,52.0000083 8,48.8667994 8,45.0000042 L8,34 C8,31.790861 6.209139,30 4,30 C1.790861,30 0,31.790861 0,34 L0,45.0000042 C0,53.2852269 6.71534215,60.0000083 15,60.0000083 L26,60.0000083 C28.209139,60.0000083 30,58.2091473 30,56.0000083 C30,53.7908693 28.209139,52.0000083 26,52.0000083 L26,52.0000083 Z" id="Shape" fill="#819597"></path>
                    <g id="Rectangle-5277-+-Rectangle-5277-Copy-2-+-Rectangle-5277-Copy-Copy" transform="translate(14.000000, 60.000000)" fill="#674C40">
                        <path d="M0,0 L6,0 L12,0 L12,25.9998243 C12,29.3136299 9.30696577,32 6,32 L6,32 C2.6862915,32 0,29.3130221 0,25.9998243 L0,0 Z" id="Rectangle-5277"></path>
                    </g>
                </g>
                <g id="Group-Copy-6" transform="translate(68.000000, 28.000000)" sketch:type="MSShapeGroup">
                    <rect id="Rectangle-5279-Copy" fill="#8DA1A3" x="16" y="0" width="8" height="64" rx="4"></rect>
                    <path d="M14,60.0000083 L25,60.0000083 C33.2846579,60.0000083 40,53.2852269 40,45.0000042 L40,34 C40,31.790861 38.209139,30 36,30 C33.790861,30 32,31.790861 32,34 L32,45.0000042 C32,48.8667994 28.8665294,52.0000083 25,52.0000083 L14,52.0000083 C11.790861,52.0000083 10,53.7908693 10,56.0000083 C10,58.2091473 11.790861,60.0000083 14,60.0000083 L14,60.0000083 Z" id="Shape" fill="#819597"></path>
                    <path d="M26,52.0000083 L15,52.0000083 C11.1334706,52.0000083 8,48.8667994 8,45.0000042 L8,34 C8,31.790861 6.209139,30 4,30 C1.790861,30 0,31.790861 0,34 L0,45.0000042 C0,53.2852269 6.71534215,60.0000083 15,60.0000083 L26,60.0000083 C28.209139,60.0000083 30,58.2091473 30,56.0000083 C30,53.7908693 28.209139,52.0000083 26,52.0000083 L26,52.0000083 Z" id="Shape" fill="#819597"></path>
                    <g id="Rectangle-5277-+-Rectangle-5277-Copy-2-+-Rectangle-5277-Copy-Copy" transform="translate(14.000000, 60.000000)" fill="#674C40">
                        <path d="M0,0 L6,0 L12,0 L12,25.9998243 C12,29.3136299 9.30696577,32 6,32 L6,32 C2.6862915,32 0,29.3130221 0,25.9998243 L0,0 Z" id="Rectangle-5277"></path>
                    </g>
                </g>
            </g>
        </g>
    </g>
</svg>