<?xml version="1.0" encoding="UTF-8" standalone="no"?>
<svg width="130px" height="130px" viewBox="0 0 130 130" version="1.1" xmlns="http://www.w3.org/2000/svg" xmlns:xlink="http://www.w3.org/1999/xlink" xmlns:sketch="http://www.bohemiancoding.com/sketch/ns">
    <!-- Generator: Sketch 3.3.3 (12081) - http://www.bohemiancoding.com/sketch -->
    <title></title>
    <desc>Created with Sketch.</desc>
    <defs></defs>
    <g id="Items" stroke="none" stroke-width="1" fill="none" fill-rule="evenodd" sketch:type="MSPage">
        <g sketch:type="MSArtboardGroup" transform="translate(-639.000000, -767.000000)" id="Items-Torch-02">
            <g sketch:type="MSLayerGroup" transform="translate(640.000000, 768.000000)">
                <circle id="Oval-211" fill-opacity="0.0500000007" fill="#FFB642" sketch:type="MSShapeGroup" cx="64" cy="45" r="35"></circle>
                <path d="M54.5727726,40.985478 C54.3625592,37.127505 57.3220024,34 61.190787,34 L66.8092001,34 C70.6744419,34 73.6373767,37.1284438 73.4272145,40.985478 L70.1566775,101.008511 C70.0064691,103.765234 67.6432613,106 64.8934095,106 L63.1065776,106 C60.3499633,106 57.9935723,103.766231 57.8433096,101.008511 L54.5727726,40.985478 Z" id="Rectangle-5277-Copy-5" fill="#936956" sketch:type="MSShapeGroup"></path>
                <g id="Group" transform="translate(46.000000, 15.000000)" sketch:type="MSShapeGroup">
                    <path d="M0,32.6569044 C0,26.0317587 3.05813062,16.2413874 6.97444226,10.9052826 C6.97444226,10.9052826 13.7713055,0 18,0 C21.767757,0 28.9177522,10.980827 28.9177522,10.980827 C32.8291697,16.3270483 36,26.0374443 36,32.6569044 L36,37.9902258 C36,46.2798952 29.2919874,53 20.9934412,53 L15.0065588,53 C6.71866522,53 0,46.2797073 0,37.9902258 L0,32.6569044 Z" id="Rectangle-996-Copy" fill="#AA002D"></path>
                    <path d="M6,36.1781439 C6,32.8673014 7.48917763,27.951585 9.38934111,25.2226916 C9.38934111,25.2226916 15.1808703,16 18,16 C20.511838,16 26.5588013,25.2724375 26.5588013,25.2724375 C28.4593229,27.9846504 30,32.8677896 30,36.1781439 L30,42.9922777 C30,48.5193901 25.5139376,53 19.9956275,53 L16.0043725,53 C10.4791101,53 6,48.5193847 6,42.9922777 L6,36.1781439 Z" id="Rectangle-996-Copy-2" opacity="0.646280317" fill="#FF4800"></path>
                    <path d="M11,43.4304034 C11,41.2228826 11.9831378,37.93534 13.2299603,36.1244614 C13.2299603,36.1244614 16.3555077,31 18,31 C19.4652388,31 22.7311671,36.1486383 22.7311671,36.1486383 C23.9842089,37.9627253 25,41.2208888 25,43.4304034 L25,45.9980968 C25,49.8651412 21.8581267,53 18,53 L18,53 C14.1340068,53 11,49.8704981 11,45.9980968 L11,43.4304034 Z" id="Rectangle-996-Copy-3" opacity="0.646280317" fill="#FFB800"></path>
                    <path d="M15,49.211681 C15,47.5575803 15.6689606,45.0420899 16.5346947,43.6423475 C16.5346947,43.6423475 17.2952176,42 18,42 C18.6279595,42 19.4489676,43.6665383 19.4489676,43.6665383 C20.3055792,45.0749353 21,47.556835 21,49.211681 L21,50.0049856 C21,51.6590864 19.6534829,53 18,53 L18,53 C16.3431458,53 15,51.6598316 15,50.0049856 L15,49.211681 Z" id="Rectangle-996-Copy-4" opacity="0.646280317" fill="#FFB800"></path>
                </g>
            </g>
        </g>
    </g>
</svg>