<?xml version="1.0" encoding="UTF-8" standalone="no"?>
<svg width="130px" height="130px" viewBox="0 0 130 130" version="1.1" xmlns="http://www.w3.org/2000/svg" xmlns:xlink="http://www.w3.org/1999/xlink" xmlns:sketch="http://www.bohemiancoding.com/sketch/ns">
    <!-- Generator: Sketch 3.3.3 (12081) - http://www.bohemiancoding.com/sketch -->
    <title></title>
    <desc>Created with Sketch.</desc>
    <defs></defs>
    <g id="Items" stroke="none" stroke-width="1" fill="none" fill-rule="evenodd" sketch:type="MSPage">
        <g sketch:type="MSArtboardGroup" transform="translate(-255.000000, -1407.000000)" id="Items-Scroll-A">
            <g sketch:type="MSLayerGroup" transform="translate(256.000000, 1408.000000)">
                <g id="Group" transform="translate(24.000000, 24.000000)" sketch:type="MSShapeGroup">
                    <rect id="Rectangle-5265-Copy" fill="#FEFFD4" x="55" y="0" width="27" height="11"></rect>
                    <path d="M74,8 C74,3.581722 77.5907123,0 82,0 L82,0 C86.418278,0 90,3.59071231 90,8 L90,16 L82,16 L74,16 L74,8 Z" id="Rectangle-5265-Copy-2" fill="#ECD7C1"></path>
                    <rect id="Rectangle-5264" fill="#FEFFD4" x="8" y="0" width="66" height="84" rx="10"></rect>
                    <path d="M21.8666667,24 L60.1333333,24 L62,24 L62,20 L60.1333333,20 L21.8666667,20 L20,20 L20,24 L21.8666667,24 L21.8666667,24 Z" id="Shape" fill="#979797"></path>
                    <path d="M29.1555556,32 L52.8444444,32 L54,32 L54,28 L52.8444444,28 L29.1555556,28 L28,28 L28,32 L29.1555556,32 L29.1555556,32 Z" id="Shape-Copy-2" fill="#979797"></path>
                    <path d="M25.5111111,16 L56.4888889,16 L58,16 L58,12 L56.4888889,12 L25.5111111,12 L24,12 L24,16 L25.5111111,16 L25.5111111,16 Z" id="Shape-Copy-5" fill="#979797"></path>
                    <path d="M23.6888889,40 L58.3111111,40 L60,40 L60,36 L58.3111111,36 L23.6888889,36 L22,36 L22,40 L23.6888889,40 L23.6888889,40 Z" id="Shape-Copy-4" fill="#979797"></path>
                    <path d="M32.8,48 L49.2,48 L50,48 L50,44 L49.2,44 L32.8,44 L32,44 L32,48 L32.8,48 L32.8,48 Z" id="Shape-Copy-3" fill="#979797"></path>
                    <path d="M34.6222222,63 L47.3777778,63 L48,63 L48,59 L47.3777778,59 L34.6222222,59 L34,59 L34,63 L34.6222222,63 L34.6222222,63 Z" id="Shape-Copy-7" fill="#979797"></path>
                    <path d="M27.2888889,56 L53.7111111,56 L55,56 L55,52 L53.7111111,52 L27.2888889,52 L26,52 L26,56 L27.2888889,56 L27.2888889,56 Z" id="Shape-Copy-6" fill="#979797"></path>
                    <path d="M0,68 L59.0013874,68 C63.4188992,68 67,71.5907123 67,76 L67,84 L34,84 L0,84 L0,68 Z" id="Rectangle-5265-Copy" fill="#ECD7C1" transform="translate(33.500000, 76.000000) rotate(-180.000000) translate(-33.500000, -76.000000) "></path>
                    <path d="M58,76 C58,71.581722 61.5907123,68 66,68 L66,68 C70.418278,68 74,71.5907123 74,76 L74,84 L66,84 L58,84 L58,76 Z" id="Rectangle-5265-Copy-2" fill="#FEFFD4" transform="translate(66.000000, 76.000000) rotate(-180.000000) translate(-66.000000, -76.000000) "></path>
                </g>
            </g>
        </g>
    </g>
</svg>