<?xml version="1.0" encoding="UTF-8" standalone="no"?>
<svg width="130px" height="130px" viewBox="0 0 130 130" version="1.1" xmlns="http://www.w3.org/2000/svg" xmlns:xlink="http://www.w3.org/1999/xlink" xmlns:sketch="http://www.bohemiancoding.com/sketch/ns">
    <!-- Generator: Sketch 3.3.3 (12081) - http://www.bohemiancoding.com/sketch -->
    <title></title>
    <desc>Created with Sketch.</desc>
    <defs></defs>
    <g id="Items" stroke="none" stroke-width="1" fill="none" fill-rule="evenodd" sketch:type="MSPage">
        <g sketch:type="MSArtboardGroup" transform="translate(-767.000000, -383.000000)" id="Items-Weapon-Shield-A">
            <g sketch:type="MSLayerGroup" transform="translate(768.000000, 384.000000)">
                <circle id="Oval-1028" fill="#8DA1A3" sketch:type="MSShapeGroup" cx="65" cy="65" r="49"></circle>
                <circle id="Path-Copy-4" fill="#936956" sketch:type="MSShapeGroup" cx="65" cy="65" r="39"></circle>
                <path d="M103.886331,68 C103.961651,67.0098751 104,66.009416 104,65 C104,43.4608948 86.5391052,26 65,26 C43.4608948,26 26,43.4608948 26,65 C26,66.009416 26.0383488,67.0098751 26.1136689,68 C27.6455435,47.8626569 44.4703107,32 65,32 C85.5296893,32 102.354456,47.8626569 103.886331,68 Z" id="Oval-1028-Copy" fill="#674C40" sketch:type="MSShapeGroup"></path>
                <circle id="Oval-1028-Copy-3" fill="#8DA1A3" sketch:type="MSShapeGroup" cx="65" cy="65" r="13"></circle>
                <path d="M78,65 C78,57.8202983 72.1797017,52 65,52 C57.8202983,52 52,57.8202983 52,65 C63,65 69,65 78,65 Z" id="Oval-1028-Copy-4" fill="#B5BFC0" sketch:type="MSShapeGroup"></path>
                <circle id="Oval-1027-Copy" fill="#819597" sketch:type="MSShapeGroup" cx="65" cy="43" r="5"></circle>
                <circle id="Oval-1027-Copy-2" fill="#819597" sketch:type="MSShapeGroup" cx="65" cy="87" r="5"></circle>
                <circle id="Oval-1027-Copy" fill="#819597" sketch:type="MSShapeGroup" cx="43" cy="65" r="5"></circle>
                <circle id="Oval-1027-Copy-2" fill="#819597" sketch:type="MSShapeGroup" cx="87" cy="65" r="5"></circle>
            </g>
        </g>
    </g>
</svg>