<?xml version="1.0" encoding="UTF-8" standalone="no"?>
<svg width="128px" height="128px" viewBox="0 0 128 128" version="1.1" xmlns="http://www.w3.org/2000/svg" xmlns:xlink="http://www.w3.org/1999/xlink" xmlns:sketch="http://www.bohemiancoding.com/sketch/ns">
    <!-- Generator: Sketch 3.3.3 (12081) - http://www.bohemiancoding.com/sketch -->
    <title></title>
    <desc>Created with Sketch.</desc>
    <defs></defs>
    <g id="Items" stroke="none" stroke-width="1" fill="none" fill-rule="evenodd" sketch:type="MSPage">
        <g sketch:type="MSArtboardGroup" transform="translate(-256.000000, -256.000000)" id="Items-Key-B-01">
            <g sketch:type="MSLayerGroup" transform="translate(256.000000, 256.000000)">
                <rect id="Rectangle-3298-Copy-3" sketch:type="MSShapeGroup" x="0" y="0" width="128" height="128"></rect>
                <path d="M70,84 L70,71.0067689 L70,71.0067689 C80.4000811,67.9794066 88,58.3772314 88,47 C88,33.1928813 76.8071187,22 63,22 C49.1928813,22 38,33.1928813 38,47 C38,58.3772314 45.5999189,67.9794066 56,71.0067689 L56,109.006301 C56,112.865425 59.1340068,116 63,116 C63.3387842,116 63.6720456,115.975856 63.9981418,115.929194 L63.9981418,115.929194 C64.3239958,115.975853 64.6570895,116 64.9958054,116 L81.0041946,116 C84.8743729,116 88,112.865993 88,109 C88,105.141873 84.8678712,102 81.0041946,102 L70,102 L70,98 L74.998275,98 C78.8637925,98 82,94.8659932 82,91 C82,87.1418733 78.865221,84 74.998275,84 L70,84 Z" id="Oval-448-Copy-2" fill="#FFCF62" sketch:type="MSShapeGroup"></path>
                <circle id="Oval-448-Copy" fill="#E8B43E" sketch:type="MSShapeGroup" cx="63" cy="51" r="17"></circle>
                <g id="Group-+-Group-Copy-10" transform="translate(46.000000, 30.000000)" sketch:type="MSShapeGroup">
                    <g id="Group">
                        <path d="M33.6091954,17.2586271 C33.6091954,7.72695054 26.0855207,0 16.8045977,0 C7.52367466,0 0,7.72695054 0,17.2586271 L33.6091954,17.2586271 Z" id="Oval-1117-Copy-3" fill="#F13737"></path>
                        <path d="M29.4827125,6.06038583 C26.4004629,2.35155214 21.8153138,-4.61852778e-14 16.6953792,-4.61852778e-14 C11.5754447,-4.61852778e-14 6.99029561,2.35155214 3.90804598,6.06038583 L7.3160689,17.2586271 L26.0746896,17.2586271 L29.4827125,6.06038583 Z" id="Oval-1117-Copy-2" fill="#FF5353"></path>
                        <path d="M16.8045977,0 L26.183908,17.2586271 L7.42528736,17.2586271 L16.8045977,0 Z" id="Rectangle-5698-Copy-3" fill="#FF7676"></path>
                    </g>
                    <g id="Group-Copy-10" transform="translate(17.000000, 25.000000) scale(1, -1) translate(-17.000000, -25.000000) translate(0.000000, 16.000000)">
                        <path d="M33.6091954,17.2586271 C33.6091954,7.72695054 26.0855207,0 16.8045977,0 C7.52367466,0 0,7.72695054 0,17.2586271 L33.6091954,17.2586271 Z" id="Oval-1117-Copy-3" fill="#F13737"></path>
                        <path d="M29.4827125,6.06038583 C26.4004629,2.35155214 21.8153138,-4.61852778e-14 16.6953792,-4.61852778e-14 C11.5754447,-4.61852778e-14 6.99029561,2.35155214 3.90804598,6.06038583 L7.3160689,17.2586271 L26.0746896,17.2586271 L29.4827125,6.06038583 Z" id="Oval-1117-Copy-2" fill="#D71C1C"></path>
                        <path d="M16.8045977,0 L26.183908,17.2586271 L7.42528736,17.2586271 L16.8045977,0 Z" id="Rectangle-5698-Copy-3" fill="#F13737"></path>
                    </g>
                </g>
            </g>
        </g>
    </g>
</svg>