<?xml version="1.0" encoding="UTF-8" standalone="no"?>
<svg width="130px" height="130px" viewBox="0 0 130 130" version="1.1" xmlns="http://www.w3.org/2000/svg" xmlns:xlink="http://www.w3.org/1999/xlink" xmlns:sketch="http://www.bohemiancoding.com/sketch/ns">
    <!-- Generator: Sketch 3.3.3 (12081) - http://www.bohemiancoding.com/sketch -->
    <title></title>
    <desc>Created with Sketch.</desc>
    <defs></defs>
    <g id="Items" stroke="none" stroke-width="1" fill="none" fill-rule="evenodd" sketch:type="MSPage">
        <g sketch:type="MSArtboardGroup" transform="translate(-639.000000, -1151.000000)" id="Items-Diadema">
            <g sketch:type="MSLayerGroup" transform="translate(640.000000, 1152.000000)">
                <path d="M28,80.009763 C28,77.795232 29.7446921,75.6034791 31.9078086,75.1118617 L50,71 L56.8769588,62.8950129 C60.8109058,58.2585753 67.1855718,58.2544239 71.1230412,62.8950129 L78,71 L96.0921914,75.1118617 C98.2504145,75.6023669 100,77.7877996 100,80.009763 L100,81.990237 C100,84.204768 98.2022516,86 96.0005854,86 L31.9994146,86 C29.7905989,86 28,84.2122004 28,81.990237 L28,80.009763 Z" id="Rectangle-5616" fill="#FFCF62" sketch:type="MSShapeGroup"></path>
                <circle id="Oval-1108" fill="#FFCF62" sketch:type="MSShapeGroup" cx="47" cy="72" r="6"></circle>
                <circle id="Oval-1108-Copy-5" fill="#FFCF62" sketch:type="MSShapeGroup" cx="81" cy="72" r="6"></circle>
                <circle id="Oval-1108-Copy-6" fill="#E8B43E" sketch:type="MSShapeGroup" cx="81" cy="72" r="3"></circle>
                <circle id="Oval-1108-Copy-7" fill="#E8B43E" sketch:type="MSShapeGroup" cx="47" cy="72" r="3"></circle>
                <path d="M64,82 C70.627417,82 76,76.627417 76,70 C76,63.372583 70.627417,58 64,58 C57.372583,58 52,63.372583 52,70 C52,76.627417 57.372583,82 64,82 Z" id="Oval-1089-Copy-4" fill="#FFCF62" sketch:type="MSShapeGroup"></path>
                <path d="M64,77 C67.8659932,77 71,73.8659932 71,70 C71,66.1340068 67.8659932,63 64,63 C60.1340068,63 57,66.1340068 57,70 C57,73.8659932 60.1340068,77 64,77 Z" id="Oval-1089-Copy-5" fill="#D71C1C" sketch:type="MSShapeGroup"></path>
                <path d="M64,68.57817 C65.6568542,68.57817 67,67.6827395 67,66.57817 C67,65.4736005 65.6568542,64.57817 64,64.57817 C62.3431458,64.57817 61,65.4736005 61,66.57817 C61,67.6827395 62.3431458,68.57817 64,68.57817 Z" id="Oval-1089-Copy-3" fill="#FF7676" sketch:type="MSShapeGroup"></path>
            </g>
        </g>
    </g>
</svg>