<?xml version="1.0" encoding="UTF-8" standalone="no"?>
<svg width="130px" height="130px" viewBox="0 0 130 130" version="1.1" xmlns="http://www.w3.org/2000/svg" xmlns:xlink="http://www.w3.org/1999/xlink" xmlns:sketch="http://www.bohemiancoding.com/sketch/ns">
    <!-- Generator: Sketch 3.3.3 (12081) - http://www.bohemiancoding.com/sketch -->
    <title></title>
    <desc>Created with Sketch.</desc>
    <defs></defs>
    <g id="Items" stroke="none" stroke-width="1" fill="none" fill-rule="evenodd" sketch:type="MSPage">
        <g sketch:type="MSArtboardGroup" transform="translate(-1279.000000, -639.000000)" id="Items-Armor-Boots-B">
            <g sketch:type="MSLayerGroup" transform="translate(1280.000000, 640.000000)">
                <g id="Rectangle-5529-+-Rectangle-5529-Copy-+-Rectangle-5529-Copy-2-Copy-Copy" transform="translate(48.000000, 38.000000)" sketch:type="MSShapeGroup">
                    <rect id="Rectangle-5529" fill="#89614F" x="4" y="6" width="34" height="46" rx="6"></rect>
                    <path d="M28,6 L38,6 L38,17 L38,26 L33,26 C30.2385763,26 28,23.763962 28,21.0047466 L28,6 Z" id="Rectangle-5529-Copy-4" fill="#936956"></path>
                    <path d="M5.68434189e-13,6 C5.68434189e-13,2.6862915 2.69581723,0 6.00691701,0 L22.6181641,0 L35.9983476,0 C39.3129687,0 42,2.69303423 42,6 L42,6 C42,9.3137085 39.3088196,12 36.0047417,12 L5.9952583,12 C2.68416857,12 5.68434189e-13,9.30696577 5.68434189e-13,6 L5.68434189e-13,6 Z" id="Rectangle-5529-Copy-3" fill="#584035"></path>
                    <path d="M4,38 C4,31.372583 9.36951542,26 15.996221,26 L48.003779,26 C54.6291089,26 60,31.3711258 60,38 L60,50 L42,50 L4,50 L4,38 Z" id="Rectangle-5529-Copy" fill="#89614F"></path>
                    <path d="M4,48 L43,48 L60,48 L60,51 C60,52.6568542 58.6572461,54 57.0089949,54 L6.99100514,54 C5.33911861,54 4,52.6534829 4,51 L4,48 Z" id="Rectangle-5529-Copy-2" fill="#584035"></path>
                </g>
                <g id="Rectangle-5529-+-Rectangle-5529-Copy-+-Rectangle-5529-Copy-2-Copy-Copy-Copy" transform="translate(24.000000, 44.000000)" sketch:type="MSShapeGroup">
                    <rect id="Rectangle-5529" fill="#936956" x="4" y="6" width="34" height="46" rx="6"></rect>
                    <path d="M28,6 L38,6 L38,16 L38,26 L33,26 C30.2385763,26 28,23.763962 28,21.0047466 L28,6 Z" id="Rectangle-5529-Copy-4" fill="#AD765F"></path>
                    <path d="M5.68434189e-13,6 C5.68434189e-13,2.6862915 2.68791053,0 5.99228227,0 L21.3164063,0 L35.9967528,0 C39.3122547,0 42,2.69303423 42,6 L42,6 C42,9.3137085 39.3088196,12 36.0047417,12 L5.9952583,12 C2.68416857,12 5.68434189e-13,9.30696577 5.68434189e-13,6 L5.68434189e-13,6 Z" id="Rectangle-5529-Copy-3" fill="#674C40"></path>
                    <path d="M4,38 C4,31.372583 9.36951542,26 15.996221,26 L48.003779,26 C54.6291089,26 60,31.3711258 60,38 L60,50 L43,50 L4,50 L4,38 Z" id="Rectangle-5529-Copy" fill="#936956"></path>
                    <path d="M4,48 L46,48 L60,48 L60,51 C60,52.6568542 58.6572461,54 57.0089949,54 L6.99100514,54 C5.33911861,54 4,52.6534829 4,51 L4,48 Z" id="Rectangle-5529-Copy-2" fill="#674C40"></path>
                </g>
            </g>
        </g>
    </g>
</svg>