<?xml version="1.0" encoding="UTF-8" standalone="no"?>
<svg width="130px" height="130px" viewBox="0 0 130 130" version="1.1" xmlns="http://www.w3.org/2000/svg" xmlns:xlink="http://www.w3.org/1999/xlink" xmlns:sketch="http://www.bohemiancoding.com/sketch/ns">
    <!-- Generator: Sketch 3.3.3 (12081) - http://www.bohemiancoding.com/sketch -->
    <title></title>
    <desc>Created with Sketch.</desc>
    <defs></defs>
    <g id="Items" stroke="none" stroke-width="1" fill="none" fill-rule="evenodd" sketch:type="MSPage">
        <g sketch:type="MSArtboardGroup" transform="translate(-1279.000000, -767.000000)" id="Items-Armor-Boots-A">
            <g sketch:type="MSLayerGroup" transform="translate(1280.000000, 768.000000)">
                <g id="Rectangle-5529-+-Rectangle-5529-Copy-+-Rectangle-5529-Copy-2-Copy-Copy" transform="translate(52.000000, 44.000000)" sketch:type="MSShapeGroup">
                    <rect id="Rectangle-5529" fill="#5F7173" x="0" y="0" width="34" height="46" rx="3"></rect>
                    <path d="M24,0 L30.9996703,0 C32.6567066,0 34,1.34769042 34,3.00154607 L34,10.203125 L34,20 L29,20 C26.2385763,20 24,17.763962 24,15.0047466 L24,0 Z" id="Rectangle-5529-Copy-4" fill="#57686A"></path>
                    <path d="M0,31.5 C0,25.1487254 5.1429999,20 11.5014351,20 L44.4985649,20 C50.8506321,20 56,25.1473289 56,31.5 L56,43 L39,43 L0,43 L0,31.5 Z" id="Rectangle-5529-Copy" fill="#5F7173"></path>
                    <path d="M0,42 L37,42 L56,42 L56,45 C56,46.6568542 54.6572461,48 53.0089949,48 L2.99100514,48 C1.33911861,48 0,46.6534829 0,45 L0,42 Z" id="Rectangle-5529-Copy-2" fill="#57686A"></path>
                </g>
                <g id="Rectangle-5529-+-Rectangle-5529-Copy-+-Rectangle-5529-Copy-2-Copy-Copy-Copy" transform="translate(28.000000, 50.000000)" sketch:type="MSShapeGroup">
                    <rect id="Rectangle-5529" fill="#8DA1A3" x="0" y="0" width="34" height="46" rx="3"></rect>
                    <path d="M24,0 L30.9996703,0 C32.6567066,0 34,1.34516297 34,3.00271212 L34,10.0258789 L34,20 L29,20 C26.2385763,20 24,17.763962 24,15.0047466 L24,0 Z" id="Rectangle-5529-Copy-4" fill="#6D8183"></path>
                    <path d="M0,32 C0,25.372583 5.36951542,20 11.996221,20 L44.003779,20 C50.6291089,20 56,25.3711258 56,32 L56,44 L38,44 L0,44 L0,32 Z" id="Rectangle-5529-Copy" fill="#8DA1A3"></path>
                    <path d="M0,42 L28,42 L56,42 L56,45 C56,46.6568542 54.6572461,48 53.0089949,48 L2.99100514,48 C1.33911861,48 0,46.6534829 0,45 L0,42 Z" id="Rectangle-5529-Copy-2" fill="#6D8183"></path>
                </g>
            </g>
        </g>
    </g>
</svg>