<?xml version="1.0" encoding="UTF-8" standalone="no"?>
<svg width="130px" height="130px" viewBox="0 0 130 130" version="1.1" xmlns="http://www.w3.org/2000/svg" xmlns:xlink="http://www.w3.org/1999/xlink" xmlns:sketch="http://www.bohemiancoding.com/sketch/ns">
    <!-- Generator: Sketch 3.3.3 (12081) - http://www.bohemiancoding.com/sketch -->
    <title></title>
    <desc>Created with Sketch.</desc>
    <defs></defs>
    <g id="Items" stroke="none" stroke-width="1" fill="none" fill-rule="evenodd" sketch:type="MSPage">
        <g sketch:type="MSArtboardGroup" transform="translate(-639.000000, -1407.000000)" id="Items-Rope">
            <g sketch:type="MSLayerGroup" transform="translate(640.000000, 1408.000000)">
                <rect id="Rectangle-725" fill="#ECD7C1" sketch:type="MSShapeGroup" x="40" y="66" width="48" height="28" rx="6"></rect>
                <rect id="Rectangle-5429-Copy-7" fill="#FEFFD4" sketch:type="MSShapeGroup" x="32" y="74" width="64" height="12" rx="6"></rect>
                <path d="M96,80 C96,83.3137085 93.311214,86 90.0077996,86 L37.9922004,86 C34.6827995,86 32,83.3069658 32,80 L96,80 Z" id="Rectangle-5429-Copy-9" fill="#ECD7C1" sketch:type="MSShapeGroup"></path>
                <rect id="Rectangle-5429-Copy-11" fill="#FEFFD4" sketch:type="MSShapeGroup" x="26" y="86" width="76" height="12" rx="6"></rect>
                <path d="M102,92 C102,95.3137085 99.3174432,98 96.0046803,98 L31.9953197,98 C28.6841961,98 26,95.3069658 26,92 L102,92 Z" id="Rectangle-5429-Copy-10" fill="#ECD7C1" sketch:type="MSShapeGroup"></path>
                <rect id="Rectangle-5429-Copy-13" fill="#FEFFD4" sketch:type="MSShapeGroup" x="20" y="98" width="88" height="12" rx="6"></rect>
                <path d="M108,104 C108,107.313708 105.318285,110 102.003323,110 L25.9966766,110 C22.6848036,110 20,107.306966 20,104 L108,104 Z" id="Rectangle-5429-Copy-12" fill="#ECD7C1" sketch:type="MSShapeGroup"></path>
                <rect id="Rectangle-725-Copy" fill="#FEFFD4" sketch:type="MSShapeGroup" x="76" y="66" width="12" height="36" rx="6"></rect>
                <path d="M81.0285981,66 C78.2138404,66.2574175 76,68.6246159 76,71.5068025 L76,96.4699917 C76,99.5239792 78.4796537,102 81.5384615,102 C81.6938607,102 81.8477913,101.993584 82,101.981001 L82,66 L81.0285981,66 Z" id="Rectangle-725-Copy-2" fill="#ECD7C1" sketch:type="MSShapeGroup"></path>
            </g>
        </g>
    </g>
</svg>