<?xml version="1.0" encoding="UTF-8" standalone="no"?>
<svg width="128px" height="128px" viewBox="0 0 128 128" version="1.1" xmlns="http://www.w3.org/2000/svg" xmlns:xlink="http://www.w3.org/1999/xlink" xmlns:sketch="http://www.bohemiancoding.com/sketch/ns">
    <!-- Generator: Sketch 3.3.3 (12081) - http://www.bohemiancoding.com/sketch -->
    <title></title>
    <desc>Created with Sketch.</desc>
    <defs></defs>
    <g id="Items" stroke="none" stroke-width="1" fill="none" fill-rule="evenodd" sketch:type="MSPage">
        <g sketch:type="MSArtboardGroup" transform="translate(-1280.000000, -384.000000)" id="Items-Weapon-Dagger">
            <g sketch:type="MSLayerGroup" transform="translate(1280.000000, 384.000000)">
                <rect id="Rectangle-5282" sketch:type="MSShapeGroup" x="0" y="0" width="128" height="128"></rect>
                <path d="M64,24 L76,68.8 L72,78 L56,78 L64,24 Z" id="Rectangle-5279-Copy" fill="#8DA1A3" sketch:type="MSShapeGroup"></path>
                <path d="M64,24 L52,68.8 L56,78 L60,78 L64,78 L64,24 Z" id="Rectangle-5279-Copy-3" fill="#DFDFDF" sketch:type="MSShapeGroup"></path>
                <rect id="Rectangle-5277" fill="#674C40" sketch:type="MSShapeGroup" x="58" y="78" width="12" height="30"></rect>
                <rect id="Rectangle-5277-Copy-2" fill="#936956" sketch:type="MSShapeGroup" x="57" y="103" width="14" height="14" rx="19"></rect>
                <path d="M48,83 C48,80.2385763 50.2374593,78 53,78 L75,78 C77.7614237,78 80,80.2441952 80,83 L80,83 C80,85.7614237 77.7625407,88 75,88 L53,88 C50.2385763,88 48,85.7558048 48,83 L48,83 Z" id="Rectangle-5277-Copy" fill="#936956" sketch:type="MSShapeGroup"></path>
            </g>
        </g>
    </g>
</svg>