<?xml version="1.0" encoding="UTF-8" standalone="no"?>
<svg width="130px" height="130px" viewBox="0 0 130 130" version="1.1" xmlns="http://www.w3.org/2000/svg" xmlns:xlink="http://www.w3.org/1999/xlink" xmlns:sketch="http://www.bohemiancoding.com/sketch/ns">
    <!-- Generator: Sketch 3.3.3 (12081) - http://www.bohemiancoding.com/sketch -->
    <title></title>
    <desc>Created with Sketch.</desc>
    <defs></defs>
    <g id="Items" stroke="none" stroke-width="1" fill="none" fill-rule="evenodd" sketch:type="MSPage">
        <g sketch:type="MSArtboardGroup" transform="translate(-1023.000000, -511.000000)" id="Items-Weapon-Shield-C">
            <g sketch:type="MSLayerGroup" transform="translate(1024.000000, 512.000000)">
                <path d="M64,114 C90.231089,110.705863 107.431259,87.1330911 107.986161,67 L107.998459,27.0093855 C107.99931,24.2427783 105.758535,22 103.000651,22 L24.9993488,22 C22.2382847,22 20,24.231557 20,27.0093855 L20,67 C20.5687412,87.1330911 37.768911,110.705863 64,114 Z" id="Oval-1047-Copy" fill="#936956" sketch:type="MSShapeGroup"></path>
                <rect id="Rectangle-1168" fill="#805C4D" sketch:type="MSShapeGroup" x="20" y="22" width="88" height="92" rx="5"></rect>
                <rect id="Rectangle-1168" fill="#936956" sketch:type="MSShapeGroup" x="30" y="22" width="68" height="92"></rect>
                <g id="Group" transform="translate(25.000000, 30.000000)" fill="#819597" sketch:type="MSShapeGroup">
                    <circle id="Oval-1027-Copy-6" cx="5" cy="5" r="5"></circle>
                    <circle id="Oval-1027-Copy-4" cx="27" cy="5" r="5"></circle>
                    <circle id="Oval-1027-Copy-7" cx="49" cy="5" r="5"></circle>
                    <circle id="Oval-1027-Copy-5" cx="73" cy="5" r="5"></circle>
                </g>
                <g id="Group-Copy-9" transform="translate(25.000000, 98.000000)" fill="#819597" sketch:type="MSShapeGroup">
                    <circle id="Oval-1027-Copy-6" cx="5" cy="5" r="5"></circle>
                    <circle id="Oval-1027-Copy-4" cx="27" cy="5" r="5"></circle>
                    <circle id="Oval-1027-Copy-7" cx="49" cy="5" r="5"></circle>
                    <circle id="Oval-1027-Copy-5" cx="73" cy="5" r="5"></circle>
                </g>
            </g>
        </g>
    </g>
</svg>