<?xml version="1.0" encoding="UTF-8" standalone="no"?>
<svg width="128px" height="128px" viewBox="0 0 128 128" version="1.1" xmlns="http://www.w3.org/2000/svg" xmlns:xlink="http://www.w3.org/1999/xlink" xmlns:sketch="http://www.bohemiancoding.com/sketch/ns">
    <!-- Generator: Sketch 3.3.3 (12081) - http://www.bohemiancoding.com/sketch -->
    <title></title>
    <desc>Created with Sketch.</desc>
    <defs></defs>
    <g id="Items" stroke="none" stroke-width="1" fill="none" fill-rule="evenodd" sketch:type="MSPage">
        <g sketch:type="MSArtboardGroup" transform="translate(-256.000000, -128.000000)" id="Items-Key-A-02">
            <g sketch:type="MSLayerGroup" transform="translate(256.000000, 128.000000)">
                <path d="M70,84 L70,71.0067689 L70,71.0067689 C80.4000811,67.9794066 88,58.3772314 88,47 C88,33.1928813 76.8071187,22 63,22 C49.1928813,22 38,33.1928813 38,47 C38,58.3772314 45.5999189,67.9794066 56,71.0067689 L56,109.006301 C56,112.865425 59.1340068,116 63,116 C63.3387842,116 63.6720456,115.975856 63.9981418,115.929194 L63.9981418,115.929194 C64.3239958,115.975853 64.6570895,116 64.9958054,116 L81.0041946,116 C84.8743729,116 88,112.865993 88,109 C88,105.141873 84.8678712,102 81.0041946,102 L70,102 L70,98 L74.998275,98 C78.8637925,98 82,94.8659932 82,91 C82,87.1418733 78.865221,84 74.998275,84 L70,84 Z M63,60 C70.1797017,60 76,54.1797017 76,47 C76,39.8202983 70.1797017,34 63,34 C55.8202983,34 50,39.8202983 50,47 C50,54.1797017 55.8202983,60 63,60 Z" id="Oval-448" fill="#8DA1A3" sketch:type="MSShapeGroup"></path>
                <rect id="Rectangle-3298-Copy-3" sketch:type="MSShapeGroup" x="0" y="0" width="128" height="128"></rect>
            </g>
        </g>
    </g>
</svg>