<?xml version="1.0" encoding="UTF-8" standalone="no"?>
<svg width="130px" height="130px" viewBox="0 0 130 130" version="1.1" xmlns="http://www.w3.org/2000/svg" xmlns:xlink="http://www.w3.org/1999/xlink" xmlns:sketch="http://www.bohemiancoding.com/sketch/ns">
    <!-- Generator: Sketch 3.3.3 (12081) - http://www.bohemiancoding.com/sketch -->
    <title></title>
    <desc>Created with Sketch.</desc>
    <defs></defs>
    <g id="Items" stroke="none" stroke-width="1" fill="none" fill-rule="evenodd" sketch:type="MSPage">
        <g sketch:type="MSArtboardGroup" transform="translate(-383.000000, -1279.000000)" id="Items-Necklace-A-02">
            <g sketch:type="MSLayerGroup" transform="translate(384.000000, 1280.000000)">
                <path d="M93.3866525,30 L93.3866525,30 L33.9445549,30 C28.8321321,30 27.6526256,32.1572229 30.4152439,36.4640524 L58.9349706,80.9253523 C61.835474,85.4471402 65.4963668,85.4461526 68.3962368,80.9253523 L96.9159634,36.4640524 C99.6829554,32.1504046 98.5073337,30 93.3866525,30 L93.3866525,30 Z M93.3866525,26 C101.667432,26 104.759012,31.6455129 100.28283,38.6237308 L71.7631031,83.0850307 C67.2909777,90.0569247 60.0442861,90.0632486 55.5681042,83.0850307 L27.0483775,38.6237308 C22.576252,31.6518368 25.6726218,26 33.9445549,26 L93.3866525,26 L93.3866525,26 Z" id="Shape" fill="#936956" sketch:type="MSShapeGroup"></path>
                <circle id="Oval-1089" fill="#FFCF62" sketch:type="MSShapeGroup" cx="64" cy="100" r="13"></circle>
                <rect id="Rectangle-5511" fill="#FFCF62" sketch:type="MSShapeGroup" x="61" y="82" width="6" height="12" rx="3"></rect>
                <path d="M64,107 C67.8659932,107 71,103.865993 71,100 C71,96.1340068 67.8659932,93 64,93 C60.1340068,93 57,96.1340068 57,100 C57,103.865993 60.1340068,107 64,107 Z" id="Oval-1089-Copy" fill="#D71C1C" sketch:type="MSShapeGroup"></path>
                <path d="M64,99 C65.6568542,99 67,98.1045695 67,97 C67,95.8954305 65.6568542,95 64,95 C62.3431458,95 61,95.8954305 61,97 C61,98.1045695 62.3431458,99 64,99 Z" id="Oval-1089-Copy-2" fill="#FF7676" sketch:type="MSShapeGroup"></path>
            </g>
        </g>
    </g>
</svg>