<?xml version="1.0" encoding="UTF-8" standalone="no"?>
<svg width="130px" height="130px" viewBox="0 0 130 130" version="1.1" xmlns="http://www.w3.org/2000/svg" xmlns:xlink="http://www.w3.org/1999/xlink" xmlns:sketch="http://www.bohemiancoding.com/sketch/ns">
    <!-- Generator: Sketch 3.3.3 (12081) - http://www.bohemiancoding.com/sketch -->
    <title></title>
    <desc>Created with Sketch.</desc>
    <defs></defs>
    <g id="Items" stroke="none" stroke-width="1" fill="none" fill-rule="evenodd" sketch:type="MSPage">
        <g sketch:type="MSArtboardGroup" transform="translate(-1023.000000, 1.000000)" id="Items-Weapon-Carcaj">
            <g sketch:type="MSLayerGroup" transform="translate(1024.000000, 0.000000)">
                <g id="Group-Copy-2" transform="translate(44.000000, 56.500000) rotate(-90.000000) translate(-44.000000, -56.500000) translate(3.500000, 43.500000)" sketch:type="MSShapeGroup">
                    <path d="M1.97402597,15 L74.025974,15 L76,15 L76,11 L74.025974,11 L1.97402597,11 L0,11 L0,15 L1.97402597,15 L1.97402597,15 Z" id="Shape" fill="#674C40"></path>
                    <path d="M74.8523356,23.792952 C74.2874117,25.3538176 72.7574888,25.7095181 70.9587638,24.4870214 L57,15 L66.0051318,15 L75.0102636,15 C77.7642598,15 80,17.238326 80,19.999441 L80,22.2921018 C80,25.0513767 78.1525286,26.0359158 75.8735572,24.4870214 L74.8523356,23.792952 Z M74.8523356,2.20704803 C74.2874117,0.646182447 72.7574888,0.290481898 70.9587638,1.5129786 L57,11 L66.0051318,11 L75.0102636,11 C77.7642598,11 80,8.76167403 80,6.00055903 L80,3.70789822 C80,0.948623269 78.1525286,-0.0359157734 75.8735572,1.5129786 L74.8523356,2.20704803 L74.8523356,2.20704803 Z" id="Rectangle-5288-Copy-5" fill="#CC4B2B"></path>
                </g>
                <g id="Group-Copy-4" transform="translate(64.000000, 58.000000) rotate(-90.000000) translate(-64.000000, -58.000000) translate(17.000000, 45.000000)" sketch:type="MSShapeGroup">
                    <path d="M14.974026,15 L87.025974,15 L89,15 L89,11 L87.025974,11 L14.974026,11 L13,11 L13,15 L14.974026,15 L14.974026,15 Z" id="Shape" fill="#674C40"></path>
                    <path d="M15.0533537,11.0974142 C15.0533537,11.0974142 13.9999997,12.7169385 13.9999997,13 C13.9999997,13 6.86871004,13 3.53930041e-09,13 C0.000131508727,12.0603343 1.09872176,11.531336 3.04019695,10.7677357 L11.8189175,7.31498264 C15.7366059,5.77411908 17.1777949,7.45511757 15.0533537,11.0974142 Z" id="Rectangle-5288-Copy-4" fill="#DFDFDF"></path>
                    <path d="M15.0533537,17.353696 C15.0533537,17.353696 13.9999997,18.9732203 13.9999997,19.2562819 C13.9999997,19.2562819 6.86871004,19.2562818 3.53930041e-09,19.2562819 C0.000131508727,18.3166161 1.09872176,17.7876179 3.04019695,17.0240175 L11.8189175,13.5712645 C15.7366059,12.0304009 17.1777949,13.7113994 15.0533537,17.353696 Z" id="Rectangle-5288-Copy-7" fill="#8DA1A3" transform="translate(8.016819, 16.128141) scale(1, -1) translate(-8.016819, -16.128141) "></path>
                    <path d="M87.8523356,23.792952 C87.2874117,25.3538176 85.7574888,25.7095181 83.9587638,24.4870214 L70,15 L79.0051318,15 L88.0102636,15 C90.7642598,15 93,17.238326 93,19.999441 L93,22.2921018 C93,25.0513767 91.1525286,26.0359158 88.8735572,24.4870214 L87.8523356,23.792952 Z M87.8523356,2.20704803 C87.2874117,0.646182447 85.7574888,0.290481898 83.9587638,1.5129786 L70,11 L79.0051318,11 L88.0102636,11 C90.7642598,11 93,8.76167403 93,6.00055903 L93,3.70789822 C93,0.948623269 91.1525286,-0.0359157734 88.8735572,1.5129786 L87.8523356,2.20704803 L87.8523356,2.20704803 Z" id="Rectangle-5288-Copy-5" fill="#CC4B2B"></path>
                </g>
                <g id="Group-Copy-5" transform="translate(84.000000, 57.000000) rotate(-90.000000) translate(-84.000000, -57.000000) translate(44.000000, 45.000000)" sketch:type="MSShapeGroup">
                    <path d="M1.97402597,14 L74.025974,14 L76,14 L76,10 L74.025974,10 L1.97402597,10 L0,10 L0,14 L1.97402597,14 L1.97402597,14 Z" id="Shape" fill="#674C40"></path>
                    <path d="M74.8523356,1.20704803 C74.2874117,-0.353817553 72.7574888,-0.709518102 70.9587638,0.512978604 L57,10 L66.0051318,10 L75.0102636,10 C77.7642598,10 80,7.76167403 80,5.00055903 L80,2.70789822 C80,-0.0513767314 78.1525286,-1.03591577 75.8735572,0.512978604 L74.8523356,1.20704803 Z" id="Rectangle-5288-Copy-5" fill="#CC4B2B"></path>
                    <path d="M74.8523356,15.207048 C74.2874117,13.6461824 72.7574888,13.2904819 70.9587638,14.5129786 L57,24 L66.0051318,24 L75.0102636,24 C77.7642598,24 80,21.761674 80,19.000559 L80,16.7078982 C80,13.9486233 78.1525286,12.9640842 75.8735572,14.5129786 L74.8523356,15.207048 Z" id="Rectangle-5288-Copy-6" fill="#CC4B2B" transform="translate(68.500000, 19.000000) scale(1, -1) translate(-68.500000, -19.000000) "></path>
                </g>
                <rect id="Rectangle-779" fill="#936956" sketch:type="MSShapeGroup" x="38" y="54" width="52" height="64" rx="10"></rect>
                <rect id="Rectangle-780" fill="#674C40" sketch:type="MSShapeGroup" x="36" y="52" width="56" height="18" rx="3"></rect>
            </g>
        </g>
    </g>
</svg>