<?xml version="1.0" encoding="UTF-8" standalone="no"?>
<svg width="130px" height="130px" viewBox="0 0 130 130" version="1.1" xmlns="http://www.w3.org/2000/svg" xmlns:xlink="http://www.w3.org/1999/xlink" xmlns:sketch="http://www.bohemiancoding.com/sketch/ns">
    <!-- Generator: Sketch 3.3.3 (12081) - http://www.bohemiancoding.com/sketch -->
    <title></title>
    <desc>Created with Sketch.</desc>
    <defs></defs>
    <g id="Items" stroke="none" stroke-width="1" fill="none" fill-rule="evenodd" sketch:type="MSPage">
        <g sketch:type="MSArtboardGroup" transform="translate(-1023.000000, -895.000000)" id="Items-Armor-Helmet-E-01">
            <g sketch:type="MSLayerGroup" transform="translate(1024.000000, 896.000000)">
                <path d="M98,73 C98,54.7746033 85,33 65,30 C45,33 32,54.7746033 32,73 L98,73 Z" id="Oval-1047" fill="#8DA1A3" sketch:type="MSShapeGroup"></path>
                <rect id="Rectangle-817" fill="#8DA1A3" sketch:type="MSShapeGroup" x="28" y="68" width="74" height="38" rx="15"></rect>
                <path d="M43.0012698,68 L66,68 L42.9909934,106 C34.7116964,106 28,99.2938355 28,91.0086716 L28,82.9913284 C28,74.7118463 34.7098261,68 43.0012698,68 Z" id="Rectangle-817-Copy" fill="#B5BFC0" sketch:type="MSShapeGroup"></path>
                <path d="M38,79.990053 C38,77.7864076 39.7953562,76 42,76 C44.209139,76 46,77.7842933 46,79.990053 L46,96.009947 C46,98.2135924 44.2046438,100 42,100 C39.790861,100 38,98.2157067 38,96.009947 L38,79.990053 Z M52,79.0058389 C52,76.2411904 54.2441952,74 57,74 C59.7614237,74 62,76.2440262 62,79.0058389 L62,96.9941611 C62,99.7588096 59.7558048,102 57,102 C54.2385763,102 52,99.7559738 52,96.9941611 L52,79.0058389 Z M68,79.0058389 C68,76.2411904 70.2441952,74 73,74 C75.7614237,74 78,76.2440262 78,79.0058389 L78,96.9941611 C78,99.7588096 75.7558048,102 73,102 C70.2385763,102 68,99.7559738 68,96.9941611 L68,79.0058389 Z M84,79.990053 C84,77.7864076 85.7953562,76 88,76 C90.209139,76 92,77.7842933 92,79.990053 L92,96.009947 C92,98.2135924 90.2046438,100 88,100 C85.790861,100 84,98.2157067 84,96.009947 L84,79.990053 Z" id="Rectangle-818" fill="#5F7173" sketch:type="MSShapeGroup"></path>
                <path d="M46,88 L46,79.990053 C46,77.7842933 44.209139,76 42,76 C39.7953562,76 38,77.7864076 38,79.990053 L38,88 L46,88 Z M62,88 L62,79.0058389 C62,76.2440262 59.7614237,74 57,74 C54.2441952,74 52,76.2411904 52,79.0058389 L52,88 L62,88 Z M78,88 L78,79.0058389 C78,76.2440262 75.7614237,74 73,74 C70.2441952,74 68,76.2411904 68,79.0058389 L68,88 L78,88 Z M92,88 L92,79.990053 C92,77.7842933 90.209139,76 88,76 C85.7953562,76 84,77.7864076 84,79.990053 L84,88 L92,88 Z" id="Rectangle-818-Copy-6" fill="#57686A" sketch:type="MSShapeGroup"></path>
            </g>
        </g>
    </g>
</svg>