<?xml version="1.0" encoding="UTF-8" standalone="no"?>
<svg width="130px" height="130px" viewBox="0 0 130 130" version="1.1" xmlns="http://www.w3.org/2000/svg" xmlns:xlink="http://www.w3.org/1999/xlink" xmlns:sketch="http://www.bohemiancoding.com/sketch/ns">
    <!-- Generator: Sketch 3.3.3 (12081) - http://www.bohemiancoding.com/sketch -->
    <title></title>
    <desc>Created with Sketch.</desc>
    <defs></defs>
    <g id="Items" stroke="none" stroke-width="1" fill="none" fill-rule="evenodd" sketch:type="MSPage">
        <g sketch:type="MSArtboardGroup" transform="translate(-895.000000, 1.000000)" id="Items-Weapon-Arrows">
            <g sketch:type="MSLayerGroup" transform="translate(896.000000, 0.000000)">
                <g id="Group-Copy-2" transform="translate(44.000000, 67.000000) rotate(-90.000000) translate(-44.000000, -67.000000) translate(-3.000000, 54.000000)" sketch:type="MSShapeGroup">
                    <path d="M14.974026,15 L87.025974,15 L89,15 L89,11 L87.025974,11 L14.974026,11 L13,11 L13,15 L14.974026,15 L14.974026,15 Z" id="Shape" fill="#674C40"></path>
                    <path d="M15.0533537,11.0974142 C15.0533537,11.0974142 13.9999997,12.7169385 13.9999997,13 C13.9999997,13 6.86871004,13 3.53930041e-09,13 C0.000131508727,12.0603343 1.09872176,11.531336 3.04019695,10.7677357 L11.8189175,7.31498264 C15.7366059,5.77411908 17.1777949,7.45511757 15.0533537,11.0974142 Z" id="Rectangle-5288-Copy-4" fill="#DFDFDF"></path>
                    <path d="M15.0533537,17.353696 C15.0533537,17.353696 13.9999997,18.9732203 13.9999997,19.2562819 C13.9999997,19.2562819 6.86871004,19.2562818 3.53930041e-09,19.2562819 C0.000131508727,18.3166161 1.09872176,17.7876179 3.04019695,17.0240175 L11.8189175,13.5712645 C15.7366059,12.0304009 17.1777949,13.7113994 15.0533537,17.353696 Z" id="Rectangle-5288-Copy-7" fill="#8DA1A3" transform="translate(8.016819, 16.128141) scale(1, -1) translate(-8.016819, -16.128141) "></path>
                    <path d="M87.8523356,23.792952 C87.2874117,25.3538176 85.7574888,25.7095181 83.9587638,24.4870214 L70,15 L79.0051318,15 L88.0102636,15 C90.7642598,15 93,17.238326 93,19.999441 L93,22.2921018 C93,25.0513767 91.1525286,26.0359158 88.8735572,24.4870214 L87.8523356,23.792952 Z M87.8523356,2.20704803 C87.2874117,0.646182447 85.7574888,0.290481898 83.9587638,1.5129786 L70,11 L79.0051318,11 L88.0102636,11 C90.7642598,11 93,8.76167403 93,6.00055903 L93,3.70789822 C93,0.948623269 91.1525286,-0.0359157734 88.8735572,1.5129786 L87.8523356,2.20704803 L87.8523356,2.20704803 Z" id="Rectangle-5288-Copy-5" fill="#CC4B2B"></path>
                </g>
                <g id="Group-Copy-4" transform="translate(64.000000, 62.000000) rotate(-90.000000) translate(-64.000000, -62.000000) translate(17.000000, 49.000000)" sketch:type="MSShapeGroup">
                    <path d="M14.974026,15 L87.025974,15 L89,15 L89,11 L87.025974,11 L14.974026,11 L13,11 L13,15 L14.974026,15 L14.974026,15 Z" id="Shape" fill="#674C40"></path>
                    <path d="M15.0533537,11.0974142 C15.0533537,11.0974142 13.9999997,12.7169385 13.9999997,13 C13.9999997,13 6.86871004,13 3.53930041e-09,13 C0.000131508727,12.0603343 1.09872176,11.531336 3.04019695,10.7677357 L11.8189175,7.31498264 C15.7366059,5.77411908 17.1777949,7.45511757 15.0533537,11.0974142 Z" id="Rectangle-5288-Copy-4" fill="#DFDFDF"></path>
                    <path d="M15.0533537,17.353696 C15.0533537,17.353696 13.9999997,18.9732203 13.9999997,19.2562819 C13.9999997,19.2562819 6.86871004,19.2562818 3.53930041e-09,19.2562819 C0.000131508727,18.3166161 1.09872176,17.7876179 3.04019695,17.0240175 L11.8189175,13.5712645 C15.7366059,12.0304009 17.1777949,13.7113994 15.0533537,17.353696 Z" id="Rectangle-5288-Copy-7" fill="#8DA1A3" transform="translate(8.016819, 16.128141) scale(1, -1) translate(-8.016819, -16.128141) "></path>
                    <path d="M87.8523356,23.792952 C87.2874117,25.3538176 85.7574888,25.7095181 83.9587638,24.4870214 L70,15 L79.0051318,15 L88.0102636,15 C90.7642598,15 93,17.238326 93,19.999441 L93,22.2921018 C93,25.0513767 91.1525286,26.0359158 88.8735572,24.4870214 L87.8523356,23.792952 Z M87.8523356,2.20704803 C87.2874117,0.646182447 85.7574888,0.290481898 83.9587638,1.5129786 L70,11 L79.0051318,11 L88.0102636,11 C90.7642598,11 93,8.76167403 93,6.00055903 L93,3.70789822 C93,0.948623269 91.1525286,-0.0359157734 88.8735572,1.5129786 L87.8523356,2.20704803 L87.8523356,2.20704803 Z" id="Rectangle-5288-Copy-5" fill="#CC4B2B"></path>
                </g>
                <g id="Group-Copy-5" transform="translate(84.000000, 67.500000) rotate(-90.000000) translate(-84.000000, -67.500000) translate(37.500000, 55.500000)" sketch:type="MSShapeGroup">
                    <path d="M14.974026,14 L87.025974,14 L89,14 L89,10 L87.025974,10 L14.974026,10 L13,10 L13,14 L14.974026,14 L14.974026,14 Z" id="Shape" fill="#674C40"></path>
                    <path d="M15.0533537,10.0974142 C15.0533537,10.0974142 13.9999997,11.7169385 13.9999997,12 C13.9999997,12 6.86871004,12 3.53930041e-09,12 C0.000131508727,11.0603343 1.09872176,10.531336 3.04019695,9.76773566 L11.8189175,6.31498264 C15.7366059,4.77411908 17.1777949,6.45511757 15.0533537,10.0974142 Z" id="Rectangle-5288-Copy-4" fill="#DFDFDF"></path>
                    <path d="M15.0533537,16.353696 C15.0533537,16.353696 13.9999997,17.9732203 13.9999997,18.2562819 C13.9999997,18.2562819 6.86871004,18.2562818 3.53930041e-09,18.2562819 C0.000131508727,17.3166161 1.09872176,16.7876179 3.04019695,16.0240175 L11.8189175,12.5712645 C15.7366059,11.0304009 17.1777949,12.7113994 15.0533537,16.353696 Z" id="Rectangle-5288-Copy-7" fill="#8DA1A3" transform="translate(8.016819, 15.128141) scale(1, -1) translate(-8.016819, -15.128141) "></path>
                    <path d="M87.8523356,1.20704803 C87.2874117,-0.353817553 85.7574888,-0.709518102 83.9587638,0.512978604 L70,10 L79.0051318,10 L88.0102636,10 C90.7642598,10 93,7.76167403 93,5.00055903 L93,2.70789822 C93,-0.0513767314 91.1525286,-1.03591577 88.8735572,0.512978604 L87.8523356,1.20704803 Z" id="Rectangle-5288-Copy-5" fill="#CC4B2B"></path>
                    <path d="M87.8523356,15.207048 C87.2874117,13.6461824 85.7574888,13.2904819 83.9587638,14.5129786 L70,24 L79.0051318,24 L88.0102636,24 C90.7642598,24 93,21.761674 93,19.000559 L93,16.7078982 C93,13.9486233 91.1525286,12.9640842 88.8735572,14.5129786 L87.8523356,15.207048 Z" id="Rectangle-5288-Copy-6" fill="#CC4B2B" transform="translate(81.500000, 19.000000) scale(1, -1) translate(-81.500000, -19.000000) "></path>
                </g>
            </g>
        </g>
    </g>
</svg>