<?xml version="1.0" encoding="UTF-8" standalone="no"?>
<svg width="130px" height="130px" viewBox="0 0 130 130" version="1.1" xmlns="http://www.w3.org/2000/svg" xmlns:xlink="http://www.w3.org/1999/xlink" xmlns:sketch="http://www.bohemiancoding.com/sketch/ns">
    <!-- Generator: Sketch 3.3.3 (12081) - http://www.bohemiancoding.com/sketch -->
    <title></title>
    <desc>Created with Sketch.</desc>
    <defs></defs>
    <g id="Items" stroke="none" stroke-width="1" fill="none" fill-rule="evenodd" sketch:type="MSPage">
        <g sketch:type="MSArtboardGroup" transform="translate(-895.000000, -767.000000)" id="Items-Armor-Gloves-A">
            <g sketch:type="MSLayerGroup" transform="translate(896.000000, 768.000000)">
                <g id="Group" transform="translate(45.000000, 32.000000)" fill="#6D8183" sketch:type="MSShapeGroup">
                    <rect id="Rectangle-5637" x="5" y="32" width="34" height="44" rx="4"></rect>
                    <rect id="Rectangle-5638" transform="translate(41.000000, 49.000000) rotate(-45.000000) translate(-41.000000, -49.000000) " x="24" y="43" width="34" height="12" rx="8"></rect>
                    <rect id="Rectangle-5638-Copy" transform="translate(8.000000, 32.500000) rotate(-8.000000) translate(-8.000000, -32.500000) " x="3" y="13" width="10" height="39" rx="8"></rect>
                    <rect id="Rectangle-5638-Copy-2" transform="translate(17.000000, 26.000000) rotate(-8.000000) translate(-17.000000, -26.000000) " x="12" y="2" width="10" height="48" rx="8"></rect>
                    <rect id="Rectangle-5638-Copy-3" x="21" y="0" width="10" height="48" rx="8"></rect>
                    <rect id="Rectangle-5638-Copy-4" transform="translate(35.000000, 31.000000) rotate(8.000000) translate(-35.000000, -31.000000) " x="30" y="7" width="10" height="48" rx="8"></rect>
                </g>
                <g id="Group-Copy-7" transform="translate(31.000000, 26.000000)" fill="#8DA1A3" sketch:type="MSShapeGroup">
                    <rect id="Rectangle-5637" x="5" y="32" width="34" height="44" rx="4"></rect>
                    <rect id="Rectangle-5638" transform="translate(41.000000, 49.000000) rotate(-45.000000) translate(-41.000000, -49.000000) " x="24" y="43" width="34" height="12" rx="8"></rect>
                    <rect id="Rectangle-5638-Copy" transform="translate(8.000000, 32.500000) rotate(-8.000000) translate(-8.000000, -32.500000) " x="3" y="13" width="10" height="39" rx="8"></rect>
                    <rect id="Rectangle-5638-Copy-2" transform="translate(17.000000, 26.000000) rotate(-8.000000) translate(-17.000000, -26.000000) " x="12" y="2" width="10" height="48" rx="8"></rect>
                    <rect id="Rectangle-5638-Copy-3" x="21" y="0" width="10" height="48" rx="8"></rect>
                    <rect id="Rectangle-5638-Copy-4" transform="translate(35.000000, 31.000000) rotate(8.000000) translate(-35.000000, -31.000000) " x="30" y="7" width="10" height="48" rx="8"></rect>
                </g>
            </g>
        </g>
    </g>
</svg>