<?xml version="1.0" encoding="UTF-8" standalone="no"?>
<svg width="130px" height="130px" viewBox="0 0 130 130" version="1.1" xmlns="http://www.w3.org/2000/svg" xmlns:xlink="http://www.w3.org/1999/xlink" xmlns:sketch="http://www.bohemiancoding.com/sketch/ns">
    <!-- Generator: Sketch 3.3.3 (12081) - http://www.bohemiancoding.com/sketch -->
    <title></title>
    <desc>Created with Sketch.</desc>
    <defs></defs>
    <g id="Items" stroke="none" stroke-width="1" fill="none" fill-rule="evenodd" sketch:type="MSPage">
        <g sketch:type="MSArtboardGroup" transform="translate(-1279.000000, -1023.000000)" id="Items-Armor-Boots-G">
            <g sketch:type="MSLayerGroup" transform="translate(1280.000000, 1024.000000)">
                <g id="Rectangle-5529-+-Rectangle-5529-Copy-+-Rectangle-5529-Copy-2-Copy-Copy-Copy-Copy" transform="translate(50.000000, 44.000000)" sketch:type="MSShapeGroup">
                    <path d="M6,2 L24.0099418,2 C29.5272986,2 34,6.47593818 34,12 L34,22 L24,22 L16.0078618,22 C10.4806724,22 6,17.5240618 6,12 L6,2 Z" id="Rectangle-5529-Copy-4" fill="#26354F"></path>
                    <path d="M4,16 L47.2051251,23.7152009 C54.2715394,24.9770606 60,31.8216283 60,38.9905224 L60,42 L4,42 L4,16 Z" id="Rectangle-5529-Copy" fill="#643FA1"></path>
                    <path d="M0,0 L10,0 C15.5228475,0 20,4.47593818 20,10 L20,20 L15,20 L10.0037259,20 C4.47882064,20 0,15.5240618 0,10 L0,0 Z" id="Rectangle-5529-Copy-6" fill="#643FA1"></path>
                    <path d="M4,38 L60,38 L60,41 C60,42.6568542 58.6660379,44 56.9934454,44 L41.2050781,44 L7.00036118,44 C5.34330746,44 4,42.6534829 4,41 L4,38 Z" id="Rectangle-5529-Copy-2" fill="#26354F"></path>
                </g>
                <g id="Rectangle-5529-+-Rectangle-5529-Copy-+-Rectangle-5529-Copy-2-Copy-Copy-Copy" transform="translate(26.000000, 50.000000)" sketch:type="MSShapeGroup">
                    <path d="M6,2 L24.0099418,2 C29.5272986,2 34,6.47593818 34,12 L34,22 L20,22 L16.0048434,22 C10.4793209,22 6,17.5240618 6,12 L6,2 Z" id="Rectangle-5529-Copy-4" fill="#2B426B"></path>
                    <path d="M4,16 L47.2051251,23.7152009 C54.2715394,24.9770606 60,31.8216283 60,38.9905224 L60,42 L4,42 L4,16 Z" id="Rectangle-5529-Copy" fill="#864EAC"></path>
                    <path d="M0,0 L10,0 C15.5228475,0 20,4.47593818 20,10 L20,20 L15,20 L9.99373405,20 C4.47434714,20 0,15.5240618 0,10 L0,0 Z" id="Rectangle-5529-Copy-6" fill="#864EAC"></path>
                    <path d="M4,38 L37,38 L60,38 L60,41 C60,42.6568542 58.6572461,44 57.0089949,44 L6.99100514,44 C5.33911861,44 4,42.6534829 4,41 L4,38 Z" id="Rectangle-5529-Copy-2" fill="#2B426B"></path>
                </g>
            </g>
        </g>
    </g>
</svg>