<?xml version="1.0" encoding="UTF-8" standalone="no"?>
<svg width="130px" height="130px" viewBox="0 0 130 130" version="1.1" xmlns="http://www.w3.org/2000/svg" xmlns:xlink="http://www.w3.org/1999/xlink" xmlns:sketch="http://www.bohemiancoding.com/sketch/ns">
    <!-- Generator: Sketch 3.3.3 (12081) - http://www.bohemiancoding.com/sketch -->
    <title></title>
    <desc>Created with Sketch.</desc>
    <defs></defs>
    <g id="Items" stroke="none" stroke-width="1" fill="none" fill-rule="evenodd" sketch:type="MSPage">
        <g sketch:type="MSArtboardGroup" transform="translate(-255.000000, -1023.000000)" id="Items-Lamp-A">
            <g sketch:type="MSLayerGroup" transform="translate(256.000000, 1024.000000)">
                <path d="M44.3884193,51.3290623 L44.3884193,51.3290623 L38.9112435,79.9896392 C36.949585,90.2544663 43.3501984,98 53.788183,98 L74.2163764,98 C84.6543584,98 91.0549609,90.254396 89.0933159,79.9896392 L83.61614,51.3290623 C83.2999794,49.6746796 81.2782722,48 79.6049558,48 L48.3996036,48 C46.7242311,48 44.7051801,49.6715388 44.3884193,51.3290623 L44.3884193,51.3290623 Z M36.5306203,49.8273986 C37.5678462,44.3998762 42.8839823,40 48.3996036,40 L79.6049558,40 C85.1227883,40 90.4381149,44.4072112 91.4739391,49.8273986 L96.9511149,78.4879756 C99.8548524,93.6824471 89.6763038,106 74.2163764,106 L53.788183,106 C38.3283961,106 28.1496666,93.682658 31.0534444,78.4879756 L36.5306203,49.8273986 L36.5306203,49.8273986 Z" id="Shape" fill="#8DA1A3" sketch:type="MSShapeGroup"></path>
                <path d="M58,26.008897 L58,26.008897 L58,43.991103 C58,45.1094334 58.8895233,46 59.9900582,46 L68.0099418,46 C69.108326,46 70,45.106332 70,43.991103 L70,26.008897 C70,24.8905666 69.1104767,24 68.0099418,24 L59.9900582,24 C58.891674,24 58,24.893668 58,26.008897 L58,26.008897 Z M50,26.008897 C50,20.4811358 54.4676442,16 59.9900582,16 L68.0099418,16 C73.5272986,16 78,20.4708256 78,26.008897 L78,43.991103 C78,49.5188642 73.5323558,54 68.0099418,54 L59.9900582,54 C54.4727014,54 50,49.5291744 50,43.991103 L50,26.008897 L50,26.008897 Z" id="Shape" fill="#8DA1A3" sketch:type="MSShapeGroup"></path>
                <path d="M78,65.4560454 C82.2962455,68.6604153 85,73.3170844 85,78.5 C85,88.1649831 75.5979797,96 64,96 C52.4020203,96 43,88.1649831 43,78.5 C43,73.3170844 45.7037545,68.6604153 50,65.4560454 L50,51 L78,51 L78,65.4560454 Z" id="Oval-1057" fill="#FEFFD4" sketch:type="MSShapeGroup"></path>
                <path d="M36.9205598,104.815441 C37.8973225,99.9468075 42.7197385,96 47.6986036,96 L80.2368272,96 C85.2126137,96 90.0387842,99.9501764 91.014871,104.815441 L91.0889247,105.184559 C92.0656874,110.053193 88.8289877,114 83.8611678,114 L44.074263,114 C39.1057204,114 35.8704193,110.049824 36.8465062,105.184559 L36.9205598,104.815441 Z" id="Rectangle-5436" fill="#8DA1A3" sketch:type="MSShapeGroup"></path>
                <rect id="Rectangle-5438" fill="#8DA1A3" sketch:type="MSShapeGroup" x="50" y="44" width="28" height="12"></rect>
                <rect id="Rectangle-5438-Copy" fill="#8DA1A3" sketch:type="MSShapeGroup" x="50" y="92" width="28" height="10"></rect>
            </g>
        </g>
    </g>
</svg>