<?xml version="1.0" encoding="UTF-8" standalone="no"?>
<svg width="128px" height="128px" viewBox="0 0 128 128" version="1.1" xmlns="http://www.w3.org/2000/svg" xmlns:xlink="http://www.w3.org/1999/xlink" xmlns:sketch="http://www.bohemiancoding.com/sketch/ns">
    <!-- Generator: Sketch 3.3.3 (12081) - http://www.bohemiancoding.com/sketch -->
    <title></title>
    <desc>Created with Sketch.</desc>
    <defs></defs>
    <g id="Items" stroke="none" stroke-width="1" fill="none" fill-rule="evenodd" sketch:type="MSPage">
        <g sketch:type="MSArtboardGroup" transform="translate(-896.000000, -128.000000)" id="Items-Weapon-Mace">
            <g sketch:type="MSLayerGroup" transform="translate(896.000000, 128.000000)">
                <rect id="Rectangle-5282" sketch:type="MSShapeGroup" x="0" y="0" width="128" height="128"></rect>
                <rect id="Rectangle-5279-Copy" fill="#8DA1A3" sketch:type="MSShapeGroup" x="58" y="18" width="12" height="64"></rect>
                <g id="Group" transform="translate(28.000000, 0.000000)" sketch:type="MSShapeGroup">
                    <g id="Group-Copy" transform="translate(36.353553, 36.060660) rotate(-45.000000) translate(-36.353553, -36.060660) translate(10.853553, 11.060660)" fill="#DFDFDF">
                        <path d="M3.31304303,20.8056515 C3.74929353,18.107246 5.66729427,17.4841059 7.59852723,19.4153389 L11.6073616,23.4241733 C13.5379187,25.3547304 12.9214959,27.2724303 10.217049,27.7096575 L6.86751948,28.251175 C4.16911396,28.6874255 2.33429828,26.8596279 2.77152548,24.155181 L3.31304303,20.8056515 Z" id="Rectangle-5288" transform="translate(7.719159, 23.304206) rotate(-315.000000) translate(-7.719159, -23.304206) "></path>
                        <path d="M22.313043,39.8056515 C22.7492935,37.107246 24.6672943,36.4841059 26.5985272,38.4153389 L30.6073616,42.4241733 C32.5379187,44.3547304 31.9214959,46.2724303 29.217049,46.7096575 L25.8675195,47.251175 C23.169114,47.6874255 21.3342983,45.8596279 21.7715255,43.155181 L22.313043,39.8056515 Z" id="Rectangle-5288-Copy" transform="translate(26.719159, 42.304206) rotate(-45.000000) translate(-26.719159, -42.304206) "></path>
                        <path d="M38.6059362,21.5127583 C39.0421867,18.8143528 40.9601875,18.1912127 42.8914204,20.1224457 L46.9002548,24.1312801 C48.8308119,26.0618371 48.2143892,27.9795371 45.5099423,28.4167643 L42.1604127,28.9582818 C39.4620072,29.3945323 37.6271915,27.5667347 38.0644187,24.8622878 L38.6059362,21.5127583 Z" id="Rectangle-5288-Copy-3" transform="translate(43.012052, 24.011313) rotate(-135.000000) translate(-43.012052, -24.011313) "></path>
                        <path d="M21.7894326,4.74347545 C22.2256831,2.04506993 24.1436839,1.42192989 26.0749168,3.35316285 L30.0837512,7.36199725 C32.0143083,9.29255432 31.3978855,11.2102542 28.6934386,11.6474815 L25.3439091,12.188999 C22.6455036,12.6252495 20.8106879,10.7974519 21.2479151,8.093005 L21.7894326,4.74347545 Z" id="Rectangle-5288-Copy-2" transform="translate(26.195548, 7.242030) rotate(-225.000000) translate(-26.195548, -7.242030) "></path>
                    </g>
                    <circle id="Oval-1026" fill="#819597" cx="36" cy="36" r="20"></circle>
                    <circle id="Oval-1027" fill="#DFDFDF" cx="36" cy="35" r="7"></circle>
                    <g transform="translate(9.000000, 9.000000)" fill="#DFDFDF">
                        <path d="M3.60593625,23.5127583 C4.04218674,20.8143528 5.96018749,20.1912127 7.89142045,22.1224457 L11.9002548,26.1312801 C13.8308119,28.0618371 13.2143892,29.9795371 10.5099423,30.4167643 L7.1604127,30.9582818 C4.46200718,31.3945323 2.6271915,29.5667347 3.0644187,26.8622878 L3.60593625,23.5127583 Z" id="Rectangle-5288" transform="translate(8.012052, 26.011313) rotate(-315.000000) translate(-8.012052, -26.011313) "></path>
                        <path d="M22.5938842,42.1770937 C23.0301347,39.4786882 24.9481354,38.8555482 26.8793684,40.7867811 L30.8882028,44.7956155 C32.8187598,46.7261726 32.2023371,48.6438725 29.4978902,49.0810997 L26.1483606,49.6226173 C23.4499551,50.0588678 21.6151394,48.2310702 22.0523666,45.5266233 L22.5938842,42.1770937 Z" id="Rectangle-5288-Copy" transform="translate(27.000000, 44.675648) rotate(-45.000000) translate(-27.000000, -44.675648) "></path>
                        <path d="M41.6059362,23.5127583 C42.0421867,20.8143528 43.9601875,20.1912127 45.8914204,22.1224457 L49.9002548,26.1312801 C51.8308119,28.0618371 51.2143892,29.9795371 48.5099423,30.4167643 L45.1604127,30.9582818 C42.4620072,31.3945323 40.6271915,29.5667347 41.0644187,26.8622878 L41.6059362,23.5127583 Z" id="Rectangle-5288-Copy-3" transform="translate(46.012052, 26.011313) rotate(-135.000000) translate(-46.012052, -26.011313) "></path>
                        <path d="M22.5062949,5.41385631 C22.9425454,2.71545079 24.8605462,2.09231076 26.7917791,4.02354371 L30.8006136,8.03237812 C32.7311706,9.96293519 32.1147479,11.8806351 29.410301,12.3178623 L26.0607714,12.8593799 C23.3623659,13.2956304 21.5275502,11.4678328 21.9647774,8.76338586 L22.5062949,5.41385631 Z" id="Rectangle-5288-Copy-2" transform="translate(26.912411, 7.912411) rotate(-225.000000) translate(-26.912411, -7.912411) "></path>
                    </g>
                </g>
                <g id="Rectangle-5277-+-Rectangle-5277-Copy-2-+-Rectangle-5277-Copy-Copy" transform="translate(48.000000, 74.000000)" sketch:type="MSShapeGroup">
                    <rect id="Rectangle-5277" fill="#674C40" x="6" y="0" width="20" height="38"></rect>
                    <rect id="Rectangle-5277-Copy-2" fill="#936956" x="0" y="32" width="32" height="14" rx="7"></rect>
                    <rect id="Rectangle-5277-Copy" fill="#936956" x="0" y="0" width="32" height="14" rx="7"></rect>
                </g>
            </g>
        </g>
    </g>
</svg>