<?xml version="1.0" encoding="UTF-8" standalone="no"?>
<svg width="128px" height="128px" viewBox="0 0 128 128" version="1.1" xmlns="http://www.w3.org/2000/svg" xmlns:xlink="http://www.w3.org/1999/xlink" xmlns:sketch="http://www.bohemiancoding.com/sketch/ns">
    <!-- Generator: Sketch 3.3.3 (12081) - http://www.bohemiancoding.com/sketch -->
    <title></title>
    <desc>Created with Sketch.</desc>
    <defs></defs>
    <g id="Items" stroke="none" stroke-width="1" fill="none" fill-rule="evenodd" sketch:type="MSPage">
        <g sketch:type="MSArtboardGroup" transform="translate(-512.000000, -512.000000)" id="Items-Potion-A-02">
            <g sketch:type="MSLayerGroup" transform="translate(512.000000, 512.000000)">
                <path d="M42,44 L42.0213484,93 C42.0071644,93.3315634 42,93.6649451 42,94 C42,106.702549 52.2974508,117 65,117 C77.7025492,117 88,106.702549 88,94 C88,93.6649451 87.9928356,93.3315634 88,93 L88,44 L42,44 C42.000708,43.9999999 42.0014159,44 42.0021239,44 L87.9978761,44 C91.3188626,44 94,41.3137085 94,38 C94,34.6930342 91.3127576,32 87.9978761,32 L42.0021239,32 C38.6811374,32 36,34.6862915 36,38 C36,41.3062595 38.6860947,43.9988497 42.0000001,43.9999996 Z" id="Oval-997" fill="#C7DECB" sketch:type="MSShapeGroup"></path>
                <path d="M84,93.7533207 C84,104.382968 75.4934102,113 65,113 C54.5065898,113 46,104.382968 46,93.7533207 C46,93.4729426 46.0059184,93.1939649 46.0176356,92.9165085 L46,64 L84,64 L84,92.9165085 C83.9940816,93.1939649 84,93.4729426 84,93.7533207 Z" id="Oval-997-Copy" fill="#9013FE" sketch:type="MSShapeGroup"></path>
                <path d="M62,105 C63.6568542,105 65,103.656854 65,102 C65,100.343146 63.6568542,99 62,99 C60.3431458,99 59,100.343146 59,102 C59,103.656854 60.3431458,105 62,105 Z M72,94 C73.6568542,94 75,92.6568542 75,91 C75,89.3431458 73.6568542,88 72,88 C70.3431458,88 69,89.3431458 69,91 C69,92.6568542 70.3431458,94 72,94 Z M58,87 C59.1045695,87 60,86.1045695 60,85 C60,83.8954305 59.1045695,83 58,83 C56.8954305,83 56,83.8954305 56,85 C56,86.1045695 56.8954305,87 58,87 Z" id="Oval-997" fill="#A668F9" sketch:type="MSShapeGroup"></path>
            </g>
        </g>
    </g>
</svg>