<?xml version="1.0" encoding="UTF-8" standalone="no"?>
<svg width="130px" height="130px" viewBox="0 0 130 130" version="1.1" xmlns="http://www.w3.org/2000/svg" xmlns:xlink="http://www.w3.org/1999/xlink" xmlns:sketch="http://www.bohemiancoding.com/sketch/ns">
    <!-- Generator: Sketch 3.3.3 (12081) - http://www.bohemiancoding.com/sketch -->
    <title></title>
    <desc>Created with Sketch.</desc>
    <defs></defs>
    <g id="Items" stroke="none" stroke-width="1" fill="none" fill-rule="evenodd" sketch:type="MSPage">
        <g sketch:type="MSArtboardGroup" transform="translate(-1023.000000, -767.000000)" id="Items-Armor-Helmet-A-01">
            <g sketch:type="MSLayerGroup" transform="translate(1024.000000, 768.000000)">
                <path d="M98,73 C98,54.7746033 85,33 65,30 C45,33 32,54.7746033 32,73 L98,73 Z" id="Oval-1047" fill="#8DA1A3" sketch:type="MSShapeGroup"></path>
                <path d="M32,72 L64,72 L98,72 L98,97.9998243 C98,101.31363 95.3103631,104 91.997285,104 L38.002715,104 C34.687507,104 32,101.313022 32,97.9998243 L32,72 Z" id="Rectangle-5530" fill="#8DA1A3" sketch:type="MSShapeGroup"></path>
                <path d="M42,83.9975713 C42,80.6852041 44.6888556,78 47.9900994,78 L82.0099006,78 C85.3181411,78 88,80.6845286 88,83.9975713 L88,104 L66,104 L42,104 L42,83.9975713 Z" id="Path" fill="#5F7173" sketch:type="MSShapeGroup"></path>
                <path d="M42,84 C42,80.6862915 44.6888556,78 47.9900994,78 L82.0099006,78 C85.3181411,78 88,80.6930342 88,84 L88,90 L65,90 L42,90 L42,84 Z" id="Path-Copy-14" fill="#57686A" sketch:type="MSShapeGroup"></path>
            </g>
        </g>
    </g>
</svg>