<?xml version="1.0" encoding="UTF-8" standalone="no"?>
<svg width="130px" height="130px" viewBox="0 0 130 130" version="1.1" xmlns="http://www.w3.org/2000/svg" xmlns:xlink="http://www.w3.org/1999/xlink" xmlns:sketch="http://www.bohemiancoding.com/sketch/ns">
    <!-- Generator: Sketch 3.3.3 (12081) - http://www.bohemiancoding.com/sketch -->
    <title></title>
    <desc>Created with Sketch.</desc>
    <defs></defs>
    <g id="Items" stroke="none" stroke-width="1" fill="none" fill-rule="evenodd" sketch:type="MSPage">
        <g sketch:type="MSArtboardGroup" transform="translate(-1151.000000, 1.000000)" id="Items-Weapon-Staff-01">
            <g sketch:type="MSLayerGroup" transform="translate(1152.000000, 0.000000)">
                <g id="Group" transform="translate(48.000000, 17.000000)" sketch:type="MSShapeGroup">
                    <path d="M6.32141712,16.9908224 C6.14390335,13.1298978 9.125,10 12.9950294,10 L19.0049706,10 C22.8682186,10 25.8564585,13.1220268 25.6785829,16.9908224 L22.2294241,92.0100249 C22.1027167,94.7659121 19.7710151,97 16.9978137,97 L15.0021863,97 C12.2395551,97 9.89710337,94.7619983 9.77057586,92.0100249 L6.32141712,16.9908224 Z" id="Rectangle-5277-Copy-5" fill="#936956"></path>
                    <path d="M29,10.6066017 C29,4.74873734 23.1797017,0 16,0 C8.82029825,0 3,4.74873734 3,10.6066017 C3,16.4644661 29,16.4644661 29,10.6066017 Z" id="Oval-1081" fill="#88CD42"></path>
                    <ellipse id="Oval-1082" fill="#9FFF3D" cx="16" cy="3" rx="3" ry="2"></ellipse>
                    <path d="M3.68270089,11 C-0.244372636,11 -1.18014691,13.3180055 1.60085458,16.1859326 L10.9724789,25.8504853 C13.7497805,28.7145968 18.2489761,28.7184124 21.0299776,25.8504853 L30.4016019,16.1859326 C33.1789035,13.3218211 32.243783,11 28.3197556,11 L23.1118239,11 C19.1847504,11 12.81466,11 8.89063264,11 L3.68270089,11 L3.68270089,11 Z" id="Rectangle-5499-Copy" fill="#936956"></path>
                </g>
            </g>
        </g>
    </g>
</svg>