<?xml version="1.0" encoding="UTF-8" standalone="no"?>
<svg width="1408px" height="1200px" viewBox="0 0 1408 1200" version="1.1" xmlns="http://www.w3.org/2000/svg" xmlns:xlink="http://www.w3.org/1999/xlink" xmlns:sketch="http://www.bohemiancoding.com/sketch/ns">
    <!-- Generator: Sketch 3.3.3 (12081) - http://www.bohemiancoding.com/sketch -->
    <title>Inventory B</title>
    <desc>Created with Sketch.</desc>
    <defs>
        <linearGradient x1="50%" y1="0%" x2="50%" y2="66.8697917%" id="linearGradient-1">
            <stop stop-color="#804726" offset="0%"></stop>
            <stop stop-color="#2C0924" offset="100%"></stop>
        </linearGradient>
        <filter x="-50%" y="-50%" width="200%" height="200%" filterUnits="objectBoundingBox" id="filter-2">
            <feOffset dx="0" dy="0" in="SourceAlpha" result="shadowOffsetOuter1"></feOffset>
            <feGaussianBlur stdDeviation="9" in="shadowOffsetOuter1" result="shadowBlurOuter1"></feGaussianBlur>
            <feColorMatrix values="0 0 0 0 0   0 0 0 0 0   0 0 0 0 0  0 0 0 0.105 0" in="shadowBlurOuter1" type="matrix" result="shadowMatrixOuter1"></feColorMatrix>
            <feMerge>
                <feMergeNode in="shadowMatrixOuter1"></feMergeNode>
                <feMergeNode in="SourceGraphic"></feMergeNode>
            </feMerge>
        </filter>
        <linearGradient x1="50%" y1="0%" x2="50%" y2="50%" id="linearGradient-3">
            <stop stop-color="#00FFE9" stop-opacity="0.05" offset="0%"></stop>
            <stop stop-color="#2F4543" stop-opacity="0" offset="100%"></stop>
        </linearGradient>
    </defs>
    <g id="Items" stroke="none" stroke-width="1" fill="none" fill-rule="evenodd" sketch:type="MSPage">
        <g id="Inventory-B" sketch:type="MSArtboardGroup">
            <rect id="Rectangle-1138-Copy" fill="url(#linearGradient-1)" sketch:type="MSShapeGroup" x="0" y="0" width="1408" height="1200"></rect>
            <rect id="Base" stroke-opacity="0.220306839" stroke="#000000" fill="#1A2528" filter="url(#filter-2)" sketch:type="MSShapeGroup" x="64" y="226" width="1278" height="856" rx="5"></rect>
            <g id="Oval-258-Copy-2-+-Oval-258" sketch:type="MSLayerGroup" transform="translate(151.000000, 915.000000)">
                <ellipse id="Oval-258-Copy-2" fill="url(#linearGradient-3)" sketch:type="MSShapeGroup" cx="297" cy="81.5" rx="297" ry="81.5"></ellipse>
                <ellipse id="Oval-258" fill-opacity="0.100000001" fill="#000000" sketch:type="MSShapeGroup" cx="296.5" cy="46.5" rx="188.5" ry="42.5"></ellipse>
            </g>
            <g id="Title-2" sketch:type="MSLayerGroup" transform="translate(368.000000, 152.000000)">
                <g id="Group" transform="translate(332.000000, 60.000000) scale(1, -1) translate(-332.000000, -60.000000) " sketch:type="MSShapeGroup">
                    <g id="Rectangle-10-Copy-+-Rectangle-12" transform="translate(527.897959, 0.000000)">
                        <path d="M0,0 L135.102041,0 L112.585034,45 L135.102041,90 L0,90 L0,0 Z" id="Rectangle-10-Copy" fill="#55B36D"></path>
                        <path d="M0,0 L28.521542,28.5 L28.521542,102 L0,73.5 L0,0 Z" id="Rectangle-12" fill="#7A3636"></path>
                    </g>
                    <g id="Rectangle-10-Copy-+-Rectangle-12-Copy" transform="translate(68.102041, 51.000000) scale(-1, 1) translate(-68.102041, -51.000000) translate(0.102041, 0.000000)">
                        <path d="M0,0 L135.102041,0 L112.585034,45 L135.102041,90 L0,90 L0,0 Z" id="Rectangle-10-Copy" fill="#55B36D"></path>
                        <path d="M0,0 L28.521542,28.5 L28.521542,102 L0,73.5 L0,0 Z" id="Rectangle-12" fill="#7A3636"></path>
                    </g>
                    <rect id="Rectangle-10" fill="#B6FF9A" x="107.580499" y="30" width="450.340136" height="90"></rect>
                </g>
                <text id="INVENTORY" sketch:type="MSTextLayer" font-family="Gotham" font-size="42" font-weight="313" sketch:alignment="middle" fill="#CC4B2B">
                    <tspan x="201.745" y="59">INVENTORY</tspan>
                </text>
            </g>
            <g id="K-shape" sketch:type="MSLayerGroup" transform="translate(287.000000, 500.000000)" fill="#2A3231">
                <path d="M111.320528,208.469456 C111.320528,181.999998 84.6932563,145.76738 84.6932563,145.76738 C78.9964118,137.159669 81.5485077,125.842567 90.3754002,120.500891 L117.690171,103.971103 C141.786551,89.3889547 180.85917,89.3917758 204.950896,103.971103 L232.265675,120.500891 C241.100684,125.847477 243.546576,137.093233 237.947816,145.76738 C237.947816,145.76738 211.320523,181.999998 211.320524,208.469456 C237.320523,231.999998 239.292998,277.439882 239.292998,277.439882 C240.519014,287.690352 233.13264,296 222.80458,296 L103.8365,296 C93.5041821,296 85.4608591,287.633323 86.3319817,277.347728 C86.3319817,277.347728 85.3205275,234.999998 111.320528,208.469456 Z" id="Rectangle-1115" sketch:type="MSShapeGroup"></path>
                <path d="M123.965248,29.3465127 C125.610758,13.4150237 139.937755,0.5 155.939757,0.5 L167.027679,0.5 C183.041203,0.5 197.355938,13.4078542 199.002189,29.3465127 L201.4175,52.7310531 C203.664179,74.4829286 187.756065,92.1163077 165.892347,92.1163077 L157.075089,92.1163077 C135.20841,92.1163077 119.303676,74.4788839 121.549936,52.7310531 L123.965248,29.3465127 Z" id="Rectangle-1118" sketch:type="MSShapeGroup" transform="translate(161.483663, 46.308154) scale(1, -1) translate(-161.483663, -46.308154) "></path>
                <path d="M138.498838,76 L184.123479,76 L186.444662,109 L136.177655,109 L138.498838,76 Z" id="Rectangle-1159" sketch:type="MSShapeGroup"></path>
                <g id="Rectangle-1116-+-Rectangle-1116-Copy-+-Rectangle-1119" transform="translate(0.797509, 117.129771)" sketch:type="MSShapeGroup">
                    <path d="M69.5699661,251.296698 C69.1231729,231.975722 71.2857928,200.847306 75.9905564,182.110031 C75.9905564,182.110031 76,145.870229 114,124.870229 L155.999998,168.870229 L155.999998,168.870229 C152.686289,182.125063 143.76149,202.165071 136.072458,213.621072 L129.84736,222.895936 C116.614081,242.61239 103.567175,277.70742 100.706511,301.280982 L97.8305117,324.980907 C97.2456671,329.800371 92.8329645,333.707319 87.9775463,333.707319 L84.4756021,333.707319 C77.2959504,333.707319 71.3410696,327.885715 71.1751245,320.709643 L69.5699661,251.296698 Z" id="Rectangle-1116"></path>
                    <rect id="Rectangle-1124" x="60" y="315" width="33" height="19" rx="40"></rect>
                    <g id="Rectangle-1116-Copy-+-Rectangle-1119">
                        <path d="M3.2642939,99.7121815 C12.8909264,73.3446081 39.34107,38.9189025 62.3384261,22.8229574 L90.925041,2.8150669 C96.8112259,-1.30469831 101.713877,1.18010695 101.875306,8.3600343 L102.471391,34.8721975 C102.707294,45.3645212 95.5108353,58.0994572 86.4123551,63.308055 L65.2333039,75.4324053 C56.1282401,80.644772 44.3406881,92.1501857 38.9055791,101.129624 L25.2814782,123.638239 C21.19246,130.393778 13.1401925,131.558831 7.30121015,126.244986 L7.57644559,126.495468 C1.73523597,121.179596 -0.802730659,110.851858 1.90240118,103.442438 L3.2642939,99.7121815 Z" id="Rectangle-1116-Copy"></path>
                        <path d="M28.2334325,79.9101735 C28.2334325,76.509343 30.9937926,73.7524251 34.3834326,73.7524251 L34.3834326,73.7524251 C37.7799839,73.7524251 40.5334327,76.507898 40.5334327,79.9101735 L40.5334327,115.636228 C40.5334327,119.037059 37.7730726,121.793977 34.3834326,121.793977 L34.3834326,121.793977 C30.9868813,121.793977 28.2334325,119.038504 28.2334325,115.636228 L28.2334325,79.9101735 Z" id="Rectangle-1119" transform="translate(34.383433, 97.773201) rotate(-354.000000) translate(-34.383433, -97.773201) "></path>
                    </g>
                </g>
                <g id="Rectangle-1116-+-Rectangle-1116-Copy-+-Rectangle-1119-Copy-Copy" transform="translate(243.797509, 284.129771) scale(-1, 1) translate(-243.797509, -284.129771) translate(165.797509, 117.129771)" sketch:type="MSShapeGroup">
                    <path d="M69.5699661,251.296698 C69.1231729,231.975722 71.2857928,200.847306 75.9905564,182.110031 C75.9905564,182.110031 76,145.870229 114,124.870229 L155.999998,168.870229 L155.999998,168.870229 C152.686289,182.125063 143.76149,202.165071 136.072458,213.621072 L129.84736,222.895936 C116.614081,242.61239 103.567175,277.70742 100.706511,301.280982 L97.8305117,324.980907 C97.2456671,329.800371 92.8329645,333.707319 87.9775463,333.707319 L84.4756021,333.707319 C77.2959504,333.707319 71.3410696,327.885715 71.1751245,320.709643 L69.5699661,251.296698 Z" id="Rectangle-1116"></path>
                    <rect id="Rectangle-1124" x="60" y="315" width="33" height="19" rx="40"></rect>
                    <g id="Rectangle-1116-Copy-+-Rectangle-1119">
                        <path d="M3.2642939,99.7121815 C12.8909264,73.3446081 39.34107,38.9189025 62.3384261,22.8229574 L90.925041,2.8150669 C96.8112259,-1.30469831 101.713877,1.18010695 101.875306,8.3600343 L102.471391,34.8721975 C102.707294,45.3645212 95.5108353,58.0994572 86.4123551,63.308055 L65.2333039,75.4324053 C56.1282401,80.644772 44.3406881,92.1501857 38.9055791,101.129624 L25.2814782,123.638239 C21.19246,130.393778 13.1401925,131.558831 7.30121015,126.244986 L7.57644559,126.495468 C1.73523597,121.179596 -0.802730659,110.851858 1.90240118,103.442438 L3.2642939,99.7121815 Z" id="Rectangle-1116-Copy"></path>
                        <path d="M28.2334325,79.9101735 C28.2334325,76.509343 30.9937926,73.7524251 34.3834326,73.7524251 L34.3834326,73.7524251 C37.7799839,73.7524251 40.5334327,76.507898 40.5334327,79.9101735 L40.5334327,115.636228 C40.5334327,119.037059 37.7730726,121.793977 34.3834326,121.793977 L34.3834326,121.793977 C30.9868813,121.793977 28.2334325,119.038504 28.2334325,115.636228 L28.2334325,79.9101735 Z" id="Rectangle-1119" transform="translate(34.383433, 97.773201) rotate(-354.000000) translate(-34.383433, -97.773201) "></path>
                    </g>
                </g>
            </g>
            <g id="Group" sketch:type="MSLayerGroup" transform="translate(128.000000, 358.000000)">
                <g id="Inventory-Placeholder-Copy-2" transform="translate(256.000000, 538.000000)" fill="#4F645B" sketch:type="MSShapeGroup" fill-opacity="0.254189312">
                    <rect id="Rectangle-1017-Copy-10" x="0" y="0" width="128" height="128" rx="16"></rect>
                </g>
                <g id="Inventory-Placeholder-Copy-3" transform="translate(512.000000, 282.000000)" fill="#4F645B" sketch:type="MSShapeGroup" fill-opacity="0.254189312">
                    <rect id="Rectangle-1017-Copy-10" x="0" y="0" width="128" height="128" rx="16"></rect>
                </g>
                <g id="Inventory-Placeholder-Copy-8" transform="translate(384.000000, 410.000000)" fill="#4F645B" sketch:type="MSShapeGroup" fill-opacity="0.254189312">
                    <rect id="Rectangle-1017-Copy-10" x="0" y="0" width="128" height="128" rx="16"></rect>
                </g>
                <rect id="Rectangle-1017-Copy-12" fill-opacity="0.153957201" fill="#4F645B" sketch:type="MSShapeGroup" x="898" y="8" width="128" height="128" rx="16"></rect>
                <rect id="Rectangle-1017-Copy-13" fill-opacity="0.153957201" fill="#4F645B" sketch:type="MSShapeGroup" x="1028" y="8" width="128" height="128" rx="16"></rect>
                <path d="M896,136 L896,15.9936382 C896,7.16389868 888.83616,0 879.999116,0 L784.000884,0 C775.15611,0 768,7.16059573 768,15.9936382 L768,136 L765.999402,136 C757.157527,136 750,143.160394 750,151.993188 L750,668.006812 C750,676.845586 757.163176,684 765.999402,684 L1154.0006,684 C1162.84247,684 1170,676.839606 1170,668.006812 L1170,151.993188 C1170,143.154414 1162.83682,136 1154.0006,136 L896,136 Z" id="Rectangle-1017-Copy-10" fill-opacity="0.254189312" fill="#4F645B" sketch:type="MSShapeGroup"></path>
                <g id="Group-Copy-3" transform="translate(768.000000, 155.000000)" stroke="#33504C" stroke-width="4" sketch:type="MSShapeGroup" stroke-linecap="round">
                    <path d="M0.5,126 L384,127" id="Line"></path>
                    <path d="M0.5,254 L384,255" id="Line-Copy"></path>
                    <path d="M0.5,382 L384,383" id="Line-Copy-4"></path>
                    <path d="M-127.5,256 L383.5,256" id="Line-Copy-3" transform="translate(128.000000, 256.000000) rotate(-90.000000) translate(-128.000000, -256.000000) "></path>
                    <path d="M0.5,256 L511.5,256" id="Line-Copy-2" transform="translate(256.000000, 256.000000) rotate(-90.000000) translate(-256.000000, -256.000000) "></path>
                </g>
                <g id="Inventory-Placeholder-Copy-6" transform="translate(384.000000, 154.000000)" fill="#4F645B" sketch:type="MSShapeGroup" fill-opacity="0.254189312">
                    <rect id="Rectangle-1017-Copy-10" x="0" y="0" width="128" height="128" rx="16"></rect>
                </g>
                <g id="Inventory-Placeholder-Copy-4" transform="translate(0.000000, 282.000000)" fill="#4F645B" sketch:type="MSShapeGroup" fill-opacity="0.254189312">
                    <rect id="Rectangle-1017-Copy-10" x="0" y="0" width="128" height="128" rx="16"></rect>
                </g>
                <g id="Inventory-Placeholder-Copy-7" transform="translate(128.000000, 410.000000)" fill="#4F645B" sketch:type="MSShapeGroup" fill-opacity="0.254189312">
                    <rect id="Rectangle-1017-Copy-10" x="0" y="0" width="128" height="128" rx="16"></rect>
                </g>
                <g id="Inventory-Placeholder-Copy" transform="translate(256.000000, 26.000000)" fill="#4F645B" sketch:type="MSShapeGroup" fill-opacity="0.254189312">
                    <rect id="Rectangle-1017-Copy-10" x="0" y="0" width="128" height="128" rx="16"></rect>
                </g>
                <g id="Inventory-Placeholder-Copy-5" transform="translate(256.000000, 282.000000)" fill="#4F645B" sketch:type="MSShapeGroup" fill-opacity="0.254189312">
                    <rect id="Rectangle-1017-Copy-10" x="0" y="0" width="128" height="128" rx="16"></rect>
                </g>
            </g>
            <text id="Player" sketch:type="MSTextLayer" font-family="Gotham" font-size="48" font-weight="313" fill="#FFCF62">
                <tspan x="128.5" y="322.752019">Player</tspan>
            </text>
            <g id="Items-Coin-A-+-325" sketch:type="MSLayerGroup" transform="translate(1177.000000, 246.000000)">
                <g id="Items-Coin-A" transform="translate(16.000000, 0.000000)" sketch:type="MSShapeGroup">
                    <rect id="Rectangle-4631" x="0" y="0" width="128" height="128"></rect>
                    <g id="Oval-1112-Copy-2-+-Oval-1112-Copy-+-Oval-1112-Copy-3" transform="translate(30.000000, 34.000000)">
                        <path d="M38.372093,0 C54.9406355,0 68.372093,13.4314575 68.372093,30 C68.372093,46.5685425 54.9406355,60 38.372093,60 L28.8139535,60 L28.8139535,58.4452269 C16.9317962,54.4542097 8.37209302,43.2267178 8.37209302,30 C8.37209302,16.7732822 16.9317962,5.54579026 28.8139535,1.55477306 L28.8139535,0 L38.372093,0 Z" id="Oval-1112-Copy-2" fill="#E8B43E"></path>
                        <ellipse id="Oval-1112-Copy" fill="#FFCF62" cx="30" cy="30" rx="30" ry="30"></ellipse>
                        <path d="M31.6815712,10.0696915 C31.1271619,10.0235388 30.5663298,10 30,10 C18.954305,10 10,18.954305 10,30 C10,30.5663298 10.0235388,31.1271619 10.0696915,31.6815712 L31.6815712,10.0696915 Z" id="Oval-1112-Copy-3" fill="#E8B43E"></path>
                    </g>
                </g>
                <text id="0" sketch:type="MSTextLayer" font-family="Gotham" font-size="40" font-weight="260" sketch:alignment="right" fill="#FFCF62">
                    <tspan x="0.6" y="77">0</tspan>
                </text>
            </g>
            <text id="www.maesaigraphics.c" sketch:type="MSTextLayer" font-family="Roboto" font-size="32" font-weight="260" sketch:alignment="middle" letter-spacing="1" fill="#FFFFFF">
                <tspan x="506.375" y="1152">www.maesaigraphics.com</tspan>
            </text>
        </g>
    </g>
</svg>