<?xml version="1.0" encoding="UTF-8" standalone="no"?>
<svg width="3072px" height="1664px" viewBox="0 0 3072 1664" version="1.1" xmlns="http://www.w3.org/2000/svg" xmlns:xlink="http://www.w3.org/1999/xlink" xmlns:sketch="http://www.bohemiancoding.com/sketch/ns">
    <!-- Generator: Sketch 3.3.3 (12081) - http://www.bohemiancoding.com/sketch -->
    <title>Background-B Copy</title>
    <desc>Created with Sketch.</desc>
    <defs></defs>
    <g id="Fondos" stroke="none" stroke-width="1" fill="none" fill-rule="evenodd" sketch:type="MSPage">
        <g id="Background-B-Copy" sketch:type="MSArtboardGroup">
            <g id="Group" sketch:type="MSLayerGroup" transform="translate(-132.000000, 329.000000)" fill="#071437">
                <rect id="Rectangle-426" sketch:type="MSShapeGroup" x="132" y="728" width="3094" height="478"></rect>
                <path d="M231,747 L1010,747 L647.820083,23.194994 C633.004878,-6.4076604 608.995048,-6.39478178 594.186914,23.2123442 L231,747 Z" id="Triangle-1-Copy-3" sketch:type="MSShapeGroup" transform="translate(620.500000, 374.000000) scale(-1, 1) translate(-620.500000, -374.000000) "></path>
                <path d="M786,747 L1565,747 L1202.82008,23.194994 C1188.00488,-6.4076604 1163.99505,-6.39478178 1149.18691,23.2123442 L786,747 Z" id="Triangle-1-Copy" sketch:type="MSShapeGroup" transform="translate(1175.500000, 374.000000) scale(-1, 1) translate(-1175.500000, -374.000000) "></path>
                <path d="M1789,747 L1535.17008,240.176984 C1520.35381,210.598351 1496.34226,210.611219 1481.53306,240.19432 L1227,747 L1789,747 L1789,747 Z" id="Triangle-1-Copy-4" sketch:type="MSShapeGroup" transform="translate(1508.000000, 482.500000) scale(-1, 1) translate(-1508.000000, -482.500000) "></path>
                <path d="M562,747 L308.170077,240.176984 C293.353809,210.598351 269.342257,210.611219 254.533061,240.19432 L2.27373675e-13,747 L562,747 L562,747 Z" id="Triangle-1-Copy-5" sketch:type="MSShapeGroup" transform="translate(281.000000, 482.500000) scale(-1, 1) translate(-281.000000, -482.500000) "></path>
                <path d="M1174,747 L920.170077,240.176984 C905.353809,210.598351 881.342257,210.611219 866.533061,240.19432 L612,747 L1174,747 L1174,747 Z" id="Triangle-1-Copy-2" sketch:type="MSShapeGroup" transform="translate(893.000000, 482.500000) scale(-1, 1) translate(-893.000000, -482.500000) "></path>
                <path d="M1778,746.5 L2557,746.5 L2194.82008,22.694994 C2180.00488,-6.9076604 2155.99505,-6.89478178 2141.18691,22.7123442 L1778,746.5 Z" id="Triangle-1-Copy-3" sketch:type="MSShapeGroup" transform="translate(2167.500000, 373.500000) scale(-1, 1) translate(-2167.500000, -373.500000) "></path>
                <path d="M2333,746.5 L3112,746.5 L2749.82008,22.694994 C2735.00488,-6.9076604 2710.99505,-6.89478178 2696.18691,22.7123442 L2333,746.5 Z" id="Triangle-1-Copy" sketch:type="MSShapeGroup" transform="translate(2722.500000, 373.500000) scale(-1, 1) translate(-2722.500000, -373.500000) "></path>
                <path d="M3336,746.5 L3082.17008,239.676984 C3067.35381,210.098351 3043.34226,210.111219 3028.53306,239.69432 L2774,746.5 L3336,746.5 L3336,746.5 Z" id="Triangle-1-Copy-4" sketch:type="MSShapeGroup" transform="translate(3055.000000, 482.000000) scale(-1, 1) translate(-3055.000000, -482.000000) "></path>
                <path d="M2109,746.5 L1855.17008,239.676984 C1840.35381,210.098351 1816.34226,210.111219 1801.53306,239.69432 L1547,746.5 L2109,746.5 L2109,746.5 Z" id="Triangle-1-Copy-5" sketch:type="MSShapeGroup" transform="translate(1828.000000, 482.000000) scale(-1, 1) translate(-1828.000000, -482.000000) "></path>
                <path d="M2721,746.5 L2467.17008,239.676984 C2452.35381,210.098351 2428.34226,210.111219 2413.53306,239.69432 L2159,746.5 L2721,746.5 L2721,746.5 Z" id="Triangle-1-Copy-2" sketch:type="MSShapeGroup" transform="translate(2440.000000, 482.000000) scale(-1, 1) translate(-2440.000000, -482.000000) "></path>
            </g>
            <rect id="Rectangle-426-Copy" fill="#173B60" sketch:type="MSShapeGroup" x="0" y="1207" width="3094" height="478"></rect>
            <g id="Group" sketch:type="MSLayerGroup" transform="translate(-79.000000, 726.000000)">
                <g id="Montaña-grande-2-Copy-4" transform="translate(0.000000, 170.000000)" sketch:type="MSShapeGroup">
                    <path d="M108.590072,97.6087159 C128.872978,57.2366306 209.865017,56.9587884 230.07813,97.1919527 C266.051266,168.794635 337.997538,312 337.997538,312 L0.880044979,312 L108.590072,97.6087159 Z" id="Triangle-1-Copy-5" fill="#14234D"></path>
                    <path d="M148.210028,18.4354527 C159.935727,-4.9390954 178.94812,-4.93496792 190.670774,18.435453 L229.386897,95.6203737 C229.386897,95.6203737 189.489643,95.6203735 169.541016,95.6203734 C149.524239,95.6203732 109.490687,95.620373 109.490687,95.620373 L148.210028,18.4354527 Z" id="Triangle-1-Copy-4" fill="#477A9E"></path>
                </g>
                <g id="Montaña-grande-2-Copy-7" transform="translate(512.000000, 170.000000)" sketch:type="MSShapeGroup">
                    <path d="M108.590072,97.6087159 C128.872978,57.2366306 209.865017,56.9587884 230.07813,97.1919527 C266.051266,168.794635 337.997538,312 337.997538,312 L0.880044979,312 L108.590072,97.6087159 Z" id="Triangle-1-Copy-5" fill="#14234D"></path>
                    <path d="M148.210028,18.4354527 C159.935727,-4.9390954 178.94812,-4.93496792 190.670774,18.435453 L229.386897,95.6203737 L169.054687,95.6203734 L109.490687,95.620373 L148.210028,18.4354527 Z" id="Triangle-1-Copy-4" fill="#477A9E"></path>
                </g>
                <g id="Montaña-grande-1-Copy-4" transform="translate(169.000000, 1.000000)" sketch:type="MSShapeGroup">
                    <path d="M163.5855,154.192986 C194.390333,92.640482 317.397667,92.2168754 348.0965,153.557576 C402.731,262.725194 512,481.060429 512,481.060429 L0,481.060429 C0,481.060429 109.057,263.1488 163.5855,154.192986 Z" id="Triangle-1" fill="#173B60"></path>
                    <path d="M229.09069,23.1945494 C243.936271,-6.42500705 268.014355,-6.42286256 282.868193,23.1945482 L348.319688,153.699801 L256.818359,153.699803 C225.772344,153.699804 163.680312,153.699805 163.680312,153.699805 L229.09069,23.1945494 Z" id="Triangle-1-Copy" fill="#8C91B1"></path>
                </g>
                <g id="Montaña-grande-2-Copy-8" transform="translate(1024.000000, 170.000000)" sketch:type="MSShapeGroup">
                    <path d="M108.590072,97.6087159 C128.872978,57.2366306 209.865017,56.9587884 230.07813,97.1919527 C266.051266,168.794635 337.997538,312 337.997538,312 L0.880044979,312 L108.590072,97.6087159 Z" id="Triangle-1-Copy-5" fill="#14234D"></path>
                    <path d="M148.210028,18.4354527 C159.935727,-4.9390954 178.94812,-4.93496792 190.670774,18.435453 L229.386897,95.6203737 L169.25,95.6203734 C149.330229,95.6203732 109.490687,95.620373 109.490687,95.620373 L148.210028,18.4354527 Z" id="Triangle-1-Copy-4" fill="#477A9E"></path>
                </g>
                <g id="Montaña-grande-1-Copy-6" transform="translate(681.000000, 0.939571)" sketch:type="MSShapeGroup">
                    <path d="M163.5855,154.192986 C194.390333,92.640482 317.397667,92.2168754 348.0965,153.557576 C402.731,262.725194 512,481.060429 512,481.060429 L0,481.060429 C0,481.060429 109.057,263.1488 163.5855,154.192986 Z" id="Triangle-1" fill="#173B60"></path>
                    <path d="M229.09069,23.1945494 C243.936271,-6.42500705 268.014355,-6.42286256 282.868193,23.1945482 L348.319688,153.699801 C348.319688,153.699801 287.41125,153.699802 256.957031,153.699803 L163.680312,153.699805 L229.09069,23.1945494 Z" id="Triangle-1-Copy" fill="#8C91B1"></path>
                </g>
            </g>
            <g id="Group-Copy" sketch:type="MSLayerGroup" transform="translate(1790.000000, 726.000000)">
                <g id="Montaña-grande-2-Copy-4" transform="translate(0.000000, 170.000000)" sketch:type="MSShapeGroup">
                    <path d="M108.590072,97.6087159 C128.872978,57.2366306 209.865017,56.9587884 230.07813,97.1919527 C266.051266,168.794635 337.997538,312 337.997538,312 L0.880044979,312 L108.590072,97.6087159 Z" id="Triangle-1-Copy-5" fill="#14234D"></path>
                    <path d="M148.210028,18.4354527 C159.935727,-4.9390954 178.94812,-4.93496792 190.670774,18.435453 L229.386897,95.6203737 C229.386897,95.6203737 189.489643,95.6203735 169.541016,95.6203734 C149.524239,95.6203732 109.490687,95.620373 109.490687,95.620373 L148.210028,18.4354527 Z" id="Triangle-1-Copy-4" fill="#477A9E"></path>
                </g>
                <g id="Montaña-grande-2-Copy-7" transform="translate(512.000000, 170.000000)" sketch:type="MSShapeGroup">
                    <path d="M108.590072,97.6087159 C128.872978,57.2366306 209.865017,56.9587884 230.07813,97.1919527 C266.051266,168.794635 337.997538,312 337.997538,312 L0.880044979,312 L108.590072,97.6087159 Z" id="Triangle-1-Copy-5" fill="#14234D"></path>
                    <path d="M148.210028,18.4354527 C159.935727,-4.9390954 178.94812,-4.93496792 190.670774,18.435453 L229.386897,95.6203737 L169.054687,95.6203734 L109.490687,95.620373 L148.210028,18.4354527 Z" id="Triangle-1-Copy-4" fill="#477A9E"></path>
                </g>
                <g id="Montaña-grande-1-Copy-4" transform="translate(169.000000, 1.000000)" sketch:type="MSShapeGroup">
                    <path d="M163.5855,154.192986 C194.390333,92.640482 317.397667,92.2168754 348.0965,153.557576 C402.731,262.725194 512,481.060429 512,481.060429 L0,481.060429 C0,481.060429 109.057,263.1488 163.5855,154.192986 Z" id="Triangle-1" fill="#173B60"></path>
                    <path d="M229.09069,23.1945494 C243.936271,-6.42500705 268.014355,-6.42286256 282.868193,23.1945482 L348.319688,153.699801 L256.818359,153.699803 C225.772344,153.699804 163.680312,153.699805 163.680312,153.699805 L229.09069,23.1945494 Z" id="Triangle-1-Copy" fill="#8C91B1"></path>
                </g>
                <g id="Montaña-grande-2-Copy-8" transform="translate(1024.000000, 170.000000)" sketch:type="MSShapeGroup">
                    <path d="M108.590072,97.6087159 C128.872978,57.2366306 209.865017,56.9587884 230.07813,97.1919527 C266.051266,168.794635 337.997538,312 337.997538,312 L0.880044979,312 L108.590072,97.6087159 Z" id="Triangle-1-Copy-5" fill="#14234D"></path>
                    <path d="M148.210028,18.4354527 C159.935727,-4.9390954 178.94812,-4.93496792 190.670774,18.435453 L229.386897,95.6203737 L172.664062,95.6203734 L109.490687,95.620373 L148.210028,18.4354527 Z" id="Triangle-1-Copy-4" fill="#477A9E"></path>
                </g>
                <g id="Montaña-grande-1-Copy-6" transform="translate(681.000000, 0.939571)" sketch:type="MSShapeGroup">
                    <path d="M163.5855,154.192986 C194.390333,92.640482 317.397667,92.2168754 348.0965,153.557576 C402.731,262.725194 512,481.060429 512,481.060429 L0,481.060429 C0,481.060429 109.057,263.1488 163.5855,154.192986 Z" id="Triangle-1" fill="#173B60"></path>
                    <path d="M229.09069,23.1945494 C243.936271,-6.42500705 268.014355,-6.42286256 282.868193,23.1945482 L348.319688,153.699801 C348.319688,153.699801 287.41125,153.699802 256.957031,153.699803 L163.680312,153.699805 L229.09069,23.1945494 Z" id="Triangle-1-Copy" fill="#8C91B1"></path>
                </g>
            </g>
        </g>
    </g>
</svg>