<?xml version="1.0" encoding="UTF-8" standalone="no"?>
<svg width="3072px" height="1664px" viewBox="0 0 3072 1664" version="1.1" xmlns="http://www.w3.org/2000/svg" xmlns:xlink="http://www.w3.org/1999/xlink" xmlns:sketch="http://www.bohemiancoding.com/sketch/ns">
    <!-- Generator: Sketch 3.3.3 (12081) - http://www.bohemiancoding.com/sketch -->
    <title>Background-B-Woods</title>
    <desc>Created with Sketch.</desc>
    <defs>
        <linearGradient x1="50%" y1="0%" x2="50%" y2="100%" id="linearGradient-1">
            <stop stop-color="#00B9FF" stop-opacity="0" offset="0%"></stop>
            <stop stop-color="#002CB0" stop-opacity="0.272220335" offset="100%"></stop>
        </linearGradient>
    </defs>
    <g id="Fondos" stroke="none" stroke-width="1" fill="none" fill-rule="evenodd" sketch:type="MSPage">
        <g id="Background-B-Woods" sketch:type="MSArtboardGroup">
            <rect id="Rectangle-426-Copy" fill="#2B636C" sketch:type="MSShapeGroup" x="0" y="1207" width="3094" height="478"></rect>
            <g id="Group-+-Rectangle-1031-+-Group" sketch:type="MSLayerGroup" transform="translate(-2.000000, 968.000000)">
                <g id="Group" transform="translate(2.000000, 0.000000)" sketch:type="MSShapeGroup">
                    <g transform="translate(15.000000, 0.000000)" fill="#3B5C56">
                        <rect id="Path" x="600" y="46" width="39" height="800" rx="20"></rect>
                        <rect id="Path" x="648" y="46" width="39" height="800" rx="20"></rect>
                        <rect id="Path" x="734" y="108" width="39" height="800" rx="20"></rect>
                        <rect id="Path" x="782" y="108" width="39" height="800" rx="20"></rect>
                        <rect id="Path" x="685" y="81" width="39" height="800" rx="20"></rect>
                        <rect id="Path" x="110" y="116" width="39" height="800" rx="20"></rect>
                        <rect id="Path" x="159" y="185" width="39" height="800" rx="20"></rect>
                        <rect id="Path" x="62" y="140" width="39" height="800" rx="20"></rect>
                        <rect id="Path" x="0" y="135" width="39" height="800" rx="20"></rect>
                        <rect id="Path" x="259" y="57" width="39" height="800" rx="20"></rect>
                        <rect id="Path" x="307" y="57" width="39" height="800" rx="20"></rect>
                        <rect id="Path" x="211" y="103" width="39" height="800" rx="20"></rect>
                        <rect id="Path" x="489" y="134" width="39" height="800" rx="20"></rect>
                        <rect id="Path" x="537" y="134" width="39" height="800" rx="20"></rect>
                        <rect id="Path" x="440" y="169" width="39" height="800" rx="20"></rect>
                        <rect id="Path" x="393" y="140" width="39" height="800" rx="20"></rect>
                        <rect id="Path" x="345" y="111" width="39" height="800" rx="20"></rect>
                        <rect id="Path-Copy-81" x="2824" y="72" width="39" height="800" rx="20"></rect>
                        <rect id="Path-Copy-56" x="2872" y="72" width="39" height="800" rx="20"></rect>
                        <rect id="Path-Copy-59" x="2909" y="107" width="39" height="800" rx="20"></rect>
                        <rect id="Path-Copy-86" x="2996" y="72" width="39" height="800" rx="20"></rect>
                        <rect id="Path-Copy-61" x="2374" y="99" width="39" height="800" rx="20"></rect>
                        <rect id="Path-Copy-62" x="2326" y="124" width="39" height="800" rx="20"></rect>
                        <rect id="Path-Copy-65" x="2264" y="99" width="39" height="800" rx="20"></rect>
                        <rect id="Path-Copy-67" x="2484" y="116" width="39" height="800" rx="20"></rect>
                        <rect id="Path-Copy-68" x="2532" y="126" width="39" height="800" rx="20"></rect>
                        <rect id="Path-Copy-69" x="2436" y="99" width="39" height="800" rx="20"></rect>
                        <rect id="Path-Copy-72" x="2713" y="159" width="39" height="800" rx="20"></rect>
                        <rect id="Path-Copy-73" x="2761" y="120" width="39" height="800" rx="20"></rect>
                        <rect id="Path-Copy-74" x="2666" y="194" width="39" height="800" rx="20"></rect>
                        <rect id="Path-Copy-77" x="2617" y="166" width="39" height="800" rx="20"></rect>
                        <rect id="Path-Copy-78" x="2569" y="137" width="39" height="800" rx="20"></rect>
                        <rect id="Path-Copy-31" x="1417" y="99" width="39" height="800" rx="20"></rect>
                        <rect id="Path-Copy" x="1465" y="99" width="39" height="800" rx="20"></rect>
                        <rect id="Path-Copy-4" x="1551" y="138" width="39" height="800" rx="20"></rect>
                        <rect id="Path-Copy-5" x="1599" y="167" width="39" height="800" rx="20"></rect>
                        <rect id="Path-Copy-6" x="1502" y="137" width="39" height="800" rx="20"></rect>
                        <rect id="Path-Copy-9" x="929" y="116" width="39" height="800" rx="20"></rect>
                        <rect id="Path-Copy-10" x="979" y="185" width="39" height="800" rx="20"></rect>
                        <rect id="Path-Copy-11" x="880" y="140" width="39" height="800" rx="20"></rect>
                        <rect id="Path-Copy-14" x="818" y="115" width="39" height="800" rx="20"></rect>
                        <rect id="Path-Copy-16" x="1078" y="87" width="39" height="800" rx="20"></rect>
                        <rect id="Path-Copy-17" x="1126" y="87" width="39" height="800" rx="20"></rect>
                        <rect id="Path-Copy-18" x="1030" y="134" width="39" height="800" rx="20"></rect>
                        <rect id="Path-Copy-22" x="1308" y="134" width="39" height="800" rx="20"></rect>
                        <rect id="Path-Copy-23" x="1356" y="134" width="39" height="800" rx="20"></rect>
                        <rect id="Path-Copy-24" x="1260" y="169" width="39" height="800" rx="20"></rect>
                        <rect id="Path-Copy-27" x="1212" y="140" width="39" height="800" rx="20"></rect>
                        <rect id="Path-Copy-28" x="1164" y="140" width="39" height="800" rx="20"></rect>
                        <rect id="Path-Copy-55" x="2046" y="39" width="39" height="800" rx="20"></rect>
                        <rect id="Path-Copy-32" x="2094" y="78" width="39" height="800" rx="20"></rect>
                        <rect id="Path-Copy-35" x="2179" y="45" width="39" height="800" rx="20"></rect>
                        <rect id="Path-Copy-36" x="2227" y="68" width="39" height="800" rx="20"></rect>
                        <rect id="Path-Copy-37" x="2130" y="58" width="39" height="800" rx="20"></rect>
                        <rect id="Path-Copy-40" x="1708" y="129" width="39" height="800" rx="20"></rect>
                        <rect id="Path-Copy-41" x="1756" y="129" width="39" height="800" rx="20"></rect>
                        <rect id="Path-Copy-42" x="1660" y="176" width="39" height="800" rx="20"></rect>
                        <rect id="Path-Copy-46" x="1937" y="72" width="39" height="800" rx="20"></rect>
                        <rect id="Path-Copy-47" x="1985" y="0" width="39" height="800" rx="20"></rect>
                        <rect id="Path-Copy-48" x="1889" y="93" width="39" height="800" rx="20"></rect>
                        <rect id="Path-Copy-51" x="1841" y="151" width="39" height="800" rx="20"></rect>
                        <rect id="Path-Copy-52" x="1793" y="139" width="39" height="800" rx="20"></rect>
                    </g>
                    <g transform="translate(0.000000, 19.000000)" fill="#406359">
                        <rect id="Path" x="591" y="46" width="39" height="800" rx="20"></rect>
                        <rect id="Path" x="639" y="11" width="39" height="800" rx="20"></rect>
                        <rect id="Path" x="773" y="72" width="39" height="800" rx="20"></rect>
                        <rect id="Path" x="725" y="46" width="39" height="800" rx="20"></rect>
                        <rect id="Path" x="101" y="108" width="39" height="800" rx="20"></rect>
                        <rect id="Path" x="149" y="80" width="39" height="800" rx="20"></rect>
                        <rect id="Path" x="53" y="76" width="39" height="800" rx="20"></rect>
                        <rect id="Path-Copy-82" x="0" y="136" width="39" height="800" rx="20"></rect>
                        <rect id="Path" x="251" y="63" width="39" height="800" rx="20"></rect>
                        <rect id="Path" x="299" y="17" width="39" height="800" rx="20"></rect>
                        <rect id="Path" x="206" y="152" width="39" height="800" rx="20"></rect>
                        <rect id="Path" x="481" y="133" width="39" height="800" rx="20"></rect>
                        <rect id="Path" x="529" y="98" width="39" height="800" rx="20"></rect>
                        <rect id="Path" x="385" y="69" width="39" height="800" rx="20"></rect>
                        <rect id="Path" x="433" y="98" width="39" height="800" rx="20"></rect>
                        <rect id="Path-Copy-57" x="2814" y="72" width="39" height="800" rx="20"></rect>
                        <rect id="Path-Copy-58" x="2862" y="36" width="39" height="800" rx="20"></rect>
                        <rect id="Path-Copy-83" x="2986" y="72" width="39" height="800" rx="20"></rect>
                        <rect id="Path-Copy-84" x="3034" y="36" width="39" height="800" rx="20"></rect>
                        <rect id="Path-Copy-60" x="2948" y="72" width="39" height="800" rx="20"></rect>
                        <rect id="Path-Copy-63" x="2365" y="92" width="39" height="800" rx="20"></rect>
                        <rect id="Path-Copy-64" x="2413" y="70" width="39" height="800" rx="20"></rect>
                        <rect id="Path-Copy-66" x="2317" y="60" width="39" height="800" rx="20"></rect>
                        <rect id="Path-Copy-70" x="2475" y="89" width="39" height="800" rx="20"></rect>
                        <rect id="Path-Copy-71" x="2523" y="82" width="39" height="800" rx="20"></rect>
                        <rect id="Path-Copy-75" x="2705" y="159" width="39" height="800" rx="20"></rect>
                        <rect id="Path-Copy-76" x="2752" y="123" width="39" height="800" rx="20"></rect>
                        <rect id="Path-Copy-79" x="2608" y="101" width="39" height="800" rx="20"></rect>
                        <rect id="Path-Copy-80" x="2656" y="123" width="39" height="800" rx="20"></rect>
                        <rect id="Path-Copy-2" x="1407" y="99" width="39" height="800" rx="20"></rect>
                        <rect id="Path-Copy-3" x="1455" y="64" width="39" height="800" rx="20"></rect>
                        <rect id="Path-Copy-7" x="1589" y="132" width="39" height="800" rx="20"></rect>
                        <rect id="Path-Copy-8" x="1541" y="99" width="39" height="800" rx="20"></rect>
                        <rect id="Path-Copy-12" x="919" y="108" width="39" height="800" rx="20"></rect>
                        <rect id="Path-Copy-13" x="967" y="80" width="39" height="800" rx="20"></rect>
                        <rect id="Path-Copy-15" x="871" y="76" width="39" height="800" rx="20"></rect>
                        <rect id="Path-Copy-19" x="1069" y="93" width="39" height="800" rx="20"></rect>
                        <rect id="Path-Copy-20" x="1117" y="47" width="39" height="800" rx="20"></rect>
                        <rect id="Path-Copy-21" x="1019" y="123" width="39" height="800" rx="20"></rect>
                        <rect id="Path-Copy-25" x="1299" y="133" width="39" height="800" rx="20"></rect>
                        <rect id="Path-Copy-26" x="1347" y="108" width="39" height="800" rx="20"></rect>
                        <rect id="Path-Copy-29" x="1203" y="99" width="39" height="800" rx="20"></rect>
                        <rect id="Path-Copy-30" x="1251" y="128" width="39" height="800" rx="20"></rect>
                        <rect id="Path-Copy-33" x="2036" y="0" width="39" height="800" rx="20"></rect>
                        <rect id="Path-Copy-34" x="2084" y="43" width="39" height="800" rx="20"></rect>
                        <rect id="Path-Copy-38" x="2217" y="32" width="39" height="800" rx="20"></rect>
                        <rect id="Path-Copy-39" x="2169" y="17" width="39" height="800" rx="20"></rect>
                        <rect id="Path-Copy-43" x="1699" y="134" width="39" height="800" rx="20"></rect>
                        <rect id="Path-Copy-44" x="1747" y="89" width="39" height="800" rx="20"></rect>
                        <rect id="Path-Copy-45" x="1649" y="165" width="39" height="800" rx="20"></rect>
                        <rect id="Path-Copy-49" x="1928" y="84" width="39" height="800" rx="20"></rect>
                        <rect id="Path-Copy-50" x="1976" y="8" width="39" height="800" rx="20"></rect>
                        <rect id="Path-Copy-53" x="1832" y="140" width="39" height="800" rx="20"></rect>
                        <rect id="Path-Copy-54" x="1880" y="117" width="39" height="800" rx="20"></rect>
                    </g>
                </g>
                <rect id="Rectangle-1031" fill="url(#linearGradient-1)" sketch:type="MSShapeGroup" x="2" y="159" width="3072" height="217"></rect>
                <g id="Group" transform="translate(0.000000, 159.000000)" sketch:type="MSShapeGroup">
                    <g transform="translate(0.000000, 30.000000)" id="Path" fill="#55735F">
                        <rect x="1729" y="96" width="52" height="600" rx="26"></rect>
                        <rect x="1793" y="96" width="52" height="600" rx="26"></rect>
                        <rect x="1909" y="96" width="52" height="600" rx="26"></rect>
                        <rect x="1973" y="62" width="52" height="600" rx="26"></rect>
                        <rect x="1845" y="141" width="52" height="600" rx="26"></rect>
                        <rect x="2025" y="137" width="52" height="600" rx="26"></rect>
                        <rect x="2089" y="170" width="52" height="600" rx="26"></rect>
                        <rect x="1273" y="92" width="52" height="600" rx="26"></rect>
                        <rect x="1338" y="92" width="52" height="600" rx="26"></rect>
                        <rect x="1209" y="137" width="52" height="600" rx="26"></rect>
                        <rect x="1581" y="29" width="52" height="600" rx="26"></rect>
                        <rect x="1645" y="86" width="52" height="600" rx="26"></rect>
                        <rect x="1517" y="74" width="52" height="600" rx="26"></rect>
                        <rect x="1453" y="37" width="52" height="600" rx="26"></rect>
                        <rect x="1389" y="9.09494702e-13" width="52" height="600" rx="26"></rect>
                        <rect x="2659" y="96" width="52" height="600" rx="26"></rect>
                        <rect x="2723" y="96" width="52" height="600" rx="26"></rect>
                        <rect x="2839" y="96" width="52" height="600" rx="26"></rect>
                        <rect x="2903" y="96" width="52" height="600" rx="26"></rect>
                        <rect x="2773" y="141" width="52" height="600" rx="26"></rect>
                        <rect x="2967" y="187" width="52" height="600" rx="26"></rect>
                        <rect x="3023" y="137" width="52" height="600" rx="26"></rect>
                        <rect x="2203" y="92" width="52" height="600" rx="26"></rect>
                        <rect x="2267" y="92" width="52" height="600" rx="26"></rect>
                        <rect x="2139" y="137" width="52" height="600" rx="26"></rect>
                        <rect x="2511" y="29" width="52" height="600" rx="26"></rect>
                        <rect x="2575" y="29" width="52" height="600" rx="26"></rect>
                        <rect x="2447" y="74" width="52" height="600" rx="26"></rect>
                        <rect x="2383" y="37" width="52" height="600" rx="26"></rect>
                        <rect x="2317" y="9.09494702e-13" width="52" height="600" rx="26"></rect>
                        <rect x="800" y="23" width="52" height="600" rx="26"></rect>
                        <rect x="864" y="23" width="52" height="600" rx="26"></rect>
                        <rect x="979" y="101" width="52" height="600" rx="26"></rect>
                        <rect x="1043" y="101" width="52" height="600" rx="26"></rect>
                        <rect x="914" y="68" width="52" height="600" rx="26"></rect>
                        <rect x="1093" y="153" width="52" height="600" rx="26"></rect>
                        <rect x="1158" y="153" width="52" height="600" rx="26"></rect>
                        <rect x="147" y="112" width="52" height="600" rx="26"></rect>
                        <rect x="214" y="181" width="52" height="600" rx="26"></rect>
                        <rect x="83" y="156" width="52" height="600" rx="26"></rect>
                        <rect x="0" y="117" width="52" height="600" rx="26"></rect>
                        <rect x="346" y="37" width="52" height="600" rx="26"></rect>
                        <rect x="410" y="37" width="52" height="600" rx="26"></rect>
                        <rect x="282" y="96" width="52" height="600" rx="26"></rect>
                        <rect x="653" y="135" width="52" height="600" rx="26"></rect>
                        <rect x="717" y="135" width="52" height="600" rx="26"></rect>
                        <rect x="589" y="180" width="52" height="600" rx="26"></rect>
                        <rect x="461" y="106" width="52" height="600" rx="26"></rect>
                    </g>
                    <g transform="translate(50.000000, 0.000000)" id="Path" fill="#65846E">
                        <rect x="1647" y="150" width="52" height="600" rx="26"></rect>
                        <rect x="1711" y="105" width="52" height="600" rx="26"></rect>
                        <rect x="1891" y="71" width="52" height="600" rx="26"></rect>
                        <rect x="1827" y="150" width="52" height="600" rx="26"></rect>
                        <rect x="2007" y="168" width="52" height="600" rx="26"></rect>
                        <rect x="1255" y="101" width="52" height="600" rx="26"></rect>
                        <rect x="1191" y="146" width="52" height="600" rx="26"></rect>
                        <rect x="1499" y="83" width="52" height="600" rx="26"></rect>
                        <rect x="1563" y="85" width="52" height="600" rx="26"></rect>
                        <rect x="1371" y="0" width="52" height="600" rx="26"></rect>
                        <rect x="1435" y="38" width="52" height="600" rx="26"></rect>
                        <rect x="2576" y="150" width="52" height="600" rx="26"></rect>
                        <rect x="2641" y="105" width="52" height="600" rx="26"></rect>
                        <rect x="2821" y="105" width="52" height="600" rx="26"></rect>
                        <rect x="2757" y="150" width="52" height="600" rx="26"></rect>
                        <rect x="2885" y="179" width="52" height="600" rx="26"></rect>
                        <rect x="2949" y="179" width="52" height="600" rx="26"></rect>
                        <rect x="2185" y="101" width="52" height="600" rx="26"></rect>
                        <rect x="2121" y="146" width="52" height="600" rx="26"></rect>
                        <rect x="2429" y="83" width="52" height="600" rx="26"></rect>
                        <rect x="2493" y="38" width="52" height="600" rx="26"></rect>
                        <rect x="2301" y="0" width="52" height="600" rx="26"></rect>
                        <rect x="2365" y="38" width="52" height="600" rx="26"></rect>
                        <rect x="718" y="77" width="52" height="600" rx="26"></rect>
                        <rect x="782" y="32" width="52" height="600" rx="26"></rect>
                        <rect x="961" y="110" width="52" height="600" rx="26"></rect>
                        <rect x="897" y="77" width="52" height="600" rx="26"></rect>
                        <rect x="1076" y="163" width="52" height="600" rx="26"></rect>
                        <rect x="65" y="166" width="52" height="600" rx="26"></rect>
                        <rect x="0" y="115" width="52" height="600" rx="26"></rect>
                        <rect x="264" y="98" width="52" height="600" rx="26"></rect>
                        <rect x="328" y="39" width="52" height="600" rx="26"></rect>
                        <rect x="198" y="176" width="52" height="600" rx="26"></rect>
                        <rect x="129" y="121" width="52" height="600" rx="26"></rect>
                        <rect x="571" y="189" width="52" height="600" rx="26"></rect>
                        <rect x="635" y="144" width="52" height="600" rx="26"></rect>
                        <rect x="475" y="174" width="52" height="600" rx="26"></rect>
                        <rect x="443" y="106" width="52" height="600" rx="26"></rect>
                        <rect x="507" y="144" width="52" height="600" rx="26"></rect>
                    </g>
                </g>
            </g>
        </g>
    </g>
</svg>