<?xml version="1.0" encoding="UTF-8" standalone="no"?>
<svg width="3072px" height="1664px" viewBox="0 0 3072 1664" version="1.1" xmlns="http://www.w3.org/2000/svg" xmlns:xlink="http://www.w3.org/1999/xlink" xmlns:sketch="http://www.bohemiancoding.com/sketch/ns">
    <!-- Generator: Sketch 3.3.3 (12081) - http://www.bohemiancoding.com/sketch -->
    <title>Background-B</title>
    <desc>Created with Sketch.</desc>
    <defs>
        <linearGradient x1="50%" y1="0%" x2="50%" y2="100%" id="linearGradient-1">
            <stop stop-color="#00B9FF" stop-opacity="0" offset="0%"></stop>
            <stop stop-color="#002CB0" stop-opacity="0.272220335" offset="100%"></stop>
        </linearGradient>
    </defs>
    <g id="Fondos" stroke="none" stroke-width="1" fill="none" fill-rule="evenodd" sketch:type="MSPage">
        <g id="Background-B" sketch:type="MSArtboardGroup">
            <rect id="Rectangle-1482" fill="#000000" sketch:type="MSShapeGroup" x="0" y="0" width="3072" height="1664"></rect>
            <g id="Group" sketch:type="MSLayerGroup" transform="translate(-438.000000, -131.000000)" fill="#FFFFFF">
                <g id="Background-Stars-+-Background-Stars-Copy" transform="translate(466.000000, 446.000000)" sketch:type="MSShapeGroup">
                    <g id="Background-Stars">
                        <path d="M85.5,115.307612 L94.6923882,120.5 L85.5,125.692388 L76.3076118,120.5 L85.5,115.307612 Z M122.5,295.307612 L131.692388,300.5 L122.5,305.692388 L113.307612,300.5 L122.5,295.307612 Z M507.5,285.307612 L516.692388,290.5 L507.5,295.692388 L498.307612,290.5 L507.5,285.307612 Z M235.5,258.307612 L244.692388,263.5 L235.5,268.692388 L226.307612,263.5 L235.5,258.307612 Z M295.542893,332.943772 L301.199747,336.139087 L295.542893,339.334403 L289.886039,336.139087 L295.542893,332.943772 Z M305.542893,440.943772 L311.199747,444.139087 L305.542893,447.334403 L299.886039,444.139087 L305.542893,440.943772 Z M375.542893,170.943772 L381.199747,174.139087 L375.542893,177.334403 L369.886039,174.139087 L375.542893,170.943772 Z M705.542893,321.943772 L711.199747,325.139087 L705.542893,328.334403 L699.886039,325.139087 L705.542893,321.943772 Z M305.542893,80.9437715 L311.199747,84.1390873 L305.542893,87.3344031 L299.886039,84.1390873 L305.542893,80.9437715 Z M6.54289322,180.943772 L12.1997475,184.139087 L6.54289322,187.334403 L0.886038969,184.139087 L6.54289322,180.943772 Z M145.542893,209.943772 L151.199747,213.139087 L145.542893,216.334403 L139.886039,213.139087 L145.542893,209.943772 Z M195.542893,0.943771509 L201.199747,4.1390873 L195.542893,7.33440308 L189.886039,4.1390873 L195.542893,0.943771509 Z M595.542893,360.943772 L601.199747,364.139087 L595.542893,367.334403 L589.886039,364.139087 L595.542893,360.943772 Z M385.5,365.307612 L394.692388,370.5 L385.5,375.692388 L376.307612,370.5 L385.5,365.307612 Z" id="Rectangle-450"></path>
                    </g>
                </g>
                <g id="Background-Stars-+-Background-Stars-Copy-2" transform="translate(1226.000000, 446.000000)" sketch:type="MSShapeGroup">
                    <g id="Background-Stars">
                        <path d="M85.5,115.307612 L94.6923882,120.5 L85.5,125.692388 L76.3076118,120.5 L85.5,115.307612 Z M122.5,295.307612 L131.692388,300.5 L122.5,305.692388 L113.307612,300.5 L122.5,295.307612 Z M507.5,285.307612 L516.692388,290.5 L507.5,295.692388 L498.307612,290.5 L507.5,285.307612 Z M235.5,258.307612 L244.692388,263.5 L235.5,268.692388 L226.307612,263.5 L235.5,258.307612 Z M295.542893,332.943772 L301.199747,336.139087 L295.542893,339.334403 L289.886039,336.139087 L295.542893,332.943772 Z M305.542893,440.943772 L311.199747,444.139087 L305.542893,447.334403 L299.886039,444.139087 L305.542893,440.943772 Z M375.542893,170.943772 L381.199747,174.139087 L375.542893,177.334403 L369.886039,174.139087 L375.542893,170.943772 Z M705.542893,321.943772 L711.199747,325.139087 L705.542893,328.334403 L699.886039,325.139087 L705.542893,321.943772 Z M305.542893,80.9437715 L311.199747,84.1390873 L305.542893,87.3344031 L299.886039,84.1390873 L305.542893,80.9437715 Z M6.54289322,180.943772 L12.1997475,184.139087 L6.54289322,187.334403 L0.886038969,184.139087 L6.54289322,180.943772 Z M145.542893,209.943772 L151.199747,213.139087 L145.542893,216.334403 L139.886039,213.139087 L145.542893,209.943772 Z M195.542893,0.943771509 L201.199747,4.1390873 L195.542893,7.33440308 L189.886039,4.1390873 L195.542893,0.943771509 Z M595.542893,360.943772 L601.199747,364.139087 L595.542893,367.334403 L589.886039,364.139087 L595.542893,360.943772 Z M385.5,365.307612 L394.692388,370.5 L385.5,375.692388 L376.307612,370.5 L385.5,365.307612 Z" id="Rectangle-450"></path>
                    </g>
                </g>
                <g id="Background-Stars-+-Background-Stars-Copy-4" transform="translate(1986.000000, 446.000000)" sketch:type="MSShapeGroup">
                    <g id="Background-Stars">
                        <path d="M85.5,115.307612 L94.6923882,120.5 L85.5,125.692388 L76.3076118,120.5 L85.5,115.307612 Z M122.5,295.307612 L131.692388,300.5 L122.5,305.692388 L113.307612,300.5 L122.5,295.307612 Z M507.5,285.307612 L516.692388,290.5 L507.5,295.692388 L498.307612,290.5 L507.5,285.307612 Z M235.5,258.307612 L244.692388,263.5 L235.5,268.692388 L226.307612,263.5 L235.5,258.307612 Z M295.542893,332.943772 L301.199747,336.139087 L295.542893,339.334403 L289.886039,336.139087 L295.542893,332.943772 Z M305.542893,440.943772 L311.199747,444.139087 L305.542893,447.334403 L299.886039,444.139087 L305.542893,440.943772 Z M375.542893,170.943772 L381.199747,174.139087 L375.542893,177.334403 L369.886039,174.139087 L375.542893,170.943772 Z M705.542893,321.943772 L711.199747,325.139087 L705.542893,328.334403 L699.886039,325.139087 L705.542893,321.943772 Z M305.542893,80.9437715 L311.199747,84.1390873 L305.542893,87.3344031 L299.886039,84.1390873 L305.542893,80.9437715 Z M6.54289322,180.943772 L12.1997475,184.139087 L6.54289322,187.334403 L0.886038969,184.139087 L6.54289322,180.943772 Z M145.542893,209.943772 L151.199747,213.139087 L145.542893,216.334403 L139.886039,213.139087 L145.542893,209.943772 Z M195.542893,0.943771509 L201.199747,4.1390873 L195.542893,7.33440308 L189.886039,4.1390873 L195.542893,0.943771509 Z M595.542893,360.943772 L601.199747,364.139087 L595.542893,367.334403 L589.886039,364.139087 L595.542893,360.943772 Z M385.5,365.307612 L394.692388,370.5 L385.5,375.692388 L376.307612,370.5 L385.5,365.307612 Z" id="Rectangle-450"></path>
                    </g>
                </g>
                <g id="Background-Stars-+-Background-Stars-Copy-3" transform="translate(2748.000000, 446.000000)" sketch:type="MSShapeGroup">
                    <g id="Background-Stars">
                        <path d="M85.5,115.307612 L94.6923882,120.5 L85.5,125.692388 L76.3076118,120.5 L85.5,115.307612 Z M122.5,295.307612 L131.692388,300.5 L122.5,305.692388 L113.307612,300.5 L122.5,295.307612 Z M507.5,285.307612 L516.692388,290.5 L507.5,295.692388 L498.307612,290.5 L507.5,285.307612 Z M235.5,258.307612 L244.692388,263.5 L235.5,268.692388 L226.307612,263.5 L235.5,258.307612 Z M295.542893,332.943772 L301.199747,336.139087 L295.542893,339.334403 L289.886039,336.139087 L295.542893,332.943772 Z M305.542893,440.943772 L311.199747,444.139087 L305.542893,447.334403 L299.886039,444.139087 L305.542893,440.943772 Z M375.542893,170.943772 L381.199747,174.139087 L375.542893,177.334403 L369.886039,174.139087 L375.542893,170.943772 Z M705.542893,321.943772 L711.199747,325.139087 L705.542893,328.334403 L699.886039,325.139087 L705.542893,321.943772 Z M305.542893,80.9437715 L311.199747,84.1390873 L305.542893,87.3344031 L299.886039,84.1390873 L305.542893,80.9437715 Z M6.54289322,180.943772 L12.1997475,184.139087 L6.54289322,187.334403 L0.886038969,184.139087 L6.54289322,180.943772 Z M145.542893,209.943772 L151.199747,213.139087 L145.542893,216.334403 L139.886039,213.139087 L145.542893,209.943772 Z M195.542893,0.943771509 L201.199747,4.1390873 L195.542893,7.33440308 L189.886039,4.1390873 L195.542893,0.943771509 Z M595.542893,360.943772 L601.199747,364.139087 L595.542893,367.334403 L589.886039,364.139087 L595.542893,360.943772 Z M385.5,365.307612 L394.692388,370.5 L385.5,375.692388 L376.307612,370.5 L385.5,365.307612 Z" id="Rectangle-450"></path>
                    </g>
                </g>
                <g id="Background-Stars-+-Background-Stars-Copy-8" transform="translate(760.000000, 0.000000)" sketch:type="MSShapeGroup">
                    <g id="Background-Stars">
                        <path d="M85.5,115.307612 L94.6923882,120.5 L85.5,125.692388 L76.3076118,120.5 L85.5,115.307612 Z M122.5,295.307612 L131.692388,300.5 L122.5,305.692388 L113.307612,300.5 L122.5,295.307612 Z M507.5,285.307612 L516.692388,290.5 L507.5,295.692388 L498.307612,290.5 L507.5,285.307612 Z M235.5,258.307612 L244.692388,263.5 L235.5,268.692388 L226.307612,263.5 L235.5,258.307612 Z M295.542893,332.943772 L301.199747,336.139087 L295.542893,339.334403 L289.886039,336.139087 L295.542893,332.943772 Z M305.542893,440.943772 L311.199747,444.139087 L305.542893,447.334403 L299.886039,444.139087 L305.542893,440.943772 Z M375.542893,170.943772 L381.199747,174.139087 L375.542893,177.334403 L369.886039,174.139087 L375.542893,170.943772 Z M705.542893,321.943772 L711.199747,325.139087 L705.542893,328.334403 L699.886039,325.139087 L705.542893,321.943772 Z M305.542893,80.9437715 L311.199747,84.1390873 L305.542893,87.3344031 L299.886039,84.1390873 L305.542893,80.9437715 Z M6.54289322,180.943772 L12.1997475,184.139087 L6.54289322,187.334403 L0.886038969,184.139087 L6.54289322,180.943772 Z M145.542893,209.943772 L151.199747,213.139087 L145.542893,216.334403 L139.886039,213.139087 L145.542893,209.943772 Z M195.542893,0.943771509 L201.199747,4.1390873 L195.542893,7.33440308 L189.886039,4.1390873 L195.542893,0.943771509 Z M595.542893,360.943772 L601.199747,364.139087 L595.542893,367.334403 L589.886039,364.139087 L595.542893,360.943772 Z M385.5,365.307612 L394.692388,370.5 L385.5,375.692388 L376.307612,370.5 L385.5,365.307612 Z" id="Rectangle-450"></path>
                    </g>
                </g>
                <g id="Background-Stars-+-Background-Stars-Copy-9" sketch:type="MSShapeGroup">
                    <g id="Background-Stars">
                        <path d="M85.5,115.307612 L94.6923882,120.5 L85.5,125.692388 L76.3076118,120.5 L85.5,115.307612 Z M122.5,295.307612 L131.692388,300.5 L122.5,305.692388 L113.307612,300.5 L122.5,295.307612 Z M507.5,285.307612 L516.692388,290.5 L507.5,295.692388 L498.307612,290.5 L507.5,285.307612 Z M235.5,258.307612 L244.692388,263.5 L235.5,268.692388 L226.307612,263.5 L235.5,258.307612 Z M295.542893,332.943772 L301.199747,336.139087 L295.542893,339.334403 L289.886039,336.139087 L295.542893,332.943772 Z M305.542893,440.943772 L311.199747,444.139087 L305.542893,447.334403 L299.886039,444.139087 L305.542893,440.943772 Z M375.542893,170.943772 L381.199747,174.139087 L375.542893,177.334403 L369.886039,174.139087 L375.542893,170.943772 Z M705.542893,321.943772 L711.199747,325.139087 L705.542893,328.334403 L699.886039,325.139087 L705.542893,321.943772 Z M305.542893,80.9437715 L311.199747,84.1390873 L305.542893,87.3344031 L299.886039,84.1390873 L305.542893,80.9437715 Z M6.54289322,180.943772 L12.1997475,184.139087 L6.54289322,187.334403 L0.886038969,184.139087 L6.54289322,180.943772 Z M145.542893,209.943772 L151.199747,213.139087 L145.542893,216.334403 L139.886039,213.139087 L145.542893,209.943772 Z M195.542893,0.943771509 L201.199747,4.1390873 L195.542893,7.33440308 L189.886039,4.1390873 L195.542893,0.943771509 Z M595.542893,360.943772 L601.199747,364.139087 L595.542893,367.334403 L589.886039,364.139087 L595.542893,360.943772 Z M385.5,365.307612 L394.692388,370.5 L385.5,375.692388 L376.307612,370.5 L385.5,365.307612 Z" id="Rectangle-450"></path>
                    </g>
                </g>
                <g id="Background-Stars-+-Background-Stars-Copy-5" transform="translate(1520.000000, 0.000000)" sketch:type="MSShapeGroup">
                    <g id="Background-Stars">
                        <path d="M85.5,115.307612 L94.6923882,120.5 L85.5,125.692388 L76.3076118,120.5 L85.5,115.307612 Z M122.5,295.307612 L131.692388,300.5 L122.5,305.692388 L113.307612,300.5 L122.5,295.307612 Z M507.5,285.307612 L516.692388,290.5 L507.5,295.692388 L498.307612,290.5 L507.5,285.307612 Z M235.5,258.307612 L244.692388,263.5 L235.5,268.692388 L226.307612,263.5 L235.5,258.307612 Z M295.542893,332.943772 L301.199747,336.139087 L295.542893,339.334403 L289.886039,336.139087 L295.542893,332.943772 Z M305.542893,440.943772 L311.199747,444.139087 L305.542893,447.334403 L299.886039,444.139087 L305.542893,440.943772 Z M375.542893,170.943772 L381.199747,174.139087 L375.542893,177.334403 L369.886039,174.139087 L375.542893,170.943772 Z M705.542893,321.943772 L711.199747,325.139087 L705.542893,328.334403 L699.886039,325.139087 L705.542893,321.943772 Z M305.542893,80.9437715 L311.199747,84.1390873 L305.542893,87.3344031 L299.886039,84.1390873 L305.542893,80.9437715 Z M6.54289322,180.943772 L12.1997475,184.139087 L6.54289322,187.334403 L0.886038969,184.139087 L6.54289322,180.943772 Z M145.542893,209.943772 L151.199747,213.139087 L145.542893,216.334403 L139.886039,213.139087 L145.542893,209.943772 Z M195.542893,0.943771509 L201.199747,4.1390873 L195.542893,7.33440308 L189.886039,4.1390873 L195.542893,0.943771509 Z M595.542893,360.943772 L601.199747,364.139087 L595.542893,367.334403 L589.886039,364.139087 L595.542893,360.943772 Z M385.5,365.307612 L394.692388,370.5 L385.5,375.692388 L376.307612,370.5 L385.5,365.307612 Z" id="Rectangle-450"></path>
                    </g>
                </g>
                <g id="Background-Stars-+-Background-Stars-Copy-6" transform="translate(2280.000000, 0.000000)" sketch:type="MSShapeGroup">
                    <g id="Background-Stars">
                        <path d="M85.5,115.307612 L94.6923882,120.5 L85.5,125.692388 L76.3076118,120.5 L85.5,115.307612 Z M122.5,295.307612 L131.692388,300.5 L122.5,305.692388 L113.307612,300.5 L122.5,295.307612 Z M507.5,285.307612 L516.692388,290.5 L507.5,295.692388 L498.307612,290.5 L507.5,285.307612 Z M235.5,258.307612 L244.692388,263.5 L235.5,268.692388 L226.307612,263.5 L235.5,258.307612 Z M295.542893,332.943772 L301.199747,336.139087 L295.542893,339.334403 L289.886039,336.139087 L295.542893,332.943772 Z M305.542893,440.943772 L311.199747,444.139087 L305.542893,447.334403 L299.886039,444.139087 L305.542893,440.943772 Z M375.542893,170.943772 L381.199747,174.139087 L375.542893,177.334403 L369.886039,174.139087 L375.542893,170.943772 Z M705.542893,321.943772 L711.199747,325.139087 L705.542893,328.334403 L699.886039,325.139087 L705.542893,321.943772 Z M305.542893,80.9437715 L311.199747,84.1390873 L305.542893,87.3344031 L299.886039,84.1390873 L305.542893,80.9437715 Z M6.54289322,180.943772 L12.1997475,184.139087 L6.54289322,187.334403 L0.886038969,184.139087 L6.54289322,180.943772 Z M145.542893,209.943772 L151.199747,213.139087 L145.542893,216.334403 L139.886039,213.139087 L145.542893,209.943772 Z M195.542893,0.943771509 L201.199747,4.1390873 L195.542893,7.33440308 L189.886039,4.1390873 L195.542893,0.943771509 Z M595.542893,360.943772 L601.199747,364.139087 L595.542893,367.334403 L589.886039,364.139087 L595.542893,360.943772 Z M385.5,365.307612 L394.692388,370.5 L385.5,375.692388 L376.307612,370.5 L385.5,365.307612 Z" id="Rectangle-450"></path>
                    </g>
                </g>
                <g id="Background-Stars-+-Background-Stars-Copy-7" transform="translate(3042.000000, 0.000000)" sketch:type="MSShapeGroup">
                    <g id="Background-Stars">
                        <path d="M85.5,115.307612 L94.6923882,120.5 L85.5,125.692388 L76.3076118,120.5 L85.5,115.307612 Z M122.5,295.307612 L131.692388,300.5 L122.5,305.692388 L113.307612,300.5 L122.5,295.307612 Z M507.5,285.307612 L516.692388,290.5 L507.5,295.692388 L498.307612,290.5 L507.5,285.307612 Z M235.5,258.307612 L244.692388,263.5 L235.5,268.692388 L226.307612,263.5 L235.5,258.307612 Z M295.542893,332.943772 L301.199747,336.139087 L295.542893,339.334403 L289.886039,336.139087 L295.542893,332.943772 Z M305.542893,440.943772 L311.199747,444.139087 L305.542893,447.334403 L299.886039,444.139087 L305.542893,440.943772 Z M375.542893,170.943772 L381.199747,174.139087 L375.542893,177.334403 L369.886039,174.139087 L375.542893,170.943772 Z M705.542893,321.943772 L711.199747,325.139087 L705.542893,328.334403 L699.886039,325.139087 L705.542893,321.943772 Z M305.542893,80.9437715 L311.199747,84.1390873 L305.542893,87.3344031 L299.886039,84.1390873 L305.542893,80.9437715 Z M6.54289322,180.943772 L12.1997475,184.139087 L6.54289322,187.334403 L0.886038969,184.139087 L6.54289322,180.943772 Z M145.542893,209.943772 L151.199747,213.139087 L145.542893,216.334403 L139.886039,213.139087 L145.542893,209.943772 Z M195.542893,0.943771509 L201.199747,4.1390873 L195.542893,7.33440308 L189.886039,4.1390873 L195.542893,0.943771509 Z M595.542893,360.943772 L601.199747,364.139087 L595.542893,367.334403 L589.886039,364.139087 L595.542893,360.943772 Z M385.5,365.307612 L394.692388,370.5 L385.5,375.692388 L376.307612,370.5 L385.5,365.307612 Z" id="Rectangle-450"></path>
                    </g>
                </g>
            </g>
            <g id="Group" sketch:type="MSLayerGroup" transform="translate(-132.000000, 329.000000)" fill="#0D1B21">
                <rect id="Rectangle-426" sketch:type="MSShapeGroup" x="132" y="728" width="3094" height="478"></rect>
                <path d="M231,747 L1010,747 L647.820083,23.194994 C633.004878,-6.4076604 608.995048,-6.39478178 594.186914,23.2123442 L231,747 Z" id="Triangle-1-Copy-3" sketch:type="MSShapeGroup" transform="translate(620.500000, 374.000000) scale(-1, 1) translate(-620.500000, -374.000000) "></path>
                <path d="M786,747 L1565,747 L1202.82008,23.194994 C1188.00488,-6.4076604 1163.99505,-6.39478178 1149.18691,23.2123442 L786,747 Z" id="Triangle-1-Copy" sketch:type="MSShapeGroup" transform="translate(1175.500000, 374.000000) scale(-1, 1) translate(-1175.500000, -374.000000) "></path>
                <path d="M1789,747 L1535.17008,240.176984 C1520.35381,210.598351 1496.34226,210.611219 1481.53306,240.19432 L1227,747 L1789,747 L1789,747 Z" id="Triangle-1-Copy-4" sketch:type="MSShapeGroup" transform="translate(1508.000000, 482.500000) scale(-1, 1) translate(-1508.000000, -482.500000) "></path>
                <path d="M562,747 L308.170077,240.176984 C293.353809,210.598351 269.342257,210.611219 254.533061,240.19432 L2.27373675e-13,747 L562,747 L562,747 Z" id="Triangle-1-Copy-5" sketch:type="MSShapeGroup" transform="translate(281.000000, 482.500000) scale(-1, 1) translate(-281.000000, -482.500000) "></path>
                <path d="M1174,747 L920.170077,240.176984 C905.353809,210.598351 881.342257,210.611219 866.533061,240.19432 L612,747 L1174,747 L1174,747 Z" id="Triangle-1-Copy-2" sketch:type="MSShapeGroup" transform="translate(893.000000, 482.500000) scale(-1, 1) translate(-893.000000, -482.500000) "></path>
                <path d="M1778,746.5 L2557,746.5 L2194.82008,22.694994 C2180.00488,-6.9076604 2155.99505,-6.89478178 2141.18691,22.7123442 L1778,746.5 Z" id="Triangle-1-Copy-3" sketch:type="MSShapeGroup" transform="translate(2167.500000, 373.500000) scale(-1, 1) translate(-2167.500000, -373.500000) "></path>
                <path d="M2333,746.5 L3112,746.5 L2749.82008,22.694994 C2735.00488,-6.9076604 2710.99505,-6.89478178 2696.18691,22.7123442 L2333,746.5 Z" id="Triangle-1-Copy" sketch:type="MSShapeGroup" transform="translate(2722.500000, 373.500000) scale(-1, 1) translate(-2722.500000, -373.500000) "></path>
                <path d="M3336,746.5 L3082.17008,239.676984 C3067.35381,210.098351 3043.34226,210.111219 3028.53306,239.69432 L2774,746.5 L3336,746.5 L3336,746.5 Z" id="Triangle-1-Copy-4" sketch:type="MSShapeGroup" transform="translate(3055.000000, 482.000000) scale(-1, 1) translate(-3055.000000, -482.000000) "></path>
                <path d="M2109,746.5 L1855.17008,239.676984 C1840.35381,210.098351 1816.34226,210.111219 1801.53306,239.69432 L1547,746.5 L2109,746.5 L2109,746.5 Z" id="Triangle-1-Copy-5" sketch:type="MSShapeGroup" transform="translate(1828.000000, 482.000000) scale(-1, 1) translate(-1828.000000, -482.000000) "></path>
                <path d="M2721,746.5 L2467.17008,239.676984 C2452.35381,210.098351 2428.34226,210.111219 2413.53306,239.69432 L2159,746.5 L2721,746.5 L2721,746.5 Z" id="Triangle-1-Copy-2" sketch:type="MSShapeGroup" transform="translate(2440.000000, 482.000000) scale(-1, 1) translate(-2440.000000, -482.000000) "></path>
            </g>
            <rect id="Rectangle-426-Copy" fill="#2B636C" sketch:type="MSShapeGroup" x="0" y="1207" width="3094" height="478"></rect>
            <g id="Group" sketch:type="MSLayerGroup" transform="translate(-79.000000, 726.000000)">
                <g id="Montaña-grande-2-Copy-4" transform="translate(0.000000, 170.000000)" sketch:type="MSShapeGroup">
                    <path d="M108.590072,97.6087159 C128.872978,57.2366306 209.865017,56.9587884 230.07813,97.1919527 C266.051266,168.794635 337.997538,312 337.997538,312 L0.880044979,312 L108.590072,97.6087159 Z" id="Triangle-1-Copy-5" fill="#263749"></path>
                    <path d="M148.210028,18.4354527 C159.935727,-4.9390954 178.94812,-4.93496792 190.670774,18.435453 L229.386897,95.6203737 C229.386897,95.6203737 189.489643,95.6203735 169.541016,95.6203734 C149.524239,95.6203732 109.490687,95.620373 109.490687,95.620373 L148.210028,18.4354527 Z" id="Triangle-1-Copy-4" fill="#83D6DD"></path>
                </g>
                <g id="Montaña-grande-2-Copy-7" transform="translate(512.000000, 170.000000)" sketch:type="MSShapeGroup">
                    <path d="M108.590072,97.6087159 C128.872978,57.2366306 209.865017,56.9587884 230.07813,97.1919527 C266.051266,168.794635 337.997538,312 337.997538,312 L0.880044979,312 L108.590072,97.6087159 Z" id="Triangle-1-Copy-5" fill="#263749"></path>
                    <path d="M148.210028,18.4354527 C159.935727,-4.9390954 178.94812,-4.93496792 190.670774,18.435453 L229.386897,95.6203737 L169.054687,95.6203734 L109.490687,95.620373 L148.210028,18.4354527 Z" id="Triangle-1-Copy-4" fill="#83D6DD"></path>
                </g>
                <g id="Montaña-grande-1-Copy-4" transform="translate(169.000000, 1.000000)" sketch:type="MSShapeGroup">
                    <path d="M163.5855,154.192986 C194.390333,92.640482 317.397667,92.2168754 348.0965,153.557576 C402.731,262.725194 512,481.060429 512,481.060429 L0,481.060429 C0,481.060429 109.057,263.1488 163.5855,154.192986 Z" id="Triangle-1" fill="#2B626C"></path>
                    <path d="M229.09069,23.1945494 C243.936271,-6.42500705 268.014355,-6.42286256 282.868193,23.1945482 L348.319688,153.699801 L256.818359,153.699803 C225.772344,153.699804 163.680312,153.699805 163.680312,153.699805 L229.09069,23.1945494 Z" id="Triangle-1-Copy" fill="#FFFFFF"></path>
                </g>
                <g id="Montaña-grande-2-Copy-8" transform="translate(1024.000000, 170.000000)" sketch:type="MSShapeGroup">
                    <path d="M108.590072,97.6087159 C128.872978,57.2366306 209.865017,56.9587884 230.07813,97.1919527 C266.051266,168.794635 337.997538,312 337.997538,312 L0.880044979,312 L108.590072,97.6087159 Z" id="Triangle-1-Copy-5" fill="#263749"></path>
                    <path d="M148.210028,18.4354527 C159.935727,-4.9390954 178.94812,-4.93496792 190.670774,18.435453 L229.386897,95.6203737 L169.25,95.6203734 C149.330229,95.6203732 109.490687,95.620373 109.490687,95.620373 L148.210028,18.4354527 Z" id="Triangle-1-Copy-4" fill="#83D6DD"></path>
                </g>
                <g id="Montaña-grande-1-Copy-6" transform="translate(681.000000, 0.939571)" sketch:type="MSShapeGroup">
                    <path d="M163.5855,154.192986 C194.390333,92.640482 317.397667,92.2168754 348.0965,153.557576 C402.731,262.725194 512,481.060429 512,481.060429 L0,481.060429 C0,481.060429 109.057,263.1488 163.5855,154.192986 Z" id="Triangle-1" fill="#2B626C"></path>
                    <path d="M229.09069,23.1945494 C243.936271,-6.42500705 268.014355,-6.42286256 282.868193,23.1945482 L348.319688,153.699801 C348.319688,153.699801 287.41125,153.699802 256.957031,153.699803 L163.680312,153.699805 L229.09069,23.1945494 Z" id="Triangle-1-Copy" fill="#FFFFFF"></path>
                </g>
            </g>
            <g id="Group-Copy" sketch:type="MSLayerGroup" transform="translate(1790.000000, 726.000000)">
                <g id="Montaña-grande-2-Copy-4" transform="translate(0.000000, 170.000000)" sketch:type="MSShapeGroup">
                    <path d="M108.590072,97.6087159 C128.872978,57.2366306 209.865017,56.9587884 230.07813,97.1919527 C266.051266,168.794635 337.997538,312 337.997538,312 L0.880044979,312 L108.590072,97.6087159 Z" id="Triangle-1-Copy-5" fill="#263749"></path>
                    <path d="M148.210028,18.4354527 C159.935727,-4.9390954 178.94812,-4.93496792 190.670774,18.435453 L229.386897,95.6203737 C229.386897,95.6203737 189.489643,95.6203735 169.541016,95.6203734 C149.524239,95.6203732 109.490687,95.620373 109.490687,95.620373 L148.210028,18.4354527 Z" id="Triangle-1-Copy-4" fill="#83D6DD"></path>
                </g>
                <g id="Montaña-grande-2-Copy-7" transform="translate(512.000000, 170.000000)" sketch:type="MSShapeGroup">
                    <path d="M108.590072,97.6087159 C128.872978,57.2366306 209.865017,56.9587884 230.07813,97.1919527 C266.051266,168.794635 337.997538,312 337.997538,312 L0.880044979,312 L108.590072,97.6087159 Z" id="Triangle-1-Copy-5" fill="#263749"></path>
                    <path d="M148.210028,18.4354527 C159.935727,-4.9390954 178.94812,-4.93496792 190.670774,18.435453 L229.386897,95.6203737 L169.054687,95.6203734 L109.490687,95.620373 L148.210028,18.4354527 Z" id="Triangle-1-Copy-4" fill="#83D6DD"></path>
                </g>
                <g id="Montaña-grande-1-Copy-4" transform="translate(169.000000, 1.000000)" sketch:type="MSShapeGroup">
                    <path d="M163.5855,154.192986 C194.390333,92.640482 317.397667,92.2168754 348.0965,153.557576 C402.731,262.725194 512,481.060429 512,481.060429 L0,481.060429 C0,481.060429 109.057,263.1488 163.5855,154.192986 Z" id="Triangle-1" fill="#2B626C"></path>
                    <path d="M229.09069,23.1945494 C243.936271,-6.42500705 268.014355,-6.42286256 282.868193,23.1945482 L348.319688,153.699801 L256.818359,153.699803 C225.772344,153.699804 163.680312,153.699805 163.680312,153.699805 L229.09069,23.1945494 Z" id="Triangle-1-Copy" fill="#FFFFFF"></path>
                </g>
                <g id="Montaña-grande-2-Copy-8" transform="translate(1024.000000, 170.000000)" sketch:type="MSShapeGroup">
                    <path d="M108.590072,97.6087159 C128.872978,57.2366306 209.865017,56.9587884 230.07813,97.1919527 C266.051266,168.794635 337.997538,312 337.997538,312 L0.880044979,312 L108.590072,97.6087159 Z" id="Triangle-1-Copy-5" fill="#263749"></path>
                    <path d="M148.210028,18.4354527 C159.935727,-4.9390954 178.94812,-4.93496792 190.670774,18.435453 L229.386897,95.6203737 L172.664062,95.6203734 L109.490687,95.620373 L148.210028,18.4354527 Z" id="Triangle-1-Copy-4" fill="#83D6DD"></path>
                </g>
                <g id="Montaña-grande-1-Copy-6" transform="translate(681.000000, 0.939571)" sketch:type="MSShapeGroup">
                    <path d="M163.5855,154.192986 C194.390333,92.640482 317.397667,92.2168754 348.0965,153.557576 C402.731,262.725194 512,481.060429 512,481.060429 L0,481.060429 C0,481.060429 109.057,263.1488 163.5855,154.192986 Z" id="Triangle-1" fill="#2B626C"></path>
                    <path d="M229.09069,23.1945494 C243.936271,-6.42500705 268.014355,-6.42286256 282.868193,23.1945482 L348.319688,153.699801 C348.319688,153.699801 287.41125,153.699802 256.957031,153.699803 L163.680312,153.699805 L229.09069,23.1945494 Z" id="Triangle-1-Copy" fill="#FFFFFF"></path>
                </g>
            </g>
            <g id="Group-+-Rectangle-1031-+-Group" sketch:type="MSLayerGroup" transform="translate(-2.000000, 968.000000)">
                <g id="Group" transform="translate(2.000000, 0.000000)" sketch:type="MSShapeGroup">
                    <rect id="Path" fill="#6CA05B" x="615" y="46" width="39" height="800" rx="20"></rect>
                    <rect id="Path" fill="#6CA05B" x="663" y="46" width="39" height="800" rx="20"></rect>
                    <rect id="Path" fill="#76AD5F" x="591" y="65" width="39" height="800" rx="20"></rect>
                    <rect id="Path" fill="#76AD5F" x="639" y="30" width="39" height="800" rx="20"></rect>
                    <rect id="Path" fill="#6CA05B" x="749" y="108" width="39" height="800" rx="20"></rect>
                    <rect id="Path" fill="#6CA05B" x="797" y="108" width="39" height="800" rx="20"></rect>
                    <rect id="Path" fill="#6CA05B" x="700" y="81" width="39" height="800" rx="20"></rect>
                    <rect id="Path" fill="#76AD5F" x="773" y="91" width="39" height="800" rx="20"></rect>
                    <rect id="Path" fill="#76AD5F" x="725" y="65" width="39" height="800" rx="20"></rect>
                    <rect id="Path" fill="#6CA05B" x="125" y="116" width="39" height="800" rx="20"></rect>
                    <rect id="Path" fill="#6CA05B" x="174" y="185" width="39" height="800" rx="20"></rect>
                    <rect id="Path" fill="#6CA05B" x="77" y="140" width="39" height="800" rx="20"></rect>
                    <rect id="Path" fill="#76AD5F" x="101" y="127" width="39" height="800" rx="20"></rect>
                    <rect id="Path" fill="#76AD5F" x="149" y="99" width="39" height="800" rx="20"></rect>
                    <rect id="Path" fill="#6CA05B" x="15" y="135" width="39" height="800" rx="20"></rect>
                    <rect id="Path" fill="#76AE5E" x="53" y="95" width="39" height="800" rx="20"></rect>
                    <rect id="Path-Copy-82" fill="#76AE5E" x="0" y="155" width="39" height="800" rx="20"></rect>
                    <rect id="Path" fill="#6CA05B" x="274" y="57" width="39" height="800" rx="20"></rect>
                    <rect id="Path" fill="#6CA05B" x="322" y="57" width="39" height="800" rx="20"></rect>
                    <rect id="Path" fill="#6CA05B" x="226" y="103" width="39" height="800" rx="20"></rect>
                    <rect id="Path" fill="#76AD5F" x="251" y="82" width="39" height="800" rx="20"></rect>
                    <rect id="Path" fill="#76AD5F" x="299" y="36" width="39" height="800" rx="20"></rect>
                    <rect id="Path" fill="#76AD5F" x="206" y="171" width="39" height="800" rx="20"></rect>
                    <rect id="Path" fill="#6CA05B" x="504" y="134" width="39" height="800" rx="20"></rect>
                    <rect id="Path" fill="#6CA05B" x="552" y="134" width="39" height="800" rx="20"></rect>
                    <rect id="Path" fill="#6CA05B" x="455" y="169" width="39" height="800" rx="20"></rect>
                    <rect id="Path" fill="#76AD5F" x="481" y="152" width="39" height="800" rx="20"></rect>
                    <rect id="Path" fill="#76AD5F" x="529" y="117" width="39" height="800" rx="20"></rect>
                    <rect id="Path" fill="#6CA05B" x="408" y="140" width="39" height="800" rx="20"></rect>
                    <rect id="Path" fill="#6CA05B" x="360" y="111" width="39" height="800" rx="20"></rect>
                    <rect id="Path" fill="#76AD5F" x="385" y="88" width="39" height="800" rx="20"></rect>
                    <rect id="Path" fill="#76AD5F" x="433" y="117" width="39" height="800" rx="20"></rect>
                    <rect id="Path-Copy-81" fill="#6CA05B" x="2839" y="72" width="39" height="800" rx="20"></rect>
                    <rect id="Path-Copy-56" fill="#6CA05B" x="2887" y="72" width="39" height="800" rx="20"></rect>
                    <rect id="Path-Copy-57" fill="#76AD5F" x="2814" y="91" width="39" height="800" rx="20"></rect>
                    <rect id="Path-Copy-58" fill="#76AD5F" x="2862" y="55" width="39" height="800" rx="20"></rect>
                    <rect id="Path-Copy-59" fill="#6CA05B" x="2924" y="107" width="39" height="800" rx="20"></rect>
                    <rect id="Path-Copy-86" fill="#6CA05B" x="3011" y="72" width="39" height="800" rx="20"></rect>
                    <rect id="Path-Copy-83" fill="#76AD5F" x="2986" y="91" width="39" height="800" rx="20"></rect>
                    <rect id="Path-Copy-84" fill="#76AD5F" x="3034" y="55" width="39" height="800" rx="20"></rect>
                    <rect id="Path-Copy-60" fill="#76AD5F" x="2948" y="91" width="39" height="800" rx="20"></rect>
                    <rect id="Path-Copy-61" fill="#6CA05B" x="2389" y="99" width="39" height="800" rx="20"></rect>
                    <rect id="Path-Copy-62" fill="#6CA05B" x="2341" y="124" width="39" height="800" rx="20"></rect>
                    <rect id="Path-Copy-63" fill="#76AD5F" x="2365" y="111" width="39" height="800" rx="20"></rect>
                    <rect id="Path-Copy-64" fill="#76AD5F" x="2413" y="89" width="39" height="800" rx="20"></rect>
                    <rect id="Path-Copy-65" fill="#6CA05B" x="2279" y="99" width="39" height="800" rx="20"></rect>
                    <rect id="Path-Copy-66" fill="#76AE5E" x="2317" y="79" width="39" height="800" rx="20"></rect>
                    <rect id="Path-Copy-67" fill="#6CA05B" x="2499" y="116" width="39" height="800" rx="20"></rect>
                    <rect id="Path-Copy-68" fill="#6CA05B" x="2547" y="126" width="39" height="800" rx="20"></rect>
                    <rect id="Path-Copy-69" fill="#6CA05B" x="2451" y="99" width="39" height="800" rx="20"></rect>
                    <rect id="Path-Copy-70" fill="#76AD5F" x="2475" y="108" width="39" height="800" rx="20"></rect>
                    <rect id="Path-Copy-71" fill="#76AD5F" x="2523" y="101" width="39" height="800" rx="20"></rect>
                    <rect id="Path-Copy-72" fill="#6CA05B" x="2728" y="159" width="39" height="800" rx="20"></rect>
                    <rect id="Path-Copy-73" fill="#6CA05B" x="2776" y="120" width="39" height="800" rx="20"></rect>
                    <rect id="Path-Copy-74" fill="#6CA05B" x="2681" y="194" width="39" height="800" rx="20"></rect>
                    <rect id="Path-Copy-75" fill="#76AD5F" x="2705" y="178" width="39" height="800" rx="20"></rect>
                    <rect id="Path-Copy-76" fill="#76AD5F" x="2752" y="142" width="39" height="800" rx="20"></rect>
                    <rect id="Path-Copy-77" fill="#6CA05B" x="2632" y="166" width="39" height="800" rx="20"></rect>
                    <rect id="Path-Copy-78" fill="#6CA05B" x="2584" y="137" width="39" height="800" rx="20"></rect>
                    <rect id="Path-Copy-79" fill="#76AD5F" x="2608" y="120" width="39" height="800" rx="20"></rect>
                    <rect id="Path-Copy-80" fill="#76AD5F" x="2656" y="142" width="39" height="800" rx="20"></rect>
                    <rect id="Path-Copy-31" fill="#6CA05B" x="1432" y="99" width="39" height="800" rx="20"></rect>
                    <rect id="Path-Copy" fill="#6CA05B" x="1480" y="99" width="39" height="800" rx="20"></rect>
                    <rect id="Path-Copy-2" fill="#76AD5F" x="1407" y="118" width="39" height="800" rx="20"></rect>
                    <rect id="Path-Copy-3" fill="#76AD5F" x="1455" y="83" width="39" height="800" rx="20"></rect>
                    <rect id="Path-Copy-4" fill="#6CA05B" x="1566" y="138" width="39" height="800" rx="20"></rect>
                    <rect id="Path-Copy-5" fill="#6CA05B" x="1614" y="167" width="39" height="800" rx="20"></rect>
                    <rect id="Path-Copy-6" fill="#6CA05B" x="1517" y="137" width="39" height="800" rx="20"></rect>
                    <rect id="Path-Copy-7" fill="#76AD5F" x="1589" y="151" width="39" height="800" rx="20"></rect>
                    <rect id="Path-Copy-8" fill="#76AD5F" x="1541" y="118" width="39" height="800" rx="20"></rect>
                    <rect id="Path-Copy-9" fill="#6CA05B" x="944" y="116" width="39" height="800" rx="20"></rect>
                    <rect id="Path-Copy-10" fill="#6CA05B" x="994" y="185" width="39" height="800" rx="20"></rect>
                    <rect id="Path-Copy-11" fill="#6CA05B" x="895" y="140" width="39" height="800" rx="20"></rect>
                    <rect id="Path-Copy-12" fill="#76AD5F" x="919" y="127" width="39" height="800" rx="20"></rect>
                    <rect id="Path-Copy-13" fill="#76AD5F" x="967" y="99" width="39" height="800" rx="20"></rect>
                    <rect id="Path-Copy-14" fill="#6CA05B" x="833" y="115" width="39" height="800" rx="20"></rect>
                    <rect id="Path-Copy-15" fill="#76AE5E" x="871" y="95" width="39" height="800" rx="20"></rect>
                    <rect id="Path-Copy-16" fill="#6CA05B" x="1093" y="87" width="39" height="800" rx="20"></rect>
                    <rect id="Path-Copy-17" fill="#6CA05B" x="1141" y="87" width="39" height="800" rx="20"></rect>
                    <rect id="Path-Copy-18" fill="#6CA05B" x="1045" y="134" width="39" height="800" rx="20"></rect>
                    <rect id="Path-Copy-19" fill="#76AD5F" x="1069" y="112" width="39" height="800" rx="20"></rect>
                    <rect id="Path-Copy-20" fill="#76AD5F" x="1117" y="66" width="39" height="800" rx="20"></rect>
                    <rect id="Path-Copy-21" fill="#76AD5F" x="1019" y="142" width="39" height="800" rx="20"></rect>
                    <rect id="Path-Copy-22" fill="#6CA05B" x="1323" y="134" width="39" height="800" rx="20"></rect>
                    <rect id="Path-Copy-23" fill="#6CA05B" x="1371" y="134" width="39" height="800" rx="20"></rect>
                    <rect id="Path-Copy-24" fill="#6CA05B" x="1275" y="169" width="39" height="800" rx="20"></rect>
                    <rect id="Path-Copy-25" fill="#76AD5F" x="1299" y="152" width="39" height="800" rx="20"></rect>
                    <rect id="Path-Copy-26" fill="#76AD5F" x="1347" y="127" width="39" height="800" rx="20"></rect>
                    <rect id="Path-Copy-27" fill="#6CA05B" x="1227" y="140" width="39" height="800" rx="20"></rect>
                    <rect id="Path-Copy-28" fill="#6CA05B" x="1179" y="140" width="39" height="800" rx="20"></rect>
                    <rect id="Path-Copy-29" fill="#76AD5F" x="1203" y="118" width="39" height="800" rx="20"></rect>
                    <rect id="Path-Copy-30" fill="#76AD5F" x="1251" y="147" width="39" height="800" rx="20"></rect>
                    <rect id="Path-Copy-55" stroke="#979797" stroke-width="0.5" fill="#6CA05B" x="2061" y="39" width="39" height="800" rx="20"></rect>
                    <rect id="Path-Copy-32" stroke="#979797" stroke-width="0.5" fill="#6CA05B" x="2109" y="78" width="39" height="800" rx="20"></rect>
                    <rect id="Path-Copy-33" stroke="#979797" stroke-width="0.5" fill="#76AD5F" x="2036" y="19" width="39" height="800" rx="20"></rect>
                    <rect id="Path-Copy-34" stroke="#979797" stroke-width="0.5" fill="#76AD5F" x="2084" y="62" width="39" height="800" rx="20"></rect>
                    <rect id="Path-Copy-35" stroke="#979797" stroke-width="0.5" fill="#6CA05B" x="2194" y="45" width="39" height="800" rx="20"></rect>
                    <rect id="Path-Copy-36" stroke="#979797" stroke-width="0.5" fill="#6CA05B" x="2242" y="68" width="39" height="800" rx="20"></rect>
                    <rect id="Path-Copy-37" stroke="#979797" stroke-width="0.5" fill="#6CA05B" x="2145" y="58" width="39" height="800" rx="20"></rect>
                    <rect id="Path-Copy-38" stroke="#979797" stroke-width="0.5" fill="#76AD5F" x="2217" y="51" width="39" height="800" rx="20"></rect>
                    <rect id="Path-Copy-39" stroke="#979797" stroke-width="0.5" fill="#76AD5F" x="2169" y="36" width="39" height="800" rx="20"></rect>
                    <rect id="Path-Copy-40" stroke="#979797" stroke-width="0.5" fill="#6CA05B" x="1723" y="129" width="39" height="800" rx="20"></rect>
                    <rect id="Path-Copy-41" stroke="#979797" stroke-width="0.5" fill="#6CA05B" x="1771" y="129" width="39" height="800" rx="20"></rect>
                    <rect id="Path-Copy-42" stroke="#979797" stroke-width="0.5" fill="#6CA05B" x="1675" y="176" width="39" height="800" rx="20"></rect>
                    <rect id="Path-Copy-43" stroke="#979797" stroke-width="0.5" fill="#76AD5F" x="1699" y="153" width="39" height="800" rx="20"></rect>
                    <rect id="Path-Copy-44" stroke="#979797" stroke-width="0.5" fill="#76AD5F" x="1747" y="108" width="39" height="800" rx="20"></rect>
                    <rect id="Path-Copy-45" stroke="#979797" stroke-width="0.5" fill="#76AD5F" x="1649" y="184" width="39" height="800" rx="20"></rect>
                    <rect id="Path-Copy-46" stroke="#979797" stroke-width="0.5" fill="#6CA05B" x="1952" y="72" width="39" height="800" rx="20"></rect>
                    <rect id="Path-Copy-47" stroke="#979797" stroke-width="0.5" fill="#6CA05B" x="2000" y="0" width="39" height="800" rx="20"></rect>
                    <rect id="Path-Copy-48" stroke="#979797" stroke-width="0.5" fill="#6CA05B" x="1904" y="93" width="39" height="800" rx="20"></rect>
                    <rect id="Path-Copy-49" stroke="#979797" stroke-width="0.5" fill="#76AD5F" x="1928" y="103" width="39" height="800" rx="20"></rect>
                    <rect id="Path-Copy-50" stroke="#979797" stroke-width="0.5" fill="#76AD5F" x="1976" y="27" width="39" height="800" rx="20"></rect>
                    <rect id="Path-Copy-51" stroke="#979797" stroke-width="0.5" fill="#6CA05B" x="1856" y="151" width="39" height="800" rx="20"></rect>
                    <rect id="Path-Copy-52" stroke="#979797" stroke-width="0.5" fill="#6CA05B" x="1808" y="139" width="39" height="800" rx="20"></rect>
                    <rect id="Path-Copy-53" stroke="#979797" stroke-width="0.5" fill="#76AD5F" x="1832" y="159" width="39" height="800" rx="20"></rect>
                    <rect id="Path-Copy-54" stroke="#979797" stroke-width="0.5" fill="#76AD5F" x="1880" y="136" width="39" height="800" rx="20"></rect>
                </g>
                <rect id="Rectangle-1031" fill="url(#linearGradient-1)" sketch:type="MSShapeGroup" x="2" y="159" width="3072" height="217"></rect>
                <g id="Group" transform="translate(0.000000, 159.000000)" sketch:type="MSShapeGroup">
                    <rect id="Path" fill="#9BCA6A" x="1729" y="126" width="52" height="600" rx="26"></rect>
                    <rect id="Path" fill="#9BCA6A" x="1793" y="126" width="52" height="600" rx="26"></rect>
                    <rect id="Path" fill="#B8E986" x="1697" y="150" width="52" height="600" rx="26"></rect>
                    <rect id="Path" fill="#B8E986" x="1761" y="105" width="52" height="600" rx="26"></rect>
                    <rect id="Path" fill="#9BCA6A" x="1909" y="126" width="52" height="600" rx="26"></rect>
                    <rect id="Path" fill="#9BCA6A" x="1973" y="92" width="52" height="600" rx="26"></rect>
                    <rect id="Path" fill="#9BCA6A" x="1845" y="171" width="52" height="600" rx="26"></rect>
                    <rect id="Path" fill="#B8E986" x="1877" y="150" width="52" height="600" rx="26"></rect>
                    <rect id="Path" fill="#B8E986" x="1941" y="71" width="52" height="600" rx="26"></rect>
                    <rect id="Path" fill="#9BCA6A" x="2025" y="167" width="52" height="600" rx="26"></rect>
                    <rect id="Path" fill="#9BCA6A" x="2089" y="200" width="52" height="600" rx="26"></rect>
                    <rect id="Path" fill="#B8E986" x="1877" y="150" width="52" height="600" rx="26"></rect>
                    <rect id="Path" fill="#B8E986" x="2057" y="168" width="52" height="600" rx="26"></rect>
                    <rect id="Path" fill="#9BCA6A" x="1273" y="122" width="52" height="600" rx="26"></rect>
                    <rect id="Path" fill="#9BCA6A" x="1338" y="122" width="52" height="600" rx="26"></rect>
                    <rect id="Path" fill="#9BCA6A" x="1209" y="167" width="52" height="600" rx="26"></rect>
                    <rect id="Path" fill="#B8E986" x="1241" y="146" width="52" height="600" rx="26"></rect>
                    <rect id="Path" fill="#B8E986" x="1305" y="101" width="52" height="600" rx="26"></rect>
                    <rect id="Path" fill="#B8E986" x="1241" y="146" width="52" height="600" rx="26"></rect>
                    <rect id="Path" fill="#9BCA6A" x="1581" y="59" width="52" height="600" rx="26"></rect>
                    <rect id="Path" fill="#9BCA6A" x="1645" y="116" width="52" height="600" rx="26"></rect>
                    <rect id="Path" fill="#9BCA6A" x="1517" y="104" width="52" height="600" rx="26"></rect>
                    <rect id="Path" fill="#B8E986" x="1549" y="83" width="52" height="600" rx="26"></rect>
                    <rect id="Path" fill="#B8E986" x="1613" y="85" width="52" height="600" rx="26"></rect>
                    <rect id="Path" fill="#9BCA6A" x="1453" y="67" width="52" height="600" rx="26"></rect>
                    <rect id="Path" fill="#9BCA6A" x="1389" y="30" width="52" height="600" rx="26"></rect>
                    <rect id="Path" fill="#B8E986" x="1421" y="0" width="52" height="600" rx="26"></rect>
                    <rect id="Path" fill="#B8E986" x="1485" y="38" width="52" height="600" rx="26"></rect>
                    <rect id="Path" fill="#9BCA6A" x="2659" y="126" width="52" height="600" rx="26"></rect>
                    <rect id="Path" fill="#9BCA6A" x="2723" y="126" width="52" height="600" rx="26"></rect>
                    <rect id="Path" fill="#B8E986" x="2626" y="150" width="52" height="600" rx="26"></rect>
                    <rect id="Path" fill="#B8E986" x="2691" y="105" width="52" height="600" rx="26"></rect>
                    <rect id="Path" fill="#9BCA6A" x="2839" y="126" width="52" height="600" rx="26"></rect>
                    <rect id="Path" fill="#9BCA6A" x="2903" y="126" width="52" height="600" rx="26"></rect>
                    <rect id="Path" fill="#9BCA6A" x="2773" y="171" width="52" height="600" rx="26"></rect>
                    <rect id="Path" fill="#B8E986" x="2807" y="150" width="52" height="600" rx="26"></rect>
                    <rect id="Path" fill="#B8E986" x="2871" y="105" width="52" height="600" rx="26"></rect>
                    <rect id="Path" fill="#9BCA6A" x="2967" y="217" width="52" height="600" rx="26"></rect>
                    <rect id="Path" fill="#B8E986" x="2807" y="150" width="52" height="600" rx="26"></rect>
                    <rect id="Path" fill="#B8E986" x="2935" y="179" width="52" height="600" rx="26"></rect>
                    <rect id="Path" fill="#9BCA6A" x="3023" y="167" width="52" height="600" rx="26"></rect>
                    <rect id="Path" fill="#B8E986" x="2999" y="179" width="52" height="600" rx="26"></rect>
                    <rect id="Path" fill="#9BCA6A" x="2203" y="122" width="52" height="600" rx="26"></rect>
                    <rect id="Path" fill="#9BCA6A" x="2267" y="122" width="52" height="600" rx="26"></rect>
                    <rect id="Path" fill="#9BCA6A" x="2139" y="167" width="52" height="600" rx="26"></rect>
                    <rect id="Path" fill="#B8E986" x="2171" y="146" width="52" height="600" rx="26"></rect>
                    <rect id="Path" fill="#B8E986" x="2235" y="101" width="52" height="600" rx="26"></rect>
                    <rect id="Path" fill="#B8E986" x="2171" y="146" width="52" height="600" rx="26"></rect>
                    <rect id="Path" fill="#9BCA6A" x="2511" y="59" width="52" height="600" rx="26"></rect>
                    <rect id="Path" fill="#9BCA6A" x="2575" y="59" width="52" height="600" rx="26"></rect>
                    <rect id="Path" fill="#9BCA6A" x="2447" y="104" width="52" height="600" rx="26"></rect>
                    <rect id="Path" fill="#B8E986" x="2479" y="83" width="52" height="600" rx="26"></rect>
                    <rect id="Path" fill="#B8E986" x="2543" y="38" width="52" height="600" rx="26"></rect>
                    <rect id="Path" fill="#9BCA6A" x="2383" y="67" width="52" height="600" rx="26"></rect>
                    <rect id="Path" fill="#9BCA6A" x="2317" y="30" width="52" height="600" rx="26"></rect>
                    <rect id="Path" fill="#B8E986" x="2351" y="0" width="52" height="600" rx="26"></rect>
                    <rect id="Path" fill="#B8E986" x="2415" y="38" width="52" height="600" rx="26"></rect>
                    <rect id="Path" fill="#9BCA6A" x="800" y="53" width="52" height="600" rx="26"></rect>
                    <rect id="Path" fill="#9BCA6A" x="864" y="53" width="52" height="600" rx="26"></rect>
                    <rect id="Path" fill="#B8E986" x="768" y="77" width="52" height="600" rx="26"></rect>
                    <rect id="Path" fill="#B8E986" x="832" y="32" width="52" height="600" rx="26"></rect>
                    <rect id="Path" fill="#9BCA6A" x="979" y="131" width="52" height="600" rx="26"></rect>
                    <rect id="Path" fill="#9BCA6A" x="1043" y="131" width="52" height="600" rx="26"></rect>
                    <rect id="Path" fill="#9BCA6A" x="914" y="98" width="52" height="600" rx="26"></rect>
                    <rect id="Path" fill="#B8E986" x="947" y="155" width="52" height="600" rx="26"></rect>
                    <rect id="Path" fill="#B8E986" x="1011" y="110" width="52" height="600" rx="26"></rect>
                    <rect id="Path" fill="#9BCA6A" x="1093" y="183" width="52" height="600" rx="26"></rect>
                    <rect id="Path" fill="#9BCA6A" x="1158" y="183" width="52" height="600" rx="26"></rect>
                    <rect id="Path" fill="#B8E986" x="947" y="77" width="52" height="600" rx="26"></rect>
                    <rect id="Path" fill="#B8E986" x="1126" y="163" width="52" height="600" rx="26"></rect>
                    <rect id="Path" fill="#9BCA6A" x="147" y="142" width="52" height="600" rx="26"></rect>
                    <rect id="Path" fill="#9BCA6A" x="214" y="211" width="52" height="600" rx="26"></rect>
                    <rect id="Path" fill="#9BCA6A" x="83" y="186" width="52" height="600" rx="26"></rect>
                    <rect id="Path" fill="#B8E986" x="115" y="166" width="52" height="600" rx="26"></rect>
                    <rect id="Path" fill="#B8E986" x="179" y="121" width="52" height="600" rx="26"></rect>
                    <rect id="Path" fill="#9BCA6A" x="0" y="147" width="52" height="600" rx="26"></rect>
                    <rect id="Path" fill="#B8E986" x="50" y="115" width="52" height="600" rx="26"></rect>
                    <rect id="Path" fill="#9BCA6A" x="346" y="67" width="52" height="600" rx="26"></rect>
                    <rect id="Path" fill="#9BCA6A" x="410" y="67" width="52" height="600" rx="26"></rect>
                    <rect id="Path" fill="#9BCA6A" x="282" y="126" width="52" height="600" rx="26"></rect>
                    <rect id="Path" fill="#B8E986" x="314" y="98" width="52" height="600" rx="26"></rect>
                    <rect id="Path" fill="#B8E986" x="378" y="39" width="52" height="600" rx="26"></rect>
                    <rect id="Path" fill="#B8E986" x="248" y="176" width="52" height="600" rx="26"></rect>
                    <rect id="Path" fill="#B8E986" x="179" y="121" width="52" height="600" rx="26"></rect>
                    <rect id="Path" fill="#9BCA6A" x="653" y="165" width="52" height="600" rx="26"></rect>
                    <rect id="Path" fill="#9BCA6A" x="717" y="165" width="52" height="600" rx="26"></rect>
                    <rect id="Path" fill="#9BCA6A" x="589" y="210" width="52" height="600" rx="26"></rect>
                    <rect id="Path" fill="#B8E986" x="621" y="189" width="52" height="600" rx="26"></rect>
                    <rect id="Path" fill="#B8E986" x="685" y="144" width="52" height="600" rx="26"></rect>
                    <rect id="Path" fill="#9BCA6A" x="525" y="174" width="52" height="600" rx="26"></rect>
                    <rect id="Path" fill="#9BCA6A" x="461" y="136" width="52" height="600" rx="26"></rect>
                    <rect id="Path" fill="#B8E986" x="493" y="106" width="52" height="600" rx="26"></rect>
                    <rect id="Path" fill="#B8E986" x="557" y="144" width="52" height="600" rx="26"></rect>
                </g>
            </g>
            <rect id="Rectangle-2951" fill-opacity="0.45" fill="#000A52" sketch:type="MSShapeGroup" x="0" y="0" width="3072" height="1664"></rect>
        </g>
    </g>
</svg>