<?xml version="1.0" encoding="UTF-8" standalone="no"?>
<svg width="1536px" height="768px" viewBox="0 0 1536 768" version="1.1" xmlns="http://www.w3.org/2000/svg" xmlns:xlink="http://www.w3.org/1999/xlink" xmlns:sketch="http://www.bohemiancoding.com/sketch/ns">
    <!-- Generator: Sketch 3.3.3 (12081) - http://www.bohemiancoding.com/sketch -->
    <title>Background-Stars</title>
    <desc>Created with Sketch.</desc>
    <defs></defs>
    <g id="Fondos" stroke="none" stroke-width="1" fill="none" fill-rule="evenodd" sketch:type="MSPage">
        <g id="Background-Stars" sketch:type="MSArtboardGroup">
            <rect id="Rectangle-1482" fill="#000000" sketch:type="MSShapeGroup" x="0" y="0" width="3072" height="832"></rect>
            <g id="Background-Stars-+-Background-Stars-Copy" sketch:type="MSLayerGroup" transform="translate(78.000000, 303.000000)" fill="#FFFFFF">
                <g id="Background-Stars" sketch:type="MSShapeGroup">
                    <path d="M85.5,115.307612 L94.6923882,120.5 L85.5,125.692388 L76.3076118,120.5 L85.5,115.307612 Z M122.5,295.307612 L131.692388,300.5 L122.5,305.692388 L113.307612,300.5 L122.5,295.307612 Z M507.5,285.307612 L516.692388,290.5 L507.5,295.692388 L498.307612,290.5 L507.5,285.307612 Z M235.5,258.307612 L244.692388,263.5 L235.5,268.692388 L226.307612,263.5 L235.5,258.307612 Z M295.542893,332.943772 L301.199747,336.139087 L295.542893,339.334403 L289.886039,336.139087 L295.542893,332.943772 Z M305.542893,440.943772 L311.199747,444.139087 L305.542893,447.334403 L299.886039,444.139087 L305.542893,440.943772 Z M375.542893,170.943772 L381.199747,174.139087 L375.542893,177.334403 L369.886039,174.139087 L375.542893,170.943772 Z M705.542893,321.943772 L711.199747,325.139087 L705.542893,328.334403 L699.886039,325.139087 L705.542893,321.943772 Z M305.542893,80.9437715 L311.199747,84.1390873 L305.542893,87.3344031 L299.886039,84.1390873 L305.542893,80.9437715 Z M6.54289322,180.943772 L12.1997475,184.139087 L6.54289322,187.334403 L0.886038969,184.139087 L6.54289322,180.943772 Z M145.542893,209.943772 L151.199747,213.139087 L145.542893,216.334403 L139.886039,213.139087 L145.542893,209.943772 Z M195.542893,0.943771509 L201.199747,4.1390873 L195.542893,7.33440308 L189.886039,4.1390873 L195.542893,0.943771509 Z M595.542893,360.943772 L601.199747,364.139087 L595.542893,367.334403 L589.886039,364.139087 L595.542893,360.943772 Z M385.5,365.307612 L394.692388,370.5 L385.5,375.692388 L376.307612,370.5 L385.5,365.307612 Z" id="Rectangle-450"></path>
                </g>
            </g>
            <g id="Background-Stars-+-Background-Stars-Copy-2" sketch:type="MSLayerGroup" transform="translate(838.000000, 303.000000)" fill="#FFFFFF">
                <g id="Background-Stars" sketch:type="MSShapeGroup">
                    <path d="M85.5,115.307612 L94.6923882,120.5 L85.5,125.692388 L76.3076118,120.5 L85.5,115.307612 Z M122.5,295.307612 L131.692388,300.5 L122.5,305.692388 L113.307612,300.5 L122.5,295.307612 Z M507.5,285.307612 L516.692388,290.5 L507.5,295.692388 L498.307612,290.5 L507.5,285.307612 Z M235.5,258.307612 L244.692388,263.5 L235.5,268.692388 L226.307612,263.5 L235.5,258.307612 Z M295.542893,332.943772 L301.199747,336.139087 L295.542893,339.334403 L289.886039,336.139087 L295.542893,332.943772 Z M305.542893,440.943772 L311.199747,444.139087 L305.542893,447.334403 L299.886039,444.139087 L305.542893,440.943772 Z M375.542893,170.943772 L381.199747,174.139087 L375.542893,177.334403 L369.886039,174.139087 L375.542893,170.943772 Z M705.542893,321.943772 L711.199747,325.139087 L705.542893,328.334403 L699.886039,325.139087 L705.542893,321.943772 Z M305.542893,80.9437715 L311.199747,84.1390873 L305.542893,87.3344031 L299.886039,84.1390873 L305.542893,80.9437715 Z M6.54289322,180.943772 L12.1997475,184.139087 L6.54289322,187.334403 L0.886038969,184.139087 L6.54289322,180.943772 Z M145.542893,209.943772 L151.199747,213.139087 L145.542893,216.334403 L139.886039,213.139087 L145.542893,209.943772 Z M195.542893,0.943771509 L201.199747,4.1390873 L195.542893,7.33440308 L189.886039,4.1390873 L195.542893,0.943771509 Z M595.542893,360.943772 L601.199747,364.139087 L595.542893,367.334403 L589.886039,364.139087 L595.542893,360.943772 Z M385.5,365.307612 L394.692388,370.5 L385.5,375.692388 L376.307612,370.5 L385.5,365.307612 Z" id="Rectangle-450"></path>
                </g>
            </g>
            <g id="Background-Stars-+-Background-Stars-Copy-8" sketch:type="MSLayerGroup" transform="translate(372.000000, -143.000000)" fill="#FFFFFF">
                <g id="Background-Stars" sketch:type="MSShapeGroup">
                    <path d="M85.5,115.307612 L94.6923882,120.5 L85.5,125.692388 L76.3076118,120.5 L85.5,115.307612 Z M122.5,295.307612 L131.692388,300.5 L122.5,305.692388 L113.307612,300.5 L122.5,295.307612 Z M507.5,285.307612 L516.692388,290.5 L507.5,295.692388 L498.307612,290.5 L507.5,285.307612 Z M235.5,258.307612 L244.692388,263.5 L235.5,268.692388 L226.307612,263.5 L235.5,258.307612 Z M295.542893,332.943772 L301.199747,336.139087 L295.542893,339.334403 L289.886039,336.139087 L295.542893,332.943772 Z M305.542893,440.943772 L311.199747,444.139087 L305.542893,447.334403 L299.886039,444.139087 L305.542893,440.943772 Z M375.542893,170.943772 L381.199747,174.139087 L375.542893,177.334403 L369.886039,174.139087 L375.542893,170.943772 Z M705.542893,321.943772 L711.199747,325.139087 L705.542893,328.334403 L699.886039,325.139087 L705.542893,321.943772 Z M305.542893,80.9437715 L311.199747,84.1390873 L305.542893,87.3344031 L299.886039,84.1390873 L305.542893,80.9437715 Z M6.54289322,180.943772 L12.1997475,184.139087 L6.54289322,187.334403 L0.886038969,184.139087 L6.54289322,180.943772 Z M145.542893,209.943772 L151.199747,213.139087 L145.542893,216.334403 L139.886039,213.139087 L145.542893,209.943772 Z M195.542893,0.943771509 L201.199747,4.1390873 L195.542893,7.33440308 L189.886039,4.1390873 L195.542893,0.943771509 Z M595.542893,360.943772 L601.199747,364.139087 L595.542893,367.334403 L589.886039,364.139087 L595.542893,360.943772 Z M385.5,365.307612 L394.692388,370.5 L385.5,375.692388 L376.307612,370.5 L385.5,365.307612 Z" id="Rectangle-450"></path>
                </g>
            </g>
            <g id="Background-Stars-+-Background-Stars-Copy-9" sketch:type="MSLayerGroup" transform="translate(-388.000000, -143.000000)" fill="#FFFFFF">
                <g id="Background-Stars" sketch:type="MSShapeGroup">
                    <path d="M85.5,115.307612 L94.6923882,120.5 L85.5,125.692388 L76.3076118,120.5 L85.5,115.307612 Z M122.5,295.307612 L131.692388,300.5 L122.5,305.692388 L113.307612,300.5 L122.5,295.307612 Z M507.5,285.307612 L516.692388,290.5 L507.5,295.692388 L498.307612,290.5 L507.5,285.307612 Z M235.5,258.307612 L244.692388,263.5 L235.5,268.692388 L226.307612,263.5 L235.5,258.307612 Z M295.542893,332.943772 L301.199747,336.139087 L295.542893,339.334403 L289.886039,336.139087 L295.542893,332.943772 Z M305.542893,440.943772 L311.199747,444.139087 L305.542893,447.334403 L299.886039,444.139087 L305.542893,440.943772 Z M375.542893,170.943772 L381.199747,174.139087 L375.542893,177.334403 L369.886039,174.139087 L375.542893,170.943772 Z M705.542893,321.943772 L711.199747,325.139087 L705.542893,328.334403 L699.886039,325.139087 L705.542893,321.943772 Z M305.542893,80.9437715 L311.199747,84.1390873 L305.542893,87.3344031 L299.886039,84.1390873 L305.542893,80.9437715 Z M6.54289322,180.943772 L12.1997475,184.139087 L6.54289322,187.334403 L0.886038969,184.139087 L6.54289322,180.943772 Z M145.542893,209.943772 L151.199747,213.139087 L145.542893,216.334403 L139.886039,213.139087 L145.542893,209.943772 Z M195.542893,0.943771509 L201.199747,4.1390873 L195.542893,7.33440308 L189.886039,4.1390873 L195.542893,0.943771509 Z M595.542893,360.943772 L601.199747,364.139087 L595.542893,367.334403 L589.886039,364.139087 L595.542893,360.943772 Z M385.5,365.307612 L394.692388,370.5 L385.5,375.692388 L376.307612,370.5 L385.5,365.307612 Z" id="Rectangle-450"></path>
                </g>
            </g>
            <g id="Background-Stars-+-Background-Stars-Copy-5" sketch:type="MSLayerGroup" transform="translate(1132.000000, -143.000000)" fill="#FFFFFF">
                <g id="Background-Stars" sketch:type="MSShapeGroup">
                    <path d="M85.5,115.307612 L94.6923882,120.5 L85.5,125.692388 L76.3076118,120.5 L85.5,115.307612 Z M122.5,295.307612 L131.692388,300.5 L122.5,305.692388 L113.307612,300.5 L122.5,295.307612 Z M507.5,285.307612 L516.692388,290.5 L507.5,295.692388 L498.307612,290.5 L507.5,285.307612 Z M235.5,258.307612 L244.692388,263.5 L235.5,268.692388 L226.307612,263.5 L235.5,258.307612 Z M295.542893,332.943772 L301.199747,336.139087 L295.542893,339.334403 L289.886039,336.139087 L295.542893,332.943772 Z M305.542893,440.943772 L311.199747,444.139087 L305.542893,447.334403 L299.886039,444.139087 L305.542893,440.943772 Z M375.542893,170.943772 L381.199747,174.139087 L375.542893,177.334403 L369.886039,174.139087 L375.542893,170.943772 Z M705.542893,321.943772 L711.199747,325.139087 L705.542893,328.334403 L699.886039,325.139087 L705.542893,321.943772 Z M305.542893,80.9437715 L311.199747,84.1390873 L305.542893,87.3344031 L299.886039,84.1390873 L305.542893,80.9437715 Z M6.54289322,180.943772 L12.1997475,184.139087 L6.54289322,187.334403 L0.886038969,184.139087 L6.54289322,180.943772 Z M145.542893,209.943772 L151.199747,213.139087 L145.542893,216.334403 L139.886039,213.139087 L145.542893,209.943772 Z M195.542893,0.943771509 L201.199747,4.1390873 L195.542893,7.33440308 L189.886039,4.1390873 L195.542893,0.943771509 Z M595.542893,360.943772 L601.199747,364.139087 L595.542893,367.334403 L589.886039,364.139087 L595.542893,360.943772 Z M385.5,365.307612 L394.692388,370.5 L385.5,375.692388 L376.307612,370.5 L385.5,365.307612 Z" id="Rectangle-450"></path>
                </g>
            </g>
        </g>
    </g>
</svg>