<?xml version="1.0" encoding="UTF-8" standalone="no"?>
<svg width="4608px" height="1664px" viewBox="0 0 4608 1664" version="1.1" xmlns="http://www.w3.org/2000/svg" xmlns:xlink="http://www.w3.org/1999/xlink" xmlns:sketch="http://www.bohemiancoding.com/sketch/ns">
    <!-- Generator: Sketch 3.3.3 (12081) - http://www.bohemiancoding.com/sketch -->
    <title>Background-Clouds-01</title>
    <desc>Created with Sketch.</desc>
    <defs></defs>
    <g id="Fondos" stroke="none" stroke-width="1" fill="none" fill-rule="evenodd" sketch:type="MSPage">
        <g id="Background-Clouds-01" sketch:type="MSArtboardGroup">
            <rect id="Rectangle-1482" fill="#008EA5" sketch:type="MSShapeGroup" x="0" y="0" width="4608" height="1664"></rect>
            <g id="Group-Copy-6" sketch:type="MSLayerGroup" transform="translate(307.000000, 130.000000)" fill="#FFFFFF">
                <path d="M534,96 L534,108.007627 C534,113.523281 538.474874,118 543.994912,118 L570,118 L570,134.000799 C570,139.523831 574.479107,144 580.004365,144 L657.995635,144 C663.518356,144 668,139.523205 668,134.000799 L668,118 L766.005088,118 C771.514387,118 776,113.526262 776,108.007627 L776,55.9923727 C776,50.4767188 771.525126,46 766.005088,46 L712,46 L712,31.9992012 C712,26.476169 707.525056,22 702.004932,22 L447.995068,22 C442.470854,22 438,26.4767949 438,31.9992012 L438,86.0007988 C438,91.523831 442.474944,96 447.995068,96 L534,96 Z" id="Rectangle-256-Copy-2" sketch:type="MSShapeGroup"></path>
                <path d="M1330.49476,176 L1356,176 L1356,166.003945 C1356,160.478919 1360.48561,156 1365.99491,156 L1588.00509,156 C1593.52513,156 1598,160.47262 1598,166.003945 L1598,193.996055 C1598,199.521081 1593.51439,204 1588.00509,204 L1524,204 L1524,240.000799 C1524,245.523205 1519.53031,250 1514.00099,250 L1319.99901,250 C1314.47671,250 1310,245.523831 1310,240.000799 L1310,214 L1266.00948,214 C1260.4814,214 1256,209.529174 1256,203.991103 L1256,186.008897 C1256,180.481136 1260.48633,176 1266.00948,176 L1330.49476,176 Z" id="Rectangle-256-Copy-5" sketch:type="MSShapeGroup"></path>
                <path d="M362,162 L362,172.000799 C362,177.523831 366.479107,182 372.004365,182 L449.995635,182 C455.518356,182 460,177.523205 460,172.000799 L460,162 L514.004932,162 C519.529146,162 524,157.523205 524,152.000799 L524,136 L573.99436,136 C579.516163,136 584,131.526262 584,126.007627 L584,73.9923727 C584,68.4767188 579.520322,64 573.99436,64 L396.00564,64 C390.483837,64 386,68.4737376 386,73.9923727 L386,88 L259.995068,88 C254.470854,88 250,92.4767949 250,97.9992012 L250,152.000799 C250,157.523831 254.474944,162 259.995068,162 L362,162 Z" id="Rectangle-256-Copy-3" fill-opacity="0.4" sketch:type="MSShapeGroup"></path>
                <path d="M1038,82 L1038,116.007627 C1038,121.523281 1042.47942,126 1048.00507,126 L1237.99493,126 C1243.5167,126 1248,121.526262 1248,116.007627 L1248,104 L1317.99564,104 C1323.51836,104 1328,99.519854 1328,93.9933138 L1328,72.0066862 C1328,66.4748366 1323.52089,62 1317.99564,62 L1276,62 L1276,49.9980749 C1276,44.4811691 1271.52712,40 1266.00954,40 L1205.99046,40 C1200.47257,40 1196,44.4762906 1196,49.9980749 L1196,54 L1196,54 L1122,54 L1122,37.9988798 C1122,32.476505 1117.52409,28 1112.00278,28 L987.997221,28 C982.467539,28 978,32.476651 978,37.9988798 L978,72.0011202 C978,77.523495 982.475908,82 987.997221,82 L1038,82 Z" id="Rectangle-256-Copy" sketch:type="MSShapeGroup"></path>
                <path d="M876,150 L876,153.999936 C876,159.525267 880.479423,164 886.005072,164 L1075.99493,164 C1081.5167,164 1086,159.522819 1086,153.999936 L1086,142 L1159.99564,142 C1165.51836,142 1170,137.519854 1170,131.993314 L1170,110.006686 C1170,104.474837 1165.52089,100 1159.99564,100 L1118,100 L1118,87.9980749 C1118,82.4811691 1113.52712,78 1108.00954,78 L1086,78 L1086,78 L1086,74.0000638 C1086,68.4747329 1081.52058,64 1075.99493,64 L886.005072,64 C880.483302,64 876,68.4771811 876,74.0000638 L876,96 L829.997221,96 C824.467539,96 820,100.476651 820,105.99888 L820,140.00112 C820,145.523495 824.475908,150 829.997221,150 L876,150 Z" id="Rectangle-256-Copy-4" fill-opacity="0.4" sketch:type="MSShapeGroup" transform="translate(995.000000, 114.000000) scale(-1, 1) translate(-995.000000, -114.000000) "></path>
                <rect id="Rectangle" sketch:type="MSShapeGroup" x="954" y="150" width="102" height="40" rx="10"></rect>
                <rect id="Rectangle-Copy-3" sketch:type="MSShapeGroup" x="308" y="136" width="98" height="36" rx="10"></rect>
                <rect id="Rectangle-Copy" fill-opacity="0.4" sketch:type="MSShapeGroup" x="630" y="130" width="90" height="36" rx="10"></rect>
                <rect id="Rectangle-Copy-2" fill-opacity="0.4" sketch:type="MSShapeGroup" x="0" y="110" width="120" height="38" rx="10"></rect>
                <path d="M686,214 L622.001799,214 C616.468833,214 612,218.476651 612,223.99888 L612,258.00112 C612,263.523495 616.477958,268 622.001799,268 L751.998201,268 C757.531167,268 762,263.523349 762,258.00112 L762,240 L807.997336,240 C813.532487,240 818,235.518518 818,229.990329 L818,204.009671 C818,198.473429 813.521655,194 807.997336,194 L696.002664,194 C690.467513,194 686,198.481482 686,204.009671 L686,214 Z" id="Rectangle-2953" sketch:type="MSShapeGroup"></path>
                <path d="M212,200 L212,179.99888 C212,174.476505 207.523538,170 202.001543,170 L91.998457,170 C86.4748943,170 82,174.476651 82,179.99888 L82,214.00112 C82,219.523495 86.4764617,224 91.998457,224 L124,224 L124,227.991103 C124,233.529174 128.478345,238 134.002664,238 L245.997336,238 C251.532487,238 256,233.518864 256,227.991103 L256,210.008897 C256,204.470826 251.521655,200 245.997336,200 L212,200 Z" id="Rectangle-2953-Copy" fill-opacity="0.4" sketch:type="MSShapeGroup"></path>
                <rect id="Rectangle-Copy-4" fill-opacity="0.4" sketch:type="MSShapeGroup" x="1297" y="40" width="120" height="38" rx="10"></rect>
                <path d="M1405.99577,190 L1477.99128,190 C1483.53265,190 1488,185.524148 1488,180.002904 L1488,131.997096 C1488,126.47481 1483.51894,122 1477.99128,122 L1338.00872,122 C1332.46735,122 1328,126.475852 1328,131.997096 L1328,156 L1297.99906,156 C1292.48513,156 1288,160.481136 1288,166.008897 L1288,183.991103 C1288,189.529174 1292.47673,194 1297.99906,194 L1398.00094,194 C1401.2657,194 1404.16979,192.42903 1405.99577,190 Z" id="Rectangle-Copy-5" fill-opacity="0.4" sketch:type="MSShapeGroup"></path>
                <path d="M792,29 L792,9.99887985 C792,4.47650502 787.523538,0 782.001543,0 L671.998457,0 C666.474894,0 662,4.47665099 662,9.99887985 L662,44.0011202 C662,49.523495 666.476462,54 671.998457,54 L704,54 L704,56.991103 C704,62.5291744 708.478345,67 714.002664,67 L825.997336,67 C831.532487,67 836,62.5188642 836,56.991103 L836,39.008897 C836,33.4708256 831.521655,29 825.997336,29 L792,29 Z" id="Rectangle-2953-Copy-2" fill-opacity="0.4" sketch:type="MSShapeGroup"></path>
            </g>
            <g id="Group-Copy-7" sketch:type="MSLayerGroup" transform="translate(2693.000000, 368.000000)" fill="#FFFFFF">
                <path d="M534,96 L534,108.007627 C534,113.523281 538.474874,118 543.994912,118 L570,118 L570,134.000799 C570,139.523831 574.479107,144 580.004365,144 L657.995635,144 C663.518356,144 668,139.523205 668,134.000799 L668,118 L766.005088,118 C771.514387,118 776,113.526262 776,108.007627 L776,55.9923727 C776,50.4767188 771.525126,46 766.005088,46 L712,46 L712,31.9992012 C712,26.476169 707.525056,22 702.004932,22 L447.995068,22 C442.470854,22 438,26.4767949 438,31.9992012 L438,86.0007988 C438,91.523831 442.474944,96 447.995068,96 L534,96 Z" id="Rectangle-256-Copy-2" sketch:type="MSShapeGroup"></path>
                <path d="M1330.49476,176 L1356,176 L1356,166.003945 C1356,160.478919 1360.48561,156 1365.99491,156 L1588.00509,156 C1593.52513,156 1598,160.47262 1598,166.003945 L1598,193.996055 C1598,199.521081 1593.51439,204 1588.00509,204 L1524,204 L1524,240.000799 C1524,245.523205 1519.53031,250 1514.00099,250 L1319.99901,250 C1314.47671,250 1310,245.523831 1310,240.000799 L1310,214 L1266.00948,214 C1260.4814,214 1256,209.529174 1256,203.991103 L1256,186.008897 C1256,180.481136 1260.48633,176 1266.00948,176 L1330.49476,176 Z" id="Rectangle-256-Copy-5" sketch:type="MSShapeGroup"></path>
                <path d="M362,162 L362,172.000799 C362,177.523831 366.479107,182 372.004365,182 L449.995635,182 C455.518356,182 460,177.523205 460,172.000799 L460,162 L514.004932,162 C519.529146,162 524,157.523205 524,152.000799 L524,136 L573.99436,136 C579.516163,136 584,131.526262 584,126.007627 L584,73.9923727 C584,68.4767188 579.520322,64 573.99436,64 L396.00564,64 C390.483837,64 386,68.4737376 386,73.9923727 L386,88 L259.995068,88 C254.470854,88 250,92.4767949 250,97.9992012 L250,152.000799 C250,157.523831 254.474944,162 259.995068,162 L362,162 Z" id="Rectangle-256-Copy-3" fill-opacity="0.4" sketch:type="MSShapeGroup"></path>
                <path d="M1038,82 L1038,116.007627 C1038,121.523281 1042.47942,126 1048.00507,126 L1237.99493,126 C1243.5167,126 1248,121.526262 1248,116.007627 L1248,104 L1317.99564,104 C1323.51836,104 1328,99.519854 1328,93.9933138 L1328,72.0066862 C1328,66.4748366 1323.52089,62 1317.99564,62 L1276,62 L1276,49.9980749 C1276,44.4811691 1271.52712,40 1266.00954,40 L1205.99046,40 C1200.47257,40 1196,44.4762906 1196,49.9980749 L1196,54 L1196,54 L1122,54 L1122,37.9988798 C1122,32.476505 1117.52409,28 1112.00278,28 L987.997221,28 C982.467539,28 978,32.476651 978,37.9988798 L978,72.0011202 C978,77.523495 982.475908,82 987.997221,82 L1038,82 Z" id="Rectangle-256-Copy" sketch:type="MSShapeGroup"></path>
                <path d="M876,150 L876,153.999936 C876,159.525267 880.479423,164 886.005072,164 L1075.99493,164 C1081.5167,164 1086,159.522819 1086,153.999936 L1086,142 L1159.99564,142 C1165.51836,142 1170,137.519854 1170,131.993314 L1170,110.006686 C1170,104.474837 1165.52089,100 1159.99564,100 L1118,100 L1118,87.9980749 C1118,82.4811691 1113.52712,78 1108.00954,78 L1086,78 L1086,78 L1086,74.0000638 C1086,68.4747329 1081.52058,64 1075.99493,64 L886.005072,64 C880.483302,64 876,68.4771811 876,74.0000638 L876,96 L829.997221,96 C824.467539,96 820,100.476651 820,105.99888 L820,140.00112 C820,145.523495 824.475908,150 829.997221,150 L876,150 Z" id="Rectangle-256-Copy-4" fill-opacity="0.4" sketch:type="MSShapeGroup" transform="translate(995.000000, 114.000000) scale(-1, 1) translate(-995.000000, -114.000000) "></path>
                <rect id="Rectangle" sketch:type="MSShapeGroup" x="954" y="150" width="102" height="40" rx="10"></rect>
                <rect id="Rectangle-Copy-3" sketch:type="MSShapeGroup" x="308" y="136" width="98" height="36" rx="10"></rect>
                <rect id="Rectangle-Copy" fill-opacity="0.4" sketch:type="MSShapeGroup" x="630" y="130" width="90" height="36" rx="10"></rect>
                <rect id="Rectangle-Copy-2" fill-opacity="0.4" sketch:type="MSShapeGroup" x="0" y="110" width="120" height="38" rx="10"></rect>
                <path d="M686,214 L622.001799,214 C616.468833,214 612,218.476651 612,223.99888 L612,258.00112 C612,263.523495 616.477958,268 622.001799,268 L751.998201,268 C757.531167,268 762,263.523349 762,258.00112 L762,240 L807.997336,240 C813.532487,240 818,235.518518 818,229.990329 L818,204.009671 C818,198.473429 813.521655,194 807.997336,194 L696.002664,194 C690.467513,194 686,198.481482 686,204.009671 L686,214 Z" id="Rectangle-2953" sketch:type="MSShapeGroup"></path>
                <path d="M212,200 L212,179.99888 C212,174.476505 207.523538,170 202.001543,170 L91.998457,170 C86.4748943,170 82,174.476651 82,179.99888 L82,214.00112 C82,219.523495 86.4764617,224 91.998457,224 L124,224 L124,227.991103 C124,233.529174 128.478345,238 134.002664,238 L245.997336,238 C251.532487,238 256,233.518864 256,227.991103 L256,210.008897 C256,204.470826 251.521655,200 245.997336,200 L212,200 Z" id="Rectangle-2953-Copy" fill-opacity="0.4" sketch:type="MSShapeGroup"></path>
                <rect id="Rectangle-Copy-4" fill-opacity="0.4" sketch:type="MSShapeGroup" x="1297" y="40" width="120" height="38" rx="10"></rect>
                <path d="M1405.99577,190 L1477.99128,190 C1483.53265,190 1488,185.524148 1488,180.002904 L1488,131.997096 C1488,126.47481 1483.51894,122 1477.99128,122 L1338.00872,122 C1332.46735,122 1328,126.475852 1328,131.997096 L1328,156 L1297.99906,156 C1292.48513,156 1288,160.481136 1288,166.008897 L1288,183.991103 C1288,189.529174 1292.47673,194 1297.99906,194 L1398.00094,194 C1401.2657,194 1404.16979,192.42903 1405.99577,190 Z" id="Rectangle-Copy-5" fill-opacity="0.4" sketch:type="MSShapeGroup"></path>
                <path d="M792,29 L792,9.99887985 C792,4.47650502 787.523538,0 782.001543,0 L671.998457,0 C666.474894,0 662,4.47665099 662,9.99887985 L662,44.0011202 C662,49.523495 666.476462,54 671.998457,54 L704,54 L704,56.991103 C704,62.5291744 708.478345,67 714.002664,67 L825.997336,67 C831.532487,67 836,62.5188642 836,56.991103 L836,39.008897 C836,33.4708256 831.521655,29 825.997336,29 L792,29 Z" id="Rectangle-2953-Copy-2" fill-opacity="0.4" sketch:type="MSShapeGroup"></path>
            </g>
        </g>
    </g>
</svg>