<?xml version="1.0" encoding="UTF-8" standalone="no"?>
<svg width="512px" height="128px" viewBox="0 0 512 128" version="1.1" xmlns="http://www.w3.org/2000/svg" xmlns:xlink="http://www.w3.org/1999/xlink" xmlns:sketch="http://www.bohemiancoding.com/sketch/ns">
    <!-- Generator: Sketch 3.4 (15588) - http://www.bohemiancoding.com/sketch -->
    <title>Slime-Yellow@3x</title>
    <desc>Created with Sketch.</desc>
    <defs>
        <path id="path-1" d="M7,11 C13.0751322,11 20,10.5375661 20,7.5 C20,4.46243388 13.0751322,0 7,0 C0.924867752,0 0,2.46243388 0,5.5 C0,8.53756612 0.924867752,11 7,11 Z"></path>
        <path id="path-3" d="M7,11 C13.0751322,11 20,10.5375661 20,7.5 C20,4.46243388 13.0751322,0 7,0 C0.924867752,0 0,2.46243388 0,5.5 C0,8.53756612 0.924867752,11 7,11 Z"></path>
        <path id="path-5" d="M7,11 C13.0751322,11 20,10.5375661 20,7.5 C20,4.46243388 13.0751322,0 7,0 C0.924867752,0 0,2.46243388 0,5.5 C0,8.53756612 0.924867752,11 7,11 Z"></path>
        <path id="path-7" d="M7,11 C13.0751322,11 20,10.5375661 20,7.5 C20,4.46243388 13.0751322,0 7,0 C0.924867752,0 0,2.46243388 0,5.5 C0,8.53756612 0.924867752,11 7,11 Z"></path>
    </defs>
    <g id="Personajes" stroke="none" stroke-width="1" fill="none" fill-rule="evenodd" sketch:type="MSPage">
        <g id="Slime-Yellow" sketch:type="MSArtboardGroup">
            <g id="Group" sketch:type="MSLayerGroup">
                <circle id="Oval-52-Copy-8" fill="#000000" sketch:type="MSShapeGroup" cx="27.5" cy="97.8333333" r="7.5"></circle>
                <path d="M64,127.945736 C93,127.945736 102,129.930233 102,112.565891 C102,92.8377665 83,57 64,57 C45,57 26,92.8377665 26,112.565891 C26,129.930233 35,127.945736 64,127.945736 Z" id="Oval-1" fill="#FFBE17" sketch:type="MSShapeGroup"></path>
                <circle id="Oval-52-Copy-9" fill="#000000" sketch:type="MSShapeGroup" cx="68.5" cy="97.8333333" r="7.5"></circle>
                <g id="Oval-7-Copy-4" transform="translate(31.000000, 108.000000)">
                    <mask id="mask-2" sketch:name="Mask" fill="white">
                        <use xlink:href="#path-1"></use>
                    </mask>
                    <use id="Mask" fill="#000000" sketch:type="MSShapeGroup" xlink:href="#path-1"></use>
                    <path d="M6,3 C10.9705627,3 18,0.517592616 18,-3.77817459 C18,-8.0739418 2,-8.0739418 2,-3.77817459 C2,0.517592616 1.02943725,3 6,3 Z" fill="#FFFFFF" sketch:type="MSShapeGroup" mask="url(#mask-2)"></path>
                    <path d="M9,16 C15.0751322,16 33,11.7867965 24,9.39339828 C15,7.00000005 2,4.53553391 2,10.3933983 C2,16.2512627 2.92486775,16 9,16 Z" id="Oval-7-Copy-6" fill="#FF6275" sketch:type="MSShapeGroup" mask="url(#mask-2)"></path>
                </g>
            </g>
            <g id="Group-Copy" sketch:type="MSLayerGroup" transform="translate(128.000000, 0.000000)">
                <circle id="Oval-52-Copy-8" fill="#000000" sketch:type="MSShapeGroup" cx="26.5" cy="100.833333" r="7.5"></circle>
                <path d="M64,127.945736 C93.7631579,127.945736 103,129.930233 103,112.565891 C103,92.8377665 83.5,64 64,64 C44.5,64 25,92.8377665 25,112.565891 C25,129.930233 34.2368421,127.945736 64,127.945736 Z" id="Oval-1" fill="#FFBE17" sketch:type="MSShapeGroup"></path>
                <g id="Oval-7-Copy-5" transform="translate(31.000000, 110.000000)">
                    <mask id="mask-4" sketch:name="Mask" fill="white">
                        <use xlink:href="#path-3"></use>
                    </mask>
                    <use id="Mask" fill="#000000" sketch:type="MSShapeGroup" xlink:href="#path-3"></use>
                    <path d="M6,3 C10.9705627,3 18,0.517592616 18,-3.77817459 C18,-8.0739418 2,-8.0739418 2,-3.77817459 C2,0.517592616 1.02943725,3 6,3 Z" id="Oval-7-Copy-4" fill="#FFFFFF" sketch:type="MSShapeGroup" mask="url(#mask-4)"></path>
                    <path d="M9,16 C15.0751322,16 33,11.7867965 24,9.39339828 C15,7.00000005 2,4.53553391 2,10.3933983 C2,16.2512627 2.92486775,16 9,16 Z" id="Oval-7-Copy-6" fill="#FF6275" sketch:type="MSShapeGroup" mask="url(#mask-4)"></path>
                </g>
                <circle id="Oval-52-Copy-9" fill="#000000" sketch:type="MSShapeGroup" cx="68.5" cy="100.833333" r="7.5"></circle>
            </g>
            <g id="Group-Copy-2" sketch:type="MSLayerGroup" transform="translate(256.000000, 0.000000)">
                <circle id="Oval-52-Copy-8" fill="#000000" sketch:type="MSShapeGroup" cx="25.5" cy="103.833333" r="7.5"></circle>
                <path d="M64,127.945736 C94.5263158,127.945736 104,129.930233 104,112.565891 C104,92.8377665 84,71 64,71 C44,71 24,92.8377665 24,112.565891 C24,129.930233 33.4736842,127.945736 64,127.945736 Z" id="Oval-1" fill="#FFBE17" sketch:type="MSShapeGroup"></path>
                <g id="Oval-7-Copy-7" transform="translate(31.000000, 112.000000)">
                    <mask id="mask-6" sketch:name="Mask" fill="white">
                        <use xlink:href="#path-5"></use>
                    </mask>
                    <use id="Mask" fill="#000000" sketch:type="MSShapeGroup" xlink:href="#path-5"></use>
                    <path d="M6,3 C10.9705627,3 18,0.517592616 18,-3.77817459 C18,-8.0739418 2,-8.0739418 2,-3.77817459 C2,0.517592616 1.02943725,3 6,3 Z" id="Oval-7-Copy-4" fill="#FFFFFF" sketch:type="MSShapeGroup" mask="url(#mask-6)"></path>
                    <path d="M9,16 C15.0751322,16 33,11.7867965 24,9.39339828 C15,7.00000005 2,4.53553391 2,10.3933983 C2,16.2512627 2.92486775,16 9,16 Z" id="Oval-7-Copy-6" fill="#FF6275" sketch:type="MSShapeGroup" mask="url(#mask-6)"></path>
                </g>
                <circle id="Oval-52-Copy-9" fill="#000000" sketch:type="MSShapeGroup" cx="68.5" cy="103.833333" r="7.5"></circle>
            </g>
            <g id="Group-Copy-3" sketch:type="MSLayerGroup" transform="translate(384.000000, 0.000000)">
                <circle id="Oval-52-Copy-8" fill="#000000" sketch:type="MSShapeGroup" cx="25.5" cy="107.5" r="7.5"></circle>
                <path d="M35.7414996,128 L92.7436126,128 C113.240445,128 112.189444,120.386778 111.244669,115.34088 C108.420748,100.258755 87,92 64.2425561,92 C41.4851123,92 19.8282733,100.254968 17.2404431,115.34088 C16.2882206,120.891918 15.2404433,128 35.7414996,128 Z" id="Oval-1" fill="#FFBE17" sketch:type="MSShapeGroup"></path>
                <circle id="Oval-52-Copy-9" fill="#000000" sketch:type="MSShapeGroup" cx="68.5" cy="107.5" r="7.5"></circle>
                <rect id="Rectangle-885" fill="#FFBE17" sketch:type="MSShapeGroup" transform="translate(65.000000, 113.500000) rotate(12.000000) translate(-65.000000, -113.500000) " x="53" y="108" width="24" height="11"></rect>
                <g id="Oval-7-Copy-9" transform="translate(28.000000, 113.000000)">
                    <mask id="mask-8" sketch:name="Mask" fill="white">
                        <use xlink:href="#path-7"></use>
                    </mask>
                    <use id="Mask" fill="#000000" sketch:type="MSShapeGroup" xlink:href="#path-7"></use>
                    <path d="M6,3 C10.9705627,3 18,0.517592616 18,-3.77817459 C18,-8.0739418 2,-8.0739418 2,-3.77817459 C2,0.517592616 1.02943725,3 6,3 Z" id="Oval-7-Copy-4" fill="#FFFFFF" sketch:type="MSShapeGroup" mask="url(#mask-8)"></path>
                    <path d="M9,16 C15.0751322,16 33,11.7867965 24,9.39339828 C15,7.00000005 2,4.53553391 2,10.3933983 C2,16.2512627 2.92486775,16 9,16 Z" id="Oval-7-Copy-6" fill="#FF6275" sketch:type="MSShapeGroup" mask="url(#mask-8)"></path>
                </g>
            </g>
        </g>
    </g>
</svg>