<?xml version="1.0" encoding="UTF-8" standalone="no"?>
<svg width="128px" height="128px" viewBox="0 0 128 128" version="1.1" xmlns="http://www.w3.org/2000/svg" xmlns:xlink="http://www.w3.org/1999/xlink" xmlns:sketch="http://www.bohemiancoding.com/sketch/ns">
    <!-- Generator: Sketch 3.3.3 (12081) - http://www.bohemiancoding.com/sketch -->
    <title></title>
    <desc>Created with Sketch.</desc>
    <defs></defs>
    <g id="Tileset" stroke="none" stroke-width="1" fill="none" fill-rule="evenodd" sketch:type="MSPage">
        <g id="objects" sketch:type="MSArtboardGroup" transform="translate(0.000000, -1024.000000)">
            <g id="Buildings-House-A-07" sketch:type="MSLayerGroup" transform="translate(0.000000, 1024.000000)">
                <rect id="Rectangle-2932-Copy-2" fill="#FAFFE5" sketch:type="MSShapeGroup" x="0" y="0" width="128" height="128"></rect>
                <path d="M52,110 L29.0064763,110 C24.0283957,110 20,114.029437 20,119 L20,128 L120,128 L120,119 C120,114.028344 115.967663,110 110.993524,110 L108,110 L108,93.9999892 C108,88.4750951 103.524848,84 98.0044683,84 L61.9955317,84 C56.4762784,84 52,88.4771477 52,93.9999892 L52,110 L52,110 Z" id="Rectangle-2849-Copy-9" fill-opacity="0.0647078804" fill="#272C31" sketch:type="MSShapeGroup"></path>
                <rect id="Rectangle-2849-Copy-11" fill-opacity="0.0647078804" fill="#272C31" sketch:type="MSShapeGroup" x="7" y="74" width="30" height="30" rx="10"></rect>
                <rect id="Rectangle-2849-Copy-12" fill-opacity="0.0647078804" fill="#272C31" sketch:type="MSShapeGroup" x="40" y="54" width="24" height="24" rx="10"></rect>
            </g>
        </g>
    </g>
</svg>