<?xml version="1.0" encoding="UTF-8" standalone="no"?>
<svg width="128px" height="128px" viewBox="0 0 128 128" version="1.1" xmlns="http://www.w3.org/2000/svg" xmlns:xlink="http://www.w3.org/1999/xlink" xmlns:sketch="http://www.bohemiancoding.com/sketch/ns">
    <!-- Generator: Sketch 3.3.3 (12081) - http://www.bohemiancoding.com/sketch -->
    <title></title>
    <desc>Created with Sketch.</desc>
    <defs></defs>
    <g id="Tileset" stroke="none" stroke-width="1" fill="none" fill-rule="evenodd" sketch:type="MSPage">
        <g id="objects" sketch:type="MSArtboardGroup" transform="translate(-640.000000, -640.000000)">
            <g id="Buildings-Fence-A-01" sketch:type="MSLayerGroup" transform="translate(640.000000, 640.000000)">
                <rect id="Rectangle-5143" sketch:type="MSShapeGroup" x="0" y="0" width="128" height="128"></rect>
                <path d="M32,128 L32,27.9928553 C32,23.5773506 28.418278,20 24,20 C19.5907123,20 16,23.5785232 16,27.9928553 L16,128 L32,128 Z M64,128 L64,27.9928553 C64,23.5773506 60.418278,20 56,20 C51.5907123,20 48,23.5785232 48,27.9928553 L48,128 L64,128 Z M96,128 L96,27.9928553 C96,23.5773506 92.418278,20 88,20 C83.5907123,20 80,23.5785232 80,27.9928553 L80,128 L96,128 Z M128,77.9964277 L128,27.9928553 C128,23.5773506 124.418278,20 120,20 C115.590712,20 112,23.5785232 112,27.9928553 L112,128 L128,128 L128,77.9964277 Z" id="Path-Copy-4" fill="#B9906C" sketch:type="MSShapeGroup"></path>
                <path d="M112,128 L112,27.9928553 C112,23.5773506 108.418278,20 104,20 C99.5907123,20 96,23.5785232 96,27.9928553 L96,128 L112,128 Z M80,128 L80,27.9928553 C80,23.5773506 76.418278,20 72,20 C67.5907123,20 64,23.5785232 64,27.9928553 L64,128 L80,128 Z M48,128 L48,27.9928553 C48,23.5773506 44.418278,20 40,20 C35.5907123,20 32,23.5785232 32,27.9928553 L32,128 L48,128 Z M16,128 L16,27.9928553 C16,23.5773506 12.418278,20 8,20 C3.59071231,20 0,23.5785232 0,27.9928553 L0,77.9964277 L0,128 L16,128 Z" id="Path-Copy-10" fill="#AD765F" sketch:type="MSShapeGroup"></path>
            </g>
        </g>
    </g>
</svg>