<?xml version="1.0" encoding="UTF-8" standalone="no"?>
<svg width="128px" height="128px" viewBox="0 0 128 128" version="1.1" xmlns="http://www.w3.org/2000/svg" xmlns:xlink="http://www.w3.org/1999/xlink" xmlns:sketch="http://www.bohemiancoding.com/sketch/ns">
    <!-- Generator: Sketch 3.3.3 (12081) - http://www.bohemiancoding.com/sketch -->
    <title></title>
    <desc>Created with Sketch.</desc>
    <defs></defs>
    <g id="Tileset" stroke="none" stroke-width="1" fill="none" fill-rule="evenodd" sketch:type="MSPage">
        <g id="objects" sketch:type="MSArtboardGroup" transform="translate(-1792.000000, -768.000000)">
            <g id="Buildings-House-C-03" sketch:type="MSLayerGroup" transform="translate(1856.000000, 832.000000) scale(-1, 1) translate(-1856.000000, -832.000000) translate(1792.000000, 768.000000)">
                <rect id="Rectangle-2932-Copy-3" sketch:type="MSShapeGroup" x="0" y="0" width="128" height="128"></rect>
                <path d="M112,18 L128,18 L128,52 L128,62 L120,62 C115.581722,62 112,58.4179511 112,54.0064224 L112,18 Z" id="Rectangle-2975" fill="#7C3B1E" sketch:type="MSShapeGroup"></path>
                <path d="M124,80 L128,80 L128,94 L124,94 L124,80 Z M124,48 L128,48 L128,62 L124,62 L124,48 Z M124,64 L128,64 L128,78 L124,78 L124,64 Z M124,32 L128,32 L128,46 L124,46 L124,32 Z M124,0 L128,0 L128,14 L124,14 L124,0 Z M124,16 L128,16 L128,30 L124,30 L124,16 Z M124,112 L128,112 L128,126 L124,126 L124,112 Z M124,96 L128,96 L128,110 L124,110 L124,96 Z" id="Rectangle-5230-Copy-8" fill="#B9906C" sketch:type="MSShapeGroup"></path>
                <rect id="Rectangle-5251" fill="#AD765F" sketch:type="MSShapeGroup" x="124" y="50" width="4" height="6"></rect>
                <path d="M112,12.9932448 C112,8.5786976 115.590712,5 120,5 L128,5 L128,45 L128,50 L120,50 C115.581722,50 112,46.4124415 112,42.0067552 L112,12.9932448 Z" id="Rectangle-116-Copy-4" fill="#8D4323" sketch:type="MSShapeGroup"></path>
                <path d="M112,7.99357759 C112,3.57884659 115.590712,0 120,0 L128,0 L128,29 L128,44 L120,44 C115.581722,44 112,40.4179511 112,36.0064224 L112,7.99357759 Z" id="Rectangle-116-Copy-2" fill="#CC4B2B" sketch:type="MSShapeGroup"></path>
            </g>
        </g>
    </g>
</svg>