<?xml version="1.0" encoding="UTF-8" standalone="no"?>
<svg width="128px" height="128px" viewBox="0 0 128 128" version="1.1" xmlns="http://www.w3.org/2000/svg" xmlns:xlink="http://www.w3.org/1999/xlink" xmlns:sketch="http://www.bohemiancoding.com/sketch/ns">
    <!-- Generator: Sketch 3.3.3 (12081) - http://www.bohemiancoding.com/sketch -->
    <title></title>
    <desc>Created with Sketch.</desc>
    <defs></defs>
    <g id="Tileset" stroke="none" stroke-width="1" fill="none" fill-rule="evenodd" sketch:type="MSPage">
        <g id="objects" sketch:type="MSArtboardGroup" transform="translate(-1408.000000, -768.000000)">
            <g id="Buildings-House-C-02" sketch:type="MSLayerGroup" transform="translate(1408.000000, 768.000000)">
                <rect id="Rectangle-2932" fill="#AD765F" sketch:type="MSShapeGroup" x="0" y="0" width="128" height="128"></rect>
                <path d="M0,112 L128,112 L128,126 L0,126 L0,112 Z M0,80 L128,80 L128,94 L0,94 L0,80 Z M0,48 L128,48 L128,62 L0,62 L0,48 Z M0,16 L128,16 L128,30 L0,30 L0,16 Z M0,96 L128,96 L128,110 L0,110 L0,96 Z M0,64 L128,64 L128,78 L0,78 L0,64 Z M0,32 L128,32 L128,46 L0,46 L0,32 Z M0,0 L128,0 L128,14 L0,14 L0,0 Z" id="Rectangle-2932-Copy-18" fill="#B9906C" sketch:type="MSShapeGroup"></path>
                <rect id="Rectangle-116-Copy-3" fill="#AD765F" sketch:type="MSShapeGroup" x="0" y="50" width="128" height="6"></rect>
                <rect id="Rectangle-116-Copy-6" fill="#8D4323" sketch:type="MSShapeGroup" x="0" y="44" width="128" height="6"></rect>
                <rect id="Rectangle-116-Copy-5" fill="#CC4B2B" sketch:type="MSShapeGroup" x="0" y="0" width="128" height="44"></rect>
            </g>
        </g>
    </g>
</svg>