<?xml version="1.0" encoding="UTF-8" standalone="no"?>
<svg width="130px" height="130px" viewBox="0 0 130 130" version="1.1" xmlns="http://www.w3.org/2000/svg" xmlns:xlink="http://www.w3.org/1999/xlink" xmlns:sketch="http://www.bohemiancoding.com/sketch/ns">
    <!-- Generator: Sketch 3.3.3 (12081) - http://www.bohemiancoding.com/sketch -->
    <title></title>
    <desc>Created with Sketch.</desc>
    <defs></defs>
    <g id="Tileset" stroke="none" stroke-width="1" fill="none" fill-rule="evenodd" sketch:type="MSPage">
        <g id="objects" sketch:type="MSArtboardGroup" transform="translate(-1663.000000, -895.000000)" fill="#B9906C">
            <g id="Buildings-House-C-11" sketch:type="MSLayerGroup" transform="translate(1664.000000, 896.000000)">
                <path d="M0,80 L4,80 L4,94 L0,94 L0,80 Z M0,48 L4,48 L4,62 L0,62 L0,48 Z M0,64 L4,64 L4,78 L0,78 L0,64 Z M0,32 L4,32 L4,46 L0,46 L0,32 Z M0,0 L4,0 L4,14 L0,14 L0,0 Z M0,16 L4,16 L4,30 L0,30 L0,16 Z M0,112 L4,112 L4,126 L0,126 L0,112 Z M0,96 L4,96 L4,110 L0,110 L0,96 Z" id="Rectangle-5230" sketch:type="MSShapeGroup"></path>
            </g>
        </g>
    </g>
</svg>