<?xml version="1.0" encoding="UTF-8" standalone="no"?>
<svg width="130px" height="130px" viewBox="0 0 130 130" version="1.1" xmlns="http://www.w3.org/2000/svg" xmlns:xlink="http://www.w3.org/1999/xlink" xmlns:sketch="http://www.bohemiancoding.com/sketch/ns">
    <!-- Generator: Sketch 3.3.3 (12081) - http://www.bohemiancoding.com/sketch -->
    <title></title>
    <desc>Created with Sketch.</desc>
    <defs></defs>
    <g id="Tileset" stroke="none" stroke-width="1" fill="none" fill-rule="evenodd" sketch:type="MSPage">
        <g id="objects" sketch:type="MSArtboardGroup" transform="translate(-1279.000000, -895.000000)" fill="#B9906C">
            <g id="Buildings-House-C-10" sketch:type="MSLayerGroup" transform="translate(1280.000000, 896.000000)">
                <path d="M124,80 L128,80 L128,94 L124,94 L124,80 Z M124,48 L128,48 L128,62 L124,62 L124,48 Z M124,64 L128,64 L128,78 L124,78 L124,64 Z M124,32 L128,32 L128,46 L124,46 L124,32 Z M124,0 L128,0 L128,14 L124,14 L124,0 Z M124,16 L128,16 L128,30 L124,30 L124,16 Z M124,112 L128,112 L128,126 L124,126 L124,112 Z M124,96 L128,96 L128,110 L124,110 L124,96 Z" id="Rectangle-5230-Copy-10" sketch:type="MSShapeGroup"></path>
            </g>
        </g>
    </g>
</svg>