<?xml version="1.0" encoding="UTF-8" standalone="no"?>
<svg width="128px" height="128px" viewBox="0 0 128 128" version="1.1" xmlns="http://www.w3.org/2000/svg" xmlns:xlink="http://www.w3.org/1999/xlink" xmlns:sketch="http://www.bohemiancoding.com/sketch/ns">
    <!-- Generator: Sketch 3.3.3 (12081) - http://www.bohemiancoding.com/sketch -->
    <title></title>
    <desc>Created with Sketch.</desc>
    <defs></defs>
    <g id="Tileset" stroke="none" stroke-width="1" fill="none" fill-rule="evenodd" sketch:type="MSPage">
        <g id="objects" sketch:type="MSArtboardGroup" transform="translate(-1536.000000, -896.000000)">
            <g id="Buildings-House-C-14" sketch:type="MSLayerGroup" transform="translate(1536.000000, 896.000000)">
                <rect id="Rectangle-2932-Copy-2" fill="#AD765F" sketch:type="MSShapeGroup" x="0" y="0" width="128" height="128"></rect>
                <path d="M0,112 L128,112 L128,126 L0,126 L0,112 Z M0,80 L128,80 L128,94 L0,94 L0,80 Z M0,48 L128,48 L128,62 L0,62 L0,48 Z M0,16 L128,16 L128,30 L0,30 L0,16 Z M0,96 L128,96 L128,110 L0,110 L0,96 Z M0,64 L128,64 L128,78 L0,78 L0,64 Z M0,32 L128,32 L128,46 L0,46 L0,32 Z M0,0 L128,0 L128,14 L0,14 L0,0 Z" id="Rectangle-2932-Copy-10" fill="#B9906C" sketch:type="MSShapeGroup"></path>
                <rect id="Rectangle-5358" fill="#AD765F" sketch:type="MSShapeGroup" x="75" y="80" width="32" height="14"></rect>
            </g>
        </g>
    </g>
</svg>