<?xml version="1.0" encoding="UTF-8" standalone="no"?>
<svg width="128px" height="128px" viewBox="0 0 128 128" version="1.1" xmlns="http://www.w3.org/2000/svg" xmlns:xlink="http://www.w3.org/1999/xlink" xmlns:sketch="http://www.bohemiancoding.com/sketch/ns">
    <!-- Generator: Sketch 3.3.3 (12081) - http://www.bohemiancoding.com/sketch -->
    <title></title>
    <desc>Created with Sketch.</desc>
    <defs></defs>
    <g id="Tileset" stroke="none" stroke-width="1" fill="none" fill-rule="evenodd" sketch:type="MSPage">
        <g id="objects" sketch:type="MSArtboardGroup" transform="translate(-384.000000, -768.000000)">
            <g id="Buildings-House-A-15" sketch:type="MSLayerGroup" transform="translate(384.000000, 768.000000)">
                <rect id="Rectangle-2932" fill="#FAFFE5" sketch:type="MSShapeGroup" x="0" y="0" width="128" height="128"></rect>
                <rect id="Rectangle-116-Copy-3" fill="#D4D9C2" sketch:type="MSShapeGroup" x="0" y="50" width="128" height="6"></rect>
                <rect id="Rectangle-116-Copy-6" fill="#8D4323" sketch:type="MSShapeGroup" x="0" y="44" width="128" height="6"></rect>
                <rect id="Mask" fill="#CC4B2B" sketch:type="MSShapeGroup" x="0" y="0" width="128" height="44"></rect>
                <path d="M30.7706865,48.2878593 C26.3523211,48.2878593 25.3029902,45.7553973 28.4276032,42.6307843 L58.3426577,12.7157298 C61.4669739,9.59141351 66.5321947,9.59111676 69.6568077,12.7157298 L99.5718622,42.6307843 C102.696178,45.7551005 101.646069,48.2878593 97.2287788,48.2878593 L30.7706865,48.2878593 Z" id="Rectangle-116-Copy-10" fill="#8D4323" sketch:type="MSShapeGroup"></path>
                <path d="M29.885393,53.7155129 C28.2274225,53.7155129 27.8381813,52.7607035 28.9987674,51.6001174 L61.8852062,18.7136786 C63.0535068,17.5453779 64.9554112,17.5530926 66.1159972,18.7136786 L99.002436,51.6001174 C100.170737,52.7684181 99.7659837,53.7155129 98.1158104,53.7155129 L29.885393,53.7155129 Z" id="Rectangle-116-Copy-8" fill="#D4D9C2" sketch:type="MSShapeGroup"></path>
                <path d="M32.6326173,60.3947491 C30.9771689,60.3947491 30.5901523,59.4397597 31.7589263,58.2709857 L61.8766047,28.1533073 C63.0495269,26.9803851 64.9553576,26.9845332 66.1241317,28.1533073 L96.2418101,58.2709857 C97.4147322,59.4439079 97.0234752,60.3947491 95.3681192,60.3947491 L32.6326173,60.3947491 Z" id="Rectangle-116-Copy-9" fill="#FAFFE5" sketch:type="MSShapeGroup"></path>
            </g>
        </g>
    </g>
</svg>