<?xml version="1.0" encoding="UTF-8" standalone="no"?>
<svg width="128px" height="129px" viewBox="0 0 128 129" version="1.1" xmlns="http://www.w3.org/2000/svg" xmlns:xlink="http://www.w3.org/1999/xlink" xmlns:sketch="http://www.bohemiancoding.com/sketch/ns">
    <!-- Generator: Sketch 3.3.3 (12081) - http://www.bohemiancoding.com/sketch -->
    <title></title>
    <desc>Created with Sketch.</desc>
    <defs>
        <radialGradient cx="0%" cy="0%" fx="0%" fy="0%" r="69.8791504%" id="radialGradient-1">
            <stop stop-color="#B14318" offset="0%"></stop>
            <stop stop-color="#CF4A15" offset="100%"></stop>
        </radialGradient>
    </defs>
    <g id="Tileset" stroke="none" stroke-width="1" fill="none" fill-rule="evenodd" sketch:type="MSPage">
        <g id="objects" sketch:type="MSArtboardGroup" transform="translate(-384.000000, -512.000000)">
            <g id="Building-Lighthouse-02" sketch:type="MSLayerGroup" transform="translate(384.000000, 512.000000)">
                <rect id="Mask" sketch:type="MSShapeGroup" x="0" y="0" width="128" height="128"></rect>
                <path d="M5.78247363,4.4408921e-16 L6.45162662,11.9997559 C6.56778653,14.0828229 7.73052899,15.9184963 9.40028527,16.9943772 L8.61344787,37 L119.386552,37 L119.386552,37 L118.599661,16.9930051 L118.599661,16.9930023 C120.268338,15.9170741 121.432178,14.0823161 121.548309,11.9997559 L122.217462,1.33226763e-15 L5.78247363,0 Z M122.965656,128 L121.353093,87 L121.353093,87 L6.64690726,87 L5.03434396,128 L122.965656,128 Z" id="Rectangle-3030" fill="#CC4B2B" sketch:type="MSShapeGroup"></path>
                <path d="M73.2000122,-8.39996338 L93.2000122,-9.20001221 L93.2000122,63.2000122 L73.2000122,63.2000122 L73.2000122,-8.39996338 Z" id="Rectangle-2942-Copy" fill="url(#radialGradient-1)" sketch:type="MSShapeGroup" transform="translate(83.200012, 27.000000) rotate(-270.000000) translate(-83.200012, -27.000000) "></path>
                <path d="M8.61344787,37 L119.386552,37 L121.353093,87 L6.64690726,87 L8.61344787,37 Z" id="Rectangle-3034" fill="#FFFFFF" sketch:type="MSShapeGroup"></path>
            </g>
        </g>
    </g>
</svg>