<?xml version="1.0" encoding="UTF-8" standalone="no"?>
<svg width="128px" height="128px" viewBox="0 0 128 128" version="1.1" xmlns="http://www.w3.org/2000/svg" xmlns:xlink="http://www.w3.org/1999/xlink" xmlns:sketch="http://www.bohemiancoding.com/sketch/ns">
    <!-- Generator: Sketch 3.3.3 (12081) - http://www.bohemiancoding.com/sketch -->
    <title></title>
    <desc>Created with Sketch.</desc>
    <defs></defs>
    <g id="Tileset" stroke="none" stroke-width="1" fill="none" fill-rule="evenodd" sketch:type="MSPage">
        <g id="objects" sketch:type="MSArtboardGroup" transform="translate(-384.000000, -384.000000)">
            <g id="Building-Lighthouse-03" sketch:type="MSLayerGroup" transform="translate(384.000000, 384.000000)">
                <rect id="Mask" sketch:type="MSShapeGroup" x="0" y="0" width="128" height="128"></rect>
                <rect id="Rectangle-3032" opacity="0.4" fill="#FFFFFF" sketch:type="MSShapeGroup" x="20" y="56" width="88" height="56"></rect>
                <rect id="Rectangle-3032-Copy-2" fill-opacity="0.2" fill="#000000" sketch:type="MSShapeGroup" x="20" y="52" width="88" height="18"></rect>
                <path d="M122.217462,128 L122.998143,114.000244 C123.18289,110.687226 120.643398,108 117.325927,108 L10.674009,108 C7.35445345,108 4.8170001,110.686401 5.00179288,114.000244 L5.78247363,128 L122.217462,128 Z" id="Path" fill="#CC4B2B" sketch:type="MSShapeGroup"></path>
                <path d="M121.26119,49.1283181 C129.740954,56.1083951 127.660039,61.7747066 116.618834,61.7843741 L11.7061702,61.8762344 C0.662503792,61.8859041 -1.41993925,56.2349007 7.06439766,49.2465449 L56.5424574,8.49258982 C60.7805122,5.0018002 67.6593843,5.00625052 71.8955564,8.49323514 L121.26119,49.1283181 L121.26119,49.1283181 Z" id="Path" fill="#CC4B2B" sketch:type="MSShapeGroup"></path>
            </g>
        </g>
    </g>
</svg>