<?xml version="1.0" encoding="UTF-8" standalone="no"?>
<svg width="128px" height="128px" viewBox="0 0 128 128" version="1.1" xmlns="http://www.w3.org/2000/svg" xmlns:xlink="http://www.w3.org/1999/xlink" xmlns:sketch="http://www.bohemiancoding.com/sketch/ns">
    <!-- Generator: Sketch 3.3.3 (12081) - http://www.bohemiancoding.com/sketch -->
    <title></title>
    <desc>Created with Sketch.</desc>
    <defs></defs>
    <g id="Tileset" stroke="none" stroke-width="1" fill="none" fill-rule="evenodd" sketch:type="MSPage">
        <g id="objects" sketch:type="MSArtboardGroup" transform="translate(-256.000000, -1024.000000)">
            <g id="Buildings-House-A-09" sketch:type="MSLayerGroup" transform="translate(256.000000, 1024.000000)">
                <rect id="Rectangle-2932-Copy-5" fill="#FAFFE5" sketch:type="MSShapeGroup" x="0" y="0" width="128" height="128"></rect>
                <path d="M0,112 L0,84 L28.5,84 L28.5,84 L28.5,76.9999892 C28.5,71.4771477 32.9720759,67 38.4905068,67 L58.5094932,67 C64.0270978,67 68.5,71.4750951 68.5,76.9999892 L68.5,87.0000108 C68.5,92.5228523 64.0279241,97 58.5094932,97 L54,97 L54,110 L69.9954056,110 C74.9685058,110 79,114.028344 79,119 L79,128 L0,128 L0,112 L0,112 Z" id="Rectangle-2849-Copy-13" fill-opacity="0.0647078804" fill="#272C31" sketch:type="MSShapeGroup"></path>
                <path d="M92,121 C92,117.134007 95.1304531,114 98.9933547,114 L113.006645,114 C116.868968,114 120,117.141873 120,121 L120,128 L108,128 L92,128 L92,121 Z" id="Rectangle-2849-Copy-17" fill-opacity="0.0647078804" fill="#272C31" sketch:type="MSShapeGroup"></path>
            </g>
        </g>
    </g>
</svg>