<?xml version="1.0" encoding="UTF-8" standalone="no"?>
<svg width="128px" height="128px" viewBox="0 0 128 128" version="1.1" xmlns="http://www.w3.org/2000/svg" xmlns:xlink="http://www.w3.org/1999/xlink" xmlns:sketch="http://www.bohemiancoding.com/sketch/ns">
    <!-- Generator: Sketch 3.3.3 (12081) - http://www.bohemiancoding.com/sketch -->
    <title></title>
    <desc>Created with Sketch.</desc>
    <defs>
        <linearGradient x1="50%" y1="0%" x2="50%" y2="100%" id="linearGradient-1">
            <stop stop-color="#27272D" offset="0%"></stop>
            <stop stop-color="#253437" offset="100%"></stop>
        </linearGradient>
    </defs>
    <g id="Tileset" stroke="none" stroke-width="1" fill="none" fill-rule="evenodd" sketch:type="MSPage">
        <g id="objects" sketch:type="MSArtboardGroup" transform="translate(-640.000000, -256.000000)">
            <g id="Objects-Door-B-01" sketch:type="MSLayerGroup" transform="translate(640.000000, 256.000000)">
                <rect id="Rectangle-3306-Copy-5" sketch:type="MSShapeGroup" x="0" y="0" width="128" height="128"></rect>
                <path d="M28,50.000527 C28,40.0591104 36.0497367,32 46.006097,32 L81.993903,32 C91.9383958,32 100,40.0609338 100,50.000527 L100,128 L28,128 L28,50.000527 Z" id="Rectangle-2849" fill-opacity="0.06" fill="#272C31" sketch:type="MSShapeGroup"></path>
                <path d="M36,50.0090425 C36,44.481201 40.4762784,40 45.9955317,40 L82.0044683,40 C87.524848,40 92,44.4849157 92,50.0090425 L92,128 L36,128 L36,50.0090425 Z" id="Rectangle-2849-Copy-2" fill-opacity="0.2" fill="url(#linearGradient-1)" sketch:type="MSShapeGroup"></path>
                <path d="M40.0031874,50.0073625 C39.9694973,46.6895878 42.6289596,44 45.9436849,44 L81.9985013,44 C85.3130375,44 88,46.6879063 88,50.0073625 L88,128 L40.7951578,128 L40.0031874,50.0073625 Z" id="Rectangle-2849-Copy-7" fill="url(#linearGradient-1)" sketch:type="MSShapeGroup"></path>
            </g>
        </g>
    </g>
</svg>