<?xml version="1.0" encoding="UTF-8" standalone="no"?>
<svg width="128px" height="128px" viewBox="0 0 128 128" version="1.1" xmlns="http://www.w3.org/2000/svg" xmlns:xlink="http://www.w3.org/1999/xlink" xmlns:sketch="http://www.bohemiancoding.com/sketch/ns">
    <!-- Generator: Sketch 3.4.2 (15857) - http://www.bohemiancoding.com/sketch -->
    <title></title>
    <desc>Created with Sketch.</desc>
    <defs></defs>
    <g id="Tileset" stroke="none" stroke-width="1" fill="none" fill-rule="evenodd" sketch:type="MSPage">
        <g id="Objects" sketch:type="MSArtboardGroup" transform="translate(-1280.000000, -512.000000)">
            <g id="Objects-Window-C-02" sketch:type="MSLayerGroup" transform="translate(1280.000000, 512.000000)">
                <g id="Oval-424-+-Oval-424" transform="translate(42.000000, 30.000000)" sketch:type="MSShapeGroup">
                    <path d="M0,66 L44,66 C44,66 43.9999995,33.2632446 43.9999995,21.4285714 C43.9999995,9.59389822 34.1502641,0 21.9999998,0 C9.8497354,0 6.21369616e-14,9.59389822 6.21369616e-14,21.4285714 C6.21369616e-14,29.5445391 0,66 0,66 Z" id="Oval-424" fill="#936956"></path>
                    <path d="M8,58 L36,58 C36,58 35.9999997,29.1675193 35.9999997,21.6363636 C35.9999997,14.105208 29.7319863,8 21.9999999,8 C14.2680134,8 8,14.105208 8,21.6363636 C8,26.8010703 8,58 8,58 Z" id="Oval-424" fill="#272C31"></path>
                </g>
                <rect id="Rectangle-2460" fill="#936956" sketch:type="MSShapeGroup" x="48" y="60" width="33" height="8"></rect>
                <rect id="Rectangle-2460" fill="#936956" sketch:type="MSShapeGroup" x="60" y="38" width="8" height="50"></rect>
                <path d="M68,41.5383461 L68,38.5383461 C66.7325812,38.1880869 65.3899452,38 64,38 C62.6100548,38 61.2674188,38.1880869 60,38.5383461 L60,41.5383461 C61.2674188,41.1880869 62.6100548,41 64,41 C65.3899452,41 66.7325812,41.1880869 68,41.5383461 Z" id="Rectangle-2460" fill="#674C40" sketch:type="MSShapeGroup"></path>
            </g>
        </g>
    </g>
</svg>