<?xml version="1.0" encoding="UTF-8" standalone="no"?>
<svg width="130px" height="130px" viewBox="0 0 130 130" version="1.1" xmlns="http://www.w3.org/2000/svg" xmlns:xlink="http://www.w3.org/1999/xlink" xmlns:sketch="http://www.bohemiancoding.com/sketch/ns">
    <!-- Generator: Sketch 3.3.3 (12081) - http://www.bohemiancoding.com/sketch -->
    <title></title>
    <desc>Created with Sketch.</desc>
    <defs></defs>
    <g id="Tileset" stroke="none" stroke-width="1" fill="none" fill-rule="evenodd" sketch:type="MSPage">
        <g id="objects" sketch:type="MSArtboardGroup" transform="translate(-767.000000, -383.000000)">
            <g id="Objects-Window-B-03" sketch:type="MSLayerGroup" transform="translate(768.000000, 384.000000)">
                <rect id="Rectangle-3306-Copy" sketch:type="MSShapeGroup" x="0" y="0" width="128" height="128"></rect>
                <path d="M64,97 C77.8071187,97 89,85.8071187 89,72 C89,58.1928813 77.8071187,47 64,47 C50.1928813,47 39,58.1928813 39,72 C39,85.8071187 50.1928813,97 64,97 Z" id="Oval-424" fill="#936956" sketch:type="MSShapeGroup"></path>
                <path d="M64,90 C73.9411255,90 82,81.9411255 82,72 C82,62.0588745 73.9411255,54 64,54 C54.0588745,54 46,62.0588745 46,72 C46,81.9411255 54.0588745,90 64,90 Z" id="Oval-424-Copy-5" fill="#272C31" sketch:type="MSShapeGroup"></path>
                <path d="M68,68 L68,52 L60,52 L60,68 L43,68 L43,76 L60,76 L60,92 L68,92 L68,76 L83,76 L83,68 L68,68 Z" id="Rectangle-5351" fill="#936956" sketch:type="MSShapeGroup"></path>
                <path d="M81.5539672,68 C81.8458771,69.2864455 82,70.6252241 82,72 C82,73.0221366 81.9148036,74.0243746 81.7511247,75 L81.7511247,75 C81.3222605,72.4437099 80.3545968,70.0701206 78.9689019,68 L81.5539672,68 Z M68,54.4460328 C66.7135545,54.1541229 65.3747759,54 64,54 C62.6252241,54 61.2864455,54.1541229 60,54.4460328 L60,60.4460328 C61.2864455,60.1541229 62.6252241,60 64,60 C65.3747759,60 66.7135545,60.1541229 68,60.4460328 L68,54.4460328 Z M46.4460328,68 C46.1541229,69.2864455 46,70.6252241 46,72 C46,73.0221366 46.0851964,74.0243746 46.2488753,75 C46.6777395,72.4437099 47.6454032,70.0701206 49.0310981,68 L46.4460328,68 Z" id="Oval-424-Copy-6" fill="#674C40" sketch:type="MSShapeGroup"></path>
            </g>
        </g>
    </g>
</svg>