<?xml version="1.0" encoding="UTF-8" standalone="no"?>
<svg width="128px" height="128px" viewBox="0 0 128 128" version="1.1" xmlns="http://www.w3.org/2000/svg" xmlns:xlink="http://www.w3.org/1999/xlink" xmlns:sketch="http://www.bohemiancoding.com/sketch/ns">
    <!-- Generator: Sketch 3.3.3 (12081) - http://www.bohemiancoding.com/sketch -->
    <title></title>
    <desc>Created with Sketch.</desc>
    <defs></defs>
    <g id="Tileset" stroke="none" stroke-width="1" fill="none" fill-rule="evenodd" sketch:type="MSPage">
        <g id="objects" sketch:type="MSArtboardGroup" transform="translate(-384.000000, -128.000000)">
            <g id="Objects-Window-A-04" sketch:type="MSLayerGroup" transform="translate(384.000000, 128.000000)">
                <rect id="Rectangle-3306-Copy-3" sketch:type="MSShapeGroup" x="0" y="0" width="128" height="128"></rect>
                <rect id="Rectangle-2849-Copy-8" fill-opacity="0.0647078804" fill="#272C31" sketch:type="MSShapeGroup" x="14" y="30" width="100" height="68" rx="10"></rect>
                <g id="Rectangle-2944-+-Group-+-Group-Copy" transform="translate(22.000000, 38.000000)" sketch:type="MSShapeGroup">
                    <rect id="Rectangle-2944" opacity="0.2" fill="#272C31" x="7" y="0" width="67" height="52"></rect>
                    <rect id="Rectangle-2944-Copy" fill="#272C31" x="7" y="4" width="67" height="44"></rect>
                    <g id="Group">
                        <path d="M4,5.00957977 C4,2.24286526 6.23630996,3.07901852e-15 9.00197269,3.07901852e-15 L22.9980273,3.07901852e-15 C25.7605405,3.07901852e-15 28,2.234375 28,5.00957977 L28,46.9904202 C28,49.7571347 25.76369,52 22.9980273,52 L9.00197269,52 C6.23945945,52 4,49.765625 4,46.9904202 L4,5.00957977 Z" id="Rectangle-2934" fill="#855A46"></path>
                        <path d="M0,5.00957977 C0,2.24286526 2.23054698,3.07901852e-15 4.99214053,3.07901852e-15 L17.0078595,3.07901852e-15 C19.7649426,3.07901852e-15 22,2.234375 22,5.00957977 L22,46.9904202 C22,49.7571347 19.769453,52 17.0078595,52 L4.99214053,52 C2.23505745,52 0,49.765625 0,46.9904202 L0,5.00957977 Z" id="Rectangle-2934-Copy" fill="#936956"></path>
                        <path d="M4,14 C4,11.790861 5.78732987,10 7.99310226,10 L14.0068977,10 C16.2122272,10 18,11.7953562 18,14 C18,16.209139 16.2126701,18 14.0068977,18 L7.99310226,18 C5.78777278,18 4,16.2046438 4,14 Z M4,26 C4,23.790861 5.78732987,22 7.99310226,22 L14.0068977,22 C16.2122272,22 18,23.7953562 18,26 C18,28.209139 16.2126701,30 14.0068977,30 L7.99310226,30 C5.78777278,30 4,28.2046438 4,26 Z M4,38 C4,35.790861 5.78732987,34 7.99310226,34 L14.0068977,34 C16.2122272,34 18,35.7953562 18,38 C18,40.209139 16.2126701,42 14.0068977,42 L7.99310226,42 C5.78777278,42 4,40.2046438 4,38 Z" id="Rectangle-2938" fill="#674C40"></path>
                    </g>
                    <g id="Group-Copy" transform="translate(44.000000, 0.000000)">
                        <path d="M0,5.00957977 C0,2.24286526 2.23835942,3.07901852e-15 5.00564575,3.07901852e-15 L30.9943542,3.07901852e-15 C33.7588961,3.07901852e-15 36,2.234375 36,5.00957977 L36,46.9904202 C36,49.7571347 33.7616406,52 30.9943542,52 L5.00564575,52 C2.24110394,52 0,49.765625 0,46.9904202 L0,5.00957977 Z" id="Rectangle-2934" fill="#855A46"></path>
                        <path d="M4,5.00957977 C4,2.24286526 6.23835942,3.07901852e-15 9.00564575,3.07901852e-15 L34.9943542,3.07901852e-15 C37.7588961,3.07901852e-15 40,2.234375 40,5.00957977 L40,46.9904202 C40,49.7571347 37.7616406,52 34.9943542,52 L9.00564575,52 C6.24110394,52 4,49.765625 4,46.9904202 L4,5.00957977 Z" id="Rectangle-2934-Copy-2" fill="#936956"></path>
                        <path d="M12,14 C12,11.790861 13.7924676,10 15.99923,10 L28.00077,10 C30.2094838,10 32,11.7953562 32,14 C32,16.209139 30.2075324,18 28.00077,18 L15.99923,18 C13.7905162,18 12,16.2046438 12,14 Z M12,26 C12,23.790861 13.7924676,22 15.99923,22 L28.00077,22 C30.2094838,22 32,23.7953562 32,26 C32,28.209139 30.2075324,30 28.00077,30 L15.99923,30 C13.7905162,30 12,28.2046438 12,26 Z M12,38 C12,35.790861 13.7924676,34 15.99923,34 L28.00077,34 C30.2094838,34 32,35.7953562 32,38 C32,40.209139 30.2075324,42 28.00077,42 L15.99923,42 C13.7905162,42 12,40.2046438 12,38 Z" id="Rectangle-2938" fill="#674C40"></path>
                    </g>
                </g>
            </g>
        </g>
    </g>
</svg>