<?xml version="1.0" encoding="UTF-8" standalone="no"?>
<svg width="130px" height="130px" viewBox="0 0 130 130" version="1.1" xmlns="http://www.w3.org/2000/svg" xmlns:xlink="http://www.w3.org/1999/xlink" xmlns:sketch="http://www.bohemiancoding.com/sketch/ns">
    <!-- Generator: Sketch 3.3.3 (12081) - http://www.bohemiancoding.com/sketch -->
    <title></title>
    <desc>Created with Sketch.</desc>
    <defs>
        <filter x="-50%" y="-50%" width="200%" height="200%" filterUnits="objectBoundingBox" id="filter-1">
            <feOffset dx="0" dy="0" in="SourceAlpha" result="shadowOffsetOuter1"></feOffset>
            <feGaussianBlur stdDeviation="7.5" in="shadowOffsetOuter1" result="shadowBlurOuter1"></feGaussianBlur>
            <feColorMatrix values="0 0 0 0 1   0 0 0 0 1   0 0 0 0 1  0 0 0 0.7 0" in="shadowBlurOuter1" type="matrix" result="shadowMatrixOuter1"></feColorMatrix>
            <feMerge>
                <feMergeNode in="shadowMatrixOuter1"></feMergeNode>
                <feMergeNode in="SourceGraphic"></feMergeNode>
            </feMerge>
        </filter>
    </defs>
    <g id="Tileset" stroke="none" stroke-width="1" fill="none" fill-rule="evenodd" sketch:type="MSPage">
        <g id="objects" sketch:type="MSArtboardGroup" transform="translate(-511.000000, -383.000000)">
            <g id="Objects-Lamp-B" sketch:type="MSLayerGroup" transform="translate(512.000000, 384.000000)">
                <path d="M47.0500183,52 L80.9500189,52 L75.3823344,81.5725352 C74.9219673,84.0177565 72.5258496,86 70.0487015,86 L57.9513357,86 C55.4660186,86 53.0794441,84.025056 52.6177028,81.5725352 L47.0500183,52 Z" id="Rectangle-5139-Copy-4" opacity="0.795767257" fill="#FFFFFF" filter="url(#filter-1)" sketch:type="MSShapeGroup"></path>
                <rect id="Rectangle-5299-Copy" fill="#57686A" sketch:type="MSShapeGroup" x="54" y="18" width="20" height="14" rx="16"></rect>
                <rect id="Rectangle-5299" fill="#57686A" sketch:type="MSShapeGroup" x="60" y="20" width="8" height="28" rx="8"></rect>
                <path d="M75.7126303,80 L75.4054254,81.5837151 C74.9323055,84.0227619 72.5258496,86 70.0487015,86 L57.9513357,86 C55.4660186,86 53.0676398,84.0222886 52.5946118,81.5837151 L52.2874069,80 L75.7126303,80 Z" id="Rectangle-5139-Copy-5" fill="#57686A" sketch:type="MSShapeGroup"></path>
                <path d="M81.0312278,52 L81.7217905,49.0545982 C82.2887442,46.636416 81.0105987,43.6490631 78.8649657,42.3907186 L67.88499,35.9513167 C65.7303245,34.6876749 62.2605987,34.6929722 60.1149657,35.9513167 L49.13499,42.3907186 C46.9803245,43.6543604 45.710313,46.6325837 46.2781652,49.0545982 L46.9687278,52 L81.0312278,52 Z" id="Rectangle-5139-Copy-3" fill="#57686A" sketch:type="MSShapeGroup"></path>
            </g>
        </g>
    </g>
</svg>