<?xml version="1.0" encoding="UTF-8" standalone="no"?>
<svg width="128px" height="128px" viewBox="0 0 128 128" version="1.1" xmlns="http://www.w3.org/2000/svg" xmlns:xlink="http://www.w3.org/1999/xlink" xmlns:sketch="http://www.bohemiancoding.com/sketch/ns">
    <!-- Generator: Sketch 3.3.3 (12081) - http://www.bohemiancoding.com/sketch -->
    <title></title>
    <desc>Created with Sketch.</desc>
    <defs></defs>
    <g id="Tileset" stroke="none" stroke-width="1" fill="none" fill-rule="evenodd" sketch:type="MSPage">
        <g id="objects" sketch:type="MSArtboardGroup" transform="translate(-768.000000, -512.000000)">
            <g id="Objects-Pot-01" sketch:type="MSLayerGroup" transform="translate(768.000000, 512.000000)">
                <g id="Oval-432-+-Rectangle-3022-+-Oval-432-Copy" transform="translate(17.000000, 28.000000)" sketch:type="MSShapeGroup">
                    <circle id="Oval-432" fill="#916442" cx="47" cy="67" r="13"></circle>
                    <path d="M24.1354197,67.8542219 C23.3860168,64.6210244 25.4693796,62 28.7793038,62 L65.2205288,62 C68.5346781,62 70.6159321,64.6118939 69.8644129,67.8542219 L63.7704552,94.1457781 C63.0210523,97.3789756 59.7317525,100 56.4148801,100 L37.5849525,100 C34.2719834,100 30.9808966,97.3881061 30.2293773,94.1457781 L24.1354197,67.8542219 Z" id="Rectangle-3022" fill="#CC4B2B"></path>
                    <g id="Oval-432-Copy" fill="#9BCA6A">
                        <path d="M43.1875438,34.9670172 C42.0938428,32.6862046 40.8860862,30.3754469 39.5685672,28.0594115 C34.1076026,18.4597114 27.7811462,10.5627857 21.9352044,5.51559472 L21.9352044,5.51559472 C23.3190135,13.1774115 26.8942508,22.6864382 32.3552153,32.2861382 C34.9202126,36.7950861 37.6761505,40.9283765 40.4835528,44.5671586 L40.4835528,44.5671586 C36.6244832,41.3937266 32.1492535,38.2654673 27.2180044,35.3759587 C17.7593364,29.8335693 8.39000952,26.2050241 0.840754748,24.8005819 L0.840754748,24.8005819 C5.81379602,30.7336887 13.5947057,37.1544748 23.0533738,42.6968642 C27.4741739,45.2872707 31.875458,47.4596079 36.0805235,49.1821993 L36.0805235,49.1821993 C32.8044702,48.7688346 29.3284229,48.5465466 25.7274705,48.5465466 C16.0300672,48.5465466 7.23851431,50.1586476 0.819335938,52.7732733 L0.819335938,52.7732733 C7.23851431,55.387899 16.0300672,57 25.7274705,57 C33.6981784,57 41.0569032,55.9108815 46.9892906,54.0711397 C52.921678,55.9108815 60.2804028,57 68.2511107,57 C77.948514,57 86.7400669,55.387899 93.1592453,52.7732733 L93.1592453,52.7732733 C86.7400669,50.1586476 77.948514,48.5465466 68.2511107,48.5465466 C64.6614878,48.5465466 61.1959853,48.7674381 57.9289855,49.1783033 C62.131177,47.4563329 66.5291583,45.2853182 70.9466262,42.6968642 C80.4052943,37.1544748 88.186204,30.7336887 93.1592453,24.8005819 L93.1592453,24.8005819 C85.6099905,26.2050241 76.2406636,29.8335693 66.7819956,35.3759587 C61.8507465,38.2654673 57.3755168,41.3937266 53.5164472,44.5671586 C56.3238495,40.9283765 59.0797874,36.7950861 61.6447847,32.2861382 C67.1057492,22.6864382 70.6809865,13.1774115 72.0647956,5.51559472 L72.0647956,5.51559472 C66.2188538,10.5627857 59.8923974,18.4597114 54.4314328,28.0594115 C53.1694551,30.2778122 52.0081806,32.4913707 50.951382,34.6784097 C51.12929,32.4105447 51.2225138,30.0007082 51.2225138,27.4149775 C51.2225138,16.7415931 49.6340966,7.06522724 47.0578831,4.26099064e-10 C44.4816696,7.06522724 42.8932525,16.7415931 42.8932525,27.4149775 C42.8932525,30.1106864 42.9945751,32.6152203 43.1875438,34.9670172 Z"></path>
                    </g>
                </g>
                <rect id="Rectangle-3044" sketch:type="MSShapeGroup" x="0" y="0" width="128" height="128"></rect>
            </g>
        </g>
    </g>
</svg>