<?xml version="1.0" encoding="UTF-8" standalone="no"?>
<svg width="128px" height="128px" viewBox="0 0 128 128" version="1.1" xmlns="http://www.w3.org/2000/svg" xmlns:xlink="http://www.w3.org/1999/xlink" xmlns:sketch="http://www.bohemiancoding.com/sketch/ns">
    <!-- Generator: Sketch 3.3.3 (12081) - http://www.bohemiancoding.com/sketch -->
    <title></title>
    <desc>Created with Sketch.</desc>
    <defs></defs>
    <g id="Tileset" stroke="none" stroke-width="1" fill="none" fill-rule="evenodd" sketch:type="MSPage">
        <g id="objects" sketch:type="MSArtboardGroup" transform="translate(-256.000000, -256.000000)">
            <g id="Objects-Stairs-01" sketch:type="MSLayerGroup" transform="translate(256.000000, 256.000000)">
                <rect id="Rectangle-3295-Copy-2" sketch:type="MSShapeGroup" x="0" y="0" width="128" height="128"></rect>
                <path d="M36,0 L22,0 L22,121.004457 C22,124.867989 25.1418733,128 29,128 C32.8659932,128 36,124.867723 36,121.004457 L36,0 Z M106,0 L92,0 L92,121.004457 C92,124.867989 95.1418733,128 99,128 C102.865993,128 106,124.867723 106,121.004457 L106,0 Z" id="Rectangle-20-Copy-87" fill="#936956" sketch:type="MSShapeGroup"></path>
                <rect id="Rectangle-2856-Copy-11" fill="#AD765F" sketch:type="MSShapeGroup" x="27" y="14" width="74" height="14" rx="10"></rect>
                <rect id="Rectangle-2856-Copy-7" fill="#AD765F" sketch:type="MSShapeGroup" x="27" y="46" width="74" height="14" rx="10"></rect>
                <rect id="Rectangle-2856-Copy-10" fill="#AD765F" sketch:type="MSShapeGroup" x="27" y="78" width="74" height="14" rx="10"></rect>
            </g>
        </g>
    </g>
</svg>