<?xml version="1.0" encoding="UTF-8" standalone="no"?>
<svg width="128px" height="128px" viewBox="0 0 128 128" version="1.1" xmlns="http://www.w3.org/2000/svg" xmlns:xlink="http://www.w3.org/1999/xlink" xmlns:sketch="http://www.bohemiancoding.com/sketch/ns">
    <!-- Generator: Sketch 3.3.3 (12081) - http://www.bohemiancoding.com/sketch -->
    <title></title>
    <desc>Created with Sketch.</desc>
    <defs></defs>
    <g id="Tileset" stroke="none" stroke-width="1" fill="none" fill-rule="evenodd" sketch:type="MSPage">
        <g id="objects" sketch:type="MSArtboardGroup" transform="translate(-768.000000, -128.000000)">
            <g id="Objects-Window-B-02" sketch:type="MSLayerGroup" transform="translate(768.000000, 128.000000)">
                <rect id="Rectangle-3306" sketch:type="MSShapeGroup" x="0" y="0" width="128" height="128"></rect>
                <g id="Oval-424-+-Oval-424-Copy-+-Oval-424-Copy-2" transform="translate(39.000000, 47.000000)" sketch:type="MSShapeGroup">
                    <path d="M25,50 C38.8071187,50 50,38.8071187 50,25 C50,11.1928813 38.8071187,0 25,0 C11.1928813,0 0,11.1928813 0,25 C0,38.8071187 11.1928813,50 25,50 Z" id="Oval-424" fill="#936956"></path>
                    <path d="M25,43 C34.9411255,43 43,34.9411255 43,25 C43,15.0588745 34.9411255,7 25,7 C15.0588745,7 7,15.0588745 7,25 C7,34.9411255 15.0588745,43 25,43 Z" id="Oval-424-Copy" fill="#272C31"></path>
                    <path d="M26.9570721,7.1051641 C26.3142559,7.03566074 25.6612924,7 25,7 C15.0588745,7 7,15.0588745 7,25 C7,27.7843972 7.63221623,30.4211323 8.76093052,32.7744872 C18.9982441,28.5431074 26.3344907,18.7158003 26.9570721,7.1051641 Z" id="Oval-424-Copy-2" fill="#FFFFFF"></path>
                </g>
            </g>
        </g>
    </g>
</svg>