<?xml version="1.0" encoding="UTF-8" standalone="no"?>
<svg width="128px" height="128px" viewBox="0 0 128 128" version="1.1" xmlns="http://www.w3.org/2000/svg" xmlns:xlink="http://www.w3.org/1999/xlink" xmlns:sketch="http://www.bohemiancoding.com/sketch/ns">
    <!-- Generator: Sketch 3.3.3 (12081) - http://www.bohemiancoding.com/sketch -->
    <title></title>
    <desc>Created with Sketch.</desc>
    <defs></defs>
    <g id="Tileset" stroke="none" stroke-width="1" fill="none" fill-rule="evenodd" sketch:type="MSPage">
        <g id="objects" sketch:type="MSArtboardGroup" transform="translate(-384.000000, 0.000000)">
            <g id="Objects-Window-A-03" sketch:type="MSLayerGroup" transform="translate(384.000000, 0.000000)">
                <rect id="Rectangle-3306-Copy-2" sketch:type="MSShapeGroup" x="0" y="0" width="128" height="128"></rect>
                <rect id="Rectangle-2849-Copy-8" fill-opacity="0.0647078804" fill="#272C31" sketch:type="MSShapeGroup" x="14" y="30" width="100" height="68" rx="10"></rect>
                <g id="Rectangle-2944-+-Group-+-Group-Copy" transform="translate(22.000000, 38.000000)" sketch:type="MSShapeGroup">
                    <rect id="Rectangle-2944" fill="#272C31" x="7" y="4" width="60" height="44"></rect>
                    <rect id="Rectangle-2944-Copy-2" opacity="0.2" fill="#272C31" x="7" y="0" width="67" height="52"></rect>
                    <g id="Group">
                        <path d="M4,5.00957977 C4,2.24286526 6.23835942,3.07901852e-15 9.00564575,3.07901852e-15 L34.9943542,3.07901852e-15 C37.7588961,3.07901852e-15 40,2.234375 40,5.00957977 L40,46.9904202 C40,49.7571347 37.7616406,52 34.9943542,52 L9.00564575,52 C6.24110394,52 4,49.765625 4,46.9904202 L4,5.00957977 Z" id="Rectangle-2934" fill="#855A46"></path>
                        <path d="M0,5.00957977 C0,2.24286526 2.23835942,3.07901852e-15 5.00564575,3.07901852e-15 L30.9943542,3.07901852e-15 C33.7588961,3.07901852e-15 36,2.234375 36,5.00957977 L36,46.9904202 C36,49.7571347 33.7616406,52 30.9943542,52 L5.00564575,52 C2.24110394,52 0,49.765625 0,46.9904202 L0,5.00957977 Z" id="Rectangle-2934-Copy" fill="#936956"></path>
                        <path d="M8,14 C8,11.790861 9.79246765,10 11.99923,10 L24.00077,10 C26.2094838,10 28,11.7953562 28,14 C28,16.209139 26.2075324,18 24.00077,18 L11.99923,18 C9.79051625,18 8,16.2046438 8,14 Z M8,26 C8,23.790861 9.79246765,22 11.99923,22 L24.00077,22 C26.2094838,22 28,23.7953562 28,26 C28,28.209139 26.2075324,30 24.00077,30 L11.99923,30 C9.79051625,30 8,28.2046438 8,26 Z M8,38 C8,35.790861 9.79246765,34 11.99923,34 L24.00077,34 C26.2094838,34 28,35.7953562 28,38 C28,40.209139 26.2075324,42 24.00077,42 L11.99923,42 C9.79051625,42 8,40.2046438 8,38 Z" id="Rectangle-2938" fill="#674C40"></path>
                    </g>
                    <g id="Group-Copy" transform="translate(44.000000, 0.000000)">
                        <path d="M0,5.00957977 C0,2.24286526 2.23835942,3.07901852e-15 5.00564575,3.07901852e-15 L30.9943542,3.07901852e-15 C33.7588961,3.07901852e-15 36,2.234375 36,5.00957977 L36,46.9904202 C36,49.7571347 33.7616406,52 30.9943542,52 L5.00564575,52 C2.24110394,52 0,49.765625 0,46.9904202 L0,5.00957977 Z" id="Rectangle-2934" fill="#855A46"></path>
                        <path d="M4,5.00957977 C4,2.24286526 6.23835942,3.07901852e-15 9.00564575,3.07901852e-15 L34.9943542,3.07901852e-15 C37.7588961,3.07901852e-15 40,2.234375 40,5.00957977 L40,46.9904202 C40,49.7571347 37.7616406,52 34.9943542,52 L9.00564575,52 C6.24110394,52 4,49.765625 4,46.9904202 L4,5.00957977 Z" id="Rectangle-2934-Copy-2" fill="#936956"></path>
                        <path d="M12,14 C12,11.790861 13.7924676,10 15.99923,10 L28.00077,10 C30.2094838,10 32,11.7953562 32,14 C32,16.209139 30.2075324,18 28.00077,18 L15.99923,18 C13.7905162,18 12,16.2046438 12,14 Z M12,26 C12,23.790861 13.7924676,22 15.99923,22 L28.00077,22 C30.2094838,22 32,23.7953562 32,26 C32,28.209139 30.2075324,30 28.00077,30 L15.99923,30 C13.7905162,30 12,28.2046438 12,26 Z M12,38 C12,35.790861 13.7924676,34 15.99923,34 L28.00077,34 C30.2094838,34 32,35.7953562 32,38 C32,40.209139 30.2075324,42 28.00077,42 L15.99923,42 C13.7905162,42 12,40.2046438 12,38 Z" id="Rectangle-2938" fill="#674C40"></path>
                    </g>
                </g>
            </g>
        </g>
    </g>
</svg>