<?xml version="1.0" encoding="UTF-8" standalone="no"?>
<svg width="128px" height="128px" viewBox="0 0 128 128" version="1.1" xmlns="http://www.w3.org/2000/svg" xmlns:xlink="http://www.w3.org/1999/xlink" xmlns:sketch="http://www.bohemiancoding.com/sketch/ns">
    <!-- Generator: Sketch 3.3.3 (12081) - http://www.bohemiancoding.com/sketch -->
    <title></title>
    <desc>Created with Sketch.</desc>
    <defs></defs>
    <g id="Tileset" stroke="none" stroke-width="1" fill="none" fill-rule="evenodd" sketch:type="MSPage">
        <g id="objects" sketch:type="MSArtboardGroup" transform="translate(-768.000000, 0.000000)">
            <g id="Objects-Door-A-04" sketch:type="MSLayerGroup" transform="translate(768.000000, 0.000000)">
                <rect id="Rectangle-3306-Copy-6" sketch:type="MSShapeGroup" x="0" y="0" width="128" height="128"></rect>
                <path d="M22,39.9964585 C22,30.0572889 30.0542731,22 39.9943315,22 L88.0056685,22 C97.9436634,22 106,30.0542305 106,39.9964585 L106,128 L66,128 L22,128 L22,39.9964585 Z" id="Rectangle-2849-Copy" fill-opacity="0.06" fill="#272C30" sketch:type="MSShapeGroup"></path>
                <path d="M30,37.9989642 C30,33.5812582 33.5840639,30 38.0004247,30 L89.9995753,30 C94.4180878,30 98,33.5748784 98,37.9989642 L98,128 L66,128 L30,128 L30,37.9989642 Z" id="Rectangle-2849-Copy-3" fill="#936956" sketch:type="MSShapeGroup"></path>
                <path d="M80,58.9950291 C80,56.2363507 82.2433178,54 84.9900998,54 L98,54 L98,68 L84.9900998,68 C82.2341438,68 80,65.7661779 80,63.0049709 L80,58.9950291 Z M80,104.995029 C80,102.236351 82.2433178,100 84.9900998,100 L98,100 L98,114 L84.9900998,114 C82.2341438,114 80,111.766178 80,109.004971 L80,104.995029 Z" id="Rectangle-2883-Copy-3" fill="#8DA1A3" sketch:type="MSShapeGroup"></path>
            </g>
        </g>
    </g>
</svg>