<?xml version="1.0" encoding="UTF-8" standalone="no"?>
<svg width="193px" height="213px" viewBox="0 0 193 213" version="1.1" xmlns="http://www.w3.org/2000/svg" xmlns:xlink="http://www.w3.org/1999/xlink" xmlns:sketch="http://www.bohemiancoding.com/sketch/ns">
    <!-- Generator: Sketch 3.3.3 (12081) - http://www.bohemiancoding.com/sketch -->
    <title></title>
    <desc>Created with Sketch.</desc>
    <defs></defs>
    <g id="Tileset" stroke="none" stroke-width="1" fill="none" fill-rule="evenodd" sketch:type="MSPage">
        <g id="objects" sketch:type="MSArtboardGroup" transform="translate(-1087.000000, -299.000000)">
            <g id="Objects-Barrell-B-05" sketch:type="MSLayerGroup" transform="translate(1152.000000, 384.000000)">
                <g id="Objects-Barrell-B-Copy" sketch:type="MSShapeGroup">
                    <g transform="translate(-64.000000, -84.000000)">
                        <rect id="Path-Copy-5" fill="#8DA1A3" x="26" y="44" width="76" height="64" rx="8"></rect>
                        <rect id="Rectangle-5068" fill="#6D8183" x="26" y="52" width="76" height="68"></rect>
                        <rect id="Rectangle-5069" fill="#8DA1A3" x="24" y="68" width="80" height="10" rx="3"></rect>
                        <rect id="Rectangle-5069-Copy-2" fill="#8DA1A3" x="24" y="44" width="80" height="10" rx="3"></rect>
                        <rect id="Rectangle-5069-Copy-3" fill="#8DA1A3" x="24" y="118" width="80" height="10" rx="3"></rect>
                        <rect id="Rectangle-5069-Copy" fill="#8DA1A3" x="24" y="94" width="80" height="10" rx="3"></rect>
                    </g>
                </g>
                <g id="Group-Copy-4" transform="translate(4.000000, 44.000000)" sketch:type="MSShapeGroup">
                    <rect id="Path-Copy-5" fill="#8DA1A3" x="2" y="0" width="76" height="64" rx="8"></rect>
                    <rect id="Rectangle-5068" fill="#6D8183" x="2" y="8" width="76" height="68"></rect>
                    <rect id="Rectangle-5069" fill="#8DA1A3" x="0" y="24" width="80" height="10" rx="3"></rect>
                    <rect id="Rectangle-5069-Copy-2" fill="#8DA1A3" x="0" y="0" width="80" height="10" rx="3"></rect>
                    <rect id="Rectangle-5069-Copy-3" fill="#8DA1A3" x="0" y="74" width="80" height="10" rx="3"></rect>
                    <rect id="Rectangle-5069-Copy" fill="#8DA1A3" x="0" y="50" width="80" height="10" rx="3"></rect>
                </g>
            </g>
        </g>
    </g>
</svg>