<?xml version="1.0" encoding="UTF-8" standalone="no"?>
<svg width="129px" height="128px" viewBox="0 0 129 128" version="1.1" xmlns="http://www.w3.org/2000/svg" xmlns:xlink="http://www.w3.org/1999/xlink" xmlns:sketch="http://www.bohemiancoding.com/sketch/ns">
    <!-- Generator: Sketch 3.3.3 (12081) - http://www.bohemiancoding.com/sketch -->
    <title></title>
    <desc>Created with Sketch.</desc>
    <defs></defs>
    <g id="Tileset" stroke="none" stroke-width="1" fill="none" fill-rule="evenodd" sketch:type="MSPage">
        <g id="objects" sketch:type="MSArtboardGroup" transform="translate(0.000000, -256.000000)">
            <g id="Objects-Column-A-03" sketch:type="MSLayerGroup" transform="translate(64.500000, 320.000000) rotate(-180.000000) translate(-64.500000, -320.000000) translate(0.000000, 256.000000)">
                <rect id="Rectangle-920" sketch:type="MSShapeGroup" x="1" y="0" width="128" height="128"></rect>
                <path d="M35.1714286,110 C35.1714286,106.686292 37.8506678,104 41.1647277,104 L88.8352723,104 C92.14528,104 94.8285714,106.693034 94.8285714,110 C94.8285714,113.313708 92.1493322,116 88.8352723,116 L41.1647277,116 C37.85472,116 35.1714286,113.306966 35.1714286,110 Z M29,122 C29,118.686292 31.6910787,116 34.9994344,116 L95.0005656,116 C98.3139617,116 101,118.693034 101,122 C101,125.313708 98.3089213,128 95.0005656,128 L34.9994344,128 C31.6860383,128 29,125.306966 29,122 Z" id="Rectangle-20-Copy-72" fill="#FFFFFF" sketch:type="MSShapeGroup"></path>
                <rect id="Path" fill="#FFFFFF" sketch:type="MSShapeGroup" x="41" y="0" width="48" height="124"></rect>
            </g>
        </g>
    </g>
</svg>