<?xml version="1.0" encoding="UTF-8" standalone="no"?>
<svg width="128px" height="128px" viewBox="0 0 128 128" version="1.1" xmlns="http://www.w3.org/2000/svg" xmlns:xlink="http://www.w3.org/1999/xlink" xmlns:sketch="http://www.bohemiancoding.com/sketch/ns">
    <!-- Generator: Sketch 3.3.3 (12081) - http://www.bohemiancoding.com/sketch -->
    <title></title>
    <desc>Created with Sketch.</desc>
    <defs></defs>
    <g id="Tileset" stroke="none" stroke-width="1" fill="none" fill-rule="evenodd" sketch:type="MSPage">
        <g id="objects" sketch:type="MSArtboardGroup" transform="translate(-128.000000, -128.000000)">
            <g id="Objects-Sign-A-04" sketch:type="MSLayerGroup" transform="translate(128.000000, 128.000000)">
                <rect id="Rectangle-5308" sketch:type="MSShapeGroup" x="0" y="0" width="128" height="128"></rect>
                <rect id="Rectangle-4585-Copy" fill="#AD765F" sketch:type="MSShapeGroup" x="56" y="72" width="16" height="56"></rect>
                <rect id="Rectangle-4585-Copy-2" fill="#936956" sketch:type="MSShapeGroup" x="56" y="78" width="16" height="28"></rect>
                <rect id="Rectangle-5306" fill="#B9906C" sketch:type="MSShapeGroup" transform="translate(64.000000, 67.000000) scale(-1, 1) translate(-64.000000, -67.000000) " x="20" y="34" width="88" height="66" rx="10"></rect>
                <path d="M72.0339728,83.0520968 C69.8060711,84.6801788 68,83.7558048 68,81 L68,76 L46.0055203,76 C43.7933325,76 42,74.2082844 42,72.0052166 L42,61.9947834 C42,59.7885255 43.7870853,58 46.0055203,58 L68,58 L68,53 C68,50.2385763 69.807627,49.3209582 72.0339728,50.9479032 L89.9660272,64.0520968 C92.1939289,65.6801788 92.192373,68.3209582 89.9660272,69.9479032 L72.0339728,83.0520968 Z" id="Triangle-155" fill="#AD765F" sketch:type="MSShapeGroup"></path>
            </g>
        </g>
    </g>
</svg>