<?xml version="1.0" encoding="UTF-8" standalone="no"?>
<svg width="128px" height="128px" viewBox="0 0 128 128" version="1.1" xmlns="http://www.w3.org/2000/svg" xmlns:xlink="http://www.w3.org/1999/xlink" xmlns:sketch="http://www.bohemiancoding.com/sketch/ns">
    <!-- Generator: Sketch 3.3.3 (12081) - http://www.bohemiancoding.com/sketch -->
    <title></title>
    <desc>Created with Sketch.</desc>
    <defs></defs>
    <g id="Tileset" stroke="none" stroke-width="1" fill="none" fill-rule="evenodd" sketch:type="MSPage">
        <g id="objects" sketch:type="MSArtboardGroup" transform="translate(0.000000, -640.000000)">
            <g id="Object-Box-A-01" sketch:type="MSLayerGroup" transform="translate(0.000000, 640.000000)">
                <rect id="Rectangle-3298" sketch:type="MSShapeGroup" x="0" y="0" width="128" height="128"></rect>
                <rect id="Rectangle-3009" fill="#AD765F" sketch:type="MSShapeGroup" x="0" y="0" width="128" height="128" rx="8"></rect>
                <rect id="Rectangle-3009-Copy" fill="#936956" sketch:type="MSShapeGroup" x="16" y="16" width="96" height="96" rx="4"></rect>
                <rect id="Rectangle-3011" fill="#AD765F" sketch:type="MSShapeGroup" transform="translate(63.000000, 66.000000) scale(-1, 1) rotate(-45.000000) translate(-63.000000, -66.000000) " x="55" y="-11" width="16" height="154"></rect>
                <path d="M127.748848,32 L128,32 L128,7.99240541 C128,3.57766074 124.415156,0 119.993027,0 L8.00697327,0 C3.59075293,0 0,3.57832179 0,7.99240541 L0,32 L0.250731602,32 C0.0870423017,31.3631024 0,30.695511 0,30.0075946 L0,13.9924054 C0,9.57832179 3.59075293,6 8.00697327,6 L119.993027,6 C124.415156,6 128,9.57766074 128,13.9924054 L128,30.0075946 C128,30.6954872 127.912794,31.3630824 127.748848,32 Z" id="Rectangle-3009-Copy-3" fill="#B9906C" sketch:type="MSShapeGroup"></path>
                <path d="M127.748848,127.996203 L128,127.996203 L128,103.988608 C128,99.5738634 124.415156,95.9962027 119.993027,95.9962027 L8.00697327,95.9962027 C3.59075293,95.9962027 0,99.5745245 0,103.988608 L0,127.996203 L0.250731602,127.996203 C0.0870423017,127.359305 0,126.691714 0,126.003797 L0,109.988608 C0,105.574524 3.59075293,101.996203 8.00697327,101.996203 L119.993027,101.996203 C124.415156,101.996203 128,105.573863 128,109.988608 L128,126.003797 C128,126.69169 127.912794,127.359285 127.748848,127.996203 Z" id="Rectangle-3009-Copy-5" fill="#936956" sketch:type="MSShapeGroup" transform="translate(64.000000, 111.996203) scale(1, -1) translate(-64.000000, -111.996203) "></path>
            </g>
        </g>
    </g>
</svg>