<?xml version="1.0" encoding="UTF-8" standalone="no"?>
<svg width="128px" height="128px" viewBox="0 0 128 128" version="1.1" xmlns="http://www.w3.org/2000/svg" xmlns:xlink="http://www.w3.org/1999/xlink" xmlns:sketch="http://www.bohemiancoding.com/sketch/ns">
    <!-- Generator: Sketch 3.3.3 (12081) - http://www.bohemiancoding.com/sketch -->
    <title></title>
    <desc>Created with Sketch.</desc>
    <defs></defs>
    <g id="Tileset" stroke="none" stroke-width="1" fill="none" fill-rule="evenodd" sketch:type="MSPage">
        <g id="objects" sketch:type="MSArtboardGroup" transform="translate(-896.000000, -512.000000)">
            <g id="Objects-Pot-02" sketch:type="MSLayerGroup" transform="translate(896.000000, 512.000000)">
                <g id="Girasol-alto-Copy-2" transform="translate(44.000000, 24.000000)" sketch:type="MSShapeGroup">
                    <path d="M20,14 L20,96" id="Line" stroke="#9BCA6A" stroke-width="4" stroke-linecap="square"></path>
                    <polygon id="Star-1" fill="#FFCF62" points="20 28.3339041 17.3664866 31.7817809 15.9951879 27.6656192 12.3848417 30.07158 12.4243593 25.7331834 8.22841743 26.8365051 9.67446893 22.7460061 5.34762677 22.4271268 8.04351008 19.0277945 4.05464811 17.3212695 7.70822243 14.9814743 4.48959574 12.0722322 8.7049396 11.0455272 6.60533635 7.24882947 10.9256518 7.64647404 10.1725966 3.37375185 14.1297105 5.15265509 14.8048085 0.866924133 17.9699061 3.83431427 20 0 22.0300939 3.83431427 25.1951915 0.866924133 25.8702895 5.15265509 29.8274034 3.37375185 29.0743482 7.64647404 33.3946637 7.24882947 31.2950604 11.0455272 35.5104043 12.0722322 32.2917776 14.9814743 35.9453519 17.3212695 31.9564899 19.0277945 34.6523732 22.4271268 30.3255311 22.7460061 31.7715826 26.8365051 27.5756407 25.7331834 27.6151583 30.07158 24.0048121 27.6656192 22.6335134 31.7817809 "></polygon>
                    <ellipse id="Oval-236" fill="#D0011B" cx="20" cy="16" rx="8" ry="8"></ellipse>
                    <path d="M17.9737775,59.9737775 C18.2323384,55.3062312 16.578788,50.5525357 13.0131262,46.9868738 C9.44746432,43.421212 4.69376878,41.7676616 0.0262224878,42.0262225 C-0.232338446,46.6937688 1.42121201,51.4474643 4.98687384,55.0131262 C8.55253568,58.578788 13.3062312,60.2323384 17.9737775,59.9737775 L17.9737775,59.9737775 Z" id="Oval-113-Copy-19" fill="#9BCA6A"></path>
                    <path d="M32.3458628,44.2276969 C35.1554974,41.4180622 36.4508144,37.6646613 36.23495,33.9746486 C32.5449374,33.7587843 28.7915364,35.0541012 25.9819017,37.8637359 C23.172267,40.6733706 21.8769501,44.4267715 22.0928144,48.1167842 C25.7828271,48.3326486 29.5362281,47.0373316 32.3458628,44.2276969 Z" id="Oval-113-Copy-10" fill="#9BCA6A"></path>
                </g>
                <path d="M41.1354197,95.8542219 C40.3860168,92.6210244 42.4693796,90 45.7793038,90 L82.2205288,90 C85.5346781,90 87.6159321,92.6118939 86.8644129,95.8542219 L80.7704552,122.145778 C80.0210523,125.378976 76.7317525,128 73.4148801,128 L54.5849525,128 C51.2719834,128 47.9808966,125.388106 47.2293773,122.145778 L41.1354197,95.8542219 Z" id="Rectangle-3022" fill="#CC4B2B" sketch:type="MSShapeGroup"></path>
                <rect id="Rectangle-3044" sketch:type="MSShapeGroup" x="0" y="0" width="128" height="128"></rect>
            </g>
        </g>
    </g>
</svg>