<?xml version="1.0" encoding="UTF-8" standalone="no"?>
<svg width="128px" height="128px" viewBox="0 0 128 128" version="1.1" xmlns="http://www.w3.org/2000/svg" xmlns:xlink="http://www.w3.org/1999/xlink" xmlns:sketch="http://www.bohemiancoding.com/sketch/ns">
    <!-- Generator: Sketch 3.3.3 (12081) - http://www.bohemiancoding.com/sketch -->
    <title></title>
    <desc>Created with Sketch.</desc>
    <defs></defs>
    <g id="Tileset" stroke="none" stroke-width="1" fill="none" fill-rule="evenodd" sketch:type="MSPage">
        <g id="objects" sketch:type="MSArtboardGroup" transform="translate(0.000000, -128.000000)">
            <g id="Objects-Sign-A-03" sketch:type="MSLayerGroup" transform="translate(0.000000, 128.000000)">
                <rect id="Rectangle-5308" sketch:type="MSShapeGroup" x="0" y="0" width="128" height="128"></rect>
                <rect id="Rectangle-4585-Copy" fill="#AD765F" sketch:type="MSShapeGroup" x="56" y="72" width="16" height="56"></rect>
                <rect id="Rectangle-4585-Copy-2" fill="#936956" sketch:type="MSShapeGroup" x="56" y="78" width="16" height="28"></rect>
                <rect id="Rectangle-5306" fill="#B9906C" sketch:type="MSShapeGroup" x="20" y="34" width="88" height="66" rx="10"></rect>
                <path d="M66.3976027,83.0520968 C64.1697011,84.6801788 62.3636299,83.7558048 62.3636299,81 L62.3636299,76 L40.3691502,76 C38.1569624,76 36.3636299,74.2082844 36.3636299,72.0052166 L36.3636299,61.9947834 C36.3636299,59.7885255 38.1507152,58 40.3691502,58 L62.3636299,58 L62.3636299,53 C62.3636299,50.2385763 64.1712569,49.3209582 66.3976027,50.9479032 L84.3296572,64.0520968 C86.5575588,65.6801788 86.556003,68.3209582 84.3296572,69.9479032 L66.3976027,83.0520968 Z" id="Triangle-155" fill="#AD765F" sketch:type="MSShapeGroup" transform="translate(61.181815, 66.999624) scale(-1, 1) translate(-61.181815, -66.999624) "></path>
            </g>
        </g>
    </g>
</svg>