<?xml version="1.0" encoding="UTF-8" standalone="no"?>
<svg width="130px" height="130px" viewBox="0 0 130 130" version="1.1" xmlns="http://www.w3.org/2000/svg" xmlns:xlink="http://www.w3.org/1999/xlink" xmlns:sketch="http://www.bohemiancoding.com/sketch/ns">
    <!-- Generator: Sketch 3.3.3 (12081) - http://www.bohemiancoding.com/sketch -->
    <title></title>
    <desc>Created with Sketch.</desc>
    <defs></defs>
    <g id="Tileset" stroke="none" stroke-width="1" fill="none" fill-rule="evenodd" sketch:type="MSPage">
        <g id="objects" sketch:type="MSArtboardGroup" transform="translate(-511.000000, -895.000000)">
            <g id="Objects-Well" sketch:type="MSLayerGroup" transform="translate(512.000000, 896.000000)">
                <path d="M56.8553102,57.991155 C56.7316603,56.8914705 57.5210122,56 58.6410475,56 L81.3588579,56 C82.4687432,56 83.2684471,56.8896739 83.1445952,57.991155 L81.1186648,76.008845 C80.995015,77.1085295 79.9999741,78 78.9033271,78 L61.0965782,78 C59.9967309,78 59.0050924,77.1103261 58.8812406,76.008845 L56.8553102,57.991155 Z" id="Rectangle-5228" fill="#6D8183" sketch:type="MSShapeGroup"></path>
                <path d="M62,51.5 L62,51.5 L62,63 L58,59 L70,59 L82,59 L78,63 L78,51.5 C78,47.3576433 74.6397581,44 70.4920648,44 L69.5079352,44 C65.3585907,44 62,47.3570156 62,51.5 L62,51.5 Z M58,51.5 C58,45.1487254 63.1486021,40 69.5079352,40 L70.4920648,40 C76.8477219,40 82,45.1473289 82,51.5 L82,63 L70,63 L58,63 L58,51.5 L58,51.5 Z" id="Shape" fill="#6E8183" sketch:type="MSShapeGroup"></path>
                <path d="M40,20.9969961 L40,20.9969961 L40,80.0030039 C40,86.0799836 44.9248064,91 51.0069723,91 L76.9930277,91 C83.0760881,91 88,86.0780753 88,80.0030039 L88,20.9969961 C88,14.9200164 83.0751936,10 76.9930277,10 L51.0069723,10 C44.9239119,10 40,14.9219247 40,20.9969961 L40,20.9969961 Z M36,20.9969961 C36,12.7143838 42.7131738,6 51.0069723,6 L76.9930277,6 C85.2811496,6 92,12.7076958 92,20.9969961 L92,80.0030039 C92,88.2856162 85.2868262,95 76.9930277,95 L51.0069723,95 C42.7188504,95 36,88.2923042 36,80.0030039 L36,20.9969961 L36,20.9969961 Z" id="Shape" fill="#6E8183" sketch:type="MSShapeGroup"></path>
                <rect id="Rectangle-5224" fill="#FEFFD4" sketch:type="MSShapeGroup" x="60" y="2" width="4" height="12" rx="15"></rect>
                <rect id="Rectangle-5224-Copy" fill="#FEFFD4" sketch:type="MSShapeGroup" x="64" y="2" width="4" height="12" rx="15"></rect>
                <rect id="Rectangle-5224-Copy-3" fill="#FEFFD4" sketch:type="MSShapeGroup" x="68" y="2" width="4" height="44" rx="15"></rect>
                <path d="M30,85.004933 C30,81.1362153 33.1434025,78 37.0051913,78 L90.9948087,78 C94.863669,78 98,81.1277239 98,85.004933 L98,128 L65,128 L30,128 L30,85.004933 Z" id="Rectangle-5222" fill="#FAFFE5" sketch:type="MSShapeGroup"></path>
            </g>
        </g>
    </g>
</svg>