<?xml version="1.0" encoding="UTF-8" standalone="no"?>
<svg width="128px" height="128px" viewBox="0 0 128 128" version="1.1" xmlns="http://www.w3.org/2000/svg" xmlns:xlink="http://www.w3.org/1999/xlink" xmlns:sketch="http://www.bohemiancoding.com/sketch/ns">
    <!-- Generator: Sketch 3.3.3 (12081) - http://www.bohemiancoding.com/sketch -->
    <title></title>
    <desc>Created with Sketch.</desc>
    <defs></defs>
    <g id="Tileset" stroke="none" stroke-width="1" fill="none" fill-rule="evenodd" sketch:type="MSPage">
        <g id="objects" sketch:type="MSArtboardGroup" transform="translate(-256.000000, -512.000000)">
            <g id="Objects-Fence-B-03" sketch:type="MSLayerGroup" transform="translate(256.000000, 512.000000)">
                <rect id="Rectangle-3029" sketch:type="MSShapeGroup" x="0" y="0" width="128" height="128"></rect>
                <path d="M22,80 L42,80 L42,69.9922004 C42,66.6827995 44.6930342,64 48,64 C51.3137085,64 54,66.688786 54,69.9922004 L54,80 L74,80 L74,69.9922004 C74,66.6827995 76.6930342,64 80,64 C83.3137085,64 86,66.688786 86,69.9922004 L86,80 L106,80 L106,69.9922004 C106,66.6827995 108.693034,64 112,64 C115.313708,64 118,66.688786 118,69.9922004 L118,128 L106,128 L106,118 L106,118 L86,118 L86,128 L74,128 L74,118 L54,118 L54,118 L54,128 L42,128 L42,118 L22,118 L22,128 L10,128 L10,118 L0,118 L0,108 L10,108 L10,90 L0,90 L0,80 L10,80 L10,69.9922004 C10,66.6827995 12.6930342,64 16,64 C19.3137085,64 22,66.688786 22,69.9922004 L22,80 Z M22,90 L42,90 L42,108 L22,108 L22,90 Z M54,108 L74,108 L74,108 L74,90 L54,90 L54,108 L54,108 Z M106,108 L86,108 L86,90 L106,90 L106,108 Z" id="Rectangle-3029-Copy" fill="#AD765F" sketch:type="MSShapeGroup"></path>
            </g>
        </g>
    </g>
</svg>