<?xml version="1.0" encoding="UTF-8" standalone="no"?>
<svg width="128px" height="128px" viewBox="0 0 128 128" version="1.1" xmlns="http://www.w3.org/2000/svg" xmlns:xlink="http://www.w3.org/1999/xlink" xmlns:sketch="http://www.bohemiancoding.com/sketch/ns">
    <!-- Generator: Sketch 3.3.3 (12081) - http://www.bohemiancoding.com/sketch -->
    <title></title>
    <desc>Created with Sketch.</desc>
    <defs></defs>
    <g id="Tileset" stroke="none" stroke-width="1" fill="none" fill-rule="evenodd" sketch:type="MSPage">
        <g id="objects" sketch:type="MSArtboardGroup" transform="translate(-512.000000, 0.000000)">
            <g id="Objects-Door-A-02" sketch:type="MSLayerGroup" transform="translate(512.000000, 0.000000)">
                <rect id="Rectangle-3024" sketch:type="MSShapeGroup" x="0" y="0" width="128" height="128"></rect>
                <path d="M22,39.9964585 C22,30.0572889 30.0542731,22 39.9943315,22 L88.0056685,22 C97.9436634,22 106,30.0542305 106,39.9964585 L106,128 L22,128 L22,39.9964585 Z" id="Rectangle-2849-Copy-5" fill-opacity="0.0647078804" fill="#272C31" sketch:type="MSShapeGroup"></path>
                <path d="M30,40.0043648 C30,34.4791067 34.4748104,30 39.9970961,30 L88.0029039,30 C93.5241476,30 98,34.4816438 98,40.0043648 L98,128 L61,128 L30,128 L30,40.0043648 Z" id="Rectangle-2849-Copy-2" opacity="0.200000003" fill="#272C31" sketch:type="MSShapeGroup"></path>
                <rect id="Rectangle-2849-Copy-6" fill="#272C31" sketch:type="MSShapeGroup" x="34" y="34" width="60" height="94" rx="6"></rect>
                <path d="M68,40.0043648 C68,34.4791067 72.4676442,30 77.9900582,30 L86.0099418,30 C91.5272986,30 96,34.4816438 96,40.0043648 L96,128 L81.0666667,128 L68,128 L68,40.0043648 Z" id="Rectangle-2849-Copy-4" fill="#674C40" sketch:type="MSShapeGroup"></path>
                <path d="M78,40.0043648 C78,34.4791067 82.4759382,30 88,30 L88,30 C93.5228475,30 98,34.4816438 98,40.0043648 L98,128 L89,128 L78,128 L78,40.0043648 Z" id="Rectangle-2849-Copy-3" fill="#936956" sketch:type="MSShapeGroup"></path>
                <path d="M94,55.0033512 C94,53.3446462 95.3465171,52 97,52 L98.0020869,52 C99.1055038,52 100,52.8970601 100,54.0058587 L100,63.9941413 C100,65.1019465 99.1017394,66 98.0020869,66 L97,66 C95.3431458,66 94,64.6576211 94,62.9966488 L94,55.0033512 Z M94,103.003351 C94,101.344646 95.3465171,100 97,100 L98.0020869,100 C99.1055038,100 100,100.89706 100,102.005859 L100,111.994141 C100,113.101946 99.1017394,114 98.0020869,114 L97,114 C95.3431458,114 94,112.657621 94,110.996649 L94,103.003351 Z" id="Rectangle-2883-Copy-3" fill="#8DA1A3" sketch:type="MSShapeGroup"></path>
            </g>
        </g>
    </g>
</svg>