<?xml version="1.0" encoding="UTF-8" standalone="no"?>
<svg width="128px" height="128px" viewBox="0 0 128 128" version="1.1" xmlns="http://www.w3.org/2000/svg" xmlns:xlink="http://www.w3.org/1999/xlink" xmlns:sketch="http://www.bohemiancoding.com/sketch/ns">
    <!-- Generator: Sketch 3.3.3 (12081) - http://www.bohemiancoding.com/sketch -->
    <title></title>
    <desc>Created with Sketch.</desc>
    <defs></defs>
    <g id="Tileset" stroke="none" stroke-width="1" fill="none" fill-rule="evenodd" sketch:type="MSPage">
        <g id="objects" sketch:type="MSArtboardGroup" transform="translate(-512.000000, -128.000000)">
            <g id="Objects-Window-A-02" sketch:type="MSLayerGroup" transform="translate(512.000000, 128.000000)">
                <rect id="Rectangle-3306-Copy-4" sketch:type="MSShapeGroup" x="0" y="0" width="128" height="128"></rect>
                <rect id="Rectangle-2849-Copy-8" fill-opacity="0.0647078804" fill="#272C31" sketch:type="MSShapeGroup" x="14" y="30" width="100" height="68" rx="10"></rect>
                <rect id="Rectangle-2944" opacity="0.2" fill="#272C31" sketch:type="MSShapeGroup" x="22" y="38" width="84" height="52" rx="7"></rect>
                <rect id="Mask-Copy-5" fill="#272C31" sketch:type="MSShapeGroup" x="26" y="42" width="76" height="44" rx="4"></rect>
                <path d="M55,42 C55,55.6575455 46.4439933,67.3167285 34.39964,71.909889 L34.39964,71.909889 C37.2197053,76.0174444 39.1060136,80.8161947 39.752425,86 L30.0057184,86 C27.7934212,86 26,84.2069088 26,81.99819 L26,46.00181 C26,43.7916714 27.7851831,42 30.0057184,42 L55,42 Z" id="Oval-1149" fill="#FFFFFF" sketch:type="MSShapeGroup"></path>
                <path d="M73,42 C73,55.6575455 81.5560067,67.3167285 93.60036,71.909889 L93.60036,71.909889 C90.7802947,76.0174444 88.8939864,80.8161947 88.247575,86 L97.9942816,86 C100.214817,86 102,84.2083286 102,81.99819 L102,46.00181 C102,43.7930912 100.206579,42 97.9942816,42 L73,42 Z" id="Mask" fill="#FFFFFF" sketch:type="MSShapeGroup"></path>
            </g>
        </g>
    </g>
</svg>