<?xml version="1.0" encoding="UTF-8" standalone="no"?>
<svg width="128px" height="128px" viewBox="0 0 128 128" version="1.1" xmlns="http://www.w3.org/2000/svg" xmlns:xlink="http://www.w3.org/1999/xlink" xmlns:sketch="http://www.bohemiancoding.com/sketch/ns">
    <!-- Generator: Sketch 3.3.3 (12081) - http://www.bohemiancoding.com/sketch -->
    <title></title>
    <desc>Created with Sketch.</desc>
    <defs></defs>
    <g id="Tileset" stroke="none" stroke-width="1" fill="none" fill-rule="evenodd" sketch:type="MSPage">
        <g id="objects" sketch:type="MSArtboardGroup" transform="translate(-128.000000, 0.000000)">
            <g id="Objects-Sign-A-02" sketch:type="MSLayerGroup" transform="translate(128.000000, 0.000000)">
                <rect id="Rectangle-5308" sketch:type="MSShapeGroup" x="0" y="0" width="128" height="128"></rect>
                <rect id="Rectangle-4585-Copy" fill="#AD765F" sketch:type="MSShapeGroup" x="56" y="72" width="16" height="56"></rect>
                <rect id="Rectangle-4585-Copy-2" fill="#936956" sketch:type="MSShapeGroup" x="56" y="78" width="16" height="28"></rect>
                <rect id="Rectangle-5306" fill="#B9906C" sketch:type="MSShapeGroup" x="20" y="34" width="88" height="66" rx="10"></rect>
                <path d="M66.2165711,83.8710652 C63.9886695,85.4991472 62.1825984,84.5711044 62.1825984,81.8189117 L62.1825984,77.8189684 L45.1768004,77.8189684 C43.5231483,77.8189684 42.1825984,76.4756564 42.1825984,74.8247663 L42.1825984,60.8131705 C42.1825984,59.1595183 43.5259103,57.8189684 45.1768004,57.8189684 L62.1825984,57.8189684 L62.1825984,53.8190251 C62.1825984,51.05757 63.9902253,50.1399266 66.2165711,51.7668716 L84.1486256,64.8710652 C86.3765272,66.4991472 86.3749714,69.1399266 84.1486256,70.7668716 L66.2165711,83.8710652 Z" id="Triangle-155" fill="#AD765F" sketch:type="MSShapeGroup" transform="translate(64.000783, 67.818185) scale(-1, -1) rotate(-90.000000) translate(-64.000783, -67.818185) "></path>
            </g>
        </g>
    </g>
</svg>