<?xml version="1.0" encoding="UTF-8" standalone="no"?>
<svg width="128px" height="128px" viewBox="0 0 128 128" version="1.1" xmlns="http://www.w3.org/2000/svg" xmlns:xlink="http://www.w3.org/1999/xlink" xmlns:sketch="http://www.bohemiancoding.com/sketch/ns">
    <!-- Generator: Sketch 3.4.2 (15857) - http://www.bohemiancoding.com/sketch -->
    <title></title>
    <desc>Created with Sketch.</desc>
    <defs></defs>
    <g id="Tileset" stroke="none" stroke-width="1" fill="none" fill-rule="evenodd" sketch:type="MSPage">
        <g id="nature" sketch:type="MSArtboardGroup" transform="translate(-896.000000, -512.000000)" fill="#9BCA6A">
            <g id="Nature-Liana-04" sketch:type="MSLayerGroup" transform="translate(896.000000, 512.000000)">
                <path d="M21.0941696,21.494194 C20.8663794,25.6062672 22.3231449,29.7942371 25.4644661,32.9355583 C28.6057873,36.0768795 32.7937573,37.533645 36.9058304,37.3058548 C37.1336206,33.1937817 35.6768551,29.0058117 32.5355339,25.8644905 C29.3942127,22.7231693 25.2062427,21.2664038 21.0941696,21.494194 L21.0941696,21.494194 L21.0941696,21.494194 Z M20.9058304,21.494194 C16.7937573,21.2664038 12.6057873,22.7231693 9.46446609,25.8644905 C6.32314488,29.0058117 4.86637939,33.1937817 5.09416963,37.3058548 C9.20624274,37.533645 13.3942127,36.0768795 16.5355339,32.9355583 C19.6768551,29.7942371 21.1336206,25.6062672 20.9058304,21.494194 L20.9058304,21.494194 L20.9058304,21.494194 Z M25.4644661,18.9355583 C28.6057873,22.0768795 32.7937573,23.533645 36.9058304,23.3058548 C37.1336206,19.1937817 35.6768551,15.0058117 32.5355339,11.8644905 C29.3942127,8.7231693 25.2062427,7.26640381 21.0941696,7.49419404 C20.8663794,11.6062672 22.3231449,15.7942371 25.4644661,18.9355583 L25.4644661,18.9355583 Z M20.9058304,7.49419404 C16.7937573,7.26640381 12.6057873,8.72316929 9.46446609,11.8644905 C6.32314488,15.0058117 4.86637939,19.1937817 5.09416963,23.3058548 C9.20624274,23.533645 13.3942127,22.0768795 16.5355339,18.9355583 C19.6768551,15.7942371 21.1336206,11.6062672 20.9058304,7.49419404 L20.9058304,7.49419404 L20.9058304,7.49419404 Z M21.0941696,35.494194 C20.8663794,39.6062672 22.3231449,43.7942371 25.4644661,46.9355583 C28.6057873,50.0768795 32.7937573,51.533645 36.9058304,51.3058548 C37.1336206,47.1937817 35.6768551,43.0058117 32.5355339,39.8644905 C29.3942127,36.7231693 25.2062427,35.2664038 21.0941696,35.494194 L21.0941696,35.494194 L21.0941696,35.494194 Z M20.9058304,35.494194 C16.7937573,35.2664038 12.6057873,36.7231693 9.46446609,39.8644905 C6.32314488,43.0058117 4.86637939,47.1937817 5.09416963,51.3058548 C9.20624274,51.533645 13.3942127,50.0768795 16.5355339,46.9355583 C19.6768551,43.7942371 21.1336206,39.6062672 20.9058304,35.494194 L20.9058304,35.494194 L20.9058304,35.494194 Z M21.0941696,49.494194 C20.8663794,53.6062672 22.3231449,57.7942371 25.4644661,60.9355583 C28.6057873,64.0768795 32.7937573,65.533645 36.9058304,65.3058548 C37.1336206,61.1937817 35.6768551,57.0058117 32.5355339,53.8644905 C29.3942127,50.7231693 25.2062427,49.2664038 21.0941696,49.494194 L21.0941696,49.494194 L21.0941696,49.494194 Z M20.9058304,49.494194 C16.7937573,49.2664038 12.6057873,50.7231693 9.46446609,53.8644905 C6.32314488,57.0058117 4.86637939,61.1937817 5.09416963,65.3058548 C9.20624274,65.533645 13.3942127,64.0768795 16.5355339,60.9355583 C19.6768551,57.7942371 21.1336206,53.6062672 20.9058304,49.494194 L20.9058304,49.494194 L20.9058304,49.494194 Z M21.6119366,62.9764271 C21.4175055,66.486301 22.6609326,70.060957 25.3422179,72.7422424 C28.0235033,75.4235277 31.5981593,76.6669549 35.1080332,76.4725237 C35.3024643,72.9626498 34.0590372,69.3879938 31.3777519,66.7067085 C28.6964665,64.0254231 25.1218105,62.781996 21.6119366,62.9764271 L21.6119366,62.9764271 L21.6119366,62.9764271 Z M20.3880634,62.9764271 C16.8781895,62.781996 13.3035335,64.0254231 10.6222481,66.7067085 C7.94096277,69.3879938 6.69753565,72.9626498 6.89196678,76.4725237 C10.4018407,76.6669549 13.9764967,75.4235277 16.6577821,72.7422424 C19.3390674,70.060957 20.5824945,66.486301 20.3880634,62.9764271 L20.3880634,62.9764271 L20.3880634,62.9764271 Z M21,69.3375451 C18.2381279,71.8094876 16.5,75.4017753 16.5,79.4000244 C16.5,83.3982736 18.2381279,86.9905612 21,89.4625037 C23.7618721,86.9905612 25.5,83.3982736 25.5,79.4000244 C25.5,75.4017753 23.7618721,71.8094876 21,69.3375451 L21,69.3375451 Z M22.180205,2.55795385e-13 C22.9124205,1.79572218 24.0071742,3.47826643 25.4644661,4.93555832 C28.6057873,8.07687953 32.7937573,9.53364502 36.9058304,9.30585479 C37.0851744,6.06833406 36.220306,2.78376684 34.3112252,0 L22.180205,2.13162821e-13 L22.180205,2.55795385e-13 Z M7.68877483,0 C5.77969403,2.78376684 4.91482563,6.06833406 5.09416963,9.30585479 C9.20624274,9.53364502 13.3942127,8.07687953 16.5355339,4.93555832 C17.9928258,3.47826643 19.0875795,1.79572218 19.819795,2.55795385e-13 L7.68877483,2.13162821e-13 L7.68877483,0 Z" id="Oval-113" sketch:type="MSShapeGroup"></path>
                <path d="M64.0941696,7.49419404 C63.8663794,11.6062672 65.3231449,15.7942371 68.4644661,18.9355583 C71.6057873,22.0768795 75.7937573,23.533645 79.9058304,23.3058548 C80.1336206,19.1937817 78.6768551,15.0058117 75.5355339,11.8644905 C72.3942127,8.7231693 68.2062427,7.26640381 64.0941696,7.49419404 L64.0941696,7.49419404 Z M63.9058304,7.49419404 C59.7937573,7.26640381 55.6057873,8.72316929 52.4644661,11.8644905 C49.3231449,15.0058117 47.8663794,19.1937817 48.0941696,23.3058548 C52.2062427,23.533645 56.3942127,22.0768795 59.5355339,18.9355583 C62.6768551,15.7942371 64.1336206,11.6062672 63.9058304,7.49419404 L63.9058304,7.49419404 Z M64.0941696,21.494194 C63.8663794,25.6062672 65.3231449,29.7942371 68.4644661,32.9355583 C71.6057873,36.0768795 75.7937573,37.533645 79.9058304,37.3058548 C80.1336206,33.1937817 78.6768551,29.0058117 75.5355339,25.8644905 C72.3942127,22.7231693 68.2062427,21.2664038 64.0941696,21.494194 L64.0941696,21.494194 Z M63.9058304,21.494194 C59.7937573,21.2664038 55.6057873,22.7231693 52.4644661,25.8644905 C49.3231449,29.0058117 47.8663794,33.1937817 48.0941696,37.3058548 C52.2062427,37.533645 56.3942127,36.0768795 59.5355339,32.9355583 C62.6768551,29.7942371 64.1336206,25.6062672 63.9058304,21.494194 L63.9058304,21.494194 Z M64.6119366,34.9764271 C64.4175055,38.486301 65.6609326,42.060957 68.3422179,44.7422424 C71.0235033,47.4235277 74.5981593,48.6669549 78.1080332,48.4725237 C78.3024643,44.9626498 77.0590372,41.3879938 74.3777519,38.7067085 C71.6964665,36.0254231 68.1218105,34.781996 64.6119366,34.9764271 L64.6119366,34.9764271 Z M63.3880634,34.9764271 C59.8781895,34.781996 56.3035335,36.0254231 53.6222481,38.7067085 C50.9409628,41.3879938 49.6975357,44.9626498 49.8919668,48.4725237 C53.4018407,48.6669549 56.9764967,47.4235277 59.6577821,44.7422424 C62.3390674,42.060957 63.5824945,38.486301 63.3880634,34.9764271 L63.3880634,34.9764271 Z M64,41.3375451 C61.2381279,43.8094876 59.5,47.4017753 59.5,51.4000244 C59.5,55.3982736 61.2381279,58.9905612 64,61.4625037 C66.7618721,58.9905612 68.5,55.3982736 68.5,51.4000244 C68.5,47.4017753 66.7618721,43.8094876 64,41.3375451 L64,41.3375451 Z M65.180205,2.55018229e-13 C65.9124205,1.79572218 67.0071742,3.47826643 68.4644661,4.93555832 C71.6057873,8.07687953 75.7937573,9.53364502 79.9058304,9.30585479 C80.0851744,6.06833406 79.220306,2.78376684 77.3112252,0 L65.180205,2.0639046e-13 L65.180205,2.55018229e-13 Z M62.819795,2.54685162e-13 C62.0875795,1.79572218 60.9928258,3.47826643 59.5355339,4.93555832 C56.3942127,8.07687953 52.2062427,9.53364502 48.0941696,9.30585479 L48.0941696,9.30585479 C47.9148256,6.06833406 48.779694,2.78376684 50.6887748,0 L62.819795,2.06279438e-13 L62.819795,2.54685162e-13 Z" id="Oval-113-Copy-19" sketch:type="MSShapeGroup"></path>
            </g>
        </g>
    </g>
</svg>