<?xml version="1.0" encoding="UTF-8" standalone="no"?>
<svg width="128px" height="128px" viewBox="0 0 128 128" version="1.1" xmlns="http://www.w3.org/2000/svg" xmlns:xlink="http://www.w3.org/1999/xlink" xmlns:sketch="http://www.bohemiancoding.com/sketch/ns">
    <!-- Generator: Sketch 3.4.2 (15857) - http://www.bohemiancoding.com/sketch -->
    <title></title>
    <desc>Created with Sketch.</desc>
    <defs>
        <linearGradient x1="50%" y1="0%" x2="50%" y2="100%" id="linearGradient-1">
            <stop stop-color="#EDEAAA" offset="0%"></stop>
            <stop stop-color="#F3F5D9" offset="100%"></stop>
        </linearGradient>
    </defs>
    <g id="Tileset" stroke="none" stroke-width="1" fill="none" fill-rule="evenodd" sketch:type="MSPage">
        <g id="nature" sketch:type="MSArtboardGroup" transform="translate(-896.000000, -128.000000)">
            <g id="Nature-Fungus-A-03" sketch:type="MSLayerGroup" transform="translate(896.000000, 128.000000)">
                <rect id="Rectangle-943" sketch:type="MSShapeGroup" x="0" y="0" width="128" height="128"></rect>
                <g id="Arbol-chico-Copy-18" transform="translate(40.000000, 86.000000)" sketch:type="MSShapeGroup">
                    <rect id="Rectangle-1" fill="url(#linearGradient-1)" x="14" y="31" width="14" height="11"></rect>
                    <rect id="Rectangle-1-Copy-24" fill="#DFDD97" x="14" y="28" width="14" height="8"></rect>
                    <path d="M21,32.1278939 C32.5979797,32.1278939 42,34.4298265 42,22.5211866 C42,10.6125467 32.5979797,0.958686595 21,0.958686595 C9.40202025,0.958686595 0,10.6125467 0,22.5211866 C0,34.4298265 9.40202025,32.1278939 21,32.1278939 Z" id="Oval-113-Copy-4" fill="#26676E"></path>
                </g>
                <g id="Arbol-chico-Copy-12" transform="translate(8.000000, 37.000000)" sketch:type="MSShapeGroup">
                    <rect id="Rectangle-1" fill="url(#linearGradient-1)" x="22" y="42" width="16" height="49"></rect>
                    <rect id="Rectangle-1-Copy-23" fill="#DFDD97" x="22" y="41" width="16" height="8"></rect>
                    <path d="M30,43.6996785 C46.5685425,43.6996785 60,46.9023673 60,30.3338248 C60,13.7652823 46.5685425,0.333824828 30,0.333824828 C13.4314575,0.333824828 0,13.7652823 0,30.3338248 C0,46.9023673 13.4314575,43.6996785 30,43.6996785 Z" id="Oval-113-Copy-4" fill="#26676E"></path>
                </g>
            </g>
        </g>
    </g>
</svg>