<?xml version="1.0" encoding="UTF-8" standalone="no"?>
<svg width="128px" height="128px" viewBox="0 0 128 128" version="1.1" xmlns="http://www.w3.org/2000/svg" xmlns:xlink="http://www.w3.org/1999/xlink" xmlns:sketch="http://www.bohemiancoding.com/sketch/ns">
    <!-- Generator: Sketch 3.4.2 (15857) - http://www.bohemiancoding.com/sketch -->
    <title></title>
    <desc>Created with Sketch.</desc>
    <defs></defs>
    <g id="Tileset" stroke="none" stroke-width="1" fill="none" fill-rule="evenodd" sketch:type="MSPage">
        <g id="nature" sketch:type="MSArtboardGroup" transform="translate(-384.000000, 0.000000)">
            <g id="Nature-Tree-B-03" sketch:type="MSLayerGroup" transform="translate(384.000000, 0.000000)">
                <rect id="Rectangle-940" sketch:type="MSShapeGroup" x="0" y="0" width="128" height="128"></rect>
                <rect id="Rectangle-1-Copy-8" fill="#B9906C" sketch:type="MSShapeGroup" x="46" y="26" width="36" height="102"></rect>
                <g id="Oval-109-+-Rectangle-282-Copy-2" transform="translate(68.000000, 80.000000)" fill="#B9906C" sketch:type="MSShapeGroup">
                    <ellipse id="Oval-109" cx="18.9473684" cy="9" rx="5.05263158" ry="9"></ellipse>
                    <rect id="Rectangle-282-Copy" x="0" y="0" width="19.3729441" height="18"></rect>
                </g>
                <g id="Rectangle-282-+-Oval-109-Copy" transform="translate(30.000000, 50.000000)" sketch:type="MSShapeGroup">
                    <rect id="Rectangle-282" fill="#B9906C" x="6.8" y="0" width="18.4042969" height="18"></rect>
                    <ellipse id="Oval-109" fill="#AD765F" cx="6" cy="9" rx="6" ry="9"></ellipse>
                </g>
                <path d="M64,34 C73.9411255,34 82,29.9705627 82,25 C82,20.0294373 73.9411255,16 64,16 C54.0588745,16 46,20.0294373 46,25 C46,29.9705627 54.0588745,34 64,34 Z" id="Oval-109-Copy" fill="#AD765F" sketch:type="MSShapeGroup"></path>
            </g>
        </g>
    </g>
</svg>