<?xml version="1.0" encoding="UTF-8" standalone="no"?>
<svg width="128px" height="128px" viewBox="0 0 128 128" version="1.1" xmlns="http://www.w3.org/2000/svg" xmlns:xlink="http://www.w3.org/1999/xlink" xmlns:sketch="http://www.bohemiancoding.com/sketch/ns">
    <!-- Generator: Sketch 3.4.2 (15857) - http://www.bohemiancoding.com/sketch -->
    <title></title>
    <desc>Created with Sketch.</desc>
    <defs></defs>
    <g id="Tileset" stroke="none" stroke-width="1" fill="none" fill-rule="evenodd" sketch:type="MSPage">
        <g id="nature" sketch:type="MSArtboardGroup" transform="translate(-1408.000000, -768.000000)">
            <g id="Nature-Rock-A-04" sketch:type="MSLayerGroup" transform="translate(1408.000000, 768.000000)">
                <rect id="Mask" sketch:type="MSShapeGroup" x="0" y="0" width="128" height="128"></rect>
                <g id="Group" transform="translate(0.000000, 54.000000)" sketch:type="MSShapeGroup">
                    <path d="M0,0 L30.0076273,0 C35.5262624,0 40,4.47481037 40,9.99709612 L40,58.0029039 C40,63.5241476 35.5232812,68 30.0076273,68 L0,68 L0,5.32907052e-15 Z" id="Rectangle-20-Copy-26" fill="#5F7173"></path>
                    <path d="M-2.22044605e-15,20 L17.9911289,20 C23.5188758,20 28,24.476505 28,29.9988798 L28,74 L14,74 L0,74 L0,20 Z" id="Rectangle-20-Copy-16" fill="#6D8183"></path>
                    <path d="M8.8817842e-16,38 L98.0017542,38 C103.523633,38 108,42.4866356 108,48.0040955 L108,74 L54,74 L0,74 L0,38 Z" id="Rectangle-20-Copy-67" fill="#6D8183"></path>
                    <path d="M-8.8817842e-16,46 L5.9911289,46 C11.5188758,46 16,50.4676442 16,55.9900582 L16,74 L8,74 L0,74 L0,46 Z" id="Path-Copy-6" fill="#8DA1A3"></path>
                    <path d="M72,62.0021973 C72,56.4781363 76.4811691,52 81.9980749,52 L112.001925,52 C117.523709,52 122,56.4785457 122,62.0021973 L122,74 L72,74 L72,62.0021973 Z" id="Path-Copy-11" fill="#8DA1A3"></path>
                </g>
            </g>
        </g>
    </g>
</svg>