<?xml version="1.0" encoding="UTF-8" standalone="no"?>
<svg width="128px" height="128px" viewBox="0 0 128 128" version="1.1" xmlns="http://www.w3.org/2000/svg" xmlns:xlink="http://www.w3.org/1999/xlink" xmlns:sketch="http://www.bohemiancoding.com/sketch/ns">
    <!-- Generator: Sketch 3.4.2 (15857) - http://www.bohemiancoding.com/sketch -->
    <title></title>
    <desc>Created with Sketch.</desc>
    <defs></defs>
    <g id="Tileset" stroke="none" stroke-width="1" fill="none" fill-rule="evenodd" sketch:type="MSPage">
        <g id="nature" sketch:type="MSArtboardGroup" transform="translate(-1024.000000, -896.000000)">
            <g id="Nature-Grass-02" sketch:type="MSLayerGroup" transform="translate(1024.000000, 896.000000)">
                <rect id="Mask-Copy" sketch:type="MSShapeGroup" x="0" y="0" width="128" height="128"></rect>
                <path d="M48,92.9907535 C48,88.5755992 44.418278,85 40,85 C35.5907123,85 32,88.5775822 32,92.9907535 L32,97.004739 C32,92.5836436 28.418278,89 24,89 C19.5907123,89 16,92.5838437 16,97.004739 L16,107.999887 C16,103.577742 12.418278,100 8,100 C3.59071231,100 0,103.581671 0,107.999887 L0,128 L128,128 L128,110.999887 C128,106.577742 124.418278,103 120,103 C115.590712,103 112,106.581671 112,110.999887 L112,105.991652 C112,101.580076 108.418278,98 104,98 C99.5907123,98 96,101.577985 96,105.991652 L95.9999999,108.998855 C95.9993801,104.590091 92.4178957,101 88,101 C83.5913035,101 80.0009628,104.580762 80,108.998224 L80,96.0000405 C80,91.5889027 76.418278,88 72,88 C67.5907123,88 64,91.5817401 64,96.0000405 L64,105.004739 C64,100.583644 60.418278,97 56,97 C51.5907123,97 48,100.583844 48,105.004739 L48,92.9907535 Z" id="Path-Copy-3" fill="#9BCA6A" sketch:type="MSShapeGroup"></path>
                <path d="M48,110.990754 C48,106.575599 44.418278,103 40,103 C35.5907123,103 32,106.577582 32,110.990754 L32,114.004739 C32,109.583644 28.418278,106 24,106 C19.5907123,106 16,109.583844 16,114.004739 L16,122.999887 C16,118.577742 12.418278,115 8,115 C3.59071231,115 0,118.581671 0,122.999887 L0,128 L128,128 L128,122.999887 C128,118.577742 124.418278,115 120,115 C115.590712,115 112,118.581671 112,122.999887 L112,113.991652 C112,109.580076 108.418278,106 104,106 C99.5907123,106 96,109.577985 96,113.991652 L95.9999999,121.998855 C95.9993801,117.590091 92.4178957,114 88,114 C83.5913035,114 80.0009628,117.580762 80,121.998224 L80,110.00004 C80,105.588903 76.418278,102 72,102 C67.5907123,102 64,105.58174 64,110.00004 L64,118.004739 C64,113.583644 60.418278,110 56,110 C51.5907123,110 48,113.583844 48,118.004739 L48,110.990754 Z" id="Path-Copy-7" fill="#B8E986" sketch:type="MSShapeGroup"></path>
            </g>
        </g>
    </g>
</svg>