<?xml version="1.0" encoding="UTF-8" standalone="no"?>
<svg width="128px" height="133px" viewBox="0 0 128 133" version="1.1" xmlns="http://www.w3.org/2000/svg" xmlns:xlink="http://www.w3.org/1999/xlink" xmlns:sketch="http://www.bohemiancoding.com/sketch/ns">
    <!-- Generator: Sketch 3.4.2 (15857) - http://www.bohemiancoding.com/sketch -->
    <title></title>
    <desc>Created with Sketch.</desc>
    <defs></defs>
    <g id="Tileset" stroke="none" stroke-width="1" fill="none" fill-rule="evenodd" sketch:type="MSPage">
        <g id="nature" sketch:type="MSArtboardGroup" transform="translate(-1408.000000, -896.000000)">
            <g id="Nature-Crops-B" sketch:type="MSLayerGroup" transform="translate(1408.000000, 896.000000)">
                <g id="Trigo-+-Trigo-Copy-+-Trigo-Copy-3-Mask" sketch:type="MSShapeGroup">
                    <rect id="Mask" x="0" y="0" width="128" height="128"></rect>
                    <g id="Trigo" transform="translate(2.000000, 59.000000)" fill="#9BCA6A">
                        <path d="M12,72.1805325 C15.0687468,69.4339298 17,65.4424991 17,61 C17,56.5575009 15.0687468,52.5660702 12,49.8194675 C8.9312532,52.5660702 7,56.5575009 7,61 C7,65.4424991 8.9312532,69.4339298 12,72.1805325 L12,72.1805325 Z" id="Oval-113" transform="translate(12.000000, 61.000000) rotate(-45.000000) translate(-12.000000, -61.000000) "></path>
                        <path d="M28,72.1805325 C31.0687468,69.4339298 33,65.4424991 33,61 C33,56.5575009 31.0687468,52.5660702 28,49.8194675 C24.9312532,52.5660702 23,56.5575009 23,61 C23,65.4424991 24.9312532,69.4339298 28,72.1805325 L28,72.1805325 Z" id="Oval-113-Copy" transform="translate(28.000000, 61.000000) rotate(-315.000000) translate(-28.000000, -61.000000) "></path>
                        <path d="M12,58.1805325 C15.0687468,55.4339298 17,51.4424991 17,47 C17,42.5575009 15.0687468,38.5660702 12,35.8194675 C8.9312532,38.5660702 7,42.5575009 7,47 C7,51.4424991 8.9312532,55.4339298 12,58.1805325 L12,58.1805325 Z" id="Oval-113-Copy-19" transform="translate(12.000000, 47.000000) rotate(-45.000000) translate(-12.000000, -47.000000) "></path>
                        <path d="M28,58.1805325 C31.0687468,55.4339298 33,51.4424991 33,47 C33,42.5575009 31.0687468,38.5660702 28,35.8194675 C24.9312532,38.5660702 23,42.5575009 23,47 C23,51.4424991 24.9312532,55.4339298 28,58.1805325 L28,58.1805325 Z" id="Oval-113-Copy-10" transform="translate(28.000000, 47.000000) rotate(-315.000000) translate(-28.000000, -47.000000) "></path>
                        <path d="M12,44.1805325 C15.0687468,41.4339298 17,37.4424991 17,33 C17,28.5575009 15.0687468,24.5660702 12,21.8194675 C8.9312532,24.5660702 7,28.5575009 7,33 C7,37.4424991 8.9312532,41.4339298 12,44.1805325 L12,44.1805325 Z" id="Oval-113-Copy-29" transform="translate(12.000000, 33.000000) rotate(-45.000000) translate(-12.000000, -33.000000) "></path>
                        <path d="M28,44.1805325 C31.0687468,41.4339298 33,37.4424991 33,33 C33,28.5575009 31.0687468,24.5660702 28,21.8194675 C24.9312532,24.5660702 23,28.5575009 23,33 C23,37.4424991 24.9312532,41.4339298 28,44.1805325 L28,44.1805325 Z" id="Oval-113-Copy-20" transform="translate(28.000000, 33.000000) rotate(-315.000000) translate(-28.000000, -33.000000) "></path>
                        <path d="M12.6400151,30.2187305 C15.2593543,27.8743584 16.9077821,24.4674591 16.9077821,20.675549 C16.9077821,16.8836389 15.2593543,13.4767397 12.6400151,11.1323676 C10.0206759,13.4767397 8.37224815,16.8836389 8.37224815,20.675549 C8.37224815,24.4674591 10.0206759,27.8743584 12.6400151,30.2187305 L12.6400151,30.2187305 Z" id="Oval-113-Copy-39" transform="translate(12.640015, 20.675549) rotate(-45.000000) translate(-12.640015, -20.675549) "></path>
                        <path d="M27.3599849,30.2187305 C29.9793241,27.8743584 31.6277519,24.4674591 31.6277519,20.675549 C31.6277519,16.8836389 29.9793241,13.4767397 27.3599849,11.1323676 C24.7406457,13.4767397 23.0922179,16.8836389 23.0922179,20.675549 C23.0922179,24.4674591 24.7406457,27.8743584 27.3599849,30.2187305 L27.3599849,30.2187305 Z" id="Oval-113-Copy-30" transform="translate(27.359985, 20.675549) rotate(-315.000000) translate(-27.359985, -20.675549) "></path>
                        <path d="M20,21.0624793 C22.7618721,18.5905368 24.5,14.9982492 24.5,11 C24.5,7.00175084 22.7618721,3.4094632 20,0.937520717 C17.2381279,3.4094632 15.5,7.00175084 15.5,11 C15.5,14.9982492 17.2381279,18.5905368 20,21.0624793 L20,21.0624793 Z" id="Oval-113-Copy-40"></path>
                    </g>
                    <g id="Trigo-Copy" transform="translate(44.000000, 59.000000)" fill="#9BCA6A">
                        <path d="M12,72.1805325 C15.0687468,69.4339298 17,65.4424991 17,61 C17,56.5575009 15.0687468,52.5660702 12,49.8194675 C8.9312532,52.5660702 7,56.5575009 7,61 C7,65.4424991 8.9312532,69.4339298 12,72.1805325 L12,72.1805325 Z" id="Oval-113" transform="translate(12.000000, 61.000000) rotate(-45.000000) translate(-12.000000, -61.000000) "></path>
                        <path d="M28,72.1805325 C31.0687468,69.4339298 33,65.4424991 33,61 C33,56.5575009 31.0687468,52.5660702 28,49.8194675 C24.9312532,52.5660702 23,56.5575009 23,61 C23,65.4424991 24.9312532,69.4339298 28,72.1805325 L28,72.1805325 Z" id="Oval-113-Copy" transform="translate(28.000000, 61.000000) rotate(-315.000000) translate(-28.000000, -61.000000) "></path>
                        <path d="M12,58.1805325 C15.0687468,55.4339298 17,51.4424991 17,47 C17,42.5575009 15.0687468,38.5660702 12,35.8194675 C8.9312532,38.5660702 7,42.5575009 7,47 C7,51.4424991 8.9312532,55.4339298 12,58.1805325 L12,58.1805325 Z" id="Oval-113-Copy-19" transform="translate(12.000000, 47.000000) rotate(-45.000000) translate(-12.000000, -47.000000) "></path>
                        <path d="M28,58.1805325 C31.0687468,55.4339298 33,51.4424991 33,47 C33,42.5575009 31.0687468,38.5660702 28,35.8194675 C24.9312532,38.5660702 23,42.5575009 23,47 C23,51.4424991 24.9312532,55.4339298 28,58.1805325 L28,58.1805325 Z" id="Oval-113-Copy-10" transform="translate(28.000000, 47.000000) rotate(-315.000000) translate(-28.000000, -47.000000) "></path>
                        <path d="M12,44.1805325 C15.0687468,41.4339298 17,37.4424991 17,33 C17,28.5575009 15.0687468,24.5660702 12,21.8194675 C8.9312532,24.5660702 7,28.5575009 7,33 C7,37.4424991 8.9312532,41.4339298 12,44.1805325 L12,44.1805325 Z" id="Oval-113-Copy-29" transform="translate(12.000000, 33.000000) rotate(-45.000000) translate(-12.000000, -33.000000) "></path>
                        <path d="M28,44.1805325 C31.0687468,41.4339298 33,37.4424991 33,33 C33,28.5575009 31.0687468,24.5660702 28,21.8194675 C24.9312532,24.5660702 23,28.5575009 23,33 C23,37.4424991 24.9312532,41.4339298 28,44.1805325 L28,44.1805325 Z" id="Oval-113-Copy-20" transform="translate(28.000000, 33.000000) rotate(-315.000000) translate(-28.000000, -33.000000) "></path>
                        <path d="M12.6400151,30.2187305 C15.2593543,27.8743584 16.9077821,24.4674591 16.9077821,20.675549 C16.9077821,16.8836389 15.2593543,13.4767397 12.6400151,11.1323676 C10.0206759,13.4767397 8.37224815,16.8836389 8.37224815,20.675549 C8.37224815,24.4674591 10.0206759,27.8743584 12.6400151,30.2187305 L12.6400151,30.2187305 Z" id="Oval-113-Copy-39" transform="translate(12.640015, 20.675549) rotate(-45.000000) translate(-12.640015, -20.675549) "></path>
                        <path d="M27.3599849,30.2187305 C29.9793241,27.8743584 31.6277519,24.4674591 31.6277519,20.675549 C31.6277519,16.8836389 29.9793241,13.4767397 27.3599849,11.1323676 C24.7406457,13.4767397 23.0922179,16.8836389 23.0922179,20.675549 C23.0922179,24.4674591 24.7406457,27.8743584 27.3599849,30.2187305 L27.3599849,30.2187305 Z" id="Oval-113-Copy-30" transform="translate(27.359985, 20.675549) rotate(-315.000000) translate(-27.359985, -20.675549) "></path>
                        <path d="M20,21.0624793 C22.7618721,18.5905368 24.5,14.9982492 24.5,11 C24.5,7.00175084 22.7618721,3.4094632 20,0.937520717 C17.2381279,3.4094632 15.5,7.00175084 15.5,11 C15.5,14.9982492 17.2381279,18.5905368 20,21.0624793 L20,21.0624793 Z" id="Oval-113-Copy-40"></path>
                    </g>
                    <g id="Trigo-Copy-3" transform="translate(86.000000, 59.000000)" fill="#9BCA6A">
                        <path d="M12,72.1805325 C15.0687468,69.4339298 17,65.4424991 17,61 C17,56.5575009 15.0687468,52.5660702 12,49.8194675 C8.9312532,52.5660702 7,56.5575009 7,61 C7,65.4424991 8.9312532,69.4339298 12,72.1805325 L12,72.1805325 Z" id="Oval-113" transform="translate(12.000000, 61.000000) rotate(-45.000000) translate(-12.000000, -61.000000) "></path>
                        <path d="M28,72.1805325 C31.0687468,69.4339298 33,65.4424991 33,61 C33,56.5575009 31.0687468,52.5660702 28,49.8194675 C24.9312532,52.5660702 23,56.5575009 23,61 C23,65.4424991 24.9312532,69.4339298 28,72.1805325 L28,72.1805325 Z" id="Oval-113-Copy" transform="translate(28.000000, 61.000000) rotate(-315.000000) translate(-28.000000, -61.000000) "></path>
                        <path d="M12,58.1805325 C15.0687468,55.4339298 17,51.4424991 17,47 C17,42.5575009 15.0687468,38.5660702 12,35.8194675 C8.9312532,38.5660702 7,42.5575009 7,47 C7,51.4424991 8.9312532,55.4339298 12,58.1805325 L12,58.1805325 Z" id="Oval-113-Copy-19" transform="translate(12.000000, 47.000000) rotate(-45.000000) translate(-12.000000, -47.000000) "></path>
                        <path d="M28,58.1805325 C31.0687468,55.4339298 33,51.4424991 33,47 C33,42.5575009 31.0687468,38.5660702 28,35.8194675 C24.9312532,38.5660702 23,42.5575009 23,47 C23,51.4424991 24.9312532,55.4339298 28,58.1805325 L28,58.1805325 Z" id="Oval-113-Copy-10" transform="translate(28.000000, 47.000000) rotate(-315.000000) translate(-28.000000, -47.000000) "></path>
                        <path d="M12,44.1805325 C15.0687468,41.4339298 17,37.4424991 17,33 C17,28.5575009 15.0687468,24.5660702 12,21.8194675 C8.9312532,24.5660702 7,28.5575009 7,33 C7,37.4424991 8.9312532,41.4339298 12,44.1805325 L12,44.1805325 Z" id="Oval-113-Copy-29" transform="translate(12.000000, 33.000000) rotate(-45.000000) translate(-12.000000, -33.000000) "></path>
                        <path d="M28,44.1805325 C31.0687468,41.4339298 33,37.4424991 33,33 C33,28.5575009 31.0687468,24.5660702 28,21.8194675 C24.9312532,24.5660702 23,28.5575009 23,33 C23,37.4424991 24.9312532,41.4339298 28,44.1805325 L28,44.1805325 Z" id="Oval-113-Copy-20" transform="translate(28.000000, 33.000000) rotate(-315.000000) translate(-28.000000, -33.000000) "></path>
                        <path d="M12.6400151,30.2187305 C15.2593543,27.8743584 16.9077821,24.4674591 16.9077821,20.675549 C16.9077821,16.8836389 15.2593543,13.4767397 12.6400151,11.1323676 C10.0206759,13.4767397 8.37224815,16.8836389 8.37224815,20.675549 C8.37224815,24.4674591 10.0206759,27.8743584 12.6400151,30.2187305 L12.6400151,30.2187305 Z" id="Oval-113-Copy-39" transform="translate(12.640015, 20.675549) rotate(-45.000000) translate(-12.640015, -20.675549) "></path>
                        <path d="M27.3599849,30.2187305 C29.9793241,27.8743584 31.6277519,24.4674591 31.6277519,20.675549 C31.6277519,16.8836389 29.9793241,13.4767397 27.3599849,11.1323676 C24.7406457,13.4767397 23.0922179,16.8836389 23.0922179,20.675549 C23.0922179,24.4674591 24.7406457,27.8743584 27.3599849,30.2187305 L27.3599849,30.2187305 Z" id="Oval-113-Copy-30" transform="translate(27.359985, 20.675549) rotate(-315.000000) translate(-27.359985, -20.675549) "></path>
                        <path d="M20,21.0624793 C22.7618721,18.5905368 24.5,14.9982492 24.5,11 C24.5,7.00175084 22.7618721,3.4094632 20,0.937520717 C17.2381279,3.4094632 15.5,7.00175084 15.5,11 C15.5,14.9982492 17.2381279,18.5905368 20,21.0624793 L20,21.0624793 Z" id="Oval-113-Copy-40"></path>
                    </g>
                </g>
            </g>
        </g>
    </g>
</svg>