<?xml version="1.0" encoding="UTF-8" standalone="no"?>
<svg width="128px" height="128px" viewBox="0 0 128 128" version="1.1" xmlns="http://www.w3.org/2000/svg" xmlns:xlink="http://www.w3.org/1999/xlink" xmlns:sketch="http://www.bohemiancoding.com/sketch/ns">
    <!-- Generator: Sketch 3.4.2 (15857) - http://www.bohemiancoding.com/sketch -->
    <title></title>
    <desc>Created with Sketch.</desc>
    <defs>
        <linearGradient x1="50%" y1="0%" x2="50%" y2="100%" id="linearGradient-1">
            <stop stop-color="#EDEAAA" offset="0%"></stop>
            <stop stop-color="#F3F5D9" offset="100%"></stop>
        </linearGradient>
    </defs>
    <g id="Tileset" stroke="none" stroke-width="1" fill="none" fill-rule="evenodd" sketch:type="MSPage">
        <g id="nature" sketch:type="MSArtboardGroup" transform="translate(-1280.000000, -128.000000)">
            <g id="Nature-Fungus-A-06" sketch:type="MSLayerGroup" transform="translate(1280.000000, 128.000000)">
                <rect id="Rectangle-948" sketch:type="MSShapeGroup" x="0" y="0" width="128" height="128"></rect>
                <g id="Arbol-chico-Copy-11" transform="translate(44.000000, 64.000000)" sketch:type="MSShapeGroup">
                    <rect id="Rectangle-1" fill="url(#linearGradient-1)" x="16" y="32" width="12" height="32"></rect>
                    <rect id="Rectangle-1-Copy-39" fill="#DFDD97" x="16" y="31" width="12" height="6"></rect>
                    <path d="M22,32.7760239 C34.1502645,32.7760239 44,35.1258227 44,22.9695555 C44,10.8132883 34.1502645,0.958686595 22,0.958686595 C9.8497355,0.958686595 0,10.8132883 0,22.9695555 C0,35.1258227 9.8497355,32.7760239 22,32.7760239 Z" id="Oval-113-Copy-4" fill="#26676E"></path>
                </g>
                <g id="Arbol-chico-Copy-16" transform="translate(22.000000, 92.000000)" sketch:type="MSShapeGroup">
                    <rect id="Rectangle-1" fill="url(#linearGradient-1)" x="8" y="14" width="6" height="22"></rect>
                    <rect id="Rectangle-1-Copy-40" fill="#DFDD97" x="8" y="14" width="6" height="4"></rect>
                    <path d="M11,15.9086686 C17.0751322,15.9086686 22,17.083568 22,11.0054344 C22,4.92730083 17.0751322,0 11,0 C4.92486775,0 0,4.92730083 0,11.0054344 C0,17.083568 4.92486775,15.9086686 11,15.9086686 Z" id="Oval-113-Copy-4" fill="#26676E"></path>
                </g>
            </g>
        </g>
    </g>
</svg>