<?xml version="1.0" encoding="UTF-8" standalone="no"?>
<svg width="128px" height="128px" viewBox="0 0 128 128" version="1.1" xmlns="http://www.w3.org/2000/svg" xmlns:xlink="http://www.w3.org/1999/xlink" xmlns:sketch="http://www.bohemiancoding.com/sketch/ns">
    <!-- Generator: Sketch 3.4.2 (15857) - http://www.bohemiancoding.com/sketch -->
    <title></title>
    <desc>Created with Sketch.</desc>
    <defs></defs>
    <g id="Tileset" stroke="none" stroke-width="1" fill="none" fill-rule="evenodd" sketch:type="MSPage">
        <g id="nature" sketch:type="MSArtboardGroup" transform="translate(-256.000000, -512.000000)">
            <g id="Nature-Cactus-06" sketch:type="MSLayerGroup" transform="translate(256.000000, 512.000000)">
                <path d="M64,66 L64,28 L64.0987505,28 C65.1021993,17.8933546 73.6293038,10 84,10 C94.3706962,10 102.897801,17.8933546 103.90125,28 L104,28 L104,128 L64,128 L64,92 L56.9973052,92 C49.8190918,92 44,86.1812804 44,79 C44,71.8202983 49.8259318,66 56.9973052,66 L64,66 Z" id="Rectangle-1-Copy-8" fill="#8BB363" sketch:type="MSShapeGroup" transform="translate(74.000000, 69.000000) scale(-1, 1) translate(-74.000000, -69.000000) "></path>
                <g id="Group" transform="translate(52.480000, 36.934783)" fill="#B8E986" sketch:type="MSShapeGroup">
                    <path d="M0,64.1304348 L0,70.5434783 C0,71.9602087 1.14615104,73.1086957 2.56,73.1086957 C3.97384896,73.1086957 5.12,71.9602087 5.12,70.5434783 L5.12,64.1304348 C5.12,62.7137043 3.97384896,61.5652174 2.56,61.5652174 C1.14615104,61.5652174 0,62.7137043 0,64.1304348 L0,64.1304348 Z" id="Shape"></path>
                    <path d="M17.92,64.1304348 L17.92,70.5434783 C17.92,71.9602087 19.066151,73.1086957 20.48,73.1086957 C21.893849,73.1086957 23.04,71.9602087 23.04,70.5434783 L23.04,64.1304348 C23.04,62.7137043 21.893849,61.5652174 20.48,61.5652174 C19.066151,61.5652174 17.92,62.7137043 17.92,64.1304348 L17.92,64.1304348 Z" id="Shape"></path>
                    <path d="M8.96,2.56521739 L8.96,8.97826087 C8.96,10.3949913 10.106151,11.5434783 11.52,11.5434783 C12.933849,11.5434783 14.08,10.3949913 14.08,8.97826087 L14.08,2.56521739 C14.08,1.14848695 12.933849,0 11.52,0 C10.106151,0 8.96,1.14848695 8.96,2.56521739 L8.96,2.56521739 Z" id="Shape"></path>
                    <path d="M0,23.0869565 L0,29.5 C0,30.9167304 1.14615104,32.0652174 2.56,32.0652174 C3.97384896,32.0652174 5.12,30.9167304 5.12,29.5 L5.12,23.0869565 C5.12,21.6702261 3.97384896,20.5217391 2.56,20.5217391 C1.14615104,20.5217391 0,21.6702261 0,23.0869565 L0,23.0869565 Z" id="Shape"></path>
                    <path d="M17.92,23.0869565 L17.92,29.5 C17.92,30.9167304 19.066151,32.0652174 20.48,32.0652174 C21.893849,32.0652174 23.04,30.9167304 23.04,29.5 L23.04,23.0869565 C23.04,21.6702261 21.893849,20.5217391 20.48,20.5217391 C19.066151,20.5217391 17.92,21.6702261 17.92,23.0869565 L17.92,23.0869565 Z" id="Shape"></path>
                    <path d="M8.96,43.6086957 L8.96,50.0217391 C8.96,51.4384696 10.106151,52.5869565 11.52,52.5869565 C12.933849,52.5869565 14.08,51.4384696 14.08,50.0217391 L14.08,43.6086957 C14.08,42.1919652 12.933849,41.0434783 11.52,41.0434783 C10.106151,41.0434783 8.96,42.1919652 8.96,43.6086957 L8.96,43.6086957 Z" id="Shape"></path>
                </g>
                <circle id="Oval-451-Copy-2" fill="#FF84DE" sketch:type="MSShapeGroup" cx="97" cy="66" r="8"></circle>
                <rect id="Rectangle-922" sketch:type="MSShapeGroup" x="0" y="0" width="128" height="128"></rect>
            </g>
        </g>
    </g>
</svg>