<?xml version="1.0" encoding="UTF-8" standalone="no"?>
<svg width="128px" height="129px" viewBox="0 0 128 129" version="1.1" xmlns="http://www.w3.org/2000/svg" xmlns:xlink="http://www.w3.org/1999/xlink" xmlns:sketch="http://www.bohemiancoding.com/sketch/ns">
    <!-- Generator: Sketch 3.4.2 (15857) - http://www.bohemiancoding.com/sketch -->
    <title></title>
    <desc>Created with Sketch.</desc>
    <defs>
        <linearGradient x1="50%" y1="0%" x2="50%" y2="100%" id="linearGradient-1">
            <stop stop-color="#EDEAAA" offset="0%"></stop>
            <stop stop-color="#F3F5D9" offset="100%"></stop>
        </linearGradient>
    </defs>
    <g id="Tileset" stroke="none" stroke-width="1" fill="none" fill-rule="evenodd" sketch:type="MSPage">
        <g id="nature" sketch:type="MSArtboardGroup" transform="translate(-1152.000000, -128.000000)">
            <g id="Nature-Fungus-A-05" sketch:type="MSLayerGroup" transform="translate(1152.000000, 128.000000)">
                <rect id="Rectangle-947" sketch:type="MSShapeGroup" x="0" y="0" width="128" height="128"></rect>
                <g id="Arbol-chico-Copy-20" transform="translate(12.000000, 69.000000)" sketch:type="MSShapeGroup">
                    <rect id="Rectangle-1" fill="url(#linearGradient-1)" x="16" y="30" width="12" height="29"></rect>
                    <rect id="Rectangle-1-Copy-34" fill="#DFDD97" x="16" y="31" width="12" height="6"></rect>
                    <path d="M22,32.7760239 C34.1502645,32.7760239 44,35.1258227 44,22.9695555 C44,10.8132883 34.1502645,0.958686595 22,0.958686595 C9.8497355,0.958686595 0,10.8132883 0,22.9695555 C0,35.1258227 9.8497355,32.7760239 22,32.7760239 Z" id="Oval-113-Copy-4" fill="#26676E"></path>
                </g>
                <g id="Arbol-chico-Copy-10" transform="translate(73.000000, 71.000000)" sketch:type="MSShapeGroup">
                    <rect id="Rectangle-1" fill="url(#linearGradient-1)" x="18" y="34" width="14" height="23"></rect>
                    <rect id="Rectangle-1-Copy-30" fill="#DFDD97" x="18" y="32" width="14" height="8"></rect>
                    <path d="M25,36.0368765 C38.8071187,36.0368765 50,38.6905329 50,24.962312 C50,11.2340911 38.8071187,0.105169143 25,0.105169143 C11.1928813,0.105169143 0,11.2340911 0,24.962312 C0,38.6905329 11.1928813,36.0368765 25,36.0368765 Z" id="Oval-113-Copy-4" fill="#53C1C4"></path>
                    <path d="M17.756054,13.714358 C20.450529,13.0141682 22.1470973,10.6812426 21.5454453,8.50362287 C20.9437933,6.3260031 18.2717544,5.12830942 15.5772793,5.82849918 C12.8828043,6.52868893 11.186236,8.86161449 11.787888,11.0392343 C12.38954,13.216854 15.061579,14.4145477 17.756054,13.714358 Z M32.8083467,12.1666589 C35.5542804,12.5896538 38.015344,11.4892137 38.3052862,9.70875719 C38.5952283,7.92830067 36.6042537,6.14205035 33.85832,5.71905543 C31.1123863,5.29606052 28.6513226,6.39650058 28.3613805,8.1769571 C28.0714384,9.95741362 30.062413,11.7436639 32.8083467,12.1666589 Z M8.33333333,28.8285714 C10.1742825,28.8285714 11.6666667,26.9737511 11.6666667,24.6857143 C11.6666667,22.3976775 10.1742825,20.5428571 8.33333333,20.5428571 C6.49238417,20.5428571 5,22.3976775 5,24.6857143 C5,26.9737511 6.49238417,28.8285714 8.33333333,28.8285714 Z M43.0164501,20.5193971 C44.3670919,20.3035026 45.2307808,18.6551326 44.9455533,16.8376597 C44.6603257,15.0201869 43.3341917,13.7218512 41.9835499,13.9377457 C40.6329081,14.1536403 39.7692192,15.8020103 40.0544467,17.6194831 C40.3396743,19.436956 41.6658083,20.7352917 43.0164501,20.5193971 Z M26.6666667,28.8285714 C30.348565,28.8285714 33.3333333,25.8608589 33.3333333,22.2 C33.3333333,18.5391411 30.348565,15.5714286 26.6666667,15.5714286 C22.9847683,15.5714286 20,18.5391411 20,22.2 C20,25.8608589 22.9847683,28.8285714 26.6666667,28.8285714 Z" id="Oval-420" fill="#26676E"></path>
                </g>
                <g id="Arbol-chico-Copy-6" transform="translate(48.000000, 43.000000)" sketch:type="MSShapeGroup">
                    <rect id="Rectangle-1" fill="url(#linearGradient-1)" x="22" y="41" width="16" height="44"></rect>
                    <rect id="Rectangle-1-Copy-41" fill="#DFDD97" x="22" y="41" width="16" height="8"></rect>
                    <path d="M30,43.6996785 C46.5685425,43.6996785 60,46.9023673 60,30.3338248 C60,13.7652823 46.5685425,0.333824828 30,0.333824828 C13.4314575,0.333824828 0,13.7652823 0,30.3338248 C0,46.9023673 13.4314575,43.6996785 30,43.6996785 Z" id="Oval-113-Copy-4" fill="#26676E"></path>
                </g>
                <g id="Arbol-chico-Copy-13" transform="translate(52.000000, 100.000000)" sketch:type="MSShapeGroup">
                    <rect id="Rectangle-1" fill="url(#linearGradient-1)" x="8" y="14" width="6" height="14"></rect>
                    <rect id="Rectangle-1-Copy-35" fill="#DFDD97" x="8" y="14" width="6" height="4"></rect>
                    <path d="M11,15.9086686 C17.0751322,15.9086686 22,17.083568 22,11.0054344 C22,4.92730083 17.0751322,0 11,0 C4.92486775,0 0,4.92730083 0,11.0054344 C0,17.083568 4.92486775,15.9086686 11,15.9086686 Z" id="Oval-113-Copy-4" fill="#26676E"></path>
                </g>
            </g>
        </g>
    </g>
</svg>