<?xml version="1.0" encoding="UTF-8" standalone="no"?>
<svg width="128px" height="128px" viewBox="0 0 128 128" version="1.1" xmlns="http://www.w3.org/2000/svg" xmlns:xlink="http://www.w3.org/1999/xlink" xmlns:sketch="http://www.bohemiancoding.com/sketch/ns">
    <!-- Generator: Sketch 3.4.2 (15857) - http://www.bohemiancoding.com/sketch -->
    <title></title>
    <desc>Created with Sketch.</desc>
    <defs></defs>
    <g id="Tileset" stroke="none" stroke-width="1" fill="none" fill-rule="evenodd" sketch:type="MSPage">
        <g id="nature" sketch:type="MSArtboardGroup" transform="translate(-1664.000000, 0.000000)">
            <g id="Nature-Palm-07" sketch:type="MSLayerGroup" transform="translate(1664.000000, 0.000000)">
                <path d="M69.6502653,104 C63.5914068,96.0962766 54.0534193,91 43.3251326,91 C32.5968459,91 23.0588584,96.0962766 17,104 L69.6502653,104 L69.6502653,104 Z" id="Oval-231" fill="#9BCA6A" sketch:type="MSShapeGroup"></path>
                <path d="M110.650265,104 C104.591407,96.0962766 95.0534193,91 84.3251326,91 C73.5968459,91 64.0588584,96.0962766 58,104 L110.650265,104 L110.650265,104 Z" id="Oval-231" fill="#9BCA6A" sketch:type="MSShapeGroup"></path>
                <path d="M82.0482336,79.2917314 C71.3199469,79.2917314 61.7819594,84.3880081 55.723101,92.2917314 L108.373366,92.2917314 C102.314508,84.3880081 92.7765203,79.2917314 82.0482336,79.2917314 Z" id="Oval-231" fill="#9BCA6A" sketch:type="MSShapeGroup" transform="translate(82.048234, 85.791731) rotate(-30.000000) translate(-82.048234, -85.791731) "></path>
                <path d="M72.6502653,92 C66.5914068,84.0962766 57.0534193,79 46.3251326,79 C35.5968459,79 26.0588584,84.0962766 20,92 L72.6502653,92 L72.6502653,92 Z" id="Oval-231" fill="#9BCA6A" sketch:type="MSShapeGroup" transform="translate(46.325133, 85.500000) rotate(-330.000000) translate(-46.325133, -85.500000) "></path>
                <path d="M67.0482336,79.2917314 C56.3199469,79.2917314 46.7819594,84.3880081 40.723101,92.2917314 L93.3733663,92.2917314 C87.3145078,84.3880081 77.7765203,79.2917314 67.0482336,79.2917314 Z" id="Oval-231" fill="#9BCA6A" sketch:type="MSShapeGroup" transform="translate(67.048234, 85.791731) rotate(-60.000000) translate(-67.048234, -85.791731) "></path>
                <path d="M87.6502653,92 C81.5914068,84.0962766 72.0534193,79 61.3251326,79 C50.5968459,79 41.0588584,84.0962766 35,92 L87.6502653,92 L87.6502653,92 Z" id="Oval-231" fill="#9BCA6A" sketch:type="MSShapeGroup" transform="translate(61.325133, 85.500000) rotate(-300.000000) translate(-61.325133, -85.500000) "></path>
                <rect id="Rectangle-1-Copy-11" fill="#AD765F" sketch:type="MSShapeGroup" x="58" y="104" width="12" height="24"></rect>
                <rect id="Rectangle-1-Copy-13" fill="#936956" sketch:type="MSShapeGroup" x="58" y="104" width="12" height="8"></rect>
                <path d="M63.7845056,92.7144033 C53.0562189,92.7144033 43.5182314,97.8106799 37.459373,105.714403 L83.2520251,105.714403 C77.1931667,97.8106799 74.5127923,92.7144033 63.7845056,92.7144033 Z" id="Oval-231" fill="#9BCA6A" sketch:type="MSShapeGroup" transform="translate(60.355699, 99.214403) rotate(-30.000000) translate(-60.355699, -99.214403) "></path>
                <path d="M64.4455825,93.540856 C53.7172958,93.540856 53.1758064,98.6371326 47.116948,106.540856 L90.7707152,106.540856 C84.7118567,98.6371326 75.1738692,93.540856 64.4455825,93.540856 Z" id="Oval-231" fill="#9BCA6A" sketch:type="MSShapeGroup" transform="translate(68.943832, 100.040856) rotate(-330.000000) translate(-68.943832, -100.040856) "></path>
            </g>
        </g>
    </g>
</svg>