<?xml version="1.0" encoding="UTF-8" standalone="no"?>
<svg width="128px" height="128px" viewBox="0 0 128 128" version="1.1" xmlns="http://www.w3.org/2000/svg" xmlns:xlink="http://www.w3.org/1999/xlink" xmlns:sketch="http://www.bohemiancoding.com/sketch/ns">
    <!-- Generator: Sketch 3.4.2 (15857) - http://www.bohemiancoding.com/sketch -->
    <title></title>
    <desc>Created with Sketch.</desc>
    <defs>
        <rect id="path-1" x="0" y="0" width="128" height="128"></rect>
    </defs>
    <g id="Tileset" stroke="none" stroke-width="1" fill="none" fill-rule="evenodd" sketch:type="MSPage">
        <g id="nature" sketch:type="MSArtboardGroup" transform="translate(-640.000000, -512.000000)">
            <g id="Nature-Tree-E-01" sketch:type="MSLayerGroup" transform="translate(640.000000, 512.000000)">
                <g id="Triangle-13-+-Triangle-13-Copy-+-Triangle-13-Copy-2">
                    <mask id="mask-2" sketch:name="Mask" fill="white">
                        <use xlink:href="#path-1"></use>
                    </mask>
                    <use id="Mask" sketch:type="MSShapeGroup" xlink:href="#path-1"></use>
                    <g mask="url(#mask-2)" sketch:type="MSShapeGroup">
                        <g transform="translate(0.000000, -38.000000)">
                            <polygon id="Triangle-13" fill="#B8E986" points="64 -9.23705556e-14 128 140 0 140 "></polygon>
                            <path d="M93.0909091,63.6363636 L104.727273,89.0909091 L23.2727273,89.0909091 L34.9090909,63.6363636 L93.0909091,63.6363636 Z M81.4545455,38.1818182 L72.3176547,18.1948697 C67.7234043,8.144947 60.2760591,8.14612064 55.6823453,18.1948697 L46.5454545,38.1818182 L81.4545455,38.1818182 Z M116.363636,114.545455 L128,140 L0,140 L11.6363636,114.545455 L116.363636,114.545455 Z" id="Triangle-13-Copy" fill="#8BB363"></path>
                            <polygon id="Triangle-13-Copy-2" opacity="0.149999991" fill="#B8E986" points="64 0 128 140 64 140 "></polygon>
                        </g>
                    </g>
                </g>
                <rect id="Rectangle-1-Copy-10" fill="#B9906C" sketch:type="MSShapeGroup" x="46" y="104" width="36" height="24"></rect>
                <rect id="Rectangle-1-Copy-9" fill="#AD765F" sketch:type="MSShapeGroup" x="46" y="102" width="36" height="10"></rect>
            </g>
        </g>
    </g>
</svg>