<?xml version="1.0" encoding="UTF-8" standalone="no"?>
<svg width="128px" height="128px" viewBox="0 0 128 128" version="1.1" xmlns="http://www.w3.org/2000/svg" xmlns:xlink="http://www.w3.org/1999/xlink" xmlns:sketch="http://www.bohemiancoding.com/sketch/ns">
    <!-- Generator: Sketch 3.4.2 (15857) - http://www.bohemiancoding.com/sketch -->
    <title></title>
    <desc>Created with Sketch.</desc>
    <defs></defs>
    <g id="Tileset" stroke="none" stroke-width="1" fill="none" fill-rule="evenodd" sketch:type="MSPage">
        <g id="nature" sketch:type="MSArtboardGroup" transform="translate(-384.000000, -128.000000)">
            <g id="Nature-Tree-D-04" sketch:type="MSLayerGroup" transform="translate(384.000000, 128.000000)">
                <rect id="Rectangle-941" sketch:type="MSShapeGroup" x="0" y="0" width="128" height="128"></rect>
                <rect id="Rectangle-1" fill="#B9906C" sketch:type="MSShapeGroup" x="46" y="104" width="36" height="24"></rect>
                <rect id="Rectangle-1-Copy-4" fill="#AD765F" sketch:type="MSShapeGroup" x="46" y="104" width="36" height="10"></rect>
                <rect id="Rectangle-20-Copy-10" fill="#9BCA6A" sketch:type="MSShapeGroup" x="12" y="0" width="104" height="104" rx="10"></rect>
                <path d="M67,65 C70.3137085,65 73,62.3137085 73,59 C73,55.6862915 70.3137085,53 67,53 C63.6862915,53 61,55.6862915 61,59 C61,62.3137085 63.6862915,65 67,65 Z M28,80 C31.3137085,80 34,77.3137085 34,74 C34,70.6862915 31.3137085,68 28,68 C24.6862915,68 22,70.6862915 22,74 C22,77.3137085 24.6862915,80 28,80 Z M89,89 C92.3137085,89 95,86.3137085 95,83 C95,79.6862915 92.3137085,77 89,77 C85.6862915,77 83,79.6862915 83,83 C83,86.3137085 85.6862915,89 89,89 Z M100,52 C103.313708,52 106,49.3137085 106,46 C106,42.6862915 103.313708,40 100,40 C96.6862915,40 94,42.6862915 94,46 C94,49.3137085 96.6862915,52 100,52 Z M72,22 C75.3137085,22 78,19.3137085 78,16 C78,12.6862915 75.3137085,10 72,10 C68.6862915,10 66,12.6862915 66,16 C66,19.3137085 68.6862915,22 72,22 Z M39,41 C42.3137085,41 45,38.3137085 45,35 C45,31.6862915 42.3137085,29 39,29 C35.6862915,29 33,31.6862915 33,35 C33,38.3137085 35.6862915,41 39,41 Z" id="Oval-257-Copy-10" fill="#EFFF91" sketch:type="MSShapeGroup"></path>
            </g>
        </g>
    </g>
</svg>