<?xml version="1.0" encoding="UTF-8" standalone="no"?>
<svg width="128px" height="128px" viewBox="0 0 128 128" version="1.1" xmlns="http://www.w3.org/2000/svg" xmlns:xlink="http://www.w3.org/1999/xlink" xmlns:sketch="http://www.bohemiancoding.com/sketch/ns">
    <!-- Generator: Sketch 3.4.2 (15857) - http://www.bohemiancoding.com/sketch -->
    <title></title>
    <desc>Created with Sketch.</desc>
    <defs></defs>
    <g id="Tileset" stroke="none" stroke-width="1" fill="none" fill-rule="evenodd" sketch:type="MSPage">
        <g id="nature" sketch:type="MSArtboardGroup" transform="translate(-896.000000, 0.000000)">
            <g id="Nature-Tree-A-02" sketch:type="MSLayerGroup" transform="translate(896.000000, 0.000000)">
                <rect id="Rectangle-927" sketch:type="MSShapeGroup" x="0" y="0" width="128" height="128"></rect>
                <rect id="Rectangle-1-Copy-3" fill="#B9906C" sketch:type="MSShapeGroup" x="54" y="100" width="24" height="28"></rect>
                <path d="M54,104 L54,120 L78,120 L78,114 L91.9933138,114 C97.5251634,114 102,109.523349 102,104.00112 L102,69.9988798 C102,64.476505 97.519854,60 91.9933138,60 L70.0066862,60 C70.0044573,60 70.0022286,60.0000007 70,60.0000022 C70,54.476505 65.519854,50 59.9933138,50 L38.0066862,50 C32.4748366,50 28,54.476651 28,59.9988798 L28,94.0011202 C28,99.523495 32.480146,104 38.0066862,104 L54,104 Z" id="Rectangle-1-Copy-7" fill="#AD765F" sketch:type="MSShapeGroup"></path>
                <rect id="Rectangle-20-Copy-49" fill="#B8E986" sketch:type="MSShapeGroup" x="42" y="10" width="62" height="70" rx="10"></rect>
                <rect id="Rectangle-20-Copy-27" fill="#8BB363" sketch:type="MSShapeGroup" x="0" y="36" width="116" height="40" rx="10"></rect>
                <rect id="Rectangle-20-Copy-15" fill="#9BCA6A" sketch:type="MSShapeGroup" x="16" y="18" width="56" height="78" rx="10"></rect>
                <rect id="Rectangle-20-Copy-16" fill="#B8E986" sketch:type="MSShapeGroup" x="58" y="50" width="70" height="56" rx="10"></rect>
            </g>
        </g>
    </g>
</svg>