<?xml version="1.0" encoding="UTF-8" standalone="no"?>
<svg width="128px" height="128px" viewBox="0 0 128 128" version="1.1" xmlns="http://www.w3.org/2000/svg" xmlns:xlink="http://www.w3.org/1999/xlink" xmlns:sketch="http://www.bohemiancoding.com/sketch/ns">
    <!-- Generator: Sketch 3.4.2 (15857) - http://www.bohemiancoding.com/sketch -->
    <title></title>
    <desc>Created with Sketch.</desc>
    <defs></defs>
    <g id="Tileset" stroke="none" stroke-width="1" fill="none" fill-rule="evenodd" sketch:type="MSPage">
        <g id="nature" sketch:type="MSArtboardGroup" transform="translate(-256.000000, -896.000000)">
            <g id="Nature-Rock-C-05" sketch:type="MSLayerGroup" transform="translate(256.000000, 896.000000)">
                <rect id="Rectangle-951" sketch:type="MSShapeGroup" x="0" y="0" width="128" height="128"></rect>
                <path d="M54.9457252,17.9726518 C52.2142766,23.394552 47.7816584,23.386483 45.0542748,17.9726518 L36,-3.55271368e-15 L64,-3.55271368e-15 L54.9457252,17.9726518 L54.9457252,17.9726518 Z" id="Triangle-30-Copy-4" fill="#AC7849" sketch:type="MSShapeGroup"></path>
                <path d="M112.945725,17.9726518 C110.214277,23.394552 105.781658,23.386483 103.054275,17.9726518 L94,-3.55271368e-15 L122,-3.55271368e-15 L112.945725,17.9726518 L112.945725,17.9726518 Z" id="Triangle-30-Copy-5" fill="#C99951" sketch:type="MSShapeGroup"></path>
                <path d="M35.7254275,24.4906023 C32.0110764,31.9015889 25.9893935,31.9025266 22.2745725,24.4906023 L10,-4.97379915e-14 L48,-4.97379915e-14 L35.7254275,24.4906023 L35.7254275,24.4906023 Z" id="Triangle-30-Copy-3" fill="#C99951" sketch:type="MSShapeGroup"></path>
            </g>
        </g>
    </g>
</svg>