<?xml version="1.0" encoding="UTF-8" standalone="no"?>
<svg width="128px" height="128px" viewBox="0 0 128 128" version="1.1" xmlns="http://www.w3.org/2000/svg" xmlns:xlink="http://www.w3.org/1999/xlink" xmlns:sketch="http://www.bohemiancoding.com/sketch/ns">
    <!-- Generator: Sketch 3.4.2 (15857) - http://www.bohemiancoding.com/sketch -->
    <title></title>
    <desc>Created with Sketch.</desc>
    <defs></defs>
    <g id="Tileset" stroke="none" stroke-width="1" fill="none" fill-rule="evenodd" sketch:type="MSPage">
        <g id="nature" sketch:type="MSArtboardGroup" transform="translate(-512.000000, -256.000000)">
            <g id="Nature-Tree-F-05" sketch:type="MSLayerGroup" transform="translate(512.000000, 256.000000)">
                <rect id="Rectangle-1-Copy-4" fill="#AD765F" sketch:type="MSShapeGroup" x="46" y="116" width="36" height="12"></rect>
                <g id="Oval-113-Copy-2-+-Oval-257-Copy-14" transform="translate(4.000000, 2.000000)" sketch:type="MSShapeGroup">
                    <ellipse id="Oval-113-Copy-2" fill="#9BCA6A" cx="60.632" cy="60.7133333" rx="60" ry="60"></ellipse>
                    <path d="M59,64 C62.3137085,64 65,61.3137085 65,58 C65,54.6862915 62.3137085,52 59,52 C55.6862915,52 53,54.6862915 53,58 C53,61.3137085 55.6862915,64 59,64 Z M31,95 C34.3137085,95 37,92.3137085 37,89 C37,85.6862915 34.3137085,83 31,83 C27.6862915,83 25,85.6862915 25,89 C25,92.3137085 27.6862915,95 31,95 Z M77,105 C80.3137085,105 83,102.313708 83,99 C83,95.6862915 80.3137085,93 77,93 C73.6862915,93 71,95.6862915 71,99 C71,102.313708 73.6862915,105 77,105 Z M106,73 C109.313708,73 112,70.3137085 112,67 C112,63.6862915 109.313708,61 106,61 C102.686292,61 100,63.6862915 100,67 C100,70.3137085 102.686292,73 106,73 Z M66,27 C69.3137085,27 72,24.3137085 72,21 C72,17.6862915 69.3137085,15 66,15 C62.6862915,15 60,17.6862915 60,21 C60,24.3137085 62.6862915,27 66,27 Z M19,50 C22.3137085,50 25,47.3137085 25,44 C25,40.6862915 22.3137085,38 19,38 C15.6862915,38 13,40.6862915 13,44 C13,47.3137085 15.6862915,50 19,50 Z" id="Oval-257-Copy-14" fill="#CC4B2B"></path>
                </g>
            </g>
        </g>
    </g>
</svg>