<?xml version="1.0" encoding="UTF-8" standalone="no"?>
<svg width="128px" height="128px" viewBox="0 0 128 128" version="1.1" xmlns="http://www.w3.org/2000/svg" xmlns:xlink="http://www.w3.org/1999/xlink" xmlns:sketch="http://www.bohemiancoding.com/sketch/ns">
    <!-- Generator: Sketch 3.4.2 (15857) - http://www.bohemiancoding.com/sketch -->
    <title></title>
    <desc>Created with Sketch.</desc>
    <defs></defs>
    <g id="Tileset" stroke="none" stroke-width="1" fill="none" fill-rule="evenodd" sketch:type="MSPage">
        <g id="nature" sketch:type="MSArtboardGroup" transform="translate(-1280.000000, 0.000000)">
            <g id="Nature-Roots-02" sketch:type="MSLayerGroup" transform="translate(1280.000000, 0.000000)">
                <rect id="Mask" sketch:type="MSShapeGroup" x="0" y="0" width="128" height="128"></rect>
                <path d="M76.2520747,0.00999999978 C79.0663595,4.60047557 80.4491812,9.34653177 80.5333889,14.2148915 C80.5722951,14.3150582 80.6074992,14.4175737 80.6387939,14.5223263 C81.5215586,17.4771974 85.1502666,19.8531032 87.1758056,19.4050063 C89.3327937,18.9278297 91.4682061,20.289586 91.9453827,22.4465741 C92.4225593,24.6035622 91.060803,26.7389746 88.9038149,27.2161512 C85.5636216,27.9550806 81.8555679,26.9002253 78.8064055,24.7278215 L78.8064055,24.7278215 C77.1377874,29.6946824 74.2922657,34.7580192 70.3981418,39.8856939 C62.8864143,49.776929 61.929636,60.4456474 66.070141,64.9956985 C67.9286818,67.0380714 67.7796564,70.2003868 65.7372835,72.0589276 C63.6949105,73.9174684 60.5325951,73.768443 58.6740543,71.7260701 C54.0478411,66.6422685 52.6570697,58.9963487 54.3935252,50.8309991 L54.3935252,50.8309991 C50.3081618,51.760383 45.8204306,51.5985674 41.1512641,50.3954198 C39.0120056,49.8441771 37.7246645,47.663095 38.2759071,45.5238366 C38.8271498,43.3845782 41.0082318,42.097237 43.1474903,42.6484796 C49.2836022,44.2296288 54.5115367,43.4058147 58.3379754,40.2124841 C59.4918114,38.0507508 60.8579199,35.9135169 62.434344,33.8377253 C72.3980434,20.7178014 73.4716725,10.1260342 63.5699101,0.00999999978 L76.2520747,0.00999999978 L76.2520747,0.00999999978 Z" id="Shape" fill="#C99951" sketch:type="MSShapeGroup"></path>
                <path d="M22.3480217,22.2002333 C20.4450668,23.3223108 17.9927936,22.6892846 16.8707161,20.7863297 C15.7486386,18.8833749 16.3816648,16.4311016 18.2846197,15.3090241 C22.0772478,13.0727007 23.9846654,5.29837391 21.3768572,0.0372656479 C21.3723566,0.0281859193 29.8663017,0.00999999978 29.8663017,0.00999999978 C32.1001242,8.37587686 28.9466367,18.3093594 22.3480217,22.2002333 Z M104.279888,0.00999999978 C103.555384,10.9784578 110.73864,24.013787 121.67509,25.4860528 C123.864479,25.7807886 125.878261,24.2448684 126.172996,22.055479 C126.467732,19.8660896 124.931812,17.8523082 122.742423,17.5575724 C116.402629,16.7041089 111.553492,7.17313585 112.301873,0.00999999978 L104.279888,0.00999999978 L104.279888,0.00999999978 Z" id="Shape" fill="#AC7849" sketch:type="MSShapeGroup"></path>
            </g>
        </g>
    </g>
</svg>