<?xml version="1.0" encoding="UTF-8" standalone="no"?>
<svg width="128px" height="128px" viewBox="0 0 128 128" version="1.1" xmlns="http://www.w3.org/2000/svg" xmlns:xlink="http://www.w3.org/1999/xlink" xmlns:sketch="http://www.bohemiancoding.com/sketch/ns">
    <!-- Generator: Sketch 3.4.2 (15857) - http://www.bohemiancoding.com/sketch -->
    <title></title>
    <desc>Created with Sketch.</desc>
    <defs></defs>
    <g id="Tileset" stroke="none" stroke-width="1" fill="none" fill-rule="evenodd" sketch:type="MSPage">
        <g id="nature" sketch:type="MSArtboardGroup" transform="translate(-512.000000, -128.000000)">
            <g id="Nature-Tree-D-05" sketch:type="MSLayerGroup" transform="translate(512.000000, 128.000000)">
                <rect id="Rectangle-1-Copy-4" fill="#AD765F" sketch:type="MSShapeGroup" x="46" y="116" width="36" height="12"></rect>
                <g id="Oval-113-Copy-2-+-Oval-257-Copy-14" transform="translate(3.000000, 2.000000)" sketch:type="MSShapeGroup">
                    <ellipse id="Oval-113-Copy-2" fill="#9BCA6A" cx="60.632" cy="60.7133333" rx="60" ry="60"></ellipse>
                    <path d="M66,75 C69.3137085,75 72,72.3137085 72,69 C72,65.6862915 69.3137085,63 66,63 C62.6862915,63 60,65.6862915 60,69 C60,72.3137085 62.6862915,75 66,75 Z M31,95 C34.3137085,95 37,92.3137085 37,89 C37,85.6862915 34.3137085,83 31,83 C27.6862915,83 25,85.6862915 25,89 C25,92.3137085 27.6862915,95 31,95 Z M87,103 C90.3137085,103 93,100.313708 93,97 C93,93.6862915 90.3137085,91 87,91 C83.6862915,91 81,93.6862915 81,97 C81,100.313708 83.6862915,103 87,103 Z M98,61 C101.313708,61 104,58.3137085 104,55 C104,51.6862915 101.313708,49 98,49 C94.6862915,49 92,51.6862915 92,55 C92,58.3137085 94.6862915,61 98,61 Z M66,27 C69.3137085,27 72,24.3137085 72,21 C72,17.6862915 69.3137085,15 66,15 C62.6862915,15 60,17.6862915 60,21 C60,24.3137085 62.6862915,27 66,27 Z M29,50 C32.3137085,50 35,47.3137085 35,44 C35,40.6862915 32.3137085,38 29,38 C25.6862915,38 23,40.6862915 23,44 C23,47.3137085 25.6862915,50 29,50 Z" id="Oval-257-Copy-14" fill="#EFFF91"></path>
                </g>
            </g>
        </g>
    </g>
</svg>