<?xml version="1.0" encoding="UTF-8" standalone="no"?>
<svg width="128px" height="128px" viewBox="0 0 128 128" version="1.1" xmlns="http://www.w3.org/2000/svg" xmlns:xlink="http://www.w3.org/1999/xlink" xmlns:sketch="http://www.bohemiancoding.com/sketch/ns">
    <!-- Generator: Sketch 3.4.2 (15857) - http://www.bohemiancoding.com/sketch -->
    <title></title>
    <desc>Created with Sketch.</desc>
    <defs></defs>
    <g id="Tileset" stroke="none" stroke-width="1" fill="none" fill-rule="evenodd" sketch:type="MSPage">
        <g id="nature" sketch:type="MSArtboardGroup" transform="translate(-768.000000, -512.000000)" fill="#9BCA6A">
            <g id="Nature-Liana-02" sketch:type="MSLayerGroup" transform="translate(768.000000, 512.000000)">
                <path d="M19.819795,33.4725135 C19.0875795,31.6767913 17.9928258,29.994247 16.5355339,28.5369551 C13.3942127,25.3956339 9.20624274,23.9388684 5.09416963,24.1666587 C4.91482563,27.4041794 5.77969403,30.6887466 7.68877483,33.4725135 L19.819795,33.4725135 L19.819795,33.4725135 Z M34.3112252,33.4725135 C36.220306,30.6887466 37.0851744,27.4041794 36.9058304,24.1666587 C32.7937573,23.9388684 28.6057873,25.3956339 25.4644661,28.5369551 C24.0071742,29.994247 22.9124205,31.6767913 22.180205,33.4725135 L34.3112252,33.4725135 Z M20.3880634,26.4960864 C20.5824945,22.9862124 19.3390674,19.4115565 16.6577821,16.7302711 C13.9764967,14.0489857 10.4018407,12.8055586 6.89196678,12.9999897 C6.69753565,16.5098637 7.94096277,20.0845196 10.6222481,22.765805 C13.3035335,25.4470904 16.8781895,26.6905175 20.3880634,26.4960864 L20.3880634,26.4960864 Z M21.6119366,26.4960864 C25.1218105,26.6905175 28.6964665,25.4470904 31.3777519,22.765805 C34.0590372,20.0845196 35.3024643,16.5098637 35.1080332,12.9999897 C31.5981593,12.8055586 28.0235033,14.0489857 25.3422179,16.7302711 C22.6609326,19.4115565 21.4175055,22.9862124 21.6119366,26.4960864 L21.6119366,26.4960864 Z M21,20.1349683 C23.7618721,17.6630258 25.5,14.0707382 25.5,10.072489 C25.5,6.07423989 23.7618721,2.48195225 21,0.0100097656 C18.2381279,2.48195225 16.5,6.07423989 16.5,10.072489 C16.5,14.0707382 18.2381279,17.6630258 21,20.1349683 L21,20.1349683 Z" id="Oval-113-Copy-29" sketch:type="MSShapeGroup" transform="translate(21.000000, 16.741262) rotate(-180.000000) translate(-21.000000, -16.741262) "></path>
                <path d="M63.9058304,67.9783194 C64.1336206,63.8662463 62.6768551,59.6782764 59.5355339,56.5369551 C56.3942127,53.3956339 52.2062427,51.9388684 48.0941696,52.1666587 C47.8663794,56.2787318 49.3231449,60.4667017 52.4644661,63.608023 C55.6057873,66.7493442 59.7937573,68.2061097 63.9058304,67.9783194 L63.9058304,67.9783194 Z M64.0941696,67.9783194 C68.2062427,68.2061097 72.3942127,66.7493442 75.5355339,63.608023 C78.6768551,60.4667017 80.1336206,56.2787318 79.9058304,52.1666587 C75.7937573,51.9388684 71.6057873,53.3956339 68.4644661,56.5369551 C65.3231449,59.6782764 63.8663794,63.8662463 64.0941696,67.9783194 L64.0941696,67.9783194 Z M59.5355339,70.5369551 C56.3942127,67.3956339 52.2062427,65.9388684 48.0941696,66.1666587 C47.8663794,70.2787318 49.3231449,74.4667017 52.4644661,77.608023 C55.6057873,80.7493442 59.7937573,82.2061097 63.9058304,81.9783194 C64.1336206,77.8662463 62.6768551,73.6782764 59.5355339,70.5369551 Z M64.0941696,81.9783194 C68.2062427,82.2061097 72.3942127,80.7493442 75.5355339,77.608023 C78.6768551,74.4667017 80.1336206,70.2787318 79.9058304,66.1666587 C75.7937573,65.9388684 71.6057873,67.3956339 68.4644661,70.5369551 C65.3231449,73.6782764 63.8663794,77.8662463 64.0941696,81.9783194 L64.0941696,81.9783194 Z M63.9058304,95.9783194 C64.1336206,91.8662463 62.6768551,87.6782764 59.5355339,84.5369551 C56.3942127,81.3956339 52.2062427,79.9388684 48.0941696,80.1666587 C47.8663794,84.2787318 49.3231449,88.4667017 52.4644661,91.608023 C55.6057873,94.7493442 59.7937573,96.2061097 63.9058304,95.9783194 L63.9058304,95.9783194 Z M64.0941696,95.9783194 C68.2062427,96.2061097 72.3942127,94.7493442 75.5355339,91.608023 C78.6768551,88.4667017 80.1336206,84.2787318 79.9058304,80.1666587 C75.7937573,79.9388684 71.6057873,81.3956339 68.4644661,84.5369551 C65.3231449,87.6782764 63.8663794,91.8662463 64.0941696,95.9783194 L64.0941696,95.9783194 Z M63.9058304,109.978319 C64.1336206,105.866246 62.6768551,101.678276 59.5355339,98.5369551 C56.3942127,95.3956339 52.2062427,93.9388684 48.0941696,94.1666587 C47.8663794,98.2787318 49.3231449,102.466702 52.4644661,105.608023 C55.6057873,108.749344 59.7937573,110.20611 63.9058304,109.978319 L63.9058304,109.978319 Z M64.0941696,109.978319 C68.2062427,110.20611 72.3942127,108.749344 75.5355339,105.608023 C78.6768551,102.466702 80.1336206,98.2787318 79.9058304,94.1666587 C75.7937573,93.9388684 71.6057873,95.3956339 68.4644661,98.5369551 C65.3231449,101.678276 63.8663794,105.866246 64.0941696,109.978319 L64.0941696,109.978319 Z M63.9058304,53.9783194 C64.1336206,49.8662463 62.6768551,45.6782764 59.5355339,42.5369551 C56.3942127,39.3956339 52.2062427,37.9388684 48.0941696,38.1666587 C47.8663794,42.2787318 49.3231449,46.4667017 52.4644661,49.608023 C55.6057873,52.7493442 59.7937573,54.2061097 63.9058304,53.9783194 L63.9058304,53.9783194 Z M64.0941696,53.9783194 C68.2062427,54.2061097 72.3942127,52.7493442 75.5355339,49.608023 C78.6768551,46.4667017 80.1336206,42.2787318 79.9058304,38.1666587 C75.7937573,37.9388684 71.6057873,39.3956339 68.4644661,42.5369551 C65.3231449,45.6782764 63.8663794,49.8662463 64.0941696,53.9783194 L64.0941696,53.9783194 Z M63.9058304,39.9783194 C64.1336206,35.8662463 62.6768551,31.6782764 59.5355339,28.5369551 C56.3942127,25.3956339 52.2062427,23.9388684 48.0941696,24.1666587 C47.8663794,28.2787318 49.3231449,32.4667017 52.4644661,35.608023 C55.6057873,38.7493442 59.7937573,40.2061097 63.9058304,39.9783194 L63.9058304,39.9783194 Z M64.0941696,39.9783194 C68.2062427,40.2061097 72.3942127,38.7493442 75.5355339,35.608023 C78.6768551,32.4667017 80.1336206,28.2787318 79.9058304,24.1666587 C75.7937573,23.9388684 71.6057873,25.3956339 68.4644661,28.5369551 C65.3231449,31.6782764 63.8663794,35.8662463 64.0941696,39.9783194 L64.0941696,39.9783194 Z M63.3880634,26.4960864 C63.5824945,22.9862124 62.3390674,19.4115565 59.6577821,16.7302711 C56.9764967,14.0489857 53.4018407,12.8055586 49.8919668,12.9999897 C49.6975357,16.5098637 50.9409628,20.0845196 53.6222481,22.765805 C56.3035335,25.4470904 59.8781895,26.6905175 63.3880634,26.4960864 L63.3880634,26.4960864 Z M64.6119366,26.4960864 C68.1218105,26.6905175 71.6964665,25.4470904 74.3777519,22.765805 C77.0590372,20.0845196 78.3024643,16.5098637 78.1080332,12.9999897 C74.5981593,12.8055586 71.0235033,14.0489857 68.3422179,16.7302711 C65.6609326,19.4115565 64.4175055,22.9862124 64.6119366,26.4960864 L64.6119366,26.4960864 Z M64,20.1349683 C66.7618721,17.6630258 68.5,14.0707382 68.5,10.072489 C68.5,6.07423989 66.7618721,2.48195225 64,0.0100097656 C61.2381279,2.48195225 59.5,6.07423989 59.5,10.072489 C59.5,14.0707382 61.2381279,17.6630258 64,20.1349683 L64,20.1349683 Z M62.8197825,117.472483 C62.0875671,115.676772 60.9928175,113.994239 59.5355339,112.536955 C56.3942127,109.395634 52.2062427,107.938868 48.0941696,108.166659 C47.9148263,111.404168 48.7796877,114.688723 50.6887539,117.472483 L62.8197825,117.472483 L62.8197825,117.472483 Z M77.3112461,117.472483 C79.2203123,114.688723 80.0851737,111.404168 79.9058304,108.166659 C75.7937573,107.938868 71.6057873,109.395634 68.4644661,112.536955 C67.0071825,113.994239 65.9124329,115.676772 65.1802175,117.472483 L77.3112461,117.472483 L77.3112461,117.472483 Z" id="Oval-113" sketch:type="MSShapeGroup" transform="translate(64.000000, 58.741246) rotate(-180.000000) translate(-64.000000, -58.741246) "></path>
                <path d="M105.819795,61.4725135 C105.087579,59.6767913 103.992826,57.994247 102.535534,56.5369551 C99.3942127,53.3956339 95.2062427,51.9388684 91.0941696,52.1666587 C90.9148256,55.4041794 91.779694,58.6887466 93.6887748,61.4725135 L105.819795,61.4725135 L105.819795,61.4725135 Z M120.311225,61.4725135 C122.220306,58.6887466 123.085174,55.4041794 122.90583,52.1666587 C118.793757,51.9388684 114.605787,53.3956339 111.464466,56.5369551 C110.007174,57.994247 108.912421,59.6767913 108.180205,61.4725135 L120.311225,61.4725135 L120.311225,61.4725135 Z M106.90583,53.9783194 C107.133621,49.8662463 105.676855,45.6782764 102.535534,42.5369551 C99.3942127,39.3956339 95.2062427,37.9388684 91.0941696,38.1666587 C90.8663794,42.2787318 92.3231449,46.4667017 95.4644661,49.608023 C98.6057873,52.7493442 102.793757,54.2061097 106.90583,53.9783194 L106.90583,53.9783194 Z M107.09417,53.9783194 C111.206243,54.2061097 115.394213,52.7493442 118.535534,49.608023 C121.676855,46.4667017 123.133621,42.2787318 122.90583,38.1666587 C118.793757,37.9388684 114.605787,39.3956339 111.464466,42.5369551 C108.323145,45.6782764 106.866379,49.8662463 107.09417,53.9783194 L107.09417,53.9783194 Z M106.90583,39.9783194 C107.133621,35.8662463 105.676855,31.6782764 102.535534,28.5369551 C99.3942127,25.3956339 95.2062427,23.9388684 91.0941696,24.1666587 C90.8663794,28.2787318 92.3231449,32.4667017 95.4644661,35.608023 C98.6057873,38.7493442 102.793757,40.2061097 106.90583,39.9783194 L106.90583,39.9783194 Z M107.09417,39.9783194 C111.206243,40.2061097 115.394213,38.7493442 118.535534,35.608023 C121.676855,32.4667017 123.133621,28.2787318 122.90583,24.1666587 C118.793757,23.9388684 114.605787,25.3956339 111.464466,28.5369551 C108.323145,31.6782764 106.866379,35.8662463 107.09417,39.9783194 L107.09417,39.9783194 Z M106.388063,26.4960864 C106.582495,22.9862124 105.339067,19.4115565 102.657782,16.7302711 C99.9764967,14.0489857 96.4018407,12.8055586 92.8919668,12.9999897 C92.6975357,16.5098637 93.9409628,20.0845196 96.6222481,22.765805 C99.3035335,25.4470904 102.878189,26.6905175 106.388063,26.4960864 L106.388063,26.4960864 Z M107.611937,26.4960864 C111.121811,26.6905175 114.696466,25.4470904 117.377752,22.765805 C120.059037,20.0845196 121.302464,16.5098637 121.108033,12.9999897 C117.598159,12.8055586 114.023503,14.0489857 111.342218,16.7302711 C108.660933,19.4115565 107.417505,22.9862124 107.611937,26.4960864 L107.611937,26.4960864 Z M107,20.1349683 C109.761872,17.6630258 111.5,14.0707382 111.5,10.072489 C111.5,6.07423989 109.761872,2.48195225 107,0.0100097656 C104.238128,2.48195225 102.5,6.07423989 102.5,10.072489 C102.5,14.0707382 104.238128,17.6630258 107,20.1349683 L107,20.1349683 Z" id="Oval-113" sketch:type="MSShapeGroup" transform="translate(107.000000, 30.741262) rotate(-180.000000) translate(-107.000000, -30.741262) "></path>
            </g>
        </g>
    </g>
</svg>