<?xml version="1.0" encoding="UTF-8" standalone="no"?>
<svg width="128px" height="128px" viewBox="0 0 128 128" version="1.1" xmlns="http://www.w3.org/2000/svg" xmlns:xlink="http://www.w3.org/1999/xlink" xmlns:sketch="http://www.bohemiancoding.com/sketch/ns">
    <!-- Generator: Sketch 3.4.2 (15857) - http://www.bohemiancoding.com/sketch -->
    <title></title>
    <desc>Created with Sketch.</desc>
    <defs></defs>
    <g id="Tileset" stroke="none" stroke-width="1" fill="none" fill-rule="evenodd" sketch:type="MSPage">
        <g id="nature" sketch:type="MSArtboardGroup" transform="translate(-128.000000, -640.000000)">
            <g id="Nature-Cactus-01" sketch:type="MSLayerGroup" transform="translate(128.000000, 640.000000)">
                <rect id="Rectangle-921" sketch:type="MSShapeGroup" x="0" y="0" width="128" height="128"></rect>
                <path d="M44.0987505,28 L44,28 L44,128 L84,128 L84,28 L83.9012495,28 C82.8978007,17.8933546 74.3706962,10 64,10 C53.6293038,10 45.1021993,17.8933546 44.0987505,28 Z" id="Rectangle-1-Copy-8" fill="#8BB363" sketch:type="MSShapeGroup"></path>
                <g id="Group" transform="translate(52.000000, 36.000000)" fill="#B8E986" sketch:type="MSShapeGroup">
                    <path d="M0.48,65.0652174 L0.48,71.4782609 C0.48,72.8949913 1.62615104,74.0434783 3.04,74.0434783 C4.45384896,74.0434783 5.6,72.8949913 5.6,71.4782609 L5.6,65.0652174 C5.6,63.6484869 4.45384896,62.5 3.04,62.5 C1.62615104,62.5 0.48,63.6484869 0.48,65.0652174 L0.48,65.0652174 Z" id="Shape"></path>
                    <path d="M18.4,65.0652174 L18.4,71.4782609 C18.4,72.8949913 19.546151,74.0434783 20.96,74.0434783 C22.373849,74.0434783 23.52,72.8949913 23.52,71.4782609 L23.52,65.0652174 C23.52,63.6484869 22.373849,62.5 20.96,62.5 C19.546151,62.5 18.4,63.6484869 18.4,65.0652174 L18.4,65.0652174 Z" id="Shape"></path>
                    <path d="M9.44,3.5 L9.44,9.91304348 C9.44,11.3297739 10.586151,12.4782609 12,12.4782609 C13.413849,12.4782609 14.56,11.3297739 14.56,9.91304348 L14.56,3.5 C14.56,2.08326955 13.413849,0.934782609 12,0.934782609 C10.586151,0.934782609 9.44,2.08326955 9.44,3.5 L9.44,3.5 Z" id="Shape"></path>
                    <path d="M0.48,24.0217391 L0.48,30.4347826 C0.48,31.8515131 1.62615104,33 3.04,33 C4.45384896,33 5.6,31.8515131 5.6,30.4347826 L5.6,24.0217391 C5.6,22.6050087 4.45384896,21.4565217 3.04,21.4565217 C1.62615104,21.4565217 0.48,22.6050087 0.48,24.0217391 L0.48,24.0217391 Z" id="Shape"></path>
                    <path d="M18.4,24.0217391 L18.4,30.4347826 C18.4,31.8515131 19.546151,33 20.96,33 C22.373849,33 23.52,31.8515131 23.52,30.4347826 L23.52,24.0217391 C23.52,22.6050087 22.373849,21.4565217 20.96,21.4565217 C19.546151,21.4565217 18.4,22.6050087 18.4,24.0217391 L18.4,24.0217391 Z" id="Shape"></path>
                    <path d="M9.44,44.5434783 L9.44,50.9565217 C9.44,52.3732522 10.586151,53.5217391 12,53.5217391 C13.413849,53.5217391 14.56,52.3732522 14.56,50.9565217 L14.56,44.5434783 C14.56,43.1267478 13.413849,41.9782609 12,41.9782609 C10.586151,41.9782609 9.44,43.1267478 9.44,44.5434783 L9.44,44.5434783 Z" id="Shape"></path>
                </g>
            </g>
        </g>
    </g>
</svg>