<?xml version="1.0" encoding="UTF-8" standalone="no"?>
<svg width="128px" height="128px" viewBox="0 0 128 128" version="1.1" xmlns="http://www.w3.org/2000/svg" xmlns:xlink="http://www.w3.org/1999/xlink" xmlns:sketch="http://www.bohemiancoding.com/sketch/ns">
    <!-- Generator: Sketch 3.4.2 (15857) - http://www.bohemiancoding.com/sketch -->
    <title></title>
    <desc>Created with Sketch.</desc>
    <defs></defs>
    <g id="Tileset" stroke="none" stroke-width="1" fill="none" fill-rule="evenodd" sketch:type="MSPage">
        <g id="nature" sketch:type="MSArtboardGroup" transform="translate(-1536.000000, -384.000000)">
            <g id="Nature-Palm-01" sketch:type="MSLayerGroup" transform="translate(1536.000000, 384.000000)">
                <rect id="Rectangle-1-Copy-11" fill="#AD765F" sketch:type="MSShapeGroup" x="58" y="64" width="12" height="64"></rect>
                <rect id="Rectangle-1-Copy-13" fill="#936956" sketch:type="MSShapeGroup" x="58" y="64" width="12" height="8"></rect>
                <path d="M64,65.0711397 C57.3185089,66.9108815 49.0305715,68 40.0533738,68 C29.1314447,68 19.229751,66.387899 12,63.7732733 L12,63.7732733 C19.229751,61.1586476 29.1314447,59.5465466 40.0533738,59.5465466 C44.834871,59.5465466 49.4208311,59.8555202 53.6726655,60.4223202 C49.2895184,58.6630714 44.6821439,56.4091325 40.0533738,53.6968642 C30.5947057,48.1544748 22.813796,41.7336887 17.8407547,35.8005819 L17.8407547,35.8005819 C25.3900095,37.2050241 34.7593364,40.8335693 44.2180044,46.3759587 C50.3250308,49.9544244 55.7326517,53.8990663 60.1366945,57.842201 C56.4241538,53.4848319 52.7249151,48.2096535 49.3552153,42.2861382 C43.8942508,32.6864382 40.3190135,23.1774115 38.9352044,15.5155947 L38.9352044,15.5155947 C44.7811462,20.5627857 51.1076026,28.4597114 56.5685672,38.0594115 C57.8749157,40.3558105 59.073355,42.6470208 60.1597005,44.9089973 C59.9848405,42.4833777 59.8932525,39.9779216 59.8932525,37.4149775 C59.8932525,26.7415931 61.4816696,17.0652272 64.0578831,10 L64.0578831,10 C66.6340966,17.0652272 68.2225138,26.7415931 68.2225138,37.4149775 C68.2225138,39.8789355 68.1378638,42.2897604 67.9759529,44.6275945 C69.0261729,42.457086 70.1792281,40.2606325 71.4314328,38.0594115 C76.8923974,28.4597114 83.2188538,20.5627857 89.0647956,15.5155947 L89.0647956,15.5155947 C87.6809865,23.1774115 84.1057492,32.6864382 78.6447847,42.2861382 C75.2750849,48.2096535 71.5758462,53.4848319 67.8633055,57.842201 C72.2673483,53.8990663 77.6749692,49.9544244 83.7819956,46.3759587 C93.2406636,40.8335693 102.60999,37.2050241 110.159245,35.8005819 L110.159245,35.8005819 C105.186204,41.7336887 97.4052943,48.1544748 87.9466262,53.6968642 C83.3178554,56.409133 78.7104801,58.6630721 74.3273324,60.422321 C78.5791689,59.8555202 83.1651289,59.5465466 87.9466262,59.5465466 C98.8685553,59.5465466 108.770249,61.1586476 116,63.7732733 L116,63.7732733 C108.770249,66.387899 98.8685553,68 87.9466262,68 C78.9694285,68 70.6814911,66.9108815 64,65.0711397 Z" id="Oval-432" fill="#9BCA6A" sketch:type="MSShapeGroup"></path>
                <rect id="Rectangle-924" sketch:type="MSShapeGroup" x="0" y="0" width="128" height="128"></rect>
            </g>
        </g>
    </g>
</svg>