<?xml version="1.0" encoding="UTF-8" standalone="no"?>
<svg width="128px" height="128px" viewBox="0 0 128 128" version="1.1" xmlns="http://www.w3.org/2000/svg" xmlns:xlink="http://www.w3.org/1999/xlink" xmlns:sketch="http://www.bohemiancoding.com/sketch/ns">
    <!-- Generator: Sketch 3.4.2 (15857) - http://www.bohemiancoding.com/sketch -->
    <title></title>
    <desc>Created with Sketch.</desc>
    <defs></defs>
    <g id="Tileset" stroke="none" stroke-width="1" fill="none" fill-rule="evenodd" sketch:type="MSPage">
        <g id="nature" sketch:type="MSArtboardGroup" transform="translate(-256.000000, -640.000000)">
            <g id="Nature-Cactus-05" sketch:type="MSLayerGroup" transform="translate(256.000000, 640.000000)">
                <rect id="Rectangle-923" sketch:type="MSShapeGroup" x="0" y="0" width="128" height="128"></rect>
                <path d="M84,56 L84,28 L83.9012495,28 C82.8978007,17.8933546 74.3706962,10 64,10 C53.6293038,10 45.1021993,17.8933546 44.0987505,28 L44,28 L44,82 L36.9973052,82 C29.8259318,82 24,87.8202983 24,95 C24,102.18128 29.8190918,108 36.9973052,108 L44,108 L44,128 L84,128 L84,82 L91.0026948,82 C98.1740682,82 104,76.1797017 104,69 C104,61.8187196 98.1809082,56 91.0026948,56 L84,56 Z" id="Rectangle-1-Copy-8" fill="#8BB363" sketch:type="MSShapeGroup"></path>
                <g id="Group" transform="translate(52.480000, 36.934783)" fill="#B8E986" sketch:type="MSShapeGroup">
                    <path d="M0,64.1304348 L0,70.5434783 C0,71.9602087 1.14615104,73.1086957 2.56,73.1086957 C3.97384896,73.1086957 5.12,71.9602087 5.12,70.5434783 L5.12,64.1304348 C5.12,62.7137043 3.97384896,61.5652174 2.56,61.5652174 C1.14615104,61.5652174 0,62.7137043 0,64.1304348 L0,64.1304348 Z" id="Shape"></path>
                    <path d="M17.92,64.1304348 L17.92,70.5434783 C17.92,71.9602087 19.066151,73.1086957 20.48,73.1086957 C21.893849,73.1086957 23.04,71.9602087 23.04,70.5434783 L23.04,64.1304348 C23.04,62.7137043 21.893849,61.5652174 20.48,61.5652174 C19.066151,61.5652174 17.92,62.7137043 17.92,64.1304348 L17.92,64.1304348 Z" id="Shape"></path>
                    <path d="M8.96,2.56521739 L8.96,8.97826087 C8.96,10.3949913 10.106151,11.5434783 11.52,11.5434783 C12.933849,11.5434783 14.08,10.3949913 14.08,8.97826087 L14.08,2.56521739 C14.08,1.14848695 12.933849,0 11.52,0 C10.106151,0 8.96,1.14848695 8.96,2.56521739 L8.96,2.56521739 Z" id="Shape"></path>
                    <path d="M0,23.0869565 L0,29.5 C0,30.9167304 1.14615104,32.0652174 2.56,32.0652174 C3.97384896,32.0652174 5.12,30.9167304 5.12,29.5 L5.12,23.0869565 C5.12,21.6702261 3.97384896,20.5217391 2.56,20.5217391 C1.14615104,20.5217391 0,21.6702261 0,23.0869565 L0,23.0869565 Z" id="Shape"></path>
                    <path d="M17.92,23.0869565 L17.92,29.5 C17.92,30.9167304 19.066151,32.0652174 20.48,32.0652174 C21.893849,32.0652174 23.04,30.9167304 23.04,29.5 L23.04,23.0869565 C23.04,21.6702261 21.893849,20.5217391 20.48,20.5217391 C19.066151,20.5217391 17.92,21.6702261 17.92,23.0869565 L17.92,23.0869565 Z" id="Shape"></path>
                    <path d="M8.96,43.6086957 L8.96,50.0217391 C8.96,51.4384696 10.106151,52.5869565 11.52,52.5869565 C12.933849,52.5869565 14.08,51.4384696 14.08,50.0217391 L14.08,43.6086957 C14.08,42.1919652 12.933849,41.0434783 11.52,41.0434783 C10.106151,41.0434783 8.96,42.1919652 8.96,43.6086957 L8.96,43.6086957 Z" id="Shape"></path>
                </g>
                <path d="M32,90 C36.418278,90 40,86.418278 40,82 C40,77.581722 36.418278,74 32,74 C27.581722,74 24,77.581722 24,82 C24,86.418278 27.581722,90 32,90 Z M97,64 C101.418278,64 105,60.418278 105,56 C105,51.581722 101.418278,48 97,48 C92.581722,48 89,51.581722 89,56 C89,60.418278 92.581722,64 97,64 Z" id="Oval-451" fill="#FF84DE" sketch:type="MSShapeGroup"></path>
            </g>
        </g>
    </g>
</svg>