<?xml version="1.0" encoding="UTF-8" standalone="no"?>
<svg width="128px" height="128px" viewBox="0 0 128 128" version="1.1" xmlns="http://www.w3.org/2000/svg" xmlns:xlink="http://www.w3.org/1999/xlink" xmlns:sketch="http://www.bohemiancoding.com/sketch/ns">
    <!-- Generator: Sketch 3.4.2 (15857) - http://www.bohemiancoding.com/sketch -->
    <title></title>
    <desc>Created with Sketch.</desc>
    <defs></defs>
    <g id="Tileset" stroke="none" stroke-width="1" fill="none" fill-rule="evenodd" sketch:type="MSPage">
        <g id="nature" sketch:type="MSArtboardGroup" transform="translate(-1536.000000, -128.000000)">
            <g id="Nature-Palm-08" sketch:type="MSLayerGroup" transform="translate(1536.000000, 128.000000)">
                <rect id="Rectangle-1-Copy-11" fill="#AD765F" sketch:type="MSShapeGroup" x="58" y="64" width="12" height="64"></rect>
                <rect id="Rectangle-1-Copy-13" fill="#936956" sketch:type="MSShapeGroup" x="58" y="64" width="12" height="8"></rect>
                <path d="M80.2656304,64 L110.650265,64 L110.650265,64 C104.900747,56.4998085 96.0182916,51.5277083 85.9587472,51.0395489 L108.096467,38.2583302 C98.8974802,34.4429342 88.0892024,34.798423 78.7982336,40.1625663 C78.273417,40.4655693 77.76002,40.7807558 77.2581935,41.1075622 L85.8399651,26.2434978 C77.559835,27.3296508 69.7661328,31.5215595 64.3024759,38.325228 C58.8287156,31.3496345 50.9312362,27.0533594 42.5334012,25.9517664 L51.1151727,40.8158307 C50.6133463,40.4890244 50.0999493,40.1738379 49.5751326,39.8708349 C40.2841638,34.5066915 29.475886,34.1512028 20.276899,37.9665988 L42.85702,51.0032377 C32.3196805,51.1490837 22.9705914,56.2114202 17,64 L47.937656,64 C45.7533669,67.7909253 44.3431195,71.975232 43.776899,76.2917314 L63.9340363,64.6540028 L84.5964672,76.5834629 C84.0156832,72.1559398 82.5468957,67.867497 80.2656304,64 Z" id="Oval-231" fill="#739B64" sketch:type="MSShapeGroup"></path>
            </g>
        </g>
    </g>
</svg>