<?xml version="1.0" encoding="UTF-8" standalone="no"?>
<svg width="128px" height="128px" viewBox="0 0 128 128" version="1.1" xmlns="http://www.w3.org/2000/svg" xmlns:xlink="http://www.w3.org/1999/xlink" xmlns:sketch="http://www.bohemiancoding.com/sketch/ns">
    <!-- Generator: Sketch 3.4.2 (15857) - http://www.bohemiancoding.com/sketch -->
    <title></title>
    <desc>Created with Sketch.</desc>
    <defs>
        <rect id="path-1" x="0" y="0" width="128" height="128"></rect>
    </defs>
    <g id="Tileset" stroke="none" stroke-width="1" fill="none" fill-rule="evenodd" sketch:type="MSPage">
        <g id="nature" sketch:type="MSArtboardGroup" transform="translate(-512.000000, -640.000000)">
            <g id="Nature-Sunflower-01" sketch:type="MSLayerGroup" transform="translate(512.000000, 640.000000)">
                <mask id="mask-2" sketch:name="Mask" fill="white">
                    <use xlink:href="#path-1"></use>
                </mask>
                <use id="Mask" sketch:type="MSShapeGroup" xlink:href="#path-1"></use>
                <g id="Girasol-alto" mask="url(#mask-2)" sketch:type="MSShapeGroup">
                    <g transform="translate(2.000000, 30.000000)">
                        <path d="M20,14 L20,96" id="Line" stroke="#9BCA6A" stroke-width="4" stroke-linecap="square" fill="none"></path>
                        <polygon id="Star-1" stroke="none" fill="#FFCF62" fill-rule="evenodd" points="20 28.3339041 17.3664866 31.7817809 15.9951879 27.6656192 12.3848417 30.07158 12.4243593 25.7331834 8.22841743 26.8365051 9.67446893 22.7460061 5.34762677 22.4271268 8.04351008 19.0277945 4.05464811 17.3212695 7.70822243 14.9814743 4.48959574 12.0722322 8.7049396 11.0455272 6.60533635 7.24882947 10.9256518 7.64647404 10.1725966 3.37375185 14.1297105 5.15265509 14.8048085 0.866924133 17.9699061 3.83431427 20 0 22.0300939 3.83431427 25.1951915 0.866924133 25.8702895 5.15265509 29.8274034 3.37375185 29.0743482 7.64647404 33.3946637 7.24882947 31.2950604 11.0455272 35.5104043 12.0722322 32.2917776 14.9814743 35.9453519 17.3212695 31.9564899 19.0277945 34.6523732 22.4271268 30.3255311 22.7460061 31.7715826 26.8365051 27.5756407 25.7331834 27.6151583 30.07158 24.0048121 27.6656192 22.6335134 31.7817809 "></polygon>
                        <ellipse id="Oval-236" stroke="none" fill="#D0011B" fill-rule="evenodd" cx="20" cy="16" rx="8" ry="8"></ellipse>
                        <path d="M17.9737775,45.9737775 C18.2323384,41.3062312 16.578788,36.5525357 13.0131262,32.9868738 C9.44746432,29.421212 4.69376878,27.7676616 0.0262224878,28.0262225 C-0.232338446,32.6937688 1.42121201,37.4474643 4.98687384,41.0131262 C8.55253568,44.578788 13.3062312,46.2323384 17.9737775,45.9737775 L17.9737775,45.9737775 Z" id="Oval-113-Copy-19" stroke="none" fill="#9BCA6A" fill-rule="evenodd"></path>
                        <path d="M35.0131262,41.0131262 C38.578788,37.4474643 40.2323384,32.6937688 39.9737775,28.0262225 C35.3062312,27.7676616 30.5525357,29.421212 26.9868738,32.9868738 C23.421212,36.5525357 21.7676616,41.3062312 22.0262225,45.9737775 C26.6937688,46.2323384 31.4474643,44.578788 35.0131262,41.0131262 Z" id="Oval-113-Copy-10" stroke="none" fill="#9BCA6A" fill-rule="evenodd"></path>
                    </g>
                </g>
                <g id="Girasol-alto-Copy" mask="url(#mask-2)" sketch:type="MSShapeGroup">
                    <g transform="translate(86.000000, 30.000000)">
                        <path d="M20,14 L20,96" id="Line" stroke="#9BCA6A" stroke-width="4" stroke-linecap="square" fill="none"></path>
                        <polygon id="Star-1" stroke="none" fill="#FFCF62" fill-rule="evenodd" points="20 28.3339041 17.3664866 31.7817809 15.9951879 27.6656192 12.3848417 30.07158 12.4243593 25.7331834 8.22841743 26.8365051 9.67446893 22.7460061 5.34762677 22.4271268 8.04351008 19.0277945 4.05464811 17.3212695 7.70822243 14.9814743 4.48959574 12.0722322 8.7049396 11.0455272 6.60533635 7.24882947 10.9256518 7.64647404 10.1725966 3.37375185 14.1297105 5.15265509 14.8048085 0.866924133 17.9699061 3.83431427 20 0 22.0300939 3.83431427 25.1951915 0.866924133 25.8702895 5.15265509 29.8274034 3.37375185 29.0743482 7.64647404 33.3946637 7.24882947 31.2950604 11.0455272 35.5104043 12.0722322 32.2917776 14.9814743 35.9453519 17.3212695 31.9564899 19.0277945 34.6523732 22.4271268 30.3255311 22.7460061 31.7715826 26.8365051 27.5756407 25.7331834 27.6151583 30.07158 24.0048121 27.6656192 22.6335134 31.7817809 "></polygon>
                        <ellipse id="Oval-236" stroke="none" fill="#D0011B" fill-rule="evenodd" cx="20" cy="16" rx="8" ry="8"></ellipse>
                        <path d="M17.9737775,45.9737775 C18.2323384,41.3062312 16.578788,36.5525357 13.0131262,32.9868738 C9.44746432,29.421212 4.69376878,27.7676616 0.0262224878,28.0262225 C-0.232338446,32.6937688 1.42121201,37.4474643 4.98687384,41.0131262 C8.55253568,44.578788 13.3062312,46.2323384 17.9737775,45.9737775 L17.9737775,45.9737775 Z" id="Oval-113-Copy-19" stroke="none" fill="#9BCA6A" fill-rule="evenodd"></path>
                        <path d="M35.0131262,41.0131262 C38.578788,37.4474643 40.2323384,32.6937688 39.9737775,28.0262225 C35.3062312,27.7676616 30.5525357,29.421212 26.9868738,32.9868738 C23.421212,36.5525357 21.7676616,41.3062312 22.0262225,45.9737775 C26.6937688,46.2323384 31.4474643,44.578788 35.0131262,41.0131262 Z" id="Oval-113-Copy-10" stroke="none" fill="#9BCA6A" fill-rule="evenodd"></path>
                    </g>
                </g>
                <g id="Girasol-alto-Copy-2" mask="url(#mask-2)" sketch:type="MSShapeGroup">
                    <g transform="translate(44.000000, 52.000000)">
                        <path d="M20,14 L20,96" id="Line" stroke="#9BCA6A" stroke-width="4" stroke-linecap="square" fill="none"></path>
                        <polygon id="Star-1" stroke="none" fill="#FFCF62" fill-rule="evenodd" points="20 28.3339041 17.3664866 31.7817809 15.9951879 27.6656192 12.3848417 30.07158 12.4243593 25.7331834 8.22841743 26.8365051 9.67446893 22.7460061 5.34762677 22.4271268 8.04351008 19.0277945 4.05464811 17.3212695 7.70822243 14.9814743 4.48959574 12.0722322 8.7049396 11.0455272 6.60533635 7.24882947 10.9256518 7.64647404 10.1725966 3.37375185 14.1297105 5.15265509 14.8048085 0.866924133 17.9699061 3.83431427 20 0 22.0300939 3.83431427 25.1951915 0.866924133 25.8702895 5.15265509 29.8274034 3.37375185 29.0743482 7.64647404 33.3946637 7.24882947 31.2950604 11.0455272 35.5104043 12.0722322 32.2917776 14.9814743 35.9453519 17.3212695 31.9564899 19.0277945 34.6523732 22.4271268 30.3255311 22.7460061 31.7715826 26.8365051 27.5756407 25.7331834 27.6151583 30.07158 24.0048121 27.6656192 22.6335134 31.7817809 "></polygon>
                        <ellipse id="Oval-236" stroke="none" fill="#D0011B" fill-rule="evenodd" cx="20" cy="16" rx="8" ry="8"></ellipse>
                        <path d="M17.9737775,45.9737775 C18.2323384,41.3062312 16.578788,36.5525357 13.0131262,32.9868738 C9.44746432,29.421212 4.69376878,27.7676616 0.0262224878,28.0262225 C-0.232338446,32.6937688 1.42121201,37.4474643 4.98687384,41.0131262 C8.55253568,44.578788 13.3062312,46.2323384 17.9737775,45.9737775 L17.9737775,45.9737775 Z" id="Oval-113-Copy-19" stroke="none" fill="#9BCA6A" fill-rule="evenodd"></path>
                        <path d="M35.0131262,41.0131262 C38.578788,37.4474643 40.2323384,32.6937688 39.9737775,28.0262225 C35.3062312,27.7676616 30.5525357,29.421212 26.9868738,32.9868738 C23.421212,36.5525357 21.7676616,41.3062312 22.0262225,45.9737775 C26.6937688,46.2323384 31.4474643,44.578788 35.0131262,41.0131262 Z" id="Oval-113-Copy-10" stroke="none" fill="#9BCA6A" fill-rule="evenodd"></path>
                    </g>
                </g>
            </g>
        </g>
    </g>
</svg>