<?xml version="1.0" encoding="UTF-8" standalone="no"?>
<svg width="128px" height="128px" viewBox="0 0 128 128" version="1.1" xmlns="http://www.w3.org/2000/svg" xmlns:xlink="http://www.w3.org/1999/xlink" xmlns:sketch="http://www.bohemiancoding.com/sketch/ns">
    <!-- Generator: Sketch 3.4.2 (15857) - http://www.bohemiancoding.com/sketch -->
    <title></title>
    <desc>Created with Sketch.</desc>
    <defs></defs>
    <g id="Tileset" stroke="none" stroke-width="1" fill="none" fill-rule="evenodd" sketch:type="MSPage">
        <g id="nature" sketch:type="MSArtboardGroup" transform="translate(-768.000000, -384.000000)" fill="#9BCA6A">
            <g id="Nature-Liana-03" sketch:type="MSLayerGroup" transform="translate(768.000000, 384.000000)">
                <path d="M107.093668,35.1646466 C111.205545,35.392426 115.393316,33.9357299 118.534487,30.7945582 C121.675659,27.6533865 123.132355,23.4656159 122.904576,19.3537385 C118.792698,19.1259592 114.604928,20.5826553 111.463756,23.723827 C108.322584,26.8649986 106.865888,31.0527692 107.093668,35.1646466 L107.093668,35.1646466 Z M107.09417,49.36446 C111.206243,49.5922502 115.394213,48.1354847 118.535534,44.9941635 C121.676855,41.8528423 123.133621,37.6648724 122.90583,33.5527992 C118.793757,33.325009 114.605787,34.7817745 111.464466,37.9230957 C108.323145,41.0644169 106.866379,45.2523869 107.09417,49.36446 L107.09417,49.36446 Z M107.09417,63.5644722 C111.206243,63.7922624 115.394213,62.3354969 118.535534,59.1941757 C121.676855,56.0528545 123.133621,51.8648846 122.90583,47.7528115 C118.793757,47.5250212 114.605787,48.9817867 111.464466,52.1231079 C108.323145,55.2644291 106.866379,59.4523991 107.09417,63.5644722 L107.09417,63.5644722 Z M107.09417,77.7644539 C111.206243,77.9922441 115.394213,76.5354786 118.535534,73.3941574 C121.676855,70.2528362 123.133621,66.0648663 122.90583,61.9527931 C118.793757,61.7250029 114.605787,63.1817684 111.464466,66.3230896 C108.323145,69.4644108 106.866379,73.6523808 107.09417,77.7644539 L107.09417,77.7644539 Z M107.09417,91.9644661 C111.206243,92.1922563 115.394213,90.7354908 118.535534,87.5941696 C121.676855,84.4528484 123.133621,80.2648785 122.90583,76.1528053 C118.793757,75.9250151 114.605787,77.3817806 111.464466,80.5231018 C108.323145,83.664423 106.866379,87.852393 107.09417,91.9644661 L107.09417,91.9644661 Z M107.09417,106.164478 C111.206243,106.392269 115.394213,104.935503 118.535534,101.794182 C121.676855,98.6528606 123.133621,94.4648907 122.90583,90.3528176 C118.793757,90.1250273 114.605787,91.5817928 111.464466,94.723114 C108.323145,97.8644352 106.866379,102.052405 107.09417,106.164478 L107.09417,106.164478 Z M107.09417,120.36446 C111.206243,120.59225 115.394213,119.135485 118.535534,115.994164 C121.676855,112.852842 123.133621,108.664872 122.90583,104.552799 C118.793757,104.325009 114.605787,105.781774 111.464466,108.923096 C108.323145,112.064417 106.866379,116.252387 107.09417,120.36446 L107.09417,120.36446 Z M120.282772,128 C122.21171,125.207441 123.086063,121.906366 122.90583,118.652805 C118.793757,118.425015 114.605787,119.881781 111.464466,123.023102 C109.995997,124.491571 108.895648,126.188762 108.163421,128 L120.282772,128 L120.282772,128 Z M118.535534,16.5941696 C121.676855,13.4528484 123.133621,9.26487846 122.90583,5.15280535 C118.793757,4.92501511 114.605787,6.3817806 111.464466,9.52310181 C108.323145,12.664423 106.866379,16.852393 107.09417,20.9644661 C111.206243,21.1922563 115.394213,19.7354908 118.535534,16.5941696 Z M120.282772,4.17443857e-14 C119.773787,0.736867951 119.191374,1.43832967 118.535534,2.09416963 C115.394213,5.23549084 111.206243,6.69225633 107.09417,6.46446609 L107.09417,6.46446609 C106.972864,4.27465855 107.329281,2.06332746 108.163421,0 L120.282772,4.21884749e-14 L120.282772,4.17443857e-14 Z M106.906332,35.1646466 C102.794455,35.392426 98.6066843,33.9357299 95.4655126,30.7945582 C92.3243409,27.6533865 90.8676448,23.4656159 91.0954242,19.3537385 C95.2073016,19.1259592 99.3950722,20.5826553 102.536244,23.723827 C105.677416,26.8649986 107.134112,31.0527692 106.906332,35.1646466 L106.906332,35.1646466 Z M106.90583,49.36446 C102.793757,49.5922502 98.6057873,48.1354847 95.4644661,44.9941635 C92.3231449,41.8528423 90.8663794,37.6648724 91.0941696,33.5527992 C95.2062427,33.325009 99.3942127,34.7817745 102.535534,37.9230957 C105.676855,41.0644169 107.133621,45.2523869 106.90583,49.36446 L106.90583,49.36446 Z M106.90583,63.5644722 C102.793757,63.7922624 98.6057873,62.3354969 95.4644661,59.1941757 C92.3231449,56.0528545 90.8663794,51.8648846 91.0941696,47.7528115 C95.2062427,47.5250212 99.3942127,48.9817867 102.535534,52.1231079 C105.676855,55.2644291 107.133621,59.4523991 106.90583,63.5644722 L106.90583,63.5644722 Z M106.90583,77.7644539 C102.793757,77.9922441 98.6057873,76.5354786 95.4644661,73.3941574 C92.3231449,70.2528362 90.8663794,66.0648663 91.0941696,61.9527931 C95.2062427,61.7250029 99.3942127,63.1817684 102.535534,66.3230896 C105.676855,69.4644108 107.133621,73.6523808 106.90583,77.7644539 L106.90583,77.7644539 Z M106.90583,91.9644661 C102.793757,92.1922563 98.6057873,90.7354908 95.4644661,87.5941696 C92.3231449,84.4528484 90.8663794,80.2648785 91.0941696,76.1528053 C95.2062427,75.9250151 99.3942127,77.3817806 102.535534,80.5231018 C105.676855,83.664423 107.133621,87.852393 106.90583,91.9644661 L106.90583,91.9644661 Z M106.90583,106.164478 C102.793757,106.392269 98.6057873,104.935503 95.4644661,101.794182 C92.3231449,98.6528606 90.8663794,94.4648907 91.0941696,90.3528176 C95.2062427,90.1250273 99.3942127,91.5817928 102.535534,94.723114 C105.676855,97.8644352 107.133621,102.052405 106.90583,106.164478 L106.90583,106.164478 Z M106.90583,120.36446 C102.793757,120.59225 98.6057873,119.135485 95.4644661,115.994164 C92.3231449,112.852842 90.8663794,108.664872 91.0941696,104.552799 C95.2062427,104.325009 99.3942127,105.781774 102.535534,108.923096 C105.676855,112.064417 107.133621,116.252387 106.90583,120.36446 L106.90583,120.36446 Z M93.7172275,128 C91.7882897,125.207441 90.9139371,121.906366 91.0941696,118.652805 C95.2062427,118.425015 99.3942127,119.881781 102.535534,123.023102 C104.004003,124.491571 105.104352,126.188762 105.836579,128 L93.7172275,128 L93.7172275,128 Z M95.4644661,16.5941696 C92.3231449,13.4528484 90.8663794,9.26487846 91.0941696,5.15280535 C95.2062427,4.92501511 99.3942127,6.3817806 102.535534,9.52310181 C105.676855,12.664423 107.133621,16.852393 106.90583,20.9644661 C102.793757,21.1922563 98.6057873,19.7354908 95.4644661,16.5941696 Z M93.7172275,2.36588527e-13 C94.2262133,0.736867951 94.8086261,1.43832967 95.4644661,2.09416963 C98.6057873,5.23549084 102.793757,6.69225633 106.90583,6.46446609 L106.90583,6.46446609 C107.027136,4.27465855 106.670719,2.06332746 105.836579,0 L93.7172275,4.34097203e-14 L93.7172275,2.36588527e-13 Z" id="Oval-113-Copy" sketch:type="MSShapeGroup" transform="translate(107.000000, 64.000000) rotate(-180.000000) translate(-107.000000, -64.000000) "></path>
                <path d="M64.0936677,35.1646466 C68.2055451,35.392426 72.3933157,33.9357299 75.5344874,30.7945582 C78.6756591,27.6533865 80.1323552,23.4656159 79.9045758,19.3537385 C75.7926984,19.1259592 71.6049278,20.5826553 68.4637562,23.723827 C65.3225845,26.8649986 63.8658884,31.0527692 64.0936677,35.1646466 L64.0936677,35.1646466 Z M64.0941696,49.36446 C68.2062427,49.5922502 72.3942127,48.1354847 75.5355339,44.9941635 C78.6768551,41.8528423 80.1336206,37.6648724 79.9058304,33.5527992 C75.7937573,33.325009 71.6057873,34.7817745 68.4644661,37.9230957 C65.3231449,41.0644169 63.8663794,45.2523869 64.0941696,49.36446 L64.0941696,49.36446 Z M64.0941696,63.5644722 C68.2062427,63.7922624 72.3942127,62.3354969 75.5355339,59.1941757 C78.6768551,56.0528545 80.1336206,51.8648846 79.9058304,47.7528115 C75.7937573,47.5250212 71.6057873,48.9817867 68.4644661,52.1231079 C65.3231449,55.2644291 63.8663794,59.4523991 64.0941696,63.5644722 L64.0941696,63.5644722 Z M64.0941696,77.7644539 C68.2062427,77.9922441 72.3942127,76.5354786 75.5355339,73.3941574 C78.6768551,70.2528362 80.1336206,66.0648663 79.9058304,61.9527931 C75.7937573,61.7250029 71.6057873,63.1817684 68.4644661,66.3230896 C65.3231449,69.4644108 63.8663794,73.6523808 64.0941696,77.7644539 L64.0941696,77.7644539 Z M64.0941696,91.9644661 C68.2062427,92.1922563 72.3942127,90.7354908 75.5355339,87.5941696 C78.6768551,84.4528484 80.1336206,80.2648785 79.9058304,76.1528053 C75.7937573,75.9250151 71.6057873,77.3817806 68.4644661,80.5231018 C65.3231449,83.664423 63.8663794,87.852393 64.0941696,91.9644661 L64.0941696,91.9644661 Z M64.0941696,106.164478 C68.2062427,106.392269 72.3942127,104.935503 75.5355339,101.794182 C78.6768551,98.6528606 80.1336206,94.4648907 79.9058304,90.3528176 C75.7937573,90.1250273 71.6057873,91.5817928 68.4644661,94.723114 C65.3231449,97.8644352 63.8663794,102.052405 64.0941696,106.164478 L64.0941696,106.164478 Z M64.0941696,120.36446 C68.2062427,120.59225 72.3942127,119.135485 75.5355339,115.994164 C78.6768551,112.852842 80.1336206,108.664872 79.9058304,104.552799 C75.7937573,104.325009 71.6057873,105.781774 68.4644661,108.923096 C65.3231449,112.064417 63.8663794,116.252387 64.0941696,120.36446 L64.0941696,120.36446 Z M77.2827725,128 C79.2117103,125.207441 80.0860629,121.906366 79.9058304,118.652805 C75.7937573,118.425015 71.6057873,119.881781 68.4644661,123.023102 C66.9959967,124.491571 65.8956482,126.188762 65.1634206,128 L77.2827725,128 L77.2827725,128 Z M75.5355339,16.5941696 C78.6768551,13.4528484 80.1336206,9.26487846 79.9058304,5.15280535 C75.7937573,4.92501511 71.6057873,6.3817806 68.4644661,9.52310181 C65.3231449,12.664423 63.8663794,16.852393 64.0941696,20.9644661 C68.2062427,21.1922563 72.3942127,19.7354908 75.5355339,16.5941696 Z M77.2827725,4.17443857e-14 C76.7737867,0.736867951 76.1913739,1.43832967 75.5355339,2.09416963 C72.3942127,5.23549084 68.2062427,6.69225633 64.0941696,6.46446609 L64.0941696,6.46446609 C63.9728642,4.27465855 64.3292812,2.06332746 65.1634206,0 L77.2827725,4.21884749e-14 L77.2827725,4.17443857e-14 Z M63.9063323,35.1646466 C59.7944549,35.392426 55.6066843,33.9357299 52.4655126,30.7945582 C49.3243409,27.6533865 47.8676448,23.4656159 48.0954242,19.3537385 C52.2073016,19.1259592 56.3950722,20.5826553 59.5362438,23.723827 C62.6774155,26.8649986 64.1341116,31.0527692 63.9063323,35.1646466 L63.9063323,35.1646466 Z M63.9058304,49.36446 C59.7937573,49.5922502 55.6057873,48.1354847 52.4644661,44.9941635 C49.3231449,41.8528423 47.8663794,37.6648724 48.0941696,33.5527992 C52.2062427,33.325009 56.3942127,34.7817745 59.5355339,37.9230957 C62.6768551,41.0644169 64.1336206,45.2523869 63.9058304,49.36446 L63.9058304,49.36446 Z M63.9058304,63.5644722 C59.7937573,63.7922624 55.6057873,62.3354969 52.4644661,59.1941757 C49.3231449,56.0528545 47.8663794,51.8648846 48.0941696,47.7528115 C52.2062427,47.5250212 56.3942127,48.9817867 59.5355339,52.1231079 C62.6768551,55.2644291 64.1336206,59.4523991 63.9058304,63.5644722 L63.9058304,63.5644722 Z M63.9058304,77.7644539 C59.7937573,77.9922441 55.6057873,76.5354786 52.4644661,73.3941574 C49.3231449,70.2528362 47.8663794,66.0648663 48.0941696,61.9527931 C52.2062427,61.7250029 56.3942127,63.1817684 59.5355339,66.3230896 C62.6768551,69.4644108 64.1336206,73.6523808 63.9058304,77.7644539 L63.9058304,77.7644539 Z M63.9058304,91.9644661 C59.7937573,92.1922563 55.6057873,90.7354908 52.4644661,87.5941696 C49.3231449,84.4528484 47.8663794,80.2648785 48.0941696,76.1528053 C52.2062427,75.9250151 56.3942127,77.3817806 59.5355339,80.5231018 C62.6768551,83.664423 64.1336206,87.852393 63.9058304,91.9644661 L63.9058304,91.9644661 Z M63.9058304,106.164478 C59.7937573,106.392269 55.6057873,104.935503 52.4644661,101.794182 C49.3231449,98.6528606 47.8663794,94.4648907 48.0941696,90.3528176 C52.2062427,90.1250273 56.3942127,91.5817928 59.5355339,94.723114 C62.6768551,97.8644352 64.1336206,102.052405 63.9058304,106.164478 L63.9058304,106.164478 Z M63.9058304,120.36446 C59.7937573,120.59225 55.6057873,119.135485 52.4644661,115.994164 C49.3231449,112.852842 47.8663794,108.664872 48.0941696,104.552799 C52.2062427,104.325009 56.3942127,105.781774 59.5355339,108.923096 C62.6768551,112.064417 64.1336206,116.252387 63.9058304,120.36446 L63.9058304,120.36446 Z M50.7172275,128 C48.7882897,125.207441 47.9139371,121.906366 48.0941696,118.652805 C52.2062427,118.425015 56.3942127,119.881781 59.5355339,123.023102 C61.0040033,124.491571 62.1043518,126.188762 62.8365794,128 L50.7172275,128 L50.7172275,128 Z M52.4644661,16.5941696 C49.3231449,13.4528484 47.8663794,9.26487846 48.0941696,5.15280535 C52.2062427,4.92501511 56.3942127,6.3817806 59.5355339,9.52310181 C62.6768551,12.664423 64.1336206,16.852393 63.9058304,20.9644661 C59.7937573,21.1922563 55.6057873,19.7354908 52.4644661,16.5941696 Z M50.7172275,2.36588527e-13 C51.2262133,0.736867951 51.8086261,1.43832967 52.4644661,2.09416963 C55.6057873,5.23549084 59.7937573,6.69225633 63.9058304,6.46446609 L63.9058304,6.46446609 C64.0271358,4.27465855 63.6707188,2.06332746 62.8365794,0 L50.7172275,4.34097203e-14 L50.7172275,2.36588527e-13 Z" id="Oval-113-Copy" sketch:type="MSShapeGroup" transform="translate(64.000000, 64.000000) rotate(-180.000000) translate(-64.000000, -64.000000) "></path>
                <path d="M21.0936677,35.1646466 C25.2055451,35.392426 29.3933157,33.9357299 32.5344874,30.7945582 C35.6756591,27.6533865 37.1323552,23.4656159 36.9045758,19.3537385 C32.7926984,19.1259592 28.6049278,20.5826553 25.4637562,23.723827 C22.3225845,26.8649986 20.8658884,31.0527692 21.0936677,35.1646466 L21.0936677,35.1646466 Z M21.0941696,49.36446 C25.2062427,49.5922502 29.3942127,48.1354847 32.5355339,44.9941635 C35.6768551,41.8528423 37.1336206,37.6648724 36.9058304,33.5527992 C32.7937573,33.325009 28.6057873,34.7817745 25.4644661,37.9230957 C22.3231449,41.0644169 20.8663794,45.2523869 21.0941696,49.36446 L21.0941696,49.36446 Z M21.0941696,63.5644722 C25.2062427,63.7922624 29.3942127,62.3354969 32.5355339,59.1941757 C35.6768551,56.0528545 37.1336206,51.8648846 36.9058304,47.7528115 C32.7937573,47.5250212 28.6057873,48.9817867 25.4644661,52.1231079 C22.3231449,55.2644291 20.8663794,59.4523991 21.0941696,63.5644722 L21.0941696,63.5644722 Z M21.0941696,77.7644539 C25.2062427,77.9922441 29.3942127,76.5354786 32.5355339,73.3941574 C35.6768551,70.2528362 37.1336206,66.0648663 36.9058304,61.9527931 C32.7937573,61.7250029 28.6057873,63.1817684 25.4644661,66.3230896 C22.3231449,69.4644108 20.8663794,73.6523808 21.0941696,77.7644539 L21.0941696,77.7644539 Z M21.0941696,91.9644661 C25.2062427,92.1922563 29.3942127,90.7354908 32.5355339,87.5941696 C35.6768551,84.4528484 37.1336206,80.2648785 36.9058304,76.1528053 C32.7937573,75.9250151 28.6057873,77.3817806 25.4644661,80.5231018 C22.3231449,83.664423 20.8663794,87.852393 21.0941696,91.9644661 L21.0941696,91.9644661 Z M21.0941696,106.164478 C25.2062427,106.392269 29.3942127,104.935503 32.5355339,101.794182 C35.6768551,98.6528606 37.1336206,94.4648907 36.9058304,90.3528176 C32.7937573,90.1250273 28.6057873,91.5817928 25.4644661,94.723114 C22.3231449,97.8644352 20.8663794,102.052405 21.0941696,106.164478 L21.0941696,106.164478 Z M21.0941696,120.36446 C25.2062427,120.59225 29.3942127,119.135485 32.5355339,115.994164 C35.6768551,112.852842 37.1336206,108.664872 36.9058304,104.552799 C32.7937573,104.325009 28.6057873,105.781774 25.4644661,108.923096 C22.3231449,112.064417 20.8663794,116.252387 21.0941696,120.36446 L21.0941696,120.36446 Z M34.2827725,128 C36.2117103,125.207441 37.0860629,121.906366 36.9058304,118.652805 C32.7937573,118.425015 28.6057873,119.881781 25.4644661,123.023102 C23.9959967,124.491571 22.8956482,126.188762 22.1634206,128 L34.2827725,128 L34.2827725,128 Z M32.5355339,16.5941696 C35.6768551,13.4528484 37.1336206,9.26487846 36.9058304,5.15280535 C32.7937573,4.92501511 28.6057873,6.3817806 25.4644661,9.52310181 C22.3231449,12.664423 20.8663794,16.852393 21.0941696,20.9644661 C25.2062427,21.1922563 29.3942127,19.7354908 32.5355339,16.5941696 Z M34.2827725,4.17443857e-14 C33.7737867,0.736867951 33.1913739,1.43832967 32.5355339,2.09416963 C29.3942127,5.23549084 25.2062427,6.69225633 21.0941696,6.46446609 L21.0941696,6.46446609 C20.9728642,4.27465855 21.3292812,2.06332746 22.1634206,0 L34.2827725,4.21884749e-14 L34.2827725,4.17443857e-14 Z M20.9063323,35.1646466 C16.7944549,35.392426 12.6066843,33.9357299 9.46551262,30.7945582 C6.32434095,27.6533865 4.86764481,23.4656159 5.0954242,19.3537385 C9.20730156,19.1259592 13.3950722,20.5826553 16.5362438,23.723827 C19.6774155,26.8649986 21.1341116,31.0527692 20.9063323,35.1646466 L20.9063323,35.1646466 Z M20.9058304,49.36446 C16.7937573,49.5922502 12.6057873,48.1354847 9.46446609,44.9941635 C6.32314488,41.8528423 4.86637939,37.6648724 5.09416963,33.5527992 C9.20624274,33.325009 13.3942127,34.7817745 16.5355339,37.9230957 C19.6768551,41.0644169 21.1336206,45.2523869 20.9058304,49.36446 L20.9058304,49.36446 Z M20.9058304,63.5644722 C16.7937573,63.7922624 12.6057873,62.3354969 9.46446609,59.1941757 C6.32314488,56.0528545 4.86637939,51.8648846 5.09416963,47.7528115 C9.20624274,47.5250212 13.3942127,48.9817867 16.5355339,52.1231079 C19.6768551,55.2644291 21.1336206,59.4523991 20.9058304,63.5644722 L20.9058304,63.5644722 Z M20.9058304,77.7644539 C16.7937573,77.9922441 12.6057873,76.5354786 9.46446609,73.3941574 C6.32314488,70.2528362 4.86637939,66.0648663 5.09416963,61.9527931 C9.20624274,61.7250029 13.3942127,63.1817684 16.5355339,66.3230896 C19.6768551,69.4644108 21.1336206,73.6523808 20.9058304,77.7644539 L20.9058304,77.7644539 Z M20.9058304,91.9644661 C16.7937573,92.1922563 12.6057873,90.7354908 9.46446609,87.5941696 C6.32314488,84.4528484 4.86637939,80.2648785 5.09416963,76.1528053 C9.20624274,75.9250151 13.3942127,77.3817806 16.5355339,80.5231018 C19.6768551,83.664423 21.1336206,87.852393 20.9058304,91.9644661 L20.9058304,91.9644661 Z M20.9058304,106.164478 C16.7937573,106.392269 12.6057873,104.935503 9.46446609,101.794182 C6.32314488,98.6528606 4.86637939,94.4648907 5.09416963,90.3528176 C9.20624274,90.1250273 13.3942127,91.5817928 16.5355339,94.723114 C19.6768551,97.8644352 21.1336206,102.052405 20.9058304,106.164478 L20.9058304,106.164478 Z M20.9058304,120.36446 C16.7937573,120.59225 12.6057873,119.135485 9.46446609,115.994164 C6.32314488,112.852842 4.86637939,108.664872 5.09416963,104.552799 C9.20624274,104.325009 13.3942127,105.781774 16.5355339,108.923096 C19.6768551,112.064417 21.1336206,116.252387 20.9058304,120.36446 L20.9058304,120.36446 Z M7.71722755,128 C5.78828971,125.207441 4.91393707,121.906366 5.09416963,118.652805 C9.20624274,118.425015 13.3942127,119.881781 16.5355339,123.023102 C18.0040033,124.491571 19.1043518,126.188762 19.8365794,128 L7.71722755,128 L7.71722755,128 Z M9.46446609,16.5941696 C6.32314488,13.4528484 4.86637939,9.26487846 5.09416963,5.15280535 C9.20624274,4.92501511 13.3942127,6.3817806 16.5355339,9.52310181 C19.6768551,12.664423 21.1336206,16.852393 20.9058304,20.9644661 C16.7937573,21.1922563 12.6057873,19.7354908 9.46446609,16.5941696 Z M7.71722755,2.36588527e-13 C8.22621329,0.736867951 8.80862614,1.43832967 9.46446609,2.09416963 C12.6057873,5.23549084 16.7937573,6.69225633 20.9058304,6.46446609 L20.9058304,6.46446609 C21.0271358,4.27465855 20.6707188,2.06332746 19.8365794,0 L7.71722755,4.34097203e-14 L7.71722755,2.36588527e-13 Z" id="Oval-113-Copy" sketch:type="MSShapeGroup" transform="translate(21.000000, 64.000000) rotate(-180.000000) translate(-21.000000, -64.000000) "></path>
            </g>
        </g>
    </g>
</svg>