<?xml version="1.0" encoding="UTF-8" standalone="no"?>
<svg width="128px" height="128px" viewBox="0 0 128 128" version="1.1" xmlns="http://www.w3.org/2000/svg" xmlns:xlink="http://www.w3.org/1999/xlink" xmlns:sketch="http://www.bohemiancoding.com/sketch/ns">
    <!-- Generator: Sketch 3.4.2 (15857) - http://www.bohemiancoding.com/sketch -->
    <title></title>
    <desc>Created with Sketch.</desc>
    <defs></defs>
    <g id="Tileset" stroke="none" stroke-width="1" fill="none" fill-rule="evenodd" sketch:type="MSPage">
        <g id="nature" sketch:type="MSArtboardGroup" transform="translate(-1408.000000, 0.000000)">
            <g id="Nature-Roots-01" sketch:type="MSLayerGroup" transform="translate(1408.000000, 0.000000)">
                <rect id="Mask" sketch:type="MSShapeGroup" x="0" y="0" width="128" height="128"></rect>
                <path d="M18.6662324,0.00999999978 C15.186829,12.6459976 21.0767022,21.7519788 35.34822,29.5994613 C37.0797193,30.5515612 38.7193749,31.5810591 40.2606001,32.6748621 C40.6466569,32.7502728 41.0280436,32.8843636 41.3925182,33.0808018 C46.4501567,35.8066804 53.2083658,33.1739827 55.5104862,26.848959 C56.2660562,24.7730474 58.5614256,23.7026991 60.6373372,24.4582691 C62.7132488,25.2138391 63.7835972,27.5092085 63.0280271,29.5851202 C60.6857497,36.0204744 55.5004188,40.2974251 49.714135,41.6730663 L49.714135,41.6730663 C55.2806088,48.934098 57.4337009,57.1560434 55.1020885,64.2093891 C54.235377,66.8312724 51.4073121,68.2541204 48.7854288,67.3874089 C46.1635454,66.5206974 44.7406975,63.6926325 45.607409,61.0707491 C47.6963775,54.7514239 42.1235896,44.737122 30.5299057,38.3621006 C28.7509214,37.3838901 27.0653935,36.3712309 25.4769853,35.3234346 C25.1353545,39.2913393 23.6930349,42.7966834 21.2370856,45.667068 C17.3913175,50.1617998 11.395159,52.5776713 5.37882301,52.4038186 C3.17060578,52.3400082 1.43222052,50.498166 1.49603087,48.2899487 C1.55984121,46.0817315 3.40168348,44.3433462 5.60990072,44.4071566 C9.30095924,44.5138163 12.9547042,43.0417107 15.1584516,40.4660865 C17.5699553,37.6476476 18.300001,33.5789844 16.7572315,28.2186577 C9.20192216,20.4258461 6.07283304,11.0867016 8.37189015,0.00999999978 L18.6662324,0.00999999978 L18.6662324,0.00999999978 Z M107.644751,0.0100000015 C120.28475,16.8988146 116.697196,32.3246512 99.9611238,49.0493425 C97.6364912,51.3723944 95.5532288,53.8004952 93.7180133,56.2919916 L93.7180133,56.2919916 C93.5022573,56.3841654 93.2916379,56.4966806 93.0886807,56.6300596 C86.7876772,60.7709384 78.8658052,60.9557484 70.1974145,57.3202945 C68.1601859,56.4658971 65.8160599,57.4247713 64.9616625,59.4619998 C64.1072651,61.4992284 65.0661392,63.8433544 67.1033678,64.6977518 C74.0964035,67.6305751 80.981996,68.5908744 87.3149222,67.4141987 C82.5616252,78.5853799 82.6114527,89.811304 88.001554,97.7410275 C89.5539145,100.024805 92.6637185,100.617735 94.9474956,99.0653743 C97.2312727,97.5130137 97.824203,94.4032097 96.2718424,92.1194326 C90.8717369,84.1749913 94.3816969,68.7623035 107.029786,56.1228149 C107.973028,55.1802149 108.882353,54.235699 109.757146,53.2892785 C110.972626,58.0565213 113.685343,61.7391463 117.638523,64.0558689 C119.544481,65.1728373 121.995048,64.5332345 123.112016,62.6272763 C124.228984,60.721318 123.589382,58.2707518 121.683423,57.1537835 C118.459753,55.2645827 116.709529,51.5910004 117.079981,45.751196 C117.110538,45.2694902 117.054511,44.8022996 116.925281,44.3648183 L116.925281,44.3648183 C126.723515,29.9876087 128.313437,15.1897278 119.610648,0.00999999978 L107.644752,0.00999999978 L107.644751,0.0100000015 Z" id="Shape" fill="#C99951" sketch:type="MSShapeGroup"></path>
                <path d="M93.1574961,0.00999999978 C95.2607297,9.36720814 92.6794442,19.8322492 86.1626276,25.0207392 C84.4343552,26.3967368 81.9178471,26.1111617 80.5418494,24.3828892 C79.1658518,22.6546168 79.4514269,20.1381087 81.1796994,18.762111 C85.5086753,15.3155128 87.0987215,6.90681052 84.8751328,0.00999999978 L93.1574961,0.00999999978 L93.1574961,0.00999999978 Z" id="Shape" fill="#AC7849" sketch:type="MSShapeGroup"></path>
            </g>
        </g>
    </g>
</svg>