<?xml version="1.0" encoding="UTF-8" standalone="no"?>
<svg width="128px" height="128px" viewBox="0 0 128 128" version="1.1" xmlns="http://www.w3.org/2000/svg" xmlns:xlink="http://www.w3.org/1999/xlink" xmlns:sketch="http://www.bohemiancoding.com/sketch/ns">
    <!-- Generator: Sketch 3.4.2 (15857) - http://www.bohemiancoding.com/sketch -->
    <title></title>
    <desc>Created with Sketch.</desc>
    <defs>
        <rect id="path-1" x="0" y="0" width="128" height="128"></rect>
    </defs>
    <g id="Tileset" stroke="none" stroke-width="1" fill="none" fill-rule="evenodd" sketch:type="MSPage">
        <g id="nature" sketch:type="MSArtboardGroup" transform="translate(-1664.000000, -256.000000)">
            <g id="Nature-Palm-05" sketch:type="MSLayerGroup" transform="translate(1664.000000, 256.000000)">
                <g id="Rectangle-1-Copy-11-+-Oval-432">
                    <mask id="mask-2" sketch:name="Mask" fill="white">
                        <use xlink:href="#path-1"></use>
                    </mask>
                    <use id="Mask" sketch:type="MSShapeGroup" xlink:href="#path-1"></use>
                    <rect id="Rectangle-1-Copy-12" fill="#AD765F" sketch:type="MSShapeGroup" mask="url(#mask-2)" x="58" y="106" width="12" height="22"></rect>
                    <rect id="Rectangle-1-Copy-11" fill="#936956" sketch:type="MSShapeGroup" mask="url(#mask-2)" x="58" y="106" width="12" height="8"></rect>
                    <path d="M64,107.07114 C57.3185089,108.910882 49.0305715,110 40.0533738,110 C29.1314447,110 19.229751,108.387899 12,105.773273 L12,105.773273 C19.229751,103.158648 29.1314447,101.546547 40.0533738,101.546547 C44.834871,101.546547 49.4208311,101.85552 53.6726655,102.42232 C49.2895184,100.663071 44.6821439,98.4091325 40.0533738,95.6968642 C30.5947057,90.1544748 22.813796,83.7336887 17.8407547,77.8005819 L17.8407547,77.8005819 C25.3900095,79.2050241 34.7593364,82.8335693 44.2180044,88.3759587 C50.3250308,91.9544244 55.7326517,95.8990663 60.1366945,99.842201 C56.4241538,95.4848319 52.7249151,90.2096535 49.3552153,84.2861382 C43.8942508,74.6864382 40.3190135,65.1774115 38.9352044,57.5155947 L38.9352044,57.5155947 C44.7811462,62.5627857 51.1076026,70.4597114 56.5685672,80.0594115 C57.8749157,82.3558105 59.073355,84.6470208 60.1597005,86.9089973 C59.9848405,84.4833777 59.8932525,81.9779216 59.8932525,79.4149775 C59.8932525,68.7415931 61.4816696,59.0652272 64.0578831,52 L64.0578831,52 C66.6340966,59.0652272 68.2225138,68.7415931 68.2225138,79.4149775 C68.2225138,81.8789355 68.1378638,84.2897604 67.9759529,86.6275945 C69.0261729,84.457086 70.1792281,82.2606325 71.4314328,80.0594115 C76.8923974,70.4597114 83.2188538,62.5627857 89.0647956,57.5155947 L89.0647956,57.5155947 C87.6809865,65.1774115 84.1057492,74.6864382 78.6447847,84.2861382 C75.2750849,90.2096535 71.5758462,95.4848319 67.8633055,99.842201 C72.2673483,95.8990663 77.6749692,91.9544244 83.7819956,88.3759587 C93.2406636,82.8335693 102.60999,79.2050241 110.159245,77.8005819 L110.159245,77.8005819 C105.186204,83.7336887 97.4052943,90.1544748 87.9466262,95.6968642 C83.3178554,98.409133 78.7104801,100.663072 74.3273324,102.422321 C78.5791689,101.85552 83.1651289,101.546547 87.9466262,101.546547 C98.8685553,101.546547 108.770249,103.158648 116,105.773273 L116,105.773273 C108.770249,108.387899 98.8685553,110 87.9466262,110 C78.9694285,110 70.6814911,108.910882 64,107.07114 Z" id="Oval-432" fill="#739B64" sketch:type="MSShapeGroup" mask="url(#mask-2)"></path>
                </g>
            </g>
        </g>
    </g>
</svg>