<?xml version="1.0" encoding="UTF-8" standalone="no"?>
<svg width="128px" height="128px" viewBox="0 0 128 128" version="1.1" xmlns="http://www.w3.org/2000/svg" xmlns:xlink="http://www.w3.org/1999/xlink" xmlns:sketch="http://www.bohemiancoding.com/sketch/ns">
    <!-- Generator: Sketch 3.4.2 (15857) - http://www.bohemiancoding.com/sketch -->
    <title></title>
    <desc>Created with Sketch.</desc>
    <defs></defs>
    <g id="Tileset" stroke="none" stroke-width="1" fill="none" fill-rule="evenodd" sketch:type="MSPage">
        <g id="nature" sketch:type="MSArtboardGroup" transform="translate(-640.000000, 0.000000)">
            <g id="Nature-Plant-A-01" sketch:type="MSLayerGroup" transform="translate(640.000000, 0.000000)">
                <rect id="Rectangle-5310" sketch:type="MSShapeGroup" x="0" y="0" width="128" height="128"></rect>
                <path d="M54.7088411,92.5468093 C61.1334406,88.837565 52.8140071,62.400137 49.0524651,55.8849551 C45.2909231,49.3697732 37.0334238,47.0951113 30.6088242,50.8043556 C24.1842247,54.5135999 22.0253901,62.802135 25.7869321,69.3173169 C29.5484741,75.8324988 48.2842416,96.2560536 54.7088411,92.5468093 Z" id="Oval-1161" fill="#9BCA6A" sketch:type="MSShapeGroup"></path>
                <path d="M71.2911589,92.5468093 C77.7157584,96.2560536 96.4515259,75.8324988 100.213068,69.3173169 C103.97461,62.802135 101.815775,54.5135999 95.3911758,50.8043556 C88.9665762,47.0951113 80.7090769,49.3697732 76.9475349,55.8849551 C73.1859929,62.400137 64.8665594,88.837565 71.2911589,92.5468093 Z" id="Oval-1161-Copy" fill="#9BCA6A" sketch:type="MSShapeGroup"></path>
                <path d="M35,118 C43.836556,118 51,86.0052826 51,77.1086957 C51,68.2121087 43.836556,61 35,61 C26.163444,61 19,68.2121087 19,77.1086957 C19,86.0052826 26.163444,118 35,118 Z" id="Oval-1161-Copy-3" fill="#B8E986" sketch:type="MSShapeGroup" transform="translate(35.000000, 89.500000) rotate(-60.000000) translate(-35.000000, -89.500000) "></path>
                <path d="M92,118 C100.836556,118 108,86.0052826 108,77.1086957 C108,68.2121087 100.836556,61 92,61 C83.163444,61 76,68.2121087 76,77.1086957 C76,86.0052826 83.163444,118 92,118 Z" id="Oval-1161-Copy-4" fill="#B8E986" sketch:type="MSShapeGroup" transform="translate(92.000000, 89.500000) rotate(-300.000000) translate(-92.000000, -89.500000) "></path>
                <path d="M63.5,103 C73.0269119,103 80.75,65.9534851 80.75,55.6521739 C80.75,45.3508627 73.0269119,37 63.5,37 C53.9730881,37 46.25,45.3508627 46.25,55.6521739 C46.25,65.9534851 53.9730881,103 63.5,103 Z" id="Oval-1161-Copy-2" fill="#B8E986" sketch:type="MSShapeGroup"></path>
                <path d="M85,128 C85,116.307728 69.0483871,100 63.5,100 C57.9516129,100 42,116.307728 42,128 L85,128 Z" id="Oval-1163" fill="#B9906C" sketch:type="MSShapeGroup"></path>
                <path d="M79.6585831,114 C74.4976523,106.36886 66.9673755,100 63.5,100 C60.0326245,100 52.5023477,106.36886 47.3414169,114 L79.6585831,114 Z" id="Oval-1163-Copy" fill="#AD765F" sketch:type="MSShapeGroup"></path>
            </g>
        </g>
    </g>
</svg>