<?xml version="1.0" encoding="UTF-8" standalone="no"?>
<svg width="128px" height="128px" viewBox="0 0 128 128" version="1.1" xmlns="http://www.w3.org/2000/svg" xmlns:xlink="http://www.w3.org/1999/xlink" xmlns:sketch="http://www.bohemiancoding.com/sketch/ns">
    <!-- Generator: Sketch 3.4.2 (15857) - http://www.bohemiancoding.com/sketch -->
    <title></title>
    <desc>Created with Sketch.</desc>
    <defs></defs>
    <g id="Tileset" stroke="none" stroke-width="1" fill="none" fill-rule="evenodd" sketch:type="MSPage">
        <g id="nature" sketch:type="MSArtboardGroup" transform="translate(-896.000000, -384.000000)" fill="#9BCA6A">
            <g id="Nature-Liana-01" sketch:type="MSLayerGroup" transform="translate(896.000000, 384.000000)">
                <path d="M29,26.6218968 C32.0687468,23.8752941 34,19.8838633 34,15.4413643 C34,10.9988652 32.0687468,7.00743451 29,4.26083174 C25.9312532,7.00743451 24,10.9988652 24,15.4413643 C24,19.8838633 25.9312532,23.8752941 29,26.6218968 L29,26.6218968 Z" id="Oval-113" sketch:type="MSShapeGroup" transform="translate(29.000000, 15.441364) rotate(-225.000000) translate(-29.000000, -15.441364) "></path>
                <path d="M13,26.6218968 C16.0687468,23.8752941 18,19.8838633 18,15.4413643 C18,10.9988652 16.0687468,7.00743451 13,4.26083174 C9.9312532,7.00743451 8,10.9988652 8,15.4413643 C8,19.8838633 9.9312532,23.8752941 13,26.6218968 L13,26.6218968 Z" id="Oval-113-Copy" sketch:type="MSShapeGroup" transform="translate(13.000000, 15.441364) rotate(-135.000000) translate(-13.000000, -15.441364) "></path>
                <path d="M24.7979121,9.33896637 C22.8888313,6.55519953 22.0239629,3.27063231 22.2033069,0.0331115798 C26.31538,-0.194678655 30.5033499,1.26208683 33.6446711,4.40340805 C35.101963,5.86069994 36.1967167,7.54324419 36.9289322,9.33896637 L24.7979121,9.33896637 L24.7979121,9.33896637 Z" id="Oval-113-Copy-6" sketch:type="MSShapeGroup" transform="translate(29.554569, 4.674488) rotate(-180.000000) translate(-29.554569, -4.674488) "></path>
                <path d="M17.2020879,9.33896637 L5.07106781,9.33896637 C5.80328329,7.54324419 6.89803697,5.86069994 8.35532886,4.40340805 C11.4966501,1.26208683 15.68462,-0.194678655 19.7966931,0.0331115798 C19.9760371,3.27063231 19.1111687,6.55519953 17.2020879,9.33896637 L17.2020879,9.33896637 Z" id="Mask-Copy-3" sketch:type="MSShapeGroup" transform="translate(12.445431, 4.674488) rotate(-180.000000) translate(-12.445431, -4.674488) "></path>
                <path d="M29,40.6218968 C32.0687468,37.8752941 34,33.8838633 34,29.4413643 C34,24.9988652 32.0687468,21.0074345 29,18.2608317 C25.9312532,21.0074345 24,24.9988652 24,29.4413643 C24,33.8838633 25.9312532,37.8752941 29,40.6218968 L29,40.6218968 Z" id="Oval-113-Copy-19" sketch:type="MSShapeGroup" transform="translate(29.000000, 29.441364) rotate(-225.000000) translate(-29.000000, -29.441364) "></path>
                <path d="M13,40.6218968 C16.0687468,37.8752941 18,33.8838633 18,29.4413643 C18,24.9988652 16.0687468,21.0074345 13,18.2608317 C9.9312532,21.0074345 8,24.9988652 8,29.4413643 C8,33.8838633 9.9312532,37.8752941 13,40.6218968 L13,40.6218968 Z" id="Oval-113-Copy-10" sketch:type="MSShapeGroup" transform="translate(13.000000, 29.441364) rotate(-135.000000) translate(-13.000000, -29.441364) "></path>
                <path d="M29,54.6218968 C32.0687468,51.8752941 34,47.8838633 34,43.4413643 C34,38.9988652 32.0687468,35.0074345 29,32.2608317 C25.9312532,35.0074345 24,38.9988652 24,43.4413643 C24,47.8838633 25.9312532,51.8752941 29,54.6218968 L29,54.6218968 Z" id="Oval-113-Copy-29" sketch:type="MSShapeGroup" transform="translate(29.000000, 43.441364) rotate(-225.000000) translate(-29.000000, -43.441364) "></path>
                <path d="M13,54.6218968 C16.0687468,51.8752941 18,47.8838633 18,43.4413643 C18,38.9988652 16.0687468,35.0074345 13,32.2608317 C9.9312532,35.0074345 8,38.9988652 8,43.4413643 C8,47.8838633 9.9312532,51.8752941 13,54.6218968 L13,54.6218968 Z" id="Oval-113-Copy-20" sketch:type="MSShapeGroup" transform="translate(13.000000, 43.441364) rotate(-135.000000) translate(-13.000000, -43.441364) "></path>
                <path d="M28.3599849,65.3089967 C30.9793241,62.9646246 32.6277519,59.5577254 32.6277519,55.7658153 C32.6277519,51.9739051 30.9793241,48.5670059 28.3599849,46.2226338 C25.7406457,48.5670059 24.0922179,51.9739051 24.0922179,55.7658153 C24.0922179,59.5577254 25.7406457,62.9646246 28.3599849,65.3089967 L28.3599849,65.3089967 Z" id="Oval-113-Copy-39" sketch:type="MSShapeGroup" transform="translate(28.359985, 55.765815) rotate(-225.000000) translate(-28.359985, -55.765815) "></path>
                <path d="M13.6400151,65.3089967 C16.2593543,62.9646246 17.9077821,59.5577254 17.9077821,55.7658153 C17.9077821,51.9739051 16.2593543,48.5670059 13.6400151,46.2226338 C11.0206759,48.5670059 9.37224815,51.9739051 9.37224815,55.7658153 C9.37224815,59.5577254 11.0206759,62.9646246 13.6400151,65.3089967 L13.6400151,65.3089967 Z" id="Oval-113-Copy-30" sketch:type="MSShapeGroup" transform="translate(13.640015, 55.765815) rotate(-135.000000) translate(-13.640015, -55.765815) "></path>
                <path d="M21,75.5249525 C23.7618721,73.05301 25.5,69.4607223 25.5,65.4624732 C25.5,61.464224 23.7618721,57.8719364 21,55.3999939 C18.2381279,57.8719364 16.5,61.464224 16.5,65.4624732 C16.5,69.4607223 18.2381279,73.05301 21,75.5249525 L21,75.5249525 Z" id="Oval-113-Copy-40" sketch:type="MSShapeGroup" transform="translate(21.000000, 65.462473) rotate(-180.000000) translate(-21.000000, -65.462473) "></path>
                <path d="M79.9289322,9.33896637 C79.1967167,7.54324419 78.101963,5.86069994 76.6446711,4.40340805 C73.5033499,1.26208683 69.31538,-0.194678655 65.2033069,0.0331115798 C65.0239629,3.27063231 65.8888313,6.55519953 67.7979121,9.33896637 L79.9289322,9.33896637 L79.9289322,9.33896637 Z" id="Oval-113-Copy-19" sketch:type="MSShapeGroup" transform="translate(72.554569, 4.674488) rotate(-180.000000) translate(-72.554569, -4.674488) "></path>
                <path d="M60.2020879,9.33896637 C62.1111687,6.55519953 62.9760371,3.27063231 62.7966931,0.0331115798 C58.68462,-0.194678655 54.4966501,1.26208683 51.3553289,4.40340805 C49.898037,5.86069994 48.8032833,7.54324419 48.0710678,9.33896637 L60.2020879,9.33896637 L60.2020879,9.33896637 Z" id="Oval-113-Copy-10" sketch:type="MSShapeGroup" transform="translate(55.445431, 4.674488) rotate(-180.000000) translate(-55.445431, -4.674488) "></path>
                <path d="M72,26.580557 C75.0687468,23.8339542 77,19.8425235 77,15.4000244 C77,10.9575254 75.0687468,6.96609464 72,4.21949188 C68.9312532,6.96609464 67,10.9575254 67,15.4000244 C67,19.8425235 68.9312532,23.8339542 72,26.580557 L72,26.580557 Z" id="Oval-113-Copy-29" sketch:type="MSShapeGroup" transform="translate(72.000000, 15.400024) rotate(-225.000000) translate(-72.000000, -15.400024) "></path>
                <path d="M56,26.580557 C59.0687468,23.8339542 61,19.8425235 61,15.4000244 C61,10.9575254 59.0687468,6.96609464 56,4.21949188 C52.9312532,6.96609464 51,10.9575254 51,15.4000244 C51,19.8425235 52.9312532,23.8339542 56,26.580557 L56,26.580557 Z" id="Oval-113-Copy-20" sketch:type="MSShapeGroup" transform="translate(56.000000, 15.400024) rotate(-135.000000) translate(-56.000000, -15.400024) "></path>
                <path d="M71.3599849,37.2676569 C73.9793241,34.9232848 75.6277519,31.5163855 75.6277519,27.7244754 C75.6277519,23.9325653 73.9793241,20.5256661 71.3599849,18.181294 C68.7406457,20.5256661 67.0922179,23.9325653 67.0922179,27.7244754 C67.0922179,31.5163855 68.7406457,34.9232848 71.3599849,37.2676569 L71.3599849,37.2676569 Z" id="Oval-113-Copy-39" sketch:type="MSShapeGroup" transform="translate(71.359985, 27.724475) rotate(-225.000000) translate(-71.359985, -27.724475) "></path>
                <path d="M56.6400151,37.2676569 C59.2593543,34.9232848 60.9077821,31.5163855 60.9077821,27.7244754 C60.9077821,23.9325653 59.2593543,20.5256661 56.6400151,18.181294 C54.0206759,20.5256661 52.3722481,23.9325653 52.3722481,27.7244754 C52.3722481,31.5163855 54.0206759,34.9232848 56.6400151,37.2676569 L56.6400151,37.2676569 Z" id="Oval-113-Copy-30" sketch:type="MSShapeGroup" transform="translate(56.640015, 27.724475) rotate(-135.000000) translate(-56.640015, -27.724475) "></path>
                <path d="M64,47.4625037 C66.7618721,44.9905612 68.5,41.3982736 68.5,37.4000244 C68.5,33.4017753 66.7618721,29.8094876 64,27.3375451 C61.2381279,29.8094876 59.5,33.4017753 59.5,37.4000244 C59.5,41.3982736 61.2381279,44.9905612 64,47.4625037 L64,47.4625037 Z" id="Oval-113-Copy-40" sketch:type="MSShapeGroup" transform="translate(64.000000, 37.400024) rotate(-180.000000) translate(-64.000000, -37.400024) "></path>
                <path d="M115,40.580557 C118.068747,37.8339542 120,33.8425235 120,29.4000244 C120,24.9575254 118.068747,20.9660946 115,18.2194919 C111.931253,20.9660946 110,24.9575254 110,29.4000244 C110,33.8425235 111.931253,37.8339542 115,40.580557 L115,40.580557 Z" id="Oval-113" sketch:type="MSShapeGroup" transform="translate(115.000000, 29.400024) rotate(-225.000000) translate(-115.000000, -29.400024) "></path>
                <path d="M99,40.580557 C102.068747,37.8339542 104,33.8425235 104,29.4000244 C104,24.9575254 102.068747,20.9660946 99,18.2194919 C95.9312532,20.9660946 94,24.9575254 94,29.4000244 C94,33.8425235 95.9312532,37.8339542 99,40.580557 L99,40.580557 Z" id="Oval-113-Copy" sketch:type="MSShapeGroup" transform="translate(99.000000, 29.400024) rotate(-135.000000) translate(-99.000000, -29.400024) "></path>
                <path d="M120,15.4000244 C120,10.9575254 118.068747,6.96609464 115,4.21949188 C111.931253,6.96609464 110,10.9575254 110,15.4000244 C110,19.8425235 111.931253,23.8339542 115,26.580557 C118.068747,23.8339542 120,19.8425235 120,15.4000244 Z" id="Oval-113-Copy-6" sketch:type="MSShapeGroup" transform="translate(115.000000, 15.400024) rotate(-225.000000) translate(-115.000000, -15.400024) "></path>
                <path d="M99,26.580557 C102.068747,23.8339542 104,19.8425235 104,15.4000244 C104,10.9575254 102.068747,6.96609464 99,4.21949188 C95.9312532,6.96609464 94,10.9575254 94,15.4000244 C94,19.8425235 95.9312532,23.8339542 99,26.580557 L99,26.580557 Z" id="Oval-113-Copy-5" sketch:type="MSShapeGroup" transform="translate(99.000000, 15.400024) rotate(-135.000000) translate(-99.000000, -15.400024) "></path>
                <path d="M122.928932,9.33896637 C122.196717,7.54324419 121.101963,5.86069994 119.644671,4.40340805 C116.50335,1.26208683 112.31538,-0.194678655 108.203307,0.0331115798 C108.023963,3.27063231 108.888831,6.55519953 110.797912,9.33896637 L122.928932,9.33896637 L122.928932,9.33896637 Z" id="Oval-113-Copy-8" sketch:type="MSShapeGroup" transform="translate(115.554569, 4.674488) rotate(-180.000000) translate(-115.554569, -4.674488) "></path>
                <path d="M103.202088,9.33896637 C105.111169,6.55519953 105.976037,3.27063231 105.796693,0.0331115798 C101.68462,-0.194678655 97.4966501,1.26208683 94.3553289,4.40340805 C92.898037,5.86069994 91.8032833,7.54324419 91.0710678,9.33896637 L103.202088,9.33896637 L103.202088,9.33896637 Z" id="Oval-113-Copy-7" sketch:type="MSShapeGroup" transform="translate(98.445431, 4.674488) rotate(-180.000000) translate(-98.445431, -4.674488) "></path>
                <path d="M115,54.580557 C118.068747,51.8339542 120,47.8425235 120,43.4000244 C120,38.9575254 118.068747,34.9660946 115,32.2194919 C111.931253,34.9660946 110,38.9575254 110,43.4000244 C110,47.8425235 111.931253,51.8339542 115,54.580557 L115,54.580557 Z" id="Oval-113-Copy-19" sketch:type="MSShapeGroup" transform="translate(115.000000, 43.400024) rotate(-225.000000) translate(-115.000000, -43.400024) "></path>
                <path d="M99,54.580557 C102.068747,51.8339542 104,47.8425235 104,43.4000244 C104,38.9575254 102.068747,34.9660946 99,32.2194919 C95.9312532,34.9660946 94,38.9575254 94,43.4000244 C94,47.8425235 95.9312532,51.8339542 99,54.580557 L99,54.580557 Z" id="Oval-113-Copy-10" sketch:type="MSShapeGroup" transform="translate(99.000000, 43.400024) rotate(-135.000000) translate(-99.000000, -43.400024) "></path>
                <path d="M115,68.580557 C118.068747,65.8339542 120,61.8425235 120,57.4000244 C120,52.9575254 118.068747,48.9660946 115,46.2194919 C111.931253,48.9660946 110,52.9575254 110,57.4000244 C110,61.8425235 111.931253,65.8339542 115,68.580557 L115,68.580557 Z" id="Oval-113-Copy-29" sketch:type="MSShapeGroup" transform="translate(115.000000, 57.400024) rotate(-225.000000) translate(-115.000000, -57.400024) "></path>
                <path d="M99,68.580557 C102.068747,65.8339542 104,61.8425235 104,57.4000244 C104,52.9575254 102.068747,48.9660946 99,46.2194919 C95.9312532,48.9660946 94,52.9575254 94,57.4000244 C94,61.8425235 95.9312532,65.8339542 99,68.580557 L99,68.580557 Z" id="Oval-113-Copy-20" sketch:type="MSShapeGroup" transform="translate(99.000000, 57.400024) rotate(-135.000000) translate(-99.000000, -57.400024) "></path>
                <path d="M114.359985,79.2676569 C116.979324,76.9232848 118.627752,73.5163855 118.627752,69.7244754 C118.627752,65.9325653 116.979324,62.5256661 114.359985,60.181294 C111.740646,62.5256661 110.092218,65.9325653 110.092218,69.7244754 C110.092218,73.5163855 111.740646,76.9232848 114.359985,79.2676569 L114.359985,79.2676569 Z" id="Oval-113-Copy-39" sketch:type="MSShapeGroup" transform="translate(114.359985, 69.724475) rotate(-225.000000) translate(-114.359985, -69.724475) "></path>
                <path d="M99.6400151,79.2676569 C102.259354,76.9232848 103.907782,73.5163855 103.907782,69.7244754 C103.907782,65.9325653 102.259354,62.5256661 99.6400151,60.181294 C97.0206759,62.5256661 95.3722481,65.9325653 95.3722481,69.7244754 C95.3722481,73.5163855 97.0206759,76.9232848 99.6400151,79.2676569 L99.6400151,79.2676569 Z" id="Oval-113-Copy-30" sketch:type="MSShapeGroup" transform="translate(99.640015, 69.724475) rotate(-135.000000) translate(-99.640015, -69.724475) "></path>
                <path d="M107,89.4625037 C109.761872,86.9905612 111.5,83.3982736 111.5,79.4000244 C111.5,75.4017753 109.761872,71.8094876 107,69.3375451 C104.238128,71.8094876 102.5,75.4017753 102.5,79.4000244 C102.5,83.3982736 104.238128,86.9905612 107,89.4625037 L107,89.4625037 Z" id="Oval-113-Copy-40" sketch:type="MSShapeGroup" transform="translate(107.000000, 79.400024) rotate(-180.000000) translate(-107.000000, -79.400024) "></path>
            </g>
        </g>
    </g>
</svg>