<?xml version="1.0" encoding="UTF-8" standalone="no"?>
<svg width="128px" height="128px" viewBox="0 0 128 128" version="1.1" xmlns="http://www.w3.org/2000/svg" xmlns:xlink="http://www.w3.org/1999/xlink" xmlns:sketch="http://www.bohemiancoding.com/sketch/ns">
    <!-- Generator: Sketch 3.4.2 (15857) - http://www.bohemiancoding.com/sketch -->
    <title></title>
    <desc>Created with Sketch.</desc>
    <defs></defs>
    <g id="Tileset" stroke="none" stroke-width="1" fill="none" fill-rule="evenodd" sketch:type="MSPage">
        <g id="nature" sketch:type="MSArtboardGroup" transform="translate(-1024.000000, -512.000000)">
            <g id="Nature-Bush-B-01" sketch:type="MSLayerGroup" transform="translate(1024.000000, 512.000000)">
                <rect id="Rectangle-927-Copy" sketch:type="MSShapeGroup" x="0" y="0" width="128" height="128"></rect>
                <rect id="Rectangle-20-Copy-27" fill="#8BB363" sketch:type="MSShapeGroup" x="44" y="54" width="50" height="50" rx="10"></rect>
                <path d="M76,98 L76,80.0035652 C76,74.4788511 71.523349,70 66.0011202,70 L31.9988798,70 C26.476505,70 22,74.4787487 22,80.0035652 L22,98 L18.0008091,98 C12.4770023,98 8,102.477148 8,107.999989 L8,118.000011 C8,123.524905 12.4775148,128 18.0008091,128 L109.999191,128 C115.522998,128 120,123.522852 120,118.000011 L120,107.999989 C120,102.475095 115.522485,98 109.999191,98 L76,98 Z" id="Rectangle-20-Copy-15" fill="#9BCA6A" sketch:type="MSShapeGroup"></path>
                <path d="M108,128 L108,96.0035652 C108,90.4788511 103.52014,86 97.9939517,86 L52.0060483,86 C46.4845597,86 42,90.4787487 42,96.0035652 L42,106 L37.9999892,106 C32.4750951,106 28,110.477148 28,115.999989 L28,126.000011 C28,126.684986 28.0688182,127.353825 28.1999154,128 L108,128 Z" id="Rectangle-20-Copy-16" fill="#B8E986" sketch:type="MSShapeGroup"></path>
                <path d="M92,78 C95.3137085,78 98,75.3137085 98,72 C98,68.6862915 95.3137085,66 92,66 C88.6862915,66 86,68.6862915 86,72 C86,75.3137085 88.6862915,78 92,78 Z M57,92 C60.3137085,92 63,89.3137085 63,86 C63,82.6862915 60.3137085,80 57,80 C53.6862915,80 51,82.6862915 51,86 C51,89.3137085 53.6862915,92 57,92 Z M78,120 C81.3137085,120 84,117.313708 84,114 C84,110.686292 81.3137085,108 78,108 C74.6862915,108 72,110.686292 72,114 C72,117.313708 74.6862915,120 78,120 Z" id="Oval-257" fill="#CC4B2B" sketch:type="MSShapeGroup"></path>
            </g>
        </g>
    </g>
</svg>