<?xml version="1.0" encoding="UTF-8" standalone="no"?>
<svg width="128px" height="128px" viewBox="0 0 128 128" version="1.1" xmlns="http://www.w3.org/2000/svg" xmlns:xlink="http://www.w3.org/1999/xlink" xmlns:sketch="http://www.bohemiancoding.com/sketch/ns">
    <!-- Generator: Sketch 3.4.2 (15857) - http://www.bohemiancoding.com/sketch -->
    <title></title>
    <desc>Created with Sketch.</desc>
    <defs></defs>
    <g id="Tileset" stroke="none" stroke-width="1" fill="none" fill-rule="evenodd" sketch:type="MSPage">
        <g id="nature" sketch:type="MSArtboardGroup" transform="translate(-1152.000000, -768.000000)">
            <g id="Nature-Rock-A-02" sketch:type="MSLayerGroup" transform="translate(1152.000000, 768.000000)">
                <rect id="Mask" sketch:type="MSShapeGroup" x="0" y="0" width="128" height="128"></rect>
                <g id="Group" transform="translate(0.000000, 54.000000)" sketch:type="MSShapeGroup">
                    <rect id="Rectangle-20-Copy-15" fill="#5F7173" x="24" y="10" width="76" height="54" rx="10"></rect>
                    <path d="M128,0 L121.997687,0 C116.473771,0 112,4.47585239 112,9.99709612 L112,58.0029039 C112,63.5251896 116.476117,68 121.997687,68 L128,68 L128,0 Z" id="Rectangle-20-Copy-26" fill="#5F7173"></path>
                    <path d="M128,20 L50.0070544,20 C44.4701647,20 40,24.476651 40,29.9988798 L40,74 L84,74 L128,74 L128,20 Z" id="Rectangle-20-Copy-16" fill="#6D8183"></path>
                    <path d="M128,46 L123.994264,46 C118.47041,46 114,50.4727014 114,55.9900582 L114,74 L121,74 L128,74 L128,46 Z" id="Path-Copy-6" fill="#8DA1A3"></path>
                    <path d="M0,62.0021973 C0,56.4781363 4.47616904,52 9.99920117,52 L64.0007988,52 C69.5232051,52 74,56.4785457 74,62.0021973 L74,74 L0,74 L0,62.0021973 Z" id="Path" fill="#8DA1A3"></path>
                </g>
            </g>
        </g>
    </g>
</svg>