<?xml version="1.0" encoding="UTF-8" standalone="no"?>
<svg width="128px" height="128px" viewBox="0 0 128 128" version="1.1" xmlns="http://www.w3.org/2000/svg" xmlns:xlink="http://www.w3.org/1999/xlink" xmlns:sketch="http://www.bohemiancoding.com/sketch/ns">
    <!-- Generator: Sketch 3.4.2 (15857) - http://www.bohemiancoding.com/sketch -->
    <title></title>
    <desc>Created with Sketch.</desc>
    <defs>
        <linearGradient x1="50%" y1="0%" x2="50%" y2="100%" id="linearGradient-1">
            <stop stop-color="#EDEAAA" offset="0%"></stop>
            <stop stop-color="#F3F5D9" offset="100%"></stop>
        </linearGradient>
    </defs>
    <g id="Tileset" stroke="none" stroke-width="1" fill="none" fill-rule="evenodd" sketch:type="MSPage">
        <g id="nature" sketch:type="MSArtboardGroup" transform="translate(-768.000000, -128.000000)">
            <g id="Nature-Fungus-A-02" sketch:type="MSLayerGroup" transform="translate(768.000000, 128.000000)">
                <rect id="Rectangle-942" sketch:type="MSShapeGroup" x="0" y="0" width="128" height="128"></rect>
                <g id="Arbol-chico-Copy-14" transform="translate(1.000000, 7.000000)" sketch:type="MSShapeGroup">
                    <rect id="Rectangle-1" fill="url(#linearGradient-1)" x="35" y="69" width="36" height="52"></rect>
                    <rect id="Rectangle-1-Copy-15" fill="#DFDD97" x="35" y="75" width="36" height="8"></rect>
                    <path d="M53,75.3801163 C81.7666927,75.3801163 105.086705,80.9406999 105.086705,52.1740072 C105.086705,23.4073144 81.7666927,0.0873023777 53,0.0873023777 C24.2333073,0.0873023777 0.913295201,23.4073144 0.913295201,52.1740072 C0.913295201,80.9406999 24.2333073,75.3801163 53,75.3801163 Z" id="Oval-113-Copy-4" fill="#53C1C4"></path>
                    <path d="M37.8846036,28.7277053 C43.4419019,27.2386318 46.9410384,22.2772655 45.7001437,17.6461835 C44.4592491,13.0151016 38.9482248,10.4680006 33.3909265,11.9570742 C27.8336282,13.4461478 24.3344917,18.4075141 25.5753864,23.038596 C26.816281,27.6696779 32.3273053,30.2167789 37.8846036,28.7277053 Z M69.2758142,25.4655571 C74.9583196,26.3655775 80.0513075,24.0241344 80.6513211,20.2357975 C81.2513348,16.4474605 77.1311611,12.6467959 71.4486557,11.7467755 C65.7661503,10.8467551 60.6731624,13.1881982 60.0731487,16.9765351 C59.4731351,20.7648721 63.5933088,24.5655367 69.2758142,25.4655571 Z M18.2755301,60.2755301 C22.1110892,60.2755301 25.2204241,56.3888615 25.2204241,51.5944127 C25.2204241,46.7999639 22.1110892,42.9132952 18.2755301,42.9132952 C14.4399711,42.9132952 11.3306362,46.7999639 11.3306362,51.5944127 C11.3306362,56.3888615 14.4399711,60.2755301 18.2755301,60.2755301 Z M90.5471141,42.827792 C93.3883668,42.3777818 95.2052501,38.9419226 94.6052365,35.1535856 C94.0052228,31.3652487 91.2155253,28.6590002 88.3742726,29.1090104 C85.5330199,29.5590206 83.7161366,32.9948799 84.3161503,36.7832168 C84.9161639,40.5715537 87.7058614,43.2778023 90.5471141,42.827792 Z M56.472447,60.2755301 C64.143565,60.2755301 70.3622349,54.0568602 70.3622349,46.3857422 C70.3622349,38.7146241 64.143565,32.4959542 56.472447,32.4959542 C48.8013289,32.4959542 42.582659,38.7146241 42.582659,46.3857422 C42.582659,54.0568602 48.8013289,60.2755301 56.472447,60.2755301 Z" id="Oval-420" fill="#26676E"></path>
                </g>
                <g id="Arbol-chico-Copy-15" transform="translate(64.000000, 57.000000)" sketch:type="MSShapeGroup">
                    <rect id="Rectangle-1" fill="url(#linearGradient-1)" x="22" y="38" width="16" height="33"></rect>
                    <rect id="Rectangle-1-Copy-16" fill="#DFDD97" x="22" y="40" width="16" height="8"></rect>
                    <path d="M30,43.6996785 C46.5685425,43.6996785 60,46.9023673 60,30.3338248 C60,13.7652823 46.5685425,0.333824828 30,0.333824828 C13.4314575,0.333824828 0,13.7652823 0,30.3338248 C0,46.9023673 13.4314575,43.6996785 30,43.6996785 Z" id="Oval-113-Copy-4" fill="#26676E"></path>
                </g>
                <g id="Arbol-chico-Copy-17" transform="translate(5.000000, 86.000000)" sketch:type="MSShapeGroup">
                    <rect id="Rectangle-1" fill="url(#linearGradient-1)" x="15" y="30" width="12" height="12"></rect>
                    <rect id="Rectangle-1-Copy-17" fill="#DFDD97" x="15" y="28" width="12" height="8"></rect>
                    <path d="M21,32.1278939 C32.5979797,32.1278939 42,34.4298265 42,22.5211866 C42,10.6125467 32.5979797,0.958686595 21,0.958686595 C9.40202025,0.958686595 0,10.6125467 0,22.5211866 C0,34.4298265 9.40202025,32.1278939 21,32.1278939 Z" id="Oval-113-Copy-4" fill="#26676E"></path>
                </g>
            </g>
        </g>
    </g>
</svg>