<?xml version="1.0" encoding="UTF-8" standalone="no"?>
<svg width="128px" height="128px" viewBox="0 0 128 128" version="1.1" xmlns="http://www.w3.org/2000/svg" xmlns:xlink="http://www.w3.org/1999/xlink" xmlns:sketch="http://www.bohemiancoding.com/sketch/ns">
    <!-- Generator: Sketch 3.4.2 (15857) - http://www.bohemiancoding.com/sketch -->
    <title></title>
    <desc>Created with Sketch.</desc>
    <defs></defs>
    <g id="Tileset" stroke="none" stroke-width="1" fill="none" fill-rule="evenodd" sketch:type="MSPage">
        <g id="nature" sketch:type="MSArtboardGroup" transform="translate(-1024.000000, 0.000000)">
            <g id="Nature-Tree-A-03" sketch:type="MSLayerGroup" transform="translate(1024.000000, 0.000000)">
                <rect id="Rectangle-927" sketch:type="MSShapeGroup" x="0" y="0" width="128" height="128"></rect>
                <rect id="Rectangle-1-Copy-3" fill="#B9906C" sketch:type="MSShapeGroup" x="54" y="100" width="24" height="28"></rect>
                <path d="M54,112 L54,120 L78,120 L78,102 L91.9933138,102 C97.5251634,102 102,97.523349 102,92.0011202 L102,57.9988798 C102,52.476505 97.519854,48 91.9933138,48 L70.0066862,48 C64.4748366,48 60,52.476651 60,57.9988798 C59.9977714,58.0000007 59.9955427,58 59.9933138,58 L38.0066862,58 C32.4748366,58 28,62.476651 28,67.9988798 L28,102.00112 C28,107.523495 32.480146,112 38.0066862,112 L54,112 Z" id="Rectangle-1-Copy-7" fill="#AD765F" sketch:type="MSShapeGroup"></path>
                <rect id="Rectangle-20-Copy-49" fill="#B8E986" sketch:type="MSShapeGroup" x="20" y="10" width="76" height="70" rx="10"></rect>
                <rect id="Rectangle-20-Copy-27" fill="#8BB363" sketch:type="MSShapeGroup" x="36" y="24" width="92" height="46" rx="10"></rect>
                <rect id="Rectangle-20-Copy-28" fill="#8BB363" sketch:type="MSShapeGroup" x="0" y="46" width="62" height="36" rx="10"></rect>
                <rect id="Rectangle-20-Copy-15" fill="#9BCA6A" sketch:type="MSShapeGroup" x="12" y="36" width="62" height="64" rx="10"></rect>
                <rect id="Rectangle-20-Copy-16" fill="#B8E986" sketch:type="MSShapeGroup" x="54" y="50" width="62" height="40" rx="10"></rect>
            </g>
        </g>
    </g>
</svg>