<?xml version="1.0" encoding="UTF-8" standalone="no"?>
<svg width="128px" height="128px" viewBox="0 0 128 128" version="1.1" xmlns="http://www.w3.org/2000/svg" xmlns:xlink="http://www.w3.org/1999/xlink" xmlns:sketch="http://www.bohemiancoding.com/sketch/ns">
    <!-- Generator: Sketch 3.4.2 (15857) - http://www.bohemiancoding.com/sketch -->
    <title></title>
    <desc>Created with Sketch.</desc>
    <defs>
        <rect id="path-1" x="0" y="0" width="128" height="128"></rect>
    </defs>
    <g id="Tileset" stroke="none" stroke-width="1" fill="none" fill-rule="evenodd" sketch:type="MSPage">
        <g id="nature" sketch:type="MSArtboardGroup" transform="translate(-768.000000, -640.000000)">
            <g id="Nature-Corn-01" sketch:type="MSLayerGroup" transform="translate(768.000000, 640.000000)">
                <mask id="mask-2" sketch:name="Mask" fill="white">
                    <use xlink:href="#path-1"></use>
                </mask>
                <use id="Mask" sketch:type="MSShapeGroup" xlink:href="#path-1"></use>
                <g id="Maiz" mask="url(#mask-2)" sketch:type="MSShapeGroup">
                    <g transform="translate(0.000000, 22.000000)">
                        <path d="M16,44 L16,104" id="Line-Copy" stroke="#9BCA6A" stroke-width="4" stroke-linecap="square" fill="none"></path>
                        <rect id="Rectangle-716-Copy" stroke="none" fill="#739B64" fill-rule="evenodd" x="4" y="10" width="24" height="24" rx="6"></rect>
                        <rect id="Rectangle-716" stroke="none" fill="#FFCF62" fill-rule="evenodd" x="8" y="0" width="16" height="42" rx="10"></rect>
                        <path d="M0.747772604,20.1964394 C0.334789199,18.0314346 1.75563395,15.892866 3.90625763,15.4231023 L4.09374237,15.3821498 C6.25110889,14.9109132 8.85606808,16.1079451 9.90927419,18.0506171 L21.2353815,38.9419795 C23.8668076,43.7957281 21.5240618,47.7304688 16,47.7304688 L16,47.7304688 C10.4771525,47.7304688 5.15940804,43.3237891 4.12624281,37.9075724 L0.747772604,20.1964394 Z" id="Rectangle-716-Copy-4" stroke="none" fill="#9BCA6A" fill-rule="evenodd"></path>
                        <path d="M31.443828,20.1964394 C31.8568114,18.0314346 30.4359667,15.892866 28.285343,15.4231023 L28.0978583,15.3821498 C25.9404917,14.9109132 23.3355326,16.1079451 22.2823264,18.0506171 L10.9562191,38.9419795 C8.324793,43.7957281 10.6675388,47.7304687 16.1916006,47.7304687 L16.1916006,47.7304687 C21.7144481,47.7304687 27.0321926,43.3237891 28.0653578,37.9075724 L31.443828,20.1964394 Z" id="Rectangle-716-Copy-3" stroke="none" fill="#9BCA6A" fill-rule="evenodd"></path>
                    </g>
                </g>
                <g id="Maiz-Copy" mask="url(#mask-2)" sketch:type="MSShapeGroup">
                    <g transform="translate(32.000000, 38.000000)">
                        <path d="M16,44 L16,104" id="Line-Copy" stroke="#9BCA6A" stroke-width="4" stroke-linecap="square" fill="none"></path>
                        <rect id="Rectangle-716-Copy" stroke="none" fill="#739B64" fill-rule="evenodd" x="4" y="10" width="24" height="24" rx="6"></rect>
                        <rect id="Rectangle-716" stroke="none" fill="#FFCF62" fill-rule="evenodd" x="8" y="0" width="16" height="42" rx="10"></rect>
                        <path d="M0.747772604,20.1964394 C0.334789199,18.0314346 1.75563395,15.892866 3.90625763,15.4231023 L4.09374237,15.3821498 C6.25110889,14.9109132 8.85606808,16.1079451 9.90927419,18.0506171 L21.2353815,38.9419795 C23.8668076,43.7957281 21.5240618,47.7304688 16,47.7304688 L16,47.7304688 C10.4771525,47.7304688 5.15940804,43.3237891 4.12624281,37.9075724 L0.747772604,20.1964394 Z" id="Rectangle-716-Copy-4" stroke="none" fill="#9BCA6A" fill-rule="evenodd"></path>
                        <path d="M31.443828,20.1964394 C31.8568114,18.0314346 30.4359667,15.892866 28.285343,15.4231023 L28.0978583,15.3821498 C25.9404917,14.9109132 23.3355326,16.1079451 22.2823264,18.0506171 L10.9562191,38.9419795 C8.324793,43.7957281 10.6675388,47.7304687 16.1916006,47.7304687 L16.1916006,47.7304687 C21.7144481,47.7304687 27.0321926,43.3237891 28.0653578,37.9075724 L31.443828,20.1964394 Z" id="Rectangle-716-Copy-3" stroke="none" fill="#9BCA6A" fill-rule="evenodd"></path>
                    </g>
                </g>
                <g id="Maiz-Copy-3" mask="url(#mask-2)" sketch:type="MSShapeGroup">
                    <g transform="translate(64.000000, 22.000000)">
                        <path d="M16,44 L16,104" id="Line-Copy" stroke="#9BCA6A" stroke-width="4" stroke-linecap="square" fill="none"></path>
                        <rect id="Rectangle-716-Copy" stroke="none" fill="#739B64" fill-rule="evenodd" x="4" y="10" width="24" height="24" rx="6"></rect>
                        <rect id="Rectangle-716" stroke="none" fill="#FFCF62" fill-rule="evenodd" x="8" y="0" width="16" height="42" rx="10"></rect>
                        <path d="M0.747772604,20.1964394 C0.334789199,18.0314346 1.75563395,15.892866 3.90625763,15.4231023 L4.09374237,15.3821498 C6.25110889,14.9109132 8.85606808,16.1079451 9.90927419,18.0506171 L21.2353815,38.9419795 C23.8668076,43.7957281 21.5240618,47.7304687 16,47.7304687 L16,47.7304687 C10.4771525,47.7304687 5.15940804,43.3237891 4.12624281,37.9075724 L0.747772604,20.1964394 Z" id="Rectangle-716-Copy-4" stroke="none" fill="#9BCA6A" fill-rule="evenodd"></path>
                        <path d="M31.443828,20.1964394 C31.8568114,18.0314346 30.4359667,15.892866 28.285343,15.4231023 L28.0978583,15.3821498 C25.9404917,14.9109132 23.3355326,16.1079451 22.2823264,18.0506171 L10.9562191,38.9419795 C8.324793,43.7957281 10.6675388,47.7304687 16.1916006,47.7304687 L16.1916006,47.7304687 C21.7144481,47.7304687 27.0321926,43.3237891 28.0653578,37.9075724 L31.443828,20.1964394 Z" id="Rectangle-716-Copy-3" stroke="none" fill="#9BCA6A" fill-rule="evenodd"></path>
                    </g>
                </g>
                <path d="M45.9737775,113.973778 C46.2323384,109.306231 44.578788,104.552536 41.0131262,100.986874 C37.4474643,97.421212 32.6937688,95.7676616 28.0262225,96.0262225 C27.7676616,100.693769 29.421212,105.447464 32.9868738,109.013126 C36.5525357,112.578788 41.3062312,114.232338 45.9737775,113.973778 L45.9737775,113.973778 Z" id="Oval-113-Copy-25" fill="#9BCA6A" sketch:type="MSShapeGroup" mask="url(#mask-2)"></path>
                <path d="M95.0131262,91.0131262 C98.578788,87.4474643 100.232338,82.6937688 99.9737775,78.0262225 C95.3062312,77.7676616 90.5525357,79.421212 86.9868738,82.9868738 C83.421212,86.5525357 81.7676616,91.3062312 82.0262225,95.9737775 C86.6937688,96.2323384 91.4474643,94.578788 95.0131262,91.0131262 Z" id="Oval-113-Copy-24" fill="#9BCA6A" sketch:type="MSShapeGroup" mask="url(#mask-2)"></path>
                <g id="Maiz-Copy-2" mask="url(#mask-2)" sketch:type="MSShapeGroup">
                    <g transform="translate(96.000000, 34.000000)">
                        <path d="M16,44 L16,104" id="Line-Copy" stroke="#9BCA6A" stroke-width="4" stroke-linecap="square" fill="none"></path>
                        <rect id="Rectangle-716-Copy" stroke="none" fill="#739B64" fill-rule="evenodd" x="4" y="10" width="24" height="24" rx="6"></rect>
                        <rect id="Rectangle-716" stroke="none" fill="#FFCF62" fill-rule="evenodd" x="8" y="0" width="16" height="42" rx="10"></rect>
                        <path d="M0.747772604,20.1964394 C0.334789199,18.0314346 1.75563395,15.892866 3.90625763,15.4231023 L4.09374237,15.3821498 C6.25110889,14.9109132 8.85606808,16.1079451 9.90927419,18.0506171 L21.2353815,38.9419795 C23.8668076,43.7957281 21.5240618,47.7304687 16,47.7304687 L16,47.7304687 C10.4771525,47.7304687 5.15940804,43.3237891 4.12624281,37.9075724 L0.747772604,20.1964394 Z" id="Rectangle-716-Copy-4" stroke="none" fill="#9BCA6A" fill-rule="evenodd"></path>
                        <path d="M31.443828,20.1964394 C31.8568114,18.0314346 30.4359667,15.892866 28.285343,15.4231023 L28.0978583,15.3821498 C25.9404917,14.9109132 23.3355326,16.1079451 22.2823264,18.0506171 L10.9562191,38.9419795 C8.324793,43.7957281 10.6675388,47.7304687 16.1916006,47.7304687 L16.1916006,47.7304687 C21.7144481,47.7304687 27.0321926,43.3237891 28.0653578,37.9075724 L31.443828,20.1964394 Z" id="Rectangle-716-Copy-3" stroke="none" fill="#9BCA6A" fill-rule="evenodd"></path>
                    </g>
                </g>
            </g>
        </g>
    </g>
</svg>