<?xml version="1.0" encoding="UTF-8" standalone="no"?>
<svg width="128px" height="128px" viewBox="0 0 128 128" version="1.1" xmlns="http://www.w3.org/2000/svg" xmlns:xlink="http://www.w3.org/1999/xlink" xmlns:sketch="http://www.bohemiancoding.com/sketch/ns">
    <!-- Generator: Sketch 3.4.2 (15857) - http://www.bohemiancoding.com/sketch -->
    <title></title>
    <desc>Created with Sketch.</desc>
    <defs>
        <rect id="path-1" x="0" y="0" width="128" height="128"></rect>
    </defs>
    <g id="Tileset" stroke="none" stroke-width="1" fill="none" fill-rule="evenodd" sketch:type="MSPage">
        <g id="nature" sketch:type="MSArtboardGroup" transform="translate(-896.000000, -896.000000)">
            <g id="Nature-Grass-01" sketch:type="MSLayerGroup" transform="translate(896.000000, 896.000000)">
                <mask id="mask-2" sketch:name="Mask" fill="white">
                    <use xlink:href="#path-1"></use>
                </mask>
                <use id="Mask" sketch:type="MSShapeGroup" xlink:href="#path-1"></use>
                <path d="M48,120 L48,111.991652 C48,107.577985 51.5907123,104 56,104 C60.418278,104 64,107.580076 64,111.991652 L64,120 L64,120 L64,101.992971 C64,97.5785752 67.5907123,94 72,94 C76.418278,94 80,97.5743339 80,101.992971 L80,120 L80,120 L80,109.995275 C80,105.579607 83.5907123,102 88,102 C92.418278,102 96,105.587891 96,109.995275 L96,120 L96.0000001,120 L96,107.001145 C96,102.582234 99.5907123,99 104,99 C108.418278,99 112,102.585055 112,107.001145 L112,119.998855 L112.000001,120 C112,119.99842 112,119.996841 112,119.995261 L112,114.004739 C112,109.583844 115.590712,106 120,106 C124.418278,106 128,109.583644 128,114.004739 L128,119.995261 C128,119.996841 128,119.99842 127.999999,120 L128,128 L0,128 L0,120.004174 L0,111.991652 C0,107.577985 3.59071231,104 8,104 C12.418278,104 16,107.580076 16,111.991652 L16,120 L16,120 L16,101.992971 C16,97.5785752 19.5907123,94 24,94 C28.418278,94 32,97.5743339 32,101.992971 L32,120 L32,120 L32,98.0007951 C32,93.582078 35.5907123,90 40,90 C44.418278,90 48,93.5749477 48,98.0007951 L48,119.999205 L48,120 Z" id="Path-Copy" fill="#9BCA6A" sketch:type="MSShapeGroup" mask="url(#mask-2)"></path>
            </g>
        </g>
    </g>
</svg>