<?xml version="1.0" encoding="UTF-8" standalone="no"?>
<svg width="128px" height="128px" viewBox="0 0 128 128" version="1.1" xmlns="http://www.w3.org/2000/svg" xmlns:xlink="http://www.w3.org/1999/xlink" xmlns:sketch="http://www.bohemiancoding.com/sketch/ns">
    <!-- Generator: Sketch 3.3.3 (12081) - http://www.bohemiancoding.com/sketch -->
    <title></title>
    <desc>Created with Sketch.</desc>
    <defs></defs>
    <g id="Tileset" stroke="none" stroke-width="1" fill="none" fill-rule="evenodd" sketch:type="MSPage">
        <g id="nature" sketch:type="MSArtboardGroup" transform="translate(-1280.000000, -640.000000)">
            <g id="Plants-Bush-C-03" sketch:type="MSLayerGroup" transform="translate(1280.000000, 640.000000)">
                <rect id="Rectangle-944-Copy" sketch:type="MSShapeGroup" x="0" y="0" width="128" height="128"></rect>
                <rect id="Rectangle-20-Copy-27" fill="#8BB363" sketch:type="MSShapeGroup" x="0" y="28" width="128" height="52"></rect>
                <rect id="Rectangle-20-Copy-15" fill="#9BCA6A" sketch:type="MSShapeGroup" x="0" y="46" width="128" height="74"></rect>
                <rect id="Rectangle-20-Copy-16" fill="#B8E986" sketch:type="MSShapeGroup" x="0" y="64" width="128" height="64"></rect>
                <path d="M101,36 C104.313708,36 107,33.3137085 107,30 C107,26.6862915 104.313708,24 101,24 C97.6862915,24 95,26.6862915 95,30 C95,33.3137085 97.6862915,36 101,36 Z M24,54 C27.3137085,54 30,51.3137085 30,48 C30,44.6862915 27.3137085,42 24,42 C20.6862915,42 18,44.6862915 18,48 C18,51.3137085 20.6862915,54 24,54 Z M71,72 C74.3137085,72 77,69.3137085 77,66 C77,62.6862915 74.3137085,60 71,60 C67.6862915,60 65,62.6862915 65,66 C65,69.3137085 67.6862915,72 71,72 Z" id="Oval-257-Copy-5" fill="#EFFF91" sketch:type="MSShapeGroup"></path>
            </g>
        </g>
    </g>
</svg>